<svg width="24" height="24" viewBox="0 0 24 24" fill="none" xmlns="http://www.w3.org/2000/svg">
<path d="M19.6553 11.4694C19.725 11.539 19.7803 11.6217 19.8181 11.7128C19.8558 11.8038 19.8753 11.9014 19.8753 12C19.8753 12.0985 19.8558 12.1961 19.8181 12.2872C19.7803 12.3782 19.725 12.461 19.6553 12.5306L11.9631 20.2181C10.9784 21.2027 9.64281 21.7558 8.25027 21.7557C6.85772 21.7557 5.52225 21.2024 4.53763 20.2176C3.55301 19.2329 2.99991 17.8974 3 16.5048C3.00009 15.1123 3.55336 13.7768 4.5381 12.7922L13.8437 3.34967C14.5468 2.6459 15.5006 2.25022 16.4953 2.2497C17.4901 2.24917 18.4443 2.64383 19.1481 3.34686C19.8519 4.04989 20.2476 5.0037 20.2481 5.99847C20.2486 6.99323 19.8539 7.94746 19.1509 8.65124L9.84341 18.0937C9.42072 18.5164 8.84743 18.7539 8.24966 18.7539C7.65189 18.7539 7.0786 18.5164 6.65591 18.0937C6.23322 17.671 5.99576 17.0978 5.99576 16.5C5.99576 15.9022 6.23322 15.3289 6.65591 14.9062L14.4653 6.97311C14.5337 6.90013 14.616 6.84158 14.7074 6.80089C14.7988 6.7602 14.8974 6.73821 14.9974 6.73619C15.0974 6.73418 15.1968 6.75219 15.2897 6.78917C15.3827 6.82615 15.4673 6.88134 15.5386 6.95151C15.6098 7.02167 15.6664 7.10539 15.7048 7.19773C15.7433 7.29007 15.7629 7.38917 15.7625 7.4892C15.762 7.58923 15.7416 7.68816 15.7024 7.78017C15.6632 7.87219 15.6059 7.95542 15.534 8.02499L7.72372 15.9665C7.6538 16.0359 7.59822 16.1184 7.56016 16.2092C7.5221 16.3001 7.50231 16.3976 7.50192 16.4961C7.50153 16.5946 7.52054 16.6922 7.55787 16.7833C7.59521 16.8745 7.65013 16.9574 7.71951 17.0273C7.78888 17.0973 7.87135 17.1528 7.9622 17.1909C8.05306 17.229 8.15052 17.2487 8.24902 17.2491C8.34753 17.2495 8.44514 17.2305 8.53629 17.1932C8.62745 17.1558 8.71036 17.1009 8.78029 17.0315L18.0868 7.59374C18.5095 7.17192 18.7473 6.59946 18.748 6.00231C18.7486 5.40515 18.5119 4.83221 18.0901 4.40952C17.6683 3.98683 17.0959 3.74902 16.4987 3.7484C15.9015 3.74779 15.3286 3.98442 14.9059 4.40624L5.60216 13.845C5.25363 14.193 4.97704 14.6062 4.7882 15.0611C4.59936 15.5159 4.50197 16.0036 4.50158 16.4961C4.50119 16.9886 4.59781 17.4763 4.78592 17.9315C4.97403 18.3867 5.24996 18.8004 5.59794 19.1489C5.94593 19.4974 6.35915 19.774 6.81402 19.9629C7.2689 20.1517 7.75651 20.2491 8.24902 20.2495C8.74154 20.2499 9.2293 20.1532 9.68448 19.9651C10.1396 19.777 10.5533 19.5011 10.9018 19.1531L18.595 11.4656C18.7361 11.3256 18.9271 11.2473 19.1259 11.248C19.3247 11.2487 19.5151 11.3283 19.6553 11.4694Z" fill="#FFFFFD"/>
</svg>
