<svg width="25" height="24" viewBox="0 0 25 24" fill="none" xmlns="http://www.w3.org/2000/svg">
<g clip-path="url(#clip0_8027_163600)">
<path d="M24.5899 10.1166L22.1974 5.32969C22.1092 5.1535 21.9872 4.9964 21.8384 4.86736C21.6895 4.73832 21.5167 4.63986 21.3298 4.57762C21.1429 4.51537 20.9455 4.49055 20.749 4.50458C20.5525 4.51861 20.3607 4.57121 20.1845 4.65938L17.853 5.82469L12.9414 4.52531C12.8154 4.49252 12.6831 4.49252 12.557 4.52531L7.64548 5.82469L5.31391 4.65938C5.13774 4.57121 4.94593 4.51861 4.74942 4.50458C4.55292 4.49055 4.35558 4.51537 4.16867 4.57762C3.98175 4.63986 3.80894 4.73832 3.66008 4.86736C3.51122 4.9964 3.38924 5.1535 3.3011 5.32969L0.908602 10.1156C0.820435 10.2918 0.767836 10.4836 0.753808 10.6801C0.73978 10.8766 0.764597 11.074 0.826843 11.2609C0.889088 11.4478 0.987543 11.6206 1.11658 11.7695C1.24563 11.9183 1.40273 12.0403 1.57891 12.1284L4.11016 13.395L9.31235 17.1103C9.38901 17.1649 9.47517 17.2046 9.56641 17.2275L15.5664 18.7275C15.6921 18.759 15.8237 18.7574 15.9486 18.7229C16.0735 18.6884 16.1873 18.6222 16.2789 18.5306L20.0289 14.7806L21.4427 13.3669L23.9195 12.1284C24.2751 11.9504 24.5455 11.6385 24.6712 11.2613C24.7969 10.884 24.7676 10.4723 24.5899 10.1166ZM19.4439 13.245L16.218 10.6613C16.0735 10.5455 15.8912 10.4873 15.7064 10.4979C15.5215 10.5084 15.3471 10.587 15.2167 10.7184C13.547 12.4003 11.6861 12.1875 10.4992 11.4375L14.553 7.5H17.5352L20.0861 12.6009L19.4439 13.245ZM15.5186 17.1694L10.0699 15.8072L5.45735 12.5128L8.08235 7.26281L12.7492 6.02625L13.668 6.26906L9.44923 10.3641L9.44173 10.3725C9.28292 10.5313 9.1618 10.7237 9.08731 10.9356C9.01281 11.1475 8.98684 11.3734 9.01132 11.5966C9.03579 11.8199 9.11009 12.0348 9.22872 12.2255C9.34735 12.4162 9.50729 12.5778 9.69673 12.6984C11.6242 13.9294 13.9502 13.7297 15.782 12.2297L18.3742 14.3119L15.5186 17.1694ZM13.1074 20.4319C13.0668 20.594 12.9733 20.7379 12.8417 20.8408C12.7101 20.9437 12.5479 20.9998 12.3808 21C12.3192 20.9999 12.2578 20.9924 12.198 20.9775L8.28766 19.9997C8.19629 19.9771 8.11006 19.9374 8.0336 19.8825L5.56329 18.1181C5.4114 17.9989 5.31136 17.8256 5.28401 17.6344C5.25666 17.4433 5.30411 17.2489 5.41647 17.0919C5.52883 16.9348 5.69745 16.8271 5.88721 16.7913C6.07696 16.7554 6.27324 16.7941 6.43516 16.8994L8.78923 18.5813L12.5617 19.5225C12.7547 19.5708 12.9205 19.6937 13.0228 19.8642C13.1252 20.0347 13.1556 20.2389 13.1074 20.4319Z" fill="#D0CFD0"/>
</g>
<defs>
<clipPath id="clip0_8027_163600">
<rect width="24" height="24" fill="white" transform="translate(0.75)"/>
</clipPath>
</defs>
</svg>
