<svg width="171" height="32" viewBox="0 0 171 32" fill="none" xmlns="http://www.w3.org/2000/svg">
<path fill-rule="evenodd" clip-rule="evenodd" d="M125.786 0H121.739H121.722V26.4196H125.769V12.3292C126.24 12.2071 126.728 12.1025 127.234 12.0153C127.653 11.9281 128.141 11.8583 128.664 11.7886C129.188 11.7188 129.728 11.6839 130.269 11.6839C130.949 11.6839 131.49 11.7362 131.909 11.8583C132.31 11.9804 132.624 12.1548 132.851 12.3815C133.077 12.6256 133.217 12.9221 133.287 13.2708C133.357 13.6371 133.391 14.0556 133.391 14.5264V26.4196H137.438V14.0207C137.438 12.8349 137.316 11.8583 137.072 11.091C136.828 10.3237 136.462 9.73079 136.008 9.27739C135.554 8.82398 134.996 8.51008 134.333 8.33569C133.671 8.16131 132.938 8.07411 132.118 8.07411C131.298 8.07411 130.513 8.14387 129.746 8.28338C128.996 8.40545 128.315 8.5624 127.722 8.71935C127.025 8.91117 126.379 9.12044 125.786 9.34714V0ZM44.6557 1.30786H54.2846C54.8079 1.30786 55.3312 1.34274 55.872 1.42993C56.4127 1.51713 56.9186 1.65663 57.407 1.88334C57.8954 2.11004 58.349 2.4065 58.7676 2.77271C59.1863 3.13892 59.5526 3.62721 59.8666 4.20269C60.1805 4.77816 60.4248 5.49315 60.5992 6.31277C60.7736 7.13239 60.8608 8.10895 60.8608 9.22503C60.8608 10.3411 60.7562 11.3002 60.5643 12.1199C60.3724 12.9395 60.1108 13.637 59.7793 14.2125C59.4479 14.788 59.0641 15.2588 58.6281 15.625C58.192 15.9912 57.721 16.2703 57.2151 16.4795C56.7093 16.6888 56.2034 16.8283 55.6801 16.8981C55.1568 16.9678 54.6335 17.0027 54.1276 17.0027H48.7375V26.4196H44.6557V1.30786ZM53.6566 13.2359C54.2671 13.2359 54.773 13.1313 55.1393 12.922C55.5231 12.7128 55.8196 12.4337 56.0464 12.0675C56.2732 11.7013 56.4127 11.2828 56.4999 10.7945C56.5872 10.3062 56.622 9.78306 56.622 9.20759C56.622 8.64955 56.5872 8.12639 56.4999 7.62067C56.4127 7.11495 56.2732 6.67898 56.0464 6.29533C55.8196 5.91168 55.5231 5.61522 55.1393 5.38851C54.7556 5.16181 54.2671 5.05718 53.6566 5.05718H48.7375V13.2011H53.6566V13.2359ZM62.5354 16.7237C62.5354 14.8578 62.7796 13.3232 63.268 12.1199C63.7565 10.9166 64.4019 9.97496 65.2043 9.27741C66.0067 8.57987 66.9312 8.10902 67.9604 7.84744C68.9895 7.58586 70.0536 7.44635 71.1351 7.44635C72.5132 7.44635 73.647 7.63817 74.5366 8.00438C75.4437 8.3706 76.1589 8.9112 76.6822 9.57387C77.2229 10.254 77.5893 11.0562 77.7986 11.9978C78.0079 12.9395 78.13 13.9684 78.13 15.1019C78.13 15.6425 78.1126 16.1831 78.0777 16.7586C78.0428 17.3341 77.9905 17.9096 77.9207 18.5025H66.687C66.7044 19.3047 66.7916 19.9848 66.9486 20.5428C67.1056 21.1008 67.3847 21.5368 67.7685 21.8856C68.1523 22.2344 68.6581 22.4785 69.2861 22.6354C69.9141 22.7924 70.699 22.8621 71.641 22.8621C72.4259 22.8621 73.176 22.8447 73.8738 22.8098C74.5715 22.775 75.1646 22.7226 75.6879 22.6703C76.2984 22.618 76.8566 22.5483 77.3451 22.4436V25.2687C76.7694 25.478 76.1414 25.6698 75.4611 25.8442C74.8855 25.9837 74.2052 26.1232 73.4377 26.2453C72.6702 26.3673 71.8503 26.4196 70.9781 26.4196C69.635 26.4196 68.4488 26.2453 67.4022 25.9139C66.3556 25.5826 65.4834 25.0245 64.7507 24.2572C64.0356 23.4899 63.4774 22.4959 63.0936 21.2578C62.7273 20.0371 62.5354 18.5199 62.5354 16.7237ZM74.4145 15.4856V14.8403C74.4145 14.1602 74.3796 13.5673 74.2924 13.0616C74.2052 12.5559 74.0308 12.1374 73.7691 11.806C73.5075 11.4747 73.1411 11.2305 72.6702 11.0736C72.1992 10.9166 71.5538 10.8294 70.7688 10.8294C69.9141 10.8294 69.2163 10.9341 68.693 11.1259C68.1523 11.3177 67.7336 11.6142 67.4371 12.0153C67.1405 12.4164 66.9312 12.8872 66.8265 13.4801C66.7219 14.0556 66.6695 14.7357 66.6695 15.4856H74.4145ZM81.6362 32H85.6831V23.0714C86.1541 23.2981 86.6948 23.5074 87.2705 23.6817C87.7763 23.8387 88.352 23.9782 89.0148 24.1003C89.6777 24.2223 90.3929 24.2921 91.143 24.2921C92.207 24.2921 93.1315 24.1177 93.9339 23.8038C94.7363 23.4725 95.4166 22.9493 95.9574 22.1995C96.4981 21.467 96.9168 20.4905 97.1959 19.2698C97.475 18.0665 97.6145 16.5668 97.6145 14.788C97.6145 13.1139 97.4924 11.6839 97.2657 10.4806C97.0389 9.27738 96.69 8.30082 96.219 7.53352C95.7481 6.76621 95.155 6.19074 94.4572 5.84196C93.7595 5.47575 92.9396 5.30136 91.9802 5.30136C91.0208 5.30136 90.1312 5.406 89.3114 5.59782C88.4915 5.78965 87.7589 5.99891 87.1309 6.22562C86.3983 6.50463 85.718 6.81853 85.09 7.14986L84.6016 5.82452H81.6362V32ZM86.782 20.4382C86.3808 20.3684 86.0145 20.2812 85.6831 20.1766H85.7005V9.64359C85.7877 9.61919 85.8756 9.59408 85.9645 9.56869C86.3201 9.46713 86.6913 9.3611 87.096 9.27739C87.5147 9.19019 88.0031 9.103 88.5438 9.01581C89.0846 8.92861 89.6428 8.89373 90.2359 8.89373C90.8813 8.89373 91.4046 8.99836 91.8233 9.20763C92.2245 9.41689 92.5559 9.74823 92.7827 10.2016C93.0094 10.655 93.1664 11.248 93.2536 11.9804C93.3408 12.7128 93.3757 13.6196 93.3757 14.6659C93.3757 15.9564 93.306 16.9853 93.2013 17.77C93.0792 18.5548 92.8873 19.1651 92.6082 19.6011C92.3291 20.0196 91.9628 20.3161 91.4744 20.4556C90.986 20.5951 90.3754 20.6649 89.6428 20.6649C89.0497 20.6649 88.509 20.6474 88.0205 20.5951C87.5496 20.5428 87.1309 20.4905 86.782 20.4382ZM110.645 26.3847C109.86 26.3847 109.075 26.315 108.308 26.158C107.523 26.0185 106.79 25.757 106.092 25.3907C105.394 25.0245 104.749 24.5362 104.139 23.9259C103.545 23.3155 103.022 22.5308 102.569 21.5717C102.132 20.63 101.784 19.4965 101.539 18.206C101.295 16.8981 101.173 15.3809 101.173 13.6371C101.173 11.963 101.313 10.4807 101.592 9.22507C101.871 7.95205 102.255 6.87085 102.726 5.9466C103.197 5.02235 103.755 4.27249 104.4 3.67957C105.028 3.08666 105.708 2.61581 106.406 2.26704C107.104 1.91826 107.819 1.67412 108.552 1.53461C109.284 1.3951 109.982 1.32535 110.645 1.32535C111.779 1.32535 112.773 1.37766 113.61 1.49973C114.448 1.62181 115.145 1.74387 115.721 1.88338C116.384 2.04033 116.942 2.21472 117.413 2.42398V5.31881C116.942 5.28393 116.454 5.24905 115.913 5.21417C115.728 5.20705 115.531 5.19703 115.324 5.18646L115.324 5.18646L115.324 5.18646L115.323 5.18645C115.023 5.17115 114.701 5.15474 114.36 5.14442C113.785 5.10954 113.174 5.10954 112.529 5.10954C111.953 5.10954 111.378 5.12698 110.802 5.1793C110.226 5.23162 109.686 5.33625 109.145 5.52807C108.622 5.7199 108.133 5.98148 107.68 6.34769C107.226 6.7139 106.825 7.20219 106.493 7.82998C106.162 8.45777 105.9 9.24252 105.708 10.1842C105.517 11.1259 105.429 12.2594 105.429 13.6022C105.429 15.0147 105.534 16.2006 105.726 17.212C105.918 18.206 106.179 19.0431 106.528 19.7057C106.86 20.3684 107.261 20.8916 107.714 21.2926C108.168 21.6763 108.656 21.9728 109.197 22.1646C109.738 22.3564 110.279 22.4785 110.872 22.5308C111.447 22.5831 112.023 22.6005 112.599 22.6005C113.349 22.6005 114.029 22.5831 114.64 22.5657C115.023 22.5547 115.372 22.5369 115.686 22.5209L115.687 22.5208C115.873 22.5113 116.047 22.5024 116.21 22.4959C116.715 22.461 117.186 22.4262 117.588 22.3913V25.321C117.082 25.5303 116.506 25.7046 115.826 25.8442C115.233 25.9837 114.517 26.1057 113.663 26.2104C112.773 26.3324 111.779 26.3847 110.645 26.3847ZM141.782 20.8044C141.782 19.7929 141.939 18.921 142.235 18.2234C142.532 17.5259 142.951 16.9504 143.456 16.5319C143.98 16.0959 144.573 15.782 145.271 15.5902C145.968 15.3984 146.718 15.2937 147.521 15.2937C148.341 15.2937 149.073 15.3461 149.736 15.4333C150.399 15.5204 150.975 15.6251 151.463 15.7472C152.021 15.8692 152.527 16.0087 152.981 16.1657V14.509C152.981 14.0905 152.963 13.7417 152.946 13.4452C152.911 13.1488 152.876 12.9046 152.806 12.6954C152.736 12.4861 152.649 12.2943 152.527 12.1548C152.405 12.0153 152.265 11.8583 152.091 11.7363C151.725 11.4747 151.236 11.2828 150.591 11.1782C149.963 11.0736 149.126 11.0038 148.114 11.0038C147.468 11.0038 146.841 11.0213 146.23 11.0561C145.619 11.091 145.079 11.1433 144.608 11.1957C144.05 11.248 143.526 11.3177 143.02 11.3875V8.54497C143.474 8.37059 144.032 8.1962 144.712 8.05669C145.271 7.93462 145.986 7.81255 146.841 7.70792C147.695 7.60328 148.707 7.55096 149.876 7.55096C150.661 7.55096 151.358 7.58584 151.951 7.63816C152.562 7.70791 153.085 7.81255 153.556 7.95206C154.027 8.09157 154.428 8.28339 154.795 8.52753C155.144 8.77167 155.475 9.06813 155.754 9.41691C155.998 9.71336 156.19 10.0273 156.347 10.3586C156.504 10.6899 156.644 11.0736 156.731 11.5096C156.836 11.9455 156.905 12.4512 156.94 13.0267C156.975 13.6022 156.993 14.2649 156.993 15.0322V25.8965H153.574L153.26 24.5711C152.754 24.9199 152.213 25.2338 151.603 25.5128C151.079 25.7395 150.469 25.9488 149.771 26.1406C149.073 26.3324 148.306 26.4371 147.468 26.4371C146.457 26.4371 145.567 26.3324 144.852 26.1232C144.119 25.9139 143.526 25.6 143.073 25.1466C142.619 24.7106 142.288 24.1352 142.061 23.4202C141.887 22.7052 141.782 21.8333 141.782 20.8044ZM145.899 20.8044C145.899 21.3101 145.968 21.6937 146.09 21.9902C146.213 22.2867 146.404 22.5134 146.631 22.6703C146.875 22.8273 147.154 22.9145 147.503 22.9668C147.852 23.0191 148.236 23.0365 148.69 23.0365C149.265 23.0365 149.823 22.9842 150.329 22.8796C150.853 22.7749 151.306 22.6529 151.69 22.5308C152.143 22.3913 152.562 22.2169 152.963 22.0251V18.921C152.734 18.8773 152.497 18.8404 152.25 18.8018L152.249 18.8018C152.102 18.7788 151.951 18.7552 151.794 18.7292C151.428 18.6769 151.027 18.6245 150.556 18.5897C150.102 18.5548 149.614 18.5373 149.108 18.5373C148.55 18.5373 148.062 18.5548 147.66 18.6071C147.259 18.6594 146.928 18.764 146.666 18.9384C146.404 19.0954 146.213 19.3395 146.09 19.636C145.968 19.915 145.899 20.3161 145.899 20.8044ZM166.482 20.9439V11.3177H171V7.96949H166.482V3.27847L162.435 4.18529V7.96949H159.784V11.3177H162.418V22.2518C162.418 22.9668 162.505 23.5771 162.679 24.1003C162.854 24.6234 163.133 25.0594 163.517 25.4082C163.9 25.7395 164.406 26.0011 164.999 26.1755C165.592 26.3499 166.343 26.4371 167.232 26.4371C167.86 26.4371 168.436 26.4022 168.977 26.315C169.517 26.2278 169.971 26.1406 170.372 26.036C170.487 26.0047 170.601 25.9672 170.712 25.9309C170.787 25.9065 170.86 25.8826 170.93 25.8616V23.0016H170.878C170.634 23.0191 170.32 23.0365 169.971 23.054C169.605 23.0714 169.203 23.0714 168.767 23.0714H168.767C168.279 23.0714 167.895 23.054 167.598 22.9842C167.302 22.9319 167.058 22.8098 166.901 22.6529C166.744 22.4785 166.622 22.2692 166.569 21.9902C166.517 21.7112 166.482 21.3624 166.482 20.9439Z" fill="#FFDE17"/>
<path fill-rule="evenodd" clip-rule="evenodd" d="M5.61682 1.30786H11.2337V9.67843H5.61682V1.30786ZM22.2929 1.30786H27.9098V9.67843H22.2929V1.30786Z" fill="#662D91"/>
<path fill-rule="evenodd" clip-rule="evenodd" d="M5.61685 1.30786H0V9.67843H5.61685V1.30786ZM27.9099 20.787H22.3279V26.4022H5.61688V20.7869H22.293V15.1717H27.9099V20.787ZM16.6935 1.30786H22.3104V9.67843H16.6935V1.30786ZM0 15.1717H5.61685V20.787H0V15.1717Z" fill="#FFDE17"/>
</svg>
