<svg width="101" height="100" viewBox="0 0 101 100" fill="none" xmlns="http://www.w3.org/2000/svg">
<path d="M27.5302 65.3242C27.5534 66.5352 27.5767 67.7461 27.6 68.9571C27.6065 69.2929 27.6212 69.6538 27.8246 69.9211C27.9977 70.1487 28.2846 70.2735 28.4417 70.5125C28.6611 70.8463 28.5591 71.3047 28.3419 71.6399C28.1246 71.9752 27.8096 72.2349 27.5656 72.5512C25.1572 75.6727 32.3086 81.756 34.4353 83.5094C34.7983 83.8086 35.1758 84.1085 35.4187 84.5113C35.6205 84.8461 35.7177 85.2354 35.7544 85.6246C35.8864 87.0207 35.2118 88.4647 34.0563 89.2594C32.9009 90.054 31.3111 90.1673 30.0546 89.5446C29.502 89.2707 29.0213 88.8719 28.5688 88.4528C26.5953 86.6245 24.8429 84.2923 23.1335 82.2121C21.1622 79.8132 17.2785 73.662 15.9883 70.8376" fill="#332E36"/>
<path d="M27.1697 65.3248C27.1824 65.9853 27.1951 66.6458 27.2078 67.3063C27.2201 67.9467 27.2006 68.597 27.2503 69.2355C27.2718 69.5112 27.3202 69.788 27.4627 70.0295C27.6021 70.2659 27.8222 70.3981 28.0176 70.5793C28.4659 70.9951 27.9884 71.5463 27.678 71.8806C27.1905 72.4056 26.8302 72.9389 26.7403 73.6624C26.6668 74.254 26.7767 74.8591 26.972 75.4182C27.4646 76.8282 28.4033 78.0631 29.3681 79.1832C30.3693 80.3456 31.4757 81.4162 32.6218 82.4345C33.052 82.8168 33.4891 83.1914 33.9314 83.5596C34.2314 83.8093 34.5464 84.0466 34.8179 84.3278C35.2282 84.7528 35.3939 85.294 35.4091 85.8768C35.4351 86.8768 35.0281 87.8716 34.3184 88.5751C33.573 89.3138 32.5212 89.6502 31.483 89.5696C30.3169 89.4792 29.4246 88.7686 28.609 87.9917C27.7201 87.1452 26.9011 86.228 26.1106 85.29C24.8273 83.7673 23.5354 82.2282 22.3694 80.6126C21.3029 79.1349 20.3058 77.606 19.3434 76.0588C18.4228 74.5788 17.524 73.0782 16.7285 71.5265C16.581 71.2389 16.4382 70.949 16.3035 70.6552C16.1091 70.2315 15.4839 70.5996 15.6773 71.0212C16.3614 72.5124 17.2044 73.9352 18.0512 75.3382C19.0472 76.9881 20.0882 78.6132 21.1889 80.1954C22.2729 81.7537 23.4774 83.2136 24.6747 84.6854C25.4775 85.6722 26.2942 86.6494 27.1696 87.5731C27.9822 88.4306 28.8655 89.3893 29.9527 89.8961C31.9656 90.8346 34.4437 90.0874 35.5488 88.1496C36.0754 87.2262 36.2863 86.0861 36.0256 85.0461C35.7866 84.0928 35.0361 83.5424 34.3217 82.9445C33.2578 82.0541 32.2237 81.1261 31.2465 80.1409C30.1249 79.01 29.0371 77.7985 28.2354 76.4144C27.6785 75.4528 27.109 74.1335 27.6564 73.0845C28.0878 72.2579 29.2295 71.6625 28.8684 70.5667C28.6943 70.0381 28.0647 69.8928 27.9837 69.3282C27.9406 69.0275 27.9599 68.7101 27.9541 68.4072C27.9471 68.0402 27.94 67.6732 27.933 67.3063C27.9203 66.6458 27.9076 65.9853 27.8949 65.3247C27.8859 64.8587 27.1607 64.8572 27.1697 65.3248Z" fill="#332E36"/>
<path d="M44.7414 28.3758C46.0472 26.6434 47.3213 24.6588 49.3753 23.9607C51.2348 23.3287 53.3094 23.9381 54.9997 24.9382C57.9711 26.6965 60.1156 29.5603 61.9202 32.5039C66.5721 40.0923 69.5244 49.0189 68.5665 57.868C68.2782 60.5311 67.3511 63.5226 64.8911 64.5827C63.9657 64.9814 62.935 65.0461 61.9279 65.0808C56.7351 65.2597 51.5232 64.7897 46.3469 65.2406C38.3784 65.9347 30.776 68.78 23.2957 71.6127C21.0062 72.4797 18.6955 73.3539 16.274 73.7141C12.6213 74.2575 8.92335 73.6966 6.39559 70.8634C4.18957 68.3909 3.08855 64.8632 3.82563 61.5963C4.48154 58.6892 6.37526 56.1803 8.65059 54.2555C11.4807 51.8615 14.9205 50.0565 17.9864 48.0222C21.1375 45.9314 24.419 44.0482 27.6629 42.1076C33.9423 38.3513 40.2763 34.2996 44.7414 28.3758Z" fill="#332E36"/>
<path d="M50.0414 29.4851C49.2791 34.2005 49.6049 39.0712 51.0134 43.6378C52.2998 47.8084 54.491 51.6743 57.3755 54.947C58.9761 56.7631 60.7909 58.3823 62.7684 59.7779C63.1505 60.0475 63.5132 59.419 63.1344 59.1517C59.7312 56.75 56.8428 53.6341 54.6881 50.0706C52.3791 46.252 50.9447 41.9249 50.5077 37.4837C50.2521 34.8861 50.3241 32.255 50.7407 29.6779C50.8145 29.2214 50.1158 29.0249 50.0414 29.4851Z" fill="#F3F2F3"/>
<path d="M58.5265 55.6672C58.5506 55.6923 64.314 51.056 64.7087 50.7566C66.213 49.616 67.7335 48.482 69.3293 47.4712C69.8512 47.1407 70.9845 46.7907 71.3707 46.3634C72.1396 45.5127 71.615 43.7529 71.3577 42.7527C70.7945 40.5632 69.9881 38.4364 68.9581 36.424C68.4353 35.4025 67.75 34.0506 66.5177 34.0665C65.7361 34.0766 64.6252 34.7081 63.8571 34.9257C61.8425 35.4967 59.794 35.9493 57.7423 36.3643C55.2294 36.8726 52.7011 37.327 50.1641 37.6987C50.4766 40.663 51.2178 43.5821 52.3728 46.3301C53.8254 49.7862 55.9294 52.9641 58.5265 55.6672Z" fill="#F3F2F3"/>
<path d="M58.527 56.0296C58.7337 56.0351 58.945 55.8059 59.0911 55.692C59.3975 55.4529 59.7018 55.211 60.0061 54.9692C60.8868 54.2693 61.7652 53.5664 62.6437 52.8637C63.3386 52.308 64.0322 51.7507 64.7297 51.1981C64.7723 51.1644 64.815 51.1307 64.8576 51.097C64.8926 51.0694 64.9971 50.9902 64.8822 51.0773C65.2766 50.7785 65.6713 50.4801 66.0682 50.1846C66.9432 49.5331 67.8281 48.8942 68.7361 48.2893C69.1189 48.0342 69.4982 47.7687 69.9145 47.5706C70.2646 47.4041 70.6253 47.2596 70.9693 47.08C71.6543 46.7224 72.0318 46.1935 72.1162 45.4192C72.2005 44.6459 72.0152 43.8516 71.8248 43.1066C71.584 42.1639 71.3196 41.2287 71.0025 40.3085C70.6638 39.3254 70.2748 38.3592 69.8409 37.4142C69.4755 36.6183 69.1003 35.795 68.6107 35.0656C68.2047 34.4607 67.6541 33.8754 66.9056 33.7393C66.0755 33.5884 65.2587 33.9987 64.5108 34.3029C63.5686 34.6862 62.5621 34.9093 61.5758 35.1498C60.5047 35.411 59.4277 35.6474 58.3481 35.871C56.1485 36.3265 53.9395 36.7393 51.7214 37.0951C51.1709 37.1834 50.6198 37.2679 50.0681 37.349C49.9262 37.3699 49.7866 37.5558 49.8019 37.6986C50.3749 43.0461 52.3039 48.1877 55.4583 52.5499C56.3172 53.7375 57.2569 54.865 58.2706 55.9234C58.594 56.2612 59.1064 55.7479 58.7834 55.4107C55.2422 51.7131 52.6572 47.1577 51.3554 42.2026C50.967 40.7244 50.6899 39.2182 50.5271 37.6986L50.2609 38.0482C54.4976 37.4255 58.747 36.6534 62.8907 35.5652C63.3408 35.447 63.7996 35.3395 64.2382 35.1829C64.6461 35.0373 65.0406 34.8565 65.4455 34.7033C66.1122 34.4511 66.7846 34.2627 67.3902 34.752C67.9452 35.2004 68.2779 35.8903 68.5969 36.5121C69.0514 37.3979 69.4675 38.3027 69.8331 39.229C70.2035 40.1671 70.5277 41.1235 70.8039 42.0936C71.0184 42.8472 71.2442 43.6175 71.3594 44.3939C71.4451 44.9711 71.5144 45.816 70.9919 46.2215C70.4478 46.6438 69.7308 46.8003 69.1468 47.158C66.9021 48.5329 64.8306 50.1921 62.7771 51.8342C61.9173 52.5217 61.0578 53.2097 60.197 53.896C59.8346 54.185 59.4721 54.4738 59.1086 54.7615C58.9703 54.871 58.8319 54.9804 58.6931 55.0893C58.6411 55.1301 58.589 55.1707 58.5369 55.2114C58.5233 55.2221 58.4533 55.2762 58.4994 55.2406C58.5469 55.2041 58.4778 55.2574 58.4656 55.2665C58.4411 55.2848 58.4076 55.3034 58.3868 55.3257C58.3237 55.3935 58.2407 55.2968 58.527 55.3044C58.0602 55.292 58.0605 56.0172 58.527 56.0296Z" fill="#F3F2F3"/>
<path d="M68.6921 46.0582C69.2695 46.4565 70.2112 47.0125 70.9203 46.6895C71.2646 46.5326 71.534 46.2542 71.7501 45.9528C72.35 45.1161 72.5878 44.0845 72.6543 43.0708C72.8241 40.4823 71.916 37.8429 70.1736 35.8609C69.5801 35.1858 68.8715 34.5715 68.0085 34.2648C67.6073 34.1222 67.1692 34.0494 66.7492 34.1278C66.2181 34.2269 65.7525 34.568 65.4639 35.0074C65.0431 35.648 64.9143 36.6182 64.9034 37.3643C64.8905 38.2562 64.9942 39.1487 65.1975 40.0187C65.5965 41.7266 66.3758 43.3508 67.4388 44.7709C67.7975 45.25 68.193 45.7139 68.6921 46.0582Z" fill="#332E36"/>
<path d="M59.477 25.3242C58.6169 26.7395 58.0451 28.2526 57.2434 29.7083C56.802 30.5094 56.378 31.3201 55.9715 32.1395C55.6554 32.7768 54.9336 33.7693 54.8711 34.4758C55.3229 29.3718 56.3874 24.3224 58.0343 19.4703C58.0936 19.2954 58.158 19.1139 58.2901 18.9848C59.2002 18.0951 60.7015 20.3375 61.1771 20.8454C61.4871 21.1764 64.367 23.8821 64.2541 24.1309C66.1621 19.9164 68.2468 15.6168 71.7215 12.5625C71.5212 14.0346 71.1103 15.4687 70.7006 16.8968C69.8973 19.6972 69.094 22.4975 68.2908 25.2979C67.905 26.6427 67.5181 27.9908 66.9863 29.2848C66.9038 29.4854 66.7764 29.7156 66.5598 29.728C66.438 29.735 66.3259 29.6672 66.2228 29.6018C63.9742 28.1759 61.7256 26.7501 59.477 25.3242Z" fill="#F3F2F3"/>
<path d="M59.161 25.14C58.6748 25.947 58.2692 26.7962 57.8659 27.6466C57.4633 28.4955 57.0307 29.3231 56.5867 30.1509C56.174 30.9203 55.8085 31.7178 55.3693 32.4723C55.0052 33.0979 54.59 33.7408 54.5056 34.4746H55.2308C55.6203 30.1162 56.4574 25.8011 57.7243 21.6126C57.8851 21.081 58.0528 20.5515 58.2273 20.0242C58.3183 19.7494 58.395 19.2007 58.7281 19.1415C59.134 19.0693 59.6767 19.668 59.9496 19.9607C60.2948 20.3309 60.5855 20.7494 60.9329 21.1164C61.1981 21.3965 61.4842 21.6585 61.7599 21.9281C62.2414 22.399 62.7217 22.8717 63.1861 23.3596C63.374 23.557 63.5609 23.7562 63.7354 23.9656C63.8191 24.066 63.7994 24.0395 63.8679 24.1384C63.9702 24.2863 63.8609 24.1642 63.9016 24.0334C63.7822 24.4175 64.3925 24.6922 64.5643 24.3128C66.0337 21.0687 67.58 17.7777 69.8611 15.0118C70.5084 14.2269 71.2127 13.4915 71.975 12.8177L71.369 12.4649C71.1374 14.1243 70.6545 15.7312 70.1937 17.3378C69.7199 18.9893 69.2462 20.6408 68.7725 22.2923C68.3066 23.9163 67.8656 25.5502 67.357 27.1615C67.2383 27.5377 67.114 27.9121 66.9806 28.2834C66.92 28.4521 66.8576 28.6202 66.793 28.7874C66.7378 28.9304 66.6872 29.1926 66.5713 29.3019C66.48 29.3879 66.5939 29.3412 66.482 29.3358C66.4128 29.3324 66.2709 29.2037 66.213 29.167C66.0546 29.0666 65.8962 28.9662 65.7379 28.8657C65.3578 28.6248 64.9778 28.3838 64.5978 28.1428C62.9509 27.0985 61.304 26.0542 59.6572 25.0099C59.2619 24.7592 58.8977 25.3865 59.2912 25.6361C60.843 26.6201 62.3949 27.6041 63.9467 28.5882C64.3268 28.8292 64.7068 29.0702 65.0869 29.3112C65.4487 29.5406 65.8097 29.8234 66.1984 30.0039C67.0376 30.3934 67.3492 29.3649 67.5688 28.7791C68.1937 27.112 68.6415 25.3795 69.1319 23.6698C69.6262 21.9465 70.1206 20.2232 70.6149 18.4999C71.1673 16.5741 71.7906 14.6474 72.0683 12.6577C72.1174 12.3064 71.7525 12.0484 71.4623 12.3049C68.7381 14.7126 66.8467 17.8758 65.2636 21.1105C64.8048 22.0479 64.3688 22.9961 63.9382 23.9467L64.6009 24.2261C64.715 23.859 64.2458 23.4423 64.0335 23.2067C63.6139 22.7408 63.1681 22.2981 62.7225 21.8573C62.345 21.4839 61.9619 21.1162 61.5844 20.7427C61.267 20.4288 61.0049 20.0661 60.7136 19.7287C60.2856 19.2329 59.7747 18.6704 59.1289 18.4707C58.8434 18.3824 58.5226 18.3976 58.2611 18.5503C57.8306 18.8019 57.7092 19.2868 57.562 19.7293C56.815 21.9732 56.1923 24.2583 55.6968 26.5707C55.1382 29.1776 54.743 31.8192 54.5056 34.4746C54.4637 34.9433 55.1784 34.9303 55.2308 34.4746C55.3064 33.8167 55.7966 33.1935 56.1139 32.6332C56.5409 31.8789 56.9044 31.0865 57.317 30.3236C58.1748 28.7373 58.8562 27.0512 59.7873 25.506C60.0287 25.1052 59.4019 24.7403 59.161 25.14Z" fill="#332E36"/>
<path d="M75.2347 55.5219C73.6194 55.1562 72.0031 55.0951 70.3681 54.7975C69.4682 54.6337 68.5648 54.4893 67.6587 54.3643C66.954 54.2672 65.7835 53.8982 65.0938 54.0635C70.0767 52.8697 75.2026 52.274 80.3265 52.2934C80.5112 52.2941 80.7038 52.2974 80.8682 52.3816C82.001 52.9618 80.3521 55.098 80.0217 55.7103C79.8064 56.1095 78.1563 59.6999 77.8844 59.672C82.4868 60.1416 87.2261 60.7516 91.2264 63.0754C89.767 63.3534 88.2766 63.4196 86.7924 63.4851C83.8819 63.6135 80.9714 63.7419 78.0609 63.8703C76.6632 63.9319 75.2621 63.9936 73.8662 63.9006C73.6498 63.8862 73.391 63.8385 73.3104 63.6371C73.2651 63.5238 73.2938 63.396 73.323 63.2775C73.9602 60.6923 74.5975 58.1071 75.2347 55.5219Z" fill="#F3F2F3"/>
<path d="M75.3319 55.1716C74.411 54.9669 73.4751 54.8507 72.5393 54.7384C71.5714 54.6222 70.6153 54.4671 69.6544 54.305C68.8159 54.1636 67.9671 54.0716 67.1346 53.8986C66.4432 53.7549 65.7039 53.5635 64.9981 53.7132L65.1909 54.4124C69.5046 53.3829 73.9176 52.7982 78.3511 52.6783C78.8999 52.6635 79.4489 52.6557 79.9979 52.6549C80.2731 52.6545 80.7568 52.5735 80.8779 52.8875C81.034 53.2927 80.6408 53.9624 80.4365 54.3296C80.2034 54.7486 79.9149 55.1369 79.6915 55.5607C79.5057 55.9132 79.3422 56.2787 79.1685 56.6372C78.8828 57.2269 78.5948 57.816 78.2884 58.3952C78.161 58.6361 78.0314 58.8766 77.8884 59.1086C77.8389 59.1889 77.789 59.2706 77.7311 59.3452C77.7915 59.2675 77.7238 59.364 77.7137 59.3613C77.7061 59.3592 77.6969 59.3856 77.6884 59.3855C77.7389 59.3858 77.8152 59.3103 77.8852 59.3087C77.4098 59.3192 77.4289 59.9872 77.8852 60.0339C81.4144 60.3947 84.9917 60.8282 88.3283 62.0982C89.2667 62.4553 90.1745 62.8859 91.0442 63.3878L91.1308 62.725C89.4797 63.0336 87.7953 63.0775 86.1215 63.1514C84.4424 63.2255 82.7633 63.2995 81.0841 63.3736C79.415 63.4473 77.7447 63.5462 76.0741 63.5782C75.6693 63.5859 75.2644 63.5876 74.8596 63.5794C74.6389 63.575 74.4182 63.5676 74.1977 63.5565C74.0655 63.5499 73.7758 63.5873 73.6691 63.5008C73.6197 63.4607 73.6365 63.4722 73.6734 63.3731C73.7053 63.2874 73.7188 63.1891 73.7407 63.1001C73.7901 62.8998 73.8395 62.6995 73.8888 62.4993C73.9965 62.0623 74.1042 61.6254 74.2119 61.1885C74.6697 59.3315 75.1274 57.4745 75.5852 55.6176C75.6968 55.1645 74.9977 54.9712 74.8859 55.4248C74.4461 57.2089 74.0063 58.9931 73.5665 60.7772C73.4588 61.2141 73.3511 61.6511 73.2434 62.088C73.1403 62.5062 72.9945 62.9349 72.9399 63.3621C72.8205 64.2962 73.8877 64.2735 74.5286 64.2956C76.3394 64.358 78.1563 64.228 79.9647 64.1482C81.7558 64.0692 83.5469 63.9901 85.3379 63.9111C87.3358 63.823 89.3523 63.7927 91.3236 63.4243C91.6382 63.3656 91.6654 62.9089 91.4102 62.7616C88.229 60.9258 84.6081 60.143 81.0027 59.6649C79.9658 59.5275 78.9257 59.4151 77.8852 59.3087V60.0339C78.2813 60.0251 78.5149 59.4849 78.6797 59.1929C78.983 58.6555 79.2571 58.1014 79.5292 57.5478C79.7656 57.0669 79.9949 56.5826 80.2307 56.1015C80.4205 55.7141 80.6693 55.3618 80.8908 54.9923C81.2286 54.4288 81.598 53.782 81.6226 53.1087C81.6333 52.8174 81.5514 52.5192 81.353 52.3002C81.0404 51.9551 80.5999 51.9303 80.1626 51.9297C77.7654 51.9268 75.3679 52.0583 72.9854 52.323C70.2972 52.6217 67.629 53.0853 64.9981 53.7132C64.5424 53.8219 64.7364 54.5088 65.1909 54.4124C65.8191 54.2792 66.5252 54.5156 67.1382 54.6381C67.9775 54.8059 68.8342 54.8958 69.6781 55.0411C70.5762 55.1958 71.4721 55.3354 72.3772 55.4441C73.3031 55.5552 74.2279 55.6683 75.1391 55.8708C75.5938 55.9719 75.788 55.2729 75.3319 55.1716Z" fill="#332E36"/>
<path d="M81.8115 28.047C82.016 27.8254 82.2424 27.5913 82.5394 27.5388C82.8701 27.4803 83.1916 27.6633 83.4695 27.8519C84.654 28.6561 85.674 29.7013 86.4492 30.905C88.069 29.5202 89.9848 28.4728 91.7636 27.2691C93.7857 25.9008 95.8644 24.6107 98.0361 23.4922C97.5009 23.7678 96.9468 24.7621 96.5753 25.2349C94.8347 27.4502 93.3324 29.8373 91.7271 32.1492C90.9272 33.3011 90.1014 34.4366 89.2091 35.5192C88.4016 36.499 87.5052 37.744 86.4313 38.4316C85.2977 36.9836 84.1855 35.5187 83.0953 34.0377C79.5227 35.1378 75.9836 36.3464 72.4844 37.6612C74.0452 36.0332 75.6379 34.4358 77.2613 32.8702C78.855 31.3332 80.3077 29.6764 81.8115 28.047Z" fill="#F3F2F3"/>
<path d="M82.0711 28.3016C82.2073 28.1552 82.3596 27.9637 82.5598 27.9054C82.7623 27.8463 82.9664 27.9612 83.1341 28.0623C83.5396 28.307 83.917 28.6122 84.2718 28.9246C84.9906 29.5577 85.6173 30.2835 86.1395 31.0863C86.2743 31.2935 86.526 31.315 86.7089 31.1596C88.0387 30.0304 89.5441 29.1392 91.0079 28.1993C92.5163 27.2308 93.9882 26.2132 95.5308 25.2978C96.4135 24.774 97.3104 24.2746 98.2224 23.8035L97.8564 23.1773C97.4361 23.4114 97.1371 23.8216 96.862 24.2047C96.5562 24.6308 96.2568 25.0561 95.9378 25.4727C95.1362 26.5198 94.3817 27.6018 93.6402 28.6919C92.1189 30.9281 90.645 33.2002 88.9285 35.2947C88.1141 36.2884 87.3423 37.403 86.2517 38.1167L86.6911 38.1734C85.5769 36.7494 84.4841 35.3088 83.4117 33.8529C83.3175 33.725 83.1666 33.6356 83.0022 33.6863C79.4298 34.7876 75.8911 35.996 72.3913 37.3098L72.7441 37.9158C74.3057 36.2881 75.9001 34.6933 77.5211 33.1248C79.1106 31.5868 80.5727 29.9266 82.0711 28.3016C82.3871 27.959 81.8756 27.4448 81.5584 27.7888C80.0599 29.4138 78.5978 31.074 77.0083 32.612C75.3873 34.1805 73.7929 35.7753 72.2313 37.403C71.9976 37.6467 72.228 38.1427 72.5841 38.0091C76.0839 36.6952 79.6226 35.4868 83.195 34.3856L82.7855 34.2189C83.8946 35.7245 85.026 37.2134 86.1783 38.6862C86.2719 38.8058 86.4956 38.8228 86.6177 38.7429C87.6043 38.0972 88.3456 37.1675 89.0764 36.2583C89.8803 35.2581 90.6757 34.257 91.4224 33.2126C92.9893 31.0211 94.4208 28.7354 96.0186 26.5656C96.4053 26.0405 96.8211 25.5361 97.1907 24.9988C97.4755 24.5847 97.7701 24.0554 98.2224 23.8035C98.632 23.5754 98.2697 22.9639 97.8564 23.1773C96.2208 24.0221 94.6359 24.9606 93.0893 25.9585C91.5931 26.9239 90.0982 27.8952 88.6095 28.8722C87.774 29.4206 86.9584 29.9996 86.1961 30.6468L86.7656 30.7202C86.1238 29.7335 85.3375 28.843 84.4195 28.1045C84.0002 27.7673 83.5257 27.3486 82.9945 27.2081C82.402 27.0513 81.9435 27.3746 81.5584 27.7888C81.2408 28.1302 81.7525 28.6442 82.0711 28.3016Z" fill="#332E36"/>
<path d="M14.5992 50.6426C13.17 54.1194 13.624 58.0411 14.7489 61.5349C14.9827 62.261 15.2309 62.9896 15.5698 63.6744C15.8667 64.2744 16.2191 64.8468 16.5956 65.3999C17.4592 66.6686 18.4515 67.8555 19.5211 68.9553C20.5799 70.0439 21.7366 71.1094 23.0559 71.8763C23.4601 72.1113 23.8256 71.4849 23.4219 71.2502C22.317 70.6079 21.345 69.743 20.4382 68.8496C19.3833 67.8102 18.4016 66.6865 17.5366 65.4837C16.7558 64.3979 16.1146 63.2706 15.6718 62.0073C15.075 60.3046 14.6282 58.5323 14.4797 56.7305C14.3144 54.7242 14.5294 52.7062 15.2984 50.8354C15.3735 50.6529 15.217 50.4388 15.0452 50.3894C14.8379 50.3299 14.6733 50.4625 14.5992 50.6426Z" fill="#F3F2F3"/>
<path d="M52.7324 10.2583C52.3726 11.691 52.0129 13.1237 51.6531 14.5564C51.5394 15.0091 52.2386 15.2023 52.3523 14.7492C52.7121 13.3165 53.0719 11.8838 53.4317 10.4511C53.5454 9.99832 52.8462 9.80518 52.7324 10.2583Z" fill="#F3F2F3"/>
<path d="M69.3942 70.8339C70.4684 71.7303 71.5426 72.6267 72.6168 73.5231C72.7671 73.6485 72.9824 73.6704 73.1296 73.5231C73.2586 73.3942 73.2807 73.1364 73.1296 73.0104C72.0554 72.114 70.9812 71.2176 69.907 70.3211C69.7568 70.1958 69.5415 70.1739 69.3942 70.3211C69.2653 70.4501 69.2432 70.7079 69.3942 70.8339Z" fill="#F3F2F3"/>
<path d="M80.3398 45.0986C81.4491 45.4344 82.6526 45.4255 83.7561 45.0701C84.1985 44.9276 84.0093 44.2272 83.5633 44.3709C82.5753 44.6891 81.5263 44.7001 80.5325 44.3994C80.0849 44.2639 79.8936 44.9636 80.3398 45.0986Z" fill="#F3F2F3"/>
<path d="M76.9002 18.2202C76.5419 18.9367 76.1836 19.6533 75.8254 20.3698C75.7407 20.5392 75.7747 20.7703 75.9555 20.8659C76.1198 20.9527 76.361 20.9169 76.4516 20.7358C76.8098 20.0192 77.1681 19.3027 77.5264 18.5862C77.6111 18.4167 77.5771 18.1856 77.3963 18.0901C77.2319 18.0032 76.9908 18.039 76.9002 18.2202Z" fill="#F3F2F3"/>
</svg>
