<svg width="24" height="24" viewBox="0 0 24 24" fill="none" xmlns="http://www.w3.org/2000/svg">
<path d="M19.7447 8.48332L10.5167 17.7446C10.4363 17.8256 10.3408 17.8898 10.2357 17.9336C10.1305 17.9774 10.0178 18 9.90389 18C9.79003 18 9.67729 17.9774 9.57213 17.9336C9.46697 17.8898 9.37147 17.8256 9.29109 17.7446L5.25383 13.6928C5.17336 13.612 5.10952 13.5162 5.06597 13.4106C5.02242 13.3051 5 13.192 5 13.0778C5 12.9636 5.02242 12.8505 5.06597 12.745C5.10952 12.6394 5.17336 12.5436 5.25383 12.4628C5.3343 12.382 5.42984 12.318 5.53498 12.2742C5.64013 12.2305 5.75282 12.208 5.86663 12.208C5.98044 12.208 6.09313 12.2305 6.19827 12.2742C6.30342 12.318 6.39895 12.382 6.47943 12.4628L9.90461 15.9003L18.5206 7.25474C18.6831 7.09163 18.9035 7 19.1334 7C19.3632 7 19.5836 7.09163 19.7462 7.25474C19.9087 7.41786 20 7.63908 20 7.86975C20 8.10043 19.9087 8.32165 19.7462 8.48476L19.7447 8.48332Z" fill="#FFFFFD"/>
</svg>
