<svg width="101" height="100" viewBox="0 0 101 100" fill="none" xmlns="http://www.w3.org/2000/svg">
<path d="M57.6625 24.917C58.1703 25.549 58.8547 25.9668 59.6703 26.0273L59.2215 25.2452C58.9057 25.8771 58.7132 26.5467 58.6806 27.2543C58.6477 27.9697 58.8144 28.6761 58.9372 29.376C59.2033 30.8932 59.2752 32.4379 59.1888 33.9749C59.1513 34.6432 60.1908 34.6411 60.2283 33.9749C60.3084 32.5497 60.2415 31.1281 60.0379 29.7155C59.8411 28.3495 59.4647 27.0788 60.1191 25.7698C60.3024 25.4031 60.0748 25.0178 59.6703 24.9878C59.1326 24.9479 58.7209 24.5843 58.3975 24.182C57.9785 23.6605 57.2472 24.4001 57.6625 24.917Z" fill="#F3F2F3"/>
<path d="M44.3742 35.03C45.3909 34.8522 45.7033 33.6003 45.799 32.7352C45.9225 31.6181 45.6783 30.4934 45.3133 29.442C44.5621 27.2783 43.5196 25.2285 43.2137 22.9301C43.0744 21.8836 43.0046 20.671 43.4768 19.6951C43.9054 18.8094 44.6818 18.0345 45.4578 17.4444C47.0487 16.2347 48.9628 15.9213 50.8522 16.5742C53.0896 17.3472 54.6621 19.2201 55.7791 21.2297C56.1042 21.8145 57.0023 21.2909 56.6767 20.7051C55.6384 18.8371 54.237 17.0992 52.3173 16.0875C50.4707 15.1143 48.3094 14.8622 46.3679 15.708C45.4242 16.1191 44.5807 16.7471 43.8595 17.4776C43.1404 18.2061 42.493 19.055 42.2474 20.0662C41.7008 22.3165 42.4382 24.8226 43.2218 26.9252C43.6919 28.1865 44.2953 29.4141 44.6127 30.7271C44.7599 31.3364 44.8337 31.9664 44.774 32.5929C44.7332 33.0212 44.629 33.9348 44.0979 34.0277C43.4401 34.1427 43.7189 35.1447 44.3742 35.03Z" fill="#F3F2F3"/>
<path d="M94.2624 44.4518C95.2214 46.6565 95.5196 49.0832 95.4526 51.4702C95.3985 53.3986 95.2101 55.4038 94.6343 57.2544C94.1999 58.6504 93.5711 59.9985 92.7513 61.2104C92.0922 62.1848 91.1952 63.2678 90.0247 63.623C88.7853 63.999 87.732 63.191 86.9987 62.2462C85.8409 60.7545 85.1951 58.8925 84.8454 57.0562C84.1277 53.2872 84.5856 49.2796 85.5438 45.5945C85.8416 44.449 86.2111 43.3035 86.882 42.3164C87.4912 41.4202 88.4327 40.5317 89.5102 40.2655C90.5705 40.0036 91.5629 40.699 92.2723 41.4179C93.1286 42.2857 93.766 43.3444 94.2624 44.4518C94.5355 45.0611 95.4315 44.5331 95.1599 43.9271C94.3098 42.0304 92.7744 39.6561 90.5661 39.2254C88.338 38.7908 86.3265 40.9089 85.4497 42.7276C84.5181 44.66 84.1041 46.8934 83.8017 49.0043C83.4946 51.1483 83.3707 53.3269 83.5814 55.4865C83.7853 57.5747 84.2837 59.6537 85.2925 61.5069C86.0771 62.9484 87.2815 64.5381 89.0348 64.7433C90.4276 64.9063 91.6845 64.0497 92.5926 63.0774C93.7078 61.8834 94.5107 60.419 95.1326 58.9184C95.8574 57.1694 96.1677 55.3576 96.3588 53.4797C96.6237 50.8775 96.5574 48.1977 95.8071 45.6755C95.6295 45.0785 95.4083 44.4981 95.1599 43.9271C94.8938 43.3152 93.9979 43.8439 94.2624 44.4518Z" fill="#F3F2F3"/>
<path d="M60.1689 40.1613C61.1873 39.7289 62.176 39.2187 63.0835 38.5857C63.5244 38.2782 63.9526 37.9345 64.2522 37.4883C64.8328 36.6236 64.8513 35.5161 65.075 34.4989C65.3929 33.0539 66.7086 31.3848 68.1264 32.7475C69.7719 34.3291 71.2172 36.1186 72.4172 38.0599C72.6006 38.3565 72.7819 38.6664 72.8346 39.0111C72.8923 39.3874 72.7912 39.7691 72.6701 40.1301C71.8644 42.5311 70.1311 44.5618 68.0262 45.9703C65.9214 47.3787 63.461 48.195 60.9621 48.6065C56.05 49.4155 50.8597 48.6633 46.4775 46.3015C45.6105 45.8342 44.7681 45.3002 44.0748 44.6007C42.7708 43.2853 42.0897 41.4929 41.4438 39.7569C41.3675 39.5518 43.1361 40.2956 43.2503 40.3418C44.0315 40.6581 44.8388 40.9175 45.6527 41.1351C47.2431 41.5603 48.8804 41.8081 50.5249 41.8783C53.813 42.0188 57.1367 41.4486 60.1689 40.1613Z" fill="#332E36"/>
<path d="M60.4317 40.6083C61.3826 40.2009 62.308 39.733 63.1676 39.1549C63.9807 38.6081 64.6865 37.9883 65.0505 37.0557C65.3806 36.2099 65.384 35.294 65.6288 34.4277C65.7972 33.8316 66.1824 33.0062 66.8259 32.7987C67.1345 32.6991 67.4163 32.8268 67.6583 33.021C68.0587 33.3425 68.411 33.7542 68.7613 34.1283C69.446 34.8592 70.0924 35.6271 70.6889 36.4318C70.972 36.8138 71.2449 37.2033 71.5075 37.5997C71.7719 37.9985 72.1194 38.4368 72.2723 38.8951C72.4268 39.3587 72.2271 39.8485 72.0655 40.2834C71.9081 40.7071 71.715 41.1159 71.4974 41.5119C69.683 44.8128 66.2805 46.7943 62.72 47.7076C58.9313 48.6793 54.8625 48.6313 51.0943 47.5892C49.0354 47.0198 46.907 46.1756 45.188 44.883C44.3177 44.2286 43.6588 43.3777 43.1445 42.4245C42.8926 41.9575 42.6715 41.474 42.4708 40.983C42.37 40.7362 42.2736 40.4876 42.1787 40.2384C42.1025 40.0383 41.9753 39.8129 41.9433 39.6024L41.8909 40.0029C41.874 40.0357 41.4853 40.2964 41.4373 40.2306C41.4445 40.2405 41.4923 40.2394 41.5038 40.2455C41.5564 40.2735 41.6366 40.2819 41.6947 40.3C41.8811 40.358 42.0644 40.4263 42.2469 40.4954C42.5223 40.5996 42.7946 40.7113 43.0672 40.8225C44.3387 41.3408 45.6714 41.7191 47.0186 41.9811C49.8663 42.5351 52.798 42.5549 55.653 42.0417C57.251 41.7545 58.8111 41.2899 60.3076 40.6606C60.5682 40.551 60.7488 40.318 60.6706 40.0213C60.6061 39.7766 60.2898 39.5496 60.0312 39.6583C54.6507 41.9206 48.5193 41.9239 43.1183 39.7277C42.771 39.5865 42.4221 39.4466 42.0661 39.3287C41.754 39.2253 41.3492 39.0926 41.0801 39.3625C40.8718 39.5713 40.9205 39.833 41.0125 40.0796C41.1367 40.4121 41.2621 40.7441 41.3937 41.0738C41.6483 41.7116 41.9203 42.3446 42.247 42.9492C42.9086 44.1741 43.8018 45.1943 44.9494 45.9851C46.1268 46.7964 47.4548 47.4115 48.7862 47.923C53.9983 49.9255 60.227 50.0334 65.4249 47.9137C67.9059 46.9019 70.1288 45.3313 71.6997 43.1388C72.4301 42.1192 73.1662 40.8318 73.3415 39.5718C73.4416 38.8521 73.1633 38.2702 72.7912 37.6747C72.4007 37.0498 71.984 36.441 71.5438 35.85C70.6649 34.67 69.7009 33.5554 68.648 32.5272C68.2067 32.0963 67.6952 31.7197 67.05 31.7207C66.5244 31.7215 66.044 31.9792 65.6691 32.3324C64.7298 33.2173 64.5641 34.4526 64.3461 35.6535C64.2261 36.3143 64.0617 36.979 63.5926 37.4846C63.105 38.01 62.4636 38.3972 61.8474 38.7531C61.222 39.1143 60.5706 39.4265 59.9071 39.7107C59.294 39.9734 59.8229 40.8691 60.4317 40.6083Z" fill="#F3F2F3"/>
<path d="M62.052 63.4957C55.115 64.0377 48.0552 63.7305 41.3995 63.222C36.2731 62.8302 31.1643 62.2095 26.0932 61.3624C23.2019 60.8794 20.2625 60.8523 17.3526 60.5398C15.341 60.3237 11.4529 60.1136 10.1235 58.3154C9.95557 58.0882 9.81963 57.8182 9.83718 57.5361C9.88955 56.6941 10.6295 56.08 10.6792 55.1359C10.7107 54.5384 10.5848 53.9571 10.4618 53.3793C10.0603 51.4942 9.39708 49.6284 8.87017 47.774C7.72711 43.751 6.58401 39.728 5.44094 35.705C5.08697 34.4591 4.7321 33.2093 4.53611 31.9291C4.48119 31.5704 4.43989 31.1967 4.54822 30.8503C5.29045 28.4774 11.6105 29.9444 13.0958 30.5629C16.9682 32.1755 18.7702 36.5058 21.2654 39.8777C21.7475 40.5293 22.2958 41.1772 23.0415 41.4949C23.7608 41.8013 24.5742 41.763 25.3541 41.7083C28.4033 41.4943 31.4405 41.1099 34.447 40.5581C36.5242 40.1768 38.7324 40.0052 40.8497 39.8675C41.128 39.8494 41.4166 39.8347 41.6766 39.9355C41.9511 40.0419 42.1611 40.2638 42.3764 40.4646C43.2233 41.2548 44.2714 41.795 45.3349 42.2542C52.1992 45.2176 60.3453 45.0486 67.0809 41.8031C68.4062 41.1644 69.7063 40.3898 70.6386 39.2517C70.9813 38.8332 71.2876 38.3551 71.7654 38.1016C72.5727 37.6735 73.9862 38.6676 74.7549 38.9821C76.004 39.4932 77.2487 40.0168 78.4684 40.5952C80.8687 41.7334 83.2095 43.0912 85.1251 44.9539C86.6585 46.445 88.0485 48.2762 88.2391 50.4065C88.4211 52.4401 87.4502 54.4531 86.0232 55.9133C84.5962 57.3734 82.7513 58.3512 80.8792 59.166C75.0054 61.7223 68.5831 62.9854 62.052 63.4957Z" fill="#332E36"/>
<path d="M62.0528 62.9762C54.2327 63.5796 46.338 63.1863 38.5391 62.4598C34.5825 62.0912 30.6392 61.5854 26.7179 60.9418C23.2023 60.3648 19.6364 60.2643 16.0967 59.8934C14.8215 59.7598 13.5271 59.5863 12.3136 59.1542C11.7918 58.9683 11.2587 58.7184 10.8471 58.3403C10.6252 58.1364 10.3509 57.8581 10.3578 57.5363C10.3645 57.2223 10.5692 56.9055 10.7088 56.6368C11.1027 55.8789 11.2677 55.1884 11.1602 54.3302C11.0413 53.38 10.7912 52.4392 10.5338 51.5185C10.0051 49.6272 9.40607 47.7554 8.86922 45.866C7.76875 41.9928 6.61256 38.1307 5.57369 34.2406C5.33098 33.3317 5.01241 32.3321 5.00276 31.3854C4.99824 30.9409 5.15671 30.6726 5.50598 30.4636C6.28207 29.9993 7.35145 30.0349 8.22284 30.0831C9.28019 30.1416 10.3299 30.3244 11.3577 30.5756C12.2518 30.7942 13.0917 31.0682 13.8867 31.5434C16.3641 33.0242 17.8605 35.6752 19.3814 38.0315C20.1784 39.2663 20.9907 40.7356 22.2015 41.6097C22.9091 42.1206 23.7593 42.2773 24.6179 42.2648C25.5704 42.2508 26.5287 42.143 27.4763 42.0518C31.3569 41.6781 35.1671 40.8235 39.0524 40.5153C39.4962 40.4801 39.9402 40.4483 40.3844 40.4183C40.804 40.39 41.3219 40.267 41.6833 40.537C41.9891 40.7656 42.2501 41.0547 42.5542 41.2887C42.9178 41.5684 43.301 41.8172 43.7021 42.0397C45.1889 42.8645 46.8382 43.4554 48.4732 43.9083C51.7736 44.8224 55.2605 45.096 58.6636 44.7192C62.0148 44.3481 65.3743 43.3938 68.328 41.744C69.0474 41.3422 69.7384 40.8753 70.3459 40.3165C70.6445 40.0418 70.9119 39.7412 71.1633 39.4231C71.3862 39.141 71.6092 38.8045 71.9213 38.613C72.4115 38.3121 73.1472 38.7613 73.5902 38.9852C74.2711 39.3293 74.9614 39.6216 75.6653 39.9167C78.9532 41.2952 82.2854 42.8835 84.8541 45.4153C86.0015 46.5463 87.0776 47.8679 87.5303 49.4417C87.9891 51.0369 87.6335 52.683 86.7891 54.0851C84.9781 57.0925 81.3386 58.5346 78.1922 59.683C74.7263 60.9481 71.12 61.8023 67.4759 62.3604C65.6769 62.6359 63.8669 62.8327 62.0528 62.9762C61.3904 63.0285 61.3848 64.0685 62.0528 64.0157C65.9055 63.711 69.7471 63.1578 73.4965 62.2096C75.3257 61.747 77.1317 61.1906 78.8978 60.5263C80.5824 59.8926 82.2733 59.1948 83.8202 58.2674C86.7273 56.5244 89.2791 53.4771 88.6916 49.8727C88.425 48.2374 87.4974 46.7895 86.4236 45.5625C85.2685 44.2426 83.8943 43.1244 82.4252 42.172C80.8603 41.1577 79.1828 40.3276 77.4795 39.574C76.6132 39.1908 75.7231 38.857 74.8615 38.4647C74.2201 38.1727 73.6192 37.7857 72.9368 37.5882C72.226 37.3825 71.6065 37.4914 71.0465 37.983C70.4392 38.5162 70.0271 39.232 69.4056 39.7635C68.0908 40.8877 66.3974 41.6206 64.7902 42.2181C61.4811 43.4482 57.9372 43.9808 54.4125 43.8126C50.9465 43.6472 47.2814 42.8367 44.2267 41.1421C43.8465 40.9312 43.4742 40.6997 43.1323 40.4306C42.7995 40.1686 42.519 39.832 42.1608 39.6032C41.3987 39.1164 40.2915 39.3818 39.4454 39.4454C37.5017 39.5913 35.5842 39.8363 33.6649 40.1728C31.6674 40.523 29.6575 40.798 27.6393 40.9964C26.638 41.0948 25.6246 41.2116 24.6178 41.2252C23.6784 41.2379 22.9334 40.9874 22.2806 40.299C21.2225 39.1831 20.4432 37.7602 19.615 36.473C18.8066 35.2164 17.9771 33.9623 16.9859 32.84C16.0327 31.7609 14.8977 30.8058 13.5779 30.2094C12.7659 29.8425 11.8956 29.6193 11.0264 29.4347C9.90169 29.1958 8.74354 29.0251 7.59172 29.0254C6.65621 29.0256 5.58166 29.1183 4.80003 29.6874C3.51417 30.6236 4.0403 32.3468 4.35189 33.6538C4.8305 35.6615 5.45107 37.6401 6.01505 39.625C7.13967 43.5831 8.30592 47.5287 9.4428 51.4827C9.7238 52.46 10.0291 53.4762 10.1399 54.4901C10.1852 54.9048 10.1776 55.3031 10.0185 55.6927C9.88753 56.0133 9.69698 56.3076 9.55746 56.6246C9.20431 57.4273 9.28997 58.146 9.86545 58.82C10.2581 59.28 10.7925 59.6219 11.338 59.8721C12.5759 60.4401 13.9312 60.6697 15.273 60.8388C16.7702 61.0276 18.2787 61.161 19.7834 61.27C21.8176 61.4173 23.86 61.5221 25.8754 61.8506C27.8909 62.1792 29.9103 62.4883 31.9358 62.7559C39.9344 63.8125 48.0648 64.4173 56.1359 64.2867C58.1105 64.2547 60.0838 64.1676 62.0528 64.0157C62.7155 63.9645 62.721 62.9246 62.0528 62.9762Z" fill="#F3F2F3"/>
<path d="M57.7839 80.7401C54.6274 71.3785 52.5386 61.1509 50.4172 51.502C48.1586 51.8111 44.8732 52.8879 43.0834 53.1233C42.9218 54.8502 43.3931 56.4721 43.7813 58.1329C45.6389 66.0802 46.4807 74.237 48.3155 82.1896C48.5314 83.1251 48.7721 84.0827 49.3281 84.8655C51.0007 87.2206 54.5135 86.9602 57.3562 86.4473" fill="#332E36"/>
<path d="M58.288 80.6008C55.7814 73.1509 54.0152 65.4777 52.3303 57.8083C51.8584 55.6603 51.3933 53.5107 50.9212 51.3626C50.8555 51.0637 50.5477 50.9621 50.2819 50.9996C47.798 51.3499 45.4306 52.2812 42.9481 52.621C42.7123 52.6533 42.5838 52.9153 42.5666 53.1222C42.4442 54.5952 42.7498 56.0417 43.0912 57.4664C43.4382 58.9146 43.759 60.3682 44.0511 61.8286C44.6437 64.7922 45.1376 67.7743 45.6352 70.755C46.1328 73.7357 46.6341 76.7166 47.2414 79.6772C47.5298 81.0831 47.7553 82.5689 48.2658 83.9152C48.6733 84.9896 49.3555 85.9031 50.3601 86.4828C52.4823 87.7075 55.1996 87.358 57.4973 86.9473C58.1547 86.8298 57.8762 85.8279 57.221 85.945C55.3194 86.2849 53.068 86.607 51.2455 85.7723C50.2868 85.3332 49.6075 84.5625 49.2446 83.5746C48.7727 82.2898 48.551 80.8893 48.275 79.5526C47.1103 73.9101 46.3374 68.1966 45.2474 62.5403C44.94 60.9454 44.6089 59.3544 44.2336 57.774C43.8689 56.2386 43.4738 54.7141 43.6061 53.1221L43.2245 53.6233C45.707 53.2835 48.0743 52.3521 50.5582 52.0019L49.9189 51.6389C51.6055 59.3128 53.201 67.0156 55.3432 74.5794C55.9419 76.6933 56.585 78.7946 57.2856 80.8771C57.4978 81.5078 58.5021 81.2373 58.288 80.6008Z" fill="#F3F2F3"/>
<path d="M55.1705 50.6393C52.6885 50.8769 50.2346 51.4055 47.8749 52.2109C47.6891 52.2744 47.4856 52.3553 47.4012 52.5326C47.3343 52.6733 47.3611 52.8386 47.3893 52.9918C49.0291 61.9085 49.9638 71.012 51.8307 79.9532C52.1457 81.4615 52.4856 83.0056 53.3233 84.2988C54.1611 85.5919 55.6147 86.6001 57.1499 86.4687C59.0866 86.303 60.4196 84.5039 61.4184 82.8364C66.831 73.8006 70.298 63.6059 71.5165 53.1437C71.5511 52.8467 71.5803 52.5286 71.4412 52.2638C71.2672 51.9325 70.8832 51.7797 70.5283 51.661C67.8826 50.7758 65.0938 50.3198 62.304 50.3164" fill="#332E36"/>
<path d="M55.1707 50.1197C53.536 50.2801 51.9128 50.5499 50.319 50.9484C49.4968 51.1539 48.6814 51.3902 47.8787 51.662C47.2113 51.8879 46.7555 52.2427 46.8689 53.0135C47.1144 54.6834 47.4556 56.343 47.7227 58.0102C47.9925 59.6945 48.2477 61.3812 48.4991 63.0683C49.0031 66.4501 49.4921 69.8344 50.0532 73.2073C50.3383 74.921 50.6419 76.6318 50.9753 78.3369C51.2752 79.8706 51.5296 81.4538 52.077 82.9232C52.5749 84.2601 53.3488 85.474 54.5585 86.2692C55.6764 87.004 57.0756 87.2222 58.3286 86.7104C59.5485 86.2122 60.4506 85.2087 61.1914 84.1504C62.0397 82.9386 62.7494 81.6159 63.4529 80.3167C66.4328 74.8135 68.7253 68.9319 70.2566 62.8641C71.0228 59.8283 71.5939 56.7458 71.9771 53.6386C72.0637 52.9366 72.1899 52.1719 71.6021 51.6426C71.0796 51.1722 70.2525 51.016 69.5963 50.8276C68.019 50.3748 66.3994 50.0749 64.7663 49.9173C63.9477 49.8383 63.1264 49.8003 62.3042 49.7969C61.6352 49.7941 61.6343 50.8336 62.3042 50.8364C63.8531 50.8428 65.398 50.9777 66.921 51.2626C67.6555 51.4001 68.3843 51.5688 69.1042 51.7689C69.4642 51.869 69.822 51.9768 70.1774 52.0923C70.4222 52.1718 70.8235 52.2511 70.9695 52.4897C71.1181 52.7325 70.9955 53.1614 70.9635 53.4267C70.918 53.8045 70.8699 54.182 70.8179 54.5589C70.7207 55.2639 70.613 55.9674 70.4954 56.6693C70.2523 58.1197 69.966 59.563 69.6374 60.9965C68.3383 66.6642 66.3802 72.1804 63.7993 77.3912C63.1571 78.6879 62.4771 79.9658 61.7601 81.2227C61.1141 82.355 60.4759 83.5373 59.5958 84.509C58.8247 85.3605 57.811 86.0633 56.6092 85.9488C55.3582 85.8297 54.2924 84.902 53.6646 83.8639C52.9451 82.6741 52.6428 81.294 52.36 79.9485C52.036 78.4064 51.7406 76.8585 51.4642 75.3072C50.9053 72.1689 50.4265 69.0171 49.9576 65.8643C49.4899 62.7191 49.0322 59.5721 48.5137 56.4347C48.3834 55.6461 48.2492 54.858 48.1101 54.0709C48.0473 53.7157 47.9802 53.3613 47.9186 53.0059C47.9233 53.0329 47.8648 52.7841 47.8796 52.7577C47.8695 52.7756 47.8048 52.8355 47.9196 52.7459C48.0445 52.6483 48.2904 52.6187 48.4391 52.5704C49.909 52.0919 51.4134 51.7196 52.937 51.4577C53.6779 51.3303 54.4226 51.2326 55.1707 51.1592C55.8304 51.0946 55.8371 50.0544 55.1707 50.1197Z" fill="#F3F2F3"/>
<path d="M44.9141 61.9333C46.0977 61.6795 47.2813 61.4258 48.4649 61.172C48.7394 61.1132 48.8992 60.7922 48.8279 60.5327C48.7498 60.2487 48.4639 60.1106 48.1885 60.1697C47.0049 60.4234 45.8214 60.6772 44.6378 60.9309C44.3632 60.9898 44.2035 61.3108 44.2748 61.5703C44.3528 61.8543 44.6388 61.9923 44.9141 61.9333Z" fill="#F3F2F3"/>
<path d="M47.3288 74.2914C48.136 74.2914 48.9432 74.2914 49.7504 74.2914C50.0222 74.2914 50.2827 74.0524 50.2701 73.7717C50.2575 73.4901 50.0418 73.252 49.7504 73.252C48.9432 73.252 48.136 73.252 47.3288 73.252C47.0569 73.252 46.7965 73.491 46.809 73.7717C46.8216 74.0533 47.0374 74.2914 47.3288 74.2914Z" fill="#F3F2F3"/>
<path d="M88.6383 50.7834C88.7401 50.7657 88.5676 50.7833 88.67 50.7806C88.7196 50.7792 88.7686 50.7771 88.8183 50.7791C88.8396 50.78 88.9606 50.796 88.8961 50.784C88.8291 50.7714 88.8997 50.7859 88.9102 50.7884C88.9445 50.7965 88.9787 50.8036 89.0128 50.8128C89.0536 50.824 89.0939 50.8367 89.1337 50.851C89.1536 50.8581 89.1734 50.8657 89.1931 50.8734C89.1742 50.866 89.1007 50.8282 89.1853 50.873C89.2675 50.9164 89.3476 50.9609 89.4239 51.0142C89.437 51.0233 89.5071 51.0799 89.4571 51.0377C89.4103 50.9983 89.4649 51.0457 89.471 51.0514C89.5027 51.0804 89.5349 51.1086 89.5655 51.1389C89.601 51.1741 89.6351 51.2109 89.6677 51.2488C89.6817 51.2651 89.6952 51.2817 89.7089 51.2982C89.6795 51.2626 89.6756 51.252 89.7043 51.2959C89.7552 51.3736 89.796 51.4557 89.8436 51.5349C89.8732 51.5842 89.8372 51.5149 89.8342 51.5075C89.8421 51.5271 89.8496 51.5469 89.8568 51.5668C89.8759 51.6197 89.8922 51.6736 89.9055 51.7283C89.9102 51.7475 89.9346 51.8702 89.9235 51.8041C89.9124 51.738 89.9236 51.807 89.9241 51.8189C89.9255 51.8472 89.9278 51.8751 89.9285 51.9035C89.9293 51.9462 89.9269 51.9886 89.9253 52.0312C89.9248 52.0429 89.9166 52.1153 89.9254 52.0455C89.9343 51.975 89.9218 52.0604 89.9186 52.0739C89.8994 52.1555 89.8754 52.2327 89.8469 52.3114C89.8769 52.2286 89.861 52.2768 89.8356 52.325C89.8121 52.3698 89.7862 52.4134 89.7584 52.4556C89.7298 52.499 89.6929 52.5398 89.7501 52.4734C89.721 52.5072 89.6929 52.5417 89.6623 52.5742C89.636 52.6021 89.6089 52.6291 89.5808 52.6552C89.5668 52.6683 89.5526 52.6813 89.5381 52.6939C89.5263 52.7042 89.4398 52.7716 89.5012 52.7261C89.5561 52.6854 89.4597 52.7537 89.444 52.764C89.4118 52.7852 89.3789 52.8055 89.3454 52.8247C89.3062 52.8472 89.2657 52.8667 89.2258 52.8879C89.2153 52.8935 89.1565 52.9247 89.2175 52.8935C89.2797 52.8617 89.2045 52.8986 89.1903 52.9036C89.0993 52.9356 89.008 52.9639 88.9133 52.9829C88.8947 52.9866 88.8751 52.9884 88.8568 52.9932C88.7943 53.0092 88.9618 52.9877 88.8624 52.9915C88.818 52.9932 88.7739 52.9973 88.7294 52.9975C88.6789 52.9977 88.6279 52.99 88.5777 52.9908C88.515 52.9919 88.6244 52.997 88.6218 52.9977C88.6038 53.0024 88.5654 52.9878 88.5471 52.984C88.4975 52.9735 88.4482 52.9603 88.3999 52.9445C88.3826 52.9388 88.3635 52.9288 88.3457 52.9254C88.2807 52.9131 88.4535 52.9755 88.3457 52.9245C88.1004 52.8085 87.7735 52.8481 87.6346 53.111C87.5126 53.342 87.5587 53.698 87.8211 53.8221C88.7384 54.2558 89.8769 53.9753 90.5086 53.1785C90.8539 52.7429 91.0196 52.2214 90.945 51.666C90.8737 51.1358 90.585 50.6303 90.1731 50.2888C89.6544 49.8586 89.0301 49.665 88.3618 49.7812C88.0933 49.8279 87.9182 50.1714 87.9988 50.4206C88.0924 50.7098 88.3505 50.8335 88.6383 50.7834Z" fill="#F3F2F3"/>
<path d="M91.7078 44.5619C91.9348 44.7932 92.0492 44.9358 92.2102 45.1905C92.2867 45.3115 92.3573 45.4363 92.4218 45.5641C92.4541 45.6281 92.4845 45.6929 92.514 45.7582C92.5507 45.8395 92.491 45.6995 92.5246 45.7823C92.5414 45.8238 92.5576 45.8655 92.5731 45.9075C92.6727 46.177 92.7431 46.4542 92.7925 46.7369C92.7974 46.7649 92.8049 46.8153 92.7971 46.7581C92.8019 46.7936 92.8057 46.8292 92.8093 46.8648C92.8175 46.9449 92.8233 47.0252 92.827 47.1056C92.8339 47.2577 92.8319 47.4097 92.8234 47.5617C92.8082 47.8337 93.0733 48.0936 93.3431 48.0815C93.6377 48.0683 93.8465 47.853 93.8628 47.5617C93.9398 46.1864 93.4056 44.8078 92.4428 43.8268C92.2462 43.6265 91.905 43.6296 91.7078 43.8268C91.5072 44.0274 91.5106 44.3609 91.7078 44.5619Z" fill="#F3F2F3"/>
<path d="M93.8106 51.4379C94.4795 51.4379 94.4806 50.3984 93.8106 50.3984C93.1418 50.3984 93.1407 51.4379 93.8106 51.4379Z" fill="#F3F2F3"/>
<path d="M61.8662 34.5315C61.797 35.955 60.9678 37.2396 59.3253 37.5378C58.1315 37.7545 56.9344 37.2961 55.749 37.0373C54.5834 36.7827 53.3762 36.7197 52.1905 36.8516C51.3578 36.9442 50.523 37.1374 49.7942 37.5506C48.4896 38.2901 47.3218 40.2539 45.8178 40.5102C44.0107 40.8182 42.1894 39.2195 40.4346 38.9757C38.2518 38.6725 36.2641 37.5222 34.0264 37.4476C32.3439 37.3914 30.5127 38.0555 29.7115 39.5361C27.7156 37.6028 26.1829 35.1394 24.7413 32.7767C24.5789 32.5104 24.4135 32.1988 24.5082 31.9016C24.579 31.6791 24.7791 31.5264 24.9721 31.3949C27.0095 30.0067 29.4988 29.3352 31.9642 29.3559C34.4295 29.3766 36.8675 30.071 39.0515 31.2149C40.3341 31.8867 41.5436 32.7155 42.9051 33.2083C45.7833 34.2501 47.5226 32.4861 50.192 31.8649C51.5676 31.5448 53.051 31.7096 54.3228 32.3238C55.0005 32.6511 55.6152 33.099 56.2976 33.4167C57.856 34.1423 59.7517 33.3307 59.8666 31.4387C60.6997 31.4828 61.384 32.1884 61.6478 32.9798C61.8174 33.4887 61.891 34.019 61.8662 34.5315Z" fill="#332E36"/>
<path d="M23.2635 33.6005C23.5173 33.34 23.7887 33.0978 24.0761 32.8749L23.971 32.9562C24.1767 32.7977 24.39 32.6496 24.6103 32.5121C24.8408 32.3682 24.9519 32.0416 24.7968 31.801C24.6478 31.57 24.3324 31.4605 24.0857 31.6145C23.5205 31.9672 22.9934 32.3883 22.5285 32.8654C22.3385 33.0603 22.3198 33.4089 22.5285 33.6005C22.7337 33.7889 23.0608 33.8085 23.2635 33.6005Z" fill="#F3F2F3"/>
<path d="M24.1412 34.6918C24.4248 34.4081 24.7085 34.1245 24.9922 33.8408C25.0864 33.7465 25.1444 33.6065 25.1444 33.4733C25.1444 33.3458 25.0878 33.1935 24.9922 33.1057C24.8931 33.0148 24.7631 32.9473 24.6247 32.9535C24.4868 32.9597 24.3566 33.0063 24.2572 33.1057C23.9735 33.3894 23.6898 33.6731 23.4061 33.9568C23.3119 34.051 23.2539 34.191 23.2539 34.3243C23.2539 34.4518 23.3105 34.6041 23.4061 34.6918C23.5052 34.7827 23.6352 34.8502 23.7736 34.844C23.9115 34.8379 24.0417 34.7913 24.1412 34.6918Z" fill="#F3F2F3"/>
<path d="M25.2956 36.2241C25.3286 36.1717 25.3638 36.121 25.4013 36.0718L25.32 36.177C25.4229 36.0439 25.5418 35.9247 25.6744 35.8213L25.5692 35.9025C25.685 35.8135 25.8095 35.7374 25.9419 35.6756C26.0536 35.6234 26.1492 35.4795 26.1807 35.3649C26.215 35.2405 26.1995 35.0749 26.1283 34.9645C26.0568 34.8535 25.9502 34.7558 25.8177 34.7256L25.6795 34.707C25.5857 34.7073 25.4982 34.731 25.4172 34.778C25.2071 34.8761 25.0159 35.0134 24.8424 35.1664C24.6694 35.3191 24.5205 35.5046 24.398 35.6994C24.3276 35.8114 24.3109 35.974 24.3456 36.0999C24.3788 36.2204 24.472 36.3511 24.5845 36.4105C24.7051 36.4742 24.8512 36.5062 24.9849 36.4629C25.1163 36.4204 25.2212 36.3423 25.2956 36.2241Z" fill="#F3F2F3"/>
<path d="M26.4504 37.8231C26.6868 37.6576 26.9232 37.4922 27.1597 37.3268C27.2202 37.2941 27.2688 37.2495 27.3055 37.1929C27.3514 37.1427 27.3824 37.0838 27.3985 37.0161C27.4202 36.947 27.4233 36.878 27.4078 36.8089C27.4047 36.7397 27.3841 36.6753 27.3461 36.6156C27.2746 36.5046 27.168 36.407 27.0355 36.3768C26.9055 36.3472 26.7485 36.3497 26.635 36.4292C26.3986 36.5946 26.1622 36.76 25.9258 36.9255C25.8652 36.9581 25.8166 37.0028 25.7799 37.0594C25.734 37.1096 25.703 37.1685 25.6869 37.2361C25.6653 37.3052 25.6622 37.3743 25.6776 37.4434C25.6808 37.5126 25.7013 37.577 25.7393 37.6366C25.8109 37.7476 25.9174 37.8453 26.0499 37.8755C26.1799 37.9051 26.3369 37.9025 26.4504 37.8231Z" fill="#F3F2F3"/>
<path d="M27.9791 39.5479C28.0341 39.4477 28.0965 39.3521 28.166 39.2613L28.0847 39.3665C28.1989 39.2191 28.3306 39.0868 28.4776 38.9721L28.3724 39.0533C28.416 39.0197 28.4606 38.9877 28.5064 38.9573C28.6193 38.8823 28.7085 38.7801 28.7453 38.6467C28.767 38.5776 28.77 38.5085 28.7546 38.4394C28.7514 38.3702 28.7309 38.3058 28.6929 38.2462C28.6213 38.1352 28.5148 38.0375 28.3823 38.0073C28.2503 37.9773 28.0982 37.9823 27.9818 38.0597C27.6115 38.3057 27.2961 38.632 27.0816 39.0232C27.0156 39.1435 26.9924 39.29 27.0292 39.4237C27.0624 39.5442 27.1556 39.6749 27.268 39.7343C27.3887 39.798 27.5348 39.83 27.6685 39.7867C27.7955 39.7456 27.9133 39.6678 27.9791 39.5479Z" fill="#F3F2F3"/>
<path d="M29.1841 40.7959C29.4678 40.4886 29.7515 40.1813 30.0351 39.874C30.1279 39.7735 30.1874 39.6453 30.1874 39.5065C30.1874 39.379 30.1307 39.2267 30.0351 39.1389C29.9361 39.048 29.8061 38.9805 29.6676 38.9867C29.533 38.9927 29.3942 39.0371 29.3001 39.1389C29.0164 39.4463 28.7328 39.7536 28.4491 40.0609C28.3564 40.1614 28.2969 40.2896 28.2969 40.4284C28.2969 40.5559 28.3535 40.7082 28.4491 40.7959C28.5482 40.8869 28.6782 40.9544 28.8166 40.9482C28.9513 40.9422 29.0901 40.8978 29.1841 40.7959Z" fill="#F3F2F3"/>
<path d="M7.16184 29.9248C9.69804 37.5783 12.2343 45.2319 14.7705 52.8854C15.1103 53.9108 15.4504 54.9361 15.7899 55.9616C16.1112 56.9326 16.4857 57.9668 16.1509 58.9834C15.9411 59.6202 16.9446 59.8932 17.1532 59.2597C17.4513 58.3544 17.3132 57.407 17.0544 56.5096C16.7896 55.5912 16.4618 54.6881 16.1612 53.7809C15.5192 51.8435 14.8771 49.9061 14.2351 47.9686C12.9413 44.0643 11.6475 40.16 10.3537 36.2557C9.62387 34.0533 8.89404 31.8509 8.1642 29.6484C7.95477 29.0165 6.95056 29.2873 7.16184 29.9248Z" fill="#F3F2F3"/>
<path d="M8.59213 44.3521C9.71101 44.1959 10.8299 44.0397 11.9488 43.8836C12.2191 43.8459 12.3905 43.4873 12.3118 43.2443C12.2158 42.9477 11.9621 42.8408 11.6725 42.8813C10.5536 43.0374 9.43469 43.1936 8.31577 43.3497C8.04553 43.3874 7.87414 43.7461 7.95278 43.9891C8.04875 44.2856 8.30246 44.3925 8.59213 44.3521Z" fill="#F3F2F3"/>
<path d="M30.5359 49.2505C31.6012 50.5382 31.8672 52.5429 31.398 54.1164C31.1227 55.0397 30.561 55.6998 29.7394 56.1938C29.3094 56.4523 28.8057 56.8124 28.2922 56.8406C27.849 56.865 27.3792 56.7882 26.9482 56.6922C25.3057 56.3265 23.745 55.284 23.1882 53.6332C22.5818 51.8355 23.2435 49.8969 24.6808 48.6963C26.4558 47.2137 29.0389 47.5344 30.5359 49.2505C30.9765 49.7555 31.7091 49.0178 31.2709 48.5154C29.6544 46.6623 26.8625 46.1338 24.7308 47.397C22.7696 48.5592 21.6347 50.854 21.9907 53.1104C22.3317 55.2722 24.0352 56.8738 26.0595 57.5281C27.1151 57.8692 28.3613 58.0787 29.3887 57.5752C30.4628 57.0487 31.4903 56.3731 32.0462 55.2794C33.1122 53.1821 32.7638 50.3201 31.2709 48.5154C30.8442 47.9995 30.1124 48.7385 30.5359 49.2505Z" fill="#F3F2F3"/>
<path d="M28.3341 51.2953C28.7634 51.8015 28.839 52.8057 28.3723 53.3177C28.2435 53.459 28.0726 53.5536 27.905 53.6456C27.8018 53.7023 27.6928 53.7605 27.575 53.7598C26.7551 53.7549 25.9456 53.2565 25.8751 52.3684C25.8156 51.6185 26.4294 50.8685 27.1795 50.8122C27.6114 50.7798 28.054 50.9651 28.3341 51.2953Z" fill="#F3F2F3"/>
<path d="M27.9662 51.662C27.8726 51.5481 27.9911 51.7023 28.0086 51.7321C28.021 51.7532 28.0329 51.7748 28.0443 51.7966C28.0476 51.8029 28.1051 51.9118 28.0661 51.8366C28.0277 51.7624 28.0792 51.8728 28.0821 51.8811C28.0907 51.9054 28.0988 51.9301 28.1063 51.9547C28.1274 52.0237 28.1442 52.094 28.1572 52.1649C28.1651 52.208 28.2001 52.2671 28.1589 52.1644C28.1663 52.1828 28.1648 52.2268 28.166 52.2438C28.1705 52.31 28.1717 52.3764 28.1693 52.4427C28.1683 52.4691 28.166 52.4953 28.1647 52.5217C28.1598 52.6199 28.1699 52.5153 28.1699 52.5007C28.1699 52.5664 28.1428 52.6463 28.1247 52.7087C28.1158 52.7392 28.1051 52.7689 28.0952 52.7991C28.0633 52.8969 28.1049 52.7844 28.1044 52.7791C28.1076 52.8182 28.0329 52.9076 28.0135 52.9398C27.987 52.9839 28.0091 52.9867 28.0285 52.922C28.0203 52.9494 27.9748 52.9805 27.9541 53C27.9363 53.0168 27.8546 53.0768 27.93 53.0236C27.8909 53.0511 27.8504 53.0768 27.8094 53.1015C27.7546 53.1345 27.6986 53.1655 27.6424 53.196C27.633 53.201 27.5068 53.2889 27.5834 53.231C27.5601 53.2486 27.4912 53.2376 27.5747 53.2392C27.5152 53.238 27.456 53.2358 27.3967 53.2303C27.2868 53.22 27.3955 53.2186 27.3976 53.2314C27.3974 53.2298 27.2871 53.2103 27.2816 53.2091C27.2242 53.1964 27.1674 53.1809 27.1114 53.163C27.0755 53.1516 26.9185 53.0791 27.0359 53.1393C26.9211 53.0804 26.8101 53.0231 26.7061 52.9456C26.8167 53.028 26.6619 52.8993 26.6403 52.8774C26.6049 52.8415 26.5717 52.8035 26.54 52.7643C26.6263 52.8711 26.5096 52.7076 26.4942 52.6799C26.4817 52.6574 26.471 52.6341 26.4587 52.6115C26.4045 52.5123 26.4796 52.6929 26.4512 52.5912C26.433 52.5261 26.4152 52.462 26.3987 52.3964C26.3917 52.3689 26.392 52.3006 26.3985 52.4103C26.3964 52.3751 26.3924 52.3404 26.3913 52.3051C26.3894 52.2424 26.3939 52.181 26.3989 52.1186C26.3897 52.233 26.3925 52.1605 26.3999 52.134C26.4128 52.0874 26.4219 52.04 26.4364 51.9936C26.4468 51.9605 26.4586 51.9282 26.4708 51.8957C26.4639 51.914 26.4243 51.99 26.4687 51.9057C26.4978 51.8501 26.527 51.7955 26.5612 51.7427C26.5801 51.7136 26.6 51.6851 26.6206 51.6572C26.5576 51.7423 26.6021 51.6812 26.618 51.6652C26.6717 51.6112 26.7269 51.5587 26.7809 51.5051C26.8371 51.4492 26.6816 51.5688 26.7904 51.4979C26.8251 51.4753 26.859 51.4524 26.895 51.4318C26.9188 51.4181 26.9439 51.4066 26.9676 51.3929C27.0671 51.3354 26.8932 51.4106 26.9948 51.381C27.0277 51.3714 27.0599 51.3596 27.0931 51.3508C27.123 51.3429 27.2718 51.3219 27.1377 51.335C27.2116 51.3278 27.2842 51.3282 27.3582 51.33C27.4564 51.3324 27.3755 51.3298 27.3533 51.3262C27.4049 51.3346 27.4558 51.3458 27.5062 51.3597C27.5422 51.3697 27.5772 51.3822 27.6128 51.3937C27.714 51.4264 27.554 51.3527 27.6526 51.413C27.7165 51.452 27.7821 51.4861 27.8427 51.5305C27.7609 51.4706 27.8388 51.5311 27.858 51.549C27.8964 51.5847 27.9317 51.6227 27.9662 51.662C28.1462 51.867 28.5199 51.8597 28.7014 51.662C28.902 51.4435 28.8934 51.1456 28.7014 50.927C28.1256 50.2714 27.1267 50.1003 26.3704 50.5342C25.6379 50.9544 25.2444 51.8056 25.389 52.632C25.5197 53.3788 26.1184 53.9291 26.8165 54.1595C27.2276 54.2952 27.6812 54.3361 28.0771 54.1411C28.4445 53.9602 28.7968 53.7114 28.9858 53.3373C29.3752 52.5667 29.2447 51.588 28.7014 50.927C28.5281 50.7161 28.1436 50.7339 27.9664 50.927C27.7606 51.1512 27.7813 51.437 27.9662 51.662Z" fill="#F3F2F3"/>
<path d="M52.718 15.1009C52.2981 14.9806 52.0361 15.5495 51.9988 15.9847C51.8058 18.235 52.475 20.5325 52.0025 22.7411C51.418 25.4737 49.0868 27.6273 46.426 28.4812C43.7652 29.335 40.8406 29.0301 38.1894 28.1467C36.8636 27.7049 35.5733 27.1154 34.466 26.2628C33.4963 25.5161 32.6195 24.3747 32.8608 23.1748C33.091 22.0294 34.3009 21.2941 35.4666 21.2177C36.6323 21.1412 37.765 21.571 38.8541 21.9936C39.976 22.4289 41.0978 22.8642 42.2197 23.2995C40.9958 21.9097 40.4412 19.9556 40.7525 18.1301C41.0637 16.3046 42.2346 14.6447 43.8498 13.739C44.7057 13.2591 45.664 12.9875 46.6294 12.8116C47.8078 12.5968 49.0155 12.519 50.2069 12.6435C50.9569 12.7218 51.7066 12.8829 52.3838 13.2148C53.4795 13.7519 54.3171 14.6997 55.0271 15.6921C55.2194 15.9609 55.4377 16.2571 55.7625 16.3181C55.9135 16.3464 56.0779 16.3203 56.2152 16.3894C56.4794 16.5224 56.4755 16.9019 56.3875 17.1843C56.2561 17.6063 56.0226 17.9962 55.7127 18.3113C55.6375 18.3877 55.5485 18.464 55.4415 18.4695C55.3016 18.4767 55.1887 18.3637 55.0916 18.2628C54.2728 17.4121 53.1766 16.8327 52.0125 16.6354" fill="#F3F2F3"/>
<path d="M52.8547 14.5998C51.3208 14.3276 51.4173 16.5072 51.4533 17.4577C51.5108 18.9744 51.7735 20.5003 51.5975 22.0181C51.3108 24.4896 49.5335 26.4881 47.3536 27.5527C44.7522 28.8232 41.6578 28.6362 38.9479 27.8404C37.5553 27.4315 36.1948 26.8674 35.0075 26.0217C34.1167 25.3871 32.9524 24.2092 33.4502 23.002C34.0211 21.6173 35.8448 21.6005 37.0494 21.9198C37.8695 22.1371 38.6567 22.4725 39.4461 22.7788C40.3241 23.1194 41.2021 23.4601 42.08 23.8008C42.6076 24.0055 42.8891 23.2842 42.5857 22.9321C41.3888 21.5433 40.8976 19.5788 41.3525 17.7963C41.8005 16.0415 43.0742 14.5765 44.743 13.8773C45.7078 13.4731 46.777 13.2656 47.8144 13.1647C48.8827 13.0608 49.9947 13.0614 51.0454 13.3025C52.0373 13.53 52.8627 14.02 53.5736 14.7429C53.8804 15.0549 54.1619 15.3916 54.4227 15.7427C54.6898 16.1023 54.9319 16.5082 55.3456 16.7163C55.4345 16.761 55.5262 16.7962 55.6228 16.8194C55.7071 16.8315 55.7915 16.8422 55.8762 16.8513C56.0146 16.8758 56.0299 16.8656 55.9221 16.8209C55.9519 17.0098 55.816 17.2531 55.7322 17.4103C55.6911 17.4874 55.6454 17.5654 55.596 17.6378C55.5487 17.7127 55.4948 17.7825 55.4343 17.8472C55.2864 17.952 55.3195 17.9934 55.5336 17.9713C55.5519 17.9482 55.0219 17.4896 54.9936 17.4663C54.1717 16.7881 53.1986 16.3249 52.1491 16.1343C51.4951 16.0156 51.2145 17.0172 51.8728 17.1367C52.9857 17.3387 53.9131 17.8499 54.7226 18.6304C55.1446 19.0374 55.6386 19.1017 56.0787 18.6789C56.4801 18.2932 56.8119 17.7217 56.9223 17.1745C57.0207 16.6861 56.9 16.1423 56.4139 15.9146C56.2144 15.8211 55.9734 15.8731 55.7866 15.775C55.57 15.6612 55.4221 15.3543 55.2809 15.1656C54.6042 14.2609 53.8232 13.4016 52.8183 12.8564C51.7291 12.2654 50.4591 12.0865 49.2347 12.0662C47.9506 12.045 46.6318 12.2124 45.3948 12.5595C43.2263 13.168 41.4665 14.613 40.6148 16.719C39.6679 19.0607 40.2194 21.7743 41.8507 23.6673L42.3564 22.7986C40.7648 22.181 39.1764 21.4577 37.5372 20.9771C36.1977 20.5844 34.6849 20.5226 33.505 21.3791C32.3753 22.1993 32.0146 23.553 32.592 24.8276C33.1847 26.136 34.4996 27.0382 35.7327 27.6814C40.7528 30.2995 48.2797 30.5316 51.5888 25.1314C52.4406 23.7413 52.7304 22.1722 52.6883 20.5571C52.6638 19.6204 52.556 18.6886 52.5064 17.7532C52.483 17.3113 52.4718 16.8681 52.4897 16.4258C52.4977 16.2288 52.4947 16.0231 52.5527 15.833C52.5959 15.6915 52.7187 15.6272 52.5783 15.6023C53.2325 15.7183 53.5133 14.7166 52.8547 14.5998Z" fill="#F3F2F3"/>
<path d="M51.9181 22.295C53.2988 22.0408 54.6879 21.839 56.0848 21.6975C56.4571 21.6598 56.8298 21.6261 57.2028 21.5963C57.3551 21.5841 57.8121 21.4707 57.9494 21.5716C57.8882 21.5266 57.9643 21.7046 57.9745 21.7714C58.0018 21.9488 58.0102 22.1319 58.0161 22.311C58.0271 22.6476 58.0145 22.9884 57.9642 23.3216C57.9309 23.5417 57.9206 23.7385 57.7086 23.838C57.4472 23.9606 57.1018 24.0026 56.8201 24.0596C56.1823 24.1887 55.612 24.1586 55.0338 23.8469C54.478 23.5473 53.964 23.2433 53.3267 23.1573C52.6629 23.0677 51.9962 23.1571 51.3337 23.2185C50.6732 23.2796 50.6668 24.3197 51.3337 24.2579C51.9414 24.2016 52.5789 24.0964 53.1881 24.1808C53.7638 24.2605 54.2115 24.6095 54.7223 24.854C55.2902 25.1257 55.8839 25.2242 56.5102 25.1542C57.066 25.0921 57.6912 24.989 58.2032 24.7539C58.7367 24.5089 58.9099 24.0037 58.9866 23.4599C59.0783 22.8096 59.0864 22.1483 58.9777 21.499C58.749 20.134 57.1338 20.5532 56.1547 20.651C54.6423 20.8021 53.1364 21.0174 51.6417 21.2926C50.9848 21.4135 51.263 22.4156 51.9181 22.295Z" fill="#F3F2F3"/>
<path d="M54.831 27.0298C54.8174 27.2316 54.8526 27.4462 54.9287 27.6336C55.0218 27.8628 55.144 28.0673 55.3209 28.2435C55.6343 28.5557 56.0879 28.7621 56.5358 28.7302C56.6748 28.7203 56.8023 28.6789 56.9033 28.578C56.9934 28.4878 57.0613 28.3399 57.0555 28.2105C57.0495 28.076 57.0053 27.9366 56.9033 27.8429C56.8058 27.7535 56.6726 27.681 56.5358 27.6907C56.4696 27.6954 56.404 27.6937 56.3381 27.6858L56.4763 27.7044C56.3837 27.6917 56.2945 27.6672 56.208 27.6319L56.3322 27.6843C56.2356 27.6432 56.1458 27.59 56.0626 27.526L56.1678 27.6072C56.085 27.5418 56.0112 27.4673 55.9466 27.3839L56.0279 27.4891C55.968 27.4097 55.918 27.3245 55.8787 27.2332L55.9311 27.3573C55.8955 27.271 55.8706 27.1818 55.8576 27.0894L55.8761 27.2275C55.868 27.1617 55.866 27.0961 55.8705 27.0298C55.8791 26.9023 55.8064 26.7504 55.7183 26.6623C55.6281 26.5722 55.4802 26.5043 55.3508 26.5101C55.2163 26.5161 55.0769 26.5603 54.9832 26.6623C54.8864 26.7678 54.8407 26.8863 54.831 27.0298Z" fill="#F3F2F3"/>
<path d="M54.8513 27.3178C55.0416 27.1818 55.2458 27.0675 55.4611 26.9759L55.3369 27.0283C55.4987 26.9607 55.6652 26.9063 55.8359 26.8657C55.9602 26.8362 56.0828 26.7357 56.1465 26.6269C56.2117 26.5155 56.2393 26.3513 56.1989 26.2264C56.1097 25.9506 55.8432 25.7959 55.5595 25.8634C55.1213 25.9676 54.6933 26.1582 54.3267 26.4203C54.2139 26.5009 54.1258 26.593 54.0878 26.7309C54.0535 26.8553 54.069 27.021 54.1402 27.1314C54.2117 27.2424 54.3183 27.3401 54.4508 27.3703C54.58 27.3997 54.739 27.3981 54.8513 27.3178Z" fill="#F3F2F3"/>
<path d="M53.1834 38.4161C54.8695 37.754 56.678 37.9329 58.4411 38.0848C60.3468 38.2489 62.2149 38.2393 64.105 37.9156C64.763 37.8029 64.4841 36.801 63.8287 36.9133C61.9338 37.2378 60.06 37.1842 58.1534 37.0205C56.397 36.8697 54.5821 36.756 52.907 37.4137C52.2914 37.6555 52.5594 38.6611 53.1834 38.4161Z" fill="#F3F2F3"/>
</svg>
