<svg width="24" height="24" viewBox="0 0 24 24" fill="none" xmlns="http://www.w3.org/2000/svg">
<path fill-rule="evenodd" clip-rule="evenodd" d="M11.3994 2.40002C9.61938 2.40002 7.87933 2.92787 6.39929 3.9168C4.91924 4.90573 3.76569 6.31134 3.0845 7.95587C2.40331 9.60041 2.22508 11.41 2.57235 13.1558C2.91962 14.9017 3.77678 16.5053 5.03546 17.764C6.29413 19.0227 7.89778 19.8798 9.6436 20.2271C11.3894 20.5744 13.199 20.3961 14.8436 19.7149C15.2095 19.5634 15.5636 19.3884 15.9039 19.1917H14.6911C14.3485 19.1917 14.02 19.0556 13.7777 18.8133C13.5355 18.5711 13.3994 18.2426 13.3994 17.9C13.3994 17.5574 13.5355 17.2289 13.7777 16.9867C14.02 16.7444 14.3485 16.6083 14.6911 16.6083H16.6077V14.6917C16.6077 14.3491 16.7438 14.0206 16.9861 13.7783C17.2283 13.5361 17.5568 13.4 17.8994 13.4C18.242 13.4 18.5705 13.5361 18.8128 13.7783C19.055 14.0206 19.1911 14.3491 19.1911 14.6917V15.9045C19.9809 14.5382 20.3994 12.985 20.3994 11.4C20.3969 9.01385 19.4479 6.72613 17.7606 5.03885C16.0733 3.35156 13.7856 2.40254 11.3994 2.40002ZM8.28403 8.63079C8.48942 8.63079 8.6902 8.6917 8.86097 8.8058C9.03174 8.91991 9.16485 9.0821 9.24345 9.27185C9.32204 9.46161 9.34261 9.67041 9.30254 9.87185C9.26247 10.0733 9.16357 10.2583 9.01834 10.4036C8.8731 10.5488 8.68807 10.6477 8.48663 10.6878C8.28518 10.7278 8.07638 10.7073 7.88663 10.6287C7.69688 10.5501 7.53469 10.417 7.42058 10.2462C7.30648 10.0754 7.24557 9.87464 7.24557 9.66925C7.24557 9.39384 7.35498 9.1297 7.54973 8.93495C7.74448 8.7402 8.00862 8.63079 8.28403 8.63079ZM15.4598 13.8231C14.5693 15.3626 13.0895 16.2462 11.3994 16.2462C9.70932 16.2462 8.22951 15.3635 7.33903 13.8231C7.28894 13.7443 7.25531 13.6562 7.24015 13.5641C7.225 13.4719 7.22864 13.3777 7.25085 13.287C7.27307 13.1963 7.3134 13.111 7.36941 13.0363C7.42543 12.9616 7.49598 12.899 7.57682 12.8523C7.65766 12.8056 7.74711 12.7757 7.8398 12.7644C7.93249 12.7532 8.0265 12.7608 8.11617 12.7868C8.20585 12.8128 8.28933 12.8567 8.3616 12.9158C8.43388 12.9749 8.49344 13.0481 8.53672 13.1308C9.18317 14.248 10.1991 14.8616 11.3994 14.8616C12.5997 14.8616 13.6157 14.2471 14.2621 13.1308C14.3054 13.0481 14.365 12.9749 14.4372 12.9158C14.5095 12.8567 14.593 12.8128 14.6827 12.7868C14.7723 12.7608 14.8663 12.7532 14.959 12.7644C15.0517 12.7757 15.1412 12.8056 15.222 12.8523C15.3028 12.899 15.3734 12.9616 15.4294 13.0363C15.4854 13.111 15.5258 13.1963 15.548 13.287C15.5702 13.3777 15.5738 13.4719 15.5587 13.5641C15.5435 13.6562 15.5099 13.7443 15.4598 13.8231ZM14.5148 10.7077C14.3094 10.7077 14.1086 10.6468 13.9379 10.5327C13.7671 10.4186 13.634 10.2564 13.5554 10.0667C13.4768 9.8769 13.4562 9.6681 13.4963 9.46666C13.5364 9.26522 13.6353 9.08018 13.7805 8.93495C13.9257 8.78972 14.1108 8.69081 14.3122 8.65075C14.5136 8.61068 14.7224 8.63124 14.9122 8.70984C15.102 8.78844 15.2641 8.92154 15.3782 9.09232C15.4924 9.26309 15.5533 9.46387 15.5533 9.66925C15.5533 9.94467 15.4439 10.2088 15.2491 10.4036C15.0544 10.5983 14.7902 10.7077 14.5148 10.7077ZM21.5992 17.9C21.5992 18.0304 21.5474 18.1555 21.4552 18.2477C21.363 18.3399 21.2379 18.3917 21.1076 18.3917H18.3909V21.1083C18.3909 21.2387 18.3391 21.3638 18.2469 21.456C18.1547 21.5482 18.0296 21.6 17.8992 21.6C17.7688 21.6 17.6438 21.5482 17.5516 21.456C17.4594 21.3638 17.4076 21.2387 17.4076 21.1083V18.3917H14.6909C14.5605 18.3917 14.4354 18.3399 14.3432 18.2477C14.251 18.1555 14.1992 18.0304 14.1992 17.9C14.1992 17.7696 14.251 17.6446 14.3432 17.5524C14.4354 17.4601 14.5605 17.4083 14.6909 17.4083H17.4076V14.6917C17.4076 14.5613 17.4594 14.4362 17.5516 14.344C17.6438 14.2518 17.7688 14.2 17.8992 14.2C18.0296 14.2 18.1547 14.2518 18.2469 14.344C18.3391 14.4362 18.3909 14.5613 18.3909 14.6917V17.4083H21.1076C21.2379 17.4083 21.363 17.4601 21.4552 17.5524C21.5474 17.6446 21.5992 17.7696 21.5992 17.9ZM18.1911 17.6083H21.1076C21.1136 17.6083 21.1197 17.6085 21.1258 17.6089C21.1198 17.6085 21.1138 17.6084 21.1077 17.6084H18.1911V17.6083ZM17.8994 14.4C17.906 14.4 17.9126 14.4003 17.9192 14.4007C17.9126 14.4002 17.9059 14.4 17.8992 14.4C17.8219 14.4 17.7477 14.4307 17.693 14.4854C17.6383 14.5401 17.6076 14.6143 17.6076 14.6917V17.6083H14.6909C14.6135 17.6083 14.5393 17.6391 14.4846 17.6938C14.4299 17.7485 14.3992 17.8227 14.3992 17.9C14.3992 17.9774 14.4299 18.0516 14.4846 18.1063C14.5351 18.1567 14.6021 18.1867 14.6728 18.1911C14.6021 18.1867 14.5352 18.1566 14.4848 18.1063C14.4301 18.0516 14.3994 17.9774 14.3994 17.9C14.3994 17.8227 14.4301 17.7485 14.4848 17.6938C14.5395 17.6391 14.6137 17.6084 14.6911 17.6084H17.6077V14.6917C17.6077 14.6143 17.6385 14.5401 17.6932 14.4855C17.7479 14.4308 17.8221 14.4 17.8994 14.4ZM17.6076 21.1083V18.1917H17.6077V21.1084C17.6077 21.1857 17.6385 21.2599 17.6932 21.3146C17.7382 21.3596 17.7964 21.3884 17.8586 21.3972C17.7963 21.3884 17.738 21.3596 17.693 21.3146C17.6383 21.2599 17.6076 21.1857 17.6076 21.1083Z" fill="#FFFFFD"/>
</svg>
