<svg width="121" height="120" viewBox="0 0 121 120" fill="none" xmlns="http://www.w3.org/2000/svg">
<path d="M30.6559 101.824C30.1242 101.319 29.529 100.78 29.2725 100.072C29.0862 99.5583 29.1036 98.8346 29.555 98.4553C30.0639 98.0277 30.8183 98.2976 31.2448 98.7124C31.7995 99.2519 32.013 100.05 32.2222 100.77L32.9699 100.455C32.0381 98.8349 31.9381 96.7175 32.8293 95.0542C33.1629 94.4314 33.8796 93.6302 34.6712 93.7348C35.5797 93.8549 35.831 95.2015 36.022 95.9095C36.3493 97.1228 36.52 98.3661 36.5436 99.622C36.5521 100.073 37.236 100.191 37.3471 99.7308C37.7065 98.243 39.3616 97.2513 40.7394 98.1653C41.31 98.5438 41.666 99.2123 41.5255 99.9C41.3847 100.589 40.8755 101.15 40.1747 101.272L40.3922 102.061C41.2917 101.706 42.4635 101.198 43.4248 101.618C44.031 101.883 44.6125 102.666 44.231 103.319C43.9647 103.774 44.6715 104.186 44.9374 103.731C45.507 102.757 44.939 101.594 44.0576 101.033C42.8699 100.277 41.3615 100.804 40.1747 101.272C39.6855 101.464 39.8686 102.151 40.3922 102.061C41.9386 101.792 42.7836 99.9563 42.1435 98.572C41.4502 97.0728 39.4938 96.5764 38.1116 97.3948C37.3336 97.8555 36.7699 98.6371 36.5582 99.5133L37.3617 99.622C37.3371 98.3167 37.1621 97.0117 36.8263 95.7495C36.5575 94.7388 36.2297 93.4199 35.1329 93.0146C34.1256 92.6423 33.0888 93.327 32.4864 94.0947C31.8079 94.9594 31.4897 96.0997 31.4135 97.1827C31.3234 98.4619 31.6245 99.7568 32.2634 100.867C32.4929 101.266 33.1418 101.002 33.011 100.552C32.7417 99.6256 32.4301 98.6122 31.6492 97.9816C30.9411 97.4097 29.8817 97.1847 29.11 97.7684C28.4299 98.2828 28.2359 99.2085 28.4056 100.011C28.6128 100.991 29.3797 101.74 30.0773 102.402C30.459 102.765 31.0386 102.187 30.6559 101.824Z" fill="#332E36"/>
<path d="M69.0078 77.2734C65.636 83.5902 59.2253 94.4204 56.238 100.928C54.7612 104.145 53.332 107.384 51.9511 110.644C50.7516 113.475 49.7704 116.563 48.0889 119.149C46.6549 119.24 44.9315 118.283 43.5818 117.83C43.9517 117.338 43.8345 116.551 43.3371 116.189C42.8398 115.826 42.0552 115.955 41.6999 116.457C41.5811 116.626 41.4913 116.839 41.2992 116.913C41.1625 116.966 41.0094 116.932 40.8674 116.896C38.9913 116.423 37.1729 115.721 35.4654 114.812C33.2761 113.645 31.5973 110.462 34.9257 109.302C35.9916 108.931 37.173 108.969 38.2205 108.549C39.8708 107.887 40.8744 106.236 41.7139 104.668C45.7205 97.1862 49.081 85.0501 55.6359 73.4473" fill="#F3F2F3"/>
<path d="M68.6547 77.0672C66.0247 81.9912 63.2109 86.8155 60.5302 91.7119C59.2121 94.1196 57.9108 96.5389 56.7023 99.0039C55.214 102.039 53.8704 105.151 52.5312 108.255C51.7476 110.071 51.0045 111.9 50.2718 113.737C49.5558 115.532 48.7871 117.315 47.7358 118.943L48.089 118.74C46.5478 118.814 45.106 117.919 43.6906 117.436L43.9351 118.036C44.4403 117.306 44.2127 116.172 43.4079 115.752C43.0311 115.556 42.5667 115.519 42.1626 115.652C41.9563 115.72 41.7653 115.824 41.6008 115.966C41.5224 116.034 41.4582 116.106 41.3956 116.188C41.3344 116.268 41.263 116.459 41.1762 116.504C41.009 116.592 40.5977 116.404 40.4152 116.353C40.117 116.27 39.8203 116.182 39.5255 116.087C38.9544 115.904 38.3901 115.699 37.8343 115.474C36.904 115.097 35.9053 114.691 35.091 114.094C34.1941 113.436 33.1123 112.118 33.5457 110.92C33.7894 110.246 34.499 109.868 35.1415 109.661C36.2477 109.305 37.4396 109.337 38.5148 108.866C40.3211 108.076 41.3583 106.23 42.2322 104.563C43.043 103.017 43.7611 101.424 44.4458 99.8184C46.0779 95.9921 47.5377 92.0948 49.108 88.2433C50.9092 83.8254 52.8433 79.4563 55.107 75.2537C55.3957 74.7175 55.6901 74.1845 55.9892 73.6541C56.2482 73.1949 55.5417 72.7821 55.2828 73.2412C52.9128 77.4432 50.8959 81.8293 49.0394 86.2788C47.399 90.2103 45.9001 94.1986 44.2724 98.135C43.5836 99.8008 42.8671 101.457 42.0715 103.075C41.6867 103.858 41.2879 104.637 40.8435 105.387C40.3487 106.223 39.7737 107.053 38.9907 107.645C37.3279 108.903 34.8988 108.253 33.361 109.751C32.3079 110.777 32.5535 112.308 33.3225 113.422C34.3715 114.942 36.1179 115.669 37.7784 116.328C38.3358 116.549 38.9016 116.75 39.4741 116.928C39.7511 117.015 40.0297 117.097 40.3096 117.173C40.5899 117.25 40.8994 117.364 41.1942 117.347C41.4505 117.332 41.6643 117.2 41.8215 117.004C41.9567 116.835 42.0382 116.636 42.2256 116.517C42.5301 116.323 42.9898 116.343 43.223 116.64C43.4523 116.933 43.4326 117.329 43.2287 117.624C43.0693 117.854 43.2418 118.145 43.4732 118.224C44.2922 118.504 45.0767 118.875 45.8942 119.159C46.2968 119.299 46.7081 119.422 47.1293 119.492C47.4521 119.546 48.055 119.688 48.3368 119.471C48.508 119.339 48.6237 119.073 48.7352 118.889C48.8593 118.684 48.9793 118.477 49.0957 118.268C49.3208 117.863 49.5322 117.451 49.7334 117.034C50.1462 116.179 50.5161 115.303 50.8724 114.423C51.6042 112.615 52.3184 110.804 53.0893 109.012C53.9287 107.061 54.7855 105.117 55.6595 103.182C56.9332 100.36 58.2964 97.5946 59.7543 94.8639C61.3102 91.9497 62.9221 89.0657 64.5373 86.1841C66.0082 83.5598 67.4908 80.9414 68.9227 78.2955C69.0696 78.0242 69.2157 77.7524 69.3611 77.4802C69.6091 77.016 68.9031 76.6022 68.6547 77.0672Z" fill="#332E36"/>
<path d="M61.7812 81.092C62.49 88.2173 62.6015 91.3408 62.8821 98.4957C63.0208 102.033 63.1072 105.572 63.141 109.112C63.1704 112.187 62.9 115.416 63.4687 118.448C64.7596 119.078 66.7177 118.851 68.1384 118.946C67.984 118.35 68.3922 117.668 68.9903 117.522C69.5883 117.377 70.2645 117.795 70.4013 118.395C70.447 118.596 70.4487 118.827 70.598 118.969C70.7043 119.07 70.8588 119.097 71.0037 119.118C72.9185 119.396 74.867 119.441 76.7924 119.25C79.2612 119.007 82.0267 116.704 79.3918 114.363C78.5481 113.613 77.4412 113.199 76.6331 112.411C75.36 111.169 75.0616 109.26 74.8832 107.491C74.0319 99.0465 75.5522 86.5459 73.9161 73.3203" fill="#F3F2F3"/>
<path d="M61.3735 81.0909C61.8727 86.1176 62.1832 91.1456 62.3838 96.1923C62.5081 99.318 62.6211 102.444 62.6819 105.571C62.7125 107.147 62.7466 108.724 62.7322 110.301C62.7181 111.827 62.6675 113.354 62.7123 114.881C62.7369 115.719 62.7903 116.557 62.8958 117.39C62.9434 117.765 62.9425 118.258 63.0962 118.604C63.2207 118.885 63.6813 118.986 63.9518 119.062C65.3098 119.445 66.7499 119.268 68.1397 119.354C68.4195 119.371 68.5866 119.08 68.5341 118.836C68.3539 118 69.484 117.561 69.925 118.293C70.0287 118.466 70.0215 118.667 70.0792 118.855C70.1504 119.086 70.288 119.275 70.5009 119.392C70.7107 119.508 70.9629 119.522 71.1953 119.553C71.499 119.594 71.8033 119.63 72.1083 119.66C73.2964 119.776 74.4933 119.804 75.6854 119.742C76.6568 119.691 77.5949 119.603 78.496 119.215C79.9116 118.606 81.3515 117.172 80.7188 115.503C80.3684 114.579 79.5849 113.921 78.7757 113.4C77.9596 112.874 77.0705 112.431 76.4913 111.621C75.4397 110.153 75.3322 108.168 75.2001 106.427C75.0699 104.711 75.0281 102.99 75.0165 101.269C74.9889 97.1932 75.1193 93.1178 75.1279 89.0419C75.1377 84.4005 75.0092 79.7541 74.5322 75.1349C74.4696 74.529 74.4007 73.9238 74.3264 73.3192C74.2992 73.0982 74.1578 72.9127 73.9173 72.9102C73.717 72.9081 73.4813 73.1 73.5083 73.3192C74.0838 77.9989 74.283 82.7139 74.3075 87.4262C74.3293 91.6042 74.203 95.7807 74.1954 99.9584C74.1922 101.748 74.2123 103.538 74.3104 105.325C74.4059 107.066 74.4777 108.921 75.0591 110.579C75.3693 111.464 75.8508 112.293 76.5725 112.905C77.3325 113.549 78.2692 113.94 79.0264 114.584C79.6512 115.115 80.243 115.882 79.9903 116.746C79.7801 117.466 79.1187 117.982 78.4837 118.318C77.6252 118.773 76.7026 118.868 75.7471 118.92C74.555 118.985 73.3582 118.961 72.1698 118.848C71.8806 118.82 71.5919 118.788 71.304 118.749C71.2046 118.736 71.033 118.741 70.9389 118.69C70.8453 118.64 70.8513 118.571 70.8299 118.462C70.743 118.023 70.549 117.662 70.1794 117.396C69.4442 116.867 68.4373 117.052 67.9528 117.823C67.7187 118.195 67.6531 118.626 67.7453 119.054L68.1397 118.536C66.6916 118.446 65.0317 118.731 63.6764 118.093L63.8644 118.338C63.3918 115.768 63.5179 113.139 63.5477 110.54C63.5786 107.853 63.5018 105.161 63.4264 102.475C63.2969 97.8675 63.1334 93.2531 62.8324 88.6534C62.6671 86.1287 62.4416 83.6086 62.1915 81.091C62.14 80.5719 61.3214 80.5666 61.3735 81.0909Z" fill="#332E36"/>
<path d="M82.232 64.6293C80.3972 70.2473 74.6709 74.1868 69.0283 75.2521C67.9352 75.4584 66.8256 75.5667 65.7151 75.631C59.9679 75.9639 53.2924 74.8859 48.9062 70.8264C47.4568 69.4849 46.4103 67.709 45.7782 65.8299C44.3874 61.6957 44.8721 56.9481 47.068 53.1942C48.2285 51.2105 51.1879 48.5298 50.6131 46.0081C50.4776 45.4135 50.2461 44.8284 50.2658 44.2183C50.2891 43.4991 50.6688 42.8265 51.1839 42.3344C51.6989 41.8423 52.3408 41.5107 52.993 41.2354C54.51 40.595 55.8027 40.6556 57.3745 40.4275C59.2397 40.1567 61.1112 39.9194 62.9916 39.792C66.5758 39.5493 70.2301 39.7058 73.6775 40.814C75.7834 41.4908 79.034 43.0526 78.4387 45.8435C78.2993 46.497 77.9573 47.1063 77.9244 47.7742C77.8734 48.8121 78.5639 49.7143 79.1868 50.5369C82.2685 54.6059 83.8747 59.3103 82.3007 64.4129C82.2784 64.4854 82.2555 64.5575 82.232 64.6293Z" fill="#F3F2F3"/>
<path d="M81.8408 64.5194C80.7055 67.9521 78.0953 70.7052 75.0289 72.5318C73.4981 73.4437 71.8437 74.1393 70.119 74.5879C68.1217 75.1074 66.0374 75.2639 63.979 75.2767C60.2746 75.2997 56.4548 74.7368 53.0869 73.13C51.4062 72.3282 49.793 71.2616 48.5422 69.8694C47.1857 68.3595 46.301 66.466 45.8245 64.504C44.8964 60.6825 45.4896 56.2869 47.6862 52.9828C48.6396 51.5487 49.8636 50.2825 50.5885 48.7031C50.9279 47.9634 51.1696 47.1481 51.0795 46.3263C50.9673 45.3022 50.3901 44.3567 50.9204 43.3511C51.4049 42.4322 52.3898 41.9 53.3254 41.5399C54.3076 41.1618 55.3394 41.0599 56.3776 40.9544C57.5268 40.8376 58.6676 40.6467 59.8143 40.5075C60.9893 40.3648 62.1679 40.2483 63.3495 40.1773C65.6181 40.0409 67.9136 40.063 70.1635 40.4109C71.9748 40.6909 73.8302 41.1357 75.4679 41.9838C76.6316 42.5865 77.9921 43.5486 78.0974 44.9819C78.1695 45.9632 77.5657 46.8073 77.5185 47.7731C77.4683 48.7998 78.0603 49.7059 78.6487 50.493C79.8626 52.1171 80.951 53.8257 81.6485 55.7405C82.3258 57.5998 82.6298 59.5705 82.4595 61.546C82.3722 62.5581 82.1519 63.5534 81.8408 64.5194C81.679 65.0217 82.4686 65.2368 82.6296 64.7369C83.2825 62.7095 83.4802 60.5762 83.1812 58.4665C82.8912 56.4196 82.1306 54.459 81.1032 52.6723C80.5726 51.7497 79.9585 50.8904 79.3237 50.038C79.0146 49.623 78.6986 49.1887 78.5059 48.7048C78.3024 48.1939 78.3004 47.7007 78.4547 47.1764C78.6045 46.6674 78.8141 46.1832 78.8862 45.6537C78.9415 45.2475 78.9283 44.8395 78.8365 44.439C78.6694 43.71 78.2327 43.0631 77.7018 42.5475C76.6026 41.4798 75.1185 40.8368 73.6757 40.3823C71.414 39.6697 69.0368 39.3561 66.6712 39.2947C64.2356 39.2314 61.8017 39.4366 59.3873 39.7425C58.2235 39.8899 57.0652 40.0662 55.8979 40.1841C54.8074 40.2943 53.7543 40.4673 52.7409 40.902C51.778 41.3149 50.8414 41.8835 50.29 42.8045C50.025 43.247 49.8639 43.7567 49.8596 44.2743C49.8548 44.849 50.0426 45.3982 50.1813 45.9488C50.6239 47.7058 49.3441 49.3787 48.3549 50.703C47.8393 51.3933 47.2905 52.0652 46.8331 52.7967C46.2932 53.6602 45.8661 54.6046 45.5226 55.562C44.8103 57.5472 44.5017 59.6901 44.6115 61.796C44.722 63.9165 45.2454 66.0242 46.222 67.9143C47.1686 69.7464 48.5538 71.2304 50.2324 72.4142C53.4336 74.6716 57.3745 75.6871 61.2356 75.9957C65.2308 76.3151 69.3861 76.0087 73.1022 74.425C76.5312 72.9637 79.6555 70.4981 81.5203 67.2334C81.9726 66.4414 82.3433 65.6027 82.6296 64.7369C82.7953 64.2359 82.0056 64.0211 81.8408 64.5194Z" fill="#332E36"/>
<path d="M64.301 46.1864C70.9652 46.1864 76.3676 44.6603 76.3676 42.7778C76.3676 40.8952 70.9652 39.3691 64.301 39.3691C57.6368 39.3691 52.2344 40.8952 52.2344 42.7778C52.2344 44.6603 57.6368 46.1864 64.301 46.1864Z" fill="#F3F2F3"/>
<path d="M75.9627 42.7777C75.9603 42.914 75.935 43.0027 75.841 43.1568C75.7532 43.3007 75.6059 43.4542 75.4305 43.5966C74.9914 43.9531 74.4096 44.2171 73.8679 44.4219C72.1065 45.0879 70.2021 45.3956 68.3361 45.5825C65.9528 45.821 63.5411 45.8419 61.1531 45.6598C59.1717 45.5088 57.1644 45.2283 55.2702 44.6075C54.6378 44.4003 54.0104 44.1512 53.4495 43.7882C53.2486 43.6582 53.0804 43.5266 52.9139 43.3472C52.8101 43.2354 52.7085 43.0638 52.6755 42.9569C52.6305 42.8113 52.6355 42.7391 52.6804 42.5817C52.699 42.5166 52.6968 42.5324 52.698 42.5298C52.719 42.4846 52.7432 42.4411 52.7692 42.3986C52.8386 42.2847 52.837 42.2904 52.9287 42.1923C53.2965 41.7988 53.801 41.5382 54.2978 41.3151C55.9081 40.5918 57.7377 40.2767 59.4774 40.0618C61.8386 39.7703 64.2333 39.7105 66.6081 39.8401C68.6658 39.9525 70.741 40.1999 72.7286 40.7618C73.4272 40.9593 74.1233 41.1936 74.7657 41.536C75.1772 41.7555 75.6314 42.0549 75.841 42.3986C75.9385 42.5584 75.9602 42.6372 75.9627 42.7777C75.9718 43.3035 76.7899 43.3052 76.7807 42.7777C76.7595 41.5556 75.3782 40.8749 74.4118 40.4742C72.5806 39.7148 70.5641 39.3939 68.6047 39.1828C66.0423 38.9066 63.4432 38.885 60.8753 39.0997C58.808 39.2725 56.6927 39.5687 54.7306 40.2691C53.703 40.6358 52.173 41.2344 51.8729 42.4314C51.583 43.5875 52.7616 44.4038 53.6511 44.8375C55.3445 45.6629 57.2628 46.0177 59.1153 46.2649C61.6508 46.6032 64.2271 46.6742 66.7797 46.5236C68.9678 46.3945 71.1943 46.1248 73.296 45.4793C74.0223 45.2563 74.7524 44.9854 75.4082 44.5969C75.8725 44.3218 76.35 43.962 76.6024 43.4713C76.7141 43.2541 76.7765 43.0223 76.7807 42.7777C76.7899 42.251 75.9718 42.251 75.9627 42.7777Z" fill="#332E36"/>
<path d="M53.6602 44.382C55.6917 45.4555 59.6976 46.186 64.3081 46.186C68.6269 46.186 72.415 45.5449 74.547 44.5814C72.5154 43.5079 68.5095 42.7773 63.899 42.7773C59.5802 42.7773 55.7921 43.4184 53.6602 44.382Z" fill="#332E36"/>
<path d="M53.4512 44.7352C54.439 45.2513 55.5238 45.5737 56.6062 45.8215C58.0528 46.1527 59.5322 46.3483 61.0105 46.4665C64.2621 46.7262 67.5827 46.6325 70.7985 46.0647C72.1491 45.8263 73.4953 45.4962 74.7509 44.9347C75.0306 44.8096 75.0053 44.3612 74.7509 44.2283C73.7631 43.7122 72.6783 43.3898 71.5959 43.142C70.1493 42.8108 68.6699 42.6152 67.1916 42.4971C63.94 42.2373 60.6194 42.331 57.4035 42.8988C56.053 43.1373 54.7068 43.4673 53.4512 44.0288C52.9714 44.2434 53.387 44.9486 53.8641 44.7352C54.9023 44.2709 56.0292 43.9946 57.1416 43.7768C58.6152 43.4883 60.1122 43.3288 61.6108 43.2476C64.6954 43.0804 67.8511 43.1988 70.8831 43.8233C72.062 44.0661 73.2653 44.3743 74.338 44.9347V44.2283C73.2998 44.6926 72.1729 44.9689 71.0605 45.1867C69.5869 45.4753 68.0899 45.6348 66.5913 45.716C63.5066 45.8831 60.351 45.7648 57.319 45.1403C56.14 44.8974 54.9367 44.5892 53.8641 44.0288C53.3979 43.7853 52.9839 44.4911 53.4512 44.7352Z" fill="#332E36"/>
<path d="M75.9614 42.7778C75.9591 42.9142 75.9337 43.0029 75.8398 43.157C75.7522 43.3006 75.6048 43.4542 75.4293 43.5967C74.9902 43.9533 74.4083 44.2173 73.8666 44.4221C72.1053 45.088 70.2008 45.3961 68.3349 45.5826C65.9515 45.8209 63.5398 45.8424 61.1518 45.66C59.1829 45.5096 57.1895 45.2316 55.3057 44.6197C54.6051 44.3922 53.8978 44.1153 53.2945 43.6844C53.1994 43.6165 53.1129 43.5454 53.021 43.4574C52.9445 43.3842 52.8422 43.2681 52.8212 43.2381C52.788 43.1909 52.7583 43.1419 52.7301 43.0915C52.6809 43.0034 52.7021 43.0425 52.6903 43.0072C52.6754 42.963 52.6631 42.9185 52.6529 42.873C52.6356 42.7964 52.6491 42.8646 52.6516 42.8802C52.6462 42.8467 52.6469 42.8115 52.6463 42.7778C52.6371 42.252 51.819 42.2503 51.8282 42.7778C51.8494 43.9999 53.2307 44.6806 54.1972 45.0813C56.0283 45.8407 58.0448 46.1615 60.0043 46.3727C62.5482 46.6469 65.1286 46.6701 67.6783 46.4604C69.7639 46.2889 71.899 45.9929 73.8784 45.2865C74.9726 44.8959 76.7551 44.1837 76.7795 42.7778C76.7887 42.2512 75.9706 42.2511 75.9614 42.7778Z" fill="#332E36"/>
<path d="M76.9466 29.3975C75.1379 30.815 71.6331 31.3688 70.0559 29.3235C69.3146 28.3622 69.0895 27.0706 69.2582 25.8685C68.6957 26.0987 68.0196 26.0265 67.5184 25.6827C66.4142 24.9255 66.5229 22.8504 66.8119 21.6966C67.1632 20.2946 68.053 19.0189 69.2055 18.1552C71.1863 16.6708 73.7414 16.2086 76.2078 15.9996C78.6743 15.7905 81.192 15.7846 83.5536 15.043C82.6203 16.6106 81.8653 18.2844 81.3079 20.0216C80.7718 21.692 80.418 23.4195 79.8156 25.0671C79.2132 26.7147 78.3274 28.3154 76.9466 29.3975Z" fill="#F3F2F3"/>
<path d="M62.995 45.7479C63.5018 42.4401 63.8551 39.0977 64.6681 35.8452C65.4325 32.7869 66.7187 29.8365 68.5259 27.2475C69.5481 25.7831 70.7617 24.4565 72.1494 23.331C72.5584 22.9992 71.9765 22.4235 71.5709 22.7525C69.0785 24.7742 67.1773 27.443 65.7977 30.3244C65.0929 31.7964 64.504 33.3248 64.0705 34.8986C63.6223 36.526 63.309 38.1881 63.0405 39.8535C62.7361 41.7419 62.4958 43.6398 62.2061 45.5304C62.1724 45.7505 62.2619 45.9676 62.4918 46.0336C62.685 46.0891 62.9616 45.9659 62.995 45.7479Z" fill="#332E36"/>
<path d="M58.611 24.2016C57.7673 24.1627 56.9886 23.711 56.3704 23.1355C55.0937 21.947 54.3992 20.238 54.1251 18.5153C53.851 16.7927 53.9606 15.0348 54.071 13.294C54.2372 10.6732 54.4034 8.0524 54.5695 5.43164C57.8111 7.47081 60.477 10.4146 62.1857 13.842C63.1878 15.8521 64.004 17.9071 63.8628 20.1832C63.8329 20.6645 63.7929 21.1549 63.6076 21.6002C63.1533 22.6924 61.7611 23.2852 60.6589 22.8556C60.7954 22.9088 60.176 23.6673 60.0729 23.7537C59.6833 24.08 59.11 24.2246 58.611 24.2016Z" fill="#F3F2F3"/>
<path d="M56.6658 12.9953C58.9468 16.4801 59.8137 20.6594 60.5362 24.6991C60.9286 26.8937 61.2702 29.0983 61.6066 31.302C61.9482 33.5403 62.2536 35.7861 62.4101 38.0459C62.5839 40.5563 62.5751 43.0908 62.2146 45.5852C62.1827 45.8056 62.2691 46.022 62.5003 46.0884C62.692 46.1435 62.9719 46.021 63.0034 45.8027C63.6618 41.2472 63.2152 36.6583 62.5521 32.1309C62.2228 29.8823 61.8684 27.6356 61.4848 25.3955C61.1158 23.2404 60.7106 21.0831 60.1256 18.9747C59.5036 16.7328 58.6509 14.536 57.3722 12.5824C57.085 12.1437 56.3763 12.5531 56.6658 12.9953Z" fill="#332E36"/>
<path d="M71.3311 8.00557C70.9741 9.8938 69.7899 11.3474 68.3685 12.5693C68.0629 12.832 67.6567 13.0386 67.2667 12.9371C66.4197 12.7168 65.6088 10.8796 65.4625 10.1148C65.2152 8.82131 65.5371 7.44972 66.1576 6.30603C66.9475 4.84993 68.1882 3.69382 69.4696 2.64389C69.5836 2.5505 69.7235 2.45182 69.8655 2.49139C69.9594 2.51759 70.0263 2.59863 70.085 2.67651C71.2161 4.17582 71.6801 6.16018 71.3311 8.00557Z" fill="#F3F2F3"/>
<path d="M67.7779 7.88286C66.4192 12.4857 65.5978 17.2598 64.8385 21.9916C63.9728 27.3868 63.2685 32.8117 62.7415 38.2505C62.5033 40.7093 62.2984 43.1734 62.1919 45.6418C62.1692 46.1682 62.9873 46.1671 63.0099 45.6418C63.216 40.8653 63.7361 36.0974 64.3275 31.3553C64.9978 25.9797 65.8003 20.6124 66.8585 15.2985C67.3399 12.8809 67.8686 10.4657 68.5668 8.10035C68.7162 7.59438 67.9269 7.37823 67.7779 7.88286Z" fill="#332E36"/>
<path d="M45.7586 16.2499C45.4686 17.442 44.7983 18.3131 44.1252 19.3201C42.0063 18.3813 39.6448 16.606 39.7536 14.0564C39.7653 13.7836 39.8225 13.4805 40.0445 13.3213C40.3636 13.0924 40.8031 13.2909 41.141 13.491C41.6965 13.8198 42.252 14.1488 42.8076 14.4776C42.6556 13.4029 43.3626 12.27 44.3948 11.9344C44.5773 11.875 44.7801 11.8393 44.9582 11.9108C45.1108 11.972 45.2235 12.1033 45.3189 12.2373C46.1247 13.3681 46.0867 14.9007 45.7586 16.2499Z" fill="#F3F2F3"/>
<path d="M90.0709 38.289C89.1312 39.0778 88.0752 39.3826 86.9364 39.7953C85.7852 37.7838 84.9341 34.9547 86.5319 32.965C86.7029 32.752 86.9285 32.5418 87.2016 32.545C87.5943 32.5495 87.8309 32.9697 87.9847 33.3311C88.2374 33.9252 88.4902 34.5192 88.743 35.1132C89.2571 34.1573 90.4978 33.6633 91.5283 34.0043C91.7105 34.0645 91.895 34.1559 91.9962 34.3189C92.0829 34.4587 92.0959 34.6312 92.0934 34.7957C92.0728 36.1841 91.1345 37.3964 90.0709 38.289Z" fill="#F3F2F3"/>
<path d="M48.7476 4.70954C48.269 5.83919 47.4668 6.59063 46.64 7.47577C44.7004 6.20724 42.6566 4.07393 43.1756 1.57539C43.2311 1.308 43.3366 1.01818 43.5813 0.896915C43.9332 0.72251 44.3348 0.989313 44.6361 1.24134C45.1312 1.65562 45.6263 2.06988 46.1214 2.48415C46.1449 1.39896 47.0256 0.395113 48.0985 0.23048C48.2882 0.201366 48.4941 0.198859 48.6583 0.298175C48.7991 0.383289 48.889 0.531067 48.9616 0.678687C49.5742 1.92479 49.2893 3.43101 48.7476 4.70954Z" fill="#332E36"/>
<path d="M45.1202 105.663C44.1018 105.102 43.2125 104.342 42.225 103.732C42.0442 103.621 41.7651 103.686 41.6654 103.879C40.8181 105.521 39.8177 107.551 37.9529 108.215C36.2949 108.805 33.887 108.517 32.9153 110.336C32.2469 111.586 32.9025 113.024 33.7681 113.99C34.2763 114.557 34.8932 114.981 35.5669 115.327C36.5957 115.856 37.664 116.313 38.7568 116.693C39.3778 116.909 40.0081 117.102 40.6456 117.263C40.9429 117.338 41.2597 117.408 41.5433 117.247C41.7901 117.108 41.8821 116.874 42.0525 116.665C42.2884 116.376 42.7793 116.295 43.0869 116.513C43.4485 116.77 43.4634 117.284 43.2281 117.624C43.0686 117.855 43.2412 118.146 43.4725 118.225C44.3908 118.539 45.2662 118.967 46.1922 119.259C46.6566 119.406 47.1349 119.518 47.6217 119.555C47.8224 119.57 48.1128 119.61 48.2948 119.503C48.4961 119.386 48.6171 119.084 48.7345 118.89C49.8438 117.059 50.6281 115.055 51.4104 113.069C51.8643 111.918 52.3358 110.775 52.8233 109.637C52.9033 109.451 52.8964 109.178 52.6766 109.078C51.4326 108.508 50.1359 108.054 48.8839 107.501C47.6065 106.936 46.3495 106.326 45.1202 105.663C44.6569 105.413 44.2434 106.119 44.7074 106.369C45.9367 107.032 47.1936 107.642 48.471 108.207C49.7227 108.761 51.0202 109.215 52.2637 109.784L52.1169 109.224C51.4101 110.874 50.7564 112.543 50.083 114.206C49.4209 115.842 48.6944 117.458 47.7352 118.944L48.0884 118.741C46.5472 118.815 45.1054 117.92 43.69 117.436L43.9345 118.037C44.4287 117.323 44.222 116.251 43.4766 115.792C43.1133 115.568 42.6473 115.523 42.2386 115.63C42.0336 115.684 41.8397 115.781 41.6721 115.91C41.4745 116.061 41.3831 116.261 41.2238 116.441C41.1344 116.542 41.114 116.531 40.9756 116.503C40.8434 116.476 40.7128 116.435 40.5825 116.4C40.2837 116.319 39.9864 116.233 39.6909 116.14C39.1369 115.967 38.5892 115.774 38.0492 115.561C37.0942 115.184 36.0854 114.773 35.2322 114.194C34.3104 113.569 33.2251 112.328 33.4894 111.115C33.6322 110.46 34.2013 110.041 34.7882 109.791C35.8119 109.355 36.9582 109.39 38.0107 109.058C40.2078 108.363 41.3826 106.209 42.3719 104.292L41.8122 104.439C42.7997 105.049 43.689 105.808 44.7074 106.369C45.1688 106.623 45.582 105.917 45.1202 105.663Z" fill="#332E36"/>
<path d="M79.6794 114.074C78.5483 113.091 77.0433 112.614 76.2578 111.264C75.5264 110.007 75.3774 108.481 75.2514 107.061C75.2309 106.829 75.0012 106.555 74.7337 106.666C72.9554 107.409 70.9061 107.593 68.9959 107.634C67.0857 107.676 65.0965 107.594 63.2277 107.181C62.9735 107.125 62.706 107.299 62.7099 107.576C62.7418 109.851 62.6591 112.126 62.6983 114.4C62.7176 115.516 62.7839 116.63 62.939 117.736C62.9756 117.997 62.9847 118.308 63.0726 118.557C63.161 118.807 63.4173 118.88 63.6449 118.964C64.0647 119.121 64.5087 119.195 64.9522 119.247C66.0097 119.37 67.0763 119.289 68.1368 119.355C68.4166 119.373 68.5837 119.081 68.5312 118.838C68.4315 118.375 68.8222 117.845 69.3189 117.906C69.5336 117.932 69.7447 118.054 69.8769 118.225C70.0472 118.446 70.0176 118.739 70.1263 118.986C70.4037 119.618 71.28 119.573 71.8597 119.636C72.6168 119.718 73.3778 119.764 74.1394 119.773C75.4653 119.79 76.9288 119.813 78.1882 119.34C79.1461 118.981 80.1315 118.355 80.599 117.409C81.2118 116.169 80.6347 114.943 79.6794 114.074C79.2907 113.72 78.7105 114.297 79.1009 114.652C79.8858 115.367 80.3844 116.324 79.7187 117.292C79.1434 118.128 78.0827 118.608 77.1145 118.793C76.4477 118.921 75.7426 118.931 75.0655 118.949C74.3042 118.969 73.542 118.952 72.7822 118.9C72.4332 118.875 72.0846 118.844 71.7369 118.804C71.5483 118.783 71.3598 118.76 71.172 118.732C71.0235 118.711 70.913 118.724 70.8544 118.595C70.7503 118.366 70.765 118.11 70.6284 117.882C70.4803 117.634 70.2554 117.421 70.001 117.284C68.793 116.635 67.4632 117.759 67.7424 119.055L68.1368 118.537C66.6887 118.447 65.0288 118.732 63.6735 118.095L63.8615 118.339C63.5349 116.563 63.4978 114.751 63.5118 112.95C63.5258 111.158 63.5531 109.368 63.528 107.576L63.0103 107.97C64.9506 108.399 67.0131 108.495 68.9959 108.452C70.0042 108.43 71.0097 108.347 72.0072 108.197C73.0097 108.047 74.0132 107.847 74.9512 107.455L74.4334 107.061C74.5699 108.6 74.7395 110.22 75.5045 111.594C75.8861 112.28 76.4192 112.831 77.0574 113.281C77.7278 113.755 78.4787 114.112 79.1009 114.652C79.4967 114.996 80.0777 114.42 79.6794 114.074Z" fill="#332E36"/>
<path d="M66.1953 81.0891V83.2339C66.1953 83.4478 66.3834 83.6528 66.6044 83.6429C66.826 83.633 67.0134 83.4632 67.0134 83.2339V81.0891C67.0134 80.8751 66.8253 80.6701 66.6044 80.68C66.3827 80.69 66.1953 80.8597 66.1953 81.0891Z" fill="#332E36"/>
<path d="M66.4062 90.3098V92.8835C66.4062 93.0975 66.5944 93.3025 66.8153 93.2926C67.0369 93.2827 67.2243 93.1129 67.2243 92.8835V90.3098C67.2243 90.0958 67.0362 89.8908 66.8153 89.9007C66.5937 89.9107 66.4062 90.0805 66.4062 90.3098Z" fill="#332E36"/>
<path d="M67.0465 101.577C67.1188 101.934 67.1912 102.291 67.2635 102.649C67.283 102.745 67.3687 102.845 67.4515 102.893C67.5391 102.944 67.6684 102.966 67.7667 102.934C67.8657 102.902 67.9611 102.841 68.0111 102.746C68.0645 102.645 68.0751 102.544 68.0524 102.431C67.98 102.074 67.9077 101.716 67.8353 101.359C67.8158 101.263 67.7301 101.163 67.6473 101.115C67.5597 101.063 67.4305 101.042 67.3322 101.073C67.2332 101.105 67.1377 101.167 67.0877 101.261C67.0343 101.363 67.0237 101.464 67.0465 101.577Z" fill="#332E36"/>
<path d="M71.3398 94.1727V96.961C71.3398 97.182 71.5278 97.37 71.7489 97.37C71.9707 97.37 72.1579 97.1828 72.1579 96.961V94.1727C72.1579 93.9517 71.9699 93.7637 71.7489 93.7637C71.527 93.7637 71.3398 93.9509 71.3398 94.1727Z" fill="#332E36"/>
<path d="M69.4281 83.5562C69.5718 84.271 69.7155 84.9858 69.8592 85.7006C69.9014 85.9107 70.1624 86.0509 70.3623 85.9862C70.5854 85.9141 70.6933 85.7082 70.6481 85.4831C70.5044 84.7683 70.3607 84.0535 70.217 83.3387C70.1747 83.1286 69.9138 82.9883 69.7138 83.053C69.4907 83.1252 69.3829 83.331 69.4281 83.5562Z" fill="#332E36"/>
<path d="M70.4844 78.0851V78.7285C70.4844 78.8334 70.53 78.9436 70.6042 79.0178C70.6751 79.0887 70.7915 79.1422 70.8934 79.1376C70.9992 79.1328 71.1089 79.0981 71.1826 79.0178C71.2561 78.9378 71.3024 78.8394 71.3024 78.7285V78.0851C71.3024 77.9802 71.2568 77.87 71.1826 77.7959C71.1117 77.7249 70.9953 77.6715 70.8934 77.6761C70.7876 77.6808 70.6779 77.7156 70.6042 77.7959C70.5307 77.8759 70.4844 77.9742 70.4844 78.0851Z" fill="#332E36"/>
<path d="M56.5356 79.2581C56.1075 80.3309 55.6795 81.4036 55.2514 82.4764C55.1695 82.6816 55.3409 82.9257 55.5371 82.9796C55.7701 83.0436 55.9581 82.8999 56.0403 82.6939C56.4683 81.6211 56.8964 80.5483 57.3244 79.4756C57.4063 79.2703 57.2349 79.0263 57.0387 78.9724C56.8058 78.9084 56.6178 79.0521 56.5356 79.2581Z" fill="#332E36"/>
<path d="M52.05 87.4126C51.6129 88.6968 51.1758 89.9809 50.7387 91.265C50.5686 91.7645 51.3585 91.9789 51.5275 91.4825C51.9646 90.1983 52.4017 88.9142 52.8388 87.6301C53.0088 87.1306 52.219 86.9162 52.05 87.4126Z" fill="#332E36"/>
<path d="M48.8757 96.323C48.3753 97.3239 47.8748 98.3248 47.3744 99.3257C47.2756 99.5232 47.3218 99.7688 47.5211 99.8853C47.7024 99.9914 47.9816 99.937 48.0808 99.7386C48.5812 98.7377 49.0817 97.7368 49.5821 96.7359C49.6809 96.5384 49.6347 96.2928 49.4354 96.1762C49.2541 96.0702 48.9749 96.1246 48.8757 96.323Z" fill="#332E36"/>
<path d="M51.2991 102.528C51.5136 102.099 51.7281 101.67 51.9426 101.241C52.0382 101.05 51.9998 100.79 51.7958 100.682C51.6105 100.584 51.3384 100.624 51.2362 100.829C51.0217 101.257 50.8072 101.686 50.5928 102.115C50.4972 102.307 50.5356 102.567 50.7395 102.675C50.9249 102.773 51.197 102.733 51.2991 102.528Z" fill="#332E36"/>
<path d="M55.1597 93.305C55.5887 92.7331 56.0177 92.1611 56.4466 91.5892C56.5061 91.5098 56.5129 91.3649 56.4879 91.274C56.4618 91.1791 56.3884 91.0763 56.2999 91.0295C56.205 90.9794 56.09 90.9542 55.9847 90.9883C55.877 91.0231 55.8077 91.0863 55.7403 91.1763C55.3113 91.7482 54.8823 92.3202 54.4534 92.8921C54.3939 92.9714 54.3871 93.1164 54.4121 93.2073C54.4383 93.3022 54.5116 93.405 54.6001 93.4518C54.695 93.5019 54.81 93.527 54.9153 93.493C55.023 93.4581 55.0923 93.395 55.1597 93.305Z" fill="#332E36"/>
<path d="M59.0152 86.658C59.2297 86.3721 59.4442 86.0861 59.6587 85.8001C59.7182 85.7208 59.7249 85.5758 59.6999 85.4849C59.6738 85.39 59.6004 85.2872 59.5119 85.2405C59.417 85.1903 59.302 85.1652 59.1967 85.1992L59.099 85.2405C59.0376 85.2768 58.9887 85.3257 58.9523 85.3872L58.3088 86.2451C58.2494 86.3244 58.2426 86.4694 58.2676 86.5603C58.2937 86.6552 58.3671 86.758 58.4556 86.8048C58.5505 86.8549 58.6655 86.8801 58.7708 86.846L58.8685 86.8048C58.93 86.7684 58.9789 86.7195 59.0152 86.658Z" fill="#332E36"/>
<path d="M60.7133 78.7093C60.9273 78.6364 61.1413 78.5635 61.3553 78.4906C61.4565 78.4561 61.5447 78.3968 61.5998 78.3026C61.6511 78.2149 61.6728 78.0857 61.641 77.9874C61.609 77.8884 61.5477 77.793 61.4531 77.743C61.359 77.6933 61.242 77.6662 61.1379 77.7017C60.9239 77.7746 60.7099 77.8475 60.4959 77.9204C60.3947 77.9549 60.3065 78.0142 60.2514 78.1084C60.2001 78.1961 60.1784 78.3253 60.2102 78.4236C60.2422 78.5226 60.3035 78.618 60.3982 78.668C60.4922 78.7177 60.6092 78.7448 60.7133 78.7093Z" fill="#332E36"/>
<path d="M72.3654 104.572C72.3602 104.542 72.3555 104.513 72.3513 104.484L72.3659 104.593C72.3425 104.416 72.3428 104.239 72.3657 104.062L72.3511 104.171C72.376 103.994 72.4228 103.823 72.492 103.659L72.4507 103.757C72.4743 103.703 72.5 103.65 72.528 103.597C72.6289 103.409 72.5815 103.143 72.3813 103.038C72.1913 102.937 71.9295 102.983 71.8216 103.184C71.5557 103.681 71.4772 104.237 71.5766 104.789C71.5938 104.885 71.6837 104.986 71.7646 105.033C71.8523 105.085 71.9815 105.106 72.0798 105.075C72.1788 105.043 72.2742 104.981 72.3242 104.887C72.3782 104.784 72.3859 104.685 72.3654 104.572Z" fill="#332E36"/>
<path d="M52.8164 79.0271C55.0954 77.5146 57.9298 77.0789 60.665 77.0788C63.4001 77.0786 66.1247 77.4744 68.8598 77.4564C70.0405 77.4487 71.2633 77.3519 72.3012 76.7891C73.3392 76.2263 74.1456 75.0878 73.9861 73.918C73.2156 74.7486 72.0196 74.9972 70.9038 75.1937C65.5842 76.1305 59.9349 76.8348 54.9216 74.8242C54.3425 75.9686 53.7633 77.113 53.1841 78.2573" fill="#332E36"/>
<path d="M53.0186 79.3801C55.6389 77.6627 58.8516 77.3987 61.9033 77.512C63.6434 77.5767 65.3769 77.7517 67.1163 77.8287C68.688 77.8982 70.4115 77.9951 71.9065 77.4145C73.3146 76.8677 74.5757 75.527 74.3909 73.9178C74.353 73.588 73.9602 73.3502 73.6926 73.6286C72.9112 74.4416 71.7423 74.6323 70.6792 74.8188C69.4023 75.0428 68.1218 75.251 66.8347 75.4083C64.3076 75.717 61.7273 75.8543 59.1959 75.5116C57.7684 75.3184 56.3654 74.9612 55.0262 74.4296C54.8685 74.367 54.6391 74.4696 54.5642 74.6176C53.9851 75.762 53.4059 76.9064 52.8267 78.0507C52.5895 78.5194 53.2951 78.934 53.5331 78.4636C54.1123 77.3193 54.6914 76.1749 55.2706 75.0305L54.8087 75.2185C59.8648 77.2254 65.4555 76.5523 70.6731 75.6466C71.9549 75.4241 73.3287 75.1876 74.2711 74.2071L73.5728 73.9178C73.7311 75.2954 72.5996 76.348 71.3787 76.7352C69.873 77.2126 68.1732 77.0698 66.6197 76.9861C63.4597 76.8157 60.2838 76.4046 57.1375 76.9561C55.5353 77.2369 53.9712 77.7787 52.6057 78.6737C52.1672 78.9612 52.5766 79.6699 53.0186 79.3801Z" fill="#332E36"/>
<path d="M80.852 107.365C80.3409 106.787 79.7799 106.168 79.5931 105.397C79.4496 104.805 79.5742 104.023 80.1705 103.724C80.778 103.418 81.5421 103.711 82.0026 104.149C82.5762 104.694 82.8939 105.448 83.2041 106.161C83.3567 106.512 83.8495 106.36 83.9518 106.063C84.2408 105.225 84.845 104.094 85.8531 104.02C86.4631 103.975 87.411 104.88 86.8407 105.447C86.5627 105.723 86.8426 106.268 87.2387 106.131C88.0455 105.852 88.5068 105.174 89.0087 104.529C89.4093 104.014 89.9937 103.374 90.7092 103.729C91.4482 104.095 91.7464 105.118 91.7618 105.877C91.7858 107.063 91.4378 108.218 90.8002 109.215C90.5156 109.66 91.2234 110.07 91.5066 109.628C92.4978 108.079 93.0231 105.862 92.1534 104.146C91.8117 103.471 91.2104 102.884 90.4265 102.817C89.6793 102.753 89.0568 103.198 88.5978 103.743C88.1396 104.287 87.7337 105.095 87.0212 105.342L87.4191 106.025C88.4248 105.026 87.3761 103.424 86.1819 103.226C84.6335 102.969 83.592 104.601 83.1629 105.846L83.9105 105.748C83.5147 104.839 83.075 103.888 82.245 103.292C81.5234 102.775 80.4711 102.579 79.6807 103.061C78.8988 103.537 78.6294 104.493 78.7568 105.359C78.9071 106.381 79.6137 107.197 80.2735 107.944C80.6228 108.339 81.1996 107.759 80.852 107.365Z" fill="#332E36"/>
<path d="M53.4288 55.7755C53.9513 56.5997 54.8091 57.2185 55.7787 57.3871C56.8274 57.5694 57.8714 57.2756 58.6925 56.6057C58.8638 56.4659 58.8376 56.1723 58.6925 56.0272C58.5231 55.8578 58.2857 55.8871 58.114 56.0272C56.8717 57.0409 54.9855 56.7037 54.1352 55.3626C53.854 54.9192 53.1458 55.3292 53.4288 55.7755Z" fill="#332E36"/>
<path d="M63.7999 56.7865C64.5817 57.7858 65.9633 57.8702 67.1065 57.5923C68.273 57.3087 69.4455 56.8264 69.9541 55.6573C70.0429 55.4533 70.0126 55.2206 69.8074 55.0977C69.6352 54.9945 69.3357 55.0422 69.2478 55.2444C69.0748 55.6419 68.8145 55.9908 68.4444 56.2247C68.0107 56.4988 67.4797 56.6506 66.987 56.7787C66.0749 57.0159 65.0093 57.0145 64.3784 56.208C64.2412 56.0326 63.9442 56.0668 63.7999 56.208C63.6263 56.3779 63.6645 56.6135 63.7999 56.7865Z" fill="#332E36"/>
<path d="M54.2631 52.1904C55.5968 52.395 57.1477 52.3762 58.1093 51.273C58.2544 51.1066 58.273 50.8583 58.1093 50.6946C57.9611 50.5464 57.6766 50.5273 57.5308 50.6946C56.7725 51.5646 55.5342 51.5631 54.4806 51.4015C54.2625 51.368 54.0408 51.4567 53.9774 51.6872C53.9242 51.8809 54.0434 52.1567 54.2631 52.1904Z" fill="#332E36"/>
<path d="M68.8202 51.2139C68.4321 51.5875 67.822 51.3871 67.3898 51.2129C66.7598 50.9591 66.1411 50.673 65.5181 50.4025C65.3156 50.3146 65.0793 50.3427 64.9585 50.5492C64.8573 50.7222 64.9015 51.0204 65.1052 51.1088C65.8518 51.433 66.5938 51.8011 67.361 52.0737C68.0451 52.3169 68.8458 52.3246 69.3987 51.7923C69.7786 51.4265 69.1997 50.8485 68.8202 51.2139Z" fill="#332E36"/>
<path d="M59.5485 52.2149C59.4606 54.5854 59.4389 56.9577 59.4833 59.3294C59.4931 59.8552 60.3112 59.8569 60.3013 59.3294C60.257 56.9577 60.2787 54.5854 60.3665 52.2149C60.3861 51.6884 59.5679 51.6892 59.5485 52.2149Z" fill="#332E36"/>
<path d="M59.8441 62.6482C61.3131 63.2555 63.0804 62.5388 63.7075 61.0786C63.7946 60.8758 63.7679 60.6401 63.5608 60.5189C63.3884 60.4181 63.0888 60.4616 63.0011 60.6657C62.774 61.1946 62.3948 61.6074 61.8749 61.8565C61.3146 62.1249 60.6388 62.0979 60.0616 61.8593C59.8574 61.7749 59.6119 61.9507 59.5585 62.145C59.4939 62.3801 59.6391 62.5635 59.8441 62.6482Z" fill="#332E36"/>
<path d="M62.792 60.3995L63.4288 60.9845C63.5081 61.0574 63.6085 61.1043 63.718 61.1043C63.8184 61.1043 63.9382 61.0597 64.0073 60.9845C64.0789 60.9065 64.132 60.8042 64.1271 60.6952C64.1223 60.5894 64.0876 60.4798 64.0073 60.406L63.3705 59.821C63.2911 59.7481 63.1907 59.7012 63.0812 59.7012C62.9809 59.7012 62.8611 59.7457 62.792 59.821C62.7204 59.8989 62.6673 60.0013 62.6722 60.1102C62.6769 60.216 62.7117 60.3257 62.792 60.3995Z" fill="#332E36"/>
</svg>
