<svg width="24" height="24" viewBox="0 0 24 24" fill="none" xmlns="http://www.w3.org/2000/svg">
<g clip-path="url(#clip0_1259_14961)">
<path d="M18.5745 18.2672C18.6665 18.3766 18.7253 18.5099 18.7441 18.6516C18.7629 18.7933 18.7407 18.9374 18.6804 19.0669C18.62 19.1964 18.5238 19.306 18.4033 19.3827C18.2827 19.4595 18.1427 19.5002 17.9998 19.5H2.24982C2.10699 19.5 1.96714 19.4592 1.84672 19.3824C1.72629 19.3056 1.6303 19.196 1.57003 19.0665C1.50977 18.937 1.48773 18.793 1.50652 18.6514C1.5253 18.5098 1.58413 18.3765 1.67607 18.2672C3.0767 16.6003 4.81857 15.4163 6.75451 14.7825C5.5788 14.0502 4.67356 12.955 4.17576 11.6624C3.67796 10.3698 3.61468 8.95031 3.99549 7.61858C4.37631 6.28684 5.18049 5.11537 6.28639 4.28138C7.39228 3.44739 8.73971 2.99628 10.1248 2.99628C11.5099 2.99628 12.8574 3.44739 13.9633 4.28138C15.0692 5.11537 15.8733 6.28684 16.2542 7.61858C16.635 8.95031 16.5717 10.3698 16.0739 11.6624C15.5761 12.955 14.6709 14.0502 13.4951 14.7825C15.4311 15.4163 17.1729 16.6003 18.5745 18.2672ZM23.9229 14.4375C23.857 14.5517 23.7622 14.6465 23.648 14.7123C23.5337 14.7782 23.4042 14.8127 23.2723 14.8125C23.1406 14.8129 23.0112 14.7783 22.8973 14.7122L22.4595 14.4591C22.25 14.6388 22.0091 14.7784 21.7489 14.8707V15.375C21.7489 15.5739 21.6699 15.7647 21.5292 15.9054C21.3886 16.046 21.1978 16.125 20.9989 16.125C20.8 16.125 20.6092 16.046 20.4686 15.9054C20.3279 15.7647 20.2489 15.5739 20.2489 15.375V14.8707C19.9887 14.7784 19.7478 14.6388 19.5383 14.4591L19.1004 14.7122C18.9866 14.7783 18.8571 14.8129 18.7254 14.8125C18.5603 14.8126 18.3997 14.7581 18.2687 14.6576C18.1376 14.5571 18.0434 14.4161 18.0007 14.2566C17.958 14.0971 17.9691 13.9279 18.0323 13.7753C18.0956 13.6228 18.2074 13.4954 18.3504 13.4128L18.7873 13.1607C18.7361 12.8893 18.7361 12.6108 18.7873 12.3394L18.3504 12.0872C18.2651 12.038 18.1903 11.9724 18.1304 11.8943C18.0704 11.8161 18.0264 11.7269 18.0009 11.6318C17.9754 11.5366 17.9689 11.4374 17.9817 11.3397C17.9946 11.242 18.0265 11.1478 18.0758 11.0625C18.125 10.9772 18.1906 10.9024 18.2687 10.8424C18.3469 10.7825 18.4361 10.7385 18.5312 10.713C18.6264 10.6875 18.7256 10.6809 18.8233 10.6938C18.9209 10.7066 19.0151 10.7386 19.1004 10.7878L19.5383 11.041C19.7478 10.8612 19.9887 10.7217 20.2489 10.6294V10.125C20.2489 9.92611 20.3279 9.73535 20.4686 9.5947C20.6092 9.45404 20.8 9.37503 20.9989 9.37503C21.1978 9.37503 21.3886 9.45404 21.5292 9.5947C21.6699 9.73535 21.7489 9.92611 21.7489 10.125V10.6294C22.0091 10.7217 22.25 10.8612 22.4595 11.041L22.8973 10.7878C22.9826 10.7386 23.0768 10.7066 23.1745 10.6938C23.2722 10.6809 23.3714 10.6875 23.4666 10.713C23.5617 10.7385 23.6509 10.7825 23.7291 10.8424C23.8072 10.9024 23.8728 10.9772 23.922 11.0625C23.9713 11.1478 24.0032 11.242 24.0161 11.3397C24.0289 11.4374 24.0224 11.5366 23.9969 11.6318C23.9714 11.7269 23.9274 11.8161 23.8674 11.8943C23.8074 11.9724 23.7326 12.038 23.6473 12.0872L23.2104 12.3394C23.2617 12.6108 23.2617 12.8893 23.2104 13.1607L23.6473 13.4128C23.7327 13.462 23.8076 13.5275 23.8677 13.6056C23.9278 13.6837 23.9719 13.7729 23.9975 13.8681C24.0231 13.9632 24.0297 14.0625 24.0169 14.1602C24.0041 14.2579 23.9722 14.3522 23.9229 14.4375ZM20.9998 13.5C21.1482 13.5 21.2932 13.456 21.4165 13.3736C21.5398 13.2912 21.636 13.1741 21.6927 13.037C21.7495 12.9 21.7644 12.7492 21.7354 12.6037C21.7065 12.4582 21.635 12.3246 21.5302 12.2197C21.4253 12.1148 21.2916 12.0434 21.1461 12.0144C21.0007 11.9855 20.8499 12.0004 20.7128 12.0571C20.5758 12.1139 20.4586 12.21 20.3762 12.3333C20.2938 12.4567 20.2498 12.6017 20.2498 12.75C20.2498 12.9489 20.3288 13.1397 20.4695 13.2804C20.6101 13.421 20.8009 13.5 20.9998 13.5Z" fill="#FFFFFD"/>
</g>
<defs>
<clipPath id="clip0_1259_14961">
<rect width="24" height="24" fill="white"/>
</clipPath>
</defs>
</svg>
