<svg width="24" height="24" viewBox="0 0 24 24" fill="none" xmlns="http://www.w3.org/2000/svg">
<path d="M18.8938 5.10572C17.5303 3.74216 15.793 2.81356 13.9017 2.43735C12.0103 2.06115 10.0499 2.25423 8.26836 2.99219C6.48678 3.73014 4.96404 4.97982 3.8927 6.5832C2.82135 8.18658 2.24953 10.0716 2.24953 12C2.24953 13.9284 2.82135 15.8134 3.8927 17.4168C4.96404 19.0202 6.48678 20.2699 8.26836 21.0078C10.0499 21.7458 12.0103 21.9389 13.9017 21.5627C15.793 21.1865 17.5303 20.2579 18.8938 18.8943C20.7198 17.0645 21.7453 14.585 21.7453 12C21.7453 9.41499 20.7198 6.93554 18.8938 5.10572ZM12.7499 16.2427C12.7499 16.3412 12.7305 16.4388 12.6928 16.5298C12.6551 16.6209 12.5998 16.7036 12.5302 16.7733C12.4605 16.843 12.3777 16.8982 12.2867 16.9359C12.1957 16.9737 12.0981 16.9931 11.9995 16.9931C11.901 16.9931 11.8034 16.9737 11.7124 16.9359C11.6213 16.8982 11.5386 16.843 11.4689 16.7733C11.3992 16.7036 11.3439 16.6209 11.3062 16.5298C11.2685 16.4388 11.2491 16.3412 11.2491 16.2427L11.2498 12.7498L7.75688 12.7504C7.65834 12.7504 7.56076 12.731 7.46971 12.6933C7.37867 12.6556 7.29594 12.6003 7.22626 12.5306C7.15658 12.461 7.1013 12.3782 7.06359 12.2872C7.02588 12.1961 7.00647 12.0986 7.00647 12C7.00647 11.9015 7.02588 11.8039 7.06359 11.7128C7.1013 11.6218 7.15658 11.5391 7.22626 11.4694C7.29594 11.3997 7.37867 11.3444 7.46971 11.3067C7.56076 11.269 7.65834 11.2496 7.75688 11.2496L11.2498 11.2503L11.2491 7.75737C11.2491 7.55835 11.3282 7.36748 11.4689 7.22674C11.6096 7.08601 11.8005 7.00695 11.9995 7.00695C12.1985 7.00695 12.3894 7.08601 12.5302 7.22675C12.6709 7.36748 12.7499 7.55835 12.7499 7.75737L12.7493 11.2503L16.2422 11.2496C16.3407 11.2496 16.4383 11.269 16.5293 11.3067C16.6204 11.3444 16.7031 11.3997 16.7728 11.4694C16.8425 11.5391 16.8977 11.6218 16.9355 11.7128C16.9732 11.8039 16.9926 11.9015 16.9926 12C16.9926 12.0986 16.9732 12.1961 16.9355 12.2872C16.8977 12.3782 16.8425 12.461 16.7728 12.5306C16.7031 12.6003 16.6204 12.6556 16.5293 12.6933C16.4383 12.731 16.3407 12.7504 16.2422 12.7504L12.7493 12.7498L12.7499 16.2427Z" fill="#FFFFFD"/>
</svg>
