<svg width="65" height="64" viewBox="0 0 65 64" fill="none" xmlns="http://www.w3.org/2000/svg">
<path d="M42.9855 49.5563C43.0631 51.3566 42.7526 53.0071 41.7416 54.5015C41.4526 54.9286 41.1786 55.3847 41.0964 55.8938C41.0142 56.403 41.1632 56.9796 41.5828 57.2794C42.0018 57.5788 42.5701 57.5386 43.0752 57.4381C44.6863 57.1174 46.265 56.2306 47.0269 54.7753C47.4351 55.2504 47.5167 55.5704 48.1031 55.2501C48.6443 54.9545 49.1549 54.5613 49.6514 54.1972C49.8077 54.0826 49.974 53.9491 50.0121 53.7591C50.04 53.6203 49.9929 53.4787 49.9465 53.345C49.4677 51.9653 48.1148 49.0252 47.636 47.6455" fill="#662D91"/>
<path d="M33.6936 52.5473C33.0812 54.242 32.1668 55.6506 30.6638 56.6487C30.2341 56.934 29.8074 57.2518 29.5379 57.6915C29.2683 58.1312 29.1871 58.7211 29.4612 59.158C29.735 59.5942 30.2759 59.7729 30.7813 59.8719C32.3934 60.1875 34.1907 59.9671 35.4485 58.9106C35.6455 59.5051 35.5994 59.8322 36.2635 59.7587C36.8765 59.691 37.4982 59.5213 38.0958 59.3732C38.2839 59.3266 38.4884 59.2663 38.596 59.105C38.6744 58.9873 38.6848 58.8384 38.6926 58.6971C38.774 57.2389 38.64 54.0053 38.7214 52.5471" fill="#662D91"/>
<path d="M42.7758 49.5565C42.8189 50.6136 42.7324 51.6758 42.4022 52.6858C42.2408 53.1792 42.0227 53.6511 41.7535 54.0949C41.47 54.5624 41.1388 54.994 40.9707 55.5222C40.6769 56.4454 41.0524 57.5454 42.105 57.6981C42.5999 57.7699 43.1099 57.6619 43.5872 57.5341C44.0427 57.4121 44.4871 57.2445 44.9092 57.0342C45.8641 56.5586 46.7034 55.8304 47.2079 54.8813L46.8787 54.9238C47.0714 55.1511 47.2562 55.4928 47.5679 55.5712C47.9354 55.6637 48.3198 55.3781 48.6093 55.1933C49.0046 54.9409 49.3816 54.6589 49.7572 54.3784C49.9132 54.2619 50.0707 54.1415 50.1604 53.9634C50.271 53.744 50.2245 53.5117 50.1486 53.2895C49.7142 52.0176 49.1382 50.79 48.618 49.5519C48.3456 48.9036 48.0698 48.2543 47.8381 47.5901C47.7498 47.3369 47.3447 47.4458 47.4339 47.7015C47.8398 48.8654 48.3538 49.9934 48.8334 51.1281C49.0734 51.696 49.313 52.2645 49.5361 52.8394C49.5806 52.954 49.6244 53.0689 49.6668 53.1843C49.7185 53.325 49.8031 53.4907 49.8098 53.64C49.8181 53.8237 49.6537 53.9367 49.5207 54.0347C49.3451 54.1643 49.1698 54.2946 48.993 54.4225C48.7895 54.5697 48.5837 54.7139 48.3714 54.8481C48.1976 54.958 48.0114 55.0917 47.8127 55.1514C47.6857 55.1896 47.6186 55.1531 47.5308 55.0608C47.4023 54.9257 47.2956 54.7695 47.1751 54.6273C47.0892 54.526 46.9057 54.5574 46.8459 54.6698C46.4311 55.45 45.7815 56.0617 45.0194 56.4998C44.6339 56.7215 44.2254 56.8985 43.802 57.034C43.3737 57.171 42.9155 57.2945 42.4635 57.3024C42.019 57.3101 41.6042 57.159 41.4038 56.7379C41.2119 56.3347 41.2736 55.868 41.4346 55.4667C41.6246 54.993 41.9532 54.5942 42.2052 54.1545C42.4466 53.733 42.6449 53.2853 42.7975 52.8241C43.1452 51.7738 43.2399 50.6571 43.195 49.5566C43.1841 49.2877 42.7648 49.2863 42.7758 49.5565Z" fill="#3B1954"/>
<path d="M33.4997 52.4676C33.1378 53.4618 32.6541 54.4114 31.9648 55.2201C31.6281 55.6152 31.247 55.9688 30.8294 56.277C30.3895 56.6017 29.919 56.8751 29.5629 57.2997C28.9402 58.042 28.8696 59.2022 29.7852 59.7435C30.2156 59.9979 30.7284 60.0919 31.2186 60.155C31.6862 60.2153 32.161 60.2291 32.6313 60.1951C33.6953 60.118 34.7483 59.7634 35.5757 59.0772L35.2551 58.9914C35.3469 59.2749 35.388 59.6612 35.6465 59.8522C35.9513 60.0774 36.4154 59.9592 36.7534 59.8983C37.215 59.8151 37.6708 59.6975 38.1248 59.5809C38.3134 59.5324 38.5048 59.4808 38.6555 59.3502C38.8412 59.1893 38.8865 58.9568 38.9007 58.7224C38.9822 57.3808 38.9159 56.0264 38.9053 54.6835C38.8997 53.9803 38.8913 53.275 38.9294 52.5725C38.944 52.3048 38.5279 52.2515 38.5132 52.5219C38.4463 53.7528 38.4931 54.9915 38.5055 56.2233C38.5118 56.8399 38.5173 57.4567 38.5052 58.0732C38.5028 58.1962 38.4997 58.3191 38.495 58.442C38.4894 58.5918 38.5046 58.7772 38.4541 58.9178C38.3919 59.0909 38.197 59.1329 38.0367 59.1731C37.825 59.2262 37.6134 59.2801 37.4012 59.3312C37.1571 59.39 36.9119 59.4451 36.6645 59.4886C36.4619 59.5243 36.2389 59.5772 36.0325 59.5569C35.9004 59.544 35.8523 59.4847 35.8062 59.3659C35.7387 59.1921 35.6993 59.0071 35.6419 58.8298C35.601 58.7034 35.4192 58.6627 35.3213 58.744C34.6411 59.3081 33.8077 59.6269 32.9363 59.7427C32.4955 59.8012 32.0504 59.8096 31.6073 59.7741C31.159 59.7381 30.6883 59.6781 30.2672 59.5137C29.853 59.3519 29.5268 59.0545 29.5015 58.5889C29.4772 58.1429 29.7116 57.7347 30.0131 57.4247C30.3689 57.0588 30.8243 56.8148 31.2245 56.5038C31.608 56.2057 31.9615 55.8668 32.278 55.4983C32.9987 54.6589 33.5107 53.662 33.8874 52.627C33.9795 52.3741 33.5922 52.2135 33.4997 52.4676Z" fill="#3B1954"/>
<path d="M44.7752 26.5341C43.3119 26.3524 41.9093 27.1403 40.7253 28.0191C39.9818 28.5708 39.2671 29.177 38.7111 29.9173C37.4605 31.5827 37.6769 33.5398 37.8062 35.5048C37.9489 37.6716 38.2338 39.829 38.6575 41.9588C39.1463 44.4153 39.7849 46.8529 40.715 49.1818C40.9462 49.7606 41.1944 50.3334 41.4661 50.8944C41.7025 51.3825 41.807 51.4257 42.3158 51.3281C43.5679 51.088 44.7907 50.8007 45.9872 50.3516C46.9999 49.9715 47.8814 49.6461 48.7274 48.9354C48.7702 48.8995 48.8152 48.8602 48.8298 48.8063C48.8451 48.75 48.8237 48.6909 48.8026 48.6365C47.7135 45.8366 46.5757 43.1103 45.7777 40.2045C45.6874 39.8759 45.5994 39.5404 45.6137 39.2C45.6285 38.8487 45.7515 38.5123 45.862 38.1784C46.742 35.5186 46.8906 32.6207 46.2873 29.8848" fill="#662D91"/>
<path d="M44.7747 26.3248C42.9606 26.1153 41.289 27.2585 39.9561 28.3538C39.2524 28.932 38.5805 29.6016 38.1467 30.4112C37.7435 31.1637 37.5633 32.0026 37.5123 32.8495C37.4601 33.7157 37.5346 34.5833 37.5923 35.4473C37.66 36.4607 37.7545 37.4718 37.882 38.4795C38.1344 40.4749 38.5033 42.4561 38.9858 44.4087C39.4622 46.3368 40.0646 48.2352 40.854 50.0589C41.0267 50.4582 41.1863 50.9043 41.4308 51.2666C41.5918 51.5051 41.8136 51.6028 42.0984 51.573C42.5566 51.525 43.0157 51.4052 43.4646 51.3043C43.9537 51.1943 44.4401 51.0713 44.9208 50.9288C45.7876 50.6717 46.6566 50.3596 47.4747 49.9728C47.8692 49.7862 48.2478 49.5671 48.5968 49.3046C48.74 49.1968 48.9358 49.0812 49.0104 48.9124C49.1102 48.6863 48.9413 48.4192 48.8598 48.2109C48.1329 46.3521 47.3838 44.5007 46.7405 42.6105C46.4244 41.6815 46.0968 40.7357 45.884 39.7766C45.833 39.5466 45.8041 39.3121 45.8324 39.0769C45.8622 38.829 45.946 38.5881 46.0243 38.3524C46.178 37.8898 46.3155 37.4229 46.4281 36.9485C46.8734 35.0722 46.9778 33.1138 46.7274 31.2016C46.6671 30.7408 46.5881 30.2834 46.489 29.8294C46.4314 29.5659 46.0272 29.6774 46.0847 29.9408C46.4839 31.769 46.5527 33.6731 46.2767 35.5246C46.1405 36.4379 45.9218 37.3355 45.63 38.2114C45.4876 38.6386 45.3662 39.063 45.4172 39.5179C45.4697 39.9874 45.6239 40.447 45.7565 40.8986C46.3004 42.7514 46.9817 44.5598 47.6842 46.3572C47.8561 46.7972 48.0293 47.2366 48.2022 47.6762C48.2868 47.8915 48.3713 48.1069 48.4556 48.3223C48.4958 48.4251 48.5365 48.5277 48.576 48.6308C48.5733 48.6239 48.6205 48.786 48.6323 48.7386C48.6252 48.7672 48.5552 48.8072 48.5317 48.8266C47.8802 49.3651 47.1016 49.7053 46.3184 50.0037C45.4316 50.3416 44.5325 50.6243 43.6083 50.8414C43.1456 50.9501 42.6796 51.0515 42.2116 51.1352C41.9492 51.1822 41.8525 51.1731 41.7224 50.9373C41.5032 50.5397 41.3276 50.1111 41.1501 49.6938C40.9591 49.2448 40.7808 48.7903 40.6123 48.3325C40.2809 47.4324 39.9898 46.5177 39.7312 45.5942C38.7003 41.9115 38.1316 38.1114 37.938 34.2948C37.8973 33.4927 37.889 32.6767 38.0568 31.8872C38.2368 31.0402 38.6287 30.2927 39.2025 29.646C39.789 28.9849 40.4914 28.4243 41.2168 27.9233C41.9231 27.4354 42.6903 27.0028 43.5342 26.8111C43.9428 26.7183 44.3585 26.6959 44.7747 26.744C45.0422 26.7749 45.04 26.3555 44.7747 26.3248Z" fill="#662D91"/>
<path d="M40.3104 47.9697C40.1321 46.489 40.7173 45.0278 41.3834 43.6933C42.0494 42.3588 42.8202 41.0373 43.0566 39.5647C43.2116 38.5992 43.1282 37.6131 43.0445 36.6388C42.9824 35.9161 42.9203 35.1934 42.8582 34.4707C42.0593 36.4486 40.8929 38.2773 39.4364 39.8358C38.992 40.3113 38.4949 40.8135 38.417 41.4597C38.3777 41.786 38.4524 42.1145 38.5358 42.4323C38.7362 43.1952 40.03 47.2472 40.3359 47.9743" fill="#3B1954"/>
<path d="M40.5204 47.9695C40.312 46.1293 41.2337 44.4504 42.039 42.8666C42.4352 42.0872 42.8215 41.2934 43.0686 40.452C43.3284 39.5669 43.3826 38.6554 43.3359 37.738C43.2803 36.6475 43.1616 35.5583 43.0681 34.4705C43.0472 34.2273 42.7454 34.1953 42.6564 34.4148C42.1496 35.6631 41.4933 36.851 40.7116 37.9482C40.3171 38.502 39.8887 39.0312 39.4305 39.5336C39.0202 39.9834 38.5547 40.4163 38.3241 40.993C38.0075 41.7845 38.3802 42.6754 38.6178 43.4471C38.8728 44.2753 39.1368 45.1008 39.4063 45.9244C39.6363 46.6273 39.8487 47.3466 40.1341 48.0298C40.178 48.135 40.2725 48.2077 40.3919 48.1762C40.4908 48.1501 40.5819 48.0227 40.5383 47.9183C40.298 47.3429 40.1158 46.7391 39.9205 46.1475C39.6475 45.3206 39.3815 44.4913 39.1225 43.6598C39.0237 43.3425 38.9255 43.025 38.8317 42.7061C38.7145 42.3079 38.5672 41.8797 38.6269 41.4617C38.7141 40.8519 39.2065 40.3904 39.6053 39.9619C40.059 39.4745 40.4837 38.9608 40.8803 38.4259C41.771 37.2245 42.4983 35.9114 43.0606 34.5262L42.6489 34.4705C42.7319 35.437 42.8263 36.4034 42.8942 37.3711C42.9601 38.3104 42.9586 39.2492 42.7137 40.1648C42.255 41.8795 41.2014 43.3526 40.5716 45.0003C40.2109 45.944 39.9864 46.9563 40.1012 47.9696C40.1312 48.2346 40.5508 48.2376 40.5204 47.9695Z" fill="#3B1954"/>
<path d="M42.371 30.5744C41.0235 29.9757 39.4526 30.3226 38.0644 30.8198C37.1928 31.132 36.3329 31.5046 35.586 32.0517C33.9059 33.2823 33.5449 35.218 33.0983 37.1359C32.6058 39.2508 32.2523 41.3981 32.0395 43.5591C31.7942 46.0517 31.6978 48.5698 31.9119 51.0684C31.9651 51.6894 32.0363 52.3095 32.1335 52.9253C32.218 53.461 32.3054 53.5326 32.8207 53.587C34.0886 53.7206 35.3421 53.8006 36.6175 53.7181C37.6969 53.6484 38.6349 53.5929 39.6508 53.1584C39.7022 53.1364 39.7567 53.1118 39.7863 53.0645C39.8172 53.015 39.8139 52.9523 39.8095 52.8941C39.58 49.8986 39.2826 46.9594 39.3623 43.9471C39.3714 43.6065 39.3845 43.2599 39.497 42.9383C39.6132 42.6063 39.8285 42.3202 40.0311 42.0327C41.6454 39.7429 42.6287 37.0129 42.8454 34.2197" fill="#662D91"/>
<path d="M42.4771 30.3928C40.7511 29.6439 38.7922 30.2552 37.1519 30.9505C36.3225 31.3021 35.5041 31.7482 34.8672 32.396C34.315 32.9575 33.9253 33.6447 33.6402 34.3741C33.3502 35.1157 33.1697 35.8943 32.9913 36.6686C32.7686 37.6349 32.5568 38.6026 32.3817 39.5789C32.0178 41.6085 31.7791 43.6612 31.659 45.7196C31.5383 47.7889 31.5506 49.871 31.7891 51.9319C31.8397 52.369 31.8634 52.8399 31.9899 53.2629C32.0662 53.518 32.2299 53.685 32.4911 53.7473C32.9233 53.8503 33.3958 53.8558 33.8374 53.8897C34.3552 53.9295 34.8742 53.9555 35.3935 53.9599C36.3587 53.9681 37.3482 53.9213 38.3015 53.7625C38.7628 53.6857 39.2144 53.5632 39.6472 53.385C39.8195 53.314 39.9742 53.2385 40.0136 53.0377C40.0316 52.9459 40.016 52.8497 40.0089 52.7574C39.9966 52.5988 39.9842 52.4402 39.9716 52.2816C39.8076 50.2095 39.6233 48.1373 39.5727 46.0584C39.56 45.5368 39.5556 45.0151 39.5618 44.4934C39.5676 44.0026 39.5329 43.4631 39.6994 42.9934C39.8494 42.5702 40.1679 42.2118 40.415 41.8432C40.6695 41.4637 40.9071 41.0729 41.1272 40.6724C41.9966 39.0902 42.5991 37.358 42.8909 35.5762C42.9646 35.1264 43.0192 34.6735 43.0553 34.2191C43.0767 33.9501 42.6574 33.9515 42.6361 34.2191C42.4974 35.9633 42.0603 37.688 41.348 39.2867C40.9922 40.0851 40.5702 40.8542 40.0861 41.5821C39.8484 41.9396 39.5629 42.2778 39.3821 42.6695C39.1858 43.0949 39.1626 43.5536 39.1513 44.0149C39.1022 46.0056 39.2185 47.9954 39.3697 49.9796C39.4075 50.4757 39.4474 50.9717 39.4873 51.4676C39.5073 51.7163 39.5273 51.965 39.547 52.2137C39.556 52.3269 39.5649 52.4401 39.5738 52.5534C39.5791 52.6214 39.5844 52.6894 39.5897 52.7574C39.5931 52.8026 39.6194 52.8932 39.6027 52.9377L39.6212 52.9394C39.5938 52.9555 39.5653 52.9693 39.5357 52.9808C39.4777 53.0068 39.4172 53.0287 39.3577 53.0511C39.2606 53.0875 39.1625 53.1213 39.0636 53.1524C38.8532 53.2186 38.6391 53.2724 38.4229 53.3157C37.9918 53.402 37.5541 53.443 37.1161 53.4746C36.1346 53.5456 35.158 53.5578 34.1756 53.4944C33.6953 53.4635 33.2087 53.4337 32.7319 53.3666C32.486 53.3319 32.4197 53.286 32.3675 53.0441C32.2702 52.5932 32.2274 52.1244 32.1789 51.6662C32.1269 51.175 32.0874 50.6824 32.059 50.1892C32.0021 49.1971 31.9911 48.2026 32.0157 47.2093C32.1106 43.3845 32.6676 39.5669 33.6154 35.8615C33.8007 35.1372 34.0232 34.4149 34.3835 33.7564C34.7621 33.0646 35.2872 32.4912 35.9451 32.056C36.7004 31.5565 37.5488 31.2097 38.4042 30.9228C39.2391 30.6429 40.1169 30.4298 41.0036 30.4721C41.436 30.4928 41.8674 30.582 42.2655 30.7547C42.5105 30.861 42.7242 30.5 42.4771 30.3928Z" fill="#3B1954"/>
<path d="M33.7963 22.7726C32.0294 24.3081 30.6584 26.2386 29.3149 28.1556C29.2031 28.315 29.0236 28.4956 28.8461 28.4155C28.7864 28.3886 28.7429 28.3359 28.7019 28.2848C26.588 25.6443 25.3708 22.4165 24.1867 19.248C23.2727 19.4297 22.3587 19.6113 21.4447 19.7929C21.1574 19.85 20.861 19.9108 20.6206 20.0782C19.8641 20.6048 20.5476 22.4736 20.6911 23.216C20.9197 24.399 21.2103 25.5715 21.6011 26.7119C22.2758 28.6807 23.2598 30.564 24.6521 32.111C25.3135 32.8459 26.076 33.5093 26.9733 33.9245C27.8705 34.3398 28.9157 34.4899 29.8601 34.1974C30.8045 33.9048 31.6189 33.1284 31.8225 32.1609" fill="#FFDE17"/>
<path d="M33.6478 22.6248C31.8955 24.1541 30.5322 26.0559 29.2044 27.9492C29.16 28.0126 29.05 28.2111 28.9579 28.2197C28.8794 28.227 28.7844 28.0549 28.7375 27.9949C28.5569 27.7639 28.3836 27.527 28.2158 27.2865C27.8948 26.8264 27.5956 26.3513 27.3151 25.8655C26.7466 24.8809 26.2552 23.8536 25.8067 22.8095C25.2956 21.6194 24.8419 20.4056 24.3885 19.1927C24.3466 19.0806 24.2505 19.0225 24.1307 19.0463C23.5957 19.1526 23.0607 19.2589 22.5256 19.3652C22.0333 19.463 21.5283 19.5362 21.0438 19.668C20.7135 19.7578 20.3855 19.9138 20.2193 20.2283C20.0787 20.4945 20.0517 20.8111 20.0628 21.1071C20.0869 21.7503 20.2724 22.3746 20.4259 22.9953C20.5221 23.3848 20.5886 23.7815 20.676 24.1731C20.7858 24.6649 20.9082 25.154 21.0459 25.6387C21.5641 27.4628 22.3068 29.2414 23.3752 30.8147C24.3721 32.2828 25.6927 33.7552 27.4251 34.3279C28.3844 34.645 29.4661 34.6587 30.3871 34.2121C31.1863 33.8246 31.8301 33.0928 32.0244 32.217C32.0828 31.9542 31.6787 31.8419 31.6202 32.1056C31.4589 32.8329 30.9574 33.4263 30.3102 33.7807C29.5649 34.1887 28.6694 34.2216 27.8577 34.0171C26.1756 33.5931 24.8784 32.214 23.9065 30.8468C22.8945 29.4233 22.1625 27.8188 21.6387 26.1569C21.3554 25.2582 21.1299 24.3421 20.9439 23.4186C20.8267 22.8364 20.6533 22.2666 20.5486 21.6819C20.494 21.377 20.4507 21.0516 20.4942 20.7423C20.5422 20.4015 20.7124 20.2129 21.0426 20.1055C21.5327 19.9462 22.0656 19.883 22.5703 19.7827C23.1276 19.672 23.6849 19.5613 24.2422 19.4505L23.9844 19.3041C24.8261 21.5563 25.6752 23.8232 26.8636 25.9205C27.155 26.4347 27.4667 26.9376 27.8024 27.424C27.9734 27.6718 28.1508 27.9151 28.3344 28.1536C28.487 28.352 28.6498 28.6441 28.9345 28.6452C29.2055 28.6462 29.3897 28.411 29.5311 28.2113C29.7093 27.9596 29.8854 27.7064 30.064 27.4549C30.4156 26.9599 30.7721 26.4683 31.1409 25.9859C31.983 24.8846 32.8982 23.8342 33.9443 22.9212C34.148 22.7435 33.8504 22.448 33.6478 22.6248Z" fill="#662D91"/>
<path d="M39.2063 33.6276C42.3669 32.9968 45.3845 32.1017 48.4677 31.1897C48.9771 31.039 49.49 30.8869 49.9611 30.6416C50.2264 30.5034 50.4825 30.3309 50.6556 30.087C51.0656 29.5095 50.9285 28.8964 50.7873 28.2775C50.6047 27.4771 50.539 26.6345 50.404 25.8239C50.1183 24.1092 49.7914 22.4016 49.4363 20.7C48.7258 17.2946 47.9021 13.9141 47.0662 10.5377C46.9061 9.89099 46.7124 9.19256 46.1795 8.79267C45.5535 8.32283 44.6832 8.42505 43.9117 8.55698C39.9811 9.22912 36.0881 10.1024 32.1972 10.9753C30.4109 11.376 28.7181 11.8759 27.0561 12.6597C26.8533 12.7553 26.6472 12.8572 26.4931 13.02C26.1982 13.3315 26.1514 13.7975 26.1399 14.2264C26.108 15.4086 26.535 16.3788 26.6757 17.5096C26.8413 18.8406 27.0439 20.1692 27.2982 21.4895C28.0093 25.1826 28.802 28.8602 29.6767 32.518C29.8417 33.2088 30.06 33.9702 30.6682 34.337C31.0628 34.575 31.5475 34.5956 32.0083 34.5929C34.433 34.5788 36.8285 34.1023 39.2063 33.6276Z" fill="#FFDE17"/>
<path d="M39.262 33.8291C42.1217 33.2564 44.9266 32.4532 47.7218 31.6281C48.3914 31.4304 49.0775 31.2581 49.721 30.9837C50.3143 30.7307 50.8738 30.3682 51.0671 29.7162C51.252 29.0926 51.0248 28.4528 50.9109 27.8391C50.7793 27.1304 50.7134 26.4115 50.5949 25.7007C50.1068 22.7749 49.497 19.8703 48.8329 16.9798C48.4995 15.5284 48.152 14.0802 47.7983 12.6337C47.6208 11.9076 47.4427 11.1816 47.262 10.4563C47.1279 9.91795 46.9712 9.36297 46.6154 8.92453C45.7803 7.89538 44.3011 8.27355 43.1862 8.47068C41.725 8.72905 40.2686 9.01379 38.8154 9.31433C37.3623 9.61487 35.912 9.93137 34.4632 10.2533C33.0455 10.5683 31.6174 10.8572 30.2212 11.2595C29.5512 11.4526 28.8885 11.6721 28.2387 11.9252C27.9236 12.0479 27.6113 12.1783 27.3026 12.3162C27.0092 12.4474 26.698 12.571 26.4476 12.777C25.9714 13.1686 25.9211 13.8443 25.9289 14.4173C25.938 15.083 26.0906 15.7322 26.2422 16.3769C26.4033 17.0615 26.4929 17.7481 26.5885 18.4441C26.6907 19.1883 26.8055 19.9308 26.9352 20.6707C27.1918 22.1335 27.494 23.5895 27.7952 25.0438C28.0961 26.4969 28.4098 27.9475 28.7363 29.3951C28.9007 30.1245 29.0684 30.8531 29.2393 31.581C29.385 32.2012 29.4967 32.8499 29.7344 33.4436C29.9402 33.9576 30.265 34.4132 30.7916 34.6297C31.4042 34.8815 32.136 34.8108 32.7818 34.7822C34.247 34.7171 35.7018 34.5018 37.1434 34.2394C37.8511 34.1106 38.5566 33.9699 39.262 33.8291C39.5263 33.7763 39.4144 33.3722 39.1505 33.4248C37.748 33.7048 36.3436 33.987 34.9246 34.1708C34.2244 34.2615 33.5208 34.3291 32.8154 34.3615C32.4697 34.3773 32.1224 34.3891 31.7764 34.3812C31.4718 34.3742 31.1519 34.3467 30.8743 34.2104C30.3924 33.9737 30.162 33.4618 30.0141 32.9735C29.8254 32.3507 29.6983 31.7059 29.5506 31.0725C29.224 29.6713 28.9094 28.2674 28.6066 26.8609C28.0031 24.0568 27.3955 21.2427 27.002 18.4002C26.9096 17.7322 26.833 17.0684 26.6804 16.4106C26.5375 15.7942 26.3765 15.1786 26.3515 14.5431C26.3284 13.9584 26.3438 13.2885 26.9105 12.9667C27.4811 12.6428 28.1221 12.4087 28.7366 12.1833C30.0122 11.7154 31.3265 11.3845 32.6507 11.0875C34.0436 10.7751 35.4368 10.4635 36.8321 10.1621C38.2383 9.85825 39.6468 9.5646 41.0592 9.29062C41.7597 9.15473 42.4612 9.02367 43.1638 8.89865C43.7821 8.78864 44.4148 8.63999 45.0464 8.65628C45.6053 8.67069 46.1116 8.87564 46.4162 9.36286C46.7206 9.84977 46.8264 10.4405 46.9622 10.99C47.3087 12.3915 47.6524 13.7938 47.9861 15.1984C48.6491 17.9897 49.2728 20.7912 49.8003 23.6116C49.931 24.3106 50.0558 25.0107 50.1737 25.712C50.2881 26.3918 50.3577 27.0781 50.4725 27.7577C50.5721 28.3478 50.8401 29.0068 50.6628 29.6048C50.4754 30.2369 49.8013 30.5235 49.233 30.7271C48.5863 30.9588 47.917 31.1337 47.2583 31.3277C46.578 31.5279 45.8973 31.7266 45.2152 31.9205C43.8753 32.3013 42.5297 32.6635 41.1738 32.9832C40.5019 33.1416 39.8274 33.2893 39.1505 33.4248C38.8862 33.4778 38.9981 33.8819 39.262 33.8291Z" fill="#662D91"/>
<path d="M34.1915 25.8079C32.5358 27.8239 30.8801 29.8398 29.2243 31.8557C26.809 29.7119 24.2679 27.7099 21.6182 25.8636C21.1546 25.5405 20.6815 25.219 20.1511 25.024C19.1269 24.6474 17.9501 24.786 16.9823 25.2901C15.9854 25.8094 14.5996 26.9678 14.8221 28.194C14.8416 28.3012 14.8681 28.4097 14.9272 28.5013C15.0235 28.6508 15.207 28.7393 15.384 28.7217C15.5609 28.704 15.7233 28.5811 15.7883 28.4155C15.8045 28.6646 15.997 28.8901 16.2388 28.9523C16.4806 29.0145 16.7539 28.9135 16.9033 28.7135C16.938 28.667 16.9709 28.6125 17.026 28.5943C17.1419 28.5562 17.2278 28.6963 17.2965 28.7973C17.7315 29.4368 18.1506 28.5993 18.6304 28.9367C18.8222 29.0715 18.9303 29.2927 19.038 29.5011C19.6627 30.7094 20.5252 31.7777 21.4241 32.7986C22.4688 33.985 23.5825 35.1296 24.8964 36.0087C26.2102 36.8877 27.7452 37.4926 29.3259 37.5047C31.3336 37.52 33.2614 36.573 34.7566 35.2332C36.2519 33.8934 38.5483 31.2461 39.5355 29.4979" fill="#FFDE17"/>
<path d="M34.0434 25.6595C32.3876 27.6754 30.7319 29.6913 29.0762 31.7072H29.3726C27.089 29.6819 24.6949 27.7814 22.203 26.0186C21.62 25.6062 21.0384 25.1656 20.3755 24.8885C19.7428 24.6241 19.0494 24.5483 18.3713 24.637C17.1676 24.7944 15.9841 25.4833 15.2165 26.4235C14.8336 26.8925 14.5287 27.4796 14.599 28.103C14.6383 28.452 14.7732 28.7906 15.1371 28.9029C15.467 29.0046 15.8278 28.8317 15.9693 28.521L15.5787 28.4153C15.6333 28.9145 16.0857 29.2766 16.5899 29.1546C16.7045 29.1269 16.8124 29.0729 16.9059 29.0019C16.9468 28.9708 16.9856 28.9383 17.0201 28.9001C17.0288 28.8905 17.0805 28.8373 17.0844 28.819L17.1053 28.7913L17.0308 28.7916C17.0202 28.8172 17.2184 29.0374 17.2413 29.0606C17.3142 29.1346 17.4043 29.1956 17.5036 29.2275C17.6711 29.2813 17.8431 29.2442 18.0024 29.1822C18.1272 29.1336 18.2837 29.0364 18.4225 29.0677C18.6444 29.1177 18.764 29.4277 18.8571 29.6066C18.99 29.8623 19.1327 30.1127 19.2848 30.3575C19.9137 31.3698 20.6854 32.2872 21.4777 33.1741C22.2537 34.0428 23.0709 34.8812 23.9876 35.6029C25.7812 37.0147 28.0026 37.9689 30.3209 37.6446C32.432 37.3494 34.2031 36.1228 35.6762 34.646C36.377 33.9435 37.0412 33.2037 37.6745 32.44C38.2891 31.6991 38.8828 30.9341 39.4024 30.1229C39.5115 29.9524 39.6166 29.7795 39.7166 29.6035C39.8499 29.3685 39.4879 29.157 39.3546 29.3919C38.924 30.1504 38.404 30.8591 37.8643 31.5429C37.2571 32.3124 36.6146 33.055 35.9425 33.7685C35.3249 34.4241 34.6837 35.0762 33.9615 35.6178C33.1107 36.2559 32.1558 36.764 31.1286 37.0493C30.082 37.3399 28.9891 37.3704 27.9294 37.1295C26.8395 36.8817 25.8211 36.3885 24.9015 35.7593C23.9709 35.1225 23.1435 34.3467 22.3709 33.5286C21.5894 32.7011 20.829 31.8386 20.1632 30.9146C19.8263 30.4471 19.5155 29.9602 19.2476 29.4498C19.054 29.0812 18.8035 28.6017 18.3133 28.6478C18.1448 28.6636 18.0008 28.7396 17.8441 28.7958C17.6896 28.8513 17.5993 28.849 17.4921 28.7108C17.3531 28.5315 17.2096 28.3062 16.9453 28.4025C16.8414 28.4404 16.7936 28.5257 16.7237 28.6037C16.6495 28.6863 16.5477 28.7457 16.4361 28.7586C16.2284 28.7827 16.0211 28.6266 15.9979 28.4152C15.9781 28.2343 15.7036 28.0982 15.6073 28.3094C15.4892 28.5687 15.1625 28.5778 15.062 28.2975C14.9839 28.0795 14.9939 27.8225 15.0481 27.6008C15.168 27.1108 15.4966 26.6957 15.8536 26.3524C16.6531 25.5834 17.714 25.041 18.837 25.0197C19.4688 25.0077 20.0681 25.1667 20.6204 25.4709C21.1944 25.7871 21.7239 26.189 22.2565 26.5688C23.3712 27.364 24.4663 28.1868 25.5396 29.0371C26.7458 29.9928 27.9248 30.9825 29.0762 32.0036C29.1545 32.0731 29.2973 32.0953 29.3726 32.0036C31.0283 29.9877 32.6841 27.9718 34.3398 25.9559C34.5097 25.749 34.2148 25.4508 34.0434 25.6595Z" fill="#662D91"/>
<path d="M9.81872 26.0469C11.201 26.2569 12.0847 24.7987 11.839 23.5687C11.7312 23.0285 11.4589 22.5371 11.2776 22.0168C10.8654 20.8332 10.9465 19.4862 11.4978 18.3607C11.6875 17.9733 11.9329 17.604 12.0207 17.1817C12.2994 15.8421 10.5601 15.3562 9.56164 15.6834C5.967 16.8615 5.97538 22.015 7.78427 24.6661C8.25143 25.3508 8.97751 25.9191 9.81872 26.0469Z" fill="#FFDE17"/>
<path d="M19.0351 18.259C17.3763 17.9365 15.7207 17.598 14.0685 17.2433C13.3274 17.0843 12.6797 16.8889 12.0005 16.619C11.3497 16.3604 10.6583 16.4792 10.0974 16.911C8.74749 17.9502 8.81983 19.9317 8.94433 21.4719C9.0128 22.3187 9.21111 23.1713 9.61593 23.9235C10.0725 24.7719 10.432 25.0807 11.3809 24.9686C13.3643 24.7345 15.3046 24.2309 17.2348 23.734C19.5552 23.1368 21.8755 22.5395 24.1958 21.9423C24.5573 21.8492 24.9272 21.7525 25.2348 21.5409C25.9048 21.08 25.8537 19.858 25.2982 19.2948C24.9121 18.9033 24.5917 19.1926 24.1696 19.2065C23.6556 19.2233 23.0354 19.0048 22.5274 18.9132C21.3619 18.7031 20.1977 18.485 19.0351 18.259Z" fill="#FFDE17"/>
<path d="M12.0564 16.4167C11.2151 16.0964 10.3248 16.3621 9.69822 16.9826C9.12313 17.5521 8.78848 18.3379 8.63223 19.1222C8.44786 20.0477 8.50589 20.9958 8.68939 21.9166C8.84204 22.6827 9.04444 23.4923 9.46833 24.1593C9.89537 24.8312 10.5649 25.2642 11.3811 25.178C11.6467 25.15 11.6495 24.7305 11.3811 24.7588C9.92776 24.9123 9.43278 23.2815 9.16998 22.1571C8.82022 20.6605 8.76288 18.8837 9.72592 17.5868C10.2513 16.8792 11.0891 16.4952 11.945 16.8209C12.1974 16.917 12.3065 16.5119 12.0564 16.4167Z" fill="#662D91"/>
<path d="M21.5355 21.1535C22.3613 20.9899 22.467 20.2567 22.9074 19.6789C23.1694 19.335 23.8979 19.1644 24.3237 19.0896C23.8838 17.8262 22.0948 16.8776 20.778 17.1132C20.3378 17.192 19.9222 17.3735 19.5286 17.5858C18.6524 18.0583 18.3713 19.2509 18.5187 20.1876C18.5566 20.4289 18.6841 20.7164 18.9283 20.7203C19.1646 20.724 19.3014 20.4608 19.3821 20.2387C19.2441 20.6183 19.8572 21.176 20.2246 21.0054C20.4246 20.9125 20.5284 20.6506 20.7458 20.6139C20.7401 20.9794 21.177 21.2246 21.5355 21.1535Z" fill="#FFDE17"/>
<path d="M21.5911 21.3555C21.8983 21.2892 22.175 21.136 22.3809 20.8966C22.579 20.6663 22.7119 20.3943 22.8622 20.1328C23.0193 19.8596 23.1697 19.6709 23.4641 19.542C23.7532 19.4154 24.0699 19.3468 24.3793 19.2916C24.4851 19.2727 24.5615 19.1331 24.5257 19.0337C24.0512 17.7167 22.4832 16.8247 21.1158 16.8688C20.6993 16.8822 20.2977 17.001 19.9169 17.1645C19.5533 17.3206 19.1922 17.5003 18.9246 17.7996C18.4377 18.3441 18.2455 19.1142 18.2743 19.8319C18.2888 20.1948 18.3388 20.686 18.7039 20.8744C19.145 21.1021 19.4518 20.6463 19.5841 20.2943L19.1799 20.1829C19.0587 20.5775 19.3799 20.9856 19.7177 21.1534C19.8929 21.2404 20.0928 21.2787 20.2802 21.2074C20.3844 21.1678 20.47 21.0968 20.5484 21.0189C20.6258 20.942 20.6907 20.8429 20.8014 20.816L20.536 20.6138C20.5537 21.1536 21.1044 21.4343 21.5911 21.3555C21.8567 21.3125 21.7441 20.9085 21.4797 20.9513C21.2658 20.9859 20.9632 20.858 20.9553 20.6138C20.9507 20.4752 20.8252 20.3788 20.6899 20.4117C20.5186 20.4534 20.4025 20.5671 20.2835 20.6897C20.1911 20.785 20.1189 20.8548 19.9829 20.8115C19.7962 20.752 19.516 20.5163 19.5841 20.2943C19.6645 20.0324 19.2732 19.9346 19.1799 20.1829C19.1429 20.2813 19.0856 20.4487 18.9816 20.4967C18.8625 20.5518 18.7943 20.3948 18.7627 20.3055C18.6711 20.0465 18.6799 19.7338 18.6997 19.4638C18.7408 18.9036 18.9446 18.3146 19.3799 17.9392C19.6297 17.7238 19.9705 17.5815 20.2769 17.469C20.5831 17.3566 20.8975 17.2839 21.2245 17.2868C21.7968 17.292 22.3645 17.4815 22.8565 17.7668C23.3974 18.0804 23.905 18.5443 24.1215 19.1452L24.2679 18.8873C23.6609 18.9957 22.9983 19.159 22.6367 19.6989C22.3041 20.1956 22.1337 20.8101 21.4797 20.9513C21.2161 21.0082 21.3276 21.4124 21.5911 21.3555Z" fill="#662D91"/>
<path d="M26.5023 20.1672C26.5566 20.1824 26.6128 20.1925 26.6683 20.2018C27.3008 20.3077 28.3735 20.3453 28.6399 19.5599C28.7168 19.3332 28.5669 19.0772 28.3564 18.9632C28.0175 18.7796 27.4148 18.7794 27.0448 18.8471C26.8422 18.8842 26.6404 18.9452 26.4696 19.0603C26.2988 19.1754 26.1611 19.3501 26.1236 19.5526C26.086 19.7551 26.1631 19.983 26.3358 20.0953C26.3869 20.1286 26.4435 20.1508 26.5023 20.1672Z" fill="#FFDE17"/>
<path d="M26.4467 20.3697C27.1931 20.5603 28.391 20.5794 28.7814 19.7643C28.9108 19.4942 28.8868 19.2153 28.6963 18.9798C28.5319 18.7767 28.2785 18.6826 28.0279 18.6387C27.4997 18.546 26.8214 18.5687 26.3639 18.8797C26.0978 19.0605 25.8885 19.356 25.9058 19.6901C25.923 20.0221 26.1322 20.2746 26.4467 20.3697C26.7055 20.4478 26.8161 20.0434 26.5581 19.9654C26.3969 19.9167 26.3033 19.7808 26.3258 19.6086C26.3528 19.4015 26.5323 19.2504 26.709 19.1652C27.0604 18.9957 27.5373 18.9769 27.9164 19.0429C28.0822 19.0718 28.2749 19.1144 28.3826 19.2557C28.4881 19.3939 28.4463 19.533 28.3562 19.6661C28.2002 19.8966 27.9104 19.9916 27.647 20.0291C27.2895 20.0799 26.8996 20.0526 26.5581 19.9654C26.2966 19.8986 26.1851 20.3028 26.4467 20.3697Z" fill="#662D91"/>
<path d="M27.3763 19.7706C27.2144 20.0696 26.6022 20.2413 26.3698 19.9361C26.1681 19.6711 26.4009 19.2092 26.6642 19.0768C26.8377 18.9895 27.05 18.9835 27.2282 19.061C27.2792 19.0831 27.3288 19.1129 27.3621 19.1575C27.3991 19.2069 27.4128 19.2697 27.4223 19.3307C27.4454 19.479 27.4478 19.6386 27.3763 19.7706Z" fill="#662D91"/>
<path d="M27.1955 19.6654C27.1904 19.6746 27.1851 19.6837 27.1794 19.6925C27.1689 19.7087 27.1469 19.7246 27.187 19.685C27.1739 19.6979 27.163 19.7133 27.1501 19.7265C27.1366 19.7401 27.122 19.7524 27.1077 19.7653C27.0757 19.794 27.1488 19.7371 27.1127 19.7615C27.0994 19.7705 27.0863 19.7798 27.0726 19.7884C27.0378 19.8102 26.9963 19.8234 26.9627 19.8459C27.0057 19.8171 26.9849 19.8366 26.9658 19.8435C26.9539 19.8479 26.9419 19.852 26.9298 19.8558C26.9056 19.8635 26.8811 19.8702 26.8563 19.8757C26.8362 19.8802 26.8139 19.8813 26.7943 19.8872C26.8486 19.8709 26.8201 19.8837 26.8003 19.8853C26.788 19.8863 26.7756 19.887 26.7633 19.8874C26.7429 19.888 26.7226 19.8877 26.7023 19.8865C26.6908 19.8858 26.6778 19.8827 26.6664 19.8833C26.6885 19.882 26.712 19.8908 26.6754 19.8833C26.6525 19.8786 26.6307 19.8715 26.6084 19.8648C26.5919 19.8598 26.5871 19.8479 26.6267 19.8733C26.6175 19.8673 26.606 19.8636 26.5962 19.8583C26.5798 19.8494 26.5652 19.8365 26.5488 19.8279C26.5944 19.8516 26.5723 19.8465 26.5567 19.8315C26.547 19.8223 26.539 19.811 26.5292 19.8021C26.5104 19.785 26.5566 19.8471 26.536 19.8095C26.5298 19.7984 26.5232 19.7871 26.5167 19.7762C26.4952 19.74 26.5245 19.8114 26.5202 19.7854C26.5186 19.7754 26.5133 19.7649 26.5106 19.7551C26.5083 19.7467 26.5074 19.7243 26.5024 19.7178C26.5192 19.7397 26.5051 19.7617 26.5045 19.7287C26.504 19.7 26.5041 19.672 26.5058 19.6433C26.5084 19.5984 26.4953 19.68 26.5047 19.6523C26.5083 19.642 26.509 19.6297 26.5115 19.6189C26.5172 19.5942 26.5244 19.5698 26.5327 19.5459C26.5349 19.5396 26.5397 19.516 26.5449 19.5131L26.5347 19.5372C26.5385 19.5286 26.5424 19.5201 26.5465 19.5116C26.5587 19.4862 26.5723 19.4614 26.587 19.4374C26.5992 19.4175 26.6126 19.3985 26.6259 19.3793C26.6533 19.3398 26.5949 19.4136 26.6272 19.3785C26.6363 19.3685 26.6449 19.358 26.6541 19.3481C26.6692 19.3321 26.6849 19.3167 26.7014 19.3022L26.7112 19.2938C26.7284 19.2797 26.7242 19.2827 26.6985 19.3029C26.7064 19.3009 26.7219 19.2864 26.7289 19.2819C26.739 19.2755 26.7493 19.2694 26.7598 19.2638C26.7687 19.2589 26.8104 19.2407 26.7683 19.2577C26.7956 19.2467 26.8236 19.2376 26.8521 19.2304C26.8692 19.226 26.8868 19.2237 26.9038 19.2194C26.8642 19.2293 26.8886 19.2207 26.9006 19.2199C26.9422 19.2175 26.9824 19.2176 27.024 19.2197C27.0354 19.2202 27.0615 19.2283 27.0208 19.2189C27.0437 19.2242 27.0668 19.2278 27.0896 19.2342C27.1037 19.2382 27.1177 19.2426 27.1316 19.2475C27.1399 19.2504 27.1482 19.2535 27.1564 19.2568C27.1329 19.2469 27.1317 19.2469 27.1529 19.2568C27.167 19.2655 27.1819 19.2739 27.1962 19.2824C27.1599 19.261 27.1937 19.2828 27.2037 19.2933C27.172 19.26 27.2013 19.2955 27.2068 19.307C27.185 19.2618 27.2066 19.3168 27.2094 19.3287C27.2126 19.3425 27.2153 19.3564 27.2177 19.3703C27.2197 19.3818 27.2215 19.3933 27.2231 19.4048C27.2197 19.3791 27.2194 19.3785 27.2222 19.4032C27.2246 19.4396 27.2278 19.4756 27.2273 19.5122C27.2271 19.5303 27.2258 19.5483 27.2247 19.5663C27.2213 19.6221 27.2356 19.5276 27.2221 19.5815C27.2178 19.5989 27.2142 19.6162 27.2089 19.6333C27.2053 19.6446 27.2014 19.6558 27.197 19.6668C27.2065 19.6441 27.206 19.6436 27.1955 19.6654C27.1453 19.7628 27.167 19.8974 27.2707 19.9522C27.3667 20.0029 27.5039 19.9811 27.5575 19.877C27.653 19.6917 27.6569 19.4953 27.6274 19.2934C27.6135 19.1989 27.5861 19.1076 27.527 19.031C27.4592 18.9433 27.3695 18.8926 27.2678 18.8526C26.9526 18.7286 26.5631 18.8159 26.3396 19.0717C26.1514 19.2872 26.0122 19.6181 26.1182 19.9028C26.2234 20.1856 26.5074 20.3281 26.8004 20.3045C27.0914 20.2811 27.4094 20.1418 27.5575 19.877C27.611 19.7813 27.5837 19.6438 27.4823 19.5902C27.3834 19.538 27.2527 19.5632 27.1955 19.6654Z" fill="#662D91"/>
<path d="M24.6353 19.2951C24.3421 19.5469 24.2368 19.9534 24.2632 20.3272C24.2897 20.7042 24.3663 21.2679 24.8315 21.315C24.9443 21.3265 25.0411 21.2105 25.0411 21.1054C25.0411 20.9826 24.9446 20.9073 24.8315 20.8958C24.8624 20.899 24.8212 20.8824 24.8277 20.8883C24.8087 20.8709 24.7995 20.8576 24.7857 20.8273C24.7633 20.7783 24.752 20.719 24.7394 20.6658C24.7055 20.5227 24.6801 20.3791 24.6784 20.2317C24.6755 19.9902 24.7415 19.7549 24.9317 19.5915C25.0176 19.5177 25.0075 19.3709 24.9317 19.2951C24.8465 19.2099 24.7214 19.2211 24.6353 19.2951Z" fill="#662D91"/>
<path d="M13.3346 17.5038C12.8759 17.8417 12.6356 18.3505 12.4831 18.887C12.3225 19.4518 12.2498 20.0453 12.2627 20.632C12.2884 21.8004 12.6478 22.9574 13.307 23.9237C13.4581 24.1453 13.8215 23.9358 13.6689 23.7122C13.0715 22.8363 12.7289 21.8039 12.6854 20.7441C12.664 20.2207 12.712 19.697 12.8371 19.1881C12.9552 18.7079 13.1306 18.1719 13.5462 17.8657C13.7612 17.7074 13.5523 17.3435 13.3346 17.5038Z" fill="#662D91"/>
<path d="M16.3388 18.4158C15.9083 19.1197 15.9008 20.0613 15.998 20.8565C16.1009 21.6986 16.3768 22.509 16.8148 23.236C16.9539 23.4668 17.3165 23.2563 17.1768 23.0244C16.7784 22.3632 16.5143 21.6235 16.4172 20.8565C16.3263 20.1384 16.3107 19.2653 16.7008 18.6274C16.8419 18.3966 16.4795 18.1858 16.3388 18.4158Z" fill="#662D91"/>
<path d="M19.8764 21.3688C19.9544 21.678 20.0641 21.9775 20.1983 22.2666C20.2447 22.3663 20.3962 22.3991 20.4851 22.3418C20.5879 22.2755 20.6099 22.1617 20.5603 22.055C20.5448 22.0216 20.5296 21.988 20.5147 21.9542C20.5105 21.9445 20.4812 21.8798 20.5048 21.9316C20.4982 21.9173 20.4926 21.9024 20.4867 21.8878C20.4589 21.8195 20.4327 21.7505 20.4082 21.681C20.3591 21.5418 20.3168 21.4004 20.2807 21.2574C20.2538 21.1511 20.1289 21.0767 20.0228 21.111C19.9128 21.1466 19.8476 21.2549 19.8764 21.3688Z" fill="#662D91"/>
<path d="M22.7439 19.8075C22.613 20.4413 22.8053 21.1141 23.2629 21.5747C23.4533 21.7664 23.7498 21.47 23.5594 21.2783C23.3832 21.101 23.2559 20.8851 23.1851 20.6473C23.1669 20.5861 23.152 20.5239 23.1405 20.4611C23.1377 20.4454 23.135 20.4297 23.1326 20.4139C23.1267 20.3752 23.135 20.4375 23.1306 20.3985C23.1265 20.3628 23.1236 20.3271 23.1218 20.2912C23.1186 20.2275 23.119 20.1636 23.123 20.1C23.128 20.0207 23.1321 19.9965 23.1481 19.9189C23.171 19.8082 23.1159 19.6925 23.0017 19.6611C22.8979 19.6326 22.7669 19.6961 22.7439 19.8075Z" fill="#662D91"/>
<path d="M35.7386 36.2322C35.91 36.4346 36.0699 36.6454 36.2219 36.8627C36.3578 37.0569 36.5324 37.2603 36.5855 37.4959C36.6352 37.7161 36.6036 37.9539 36.5687 38.174C36.5253 38.4467 36.4791 38.7189 36.4365 38.9918C36.2628 40.1051 36.1149 41.2225 35.9933 42.3427C35.87 43.478 35.7743 44.6163 35.7055 45.7562C35.6373 46.8848 35.5543 48.0129 35.5181 49.1431C35.4772 50.4219 35.5024 51.7034 35.6716 52.9729C35.6866 53.086 35.7571 53.1812 35.8812 53.1825C35.9829 53.1836 36.1057 53.0851 36.0908 52.9729C35.7833 50.6651 35.9662 48.341 36.1082 46.0283C36.2506 43.7093 36.4824 41.3993 36.8407 39.1032C36.889 38.794 36.9452 38.4858 36.9894 38.1761C37.0269 37.9134 37.0504 37.6459 36.9897 37.3845C36.928 37.1183 36.7551 36.8971 36.6019 36.6769C36.4242 36.4215 36.2361 36.1733 36.035 35.9358C35.8603 35.7297 35.5651 36.0274 35.7386 36.2322Z" fill="#3B1954"/>
<path d="M41.6989 41.7597C42.2884 43.9131 43.008 46.0304 43.8561 48.0959C44.0987 48.6869 44.3515 49.2737 44.6139 49.8562C44.7245 50.1018 45.0859 49.8889 44.9758 49.6446C44.0707 47.6354 43.2885 45.5714 42.6341 43.4671C42.4466 42.8639 42.2699 42.2575 42.1031 41.6482C42.0319 41.3883 41.6274 41.4986 41.6989 41.7597Z" fill="#3B1954"/>
<path d="M4.84348 12.2206C5.38117 12.6135 5.87198 13.1006 6.2685 13.6356C6.3358 13.7264 6.45003 13.7724 6.55529 13.7108C6.64483 13.6585 6.69828 13.5155 6.63049 13.424C6.18558 12.8237 5.65841 12.2995 5.05508 11.8586C4.96363 11.7917 4.82133 11.8431 4.7683 11.9338C4.70619 12.0399 4.75181 12.1535 4.84348 12.2206Z" fill="#FFDE17"/>
<path d="M1.00241 16.1292C1.82936 16.2493 2.63733 16.4715 3.40936 16.7913C3.51399 16.8346 3.63986 16.7444 3.66719 16.6449C3.70031 16.5243 3.62583 16.4305 3.52079 16.387C2.74877 16.0673 1.94079 15.845 1.11384 15.7249C1.00195 15.7087 0.888615 15.7526 0.856008 15.8713C0.828932 15.9699 0.889677 16.1128 1.00241 16.1292Z" fill="#FFDE17"/>
<path d="M2.09003 24.2152C2.65793 23.7265 3.28816 23.3154 3.96065 22.9854C4.06226 22.9356 4.09002 22.7913 4.03585 22.6986C3.97522 22.595 3.85106 22.5734 3.74906 22.6234C3.04411 22.9693 2.38868 23.4067 1.7936 23.9188C1.70775 23.9927 1.71776 24.1394 1.7936 24.2152C1.87872 24.3003 2.00396 24.2893 2.09003 24.2152Z" fill="#FFDE17"/>
<path d="M6.50458 28.9063C6.68376 28.3307 6.86293 27.7551 7.0421 27.1796C7.12247 26.9214 6.71792 26.8109 6.63787 27.0681C6.4587 27.6437 6.27952 28.2193 6.10035 28.7949C6.01998 29.0531 6.42453 29.1635 6.50458 28.9063Z" fill="#FFDE17"/>
<path d="M32.9278 17.6191C32.1258 17.9622 31.3494 18.3617 30.604 18.8147C30.4548 18.9055 30.4746 19.1545 30.6541 19.1978C30.9699 19.2742 31.289 19.3344 31.6109 19.3782C31.7757 19.4007 31.941 19.4198 32.1067 19.4339C32.1802 19.4402 32.2538 19.4456 32.3275 19.4501C32.3717 19.4527 32.4159 19.4551 32.4602 19.4572C32.4863 19.4584 32.5743 19.4855 32.5264 19.4494L32.4225 19.2684L32.4214 19.2817L32.4828 19.1335L32.4723 19.1421L32.6763 19.0882L32.6662 19.084C32.5618 19.0401 32.4356 19.1312 32.4084 19.2304C32.3751 19.3513 32.45 19.4442 32.5548 19.4882L32.5648 19.4924C32.6362 19.5224 32.7153 19.4822 32.7688 19.4385C32.8467 19.3749 32.8633 19.2483 32.8131 19.1626C32.7539 19.0614 32.6537 19.0483 32.5486 19.0416C32.3496 19.029 32.151 19.0205 31.9524 19.0002C31.5524 18.9593 31.1563 18.888 30.7655 18.7936L30.8156 19.1767C31.561 18.7236 32.3374 18.3241 33.1393 17.9811C33.2434 17.9365 33.2666 17.7833 33.2145 17.6943C33.1515 17.5866 33.0323 17.5744 32.9278 17.6191Z" fill="#662D91"/>
<path d="M26.8217 17.5689C26.8488 17.5131 26.8787 17.4588 26.9119 17.4064C26.927 17.3826 26.9428 17.3593 26.9591 17.3364C26.9673 17.3249 26.9759 17.3137 26.9841 17.3023C26.9989 17.2821 26.9623 17.3285 26.9878 17.2981C27.0662 17.2044 27.1516 17.1209 27.246 17.0433C27.2703 17.0233 27.2064 17.0717 27.2506 17.0401C27.262 17.0319 27.2734 17.0235 27.2849 17.0154C27.3103 16.9977 27.3362 16.9806 27.3626 16.9643C27.4129 16.9331 27.4649 16.9047 27.5182 16.8792C27.5309 16.8731 27.5438 16.8673 27.5565 16.8614C27.6078 16.8376 27.5161 16.8766 27.5687 16.8562C27.595 16.846 27.6213 16.8361 27.648 16.827C27.7067 16.8071 27.7666 16.7911 27.8272 16.778C27.9346 16.7549 28.0071 16.6237 27.9736 16.5202C27.937 16.4071 27.8308 16.3491 27.7158 16.3738C27.1796 16.4892 26.6996 16.8637 26.4598 17.3573C26.4119 17.4558 26.4297 17.5884 26.535 17.6441C26.629 17.6938 26.7706 17.6742 26.8217 17.5689Z" fill="#662D91"/>
<path d="M32.451 15.7645C32.1021 15.4755 31.652 15.3692 31.2148 15.2918C30.7463 15.2088 30.2704 15.197 29.8343 15.412C29.5923 15.5314 29.8045 15.8931 30.0459 15.774C30.3847 15.6069 30.7828 15.6363 31.1436 15.7033C31.4838 15.7665 31.8803 15.8337 32.1546 16.0609C32.2417 16.1331 32.3657 16.1463 32.451 16.0609C32.5253 15.9866 32.5386 15.8371 32.451 15.7645Z" fill="#662D91"/>
<path d="M29.1046 20.487C28.7572 20.4452 28.3661 20.6051 28.2176 20.9378C28.1434 21.1042 28.1171 21.2955 28.186 21.469C28.2536 21.6395 28.3765 21.7827 28.5391 21.8701C28.7278 21.9717 28.9482 22.0008 29.1594 21.9776C29.268 21.9657 29.3745 21.8897 29.369 21.768C29.3644 21.6647 29.2761 21.5456 29.1594 21.5584C29.1135 21.5634 29.0675 21.5666 29.0213 21.5664C28.9998 21.5663 28.9783 21.5656 28.9568 21.5642C28.9446 21.5633 28.9323 21.5623 28.9201 21.5609C28.9454 21.5647 28.9458 21.5647 28.9212 21.5609C28.879 21.5523 28.8386 21.5407 28.7972 21.5292C28.7515 21.5164 28.8184 21.5422 28.7794 21.5226C28.7602 21.513 28.7412 21.5034 28.7228 21.4922C28.718 21.4893 28.6667 21.4549 28.6909 21.4721C28.7147 21.489 28.6675 21.4513 28.663 21.447C28.6512 21.4359 28.6242 21.4159 28.619 21.4004L28.6319 21.4178C28.6255 21.4093 28.6194 21.4006 28.6136 21.3917C28.6019 21.3739 28.5921 21.3553 28.5821 21.3365C28.5589 21.293 28.5917 21.3755 28.5792 21.3278C28.5752 21.3124 28.5597 21.2819 28.5637 21.266C28.5672 21.2956 28.5678 21.2985 28.5656 21.2747C28.565 21.2668 28.5647 21.2589 28.5647 21.251C28.5645 21.2357 28.5611 21.2102 28.5672 21.196C28.563 21.2256 28.5629 21.2286 28.567 21.205C28.5692 21.1946 28.5716 21.1844 28.5743 21.1742C28.5785 21.1588 28.5839 21.144 28.5889 21.1289C28.5973 21.1071 28.5965 21.1091 28.5863 21.1349C28.5908 21.1253 28.5956 21.1158 28.6007 21.1065C28.6084 21.0925 28.6167 21.0788 28.6255 21.0654C28.6314 21.0565 28.6375 21.0478 28.6439 21.0393C28.6274 21.0606 28.6266 21.0623 28.6414 21.0445C28.6529 21.0334 28.6632 21.0211 28.6748 21.0101C28.6825 21.0028 28.6905 20.9957 28.6986 20.9889C28.6776 21.0044 28.6769 21.0051 28.6964 20.9909C28.7306 20.969 28.7643 20.9484 28.8016 20.9319C28.7547 20.9526 28.8234 20.9259 28.8327 20.9232C28.8493 20.9182 28.8661 20.9139 28.8831 20.9101C28.8939 20.9077 28.967 20.8992 28.9132 20.9036C28.9306 20.9022 28.948 20.9005 28.9654 20.8998C29.012 20.898 29.0583 20.9007 29.1046 20.9062C29.2138 20.9194 29.3188 20.8004 29.3142 20.6966C29.3086 20.5718 29.2216 20.5011 29.1046 20.487Z" fill="#662D91"/>
<path d="M30.0714 22.6535C30.2546 22.8438 30.5213 22.9041 30.7762 22.8657C31.031 22.8274 31.2497 22.6798 31.4447 22.5198C31.6272 22.3701 31.7955 22.198 31.9221 21.9977C32.0335 21.8216 32.2464 21.4067 31.9874 21.2663C31.9121 21.2255 31.7927 21.2267 31.7334 21.299L31.7277 21.306C31.6559 21.3934 31.6421 21.5168 31.7277 21.6024C31.8017 21.6764 31.952 21.6904 32.0241 21.6024L32.0298 21.5955L31.7758 21.6282L31.7855 21.6335L31.7103 21.5583L31.7002 21.5357V21.4243C31.6435 21.7596 31.4069 22.0113 31.1483 22.2234C31.0215 22.3274 30.8771 22.4208 30.7142 22.4533C30.5947 22.4771 30.4557 22.4483 30.3679 22.3571C30.1804 22.1624 29.8841 22.4591 30.0714 22.6535Z" fill="#662D91"/>
<path d="M31.5453 21.5176C31.7026 21.5596 31.8598 21.6016 32.0171 21.6436C32.0699 21.6577 32.1313 21.6502 32.1786 21.6225C32.2221 21.5971 32.2636 21.5472 32.275 21.4972C32.2872 21.4436 32.2845 21.3833 32.2538 21.3357C32.2243 21.29 32.1822 21.2537 32.1286 21.2394C31.9713 21.1974 31.814 21.1554 31.6567 21.1134C31.6039 21.0993 31.5425 21.1068 31.4952 21.1345C31.4517 21.16 31.4103 21.2098 31.3989 21.2598C31.3867 21.3134 31.3893 21.3737 31.42 21.4213C31.4495 21.467 31.4916 21.5033 31.5453 21.5176Z" fill="#662D91"/>
<path d="M36.3626 9.98749C35.1352 9.18174 33.5406 9.12622 32.1113 9.46196C30.682 9.79769 29.3648 10.4843 28.0265 11.0882C26.6883 11.6922 25.2746 12.2264 23.8064 12.2244C23.6361 12.5516 23.9404 12.9209 24.2346 13.1433C26.0791 14.538 28.5807 14.9162 30.8351 14.4015C33.0896 13.8868 35.1007 12.5448 36.6739 10.85C36.2408 11.7233 36.3347 12.7839 36.7013 13.6872C37.0678 14.5904 37.6803 15.3687 38.2879 16.131C38.1545 15.3716 38.8116 14.665 39.5429 14.4208C40.6193 14.0614 41.9502 14.5232 42.4578 15.5381C42.9655 16.553 42.4412 17.986 41.3572 18.3217C43.7148 19.3992 46.3778 20.2198 48.8754 19.526C49.021 19.4856 49.1719 19.4361 49.2763 19.3269C49.3819 19.2165 49.4242 19.0618 49.4626 18.914C49.9597 17.0007 50.3914 15.0629 49.9418 13.0977C49.362 10.5628 47.7371 8.07145 45.0399 7.51614C42.0003 6.8903 38.7789 7.96045 36.4697 9.97415" fill="#662D91"/>
<path d="M36.4681 9.80629C35.0827 8.91103 33.3237 8.91491 31.7771 9.32974C30.0161 9.80206 28.4441 10.7594 26.7463 11.398C25.8029 11.7529 24.8195 12.0107 23.8061 12.0146C23.7383 12.0149 23.6546 12.053 23.6251 12.1184C23.4008 12.6171 23.7674 13.0522 24.1507 13.3407C24.5476 13.6396 24.9798 13.8921 25.4317 14.0983C26.3496 14.517 27.34 14.7512 28.3461 14.8139C30.4029 14.942 32.432 14.3099 34.1632 13.2191C35.1433 12.6016 36.0327 11.8447 36.8218 10.998L36.4926 10.744C36.0509 11.6605 36.108 12.7258 36.4667 13.661C36.842 14.6394 37.4926 15.4673 38.1394 16.279C38.286 16.4629 38.5172 16.2538 38.4897 16.0751C38.3989 15.4831 38.8781 14.9695 39.3676 14.7198C39.8526 14.4725 40.4408 14.454 40.9584 14.6009C41.4679 14.7454 41.9371 15.0605 42.2099 15.5214C42.4641 15.9511 42.5007 16.4705 42.3636 16.9455C42.2108 17.4748 41.8359 17.9458 41.3012 18.1194C41.1458 18.1698 41.076 18.4228 41.2511 18.5025C43.3461 19.4572 45.6656 20.2369 47.9975 19.9182C48.2919 19.878 48.5838 19.8213 48.8708 19.7443C49.106 19.6812 49.3417 19.5994 49.4899 19.3942C49.643 19.1823 49.6845 18.8944 49.7474 18.6468C49.824 18.3457 49.8979 18.0439 49.9659 17.7408C50.2338 16.5466 50.4174 15.3145 50.3073 14.0888C50.1382 12.2074 49.3231 10.2667 47.986 8.91632C47.3508 8.27483 46.5805 7.77391 45.724 7.48394C44.7634 7.15875 43.6944 7.08301 42.6876 7.14657C40.6053 7.27803 38.5788 8.077 36.9224 9.33759C36.7168 9.49402 36.5163 9.65647 36.3212 9.82574C36.117 10.0028 36.4146 10.2983 36.6176 10.1222C38.1027 8.83385 39.9429 7.95107 41.8893 7.65111C43.6881 7.37389 45.693 7.56934 47.1581 8.73474C48.5 9.80205 49.3244 11.4149 49.7175 13.0593C49.9894 14.1966 49.9619 15.3753 49.7773 16.5241C49.6843 17.1029 49.5566 17.6756 49.4161 18.2445C49.3519 18.5046 49.3029 18.7791 49.2099 19.0305C49.1189 19.2763 48.8678 19.3144 48.6392 19.3711C46.4768 19.907 44.22 19.302 42.2156 18.47C41.9626 18.3649 41.712 18.2541 41.4627 18.1405L41.4126 18.5236C42.6145 18.1335 43.18 16.6376 42.6751 15.5099C42.1206 14.2714 40.4761 13.7716 39.2716 14.3033C38.5378 14.6272 37.9581 15.3563 38.0855 16.1865L38.4358 15.9825C37.8491 15.2463 37.2447 14.4866 36.8922 13.6041C36.5584 12.7681 36.4535 11.7879 36.8545 10.9555C36.9524 10.7526 36.6974 10.5169 36.5253 10.7015C35.2392 12.0816 33.6708 13.2348 31.8851 13.8751C30.1238 14.5066 28.1795 14.6048 26.39 14.0245C25.8907 13.8626 25.4107 13.6471 24.9596 13.3785C24.7395 13.2475 24.5179 13.1074 24.3195 12.9448C24.1642 12.8176 23.884 12.5591 23.9871 12.33L23.8061 12.4338C25.591 12.4269 27.2406 11.6857 28.829 10.9487C30.3824 10.2279 31.9976 9.47177 33.7464 9.47758C34.6315 9.48051 35.508 9.68457 36.2565 10.1683C36.4837 10.3151 36.6941 9.95238 36.4681 9.80629Z" fill="#662D91"/>
<path d="M40.8762 15.9189C40.7744 15.8996 40.6714 15.8989 40.5712 15.9295C40.4747 15.9591 40.3836 16.011 40.3123 16.083C40.2413 16.1549 40.1891 16.2461 40.1608 16.343C40.1313 16.4433 40.1318 16.5464 40.1522 16.6481L40.1734 16.6982C40.1865 16.7226 40.2046 16.7422 40.2274 16.757C40.2641 16.7854 40.307 16.8017 40.3544 16.802C40.3824 16.8022 40.4105 16.8024 40.4385 16.8026C40.4921 16.8029 40.549 16.7789 40.5868 16.7412C40.6231 16.7048 40.6505 16.6452 40.6481 16.593C40.643 16.4788 40.5561 16.3841 40.4385 16.3834C40.4105 16.3832 40.3824 16.383 40.3544 16.3828L40.5565 16.5367C40.5546 16.5272 40.553 16.5177 40.5516 16.5081L40.5591 16.5638C40.555 16.53 40.5551 16.4964 40.5591 16.4626L40.5516 16.5183C40.5566 16.4821 40.5658 16.4473 40.5795 16.4134L40.5584 16.4634C40.5726 16.4298 40.5906 16.3986 40.6128 16.3697L40.5801 16.4121C40.5998 16.3874 40.622 16.3654 40.6468 16.3458L40.6044 16.3786C40.6316 16.3581 40.6606 16.3412 40.6919 16.3276L40.6418 16.3487C40.6755 16.3347 40.7103 16.325 40.7464 16.3197L40.6907 16.3272C40.7269 16.3224 40.7629 16.3223 40.7991 16.327L40.7434 16.3195C40.7506 16.3206 40.7577 16.3218 40.7648 16.3231C40.821 16.3337 40.8756 16.3317 40.9263 16.302C40.9698 16.2765 41.0113 16.2267 41.0227 16.1767C41.0349 16.123 41.0322 16.0628 41.0015 16.0152C40.9733 15.9714 40.9293 15.9289 40.8762 15.9189Z" fill="#662D91"/>
<path d="M49.5888 9.7632C49.3649 9.15906 48.9564 8.62473 48.4321 8.25015C48.919 7.49689 49.1323 6.60401 49.4907 5.78182C50.2666 4.00222 51.7659 2.55082 53.5698 1.83331C55.3737 1.11579 57.4603 1.1408 59.2465 1.90132C60.0147 2.2284 60.7337 2.68647 61.5438 2.88852C62.3538 3.09058 63.3238 2.97029 63.8416 2.3154C63.4395 4.24313 62.5396 6.2462 60.7805 7.13134C59.5456 7.7527 58.0925 7.71958 56.7151 7.6019C55.6413 7.51016 54.5257 7.35934 53.6315 6.75771C54.5446 7.70307 55.8426 8.26517 57.1568 8.28425C56.0384 8.95529 54.6315 8.75518 53.3298 8.67262C52.0281 8.59005 50.3247 8.68633 49.5888 9.7632Z" fill="#662D91"/>
<path d="M49.7908 9.70798C49.5383 9.04487 49.1113 8.48712 48.5377 8.06967L48.6129 8.35646C48.977 7.78391 49.196 7.13985 49.429 6.50691C49.6394 5.93517 49.8855 5.38584 50.2149 4.87184C50.8465 3.88622 51.7182 3.05607 52.7325 2.47178C53.8664 1.81855 55.1677 1.49828 56.4746 1.52421C57.147 1.53755 57.814 1.64278 58.4577 1.83785C59.1141 2.03682 59.7115 2.35719 60.3287 2.64962C60.9596 2.94858 61.6252 3.20428 62.3343 3.18711C62.9551 3.17207 63.5874 2.9564 63.9897 2.46415L63.6394 2.26022C63.3234 3.75905 62.7356 5.31185 61.5613 6.35109C60.1852 7.56898 58.2945 7.53682 56.5709 7.38016C55.5869 7.29072 54.5772 7.13254 53.7372 6.57727C53.535 6.44363 53.3199 6.7394 53.4832 6.90647C54.446 7.89191 55.7797 8.4664 57.1566 8.4944L57.0508 8.10381C56.0082 8.71522 54.7413 8.56333 53.5894 8.48122C52.6166 8.41189 51.5817 8.39068 50.6537 8.73727C50.1537 8.92403 49.7164 9.21728 49.4077 9.65791C49.2525 9.87931 49.6158 10.089 49.7696 9.86949C50.3024 9.10919 51.3369 8.91698 52.2028 8.87137C53.2799 8.81464 54.3503 9.02424 55.4271 8.96603C56.0699 8.93128 56.7027 8.79396 57.2624 8.46577C57.444 8.35927 57.3629 8.07937 57.1566 8.07518C55.8881 8.04938 54.6659 7.51711 53.7796 6.61003L53.5256 6.93923C54.3205 7.46464 55.2624 7.65713 56.1951 7.7616C57.1442 7.86792 58.1182 7.93898 59.07 7.82762C59.9706 7.72225 60.8386 7.43909 61.566 6.88591C62.2097 6.39631 62.7164 5.75075 63.1008 5.04249C63.553 4.20935 63.8486 3.29678 64.0436 2.37164C64.0827 2.18621 63.8365 1.99242 63.6933 2.16771C62.8652 3.18095 61.41 2.70837 60.4299 2.23476C59.8104 1.93538 59.2023 1.6229 58.5404 1.425C57.9005 1.23367 57.2321 1.12811 56.5647 1.10722C54.0281 1.02781 51.6168 2.23079 50.1198 4.27115C49.7158 4.82182 49.4004 5.42353 49.1519 6.05875C48.8753 6.76558 48.6614 7.49929 48.251 8.14486C48.1858 8.24729 48.2374 8.36702 48.3262 8.43164C48.8044 8.77964 49.1762 9.26682 49.3866 9.81942C49.4816 10.0691 49.887 9.96079 49.7908 9.70798Z" fill="#662D91"/>
</svg>
