<svg width="65" height="64" viewBox="0 0 65 64" fill="none" xmlns="http://www.w3.org/2000/svg">
<path d="M25.5532 34.4202C24.1243 40.6437 23.4083 47.0305 23.4234 53.4158C23.4258 54.4189 23.404 55.451 23.121 56.4209C22.9887 56.8744 22.78 57.2605 22.5518 57.6693C22.2911 58.1363 21.9481 58.2691 21.4465 58.4577C20.5186 58.8065 19.5679 59.356 19.2137 60.2818C18.9519 60.9659 19.0848 61.7858 19.5491 62.3523C20.6893 63.7432 23.0864 63.701 24.6816 63.5067C24.5633 62.9633 25.0567 62.377 25.6122 62.4006C26.1678 62.4242 26.6096 63.0503 26.4456 63.5817C27.5681 63.5413 31.5138 64.1241 31.4023 62.5029C30.8387 54.3116 31.9247 46.0101 34.5763 38.2393" fill="#FFDE17"/>
<path d="M25.3959 34.3768C24.7978 36.9862 24.3245 39.6231 23.976 42.2774C23.6269 44.9356 23.4049 47.6106 23.3113 50.2901C23.2881 50.9528 23.2728 51.6159 23.2653 52.279C23.258 52.937 23.2707 53.5956 23.2517 54.2534C23.2331 54.8973 23.1785 55.5427 23.0205 56.1688C22.9477 56.4569 22.8495 56.7342 22.7207 57.0021C22.5978 57.2577 22.4708 57.5374 22.2974 57.7632C22.0139 58.1323 21.5293 58.2414 21.1207 58.4129C20.646 58.6121 20.1891 58.86 19.799 59.1995C19.4195 59.5296 19.1149 59.9602 18.9885 60.4516C18.8582 60.9588 18.9135 61.5026 19.1278 61.9786C19.5156 62.8404 20.4226 63.3355 21.3 63.5614C22.1971 63.7923 23.1452 63.8039 24.0638 63.732C24.2702 63.7159 24.4762 63.6947 24.6817 63.6699C24.7922 63.6565 24.8608 63.5768 24.8391 63.4633C24.7526 63.0099 25.1814 62.5116 25.6501 62.5663C26.0932 62.6181 26.4069 63.1175 26.2884 63.5382C26.2604 63.6377 26.3397 63.7484 26.4458 63.7449C26.9736 63.7274 27.5052 63.7815 28.0325 63.8004C28.6982 63.8244 29.3699 63.8306 30.0307 63.7349C30.5245 63.6634 31.1226 63.5228 31.419 63.0801C31.5834 62.8344 31.5693 62.5664 31.5509 62.2839C31.5117 61.6818 31.4813 61.079 31.4598 60.476C31.374 58.0637 31.43 55.6466 31.6259 53.2408C31.8206 50.8493 32.1544 48.4697 32.6251 46.1169C33.0986 43.7501 33.7097 41.4108 34.4564 39.1154C34.5469 38.8372 34.6395 38.5596 34.7339 38.2827C34.8018 38.0834 34.4866 37.9978 34.4191 38.1959C33.6523 40.4462 33.0149 42.74 32.5117 45.0635C32.0131 47.3653 31.6456 49.6956 31.409 52.0389C31.1702 54.404 31.0669 56.7829 31.1006 59.1598C31.1089 59.7449 31.1256 60.3299 31.1506 60.9145C31.1635 61.2159 31.1786 61.5173 31.1959 61.8185C31.2104 62.0703 31.2441 62.3264 31.2414 62.5786C31.2393 62.7729 31.1564 62.9311 31.0021 63.0576C30.8275 63.2008 30.5898 63.2817 30.3688 63.3378C29.7601 63.4921 29.1143 63.4958 28.4903 63.4861C27.9039 63.477 27.319 63.4321 26.7328 63.4184C26.6372 63.4162 26.5414 63.4152 26.4458 63.4184L26.6032 63.625C26.7797 62.9984 26.3039 62.2939 25.6501 62.2399C24.9562 62.1825 24.3989 62.8925 24.5244 63.55L24.6817 63.3434C23.8049 63.4493 22.9054 63.4948 22.0278 63.3722C21.1641 63.2516 20.267 62.9537 19.6888 62.2659C19.3553 61.8691 19.2073 61.3383 19.2528 60.8254C19.2973 60.323 19.5609 59.8749 19.9197 59.5307C20.2813 59.1839 20.7291 58.9349 21.1862 58.737C21.6008 58.5575 22.0654 58.4479 22.4032 58.1303C22.5902 57.9544 22.7089 57.727 22.8294 57.5039C22.9681 57.247 23.0966 56.9841 23.1975 56.7099C23.4091 56.1349 23.4973 55.5119 23.5447 54.9037C23.5935 54.2761 23.5852 53.6468 23.5868 53.0179C23.5884 52.3547 23.5978 51.6916 23.6151 51.0286C23.6834 48.4148 23.874 45.8041 24.1855 43.2079C24.4998 40.5887 24.9394 37.9844 25.4999 35.4066C25.5683 35.0919 25.6387 34.7775 25.7107 34.4636C25.7575 34.2591 25.4429 34.1718 25.3959 34.3768Z" fill="#662D91"/>
<path d="M25.5533 34.4202C25.5525 34.4237 25.5517 34.4272 25.551 34.4307C25.2613 36.1857 24.9193 37.9321 24.5258 39.6669C24.091 42.3287 23.7836 45.0114 23.6063 47.7027C26.4373 47.432 29.3056 47.5565 32.1025 48.0716C32.6576 44.7339 34.3005 39.1532 35.3932 35.951L25.5533 34.4202Z" fill="#1F033D"/>
<path d="M26.7618 57.8424C26.7223 57.8457 26.6914 57.8487 26.6701 57.8513C26.5961 57.8602 26.5039 57.8605 26.4675 57.7955C26.4413 57.7488 26.4585 57.6908 26.4747 57.6399C26.7143 56.8899 26.631 56.0229 26.1738 55.382C25.5621 54.5246 23.9211 54.1144 23.136 54.9973C22.815 55.3582 22.8321 55.8967 22.8508 56.3793C22.8915 57.4309 22.4136 58.0941 21.4462 58.4578C20.5185 58.8066 19.5678 59.3561 19.2137 60.2818C18.9519 60.9659 19.0848 61.7858 19.5492 62.3523C20.6893 63.7432 23.0864 63.701 24.6816 63.5066C24.5633 62.9633 25.0567 62.3769 25.6122 62.4006C26.1678 62.4242 26.6096 63.0503 26.4456 63.5816C27.5681 63.5412 31.5138 64.1241 31.4023 62.5029C31.29 60.8714 31.2443 59.2355 31.2623 57.6003C31.2624 57.5914 27.502 57.7801 26.7618 57.8424Z" fill="#FFDE17"/>
<path d="M26.7618 57.6792C26.7258 57.6824 26.6898 57.6873 26.6538 57.6896C26.6433 57.6903 26.6125 57.6873 26.604 57.6923L26.5933 57.6912C26.5752 57.6874 26.578 57.6924 26.6016 57.7063L26.6205 57.7225C26.6263 57.7022 26.6324 57.6821 26.6388 57.662C26.6452 57.6406 26.6518 57.6193 26.6579 57.5979C26.6741 57.5406 26.6885 57.4827 26.701 57.4245C26.743 57.2284 26.7665 57.0269 26.7686 56.8263C26.7726 56.419 26.6885 56.013 26.5156 55.644C26.2257 55.0257 25.655 54.6118 25.0047 54.4333C24.3901 54.2646 23.6907 54.3131 23.1823 54.7274C22.8832 54.9712 22.7413 55.3083 22.6973 55.6852C22.6533 56.0632 22.7195 56.4438 22.6716 56.8211C22.5891 57.472 22.1816 57.9446 21.5983 58.2183C21.2551 58.3793 20.8965 58.4963 20.5616 58.6776C20.223 58.8609 19.8991 59.0843 19.6283 59.3596C19.0756 59.9217 18.8121 60.6874 18.963 61.4682C19.1028 62.1913 19.5996 62.7654 20.2233 63.1307C21.4 63.8199 22.896 63.8376 24.2157 63.7193C24.3713 63.7054 24.5266 63.6886 24.6816 63.6699C24.792 63.6566 24.8608 63.5768 24.839 63.4633C24.7521 63.0104 25.1806 62.5129 25.6483 62.5662C26.092 62.6167 26.4074 63.1172 26.2883 63.5383C26.2601 63.6377 26.3397 63.7484 26.4457 63.7449C26.9216 63.7291 27.4008 63.775 27.8762 63.7944C28.4928 63.8196 29.114 63.8335 29.729 63.772C30.2304 63.7219 30.7925 63.637 31.1998 63.315C31.3645 63.1847 31.4922 63.0071 31.5409 62.8006C31.5731 62.6642 31.5673 62.5314 31.558 62.3929C31.539 62.1088 31.522 61.8245 31.507 61.54C31.4377 60.228 31.4117 58.914 31.4255 57.6003C31.4261 57.5484 31.3952 57.4811 31.3447 57.4594C31.2199 57.4057 31.0423 57.4447 30.9115 57.4507C30.6015 57.465 30.2915 57.4804 29.9815 57.496C29.196 57.5355 28.4106 57.5766 27.6254 57.6227C27.3375 57.6396 27.0493 57.6553 26.7618 57.6792C26.554 57.6965 26.5521 58.0231 26.7618 58.0057C28.0949 57.8945 29.4359 57.8467 30.7719 57.7837C30.8885 57.7782 31.005 57.7727 31.1216 57.7679C31.1545 57.7665 31.1884 57.7674 31.2211 57.7641C31.276 57.7585 31.2852 57.7865 31.1799 57.7412L31.0991 57.6003C31.0873 58.7211 31.1043 59.8421 31.1528 60.9619C31.1757 61.4918 31.2349 62.0251 31.2412 62.555C31.2433 62.7294 31.1868 62.8766 31.0674 62.9976C30.7642 63.305 30.2315 63.3893 29.8124 63.4367C29.2223 63.5035 28.6249 63.4953 28.0324 63.474C27.5051 63.4551 26.9735 63.4009 26.4457 63.4185L26.6031 63.6251C26.7805 62.9977 26.3022 62.2931 25.6483 62.2398C24.9555 62.1832 24.3982 62.8935 24.5242 63.5501L24.6816 63.3435C23.4229 63.4955 22.0519 63.5476 20.8514 63.0747C20.2564 62.8402 19.6891 62.4283 19.4182 61.8331C19.1014 61.1369 19.2324 60.3192 19.7227 59.7398C20.1995 59.1762 20.8733 58.8598 21.5455 58.5936C22.1251 58.3641 22.6244 57.9813 22.861 57.3895C22.9808 57.0901 23.0221 56.7612 23.0157 56.4403C23.0085 56.0724 22.963 55.6695 23.1187 55.3232C23.3775 54.7478 24.1126 54.5994 24.6766 54.6945C25.2744 54.7953 25.8468 55.1156 26.1523 55.6515C26.3476 55.9941 26.4397 56.3888 26.4422 56.7817C26.4434 56.9763 26.4238 57.1697 26.3814 57.3596C26.3427 57.5327 26.2227 57.7506 26.3521 57.9109C26.4552 58.0386 26.616 58.0184 26.7618 58.0057C26.9694 57.9875 26.9714 57.6609 26.7618 57.6792Z" fill="#662D91"/>
<path d="M22.0228 61.1646C21.9669 61.1161 21.9534 61.0361 21.9439 60.9627C21.888 60.5315 21.8493 60.0949 21.7219 59.6792C21.5963 59.2695 21.3589 58.8943 21.046 58.6216C20.2571 58.9727 19.5168 59.4893 19.2137 60.2818C18.9519 60.9659 19.0848 61.7858 19.5491 62.3523C20.6893 63.7432 23.0864 63.701 24.6816 63.5066C24.5633 62.9633 25.0567 62.3769 25.6122 62.4005C26.1678 62.4242 26.6096 63.0503 26.4456 63.5816C27.5681 63.5412 31.5138 64.1241 31.4023 62.5029C31.368 62.0054 31.3408 61.5075 31.3188 61.0094C28.2922 61.0774 25.2656 61.1454 22.239 61.2134C22.1633 61.2151 22.08 61.2142 22.0228 61.1646Z" fill="#662D91"/>
<path d="M22.1382 61.0492C22.0733 60.9787 22.0859 60.7937 22.0748 60.7036C22.0602 60.5853 22.0453 60.4671 22.0285 60.3492C21.9931 60.1012 21.9484 59.8531 21.8723 59.6139C21.7374 59.1897 21.4942 58.8027 21.1614 58.5061C21.1018 58.4531 21.0338 58.4491 20.9636 58.4806C20.2981 58.7795 19.6467 59.1985 19.2554 59.8314C18.8513 60.4848 18.8173 61.3027 19.1363 61.9977C19.7129 63.2537 21.2574 63.6608 22.5142 63.748C23.2368 63.7982 23.9635 63.7566 24.6816 63.6698C24.792 63.6565 24.8608 63.5767 24.839 63.4632C24.752 63.0103 25.1805 62.5128 25.6483 62.5661C26.092 62.6166 26.4074 63.1171 26.2883 63.5382C26.2601 63.6376 26.3396 63.7483 26.4456 63.7448C26.8123 63.7326 27.181 63.7623 27.5471 63.7797C28.0374 63.8029 28.5285 63.8219 29.0195 63.8119C29.4979 63.8021 29.9861 63.7711 30.4516 63.6535C30.8094 63.5631 31.1847 63.4096 31.4057 63.099C31.5198 62.9386 31.5719 62.7404 31.5675 62.5446C31.5559 62.0333 31.5047 61.5206 31.482 61.0093C31.4782 60.9227 31.4104 60.8441 31.3188 60.8461C28.9049 60.9004 26.4911 60.9546 24.0772 61.0089C23.743 61.0164 23.4088 61.0239 23.0745 61.0314C22.8981 61.0353 22.7217 61.0393 22.5453 61.0433C22.4243 61.046 22.208 61.094 22.1052 61.0236C21.9314 60.9047 21.7679 61.1874 21.9404 61.3055C22.0303 61.367 22.1326 61.3771 22.239 61.3766C22.406 61.3758 22.5733 61.3691 22.7403 61.3653C23.0467 61.3584 23.3531 61.3515 23.6594 61.3447C24.2815 61.3307 24.9035 61.3167 25.5255 61.3027C26.751 61.2752 27.9765 61.2476 29.202 61.2201C29.9076 61.2043 30.6132 61.1884 31.3188 61.1725L31.1556 61.0093C31.1761 61.4706 31.2008 61.9316 31.2315 62.3923C31.2432 62.5669 31.2498 62.7228 31.1715 62.8592C31.0204 63.1226 30.6919 63.2535 30.3887 63.3326C29.5052 63.5629 28.5438 63.4992 27.6411 63.4576C27.2438 63.4393 26.8436 63.4051 26.4456 63.4184L26.603 63.625C26.7805 62.9976 26.3022 62.293 25.6483 62.2397C24.9554 62.1831 24.3982 62.8934 24.5242 63.55L24.6816 63.3434C23.4944 63.4868 22.2255 63.5355 21.0754 63.1555C20.526 62.974 19.9929 62.6686 19.637 62.2021C19.2116 61.6445 19.1194 60.8472 19.4198 60.2117C19.7524 59.508 20.4414 59.071 21.1283 58.7625L20.9306 58.7369C21.2791 59.0474 21.5008 59.4475 21.613 59.8983C21.6746 60.1459 21.7104 60.3987 21.7419 60.6517C21.768 60.8604 21.7568 61.1165 21.9074 61.28C22.05 61.4348 22.2804 61.2035 22.1382 61.0492Z" fill="#662D91"/>
<path d="M23.6326 47.7049C24.7284 47.5243 25.8465 47.4754 26.9557 47.4833C28.0889 47.4913 29.226 47.5614 30.3485 47.7196C30.8828 47.7949 31.4151 47.8899 31.9382 48.0231C32.1419 48.075 32.2287 47.7602 32.025 47.7084C31.0147 47.4511 29.9699 47.3225 28.9322 47.241C27.7479 47.148 26.5551 47.1267 25.3688 47.1949C24.7584 47.23 24.1492 47.2907 23.5458 47.3901C23.339 47.4242 23.4267 47.7388 23.6326 47.7049Z" fill="#662D91"/>
<path d="M30.3638 47.4736C30.5308 45.9462 30.8229 44.4323 31.1605 42.9343C31.5163 41.3563 31.931 39.7904 32.4099 38.2452C32.6444 37.4884 32.895 36.7364 33.1727 35.9944C33.2464 35.7974 32.931 35.7123 32.8579 35.9076C32.3341 37.3071 31.8995 38.7404 31.5083 40.1821C31.0786 41.7654 30.7038 43.3653 30.409 44.9794C30.2579 45.8064 30.1287 46.6379 30.0374 47.4736C30.0146 47.6822 30.3412 47.6806 30.3638 47.4736Z" fill="#662D91"/>
<path d="M27.951 47.33C28.2959 44.2159 28.9358 41.1282 29.7973 38.1169C30.0326 37.2947 30.2865 36.4779 30.5611 35.6679C30.6287 35.4685 30.3135 35.3829 30.2463 35.5811C29.2357 38.5624 28.484 41.6387 27.9789 44.7454C27.8393 45.6038 27.7203 46.4656 27.6246 47.33C27.6015 47.5385 27.9281 47.5369 27.951 47.33Z" fill="#662D91"/>
<path d="M25.6108 47.2083C25.774 45.5773 26.0187 43.9548 26.3301 42.3457C26.6512 40.6869 27.0431 39.0404 27.5249 37.4207C27.7823 36.555 28.0665 35.6971 28.3849 34.8519C28.4591 34.6551 28.1437 34.5701 28.0702 34.7651C27.4906 36.3034 27.0227 37.8827 26.6275 39.4777C26.217 41.1345 25.8851 42.8111 25.6279 44.4985C25.4908 45.3987 25.375 46.3022 25.2844 47.2083C25.2635 47.4172 25.5901 47.4157 25.6108 47.2083Z" fill="#662D91"/>
<path d="M33.6194 33.627C35.9642 33.4453 38.3262 33.4861 40.6634 33.7489C42.4776 33.9529 42.6581 35.3996 43.1133 36.9011C43.6451 38.6549 44.1193 40.4261 44.5353 42.2109C45.3672 45.7805 45.966 49.4045 46.325 53.0521C46.4232 54.0504 46.5485 55.075 46.9273 56.0118C47.1044 56.4497 47.3508 56.8128 47.6188 57.1967C47.925 57.6352 48.2796 57.733 48.7977 57.8703C49.7558 58.1242 50.7569 58.5756 51.2022 59.4612C51.5313 60.1156 51.4813 60.9447 51.0761 61.5549C50.0812 63.0532 47.692 63.2517 46.0853 63.2183C46.1485 62.6658 45.5988 62.1319 45.0484 62.2111C44.498 62.2904 44.1213 62.9577 44.3377 63.4699C43.2168 63.5422 39.3495 64.5179 39.2979 62.8938C39.0369 54.6872 37.1237 46.5365 33.7059 39.0709" fill="#FFDE17"/>
<path d="M33.6194 33.7902C35.31 33.6606 37.0085 33.6439 38.7011 33.744C39.1218 33.7689 39.542 33.8008 39.9615 33.84C40.3349 33.8748 40.7198 33.8931 41.0827 33.9938C41.5649 34.1275 41.9537 34.4232 42.2147 34.8492C42.4814 35.2845 42.6227 35.784 42.7617 36.271C42.9595 36.9644 43.1709 37.6538 43.368 38.3474C43.8259 39.9585 44.2358 41.5833 44.5968 43.2188C45.3167 46.4808 45.8362 49.7828 46.1672 53.1066C46.3195 54.6367 46.5705 56.1955 47.5833 57.4176C47.9798 57.8959 48.6008 57.9643 49.1568 58.1464C49.7493 58.3403 50.3401 58.6257 50.7605 59.0987C51.2116 59.6061 51.365 60.3125 51.173 60.9633C51.0088 61.5195 50.5845 61.96 50.1015 62.2614C49.1438 62.8591 47.9497 63.015 46.8425 63.0512C46.5902 63.0595 46.3377 63.06 46.0854 63.0551L46.2486 63.2183C46.3078 62.5369 45.6242 61.9131 44.9495 62.0641C44.3396 62.2006 43.952 62.9333 44.1803 63.5132L44.3377 63.3066C43.7994 63.343 43.2645 63.4522 42.7305 63.5256C42.0708 63.6164 41.3974 63.6933 40.7307 63.6536C40.3172 63.6289 39.6927 63.5569 39.5095 63.1286C39.4621 63.018 39.4609 62.8822 39.4566 62.7561C39.4466 62.4623 39.4345 62.1687 39.4202 61.8751C39.3918 61.2881 39.3549 60.7014 39.3096 60.1154C39.1295 57.7844 38.8176 55.4631 38.3773 53.1669C37.9362 50.8669 37.3655 48.5917 36.6685 46.3559C35.9728 44.1241 35.1506 41.9321 34.2081 39.7928C34.0896 39.5238 33.9691 39.2558 33.8469 38.9885C33.7597 38.7977 33.4782 38.9634 33.5651 39.1533C34.5522 41.3122 35.4136 43.5279 36.1451 45.7862C36.8782 48.0492 37.4813 50.3541 37.9509 52.686C38.4195 55.0127 38.7547 57.3657 38.9523 59.7309C39.002 60.3258 39.0431 60.9214 39.0754 61.5174C39.0914 61.8109 39.1052 62.1045 39.1169 62.3981C39.1258 62.6199 39.1141 62.8503 39.1541 63.0695C39.2501 63.5964 39.7705 63.8381 40.2478 63.9241C40.8961 64.0408 41.5698 63.9882 42.22 63.9158C42.8285 63.8481 43.431 63.74 44.0382 63.6636C44.1378 63.651 44.2376 63.6398 44.3377 63.6331C44.4327 63.6266 44.5368 63.5322 44.4951 63.4265C44.3358 63.0218 44.568 62.5038 44.9999 62.3878C45.4919 62.2556 45.9637 62.7397 45.9221 63.2183C45.9144 63.3075 46.0032 63.3799 46.0853 63.3815C47.2275 63.404 48.4226 63.3273 49.4993 62.9164C50.6247 62.4869 51.6536 61.5739 51.5781 60.2678C51.495 58.8323 50.1683 58.0799 48.9257 57.7358C48.645 57.6581 48.3495 57.5991 48.0993 57.4427C47.8153 57.2653 47.6387 56.9505 47.4628 56.6752C47.0265 55.9923 46.8024 55.223 46.6637 54.43C46.5171 53.5921 46.4612 52.7397 46.3662 51.895C46.2713 51.0518 46.1636 50.2101 46.0437 49.3701C45.8025 47.6807 45.5097 45.9986 45.1661 44.3269C44.8177 42.6311 44.4168 40.9461 43.9643 39.2751C43.7417 38.453 43.5039 37.6355 43.2593 36.8198C43.1013 36.2929 42.9752 35.7532 42.7689 35.2421C42.5794 34.7724 42.3187 34.3345 41.9055 34.029C41.3715 33.6343 40.7174 33.5862 40.0786 33.5246C38.3618 33.3592 36.6337 33.313 34.9105 33.3863C34.4797 33.4046 34.0493 33.4308 33.6194 33.4638C33.4113 33.4798 33.4096 33.8063 33.6194 33.7902Z" fill="#662D91"/>
<path d="M33.6194 33.627C35.9642 33.4453 38.3262 33.4861 40.6634 33.7489C42.4776 33.9529 42.6581 35.3996 43.1133 36.9011C43.6451 38.6549 44.1193 40.4261 44.5353 42.2109C45.3672 45.7805 45.966 49.4045 46.325 53.0521C46.4232 54.0504 46.5485 55.075 46.9273 56.0118C47.1044 56.4497 47.3508 56.8128 47.6188 57.1967C47.925 57.6352 48.2796 57.733 48.7977 57.8703C49.7558 58.1242 50.7569 58.5756 51.2022 59.4612C51.5313 60.1156 51.4813 60.9447 51.0761 61.5549C50.0812 63.0532 47.692 63.2517 46.0853 63.2183C46.1485 62.6658 45.5988 62.1319 45.0484 62.2111C44.498 62.2904 44.1213 62.9577 44.3377 63.4699C43.2168 63.5422 39.3495 64.5179 39.2979 62.8938C39.0369 54.6872 37.1237 46.5365 33.7059 39.0709" fill="#FFDE17"/>
<path d="M33.6194 33.7902C35.31 33.6606 37.0085 33.6439 38.7011 33.744C39.1218 33.7689 39.542 33.8008 39.9615 33.84C40.3349 33.8748 40.7198 33.8931 41.0827 33.9938C41.5649 34.1275 41.9537 34.4232 42.2147 34.8492C42.4814 35.2845 42.6227 35.784 42.7617 36.271C42.9595 36.9644 43.1709 37.6538 43.368 38.3474C43.8259 39.9585 44.2358 41.5833 44.5968 43.2188C45.3167 46.4808 45.8362 49.7828 46.1672 53.1066C46.3195 54.6367 46.5705 56.1955 47.5833 57.4176C47.9798 57.8959 48.6008 57.9643 49.1568 58.1464C49.7493 58.3403 50.3401 58.6257 50.7605 59.0987C51.2116 59.6061 51.365 60.3125 51.173 60.9633C51.0088 61.5195 50.5845 61.96 50.1015 62.2614C49.1438 62.8591 47.9497 63.015 46.8425 63.0512C46.5902 63.0595 46.3377 63.06 46.0854 63.0551L46.2486 63.2183C46.3078 62.5369 45.6242 61.9131 44.9495 62.0641C44.3396 62.2006 43.952 62.9333 44.1803 63.5132L44.3377 63.3066C43.7994 63.343 43.2645 63.4522 42.7305 63.5256C42.0708 63.6164 41.3974 63.6933 40.7307 63.6536C40.3172 63.6289 39.6927 63.5569 39.5095 63.1286C39.4621 63.018 39.4609 62.8822 39.4566 62.7561C39.4466 62.4623 39.4345 62.1687 39.4202 61.8751C39.3918 61.2881 39.3549 60.7014 39.3096 60.1154C39.1295 57.7844 38.8176 55.4631 38.3773 53.1669C37.9362 50.8669 37.3655 48.5917 36.6685 46.3559C35.9728 44.1241 35.1506 41.9321 34.2081 39.7928C34.0896 39.5238 33.9691 39.2558 33.8469 38.9885C33.7597 38.7977 33.4782 38.9634 33.5651 39.1533C34.5522 41.3122 35.4136 43.5279 36.1451 45.7862C36.8782 48.0492 37.4813 50.3541 37.9509 52.686C38.4195 55.0127 38.7547 57.3657 38.9523 59.7309C39.002 60.3258 39.0431 60.9214 39.0754 61.5174C39.0914 61.8109 39.1052 62.1045 39.1169 62.3981C39.1258 62.6199 39.1141 62.8503 39.1541 63.0695C39.2501 63.5964 39.7705 63.8381 40.2478 63.9241C40.8961 64.0408 41.5698 63.9882 42.22 63.9158C42.8285 63.8481 43.431 63.74 44.0382 63.6636C44.1378 63.651 44.2376 63.6398 44.3377 63.6331C44.4327 63.6266 44.5368 63.5322 44.4951 63.4265C44.3358 63.0218 44.568 62.5038 44.9999 62.3878C45.4919 62.2556 45.9637 62.7397 45.9221 63.2183C45.9144 63.3075 46.0032 63.3799 46.0853 63.3815C47.2275 63.404 48.4226 63.3273 49.4993 62.9164C50.6247 62.4869 51.6536 61.5739 51.5781 60.2678C51.495 58.8323 50.1683 58.0799 48.9257 57.7358C48.645 57.6581 48.3495 57.5991 48.0993 57.4427C47.8153 57.2653 47.6387 56.9505 47.4628 56.6752C47.0265 55.9923 46.8024 55.223 46.6637 54.43C46.5171 53.5921 46.4612 52.7397 46.3662 51.895C46.2713 51.0518 46.1636 50.2101 46.0437 49.3701C45.8025 47.6807 45.5097 45.9986 45.1661 44.3269C44.8177 42.6311 44.4168 40.9461 43.9643 39.2751C43.7417 38.453 43.5039 37.6355 43.2593 36.8198C43.1013 36.2929 42.9752 35.7532 42.7689 35.2421C42.5794 34.7724 42.3187 34.3345 41.9055 34.029C41.3715 33.6343 40.7174 33.5862 40.0786 33.5246C38.3618 33.3592 36.6337 33.313 34.9105 33.3863C34.4797 33.4046 34.0493 33.4308 33.6194 33.4638C33.4113 33.4798 33.4096 33.8063 33.6194 33.7902Z" fill="#662D91"/>
<path d="M44.5353 42.2109C44.1193 40.4261 43.6451 38.6549 43.1133 36.9011C42.6581 35.3996 42.4776 33.9529 40.6634 33.7489C38.3262 33.4862 35.9642 33.4453 33.6194 33.627L33.706 39.0709C35.0926 42.0998 36.2315 45.2414 37.1129 48.4538C38.1963 48.0573 39.3242 47.7827 40.4688 47.6386C41.5457 47.5031 42.6334 47.4823 43.7186 47.4617C44.338 47.45 44.9575 47.4383 45.577 47.4265C45.2844 45.6777 44.9378 43.9378 44.5353 42.2109Z" fill="#1F033D"/>
<path d="M25.3959 34.3768C24.7978 36.9862 24.3245 39.6231 23.976 42.2774C23.6269 44.9356 23.4049 47.6106 23.3113 50.2901C23.2881 50.9528 23.2728 51.6159 23.2653 52.279C23.258 52.937 23.2707 53.5956 23.2517 54.2534C23.2331 54.8973 23.1785 55.5427 23.0205 56.1688C22.9477 56.4569 22.8495 56.7342 22.7207 57.0021C22.5978 57.2577 22.4708 57.5374 22.2974 57.7632C22.0139 58.1323 21.5293 58.2414 21.1207 58.4129C20.646 58.6121 20.1891 58.86 19.799 59.1995C19.4195 59.5296 19.1149 59.9602 18.9885 60.4516C18.8582 60.9588 18.9135 61.5026 19.1278 61.9786C19.5156 62.8404 20.4226 63.3355 21.3 63.5614C22.1971 63.7923 23.1452 63.8039 24.0638 63.732C24.2702 63.7159 24.4762 63.6947 24.6817 63.6699C24.7922 63.6565 24.8608 63.5768 24.8391 63.4633C24.7526 63.0099 25.1814 62.5116 25.6501 62.5663C26.0932 62.6181 26.4069 63.1175 26.2884 63.5382C26.2604 63.6377 26.3397 63.7484 26.4458 63.7449C26.9736 63.7274 27.5052 63.7815 28.0325 63.8004C28.6982 63.8244 29.3699 63.8306 30.0307 63.7349C30.5245 63.6634 31.1226 63.5228 31.419 63.0801C31.5834 62.8344 31.5693 62.5664 31.5509 62.2839C31.5117 61.6818 31.4813 61.079 31.4598 60.476C31.374 58.0637 31.43 55.6466 31.6259 53.2408C31.8206 50.8493 32.1544 48.4697 32.6251 46.1169C33.0986 43.7501 33.7097 41.4108 34.4564 39.1154C34.5469 38.8372 34.6395 38.5596 34.7339 38.2827C34.8018 38.0834 34.4866 37.9978 34.4191 38.1959C33.6523 40.4462 33.0149 42.74 32.5117 45.0635C32.0131 47.3653 31.6456 49.6956 31.409 52.0389C31.1702 54.404 31.0669 56.7829 31.1006 59.1598C31.1089 59.7449 31.1256 60.3299 31.1506 60.9145C31.1635 61.2159 31.1786 61.5173 31.1959 61.8185C31.2104 62.0703 31.2441 62.3264 31.2414 62.5786C31.2393 62.7729 31.1564 62.9311 31.0021 63.0576C30.8275 63.2008 30.5898 63.2817 30.3688 63.3378C29.7601 63.4921 29.1143 63.4958 28.4903 63.4861C27.9039 63.477 27.319 63.4321 26.7328 63.4184C26.6372 63.4162 26.5414 63.4152 26.4458 63.4184L26.6032 63.625C26.7797 62.9984 26.3039 62.2939 25.6501 62.2399C24.9562 62.1825 24.3989 62.8925 24.5244 63.55L24.6817 63.3434C23.8049 63.4493 22.9054 63.4948 22.0278 63.3722C21.1641 63.2516 20.267 62.9537 19.6888 62.2659C19.3553 61.8691 19.2073 61.3383 19.2528 60.8254C19.2973 60.323 19.5609 59.8749 19.9197 59.5307C20.2813 59.1839 20.7291 58.9349 21.1862 58.737C21.6008 58.5575 22.0654 58.4479 22.4032 58.1303C22.5902 57.9544 22.7089 57.727 22.8294 57.5039C22.9681 57.247 23.0966 56.9841 23.1975 56.7099C23.4091 56.1349 23.4973 55.5119 23.5447 54.9037C23.5935 54.2761 23.5852 53.6468 23.5868 53.0179C23.5884 52.3547 23.5978 51.6916 23.6151 51.0286C23.6834 48.4148 23.874 45.8041 24.1855 43.2079C24.4998 40.5887 24.9394 37.9844 25.4999 35.4066C25.5683 35.0919 25.6387 34.7775 25.7107 34.4636C25.7575 34.2591 25.4429 34.1718 25.3959 34.3768Z" fill="#662D91"/>
<path d="M33.6194 33.7902C35.31 33.6606 37.0085 33.6439 38.7011 33.744C39.1218 33.7689 39.542 33.8008 39.9615 33.84C40.3349 33.8748 40.7198 33.8931 41.0827 33.9938C41.5649 34.1275 41.9537 34.4232 42.2147 34.8492C42.4814 35.2845 42.6227 35.784 42.7617 36.271C42.9595 36.9644 43.1709 37.6538 43.368 38.3474C43.8259 39.9585 44.2358 41.5833 44.5968 43.2188C45.3167 46.4808 45.8362 49.7828 46.1672 53.1066C46.3195 54.6367 46.5705 56.1955 47.5833 57.4176C47.9798 57.8959 48.6008 57.9643 49.1568 58.1464C49.7493 58.3403 50.3401 58.6257 50.7605 59.0987C51.2116 59.6061 51.365 60.3125 51.173 60.9633C51.0088 61.5195 50.5845 61.96 50.1015 62.2614C49.1438 62.8591 47.9497 63.015 46.8425 63.0512C46.5902 63.0595 46.3377 63.06 46.0854 63.0551L46.2486 63.2183C46.3078 62.5369 45.6242 61.9131 44.9495 62.0641C44.3396 62.2006 43.952 62.9333 44.1803 63.5132L44.3377 63.3066C43.7994 63.343 43.2645 63.4522 42.7305 63.5256C42.0708 63.6164 41.3974 63.6933 40.7307 63.6536C40.3172 63.6289 39.6927 63.5569 39.5095 63.1286C39.4621 63.018 39.4609 62.8822 39.4566 62.7561C39.4466 62.4623 39.4345 62.1687 39.4202 61.8751C39.3918 61.2881 39.3549 60.7014 39.3096 60.1154C39.1295 57.7844 38.8176 55.4631 38.3773 53.1669C37.9362 50.8669 37.3655 48.5917 36.6685 46.3559C35.9728 44.1241 35.1506 41.9321 34.2081 39.7928C34.0896 39.5238 33.9691 39.2558 33.8469 38.9885C33.7597 38.7977 33.4782 38.9634 33.5651 39.1533C34.5522 41.3122 35.4136 43.5279 36.1451 45.7862C36.8782 48.0492 37.4813 50.3541 37.9509 52.686C38.4195 55.0127 38.7547 57.3657 38.9523 59.7309C39.002 60.3258 39.0431 60.9214 39.0754 61.5174C39.0914 61.8109 39.1052 62.1045 39.1169 62.3981C39.1258 62.6199 39.1141 62.8503 39.1541 63.0695C39.2501 63.5964 39.7705 63.8381 40.2478 63.9241C40.8961 64.0408 41.5698 63.9882 42.22 63.9158C42.8285 63.8481 43.431 63.74 44.0382 63.6636C44.1378 63.651 44.2376 63.6398 44.3377 63.6331C44.4327 63.6266 44.5368 63.5322 44.4951 63.4265C44.3358 63.0218 44.568 62.5038 44.9999 62.3878C45.4919 62.2556 45.9637 62.7397 45.9221 63.2183C45.9144 63.3075 46.0032 63.3799 46.0853 63.3815C47.2275 63.404 48.4226 63.3273 49.4993 62.9164C50.6247 62.4869 51.6536 61.5739 51.5781 60.2678C51.495 58.8323 50.1683 58.0799 48.9257 57.7358C48.645 57.6581 48.3495 57.5991 48.0993 57.4427C47.8153 57.2653 47.6387 56.9505 47.4628 56.6752C47.0265 55.9923 46.8024 55.223 46.6637 54.43C46.5171 53.5921 46.4612 52.7397 46.3662 51.895C46.2713 51.0518 46.1636 50.2101 46.0437 49.3701C45.8025 47.6807 45.5097 45.9986 45.1661 44.3269C44.8177 42.6311 44.4168 40.9461 43.9643 39.2751C43.7417 38.453 43.5039 37.6355 43.2593 36.8198C43.1013 36.2929 42.9752 35.7532 42.7689 35.2421C42.5794 34.7724 42.3187 34.3345 41.9055 34.029C41.3715 33.6343 40.7174 33.5862 40.0786 33.5246C38.3618 33.3592 36.6337 33.313 34.9105 33.3863C34.4797 33.4046 34.0493 33.4308 33.6194 33.4638C33.4113 33.4798 33.4096 33.8063 33.6194 33.7902Z" fill="#662D91"/>
<path d="M43.4474 57.7913C43.4871 57.7907 43.5181 57.7905 43.5395 57.7909C43.6141 57.7923 43.7058 57.7835 43.7355 57.7151C43.7569 57.666 43.734 57.6101 43.7127 57.561C43.3992 56.8388 43.395 55.9679 43.7857 55.2843C44.3082 54.3698 45.8998 53.7971 46.7696 54.5968C47.1251 54.9238 47.1621 55.4612 47.1919 55.9432C47.2569 56.9937 47.7989 57.6056 48.7979 57.8704C49.756 58.1243 50.7569 58.5757 51.2022 59.4612C51.5312 60.1156 51.4813 60.9448 51.0761 61.555C50.0812 63.0532 47.6919 63.2517 46.0853 63.2183C46.1485 62.6659 45.5988 62.1319 45.0484 62.2112C44.498 62.2904 44.1212 62.9577 44.3377 63.4699C43.2168 63.5423 39.3495 64.518 39.2978 62.8938C39.2459 61.2592 39.1272 59.627 38.9453 58.0018C38.9443 57.993 42.7046 57.8035 43.4474 57.7913Z" fill="#FFDE17"/>
<path d="M43.4474 57.9545C43.596 57.9525 43.7652 57.9605 43.8602 57.8232C43.9769 57.6545 43.8356 57.4487 43.7812 57.2838C43.6556 56.9026 43.611 56.4885 43.6758 56.0909C43.7317 55.7474 43.8608 55.4003 44.0903 55.1341C44.2919 54.9004 44.5465 54.7206 44.8247 54.5892C45.3601 54.3364 46.0648 54.2645 46.5643 54.6372C47.1562 55.079 46.9484 55.9449 47.1326 56.5716C47.303 57.1516 47.7098 57.6045 48.2596 57.852C48.5797 57.996 48.9236 58.065 49.2543 58.1791C49.5966 58.2973 49.9289 58.4474 50.2322 58.6466C50.8687 59.0648 51.2914 59.7238 51.2524 60.5027C51.2169 61.2099 50.7859 61.7993 50.2148 62.1875C49.1537 62.9088 47.7631 63.0476 46.5133 63.0579C46.3706 63.0591 46.228 63.0579 46.0853 63.0551L46.2485 63.2183C46.3091 62.5317 45.6134 61.9051 44.9357 62.067C44.3338 62.2108 43.953 62.9386 44.1803 63.5132L44.3377 63.3066C43.8754 63.3378 43.4157 63.4274 42.9576 63.4935C42.3745 63.5778 41.7869 63.6512 41.1971 63.6618C40.735 63.6701 40.1875 63.668 39.7789 63.4217C39.6335 63.334 39.5272 63.2117 39.4839 63.051C39.4436 62.9015 39.4557 62.7258 39.4496 62.5632C39.4394 62.2877 39.4272 62.0124 39.4132 61.7371C39.3496 60.4893 39.247 59.2436 39.1085 58.0018L39.0277 58.1427C38.9946 58.1611 38.9149 58.1643 38.9832 58.1616C39.0117 58.1605 39.0403 58.1579 39.0689 58.1562C39.1623 58.1506 39.2557 58.1456 39.3492 58.1405C39.6647 58.1234 39.9803 58.1074 40.2959 58.0916C41.0665 58.0531 41.8372 58.0159 42.6082 57.9838C42.8878 57.9721 43.1676 57.9593 43.4474 57.9545C43.6573 57.9509 43.6579 57.6244 43.4474 57.6281C42.0937 57.6515 40.7383 57.7393 39.3866 57.8121C39.2771 57.8179 39.1677 57.8238 39.0583 57.8304C38.996 57.8342 38.9185 57.83 38.8629 57.8609C38.8172 57.8862 38.776 57.9474 38.7821 58.0018C38.9104 59.1523 39.0079 60.3061 39.0721 61.4619C39.0879 61.7463 39.1016 62.0307 39.1134 62.3153C39.1228 62.5414 39.1156 62.7731 39.1436 62.9978C39.1706 63.2149 39.2663 63.4162 39.4287 63.5652C39.7991 63.9053 40.3627 63.9674 40.8427 63.9854C41.461 64.0086 42.0813 63.9392 42.6932 63.8572C43.2412 63.7838 43.7882 63.6701 44.3376 63.6331C44.4325 63.6267 44.5369 63.5322 44.495 63.4264C44.3366 63.026 44.5637 62.5126 44.9886 62.3907C45.4829 62.2488 45.9647 62.7352 45.922 63.2183C45.9142 63.3075 46.0032 63.3799 46.0852 63.3815C47.4024 63.4075 48.8243 63.3075 50.0126 62.6878C50.6074 62.3777 51.1486 61.9 51.4091 61.27C51.7164 60.5266 51.6034 59.6556 51.1142 59.0178C50.6484 58.4105 49.9353 58.0553 49.2214 57.8244C48.8889 57.7168 48.5467 57.6497 48.239 57.4769C47.9808 57.3317 47.7616 57.13 47.6121 56.8728C47.2465 56.2435 47.4496 55.4859 47.1445 54.84C46.847 54.2102 46.0904 53.9888 45.4447 54.073C44.8008 54.1569 44.1668 54.4929 43.771 55.0134C43.2858 55.6513 43.2191 56.5563 43.4457 57.3054C43.4738 57.3982 43.5012 57.5197 43.554 57.6015C43.5525 57.5992 43.582 57.6693 43.583 57.634C43.5834 57.6211 43.6028 57.6264 43.5723 57.6275C43.5308 57.6289 43.4889 57.6275 43.4474 57.6281C43.2375 57.6308 43.237 57.9573 43.4474 57.9545Z" fill="#662D91"/>
<path d="M48.4958 60.6213C48.5465 60.5675 48.5519 60.4865 48.5541 60.4126C48.5664 59.978 48.5611 59.5396 48.6462 59.1132C48.73 58.693 48.9286 58.2959 49.2126 57.9932C50.0327 58.2634 50.8211 58.7032 51.2022 59.4612C51.5312 60.1156 51.4813 60.9447 51.0761 61.5549C50.0812 63.0532 47.692 63.2517 46.0853 63.2183C46.1485 62.6658 45.5988 62.1319 45.0484 62.2111C44.498 62.2903 44.1213 62.9576 44.3377 63.4698C43.2168 63.5422 39.3495 64.5179 39.2979 62.8937C39.282 62.3953 39.2592 61.8972 39.2311 61.3994C42.2493 61.1634 45.2674 60.9275 48.2856 60.6916C48.3611 60.6857 48.4439 60.6764 48.4958 60.6213Z" fill="#662D91"/>
<path d="M48.6367 60.7038C48.7649 60.5331 48.7208 60.2464 48.7259 60.047C48.7322 59.8014 48.7403 59.5541 48.7767 59.3107C48.8436 58.8631 49.0202 58.444 49.328 58.1086L49.1692 58.1506C49.8092 58.3638 50.472 58.6854 50.8792 59.2449C51.3056 59.831 51.3802 60.6348 51.0461 61.2834C50.4859 62.3708 49.1511 62.7819 48.0275 62.95C47.3859 63.046 46.7333 63.0679 46.0853 63.0551L46.2486 63.2183C46.3092 62.5317 45.6134 61.9052 44.9358 62.067C44.3339 62.2108 43.953 62.9386 44.1803 63.5133L44.3377 63.3067C43.9849 63.3305 43.6339 63.393 43.2845 63.4453C42.8229 63.5145 42.3606 63.5806 41.8955 63.6221C41.4402 63.6627 40.9773 63.6859 40.5217 63.6363C40.2049 63.6018 39.8422 63.5231 39.6202 63.2959C39.5182 63.1916 39.4688 63.0466 39.4611 62.8938C39.4359 62.3958 39.4222 61.8974 39.3943 61.3994L39.2311 61.5626C41.7123 61.3687 44.1935 61.1747 46.6747 60.9808C47.0265 60.9533 47.3783 60.9258 47.7301 60.8983C47.8968 60.8853 48.0634 60.8725 48.23 60.8592C48.3751 60.8476 48.4966 60.8335 48.6112 60.7368C48.772 60.6012 48.5401 60.3713 48.3804 60.506C48.3447 60.5361 48.2727 60.5294 48.23 60.5328C48.156 60.5386 48.0819 60.5444 48.0078 60.5501C47.8597 60.5617 47.7116 60.5733 47.5635 60.5849C47.2579 60.6088 46.9524 60.6327 46.6469 60.6565C46.0451 60.7036 45.4433 60.7506 44.8416 60.7977C43.6472 60.891 42.4529 60.9844 41.2586 61.0777C40.5828 61.1306 39.9069 61.1834 39.2311 61.2362C39.147 61.2428 39.0626 61.3057 39.0679 61.3994C39.0937 61.8604 39.1154 62.3216 39.131 62.783C39.1381 62.9911 39.1576 63.1908 39.2697 63.3721C39.4652 63.6883 39.8322 63.8396 40.1821 63.9115C41.1277 64.1059 42.1442 63.9393 43.0864 63.8023C43.5038 63.7416 43.9183 63.6614 44.3377 63.6331C44.4325 63.6267 44.5369 63.5322 44.4951 63.4265C44.3367 63.026 44.5637 62.5126 44.9886 62.3907C45.483 62.2489 45.9647 62.7352 45.9221 63.2183C45.9142 63.3075 46.0033 63.3799 46.0853 63.3815C47.3658 63.4068 48.73 63.3097 49.9 62.7445C50.474 62.4672 51.0157 62.0398 51.3177 61.4675C51.6797 60.7815 51.6691 59.9211 51.2735 59.2516C50.838 58.5146 50.0427 58.098 49.256 57.8358C49.2033 57.8183 49.1345 57.8371 49.0972 57.8778C48.7906 58.2119 48.5788 58.6251 48.4888 59.0699C48.4377 59.3225 48.4167 59.5811 48.4061 59.8381C48.4011 59.96 48.3986 60.0819 48.3958 60.2038C48.3936 60.3062 48.4195 60.4529 48.3549 60.539C48.2287 60.7071 48.512 60.87 48.6367 60.7038Z" fill="#662D91"/>
<path d="M45.5715 47.0668C44.4481 46.9962 43.3169 47.0577 42.1991 47.1782C41.0497 47.3021 39.904 47.4905 38.7806 47.7649C38.25 47.8945 37.7233 48.0438 37.2099 48.2311C37.0142 48.3026 37.0987 48.6181 37.2967 48.5459C38.2559 48.196 39.2599 47.9669 40.263 47.7847C41.4107 47.5763 42.5733 47.4378 43.7388 47.3853C44.3493 47.3577 44.9614 47.3549 45.5715 47.3933C45.7812 47.4065 45.7805 47.08 45.5715 47.0668Z" fill="#662D91"/>
<path d="M39.1434 47.7764C38.8089 46.203 38.312 44.6636 37.7773 43.1484C37.2019 41.5176 36.5649 39.9078 35.8745 38.3223C35.5468 37.5697 35.2063 36.8223 34.8427 36.0863C34.7497 35.8979 34.468 36.0631 34.5609 36.251C35.2461 37.6382 35.8575 39.0625 36.4315 40.4988C37.0733 42.1045 37.6681 43.7317 38.1734 45.3858C38.4229 46.2028 38.6509 47.0274 38.8286 47.8631C38.8723 48.0685 39.187 47.9816 39.1434 47.7764Z" fill="#662D91"/>
<path d="M41.5295 47.3915C40.8709 44.3131 39.9228 41.2911 38.7582 38.3675C38.4365 37.5599 38.0964 36.7596 37.7362 35.9684C37.6492 35.7775 37.3678 35.9432 37.4543 36.1332C38.753 38.9851 39.8028 41.9582 40.6131 44.9847C40.8343 45.8108 41.0358 46.642 41.2147 47.4783C41.2587 47.6836 41.5734 47.5967 41.5295 47.3915Z" fill="#662D91"/>
<path d="M43.8456 47.0356C43.5181 45.4213 43.1107 43.8232 42.6376 42.2455C42.1494 40.6176 41.5912 39.0093 40.9453 37.437C40.5981 36.5918 40.2258 35.7567 39.8194 34.9382C39.726 34.75 39.4444 34.9152 39.5376 35.103C40.2668 36.5718 40.8883 38.0924 41.4393 39.6363C42.0055 41.2227 42.4974 42.8359 42.918 44.4668C43.1449 45.3466 43.3502 46.232 43.5308 47.1224C43.5726 47.3281 43.8873 47.2411 43.8456 47.0356Z" fill="#662D91"/>
<path d="M43.5109 57.5788C44.4633 58.876 46.0832 59.625 47.6909 59.4766C47.8984 59.4574 47.9004 59.1308 47.6909 59.1501C46.2044 59.2874 44.6794 58.6217 43.7928 57.414C43.6698 57.2464 43.3864 57.4091 43.5109 57.5788Z" fill="#662D91"/>
<path d="M47.0259 56.3694C46.855 56.4262 46.6979 56.5293 46.5845 56.6701C46.5279 56.7404 46.4787 56.8136 46.4427 56.8966C46.4008 56.9933 46.3764 57.0873 46.364 57.1921C46.3595 57.2308 46.3856 57.2813 46.4118 57.3076C46.4402 57.3359 46.4866 57.3572 46.5273 57.3554C46.5695 57.3535 46.6132 57.3396 46.6427 57.3076C46.6738 57.2736 46.6851 57.2376 46.6905 57.1921C46.6946 57.1569 46.6831 57.2321 46.6899 57.1973C46.6917 57.1879 46.6932 57.1784 46.6952 57.1689C46.6984 57.1532 46.7021 57.1376 46.7063 57.1222C46.7114 57.1036 46.7172 57.0853 46.7236 57.0671C46.7263 57.0596 46.7291 57.0521 46.732 57.0446C46.7414 57.0204 46.7347 57.0413 46.7284 57.0525C46.7457 57.0218 46.7589 56.989 46.7773 56.9586C46.7872 56.9421 46.7978 56.926 46.8089 56.9102C46.8135 56.9037 46.8184 56.8973 46.8231 56.8908C46.8324 56.8779 46.7981 56.9217 46.8214 56.8935C46.8439 56.8662 46.8681 56.8404 46.8939 56.8162C46.9067 56.8041 46.92 56.7924 46.9336 56.7812L46.9411 56.7751C46.9545 56.7645 46.9511 56.7671 46.9309 56.7829C46.9377 56.7802 46.9444 56.773 46.9504 56.7688C46.9792 56.7486 47.0094 56.7302 47.0408 56.7141C47.0565 56.706 47.0726 56.699 47.0886 56.6915C47.0405 56.7142 47.1 56.6884 47.1127 56.6842C47.1936 56.6573 47.2548 56.5703 47.2267 56.4834C47.2006 56.4028 47.1127 56.3406 47.0259 56.3694Z" fill="#662D91"/>
<path d="M47.2792 57.1335C47.2249 57.1747 47.1757 57.2169 47.1337 57.2708C47.083 57.3357 47.0458 57.4004 47.0144 57.4766C46.9612 57.6054 46.9533 57.7425 46.9725 57.879C46.9778 57.9165 47.0165 57.9584 47.0475 57.9766C47.0825 57.997 47.134 58.0057 47.1733 57.993C47.2128 57.9802 47.2509 57.9558 47.2708 57.918C47.2927 57.8765 47.2937 57.8383 47.2873 57.7922L47.2861 57.7839L47.2919 57.8273C47.2857 57.7772 47.2859 57.7272 47.2922 57.6771L47.2864 57.7205C47.2918 57.6817 47.3004 57.6436 47.3129 57.6065C47.3155 57.5985 47.3184 57.5906 47.3214 57.5828C47.3234 57.5776 47.3254 57.5724 47.3276 57.5672L47.3177 57.5908C47.3216 57.5735 47.3353 57.554 47.3441 57.5384C47.353 57.5226 47.3626 57.5072 47.3729 57.4923C47.3799 57.482 47.4027 57.4555 47.3697 57.4949C47.375 57.4885 47.3801 57.4819 47.3856 57.4755C47.3982 57.4607 47.4117 57.4465 47.4258 57.4331C47.4319 57.4273 47.4381 57.4217 47.4444 57.4162C47.4534 57.4083 47.4869 57.3828 47.444 57.4154C47.4793 57.3886 47.5067 57.3623 47.519 57.3178C47.5297 57.2788 47.5249 57.2267 47.5025 57.1921C47.48 57.1572 47.4466 57.1265 47.405 57.1171C47.3651 57.108 47.3133 57.1076 47.2792 57.1335Z" fill="#662D91"/>
<path d="M25.5677 33.4618C25.6214 33.9622 25.4775 34.4594 25.376 34.9523C25.2606 35.5129 25.1991 36.0831 25.1377 36.6522C25.6416 36.6484 26.1498 36.6723 26.6541 36.6867C29.0846 36.7561 31.5137 36.921 33.9315 37.1785C35.5376 37.3495 37.1396 37.5635 38.7321 37.834C39.5776 37.9777 40.403 38.2178 41.2409 38.3979C41.4144 38.4352 43.4917 38.7322 43.4581 38.5959C43.0939 37.1169 42.6048 35.6898 42.1531 34.2417C41.7212 32.8571 41.4997 31.3711 40.7038 30.1292" fill="#662D91"/>
<path d="M25.4044 33.4617C25.4551 34.0005 25.2925 34.517 25.1925 35.0404C25.0907 35.5732 25.0326 36.1132 24.9744 36.6521C24.965 36.7396 25.0569 36.8158 25.1376 36.8153C26.1944 36.8095 27.2554 36.863 28.3109 36.9119C29.3692 36.961 30.4267 37.0281 31.4827 37.1129C33.6024 37.2831 35.718 37.5197 37.8191 37.8493C38.3386 37.9308 38.8582 38.013 39.3719 38.1261C39.8778 38.2375 40.379 38.3687 40.8838 38.4852C41.3363 38.5895 41.795 38.6486 42.2558 38.7048C42.5152 38.7365 42.7752 38.7661 43.0359 38.784C43.1791 38.7939 43.3933 38.8311 43.5259 38.756C43.6682 38.6755 43.608 38.5209 43.5759 38.3941C43.5139 38.1487 43.4484 37.9041 43.3803 37.6602C43.2397 37.1566 43.0877 36.6563 42.9314 36.1574C42.6309 35.198 42.3074 34.2458 42.0478 33.2743C41.8106 32.3866 41.5858 31.4888 41.1845 30.6576C41.0831 30.4475 40.9697 30.2438 40.8447 30.0467C40.7325 29.8698 40.4499 30.0334 40.5628 30.2115C41.0484 30.9769 41.3223 31.84 41.5587 32.7085C41.8089 33.6279 42.0739 34.5376 42.3636 35.4455C42.6705 36.4076 42.9752 37.3711 43.2275 38.3493C43.242 38.4054 43.249 38.4808 43.2744 38.5336C43.3013 38.5895 43.2558 38.5984 43.313 38.5398C43.3428 38.5092 43.3447 38.4922 43.3776 38.467C43.4099 38.4423 43.3742 38.4762 43.3681 38.4665C43.3704 38.4701 43.4061 38.4642 43.363 38.466C43.2797 38.4694 43.1968 38.4671 43.1136 38.4625C42.8698 38.449 42.6267 38.4221 42.3843 38.3937C41.9828 38.3468 41.5748 38.3049 41.1795 38.2176C40.6911 38.1098 40.207 37.9838 39.7199 37.8706C39.2272 37.7562 38.7313 37.6672 38.2321 37.5865C36.1952 37.2571 34.1441 37.0155 32.0886 36.8371C30.0277 36.6582 27.9632 36.5588 25.8957 36.4993C25.6431 36.4921 25.3904 36.4875 25.1376 36.4889L25.3009 36.6521C25.3597 36.1065 25.4189 35.5602 25.528 35.0219C25.6324 34.5071 25.7807 33.9923 25.7308 33.4617C25.7113 33.2544 25.3847 33.2523 25.4044 33.4617Z" fill="#662D91"/>
<path d="M47.708 57.6801C47.6149 57.8276 47.5682 58.0116 47.5849 58.1856C47.5891 58.2299 47.6002 58.2686 47.6326 58.301C47.661 58.3294 47.7074 58.3507 47.7481 58.3489C47.7903 58.347 47.8341 58.3331 47.8635 58.301C47.8912 58.2709 47.9153 58.2281 47.9113 58.1856C47.9064 58.1348 47.9073 58.0841 47.9138 58.0334L47.9079 58.0768C47.9162 58.0166 47.9321 57.9582 47.9556 57.9021L47.9392 57.9411C47.9536 57.9077 47.9705 57.8756 47.9899 57.8448C48.0356 57.7725 48.0074 57.6617 47.9313 57.6215C47.8509 57.579 47.7568 57.6029 47.708 57.6801Z" fill="#662D91"/>
<path d="M27.6854 35.9215C32.8251 36.2089 37.9984 36.3651 43.1281 35.8331C45.6632 35.5702 48.1843 35.1377 50.6437 34.4634C52.2963 34.0103 53.9599 33.881 54.0666 31.7637C54.1823 29.4653 52.5551 26.7745 51.5388 24.7911C48.9052 19.6513 46.2441 14.5077 43.067 9.67692C41.4911 7.28087 39.8012 4.92495 37.9004 2.77368C36.5861 1.28624 33.9969 -0.573279 31.9865 0.464635C29.9477 1.51718 28.7725 3.92368 27.7164 5.84673C26.3748 8.2897 25.071 10.754 23.8382 13.2539C21.4087 18.1803 19.2497 23.2532 17.6441 28.5113C17.2168 29.9105 16.5577 32.0269 17.3259 33.4298C17.9764 34.6177 19.7109 35.0209 20.929 35.2415C23.1577 35.6451 25.4239 35.795 27.6854 35.9215Z" fill="#FFDE17"/>
<path d="M27.6855 36.0846C32.0315 36.3271 36.393 36.4769 40.7411 36.196C42.8712 36.0584 44.9967 35.8184 47.0971 35.4346C48.1419 35.2437 49.1803 35.0168 50.2082 34.7488C50.9169 34.564 51.6459 34.4097 52.3391 34.1717C52.9091 33.9761 53.4528 33.6867 53.8047 33.1816C54.2286 32.5731 54.2781 31.7737 54.2141 31.0579C54.0572 29.3008 53.2218 27.6548 52.4175 26.115C50.5367 22.5145 48.7114 18.8848 46.7073 15.3503C44.6529 11.727 42.4275 8.17748 39.8641 4.88972C38.7714 3.48824 37.654 2.03811 36.1615 1.03897C34.8969 0.192375 33.2494 -0.409086 31.8099 0.373516C30.3892 1.14592 29.4152 2.52721 28.6145 3.89068C28.1921 4.60999 27.8027 5.34865 27.4023 6.08025C26.8831 7.0287 26.3698 7.98042 25.8644 8.93628C23.892 12.6665 22.0395 16.463 20.4209 20.3611C19.6208 22.288 18.8789 24.2394 18.2111 26.2161C17.8997 27.1379 17.6024 28.065 17.3264 28.998C17.0866 29.8083 16.8741 30.6375 16.8206 31.4839C16.7716 32.258 16.8657 33.106 17.3365 33.7494C17.7639 34.3335 18.4168 34.6913 19.0829 34.9387C19.8011 35.2053 20.5595 35.3475 21.3129 35.473C22.3727 35.6496 23.4409 35.7736 24.511 35.868C25.5676 35.9611 26.6265 36.0252 27.6855 36.0846C27.8954 36.0963 27.8947 35.7699 27.6855 35.7581C25.56 35.639 23.4298 35.5014 21.3284 35.1463C20.5905 35.0216 19.8485 34.8792 19.1459 34.6151C18.5017 34.3729 17.8445 34.0017 17.49 33.3884C17.0808 32.6803 17.087 31.7991 17.1941 31.0124C17.3039 30.2065 17.5365 29.4228 17.7733 28.6468C18.3581 26.7309 19.0127 24.8372 19.7296 22.9668C21.1923 19.1501 22.9048 15.4332 24.7532 11.7889C25.7096 9.90312 26.7029 8.03621 27.7187 6.18177C28.4856 4.78182 29.2038 3.31508 30.252 2.0977C30.7655 1.5013 31.3641 0.965331 32.0689 0.605434C32.748 0.258659 33.5246 0.26845 34.2449 0.472639C35.7511 0.899581 37.0055 1.99013 38.0121 3.14809C40.6794 6.21638 42.9466 9.63619 45.0312 13.1196C47.134 16.6334 49.0317 20.2643 50.9017 23.9058C51.7106 25.4811 52.6196 27.0307 53.2672 28.6818C53.5786 29.476 53.8373 30.3123 53.8965 31.1677C53.9436 31.8496 53.8872 32.6181 53.4141 33.1546C53.0194 33.6021 52.4396 33.8128 51.881 33.9727C51.118 34.191 50.3426 34.3837 49.5722 34.5731C47.5574 35.0683 45.5068 35.4105 43.4449 35.636C39.2358 36.0964 34.9911 36.0848 30.7655 35.9101C29.7384 35.8676 28.7118 35.8154 27.6855 35.7581C27.4756 35.7464 27.4763 36.0729 27.6855 36.0846Z" fill="#662D91"/>
<path d="M22.1886 19.1941C20.1573 19.8204 18.1436 20.5052 16.1445 21.2273C15.0262 21.6312 13.9125 22.0483 12.8055 22.4825C12.2454 22.7021 11.6849 22.9224 11.1304 23.1558C11.0055 23.2084 9.82793 23.6894 9.82846 23.687C10.9502 18.5527 11.6856 13.474 11.1434 8.21656C11.1017 7.813 11.0241 7.12915 10.472 7.12196C10.2475 7.11904 10.0461 7.27798 9.93395 7.47246C9.82178 7.66693 9.78203 7.89348 9.74412 8.11476C9.23279 7.85998 8.87293 7.36944 8.64525 6.84549C8.41758 6.32154 8.30459 5.75659 8.16058 5.20376C8.10603 4.99437 8.04447 4.78114 7.91657 4.60661C7.78867 4.43208 7.57987 4.30147 7.36471 4.32437C7.14955 4.34727 6.95741 4.56422 7.01022 4.77406C7.03002 4.44071 6.7472 4.11878 6.41408 4.09548C6.08095 4.07217 5.75606 4.35158 5.72926 4.68445C5.68003 4.44466 5.42251 4.27271 5.18 4.30602C4.93749 4.33934 4.73938 4.56248 4.72107 4.80658C4.68188 4.53638 4.30651 4.43014 4.0686 4.56412C3.83069 4.6981 3.71396 4.97463 3.64546 5.23894C3.29319 6.5984 3.79497 8.03723 4.48418 9.26086C5.08663 10.3304 5.56967 11.1282 5.23217 12.3766C3.95117 17.1148 1.61869 21.5728 1.66411 26.5854C1.67255 27.5174 1.81284 28.4017 2.22423 29.2482C2.41684 29.6445 2.66332 30.0256 3.01216 30.2948C3.44349 30.6277 3.99333 30.7622 4.5308 30.8515C5.57941 31.0257 6.64915 31.0592 7.70965 30.9867C8.74526 30.9158 9.77123 30.7445 10.7927 30.5599C13.2445 30.1169 18.0688 28.9859 20.4876 28.3884" fill="#FFDE17"/>
<path d="M22.1452 19.0368C20.218 19.6315 18.307 20.2777 16.4088 20.9591C14.5998 21.6086 12.802 22.2901 11.0254 23.024C10.7868 23.1225 10.5478 23.2199 10.3087 23.3174C10.1382 23.387 9.96289 23.4805 9.78507 23.5296L9.98585 23.7304C10.5526 21.1333 11.0295 18.5126 11.2862 15.8651C11.4134 14.5525 11.4858 13.2342 11.4887 11.9153C11.4916 10.6342 11.4459 9.3407 11.2902 8.0682C11.2407 7.664 11.1377 7.15073 10.7011 6.99714C10.4328 6.90279 10.1456 6.99363 9.94783 7.18901C9.71113 7.42285 9.64105 7.75596 9.58675 8.07139L9.82652 7.97385C8.8927 7.49434 8.62641 6.39871 8.39434 5.46282C8.28097 5.00559 8.17737 4.43724 7.69748 4.22266C7.28225 4.03699 6.76382 4.33372 6.85287 4.81747C6.88712 5.00359 7.16903 4.95216 7.17347 4.77409C7.18403 4.35029 6.84304 3.95753 6.41411 3.93228C5.97582 3.90648 5.61439 4.26552 5.56608 4.68446L5.88669 4.64108C5.80581 4.32273 5.48597 4.10133 5.15835 4.14574C4.82128 4.19144 4.59481 4.4823 4.55791 4.80661L4.87851 4.76323C4.81964 4.46695 4.50549 4.31603 4.22411 4.34876C3.87638 4.38921 3.66374 4.69283 3.54969 4.99748C3.27426 5.73317 3.33318 6.59541 3.51694 7.34427C3.7138 8.14655 4.08331 8.87908 4.48525 9.59513C4.83246 10.2137 5.1812 10.8603 5.18022 11.5887C5.17967 11.9933 5.06559 12.376 4.95602 12.7618C4.84345 13.158 4.72423 13.5524 4.60043 13.9453C4.35261 14.7318 4.08642 15.5124 3.81777 16.2919C3.28224 17.846 2.73544 19.3983 2.30667 20.9861C1.87926 22.5689 1.57307 24.1913 1.51176 25.8326C1.48083 26.6605 1.49975 27.4982 1.70652 28.3049C1.89506 29.0406 2.23332 29.8504 2.82611 30.353C3.44379 30.8767 4.28867 30.9975 5.06575 31.0914C5.96053 31.1996 6.8657 31.2106 7.76424 31.1461C9.25157 31.0393 10.7262 30.7536 12.1854 30.4549C14.7431 29.9313 17.2872 29.3355 19.824 28.719C20.0598 28.6617 20.2955 28.604 20.5311 28.5458C20.7349 28.4955 20.6486 28.1806 20.4443 28.231C18.0491 28.8225 15.6451 29.3834 13.233 29.9017C11.9978 30.1671 10.759 30.4195 9.51035 30.6138C7.80667 30.8789 6.04653 30.9865 4.34355 30.6527C3.97646 30.5807 3.60888 30.4798 3.28635 30.2849C2.96712 30.0919 2.72683 29.8061 2.53796 29.4884C2.13344 28.8078 1.92536 28.023 1.85733 27.2385C1.78701 26.4276 1.82981 25.6002 1.90901 24.7916C1.98594 24.0061 2.11646 23.2267 2.28351 22.4555C2.95676 19.3476 4.20997 16.4097 5.11854 13.3704C5.33346 12.6515 5.58609 11.9271 5.47401 11.1673C5.37226 10.4775 5.01029 9.86138 4.67312 9.26351C4.28354 8.57273 3.9507 7.84693 3.7884 7.06658C3.70925 6.68601 3.6758 6.29619 3.70173 5.90794C3.72442 5.56822 3.77408 5.15155 3.97761 4.86582C4.05967 4.75062 4.17643 4.66021 4.32377 4.67004C4.43977 4.67777 4.54017 4.73131 4.56375 4.84999C4.60253 5.04517 4.8652 4.97489 4.88436 4.80661C4.92722 4.43 5.47207 4.33473 5.57194 4.72786C5.62052 4.91908 5.87271 4.8565 5.89254 4.68447C5.92062 4.44098 6.16935 4.23533 6.41415 4.25872C6.66855 4.28302 6.85318 4.52877 6.84707 4.77409L7.16767 4.7307C7.13131 4.53316 7.38564 4.45473 7.53167 4.506C7.73818 4.57851 7.85576 4.78423 7.9246 4.97919C8.07634 5.4089 8.1473 5.86703 8.27805 6.30361C8.51075 7.08066 8.90995 7.86964 9.6618 8.25572C9.74682 8.29937 9.88263 8.2681 9.90157 8.15818C9.94657 7.89678 9.98868 7.59446 10.1942 7.40531C10.3382 7.27281 10.5558 7.23719 10.7095 7.37314C10.9598 7.59442 10.9636 8.04636 10.9939 8.35253C11.1173 9.59852 11.1704 10.8511 11.1615 12.103C11.1436 14.5858 10.8809 17.0607 10.4751 19.5083C10.2453 20.8939 9.97054 22.2716 9.67113 23.6436C9.64506 23.7631 9.74697 23.8789 9.87191 23.8444C10.0188 23.8039 10.1634 23.7269 10.3042 23.6695C10.535 23.5754 10.7657 23.4812 10.9963 23.3865C11.7647 23.071 12.5346 22.7606 13.3092 22.4606C15.1877 21.7329 17.0836 21.049 18.9914 20.4021C20.0668 20.0374 21.1469 19.6864 22.232 19.3516C22.4322 19.2898 22.3467 18.9746 22.1452 19.0368Z" fill="#662D91"/>
<path d="M9.75284 7.99868C8.81842 7.99049 8.04819 8.55557 7.3497 9.11085C7.28015 9.16614 7.29304 9.28375 7.3497 9.34167C7.41712 9.41059 7.5119 9.39622 7.58053 9.34167C8.20911 8.84195 8.91158 8.31774 9.75284 8.32512C9.96295 8.32696 9.96314 8.00054 9.75284 7.99868Z" fill="#662D91"/>
<path d="M6.86553 4.76981C6.90246 5.46113 7.11262 6.13431 7.4823 6.72026C7.59411 6.89749 7.87669 6.73387 7.76416 6.55551C7.42533 6.01847 7.22585 5.40441 7.19195 4.76982C7.18079 4.56086 6.8543 4.55954 6.86553 4.76981Z" fill="#662D91"/>
<path d="M5.60547 4.57425C5.63056 5.34342 5.83801 6.09568 6.21154 6.76859C6.31352 6.95229 6.59556 6.78784 6.4934 6.60384C6.14799 5.98159 5.9551 5.28561 5.93189 4.57425C5.92506 4.36472 5.5986 4.36378 5.60547 4.57425Z" fill="#662D91"/>
<path d="M4.59291 4.63287C4.53208 5.26643 4.65745 5.9051 4.94026 6.47418C5.03375 6.66231 5.31541 6.49715 5.22212 6.30943C4.96416 5.79035 4.86404 5.20885 4.91934 4.63288C4.92778 4.54501 4.83829 4.46967 4.75613 4.46967C4.66084 4.46967 4.60137 4.54475 4.59291 4.63287Z" fill="#662D91"/>
<path d="M26.3879 57.4872C25.6278 58.7764 24.1891 59.6067 22.6924 59.6193C22.4825 59.621 22.482 59.9475 22.6924 59.9457C24.303 59.9322 25.8517 59.0395 26.6698 57.6519C26.7767 57.4706 26.4947 57.3061 26.3879 57.4872Z" fill="#662D91"/>
<path d="M22.988 57.105C23.0249 57.1132 23.0611 57.1238 23.0963 57.1374C23.1085 57.142 23.1317 57.1571 23.0895 57.1341C23.0971 57.1382 23.1055 57.1412 23.1132 57.1449C23.1289 57.1524 23.1444 57.1604 23.1595 57.1689C23.1912 57.1867 23.2212 57.207 23.2505 57.2284C23.264 57.2382 23.2174 57.2018 23.2449 57.2244C23.2527 57.2308 23.2605 57.2374 23.2681 57.2441C23.2811 57.2557 23.2938 57.2676 23.3061 57.28C23.3184 57.2923 23.3303 57.305 23.3419 57.3181C23.3476 57.3247 23.3533 57.3313 23.3588 57.338C23.3625 57.3425 23.3662 57.347 23.3698 57.3516L23.3549 57.3323C23.3794 57.3597 23.3989 57.395 23.4167 57.4269C23.4252 57.4421 23.4332 57.4576 23.4406 57.4733C23.4443 57.4812 23.4476 57.4892 23.4514 57.497C23.4298 57.4514 23.4439 57.4795 23.448 57.4902C23.4615 57.5255 23.472 57.5617 23.4801 57.5986C23.4985 57.6821 23.6 57.7388 23.6809 57.7126C23.7686 57.6842 23.8146 57.6013 23.7949 57.5118C23.7179 57.1627 23.4237 56.868 23.0748 56.7902C22.9917 56.7717 22.8943 56.8154 22.8741 56.9042C22.8552 56.9869 22.8989 57.0851 22.988 57.105Z" fill="#662D91"/>
<path d="M22.7333 57.8618C22.7471 57.8702 22.7604 57.8792 22.7736 57.8885C22.7954 57.9038 22.7481 57.8675 22.763 57.88C22.7681 57.8843 22.7733 57.8885 22.7784 57.8929C22.8018 57.9131 22.8235 57.9351 22.8434 57.9587C22.8477 57.9638 22.8517 57.9693 22.8562 57.9743C22.8236 57.9382 22.8425 57.9566 22.8499 57.9671C22.8585 57.9791 22.8666 57.9915 22.8742 58.0041C22.8902 58.0306 22.904 58.0583 22.9161 58.0868L22.8996 58.0478C22.919 58.0952 22.9326 58.1442 22.9401 58.1949L22.9343 58.1515C22.9389 58.1862 22.9406 58.221 22.9392 58.2559C22.9359 58.3414 23.0167 58.423 23.1025 58.4192C23.1937 58.4151 23.2621 58.3474 23.2657 58.2559C23.2763 57.985 23.1282 57.7203 22.898 57.5799C22.8251 57.5354 22.7154 57.5615 22.6747 57.6385C22.6327 57.7179 22.6554 57.8143 22.7333 57.8618Z" fill="#662D91"/>
<path d="M22.2641 58.3707L22.2684 58.3762L22.2429 58.3431C22.2781 58.3891 22.307 58.4391 22.3296 58.4924L22.3131 58.4534C22.3352 58.5069 22.3505 58.5626 22.3588 58.6199L22.3529 58.5765C22.3569 58.6063 22.359 58.6362 22.3592 58.6662C22.3596 58.7516 22.4339 58.8334 22.5224 58.8294C22.6104 58.8255 22.6861 58.7577 22.6856 58.6662C22.6851 58.5774 22.6712 58.486 22.6416 58.4021C22.6251 58.3553 22.6053 58.3089 22.5815 58.2652C22.5569 58.2203 22.5264 58.1801 22.4949 58.1399C22.471 58.1093 22.4163 58.0921 22.3795 58.0921C22.3395 58.0921 22.2917 58.1099 22.2641 58.1399C22.2356 58.171 22.2144 58.2118 22.2163 58.2553L22.2221 58.2987C22.2299 58.3264 22.2439 58.3504 22.2641 58.3707Z" fill="#662D91"/>
<path d="M45.1759 25.4074C48.9606 24.6061 52.8277 23.8271 57.1258 22.3038C56.8849 22.3891 56.5561 23.1874 56.441 23.3873C55.8617 24.3933 55.3688 25.4494 54.9454 26.5297C53.4881 30.2478 53.0273 34.0988 53.0763 38.0685C53.0813 38.4742 53.0969 39.1622 53.646 39.2193C53.8693 39.2424 54.0843 39.1023 54.2135 38.9188C54.3428 38.7352 54.4029 38.5132 54.4606 38.2963C54.9468 38.5962 55.2609 39.1172 55.4404 39.6596C55.6198 40.2019 55.6813 40.7748 55.7748 41.3384C55.8102 41.5518 55.8522 41.7697 55.9639 41.9551C56.0755 42.1405 56.2716 42.2894 56.488 42.286C56.7043 42.2826 56.9153 42.0839 56.8816 41.8702C56.8318 42.2004 57.0844 42.5465 57.4141 42.5998C57.7437 42.6531 58.0925 42.4042 58.1493 42.0751C58.1766 42.3184 58.4176 42.5129 58.6621 42.5016C58.9066 42.4903 59.1241 42.286 59.1644 42.0445C59.179 42.3172 59.5432 42.4569 59.7923 42.3449C60.0413 42.233 60.1825 41.9681 60.2746 41.7111C60.7482 40.389 60.3784 38.9107 59.8025 37.6298C59.2991 36.5102 58.8901 35.6721 59.339 34.4593C61.0426 29.8561 63.7682 25.627 64.1756 20.6307C64.2514 19.7018 64.1915 18.8084 63.8582 17.9282C63.7022 17.5161 63.4911 17.1144 63.168 16.8148C62.7685 16.4443 62.2331 16.2606 61.7059 16.1232C60.6773 15.855 59.6149 15.725 58.5522 15.7015C57.5144 15.6786 56.4772 15.7565 55.4432 15.8481C52.9614 16.0679 48.0547 16.7586 45.5918 17.1352" fill="#FFDE17"/>
<path d="M45.1326 25.25C48.2115 24.5982 51.2929 23.9523 54.3106 23.05C55.2418 22.7716 56.1662 22.4706 57.0824 22.1463C57.2842 22.0749 57.3582 22.3829 57.1692 22.4611C57.1502 22.469 57.081 22.5538 57.0531 22.5928C56.9903 22.6805 56.9368 22.7753 56.8853 22.8699C56.7914 23.0427 56.7101 23.2217 56.6207 23.3968C56.4884 23.6559 56.3358 23.9053 56.2002 24.163C56.0363 24.4744 55.8799 24.7898 55.7307 25.1085C55.1492 26.351 54.6729 27.6426 54.3035 28.9637C53.577 31.5616 53.2748 34.256 53.2397 36.9486C53.2348 37.3262 53.2345 37.7038 53.2397 38.0813C53.2426 38.2945 53.2473 38.5112 53.3101 38.7167C53.3712 38.9162 53.5186 39.0906 53.7483 39.0539C54.1125 38.9956 54.2239 38.5502 54.3033 38.2528C54.3297 38.1538 54.454 38.0988 54.543 38.1553C55.2747 38.6189 55.6039 39.4526 55.7641 40.2689C55.8539 40.726 55.8724 41.2128 56.0112 41.6583C56.0689 41.8437 56.1793 42.0376 56.374 42.1044C56.5399 42.1613 56.7359 42.0596 56.7185 41.8702H57.0449C57.0157 42.1226 57.1717 42.3922 57.436 42.4382C57.6982 42.4838 57.9404 42.2796 57.9919 42.0317C58.0235 41.8799 58.2812 41.8721 58.3067 42.0317C58.3343 42.2042 58.4771 42.3512 58.6622 42.3384C58.8449 42.3256 58.9722 42.1699 59.007 42.0011C59.0471 41.8073 59.3096 41.8747 59.3276 42.0445C59.3393 42.1541 59.4714 42.2091 59.5663 42.2191C59.7288 42.2363 59.8619 42.1246 59.9514 42C60.1594 41.7106 60.2427 41.3093 60.2915 40.9635C60.4018 40.1828 60.2606 39.3853 60.0209 38.6417C59.7778 37.8873 59.375 37.1961 59.1405 36.4397C59.0375 36.1073 58.975 35.7585 58.9836 35.4097C58.9934 35.0171 59.0948 34.6465 59.2319 34.2811C60.3204 31.3778 61.7982 28.6363 62.8411 25.7149C63.3559 24.2729 63.764 22.7841 63.9485 21.2614C64.0471 20.4473 64.0976 19.6176 63.9387 18.8075C63.7974 18.0878 63.5213 17.2698 62.9118 16.8117C62.6195 16.5921 62.2738 16.4575 61.9262 16.3538C61.5113 16.23 61.0858 16.1377 60.6594 16.0634C59.8019 15.9139 58.9306 15.8554 58.0607 15.861C56.6578 15.8701 55.2549 16.016 53.862 16.175C51.3537 16.4614 48.8519 16.8118 46.3551 17.184C46.1151 17.2198 45.8752 17.256 45.6353 17.2926C45.4298 17.324 45.3412 17.0095 45.5485 16.9778C46.7339 16.7967 47.9209 16.6259 49.1087 16.4609C50.4689 16.272 51.8303 16.0904 53.1938 15.9269C54.5476 15.7646 55.9065 15.6149 57.2692 15.5553C58.183 15.5152 59.099 15.5306 60.0078 15.6405C60.8386 15.7409 61.71 15.8819 62.4865 16.2062C62.8398 16.3538 63.1709 16.5563 63.4259 16.8459C63.6774 17.1314 63.8522 17.469 63.991 17.821C64.3007 18.6065 64.3975 19.4573 64.3601 20.2968C64.2883 21.906 63.9133 23.5079 63.4174 25.0352C62.921 26.5643 62.2846 28.0434 61.6295 29.51C60.973 30.9801 60.2938 32.4413 59.7094 33.9422C59.5613 34.3226 59.3961 34.7057 59.3351 35.112C59.28 35.4783 59.3165 35.849 59.4124 36.2052C59.6232 36.9873 60.0472 37.6939 60.3046 38.4605C60.5622 39.2273 60.718 40.0534 60.6303 40.8636C60.5686 41.4338 60.3576 42.5721 59.5829 42.5462C59.287 42.5364 59.0332 42.3457 59.0012 42.0445L59.3218 42.0879C59.2576 42.3987 58.9844 42.6518 58.6622 42.6648C58.3449 42.6776 58.0419 42.4313 57.992 42.1185H58.3067C58.2217 42.5268 57.8068 42.823 57.3925 42.7601C56.9806 42.6976 56.6708 42.2818 56.7185 41.8702C56.7425 41.6627 57.0254 41.6581 57.0449 41.8702C57.0644 42.082 56.9368 42.2777 56.7539 42.3778C56.5595 42.4842 56.3272 42.462 56.1387 42.3536C55.691 42.0962 55.6392 41.5317 55.5688 41.0737C55.4233 40.128 55.2605 38.9962 54.3783 38.4372L54.6181 38.3396C54.5337 38.6556 54.433 38.9894 54.1683 39.203C53.9438 39.3842 53.6462 39.4411 53.3818 39.311C52.9731 39.1099 52.9246 38.5757 52.9149 38.1753C52.8805 36.7454 52.9385 35.3066 53.0758 33.8832C53.3563 30.9759 54.0406 28.125 55.2197 25.4484C55.5481 24.703 55.93 23.9924 56.316 23.2763C56.4279 23.0687 56.5204 22.8515 56.6363 22.6458C56.7446 22.4536 56.8697 22.2343 57.0824 22.1463L57.1692 22.4611C54.0878 23.5515 50.9195 24.3431 47.7273 25.0322C46.892 25.2126 46.0555 25.3878 45.2194 25.5648C45.0145 25.6082 44.9268 25.2935 45.1326 25.25Z" fill="#662D91"/>
<path d="M54.4563 38.0853C55.3125 38.1699 56.0623 37.7049 56.7484 37.2542C56.9245 37.1385 57.0882 37.421 56.9132 37.536C56.1816 38.0166 55.368 38.5018 54.4563 38.4117C54.2492 38.3913 54.2471 38.0646 54.4563 38.0853Z" fill="#662D91"/>
<path d="M56.6997 41.8727C56.7231 41.238 56.5877 40.6071 56.2986 40.041C56.2032 39.8542 56.4848 39.6888 56.5805 39.8762C56.8954 40.4928 57.0516 41.1803 57.0261 41.8727C57.0184 42.0821 56.6919 42.0831 56.6997 41.8727Z" fill="#662D91"/>
<path d="M57.9369 42.1812C57.9778 41.4719 57.8562 40.7584 57.5685 40.1076C57.5326 40.0263 57.5454 39.9331 57.627 39.8842C57.6961 39.8429 57.8148 39.8623 57.8504 39.9428C58.1616 40.647 58.3078 41.4115 58.2633 42.1812C58.2513 42.3901 57.9248 42.3914 57.9369 42.1812Z" fill="#662D91"/>
<path d="M58.9565 42.1708C59.0635 41.6018 59.0009 41.0151 58.7916 40.4765C58.7596 40.3943 58.8267 40.2973 58.9056 40.2757C58.9979 40.2503 59.0743 40.3072 59.1064 40.3897C59.3372 40.9839 59.3889 41.6322 59.2712 42.2576C59.2549 42.3442 59.1504 42.3935 59.0705 42.3716C58.9796 42.3466 58.9401 42.2577 58.9565 42.1708Z" fill="#662D91"/>
<path d="M56.5484 22.8495C56.8387 22.329 57.1507 21.8211 57.4836 21.3268C57.5328 21.2538 57.6274 21.2217 57.7069 21.2682C57.7794 21.3106 57.8149 21.4181 57.7655 21.4915C57.4326 21.9858 57.1206 22.4938 56.8303 23.0142C56.728 23.1977 56.4459 23.0333 56.5484 22.8495Z" fill="#662D91"/>
<path d="M9.80254 23.0158C9.67365 23.5792 9.52791 24.1385 9.36551 24.6932C9.30637 24.8952 9.6213 24.9815 9.68029 24.78C9.84269 24.2253 9.98841 23.666 10.1173 23.1026C10.1641 22.8981 9.84945 22.8108 9.80254 23.0158Z" fill="#662D91"/>
<path d="M51.9436 56.8372C51.6944 56.2159 51.9992 55.4261 52.6263 55.1624C52.7909 55.0931 53.0236 55.036 53.1448 55.2075C53.2606 55.3715 53.2987 55.6224 53.3242 55.8164C53.3849 56.2801 53.315 56.7604 53.1228 57.1868C53.0352 57.381 53.2771 57.5176 53.4046 57.3515C53.6416 57.043 53.9541 56.7957 54.3051 56.6292C54.4455 56.5626 54.6723 56.44 54.8172 56.5502C54.9212 56.6292 54.9561 56.7909 54.9684 56.9126C55.0031 57.2565 54.8987 57.6381 54.7549 57.9476C54.5952 58.2916 54.3638 58.5892 54.0721 58.831C53.9432 58.9379 54.0821 59.1468 54.2309 59.1038C54.5324 59.0167 54.9043 58.9013 55.2008 59.0637C55.4437 59.1968 55.5574 59.4933 55.5764 59.7567C55.6174 60.3269 55.3099 60.8827 54.8144 61.1624L55.0122 61.4187C55.2291 61.1382 55.637 61.223 55.9071 61.3778C56.2698 61.5856 56.5595 61.8916 56.967 62.0199C57.0745 62.0538 57.1665 61.9637 57.1736 61.8626C57.207 61.3874 57.7565 61.0573 58.2004 61.1764C58.6901 61.3079 58.9667 61.8784 58.8747 62.3558C58.8352 62.5611 59.1497 62.649 59.1895 62.4426C59.3163 61.7844 58.9435 61.0094 58.2522 60.853C57.6001 60.7054 56.8946 61.187 56.8472 61.8626L57.0538 61.7052C56.6061 61.5642 56.3004 61.1672 55.8656 60.9985C55.5086 60.86 55.0358 60.8589 54.7814 61.1879C54.6745 61.3261 54.8052 61.5425 54.9792 61.4442C55.6077 61.0895 55.9913 60.3535 55.8891 59.6339C55.8402 59.2899 55.6652 58.9362 55.3449 58.7712C54.9654 58.5758 54.5322 58.6769 54.1441 58.7891L54.3029 59.0619C54.8616 58.5988 55.2158 57.9207 55.2885 57.1999C55.3183 56.904 55.2871 56.5484 55.0595 56.3302C54.7764 56.0589 54.38 56.2249 54.0803 56.3769C53.701 56.5695 53.3809 56.8507 53.1228 57.1868L53.4046 57.3515C53.5908 56.9386 53.6876 56.4914 53.6689 56.0373C53.654 55.674 53.5999 55.1382 53.293 54.8929C52.9878 54.6489 52.5336 54.8023 52.2461 55.0016C51.9621 55.1983 51.7535 55.4807 51.6316 55.8025C51.4963 56.1596 51.486 56.5679 51.6289 56.924C51.7062 57.1166 52.022 57.0325 51.9436 56.8372Z" fill="#662D91"/>
<path d="M53.1655 63.1546C53.1789 63.1378 53.1938 63.1231 53.2093 63.1083C53.2292 63.0894 53.173 63.1333 53.207 63.1102C53.2154 63.1044 53.2241 63.0991 53.2331 63.0941C53.2398 63.0904 53.2555 63.0862 53.2604 63.0806C53.2536 63.0885 53.2201 63.0955 53.2498 63.0859C53.2694 63.0795 53.2889 63.0749 53.3091 63.0707C53.3368 63.0649 53.2617 63.0751 53.3041 63.0716C53.3144 63.0707 53.3248 63.0702 53.3352 63.0701C53.3537 63.0699 53.3719 63.0712 53.3903 63.0726C53.4188 63.0747 53.3439 63.0646 53.3863 63.0723C53.3968 63.0742 53.4072 63.0764 53.4175 63.079C53.437 63.0837 53.4562 63.0896 53.4751 63.0965C53.4887 63.1015 53.5137 63.1179 53.4696 63.0936C53.4789 63.0987 53.4891 63.1026 53.4985 63.1075C53.5174 63.1173 53.5357 63.1281 53.5533 63.1401C53.566 63.1489 53.5874 63.1737 53.5519 63.1382C53.5574 63.1437 53.5641 63.1483 53.5699 63.1535C53.5854 63.1674 53.5993 63.1826 53.6132 63.1981C53.6315 63.2185 53.5876 63.1617 53.6109 63.1956C53.6167 63.204 53.6222 63.2126 53.6272 63.2214C53.631 63.2281 53.6343 63.2349 53.638 63.2416C53.6577 63.2774 53.6284 63.212 53.6365 63.2377C53.6428 63.2574 53.6466 63.2773 53.6521 63.2971C53.6383 63.2474 53.6495 63.2753 53.6502 63.2929C53.6507 63.3037 53.6505 63.3144 53.65 63.3252C53.6464 63.4106 53.7277 63.4923 53.8132 63.4884C53.9048 63.4843 53.9726 63.4167 53.9765 63.3252C53.9932 62.932 53.5453 62.6718 53.1923 62.7623C53.0942 62.7875 52.9982 62.8443 52.9346 62.9238C52.9066 62.9588 52.8868 62.9925 52.8868 63.0392C52.8868 63.0792 52.9046 63.127 52.9346 63.1546C52.9939 63.209 53.1085 63.2258 53.1655 63.1546Z" fill="#662D91"/>
<path d="M10.8265 62.6317C10.3522 62.0783 10.0942 61.1507 10.4668 60.4761C10.6296 60.1814 10.9777 59.943 11.3258 60.0535C11.5793 60.1341 11.7686 60.4959 11.5789 60.7264L11.8517 60.7984C11.7975 60.4245 11.9083 60.0415 12.119 59.7324C12.2276 59.5731 12.3696 59.4317 12.5315 59.3267C12.6847 59.2274 12.9196 59.0948 13.1049 59.1675C13.2823 59.2371 13.337 59.4731 13.375 59.6387C13.4276 59.8683 13.4529 60.1024 13.4543 60.3378C13.4573 60.817 13.3578 61.2949 13.16 61.7318C13.0897 61.8871 13.2845 62.0806 13.4164 61.9295C13.7635 61.5319 14.3766 61.3824 14.8563 61.6276C15.3322 61.8709 15.5906 62.4478 15.4687 62.9653C15.4205 63.1697 15.7352 63.2568 15.7834 63.0521C15.9375 62.3985 15.6284 61.6566 15.021 61.3457C14.4169 61.0365 13.6318 61.1876 13.1855 61.6987L13.4419 61.8965C13.631 61.4789 13.7452 61.0374 13.7739 60.5793C13.8005 60.1552 13.77 59.6749 13.6049 59.2785C13.5317 59.1027 13.4154 58.943 13.2343 58.8683C13.0291 58.7837 12.8057 58.8326 12.6091 58.9169C12.2643 59.0647 11.9773 59.3303 11.7842 59.6503C11.5591 60.0234 11.4747 60.4554 11.537 60.8852C11.554 61.003 11.7365 61.0463 11.8098 60.9572C12.0199 60.7018 12.0267 60.3439 11.8468 60.0669C11.6462 59.7581 11.2764 59.6498 10.9263 59.7299C10.0891 59.9214 9.88956 60.9099 10.0114 61.6374C10.0875 62.0924 10.2966 62.5136 10.5957 62.8625C10.7327 63.0223 10.9626 62.7905 10.8265 62.6317Z" fill="#662D91"/>
<path d="M27.8265 15.7729C28.0677 16.381 28.6807 16.7349 29.3204 16.7634C30.068 16.7968 30.754 16.3783 31.2877 15.8932C31.4434 15.7516 31.2121 15.5213 31.0568 15.6624C30.6038 16.0742 30.0307 16.4375 29.3979 16.4387C28.8924 16.4397 28.3362 16.1776 28.1413 15.6861C28.0647 15.4932 27.7489 15.5773 27.8265 15.7729Z" fill="#662D91"/>
<path d="M34.0613 15.8149C34.64 16.3738 35.4018 16.8706 36.2391 16.8369C36.9485 16.8083 37.6543 16.3975 37.8802 15.6998C37.945 15.4995 37.6299 15.4137 37.5654 15.613C37.3772 16.1944 36.7457 16.5138 36.1625 16.5119C35.439 16.5096 34.793 16.0679 34.2921 15.584C34.1409 15.438 33.9098 15.6686 34.0613 15.8149Z" fill="#662D91"/>
<path d="M27.7374 13.1088C28.5731 12.2955 29.8037 11.934 30.946 12.1744C31.1509 12.2175 31.2385 11.9029 31.0327 11.8596C29.7748 11.5949 28.4287 11.9805 27.5066 12.878C27.3558 13.0247 27.5867 13.2554 27.7374 13.1088Z" fill="#662D91"/>
<path d="M38.4899 12.9353C37.5848 11.8274 36.0896 11.2905 34.6856 11.5355C34.479 11.5716 34.5666 11.8862 34.7724 11.8503C36.0666 11.6245 37.4313 12.1528 38.259 13.1661C38.392 13.3289 38.6217 13.0968 38.4899 12.9353Z" fill="#662D91"/>
<path d="M31.56 12.2272C31.2988 13.5898 31.1628 14.9727 31.0908 16.3573C31.0542 17.0615 31.0336 17.7664 31.0197 18.4714C31.0087 19.029 30.9099 19.7266 31.2725 20.2018C31.56 20.5788 32.2757 20.686 32.5176 20.2C32.6109 20.0125 32.3294 19.847 32.2357 20.0353C32.1603 20.1869 31.9983 20.2215 31.841 20.1903C31.6257 20.1476 31.4877 19.9915 31.4165 19.7892C31.3318 19.5482 31.3331 19.288 31.3364 19.0357C31.3405 18.7211 31.3469 18.4064 31.3543 18.0919C31.3832 16.8636 31.4375 15.6348 31.5666 14.4126C31.6409 13.7091 31.7416 13.0088 31.8748 12.314C31.9142 12.1088 31.5996 12.0208 31.56 12.2272Z" fill="#662D91"/>
<path d="M29.3041 20.0975C29.599 21.2283 30.5002 22.1184 31.6198 22.4384C32.6875 22.7436 33.9772 22.5109 34.7162 21.6351C35.114 21.1636 35.3296 20.5754 35.4419 19.9751C35.4802 19.7698 35.1657 19.6818 35.1271 19.8883C35.037 20.37 34.8851 20.8431 34.6038 21.249C34.3293 21.645 33.9289 21.9351 33.4732 22.0879C32.4748 22.4228 31.337 22.1865 30.5432 21.4969C30.091 21.1039 29.7701 20.5905 29.6189 20.0107C29.5659 19.8076 29.251 19.8937 29.3041 20.0975Z" fill="#662D91"/>
<path d="M29.0194 20.0269C29.1307 20.1225 29.262 20.1749 29.4082 20.1854C29.5373 20.1946 29.6758 20.1597 29.784 20.0884C29.8552 20.0414 29.8921 19.9419 29.8426 19.8651C29.7968 19.794 29.6955 19.7563 29.6192 19.8065C29.6055 19.8156 29.5914 19.8241 29.5768 19.8316C29.5695 19.8354 29.5618 19.8385 29.5546 19.8423C29.5979 19.82 29.5755 19.8336 29.5631 19.8381C29.5321 19.8493 29.5001 19.8567 29.4675 19.8615L29.5109 19.8556C29.4671 19.8613 29.4234 19.8614 29.3795 19.856L29.4229 19.8619C29.4011 19.8589 29.3796 19.8548 29.3583 19.8491C29.3477 19.8462 29.3373 19.843 29.3269 19.8394C29.3211 19.8374 29.2865 19.8235 29.3157 19.8358C29.345 19.8481 29.311 19.833 29.3055 19.8302C29.2957 19.8253 29.2862 19.8199 29.2768 19.8142C29.2674 19.8085 29.2585 19.8022 29.2494 19.7961C29.2264 19.7807 29.2825 19.8238 29.2502 19.7961C29.2169 19.7675 29.18 19.7483 29.1348 19.7483C29.0948 19.7483 29.0469 19.7661 29.0194 19.7961C28.9633 19.8572 28.9502 19.9675 29.0194 20.0269Z" fill="#662D91"/>
<path d="M34.8004 20.0284C34.9611 20.1024 35.1332 20.1212 35.3064 20.0824C35.461 20.0477 35.6125 19.96 35.7127 19.8364C35.7408 19.8017 35.7605 19.7674 35.7605 19.721C35.7605 19.681 35.7427 19.6332 35.7127 19.6056C35.6531 19.5509 35.5393 19.5348 35.4819 19.6056C35.463 19.6289 35.4426 19.6508 35.4203 19.6709C35.4141 19.6764 35.4075 19.6815 35.4014 19.6871C35.3867 19.7005 35.4348 19.6635 35.4069 19.6829C35.3946 19.6914 35.3824 19.6999 35.3696 19.7077C35.3569 19.7155 35.3438 19.7229 35.3306 19.7297C35.3232 19.7336 35.3157 19.7372 35.3082 19.7407C35.3033 19.7429 35.2813 19.7528 35.3048 19.7425C35.3298 19.7315 35.3021 19.7431 35.2964 19.7452C35.2901 19.7475 35.2838 19.7496 35.2775 19.7517C35.2616 19.7569 35.2456 19.7614 35.2294 19.7653C35.2148 19.7689 35.2001 19.7718 35.1853 19.7743C35.1797 19.7752 35.1556 19.7791 35.1822 19.775C35.2104 19.7705 35.1805 19.7747 35.1741 19.7752C35.1443 19.7775 35.1142 19.7778 35.0844 19.7757C35.0761 19.7752 35.0678 19.7741 35.0596 19.7735C35.0393 19.7721 35.1024 19.7812 35.0684 19.7745C35.0538 19.7717 35.0391 19.7689 35.0246 19.7653C35.0101 19.7616 34.9958 19.7574 34.9817 19.7526C34.9754 19.7504 34.9692 19.748 34.9629 19.7458C34.9292 19.7337 34.9977 19.7615 34.9651 19.7465C34.8877 19.7109 34.7857 19.722 34.7418 19.8051C34.7038 19.877 34.7176 19.9903 34.8004 20.0284Z" fill="#662D91"/>
<path d="M42.1863 9.59348C42.3876 9.47651 42.5704 9.33725 42.7383 9.18285C41.256 6.95775 39.6703 4.77668 37.9005 2.77361C36.5862 1.28618 33.9969 -0.57334 31.9865 0.464574C29.9478 1.51711 28.7726 3.92362 27.7165 5.84665C26.797 7.52101 25.8974 9.20647 25.024 10.9054C26.5565 10.4624 28.0456 9.84464 29.3645 8.9499C30.7874 7.98453 32.0087 6.68591 32.7345 5.12707C33.5083 7.15931 35.4176 8.55872 37.4198 9.40718C38.9391 10.051 40.7596 10.4225 42.1863 9.59348Z" fill="#662D91"/>
<path d="M42.2686 9.73435C42.4788 9.60972 42.6727 9.46231 42.8537 9.2982C42.9043 9.25225 42.9176 9.15805 42.8792 9.10041C41.7302 7.37662 40.5259 5.68788 39.2191 4.07951C38.6434 3.37099 38.0644 2.64733 37.3963 2.02264C36.8073 1.47199 36.1508 0.979041 35.4346 0.605808C34.7472 0.247527 33.9783 -0.016114 33.1945 0.000767028C32.3931 0.0180271 31.6969 0.376463 31.0737 0.857906C29.772 1.86362 28.9104 3.3276 28.1301 4.74698C27.1565 6.51792 26.1944 8.29538 25.2626 10.0887C25.1356 10.3332 25.0091 10.578 24.8831 10.823C24.8202 10.9454 24.9246 11.1042 25.0674 11.0627C27.6004 10.3273 30.0656 9.08419 31.7486 6.99754C32.1927 6.44694 32.5749 5.85014 32.8755 5.2094L32.5771 5.17041C33.1139 6.56413 34.1568 7.6699 35.3811 8.49698C36.0016 8.91612 36.6678 9.26477 37.3569 9.55629C38.106 9.87319 38.8896 10.1142 39.7004 10.2025C40.5837 10.2987 41.4896 10.1798 42.2686 9.73435C42.4509 9.63007 42.2867 9.34792 42.1038 9.45249C40.7371 10.2341 39.0596 9.8892 37.6761 9.33733C36.3736 8.81778 35.1197 8.06713 34.1517 7.04287C33.6148 6.47479 33.1735 5.81475 32.8919 5.08364C32.847 4.9671 32.6592 4.9048 32.5936 5.04465C31.5136 7.34692 29.4362 8.9742 27.1464 9.97611C26.4437 10.2836 25.7169 10.5342 24.9806 10.748L25.165 10.9877C26.1075 9.15468 27.0897 7.34368 28.0736 5.53263C28.8265 4.14679 29.583 2.70784 30.7232 1.59451C31.2582 1.07202 31.9169 0.561509 32.6596 0.391695C33.3864 0.225506 34.1496 0.392276 34.8248 0.676655C35.5539 0.983747 36.2243 1.43744 36.8246 1.94916C37.4675 2.49726 38.0133 3.13742 38.5541 3.78379C39.8494 5.33176 41.0405 6.96398 42.173 8.63384C42.3153 8.84368 42.4567 9.05418 42.5973 9.26516L42.6229 9.06737C42.4619 9.21332 42.2908 9.34168 42.1038 9.45249C41.9233 9.55953 42.0873 9.84182 42.2686 9.73435Z" fill="#662D91"/>
</svg>
