<svg width="24" height="24" viewBox="0 0 24 24" fill="none" xmlns="http://www.w3.org/2000/svg">
<path d="M15.5309 8.46939C15.6006 8.53904 15.6559 8.62176 15.6937 8.71281C15.7314 8.80386 15.7509 8.90145 15.7509 9.00001C15.7509 9.09857 15.7314 9.19617 15.6937 9.28722C15.6559 9.37827 15.6006 9.46098 15.5309 9.53064L9.53089 15.5306C9.46121 15.6003 9.37848 15.6556 9.28744 15.6933C9.19639 15.731 9.09881 15.7504 9.00027 15.7504C8.90172 15.7504 8.80414 15.731 8.7131 15.6933C8.62205 15.6556 8.53932 15.6003 8.46964 15.5306C8.39996 15.461 8.34469 15.3782 8.30697 15.2872C8.26926 15.1961 8.24985 15.0986 8.24985 15C8.24985 14.9015 8.26926 14.8039 8.30697 14.7128C8.34469 14.6218 8.39996 14.5391 8.46964 14.4694L14.4696 8.46939C14.5393 8.39966 14.622 8.34434 14.7131 8.30659C14.8041 8.26885 14.9017 8.24942 15.0003 8.24942C15.0988 8.24942 15.1964 8.26885 15.2875 8.30659C15.3785 8.34434 15.4612 8.39966 15.5309 8.46939ZM20.2128 3.78751C19.7253 3.29995 19.1465 2.91319 18.5095 2.64932C17.8725 2.38545 17.1898 2.24963 16.5003 2.24963C15.8108 2.24963 15.128 2.38545 14.4911 2.64932C13.8541 2.91319 13.2753 3.29995 12.7878 3.78751L9.96964 6.6047C9.82891 6.74543 9.74985 6.9363 9.74985 7.13532C9.74985 7.33435 9.82891 7.52522 9.96964 7.66595C10.1104 7.80668 10.3012 7.88574 10.5003 7.88574C10.6993 7.88574 10.8902 7.80668 11.0309 7.66595L13.849 4.85345C14.5548 4.16312 15.5044 3.779 16.4917 3.78443C17.479 3.78987 18.4243 4.18443 19.1225 4.88249C19.8207 5.58055 20.2154 6.52579 20.221 7.51306C20.2266 8.50034 19.8427 9.45 19.1525 10.156L16.3334 12.9741C16.1927 13.1147 16.1136 13.3054 16.1135 13.5044C16.1134 13.7033 16.1923 13.8941 16.3329 14.0349C16.4735 14.1756 16.6643 14.2547 16.8632 14.2548C17.0622 14.2549 17.253 14.1759 17.3937 14.0353L20.2128 11.2125C20.7003 10.725 21.0871 10.1462 21.351 9.50922C21.6148 8.87223 21.7506 8.1895 21.7506 7.50001C21.7506 6.81053 21.6148 6.1278 21.351 5.4908C21.0871 4.85381 20.7003 4.27503 20.2128 3.78751ZM12.9696 16.3331L10.1515 19.1513C9.80472 19.5059 9.39102 19.7881 8.93438 19.9817C8.47774 20.1753 7.98722 20.2764 7.49124 20.2792C6.99526 20.2819 6.50367 20.1862 6.04492 19.9976C5.58617 19.8091 5.16939 19.5314 4.81871 19.1806C4.46802 18.8299 4.1904 18.4131 4.00192 17.9543C3.81343 17.4955 3.71783 17.0039 3.72065 16.5079C3.72347 16.0119 3.82465 15.5214 4.01834 15.0648C4.21203 14.6082 4.49437 14.1946 4.84902 13.8478L7.6662 11.0306C7.80694 10.8899 7.886 10.699 7.886 10.5C7.886 10.301 7.80694 10.1101 7.6662 9.96939C7.52547 9.82866 7.3346 9.7496 7.13558 9.7496C6.93656 9.7496 6.74569 9.82866 6.60496 9.96939L3.78777 12.7875C2.80315 13.7721 2.25 15.1076 2.25 16.5C2.25 17.8925 2.80315 19.2279 3.78777 20.2125C4.77238 21.1971 6.10781 21.7503 7.50027 21.7503C8.89273 21.7503 10.2282 21.1971 11.2128 20.2125L14.0309 17.3934C14.1715 17.2527 14.2504 17.0619 14.2504 16.863C14.2503 16.664 14.1712 16.4733 14.0304 16.3327C13.8897 16.1921 13.6989 16.1131 13.4999 16.1132C13.301 16.1133 13.1102 16.1924 12.9696 16.3331Z" fill="#FFFFFD"/>
</svg>
