<svg width="35" height="18" viewBox="0 0 35 18" fill="none" xmlns="http://www.w3.org/2000/svg">
<path fill-rule="evenodd" clip-rule="evenodd" d="M12 4C12 1.79086 13.7909 0 16 0C18.2091 0 20 1.79086 20 4C20 6.20914 18.2091 8 16 8C13.7909 8 12 6.20914 12 4ZM23 12C23 8.68629 25.6863 6 29 6C32.3137 6 35 8.68629 35 12C35 15.3137 32.3137 18 29 18C25.6863 18 23 15.3137 23 12ZM3 6C1.34315 6 0 7.34315 0 9C0 10.6569 1.34315 12 3 12C4.65685 12 6 10.6569 6 9C6 7.34315 4.65685 6 3 6Z" fill="#332E36"/>
</svg>
