<svg width="101" height="100" viewBox="0 0 101 100" fill="none" xmlns="http://www.w3.org/2000/svg">
<path d="M74.5518 36.1406H26.4482C25.5972 36.1406 24.7721 36.4322 24.1101 36.9668L22.3541 38.385C19.1656 40.96 17.3125 44.8386 17.3125 48.937V91.2783C17.3125 93.3335 18.9786 94.9996 21.0338 94.9996H79.9662C82.0214 94.9996 83.6875 93.3335 83.6875 91.2783V48.937C83.6875 44.8386 81.8344 40.96 78.6459 38.3852L76.8899 36.967C76.2279 36.4322 75.4027 36.1406 74.5518 36.1406Z" fill="#332E36"/>
<path d="M32.7523 42.7443C35.7828 42.7443 38.2395 41.7758 38.2395 40.5811C38.2395 39.3865 35.7828 38.418 32.7523 38.418C29.7218 38.418 27.2651 39.3865 27.2651 40.5811C27.2651 41.7758 29.7218 42.7443 32.7523 42.7443Z" fill="#332E36"/>
<path d="M68.1879 42.7443C71.2184 42.7443 73.6751 41.7758 73.6751 40.5811C73.6751 39.3865 71.2184 38.418 68.1879 38.418C65.1574 38.418 62.7007 39.3865 62.7007 40.5811C62.7007 41.7758 65.1574 42.7443 68.1879 42.7443Z" fill="#332E36"/>
<path d="M83.6875 91.2783V48.9368C83.6875 44.8385 81.8344 40.9598 78.6459 38.385L76.8898 36.9668C76.2278 36.4322 75.4027 36.1406 74.5518 36.1406H34.4091L29.3188 41.2309L82.2798 94.1919C83.1371 93.51 83.6875 92.4587 83.6875 91.2783Z" fill="#332E36"/>
<path d="M50.5002 87.2742C47.2036 87.2742 44.5215 84.5921 44.5215 81.2955V75.5294C44.5215 74.2794 43.9756 73.1138 43.0237 72.3312C40.1658 69.9817 38.6007 66.513 38.7295 62.8146C38.8354 59.773 40.1091 56.9212 42.3158 54.7844C44.5214 52.6488 47.4121 51.4665 50.4554 51.4551H50.5002C56.9946 51.4551 62.2783 56.7385 62.2783 63.2329C62.2783 66.7674 60.7106 70.0833 57.9776 72.3307C57.0252 73.1138 56.4789 74.2796 56.4789 75.5296V81.2957C56.4789 84.5921 53.7968 87.2742 50.5002 87.2742Z" fill="#332E36"/>
<path d="M50.5002 87.2742C47.2036 87.2742 44.5215 84.5921 44.5215 81.2955V75.5294C44.5215 74.2794 43.9756 73.1138 43.0237 72.3312C40.1658 69.9817 38.6007 66.513 38.7295 62.8146C38.8354 59.773 40.1091 56.9212 42.3158 54.7844C44.5214 52.6488 47.4121 51.4665 50.4554 51.4551H50.5002C56.9946 51.4551 62.2783 56.7385 62.2783 63.2329C62.2783 66.7674 60.7106 70.0833 57.9776 72.3307C57.0252 73.1138 56.4789 74.2796 56.4789 75.5296V81.2957C56.4789 84.5921 53.7968 87.2742 50.5002 87.2742Z" fill="#332E36"/>
<path d="M17.3125 51.3164V91.2783C17.3125 93.3336 18.9786 94.9996 21.0338 94.9996H79.9662C82.0214 94.9996 83.6875 93.3336 83.6875 91.2783V51.3164H17.3125Z" fill="#332E36"/>
<path d="M78.6463 38.385L76.8903 36.9668C76.2283 36.4322 75.403 36.1406 74.5522 36.1406H51.7012V94.9996H79.9664C82.0217 94.9996 83.6877 93.3335 83.6877 91.2783V48.9368C83.6877 44.8385 81.8346 40.9598 78.6463 38.385Z" fill="#332E36"/>
<path d="M78.6461 38.385L76.89 36.9668C76.228 36.4322 75.4028 36.1406 74.552 36.1406H69.7621L64.7383 41.1643L83.6875 60.1135V48.937C83.6875 44.8385 81.8344 40.9598 78.6461 38.385Z" fill="#332E36"/>
<path d="M72.0565 26.5566V40.5801C72.0565 41.4096 70.3518 42.0816 68.2477 42.0816C66.1452 42.0816 64.4389 41.4096 64.4389 40.5801V26.5566C64.4389 18.8693 58.1854 12.6177 50.4999 12.6177C42.8144 12.6177 36.561 18.8693 36.561 26.5566V40.5801C36.561 41.4096 34.8547 42.0816 32.7522 42.0816C30.6479 42.0816 28.9434 41.4096 28.9434 40.5801V26.5566C28.9434 14.6696 38.6127 5 50.4999 5C62.3871 5 72.0565 14.6696 72.0565 26.5566Z" fill="#F3F2F3"/>
<path d="M15.2034 15.7943L19.0213 16.6687C19.5392 16.7873 19.7244 15.9826 19.2057 15.8638L15.3878 14.9894C14.8699 14.8708 14.6847 15.6755 15.2034 15.7943Z" fill="#F3F2F3"/>
<path d="M86.8708 15.7943L83.0529 16.6687C82.535 16.7873 82.3498 15.9826 82.8686 15.8638L86.6865 14.9894C87.2043 14.8708 87.3895 15.6755 86.8708 15.7943Z" fill="#F3F2F3"/>
<path d="M16.3762 26.5982C17.4234 25.9244 18.4707 25.2506 19.5179 24.5769C19.7054 24.4562 19.7677 24.1982 19.6482 24.0078C19.5304 23.82 19.2673 23.7564 19.0791 23.8774C18.0319 24.5512 16.9846 25.225 15.9374 25.8987C15.7499 26.0194 15.6876 26.2774 15.8071 26.4678C15.9249 26.6556 16.1881 26.7192 16.3762 26.5982Z" fill="#F3F2F3"/>
<path d="M85.698 26.5982C84.6508 25.9244 83.6035 25.2506 82.5563 24.5769C82.3688 24.4562 82.3066 24.1982 82.426 24.0078C82.5438 23.82 82.807 23.7564 82.9951 23.8774C84.0423 24.5512 85.0896 25.225 86.1368 25.8987C86.3243 26.0194 86.3866 26.2774 86.2671 26.4678C86.1493 26.6556 85.8862 26.7192 85.698 26.5982Z" fill="#F3F2F3"/>
<path d="M21.6649 8.51696C22.2241 9.24178 22.7833 9.9666 23.3425 10.6914C23.4742 10.8621 23.7158 10.9566 23.9116 10.8218C24.0812 10.705 24.1828 10.4352 24.0419 10.2526C23.4828 9.52782 22.9236 8.803 22.3644 8.07818C22.2327 7.90745 21.9911 7.813 21.7953 7.94784C21.6257 8.06459 21.524 8.33436 21.6649 8.51696Z" fill="#F3F2F3"/>
<path d="M80.4088 8.51696C79.8496 9.24178 79.2904 9.9666 78.7313 10.6914C78.5995 10.8621 78.358 10.9566 78.1621 10.8218C77.9926 10.705 77.8909 10.4352 78.0318 10.2526C78.591 9.52782 79.1502 8.803 79.7093 8.07818C79.8411 7.90745 80.0826 7.813 80.2785 7.94784C80.448 8.06459 80.5497 8.33436 80.4088 8.51696Z" fill="#F3F2F3"/>
<path d="M50.4999 5C50.1926 5 49.8873 5.00809 49.583 5.02074V12.6512C49.8864 12.6314 50.1916 12.6178 50.4999 12.6178C58.1854 12.6178 64.4388 18.8695 64.4388 26.5568V40.5802C64.4388 41.4097 66.1451 42.0818 68.2476 42.0818C70.3519 42.0818 72.0565 41.4097 72.0565 40.5802V26.5568C72.0565 14.6696 62.3871 5 50.4999 5Z" fill="#F3F2F3"/>
<path d="M59.7386 63.2329C59.7386 58.1187 55.5831 53.975 50.4646 53.9942C45.5364 54.0127 41.4385 57.9778 41.267 62.903C41.1622 65.9115 42.4971 68.6113 44.636 70.3696C46.1773 71.6367 47.0606 73.5342 47.0606 75.5293V81.2957C47.0606 83.1952 48.6004 84.735 50.4999 84.735C52.3994 84.735 53.9392 83.1952 53.9392 81.2957V75.5293C53.9392 73.5339 54.8231 71.6363 56.3645 70.3691C58.4245 68.6755 59.7386 66.1082 59.7386 63.2329Z" fill="#332E36"/>
<path d="M59.7386 63.2329C59.7386 58.1187 55.5831 53.975 50.4646 53.9942C45.5364 54.0127 41.4385 57.9778 41.267 62.903C41.1622 65.9115 42.4971 68.6113 44.636 70.3696C46.1773 71.6367 47.0606 73.5342 47.0606 75.5293V81.2957C47.0606 83.1952 48.6004 84.735 50.4999 84.735C52.3994 84.735 53.9392 83.1952 53.9392 81.2957V75.5293C53.9392 73.5339 54.8231 71.6363 56.3645 70.3691C58.4245 68.6755 59.7386 66.1082 59.7386 63.2329Z" fill="#332E36"/>
<path d="M59.7386 63.2329C59.7386 58.1187 55.5831 53.975 50.4646 53.9942C45.5364 54.0127 41.4385 57.9778 41.267 62.903C41.1622 65.9115 42.4971 68.6113 44.636 70.3696C46.1773 71.6367 47.0606 73.5342 47.0606 75.5293V81.2957C47.0606 83.1952 48.6004 84.735 50.4999 84.735C52.3994 84.735 53.9392 83.1952 53.9392 81.2957V75.5293C53.9392 73.5339 54.8231 71.6363 56.3645 70.3691C58.4245 68.6755 59.7386 66.1082 59.7386 63.2329Z" fill="#332E36"/>
<path d="M59.7386 63.2329C59.7386 58.1187 55.5831 53.975 50.4646 53.9942C45.5364 54.0127 41.4385 57.9778 41.267 62.903C41.1622 65.9115 42.4971 68.6113 44.636 70.3696C46.1773 71.6367 47.0606 73.5342 47.0606 75.5293V81.2957C47.0606 83.1952 48.6004 84.735 50.4999 84.735C52.3994 84.735 53.9392 83.1952 53.9392 81.2957V75.5293C53.9392 73.5339 54.8231 71.6363 56.3645 70.3691C58.4245 68.6755 59.7386 66.1082 59.7386 63.2329Z" fill="#F3F2F3"/>
</svg>
