<svg width="101" height="100" viewBox="0 0 101 100" fill="none" xmlns="http://www.w3.org/2000/svg">
<path d="M22.5144 49.3094C20.0998 50.4194 17.4728 52.5422 15.1801 53.9691C13.1148 55.2545 9.4211 57.9182 8.52394 60.2863C10.1056 56.1115 11.6872 51.9368 13.2689 47.762C13.4245 47.3512 13.5825 46.9094 13.48 46.4823C13.3071 45.7623 12.511 45.4219 11.8473 45.0938C6.14524 42.2752 5.31732 32.644 7.18198 27.3111C9.07716 21.891 13.5343 17.6374 18.6327 14.9964C23.7311 12.3555 29.4553 11.1711 35.148 10.4219C42.7743 9.41832 50.9104 9.23014 57.7327 12.7831C64.5549 16.3361 69.386 24.6924 66.6706 31.8892C64.8472 36.7222 60.2291 39.903 55.5994 42.1942C46.6744 46.6111 36.6989 48.8873 26.7412 48.779C25.3086 48.7635 23.8161 48.711 22.5144 49.3094Z" fill="#332E36"/>
<path d="M22.1231 48.6431C20.5053 49.4006 19.0291 50.4222 17.5644 51.4358C16.3053 52.307 15.0124 53.1227 13.7457 53.9813C11.4701 55.5239 8.82867 57.4399 7.77749 60.0818L9.26769 60.4927C10.4675 57.3256 11.6675 54.1586 12.8673 50.9915C13.14 50.2717 13.4127 49.5519 13.6854 48.8321C13.9573 48.1143 14.3455 47.3524 14.2663 46.5644C14.1334 45.2419 12.8874 44.8061 11.8883 44.244C8.40875 42.2861 7.23908 37.7605 7.08002 34.051C6.99667 32.107 7.15792 30.1358 7.69152 28.2598C8.35759 25.918 9.62478 23.7254 11.1765 21.8603C14.7509 17.5639 19.7645 14.8553 25.0525 13.2555C27.9407 12.3818 30.9108 11.8056 33.894 11.3701C36.8125 10.944 39.7561 10.6366 42.7066 10.5756C48.2683 10.4606 54.1841 11.2531 58.9208 14.3822C62.8402 16.9714 65.9544 21.2864 66.5656 26.0092C66.874 28.3927 66.4719 30.8187 65.3495 32.948C64.1714 35.1833 62.348 37.0166 60.3195 38.4953C58.1445 40.0806 55.7396 41.3264 53.2937 42.4355C50.4606 43.7201 47.5253 44.7809 44.5323 45.6273C38.5996 47.3051 32.4893 48.0637 26.3292 48.0026C24.8746 47.9881 23.4741 48.0576 22.1231 48.6431C21.2129 49.0375 21.9989 50.3695 22.903 49.9777C24.3526 49.3495 26.0507 49.5605 27.5874 49.5563C29.141 49.5521 30.6944 49.4898 32.2435 49.3711C35.4094 49.1283 38.5616 48.6545 41.6584 47.9533C47.6112 46.6053 53.582 44.4587 58.8356 41.3195C63.3473 38.6235 67.4289 34.6614 68.1098 29.2087C68.7252 24.2813 66.4421 19.3605 63.0812 15.8614C59.1278 11.7455 53.612 9.8288 48.0386 9.23668C41.9773 8.5927 35.6994 9.34398 29.7444 10.5135C23.8808 11.6649 18.0991 13.6949 13.4112 17.4991C9.61578 20.579 6.54726 24.8875 5.78037 29.7922C5.1329 33.9332 5.55129 38.6662 7.79967 42.2958C8.33887 43.1662 8.9978 43.9832 9.7823 44.6444C10.1293 44.9368 10.4958 45.2103 10.8834 45.4467C11.3862 45.7534 11.9962 45.9387 12.4564 46.3094C13.0073 46.7533 12.5597 47.4593 12.3588 47.9896C12.0452 48.8173 11.7316 49.6451 11.418 50.4728C10.8044 52.0924 10.1908 53.7119 9.57724 55.3314C8.97729 56.915 8.37744 58.4983 7.77749 60.0818C7.42284 61.018 8.90559 61.4028 9.26769 60.4927C9.72922 59.3327 10.7277 58.3776 11.6335 57.5574C12.6477 56.6391 13.751 55.8227 14.8928 55.0706C16.1626 54.2342 17.4293 53.4002 18.6818 52.5372C20.0368 51.6037 21.4091 50.6772 22.903 49.9777C23.803 49.5564 23.0193 48.2235 22.1231 48.6431Z" fill="#F3F2F3"/>
<path d="M93.3834 63.9758C93.4533 61.2176 92.7839 58.3818 91.1399 56.1659C88.2877 52.3218 83.1194 51.0075 78.3368 50.8075C67.9201 50.3719 57.3871 54.135 49.6046 61.0727C42.3596 67.5312 41.2614 77.2909 51.6657 81.1952C55.2815 82.552 59.2357 82.6616 63.0964 82.5587C64.6702 82.5167 70.6125 80.6934 71.1837 81.8515C73.1794 85.8975 77.0192 88.9877 81.3984 90.0719C79.2612 87.3024 78.3526 83.6187 78.9568 80.1729C79.0086 79.8775 87.2751 76.086 88.3756 75.0941C91.4479 72.325 93.2788 68.1039 93.3834 63.9758Z" fill="#332E36"/>
<path d="M94.1545 63.975C94.238 59.6013 92.5264 55.4266 88.8224 52.9481C85.4944 50.721 81.3039 50.0724 77.3765 50.0058C68.619 49.857 59.8085 52.5978 52.6637 57.6604C49.6103 59.8239 46.696 62.3569 44.899 65.6951C43.4908 68.3111 42.7838 71.4037 43.5669 74.3271C44.4113 77.4787 46.8875 79.8184 49.7541 81.2112C51.8613 82.2351 54.1175 82.8106 56.4351 83.102C58.6663 83.3825 61.0426 83.5105 63.2872 83.3189C64.5814 83.2084 65.8601 82.8559 67.1324 82.6096C67.8293 82.4747 68.5302 82.3426 69.2377 82.2775C69.5281 82.2508 69.8207 82.232 70.1125 82.2408C70.3265 82.2473 70.456 82.2841 70.5653 82.2976C70.4633 82.285 70.5978 82.2853 70.604 82.3221C70.6179 82.4049 70.492 82.2037 70.4913 82.1992C70.5132 82.3425 70.6866 82.5792 70.7565 82.7092C71.006 83.1731 71.2807 83.6236 71.5774 84.0587C72.1415 84.8859 72.7794 85.6677 73.4817 86.3812C74.8786 87.8005 76.5461 88.985 78.3585 89.812C79.2732 90.2294 80.2167 90.5687 81.1914 90.8162C81.7813 90.966 82.4955 90.2495 82.064 89.6811C80.2449 87.2845 79.3444 84.3121 79.5838 81.3068C79.5985 81.1224 79.6158 80.9376 79.6404 80.7543L79.6689 80.5657C79.7314 80.326 79.712 80.3152 79.6108 80.5334C79.27 80.8106 79.5295 80.7067 79.5512 80.6626C79.493 80.7809 79.3858 80.7738 79.4936 80.7135C79.6858 80.6061 79.8726 80.4897 80.0667 80.3849C80.7144 80.0351 81.3744 79.7072 82.0323 79.377C83.7161 78.5317 85.412 77.7062 87.0673 76.8057C87.598 76.517 88.1401 76.2293 88.628 75.8708C89.6033 75.154 90.4086 74.136 91.1051 73.1584C93.0048 70.4922 94.0518 67.2399 94.1545 63.975C94.1858 62.9803 92.6403 62.9813 92.609 63.975C92.5163 66.9209 91.5578 69.8065 89.8766 72.2277C89.4949 72.7775 89.0714 73.2948 88.6115 73.7811C88.36 74.047 88.0955 74.2978 87.8276 74.547C87.7924 74.5798 87.6746 74.6682 87.8479 74.5364C87.8049 74.5691 87.7609 74.6014 87.7157 74.6309C87.1331 75.0108 86.5252 75.3462 85.9118 75.6734C84.2421 76.564 82.5402 77.3928 80.8506 78.2445C80.2306 78.5571 79.6047 78.8641 79.001 79.2076C78.8227 79.3091 78.6298 79.4137 78.4784 79.5544C78.1093 79.8974 78.1265 80.4585 78.0746 80.9273C77.7029 84.2823 78.6923 87.7772 80.7296 90.4611L81.6022 89.326C77.9246 88.3921 74.6547 86.0511 72.6226 82.8386C72.2527 82.2537 72.0011 81.3622 71.384 80.9876C70.9567 80.7282 70.4108 80.6903 69.9232 80.6937C68.5672 80.7031 67.1995 81.0182 65.8768 81.2881C64.5748 81.5539 63.5074 81.7828 62.2355 81.8041C59.9095 81.8431 57.5605 81.7923 55.2665 81.3729C51.8742 80.7526 48.1399 79.2839 46.1454 76.2978C42.6369 71.0453 46.4757 64.7898 50.5818 61.2384C56.876 55.7946 64.9722 52.416 73.2577 51.6956C77.166 51.3557 81.2779 51.4538 85.0106 52.7758C86.7005 53.3743 88.3109 54.2758 89.5857 55.5485C91.0529 57.0131 91.9462 58.897 92.3583 60.9158C92.564 61.9234 92.6286 62.9482 92.609 63.975C92.5901 64.9699 94.1356 64.9699 94.1545 63.975Z" fill="#F3F2F3"/>
<path d="M18.5478 34.7024C22.9273 33.3483 25.6053 28.1606 24.0359 23.8168C23.9078 23.4621 23.4953 23.107 23.0854 23.2771C20.2477 24.4547 20.3583 28.388 22.6789 30.0349C25.7064 32.1835 29.4473 30.2567 31.8731 28.1726C33.0519 27.1599 35.4342 25.2868 34.1611 23.5157C33.6899 22.8602 32.4309 23.2222 32.7488 24.1111C33.3158 25.6964 35.1193 25.7415 36.5463 25.8364C38.4513 25.9631 40.3648 25.9606 42.2696 25.8312C46.0432 25.5749 49.7759 24.8348 53.359 23.6246C54.2963 23.3081 53.8942 21.8149 52.9482 22.1344C49.7701 23.2078 46.4743 23.9238 43.1316 24.2185C41.4809 24.3641 39.8219 24.4142 38.1654 24.3675C37.3373 24.3442 36.5095 24.2978 35.6843 24.2248C35.2836 24.1893 34.4052 24.1648 34.2391 23.7003L32.8267 24.2957C33.2554 24.8921 32.3383 25.6671 31.9389 26.0386C31.3234 26.6109 30.6999 27.1839 30.031 27.694C28.7703 28.6554 27.319 29.4241 25.6964 29.3964C24.436 29.3749 23.0127 28.8109 22.5982 27.5158C22.3035 26.5947 22.4813 25.1885 23.4963 24.7673L22.5457 24.2276C23.8237 27.7648 21.763 32.091 18.137 33.2121C17.1898 33.505 17.5939 34.9973 18.5478 34.7024Z" fill="#F3F2F3"/>
<path d="M29.4912 39.6176C30.9854 40.4621 32.8888 40.3163 34.2052 39.1986C35.4853 38.1117 35.919 36.1638 35.2804 34.6239C35.1071 34.2059 34.5988 33.8435 34.1453 34.1621C32.8124 35.0984 33.1534 37.0352 34.3942 37.9055C35.891 38.9553 37.8439 38.4832 39.4471 37.9799C43.4069 36.7368 47.2651 35.1685 50.9837 33.3267C51.875 32.8853 51.0929 31.5519 50.2037 31.9923C47.2558 33.4523 44.2227 34.7281 41.1136 35.8036C39.7578 36.2727 38.278 36.9152 36.8287 36.9843C36.2544 37.0117 35.5483 36.9529 35.1231 36.5117C34.9439 36.3257 34.6187 35.7119 34.9253 35.4965L33.7902 35.0347C34.2063 36.0383 34.0667 37.2372 33.2358 37.9966C32.4328 38.7304 31.2005 38.8084 30.2712 38.2832C29.4042 37.7932 28.6244 39.1277 29.4912 39.6176Z" fill="#F3F2F3"/>
<path d="M59.2508 72.0444C60.7233 70.9466 61.82 69.4613 62.375 67.7023C62.6303 66.8931 62.8766 65.8666 62.6955 65.0195C62.5082 64.1436 61.6277 63.6271 60.8021 64.0991C59.3997 64.901 59.3513 66.8919 60.1403 68.1351C61.1143 69.6698 63.0923 69.9795 64.7044 69.3467C66.766 68.5375 67.8776 66.5879 68.699 64.6456L67.8264 65.0007C68.187 65.069 68.3569 65.6752 68.5559 65.9916C68.8479 66.4558 69.2415 66.8502 69.7263 67.1126C70.7197 67.6505 71.906 67.6869 73.0026 67.5509C75.91 67.1906 78.7998 66.1381 81.466 64.9613C82.3739 64.5606 81.5884 63.2286 80.6859 63.6268C79.3753 64.2053 78.0291 64.7011 76.6578 65.1157C75.421 65.4896 74.1297 65.8738 72.8427 66.0248C71.9854 66.1254 70.8919 66.1642 70.1906 65.568C69.4278 64.9195 69.3968 63.7299 68.2372 63.5105C67.9354 63.4533 67.5022 63.5401 67.3646 63.8656C66.7541 65.3091 66.0206 66.9144 64.5868 67.7072C63.4781 68.3203 61.7933 68.3468 61.2774 66.9697C61.1889 66.7336 61.1425 66.473 61.1644 66.221C61.189 65.9372 61.382 65.7914 61.4347 65.5509C61.5895 65.4603 61.5643 65.4036 61.3592 65.3808C61.2131 65.2621 61.1581 65.2564 61.1943 65.3636C61.16 65.4049 61.1927 65.6665 61.1886 65.7375C61.1648 66.147 61.0894 66.5505 60.9846 66.9466C60.5922 68.431 59.7054 69.7893 58.4707 70.7098C57.6825 71.2975 58.4522 72.6398 59.2508 72.0444Z" fill="#F3F2F3"/>
<path d="M67.8593 74.3945C69.4548 74.3007 71.0503 74.2068 72.6459 74.113C73.0486 74.0893 73.438 73.7745 73.4186 73.3403C73.4007 72.942 73.078 72.5421 72.6459 72.5676C71.0503 72.6614 69.4548 72.7553 67.8593 72.8491C67.4566 72.8728 67.0672 73.1875 67.0866 73.6218C67.1045 74.0201 67.4272 74.42 67.8593 74.3945Z" fill="#F3F2F3"/>
<path fill-rule="evenodd" clip-rule="evenodd" d="M35.8764 71.4735C36.2402 71.8374 36.8302 71.8374 37.1942 71.4735L36.5433 70.8227C37.1942 71.4735 37.1944 71.4733 37.1946 71.473L37.1953 71.4724L37.197 71.4707L37.2022 71.4654L37.2195 71.4478C37.2341 71.433 37.2545 71.412 37.2803 71.3851C37.3318 71.3313 37.4049 71.2538 37.495 71.1549C37.6751 70.9574 37.9246 70.6734 38.2078 70.3213C38.7708 69.6214 39.4837 68.6324 40.0479 67.5041C40.6072 66.3854 41.0567 65.058 41.0046 63.7028C40.9507 62.3017 40.361 60.9408 38.981 59.837C36.2418 57.6458 33.3544 58.3127 31.3224 59.3923C30.3065 59.932 29.4601 60.5921 28.8721 61.1105C28.5764 61.3712 28.3418 61.5998 28.1793 61.7654C28.0979 61.8482 28.0343 61.9155 27.9899 61.9635C27.9677 61.9874 27.9503 62.0066 27.9378 62.0204L27.9228 62.0372L27.9181 62.0425L27.9164 62.0443L27.9158 62.0451C27.9155 62.0454 27.9153 62.0457 28.6148 62.6612L27.9153 62.0457C27.5753 62.432 27.6129 63.0208 27.9993 63.3608C28.3855 63.7006 28.974 63.6631 29.314 63.2772L29.3143 63.2768L29.3144 63.2768L29.3215 63.2688C29.3287 63.2608 29.3406 63.2477 29.3571 63.23C29.39 63.1944 29.4411 63.1402 29.509 63.0711C29.6449 62.9327 29.847 62.7355 30.1046 62.5084C30.623 62.0514 31.349 61.4884 32.1967 61.0381C33.8919 60.1375 35.8965 59.7561 37.8168 61.2923C38.7667 62.052 39.1089 62.9042 39.1423 63.7745C39.1776 64.6905 38.87 65.6927 38.381 66.6706C37.8968 67.6389 37.2701 68.5136 36.7557 69.1532C36.5001 69.4708 36.2763 69.7255 36.1179 69.8992C36.0388 69.986 35.9763 70.0523 35.9345 70.0958C35.9137 70.1176 35.898 70.1337 35.8882 70.1438L35.8778 70.1543L35.8764 70.1557L35.8759 70.1562C35.5125 70.5202 35.5127 71.1098 35.8764 71.4735ZM19.4878 72.4042C19.1239 72.0403 18.5339 72.0403 18.17 72.4042L18.8279 73.0621C18.17 72.4042 18.1698 72.4044 18.1695 72.4047L18.1689 72.4053L18.1672 72.4071L18.162 72.4123L18.1447 72.4299C18.1301 72.4447 18.1097 72.4657 18.0839 72.4927C18.0324 72.5465 17.9593 72.624 17.8692 72.7228C17.689 72.9204 17.4396 73.2044 17.1564 73.5565C16.5934 74.2564 15.8805 75.2454 15.3163 76.3736C14.757 77.4923 14.3074 78.8197 14.3596 80.1749C14.4135 81.576 15.0032 82.9369 16.3832 84.0408C19.1224 86.2319 22.0098 85.565 24.0418 84.4854C25.0577 83.9457 25.9041 83.2856 26.4921 82.7672C26.7878 82.5065 27.0224 82.2779 27.1849 82.1124C27.2663 82.0295 27.3299 81.9622 27.3743 81.9143C27.3965 81.8903 27.4139 81.8711 27.4264 81.8573L27.4414 81.8405L27.4461 81.8352L27.4478 81.8334L27.4484 81.8327C27.4487 81.8324 27.4489 81.8321 26.7494 81.2165L27.4489 81.8321C27.7889 81.4457 27.7513 80.8569 27.3649 80.517C26.9787 80.1771 26.3902 80.2146 26.0502 80.6005L26.0498 80.6009L26.0498 80.601L26.0426 80.6089C26.0355 80.6169 26.0236 80.63 26.0071 80.6478C25.9741 80.6833 25.9231 80.7375 25.8552 80.8066C25.7193 80.945 25.5171 81.1423 25.2596 81.3693C24.7412 81.8264 24.0152 82.3893 23.1675 82.8396C21.4723 83.7402 19.4677 84.1216 17.5473 82.5855C16.5975 81.8257 16.2553 80.9735 16.2218 80.1033C16.1866 79.1872 16.4942 78.185 16.9832 77.2071C17.4674 76.2388 18.094 75.3642 18.6085 74.7246C18.864 74.4069 19.0879 74.1522 19.2463 73.9785C19.3254 73.8917 19.3879 73.8254 19.4297 73.7819C19.4505 73.7601 19.4661 73.7441 19.476 73.734L19.4864 73.7234L19.4878 73.722L19.4883 73.7215C19.8517 73.3576 19.8515 72.768 19.4878 72.4042ZM15.1872 65.4559C15.4002 64.9874 15.9526 64.7803 16.4211 64.9932L21.5461 67.3228C22.0146 67.5357 22.2218 68.0881 22.0088 68.5566C21.7958 69.0251 21.2434 69.2323 20.7749 69.0193L15.6499 66.6898C15.1814 66.4768 14.9743 65.9244 15.1872 65.4559ZM39.8522 79.7352C40.3207 79.9482 40.8731 79.741 41.0861 79.2725C41.299 78.804 41.0919 78.2516 40.6234 78.0386L35.4984 75.7091C35.0299 75.4961 34.4774 75.7033 34.2645 76.1718C34.0515 76.6403 34.2587 77.1927 34.7272 77.4057L39.8522 79.7352ZM20.0664 58.9989C20.5003 58.7223 21.0764 58.8498 21.353 59.2838L24.3793 64.0308C24.6559 64.4647 24.5284 65.0408 24.0945 65.3174C23.6605 65.594 23.0845 65.4665 22.8078 65.0326L19.7815 60.2856C19.5049 59.8516 19.6324 59.2756 20.0664 58.9989ZM34.9204 85.4447C35.1971 85.8786 35.7731 86.0062 36.2071 85.7295C36.641 85.4529 36.7685 84.8768 36.4919 84.4429L33.4656 79.6959C33.189 79.2619 32.6129 79.1344 32.179 79.4111C31.745 79.6877 31.6175 80.2638 31.8941 80.6977L34.9204 85.4447Z" fill="#F3F2F3"/>
<path fill-rule="evenodd" clip-rule="evenodd" d="M83.6572 29.1835C83.9125 29.2915 84.207 29.172 84.315 28.9167L83.8527 28.7213C84.315 28.9167 84.315 28.9165 84.3151 28.9164L84.3153 28.9159L84.3158 28.9147L84.3174 28.911L84.3224 28.8987C84.3267 28.8884 84.3326 28.8738 84.34 28.8551C84.3549 28.8178 84.3756 28.7643 84.4006 28.6967C84.4505 28.5617 84.5175 28.3694 84.5876 28.1363C84.7268 27.673 84.8824 27.035 84.9355 26.3576C84.9881 25.686 84.9437 24.9324 84.6432 24.2665C84.3326 23.5781 83.7626 23.0183 82.8503 22.7468C81.0394 22.2079 79.7333 23.1255 78.9377 24.0758C78.54 24.5509 78.2512 25.0517 78.0627 25.4296C77.9679 25.6196 77.8971 25.7812 77.8495 25.8967C77.8257 25.9546 77.8076 26.001 77.7951 26.034C77.7889 26.0504 77.7841 26.0635 77.7806 26.073L77.7765 26.0844L77.7753 26.0879L77.7748 26.0892L77.7746 26.0897C77.7746 26.0899 77.7745 26.0901 78.2483 26.2557L77.7745 26.0901C77.6831 26.3518 77.8211 26.638 78.0827 26.7295C78.3443 26.8209 78.6305 26.683 78.722 26.4215L78.7221 26.4213L78.7221 26.4212L78.7241 26.4158L78.734 26.3892C78.7432 26.3648 78.7577 26.3274 78.7776 26.2792C78.8174 26.1826 78.8784 26.0432 78.9609 25.8777C79.1271 25.5446 79.3755 25.1166 79.7074 24.7202C80.3711 23.9274 81.2944 23.3311 82.564 23.7089C83.1919 23.8958 83.5353 24.2519 83.7282 24.6794C83.9313 25.1295 83.9808 25.692 83.9347 26.2791C83.8891 26.8605 83.7535 27.4239 83.6262 27.8474C83.563 28.0576 83.5029 28.2301 83.459 28.3489C83.4371 28.4082 83.4193 28.454 83.4073 28.4841L83.3938 28.5175L83.3908 28.5248L83.3904 28.5258L83.3902 28.5262C83.2826 28.7814 83.402 29.0756 83.6572 29.1835ZM75.6659 32.9668C75.4106 32.8589 75.1161 32.9783 75.0082 33.2337L75.4691 33.4286C75.0082 33.2337 75.0081 33.2338 75.008 33.234L75.0078 33.2344L75.0073 33.2357L75.0058 33.2393L75.0007 33.2516C74.9965 33.262 74.9905 33.2766 74.9831 33.2952C74.9683 33.3325 74.9475 33.386 74.9225 33.4536C74.8726 33.5887 74.8056 33.781 74.7356 34.0141C74.5963 34.4774 74.4408 35.1154 74.3877 35.7928C74.335 36.4644 74.3794 37.218 74.6799 37.8838C74.9906 38.5722 75.5605 39.132 76.4728 39.4035C78.2837 39.9425 79.5898 39.0249 80.3854 38.0746C80.7832 37.5995 81.0719 37.0986 81.2604 36.7208C81.3552 36.5308 81.426 36.3692 81.4736 36.2536C81.4975 36.1958 81.5156 36.1493 81.528 36.1164C81.5342 36.0999 81.5391 36.0869 81.5425 36.0774L81.5466 36.066L81.5479 36.0624L81.5483 36.0612L81.5485 36.0607C81.5486 36.0605 81.5486 36.0603 81.0748 35.8947L81.5486 36.0603C81.6401 35.7986 81.5021 35.5123 81.2404 35.4209C80.9788 35.3295 80.6927 35.4673 80.6011 35.7288L80.601 35.7291L80.601 35.7291L80.599 35.7346L80.5892 35.7611C80.5799 35.7856 80.5654 35.8229 80.5455 35.8712C80.5057 35.9678 80.4448 36.1072 80.3622 36.2726C80.196 36.6058 79.9476 37.0337 79.6157 37.4302C78.952 38.223 78.0287 38.8193 76.7591 38.4414C76.1312 38.2546 75.7878 37.8985 75.5949 37.4709C75.3918 37.0209 75.3424 36.4584 75.3884 35.8712C75.434 35.2899 75.5696 34.7264 75.6969 34.303C75.7601 34.0927 75.8203 33.9203 75.8641 33.8015C75.8861 33.7422 75.9038 33.6964 75.9159 33.6662L75.9293 33.6329L75.9323 33.6255L75.9327 33.6246L75.9329 33.6242C76.0406 33.369 75.9211 33.0747 75.6659 32.9668ZM72.1122 30.3697C72.1236 30.0927 72.3574 29.8775 72.6343 29.8889L75.6641 30.0138C75.941 30.0252 76.1563 30.2589 76.1449 30.5359C76.1335 30.8129 75.8997 31.0281 75.6227 31.0167L72.593 30.8918C72.316 30.8804 72.1008 30.6467 72.1122 30.3697ZM87.3146 32.502C87.5916 32.5134 87.8253 32.2981 87.8368 32.0212C87.8482 31.7442 87.6329 31.5104 87.3559 31.499L84.3262 31.3741C84.0493 31.3627 83.8155 31.578 83.8041 31.8549C83.7926 32.1319 84.0079 32.3657 84.2849 32.3771L87.3146 32.502ZM73.2399 26.1589C73.4005 25.9329 73.7138 25.8799 73.9398 26.0405L76.4116 27.7969C76.6375 27.9575 76.6905 28.2708 76.5299 28.4968C76.3694 28.7228 76.056 28.7758 75.8301 28.6152L73.3583 26.8587C73.1324 26.6982 73.0793 26.3848 73.2399 26.1589ZM86.0093 36.3504C86.2353 36.511 86.5486 36.458 86.7092 36.232C86.8697 36.0061 86.8167 35.6927 86.5908 35.5321L84.119 33.7757C83.893 33.6151 83.5797 33.6681 83.4191 33.8941C83.2586 34.12 83.3116 34.4334 83.5375 34.5939L86.0093 36.3504Z" fill="#F3F2F3"/>
</svg>
