<svg width="343" height="224" viewBox="0 0 343 224" fill="none" xmlns="http://www.w3.org/2000/svg">
<path d="M149.574 132.969C142.671 153.665 142.406 175.904 142.213 197.721C142.188 200.588 142.126 203.599 140.698 206.085C139.36 208.413 137.015 209.946 135.095 211.824C133.175 213.701 131.572 216.403 132.364 218.969C133.007 221.051 135.105 222.415 137.246 222.82C139.386 223.225 141.588 222.847 143.733 222.469C146.109 222.05 148.485 221.632 150.862 221.213C150.877 221.21 150.978 222.444 151.02 222.537C151.329 223.228 151.123 223.069 151.834 223.353C152.81 223.742 154.654 223.282 155.688 223.196C158.443 222.968 161.186 222.583 163.898 222.043C163.709 218.953 164.902 167.246 173.047 148.018" fill="#3B1954"/>
<path d="M194.892 132.387C204.337 152.053 207.392 174.082 210.321 195.702C210.706 198.543 211.146 201.523 212.875 203.81C214.494 205.952 217.013 207.178 219.153 208.799C221.294 210.421 223.224 212.9 222.76 215.545C222.384 217.691 220.473 219.308 218.4 219.979C216.328 220.65 214.096 220.551 211.921 220.446C209.51 220.329 207.1 220.212 204.69 220.095C204.674 220.094 204.729 221.33 204.699 221.428C204.48 222.153 204.663 221.969 203.994 222.34C203.075 222.848 201.188 222.623 200.151 222.668C197.389 222.788 194.62 222.751 191.862 222.556C191.08 210.508 188.552 198.264 186.045 186.489C184.514 179.298 182.766 172.124 180.416 165.152C178.54 159.587 175.725 149.443 168.014 150.08" fill="#3B1954"/>
<path d="M149.102 132.839C146.708 140.038 145.093 147.472 144.023 154.978C142.949 162.509 142.401 170.104 142.107 177.703C141.96 181.493 141.876 185.286 141.82 189.078C141.791 191 141.77 192.922 141.751 194.844C141.734 196.653 141.76 198.469 141.659 200.276C141.561 202.011 141.307 203.793 140.528 205.366C139.79 206.855 138.615 208.031 137.387 209.123C135.003 211.242 132.176 213.439 131.723 216.832C131.295 220.036 133.789 222.489 136.731 223.208C138.54 223.651 140.425 223.488 142.245 223.212C144.181 222.918 146.107 222.545 148.036 222.206C149.021 222.032 150.006 221.858 150.992 221.685L150.391 221.343C150.357 221.25 150.388 221.305 150.397 221.39C150.408 221.494 150.418 221.599 150.429 221.704C150.451 221.928 150.473 222.153 150.502 222.376C150.547 222.725 150.674 223.166 150.918 223.429C151.181 223.713 151.741 223.867 152.108 223.933C152.757 224.049 153.423 223.985 154.073 223.901C157.402 223.473 160.729 223.167 164.028 222.515C164.226 222.475 164.398 222.244 164.386 222.043C164.258 219.909 164.317 217.752 164.33 215.616C164.355 211.146 164.46 206.677 164.631 202.211C164.85 196.503 165.179 190.799 165.665 185.109C166.167 179.239 166.825 173.376 167.817 167.568C168.659 162.636 169.699 157.671 171.457 152.973C171.631 152.507 171.813 152.043 172.006 151.585C172.248 151.012 171.406 150.513 171.162 151.091C169.256 155.605 168.141 160.436 167.244 165.239C166.17 170.989 165.459 176.806 164.911 182.628C164.364 188.435 163.994 194.259 163.741 200.086C163.536 204.802 163.408 209.521 163.363 214.241C163.339 216.737 163.304 219.24 163.395 221.735C163.399 221.838 163.403 221.94 163.409 222.043L163.768 221.572C162.137 221.894 160.496 222.167 158.847 222.376C157.432 222.556 156.005 222.642 154.594 222.849C154.009 222.935 153.419 223.022 152.826 223.018C152.564 223.016 152.309 222.996 152.058 222.916C151.945 222.879 151.825 222.799 151.707 222.782C151.689 222.779 151.551 222.702 151.636 222.766C151.72 222.83 151.634 222.755 151.642 222.771C151.585 222.665 151.524 222.519 151.491 222.404C151.46 222.292 151.456 222.188 151.443 222.066C151.41 221.762 151.436 221.373 151.333 221.083C151.238 220.816 151.009 220.693 150.732 220.742C148.819 221.079 146.907 221.416 144.994 221.753C143.109 222.085 141.209 222.497 139.288 222.506C137.663 222.513 136.059 222.183 134.703 221.254C133.477 220.414 132.649 219.096 132.645 217.587C132.637 214.23 135.701 211.914 137.968 209.911C139.143 208.873 140.284 207.758 141.083 206.395C141.929 204.95 142.326 203.313 142.519 201.664C142.721 199.936 142.698 198.189 142.713 196.452C142.73 194.588 142.749 192.724 142.772 190.86C142.82 187.152 142.889 183.445 143.011 179.739C143.258 172.291 143.72 164.843 144.667 157.448C145.609 150.086 147.052 142.775 149.222 135.674C149.486 134.812 149.76 133.954 150.045 133.099C150.244 132.5 149.3 132.244 149.102 132.839Z" fill="#662D91"/>
<path d="M149.115 204.012C147.902 203.939 146.682 203.875 145.49 203.621C144.912 203.498 144.333 203.337 143.794 203.091C143.199 202.82 142.748 202.415 142.287 201.96C142.048 201.724 141.53 201.798 141.47 202.175C141.245 203.584 140.845 204.958 140.075 206.171C139.391 207.248 138.472 208.15 137.528 208.997C135.606 210.721 133.495 212.317 132.37 214.717C131.835 215.858 131.546 217.104 131.73 218.364C131.898 219.52 132.485 220.574 133.323 221.382C135.272 223.26 138.048 223.653 140.642 223.414C142.349 223.256 144.037 222.91 145.722 222.613C147.479 222.304 149.235 221.994 150.992 221.685L150.391 221.343C150.41 221.393 150.385 221.326 150.387 221.304C150.382 221.365 150.402 221.44 150.408 221.501C150.427 221.68 150.444 221.859 150.463 222.038C150.498 222.366 150.536 222.633 150.662 222.936C150.782 223.225 150.877 223.457 151.167 223.609C151.542 223.805 151.969 223.925 152.387 223.971C153.38 224.082 154.384 223.843 155.364 223.72C156.688 223.554 158.02 223.466 159.344 223.289C160.913 223.08 162.475 222.822 164.028 222.515C164.226 222.475 164.398 222.245 164.386 222.043C164.31 220.766 164.329 219.478 164.325 218.2C164.318 215.517 164.348 212.835 164.401 210.154C164.44 208.156 164.494 206.159 164.561 204.162C164.569 203.911 164.33 203.656 164.072 203.673C159.095 204.019 154.102 204.31 149.115 204.012C148.486 203.975 148.488 204.953 149.114 204.99C154.102 205.288 159.095 204.997 164.072 204.651L163.584 204.162C163.402 209.583 163.286 215.012 163.366 220.436C163.374 220.971 163.377 221.509 163.409 222.043L163.768 221.572C162.122 221.898 160.465 222.172 158.801 222.382C157.384 222.561 155.957 222.65 154.545 222.857C153.936 222.946 153.319 223.036 152.703 223.016C152.478 223.008 152.262 222.982 152.048 222.912C151.927 222.872 151.811 222.816 151.691 222.775C151.659 222.765 151.556 222.698 151.634 222.765C151.721 222.839 151.632 222.746 151.631 222.743C151.61 222.622 151.52 222.51 151.487 222.393C151.455 222.281 151.459 222.211 151.444 222.077C151.412 221.78 151.445 221.364 151.333 221.083C151.228 220.82 151.018 220.692 150.732 220.742C147.819 221.255 144.909 221.826 141.985 222.269C139.449 222.654 136.636 222.732 134.49 221.102C133.627 220.446 132.972 219.538 132.738 218.472C132.487 217.329 132.765 216.129 133.27 215.094C134.373 212.831 136.39 211.329 138.219 209.688C139.225 208.785 140.191 207.813 140.919 206.664C141.73 205.385 142.175 203.922 142.413 202.435L141.596 202.651C142.078 203.127 142.568 203.582 143.184 203.88C143.793 204.175 144.439 204.387 145.1 204.535C146.416 204.832 147.771 204.908 149.114 204.99C149.743 205.028 149.741 204.05 149.115 204.012Z" fill="#662D91"/>
<path d="M145.791 193.347C146.564 192.467 147.023 191.401 147.34 190.283C147.69 189.051 147.924 187.769 147.968 186.487C148.045 184.242 147.445 181.932 145.921 180.233C145.065 179.279 143.936 178.617 142.685 178.342C142.368 178.273 142.078 178.485 142.066 178.814C141.879 184.102 141.804 189.393 141.753 194.683C141.749 195.017 142.066 195.219 142.371 195.155C143.666 194.881 144.879 194.327 145.791 193.347C146.219 192.887 145.529 192.194 145.1 192.655C144.295 193.52 143.252 193.971 142.111 194.212L142.73 194.683C142.782 189.393 142.857 184.102 143.044 178.814L142.425 179.285C144.967 179.843 146.491 182.137 146.888 184.594C147.122 186.045 146.975 187.546 146.66 188.973C146.374 190.272 145.996 191.635 145.1 192.655C144.686 193.126 145.374 193.821 145.791 193.347Z" fill="#662D91"/>
<path d="M165.293 170.141C162.137 171.335 159.445 173.736 158.237 176.928C157.008 180.175 157.479 184.141 159.857 186.751C161.154 188.176 162.892 189.168 164.72 189.739C165.042 189.839 165.316 189.571 165.338 189.267C165.798 182.93 166.418 176.599 167.373 170.316C167.43 169.943 167.164 169.632 166.772 169.715C166.268 169.822 165.777 169.965 165.293 170.141C164.707 170.355 164.96 171.3 165.553 171.084C166.037 170.907 166.528 170.765 167.032 170.658L166.431 170.056C165.462 176.426 164.827 182.843 164.361 189.267L164.979 188.796C163.501 188.334 162.1 187.571 160.975 186.497C159.835 185.409 159.096 184.024 158.759 182.487C158.079 179.39 159.13 176.157 161.298 173.889C162.483 172.649 163.949 171.69 165.553 171.084C166.135 170.863 165.883 169.918 165.293 170.141Z" fill="#662D91"/>
<path d="M158.633 159.212C159.204 161.363 158.446 163.886 157.016 165.549C156.309 166.37 155.407 167.019 154.333 167.242C153.085 167.5 151.772 167.064 150.781 166.301C148.313 164.402 147.259 160.466 148.626 157.644C149.567 155.702 151.432 154.46 153.625 154.71C156.059 154.988 157.985 156.909 158.633 159.212C158.803 159.816 159.746 159.559 159.575 158.952C158.888 156.509 156.972 154.463 154.466 153.872C152.012 153.293 149.566 154.3 148.197 156.412C146.236 159.439 146.945 163.68 149.322 166.278C150.381 167.435 151.86 168.237 153.446 168.289C154.753 168.331 155.983 167.804 156.971 166.972C159.165 165.125 160.315 161.738 159.575 158.952C159.414 158.344 158.471 158.602 158.633 159.212Z" fill="#662D91"/>
<path d="M155.796 199.223C155.418 199.241 155.129 199.219 154.78 199.086C154.556 199.001 154.345 198.844 154.153 198.635C154.016 198.486 153.861 198.186 153.795 197.976C153.691 197.65 153.67 197.479 153.672 197.14C153.676 196.539 153.851 195.94 154.196 195.407C154.339 195.187 154.589 194.908 154.789 194.753C154.918 194.653 155.058 194.566 155.199 194.485C155.265 194.448 155.333 194.412 155.401 194.378C155.438 194.36 155.475 194.342 155.512 194.325C155.605 194.283 155.468 194.34 155.57 194.302C155.696 194.255 155.823 194.214 155.954 194.185C156.008 194.172 156.064 194.162 156.119 194.153C156.007 194.172 156.216 194.145 156.251 194.143C156.367 194.138 156.482 194.143 156.598 194.154C156.556 194.15 156.588 194.151 156.671 194.169C156.731 194.182 156.791 194.197 156.849 194.215C156.908 194.232 156.964 194.253 157.021 194.275C156.902 194.229 157.057 194.294 157.086 194.308C157.188 194.36 157.284 194.422 157.379 194.487C157.492 194.563 157.351 194.453 157.452 194.545C157.488 194.578 157.525 194.61 157.561 194.644C157.65 194.729 157.732 194.821 157.81 194.918C157.734 194.824 157.839 194.96 157.856 194.984C157.889 195.031 157.92 195.079 157.949 195.127C158.016 195.236 158.074 195.35 158.13 195.464C158.141 195.488 158.151 195.511 158.162 195.535C158.12 195.44 158.149 195.504 158.157 195.525C158.181 195.586 158.204 195.646 158.225 195.708C158.264 195.825 158.298 195.945 158.325 196.066C158.338 196.123 158.35 196.181 158.36 196.239C158.366 196.272 158.371 196.304 158.376 196.336C158.388 196.416 158.365 196.215 158.376 196.343C158.387 196.468 158.397 196.592 158.397 196.717C158.397 196.835 158.388 196.952 158.38 197.071C158.371 197.188 158.395 197.013 158.368 197.155C158.356 197.219 158.345 197.283 158.33 197.347C158.297 197.487 158.253 197.624 158.201 197.759C158.193 197.779 158.163 197.843 158.205 197.75C158.189 197.786 158.172 197.822 158.155 197.857C158.126 197.916 158.094 197.974 158.061 198.031C158.024 198.094 157.983 198.154 157.942 198.215C157.928 198.236 157.873 198.308 157.935 198.228C157.91 198.26 157.884 198.291 157.858 198.322C157.767 198.426 157.668 198.521 157.564 198.612C157.567 198.61 157.459 198.696 157.514 198.653C157.556 198.622 157.437 198.707 157.424 198.716C157.363 198.757 157.3 198.796 157.236 198.833C157.169 198.871 157.101 198.905 157.032 198.938C156.93 198.988 156.988 198.962 156.862 199.008C156.497 199.14 156.145 199.201 155.796 199.223C155.171 199.263 155.167 200.241 155.796 200.201C157.27 200.107 158.614 199.416 159.158 197.982C159.575 196.881 159.383 195.531 158.742 194.554C158.05 193.498 156.857 192.936 155.61 193.262C154 193.684 152.898 195.131 152.719 196.751C152.628 197.567 152.796 198.453 153.295 199.118C153.889 199.91 154.824 200.248 155.796 200.201C156.422 200.17 156.425 199.192 155.796 199.223Z" fill="#662D91"/>
<path d="M194.47 132.634C197.655 139.28 200.13 146.243 202.1 153.34C204.076 160.459 205.553 167.708 206.785 174.99C208.011 182.235 208.934 189.52 209.983 196.791C210.224 198.457 210.523 200.136 211.157 201.703C211.773 203.225 212.687 204.547 213.92 205.635C216.367 207.794 219.652 209.056 221.437 211.914C222.253 213.222 222.642 214.807 222.044 216.284C221.485 217.668 220.23 218.689 218.89 219.275C217.215 220.008 215.316 220.068 213.517 220.021C211.574 219.971 209.63 219.846 207.688 219.751C206.689 219.703 205.689 219.654 204.69 219.606C204.486 219.596 204.263 219.764 204.219 219.965C204.15 220.276 204.211 220.637 204.216 220.952C204.218 221.056 204.223 221.161 204.219 221.265C204.217 221.34 204.208 221.411 204.228 221.298C204.205 221.426 204.146 221.549 204.124 221.678C204.117 221.721 204.053 221.817 204.104 221.753C204.192 221.645 204.085 221.74 204.029 221.765C203.931 221.808 203.843 221.871 203.747 221.918C203.526 222.024 203.292 222.084 203.051 222.123C202.448 222.219 201.822 222.195 201.215 222.184C199.772 222.156 198.33 222.25 196.887 222.248C195.21 222.245 193.534 222.183 191.862 222.067L192.35 222.555C191.937 216.252 191.068 209.987 189.981 203.768C188.896 197.566 187.608 191.399 186.278 185.246C184.951 179.109 183.454 173.002 181.543 167.019C180.36 163.317 179.23 159.488 177.394 156.047C175.725 152.918 173.176 149.952 169.429 149.596C168.958 149.552 168.486 149.555 168.014 149.591C167.391 149.638 167.386 150.616 168.014 150.568C169.749 150.436 171.392 150.875 172.811 151.887C174.232 152.9 175.301 154.357 176.167 155.852C177.987 158.992 179.032 162.519 180.167 165.946C182.095 171.771 183.611 177.723 184.942 183.71C186.28 189.733 187.539 195.782 188.649 201.852C189.766 207.959 190.697 214.105 191.206 220.294C191.268 221.048 191.324 221.801 191.373 222.555C191.391 222.833 191.583 223.025 191.862 223.044C195.196 223.276 198.519 223.174 201.856 223.169C202.483 223.168 203.147 223.153 203.75 222.965C204.133 222.846 204.691 222.626 204.925 222.279C205.109 222.006 205.186 221.589 205.197 221.265C205.204 221.04 205.191 220.813 205.185 220.589C205.183 220.484 205.185 220.377 205.177 220.273C205.173 220.209 205.207 220.018 205.161 220.225L204.69 220.584C206.748 220.683 208.805 220.783 210.863 220.883C212.776 220.976 214.707 221.124 216.614 220.869C219.643 220.463 222.93 218.607 223.289 215.267C223.655 211.861 220.741 209.252 218.203 207.524C216.806 206.574 215.343 205.691 214.134 204.498C212.902 203.284 212.123 201.771 211.645 200.119C211.163 198.451 210.948 196.72 210.715 195.003C210.462 193.131 210.207 191.258 209.947 189.386C209.426 185.634 208.884 181.885 208.288 178.144C207.099 170.681 205.695 163.244 203.804 155.925C201.927 148.661 199.56 141.516 196.487 134.667C196.107 133.82 195.715 132.978 195.314 132.14C195.042 131.573 194.199 132.069 194.47 132.634Z" fill="#662D91"/>
<path d="M204.456 203.767C205.751 203.523 207.058 203.285 208.299 202.83C208.901 202.609 209.491 202.345 210.032 202C210.632 201.618 211.076 201.117 211.512 200.562L210.695 200.346C211.067 201.62 211.583 202.869 212.37 203.945C213.099 204.943 214.01 205.762 214.994 206.502C216.965 207.983 219.215 209.114 220.811 211.044C221.563 211.954 222.186 213.069 222.316 214.26C222.437 215.382 222.102 216.479 221.416 217.369C219.827 219.432 217.143 219.99 214.679 220.03C213.052 220.056 211.422 219.933 209.799 219.854C208.096 219.772 206.393 219.689 204.69 219.606C204.48 219.596 204.271 219.765 204.219 219.965C204.139 220.273 204.211 220.651 204.217 220.964C204.218 221.056 204.217 221.149 204.22 221.241C204.221 221.291 204.189 221.483 204.228 221.299C204.203 221.416 204.162 221.533 204.131 221.649C204.12 221.692 204.04 221.848 204.103 221.756C204.176 221.649 204.164 221.709 204.068 221.744C203.957 221.784 203.854 221.866 203.747 221.918C203.526 222.026 203.29 222.086 203.047 222.124C202.458 222.218 201.848 222.196 201.253 222.185C199.791 222.157 198.329 222.251 196.865 222.248C195.196 222.245 193.527 222.183 191.862 222.067L192.35 222.556C192.264 221.265 192.082 219.975 191.923 218.691C191.59 216.001 191.22 213.315 190.826 210.632C190.536 208.656 190.232 206.681 189.915 204.708L189.444 205.327C194.468 205.043 199.502 204.697 204.456 203.767C205.073 203.651 204.812 202.709 204.196 202.824C199.328 203.738 194.381 204.07 189.444 204.35C189.101 204.369 188.921 204.645 188.973 204.968C189.828 210.29 190.621 215.628 191.217 220.986C191.275 221.508 191.338 222.031 191.373 222.556C191.391 222.834 191.583 223.025 191.862 223.045C194.656 223.239 197.439 223.234 200.237 223.154C201.206 223.127 202.173 223.226 203.137 223.092C203.777 223.003 204.801 222.735 205.037 222.041C205.145 221.72 205.2 221.412 205.196 221.075C205.193 220.881 205.187 220.686 205.183 220.491C205.18 220.406 205.183 220.319 205.177 220.234C205.171 220.158 205.21 220.037 205.161 220.225L204.69 220.584C207.791 220.735 210.903 220.976 214.007 221.009C216.67 221.037 219.454 220.624 221.477 218.742C222.319 217.958 222.979 216.928 223.21 215.79C223.458 214.562 223.235 213.329 222.708 212.204C221.592 209.815 219.375 208.304 217.253 206.888C216.032 206.072 214.805 205.241 213.801 204.157C212.733 203.002 212.075 201.584 211.638 200.086C211.545 199.767 211.059 199.568 210.821 199.87C210.425 200.375 210.035 200.847 209.486 201.19C208.955 201.521 208.383 201.772 207.793 201.974C206.624 202.373 205.406 202.596 204.196 202.824C203.579 202.941 203.84 203.883 204.456 203.767Z" fill="#662D91"/>
<path d="M206.868 191.08C205.904 190.228 205.353 189.051 204.913 187.865C204.41 186.51 204.052 185.086 204.036 183.634C204.008 181.077 205.189 178.366 207.739 177.459L207.138 177.117C207.987 182.34 208.726 187.579 209.441 192.822L209.912 192.203C208.812 192.112 207.728 191.797 206.868 191.08C206.389 190.679 205.694 191.367 206.177 191.771C207.251 192.668 208.533 193.067 209.912 193.181C210.265 193.21 210.422 192.847 210.383 192.562C209.668 187.32 208.93 182.08 208.08 176.857C208.04 176.609 207.708 176.434 207.479 176.516C205.279 177.299 203.817 179.21 203.294 181.451C202.734 183.85 203.251 186.349 204.153 188.596C204.625 189.773 205.213 190.92 206.177 191.771C206.647 192.186 207.341 191.497 206.868 191.08Z" fill="#662D91"/>
<path d="M183.763 172.194C186.723 172.905 189.441 174.744 190.906 177.455C192.407 180.234 192.481 183.853 190.632 186.489C189.622 187.93 188.144 189.01 186.557 189.736L187.274 190.028C186.015 183.756 184.592 177.511 182.843 171.356L182.372 171.975C182.842 172.014 183.303 172.09 183.763 172.194C184.376 172.333 184.637 171.391 184.023 171.252C183.478 171.128 182.928 171.044 182.372 170.997C182.052 170.97 181.82 171.331 181.901 171.616C183.649 177.771 185.072 184.016 186.332 190.288C186.4 190.625 186.785 190.701 187.05 190.58C188.607 189.869 190.039 188.818 191.108 187.473C192.189 186.112 192.8 184.501 192.964 182.774C193.29 179.316 191.715 175.893 189.042 173.723C187.575 172.534 185.859 171.692 184.023 171.252C183.412 171.105 183.151 172.047 183.763 172.194Z" fill="#662D91"/>
<path d="M201.029 147.139C198.509 146.621 195.902 147.69 194.286 149.66C192.58 151.741 192.059 154.498 192.865 157.058C193.605 159.407 195.272 161.654 197.599 162.606C198.712 163.061 199.953 163.145 201.113 162.815C201.831 162.611 202.511 162.265 203.106 161.816C203.414 161.584 203.704 161.331 203.97 161.051C204.22 160.787 204.656 160.392 204.752 160.033C204.811 159.807 204.696 159.538 204.644 159.318C204.584 159.065 204.523 158.813 204.462 158.56C204.334 158.031 204.204 157.501 204.071 156.973C203.805 155.917 203.529 154.863 203.243 153.812C202.664 151.688 202.041 149.577 201.37 147.481C201.179 146.884 200.235 147.139 200.428 147.741C201.724 151.79 202.835 155.895 203.809 160.033L203.858 159.656C202.753 161.191 200.916 162.315 198.973 161.99C197.337 161.716 195.959 160.577 195.027 159.249C194.072 157.886 193.436 156.227 193.446 154.548C193.456 152.74 194.276 150.946 195.578 149.704C196.945 148.401 198.893 147.696 200.769 148.082C201.383 148.209 201.646 147.266 201.029 147.139Z" fill="#662D91"/>
<path d="M197.096 199.872C197.983 199.803 198.799 199.469 199.338 198.739C199.786 198.135 199.939 197.336 199.865 196.597C199.697 194.932 198.559 193.503 196.932 193.056C195.677 192.711 194.433 193.177 193.728 194.27C193.099 195.246 192.959 196.587 193.363 197.673C193.618 198.356 194.058 198.939 194.675 199.334C195.388 199.789 196.265 199.924 197.096 199.872C197.721 199.833 197.726 198.855 197.096 198.894C196.923 198.905 196.75 198.909 196.576 198.902C196.375 198.894 196.281 198.884 196.131 198.856C195.989 198.829 195.848 198.794 195.711 198.749C195.652 198.73 195.595 198.709 195.538 198.687C195.403 198.634 195.588 198.711 195.51 198.675C195.47 198.656 195.431 198.638 195.392 198.617C195.278 198.559 195.17 198.491 195.064 198.419C194.974 198.358 195.084 198.445 194.984 198.357C194.933 198.313 194.882 198.268 194.834 198.221C194.625 198.015 194.587 197.965 194.436 197.689C194.407 197.637 194.381 197.584 194.355 197.531C194.344 197.508 194.334 197.484 194.323 197.46C194.291 197.388 194.364 197.569 194.32 197.45C194.277 197.333 194.237 197.216 194.206 197.095C194.177 196.981 194.155 196.865 194.137 196.748C194.125 196.669 194.147 196.869 194.137 196.741C194.135 196.715 194.132 196.689 194.13 196.663C194.124 196.597 194.12 196.532 194.119 196.466C194.115 196.348 194.118 196.23 194.126 196.112C194.131 196.046 194.137 195.981 194.145 195.916C194.13 196.038 194.157 195.852 194.164 195.814C194.186 195.7 194.213 195.586 194.246 195.474C194.261 195.425 194.277 195.376 194.293 195.328C194.305 195.293 194.369 195.129 194.351 195.172C194.328 195.225 194.393 195.082 194.406 195.057C194.431 195.007 194.457 194.957 194.485 194.908C194.543 194.805 194.608 194.707 194.677 194.611C194.603 194.713 194.722 194.559 194.74 194.539C194.772 194.502 194.805 194.467 194.839 194.432C194.882 194.389 194.926 194.348 194.972 194.308C194.99 194.292 195.009 194.276 195.027 194.261C195.12 194.183 194.943 194.317 195.043 194.249C195.133 194.188 195.225 194.131 195.321 194.08C195.359 194.059 195.47 194.013 195.371 194.053C195.434 194.028 195.497 194.005 195.563 193.986C195.617 193.969 195.672 193.955 195.727 193.944C195.752 193.938 195.777 193.934 195.802 193.929C195.924 193.903 195.727 193.935 195.806 193.927C195.934 193.914 196.061 193.909 196.189 193.915C196.215 193.916 196.422 193.938 196.315 193.923C196.374 193.931 196.433 193.942 196.491 193.954C196.648 193.988 196.8 194.035 196.951 194.088C197.166 194.164 197.524 194.352 197.739 194.52C198.227 194.902 198.59 195.47 198.767 196.052C198.958 196.678 198.971 197.397 198.7 197.917C198.387 198.514 197.84 198.836 197.096 198.894C196.473 198.942 196.468 199.92 197.096 199.872Z" fill="#662D91"/>
<path d="M184.183 153.198C185.069 153.449 185.607 154.477 185.858 155.294C186.128 156.171 186.054 157.178 185.348 157.841C184.523 158.616 182.897 158.226 182.244 157.399C181.62 156.61 181.652 155.54 182.016 154.648C182.378 153.76 183.15 152.948 184.183 153.198C184.794 153.346 185.055 152.403 184.443 152.255C183.126 151.937 181.975 152.66 181.345 153.799C180.699 154.967 180.54 156.446 181.228 157.633C181.627 158.323 182.272 158.796 183.029 159.03C183.799 159.27 184.69 159.32 185.43 158.96C186.678 158.355 187.161 156.816 186.923 155.526C186.679 154.206 185.816 152.644 184.443 152.255C183.836 152.083 183.578 153.026 184.183 153.198Z" fill="#662D91"/>
<path d="M160.237 144.072C161.124 144.324 161.662 145.352 161.913 146.169C162.183 147.045 162.108 148.052 161.402 148.716C160.577 149.491 158.952 149.1 158.299 148.274C157.675 147.485 157.707 146.414 158.071 145.523C158.433 144.635 159.205 143.823 160.237 144.072C160.849 144.22 161.109 143.278 160.497 143.13C159.181 142.811 158.029 143.534 157.399 144.674C156.754 145.842 156.595 147.321 157.282 148.507C157.682 149.198 158.327 149.67 159.083 149.905C159.854 150.144 160.744 150.194 161.485 149.835C162.732 149.229 163.215 147.69 162.978 146.401C162.734 145.08 161.87 143.519 160.497 143.13C159.891 142.958 159.632 143.901 160.237 144.072Z" fill="#662D91"/>
<path d="M150.302 131.979C149.71 133.501 147.995 136.559 148.238 138.192C148.417 139.4 150.89 140.446 151.874 141.022C155.305 143.03 159.118 144.27 162.905 145.414C167.407 146.775 171.966 148.033 176.64 148.562C184.952 149.503 193.446 148.117 201.685 149.562C200.346 145.386 198.136 138.791 195.855 134.555" fill="#662D91"/>
<path d="M149.83 131.849C149.258 133.301 148.491 134.669 148.03 136.166C147.826 136.829 147.649 137.562 147.758 138.257C147.866 138.947 148.391 139.453 148.922 139.858C149.517 140.313 150.178 140.67 150.839 141.018C151.623 141.432 152.385 141.886 153.176 142.288C155.092 143.261 157.101 144.043 159.134 144.732C163.425 146.186 167.827 147.483 172.273 148.366C176.787 149.262 181.338 149.442 185.928 149.401C191.14 149.355 196.396 149.14 201.555 150.033C201.899 150.093 202.28 149.817 202.156 149.432C200.861 145.394 199.497 141.364 197.798 137.475C197.329 136.401 196.831 135.341 196.277 134.308C195.98 133.753 195.136 134.247 195.433 134.802C197.438 138.542 198.856 142.602 200.205 146.615C200.549 147.638 200.884 148.664 201.214 149.692L201.815 149.091C192.874 147.542 183.75 149.218 174.796 147.825C170.416 147.143 166.14 145.906 161.912 144.6C159.9 143.978 157.896 143.316 155.953 142.5C154.236 141.779 152.625 140.872 150.988 139.991C150.3 139.621 149.564 139.233 149.027 138.653C148.549 138.135 148.696 137.456 148.858 136.827C149.284 135.175 150.151 133.687 150.773 132.109C151.003 131.523 150.059 131.269 149.83 131.849Z" fill="#662D91"/>
<path d="M141.864 113.682C130.539 117.656 118.904 121.68 106.906 121.385C102.921 121.287 98.8748 120.686 95.3002 118.92C91.6077 117.096 88.2767 113.892 87.6514 109.746C86.8938 104.722 87.2367 100.112 88.2212 95.1288C89.9565 86.3456 92.767 77.7754 96.5698 69.6706C96.8031 69.1731 97.0453 68.6565 97.0456 68.1069C97.0463 67.2189 96.4288 66.4673 96.1008 65.6422C95.2533 63.5106 96.8452 60.7323 98.5546 59.4519C100.843 57.7375 104.048 58.254 106.652 58.7222C106.991 57.3438 107.376 55.9766 107.805 54.6237C108.18 53.4407 108.485 51.939 109.522 51.1311C109.901 50.836 110.447 50.7021 110.868 50.9331C111.334 51.189 111.49 51.7753 111.568 52.3016C111.746 53.5012 111.751 54.7262 111.583 55.9272C111.42 57.093 111.094 58.2652 111.269 59.4293C111.543 61.2557 113.263 62.3769 113.511 64.1105C113.745 65.7419 113.41 67.3954 113.077 69.0094C111.079 78.683 109.081 88.3564 107.083 98.03C116.561 95.7316 126.039 93.4332 135.517 91.1347" fill="#FFDE17"/>
<path d="M141.734 113.21C133.807 115.991 125.813 118.782 117.493 120.128C113.385 120.792 109.188 121.094 105.031 120.81C101.189 120.548 97.2942 119.693 93.9934 117.632C91.2502 115.92 88.8663 113.335 88.2058 110.085C87.7935 108.056 87.7081 105.915 87.7301 103.85C87.7525 101.746 87.9512 99.647 88.2797 97.5697C88.9292 93.4628 89.9383 89.394 91.115 85.4086C92.2859 81.4428 93.6774 77.5397 95.2894 73.7318C95.6966 72.7699 96.118 71.8141 96.5526 70.8643C96.9452 70.0064 97.5367 69.0794 97.5343 68.1063C97.532 67.1819 96.9845 66.4388 96.6236 65.6287C96.3091 64.9228 96.293 64.1542 96.4739 63.4101C96.8412 61.8993 97.8765 60.4129 99.2083 59.5972C100.663 58.7063 102.439 58.6666 104.089 58.8277C104.905 58.9076 105.714 59.0481 106.522 59.1929C106.776 59.2386 107.055 59.1267 107.123 58.8515C107.553 57.1119 108.064 55.3942 108.6 53.6846C108.815 52.9969 109.069 52.2688 109.578 51.7387C109.806 51.5023 110.116 51.2577 110.467 51.3111C110.829 51.3661 110.952 51.7481 111.026 52.0577C111.478 53.9371 111.054 55.8226 110.809 57.6894C110.694 58.5684 110.681 59.4766 111.001 60.3167C111.253 60.9786 111.643 61.5594 112.039 62.1414C112.416 62.695 112.811 63.2634 112.977 63.9215C113.202 64.8128 113.118 65.8178 112.999 66.7194C112.739 68.7016 112.236 70.6666 111.832 72.6234C111.016 76.576 110.199 80.5287 109.383 84.4813C108.459 88.954 107.535 93.4267 106.612 97.8994C106.536 98.266 106.836 98.5921 107.213 98.5007C114.593 96.711 121.973 94.9212 129.354 93.1315C131.451 92.6228 133.549 92.1142 135.646 91.6055C136.257 91.4573 135.999 90.5143 135.387 90.6627C128.006 92.4525 120.626 94.2422 113.246 96.0319C111.148 96.5406 109.051 97.0492 106.953 97.5579L107.554 98.1593C109.294 89.734 111.034 81.3087 112.775 72.8834C113.202 70.8155 113.729 68.7402 113.986 66.6427C114.105 65.6722 114.161 64.6192 113.919 63.6617C113.742 62.9574 113.348 62.333 112.945 61.7385C112.541 61.1421 112.092 60.542 111.869 59.848C111.562 58.8879 111.751 57.8618 111.918 56.8937C112.095 55.8713 112.218 54.8499 112.189 53.8101C112.166 52.9726 112.144 51.9868 111.764 51.2202C111.336 50.3576 110.367 50.1237 109.532 50.5478C108.758 50.9414 108.284 51.7804 107.966 52.5528C107.613 53.4128 107.378 54.3307 107.108 55.2192C106.769 56.3348 106.461 57.4595 106.181 58.5916L106.782 58.2501C105.072 57.9434 103.312 57.6405 101.571 57.8381C99.8425 58.0342 98.3137 58.7601 97.1708 60.0888C96.1079 61.3244 95.2508 63.0052 95.3902 64.6789C95.4676 65.6082 95.9191 66.3291 96.3022 67.1546C96.4832 67.5448 96.606 67.9501 96.5328 68.3825C96.4464 68.8927 96.1739 69.3649 95.9585 69.8288C92.3593 77.5819 89.6519 85.7477 87.9272 94.1207C87.0464 98.3966 86.5207 102.743 86.8613 107.111C87.009 109.005 87.2225 110.89 88.0298 112.63C88.7402 114.16 89.8203 115.515 91.0658 116.644C97.0977 122.113 106.16 122.374 113.823 121.592C122.476 120.709 130.809 118.041 138.989 115.203C139.991 114.855 140.993 114.504 141.994 114.153C142.584 113.946 142.33 113.001 141.734 113.21Z" fill="#662D91"/>
<path d="M141.864 113.682C130.539 117.656 118.904 121.68 106.906 121.385C102.921 121.287 98.8748 120.686 95.3002 118.92C91.6077 117.096 88.2767 113.892 87.6514 109.746C86.8938 104.722 87.2367 100.112 88.2212 95.1288C89.9565 86.3456 92.767 77.7754 96.5698 69.6706C96.8031 69.1731 97.0453 68.6565 97.0456 68.1069C97.0463 67.2189 96.4288 66.4673 96.1008 65.6422C95.2533 63.5106 96.8452 60.7323 98.5546 59.4519C100.843 57.7375 104.048 58.254 106.652 58.7222C106.991 57.3438 107.376 55.9766 107.805 54.6237C108.18 53.4407 108.485 51.939 109.522 51.1311C109.901 50.836 110.447 50.7021 110.868 50.9331C111.334 51.189 111.49 51.7753 111.568 52.3016C111.746 53.5012 111.751 54.7262 111.583 55.9272C111.42 57.093 111.094 58.2652 111.269 59.4293C111.543 61.2557 113.263 62.3769 113.511 64.1105C113.745 65.7419 113.41 67.3954 113.077 69.0094C111.079 78.683 109.081 88.3564 107.083 98.03C116.561 95.7316 126.039 93.4332 135.517 91.1347" fill="#FFDE17"/>
<path d="M141.734 113.21C133.807 115.991 125.813 118.782 117.493 120.128C113.385 120.792 109.188 121.094 105.031 120.81C101.189 120.548 97.2942 119.693 93.9934 117.632C91.2502 115.92 88.8663 113.335 88.2058 110.085C87.7935 108.056 87.7081 105.915 87.7301 103.85C87.7525 101.746 87.9512 99.647 88.2797 97.5697C88.9292 93.4628 89.9383 89.394 91.115 85.4086C92.2859 81.4428 93.6774 77.5397 95.2894 73.7318C95.6966 72.7699 96.118 71.8141 96.5526 70.8643C96.9452 70.0064 97.5367 69.0794 97.5343 68.1063C97.532 67.1819 96.9845 66.4388 96.6236 65.6287C96.3091 64.9228 96.293 64.1542 96.4739 63.4101C96.8412 61.8993 97.8765 60.4129 99.2083 59.5972C100.663 58.7063 102.439 58.6666 104.089 58.8277C104.905 58.9076 105.714 59.0481 106.522 59.1929C106.776 59.2386 107.055 59.1267 107.123 58.8515C107.553 57.1119 108.064 55.3942 108.6 53.6846C108.815 52.9969 109.069 52.2688 109.578 51.7387C109.806 51.5023 110.116 51.2577 110.467 51.3111C110.829 51.3661 110.952 51.7481 111.026 52.0577C111.478 53.9371 111.054 55.8226 110.809 57.6894C110.694 58.5684 110.681 59.4766 111.001 60.3167C111.253 60.9786 111.643 61.5594 112.039 62.1414C112.416 62.695 112.811 63.2634 112.977 63.9215C113.202 64.8128 113.118 65.8178 112.999 66.7194C112.739 68.7016 112.236 70.6666 111.832 72.6234C111.016 76.576 110.199 80.5287 109.383 84.4813C108.459 88.954 107.535 93.4267 106.612 97.8994C106.536 98.266 106.836 98.5921 107.213 98.5007C114.593 96.711 121.973 94.9212 129.354 93.1315C131.451 92.6228 133.549 92.1142 135.646 91.6055C136.257 91.4573 135.999 90.5143 135.387 90.6627C128.006 92.4525 120.626 94.2422 113.246 96.0319C111.148 96.5406 109.051 97.0492 106.953 97.5579L107.554 98.1593C109.294 89.734 111.034 81.3087 112.775 72.8834C113.202 70.8155 113.729 68.7402 113.986 66.6427C114.105 65.6722 114.161 64.6192 113.919 63.6617C113.742 62.9574 113.348 62.333 112.945 61.7385C112.541 61.1421 112.092 60.542 111.869 59.848C111.562 58.8879 111.751 57.8618 111.918 56.8937C112.095 55.8713 112.218 54.8499 112.189 53.8101C112.166 52.9726 112.144 51.9868 111.764 51.2202C111.336 50.3576 110.367 50.1237 109.532 50.5478C108.758 50.9414 108.284 51.7804 107.966 52.5528C107.613 53.4128 107.378 54.3307 107.108 55.2192C106.769 56.3348 106.461 57.4595 106.181 58.5916L106.782 58.2501C105.072 57.9434 103.312 57.6405 101.571 57.8381C99.8425 58.0342 98.3137 58.7601 97.1708 60.0888C96.1079 61.3244 95.2508 63.0052 95.3902 64.6789C95.4676 65.6082 95.9191 66.3291 96.3022 67.1546C96.4832 67.5448 96.606 67.9501 96.5328 68.3825C96.4464 68.8927 96.1739 69.3649 95.9585 69.8288C92.3593 77.5819 89.6519 85.7477 87.9272 94.1207C87.0464 98.3966 86.5207 102.743 86.8613 107.111C87.009 109.005 87.2225 110.89 88.0298 112.63C88.7402 114.16 89.8203 115.515 91.0658 116.644C97.0977 122.113 106.16 122.374 113.823 121.592C122.476 120.709 130.809 118.041 138.989 115.203C139.991 114.855 140.993 114.504 141.994 114.153C142.584 113.946 142.33 113.001 141.734 113.21Z" fill="#662D91"/>
<path d="M110.472 60.9032C110.037 60.2769 109.452 59.7354 108.664 59.6451C107.926 59.5604 107.188 59.9178 106.901 60.6225C106.31 62.0711 107.69 63.7477 108.651 64.6819L109.126 63.8649C107.874 63.648 106.799 64.667 106.095 65.5902C105.357 66.5587 104.933 67.7053 104.825 68.9153C104.768 69.5417 105.746 69.5379 105.802 68.9153C105.884 68.0064 106.209 67.139 106.72 66.385C106.975 66.0087 107.285 65.67 107.629 65.3725C107.951 65.093 108.409 64.7284 108.866 64.8076C109.318 64.8859 109.719 64.3573 109.342 63.9906C108.668 63.3354 107.818 62.3866 107.751 61.398C107.719 60.931 108 60.5889 108.484 60.6066C108.979 60.6248 109.363 61.0151 109.628 61.3967C109.985 61.9099 110.832 61.4216 110.472 60.9032Z" fill="#662D91"/>
<path d="M95.5764 65.7893C95.7608 66.6218 96.6609 67.1244 97.4777 66.9527C98.3889 66.7611 98.9085 65.8624 98.952 64.9875L98.0414 65.2343C98.5796 65.9755 99.3605 66.5809 100.329 66.4253C101.21 66.2838 101.88 65.3726 101.542 64.4931L100.649 64.8698C101.128 65.7142 102.118 66.1742 103.072 65.9672C104.064 65.7517 104.743 64.7964 104.763 63.809C104.775 63.1796 103.798 63.1796 103.785 63.809C103.76 65.088 102.113 65.4699 101.493 64.3763C101.228 63.9086 100.396 64.224 100.6 64.753C100.768 65.1919 100.397 65.5045 99.9668 65.4732C99.5062 65.4396 99.1441 65.0972 98.8853 64.7408C98.6042 64.3535 98 64.4788 97.9747 64.9875C97.9546 65.3909 97.7385 65.8732 97.3133 65.9878C96.9641 66.082 96.597 65.8822 96.5188 65.5294C96.3828 64.9154 95.4403 65.1752 95.5764 65.7893Z" fill="#662D91"/>
<path d="M106.913 96.5552C106.596 98.0312 106.237 99.4977 105.836 100.953C105.669 101.56 106.612 101.82 106.779 101.213C107.18 99.7576 107.539 98.2911 107.855 96.8151C107.91 96.5572 107.779 96.2865 107.514 96.2137C107.27 96.1468 106.968 96.2958 106.913 96.5552Z" fill="#662D91"/>
<path d="M120.099 120.143C123.787 119.667 127.519 118.414 131.062 117.316C134.692 116.192 138.279 114.94 141.864 113.682C141.864 113.682 141.859 113.663 141.859 113.662C140.779 109.828 139.7 105.994 138.62 102.159C137.589 98.4967 136.408 94.8259 135.523 91.1333C134.725 91.3362 133.957 91.1467 133.163 91.2724C132.003 91.456 130.819 92.0597 129.715 92.4553C129.527 92.5226 129.334 92.5933 129.189 92.73C129.032 92.8775 128.95 93.0851 128.874 93.2866C128.133 95.2684 127.649 97.3466 127.44 99.4522C127.166 102.194 127.356 104.961 127.208 107.713C127.06 110.464 126.538 113.286 125.005 115.575C124.09 116.94 122.813 117.89 121.709 119.069C121.485 119.309 121.235 119.556 120.944 119.714C120.651 119.873 120.281 119.86 120.099 120.143Z" fill="#662D91"/>
<path d="M120.099 120.632C123.016 120.247 125.845 119.447 128.65 118.58C131.487 117.703 134.316 116.804 137.127 115.844C138.752 115.289 140.373 114.722 141.994 114.153C142.242 114.066 142.411 113.821 142.335 113.552C140.686 107.695 139.023 101.844 137.335 95.9989C136.856 94.3423 136.398 92.6798 135.994 91.0032C135.93 90.7378 135.644 90.6053 135.393 90.6618C134.754 90.8056 134.106 90.6991 133.459 90.7497C132.857 90.7968 132.273 90.9572 131.706 91.1579C131.102 91.3714 130.516 91.6296 129.919 91.8593C129.417 92.0523 128.902 92.1918 128.61 92.6847C128.301 93.2077 128.142 93.8673 127.962 94.4431C127.775 95.0443 127.61 95.6527 127.469 96.2665C127.182 97.5181 126.994 98.793 126.896 100.073C126.529 104.918 127.494 110.273 124.973 114.697C124.331 115.823 123.44 116.712 122.506 117.597C122.056 118.022 121.63 118.468 121.19 118.903C120.967 119.124 120.751 119.281 120.453 119.377C120.183 119.464 119.934 119.571 119.753 119.798C119.365 120.285 120.052 120.981 120.444 120.489C120.577 120.322 120.782 120.307 120.973 120.232C121.226 120.133 121.442 119.982 121.649 119.809C122.064 119.459 122.419 119.032 122.811 118.655C123.626 117.871 124.465 117.115 125.15 116.209C126.511 114.408 127.177 112.153 127.484 109.944C127.831 107.445 127.735 104.924 127.776 102.409C127.817 99.8377 128.107 97.3136 128.86 94.8474C128.963 94.5101 129.073 94.175 129.191 93.8425C129.297 93.5412 129.37 93.1419 129.681 92.9917C130.273 92.7048 130.932 92.4927 131.548 92.2557C132.18 92.012 132.851 91.7643 133.533 91.7232C134.248 91.6802 134.946 91.7636 135.653 91.6045L135.052 91.2631C135.762 94.2141 136.645 97.1185 137.498 100.03C138.36 102.974 139.174 105.932 140.006 108.884C140.468 110.527 140.93 112.169 141.393 113.812L141.734 113.21C136.203 115.151 130.647 117.113 124.983 118.634C123.377 119.065 121.749 119.437 120.099 119.654C119.835 119.689 119.613 119.854 119.61 120.143C119.608 120.381 119.837 120.667 120.099 120.632Z" fill="#662D91"/>
<path d="M160.311 142.367C161.992 142.909 163.691 143.399 165.403 143.834C173.743 145.952 182.59 146.881 191.124 145.441C195.074 144.774 198.472 144.034 202.112 142.269C205.896 140.434 209.481 138.17 212.681 135.435C222.174 127.322 227.006 114.887 227.988 102.623C228.868 93.2413 226.756 83.4054 221.279 75.6989C221.204 75.5928 221.126 75.4825 221.101 75.3549C221.057 75.1379 221.17 74.9235 221.275 74.729C223.09 71.3906 224.033 67.5427 223.738 63.741C223.442 59.9213 221.899 56.2747 219.778 53.0845C215.213 46.2174 207.971 41.3463 200.092 38.9195C192.213 36.4928 183.734 36.4021 175.616 37.8377C169.93 38.8432 164.151 40.7151 160.019 44.75C155.888 48.7849 153.88 55.4226 156.559 60.5388C149.002 64.5887 142.423 70.7085 137.545 77.7982C133.778 83.2732 130.808 89.3777 129.511 95.8965C126.798 109.527 132.115 124.456 142.832 133.301C147.925 137.504 154.026 140.341 160.311 142.367Z" fill="#FFDE17"/>
<path d="M160.181 142.838C168.262 145.431 176.832 146.984 185.34 146.554C189.357 146.351 193.436 145.721 197.305 144.614C201.094 143.531 204.641 141.69 207.942 139.559C211.097 137.523 214.037 135.133 216.554 132.34C218.92 129.715 220.933 126.777 222.58 123.652C225.87 117.41 227.742 110.471 228.404 103.463C229.11 95.989 228.234 88.4479 225.165 81.5493C224.397 79.8222 223.496 78.1538 222.463 76.5704C222.221 76.2003 221.909 75.8401 221.701 75.4516C221.481 75.0412 221.943 74.5198 222.132 74.1303C222.568 73.2374 222.945 72.3141 223.257 71.3708C224.491 67.6333 224.604 63.6141 223.513 59.829C221.492 52.8172 216.189 46.9604 210.161 43.0595C203.696 38.8761 196.099 36.807 188.446 36.4611C184.277 36.2728 180.094 36.5858 175.982 37.2802C172.371 37.8899 168.782 38.8135 165.473 40.4104C162.316 41.9335 159.431 44.1245 157.481 47.0696C155.696 49.7651 154.643 53.0776 154.888 56.3269C155.005 57.8881 155.421 59.3926 156.137 60.7851L156.313 60.1163C149.951 63.5407 144.347 68.3306 139.815 73.9467C135.099 79.7889 131.283 86.5971 129.455 93.915C127.85 100.343 127.993 107.118 129.721 113.507C131.426 119.812 134.649 125.723 139.124 130.489C144.145 135.835 150.693 139.436 157.526 141.927C158.405 142.248 159.291 142.55 160.181 142.838C160.78 143.032 161.037 142.088 160.441 141.895C153.55 139.665 146.806 136.452 141.475 131.456C136.806 127.081 133.328 121.486 131.317 115.42C129.316 109.387 128.732 102.851 129.876 96.5836C131.21 89.2779 134.672 82.4604 139.053 76.52C143.245 70.8362 148.523 65.8975 154.569 62.2365C155.304 61.7918 156.05 61.3675 156.806 60.9605C157.047 60.8307 157.099 60.52 156.981 60.2917C155.509 57.4271 155.558 54.0824 156.583 51.0804C157.67 47.8991 159.814 45.2258 162.531 43.2779C165.446 41.1883 168.843 39.897 172.303 39.0348C176.096 38.0896 180.015 37.5737 183.92 37.4254C191.627 37.1327 199.463 38.4452 206.363 41.9928C212.537 45.1671 217.993 50.0784 221.107 56.3514C222.838 59.8368 223.67 63.7151 223.137 67.5955C222.872 69.5294 222.308 71.4344 221.492 73.207C221.293 73.6396 221.07 74.0581 220.853 74.4818C220.681 74.8196 220.536 75.1631 220.65 75.5456C220.76 75.9126 221.057 76.2263 221.269 76.5383C221.539 76.936 221.801 77.3396 222.054 77.7484C225.915 83.9831 227.717 91.357 227.692 98.6589C227.669 105.56 226.284 112.581 223.686 118.972C221.087 125.365 217.088 131.176 211.749 135.581C208.734 138.068 205.381 140.147 201.865 141.846C198.433 143.505 194.733 144.342 190.994 144.969C182.761 146.348 174.288 145.511 166.224 143.534C164.277 143.057 162.349 142.507 160.441 141.895C159.84 141.702 159.583 142.646 160.181 142.838Z" fill="#662D91"/>
<path d="M205.637 64.7542C210.565 66.4254 215.035 69.3551 218.561 73.18C219.565 74.2684 220.486 75.427 221.322 76.649C221.675 77.1652 222.522 76.6767 222.166 76.1555C219.11 71.6884 214.932 68.0149 210.101 65.5733C208.744 64.8875 207.337 64.2997 205.897 63.8115C205.3 63.609 205.044 64.553 205.637 64.7542Z" fill="#662D91"/>
<path d="M155.285 61.7358C160.608 59.1951 166.64 58.0341 172.524 58.4829C174.168 58.6083 175.796 58.8728 177.394 59.275C178.004 59.4286 178.265 58.4859 177.654 58.3323C171.733 56.8424 165.384 57.2154 159.573 59.0172C157.936 59.5247 156.338 60.1534 154.792 60.8915C154.224 61.1623 154.72 62.0056 155.285 61.7358Z" fill="#662D91"/>
<path d="M232.981 164.49C232.995 165.768 233.147 167.044 233.431 168.29C233.489 168.547 233.786 168.699 234.032 168.631C234.296 168.558 234.432 168.288 234.373 168.03C234.108 166.866 233.971 165.683 233.958 164.49C233.952 163.861 232.974 163.859 232.981 164.49Z" fill="#662D91"/>
<path d="M215.646 123.328C219.349 125.212 223.031 127.139 226.69 129.108C230.199 130.996 233.748 132.705 236.754 135.299C236.93 135.45 237.115 135.615 237.179 135.838C237.26 136.115 237.136 136.406 237.016 136.668C232.944 145.581 230.471 155.391 231.172 165.166C231.228 165.951 231.332 166.797 231.87 167.372C232.407 167.947 233.531 168.004 233.875 167.296C234.102 170.028 235.356 173.08 237.097 175.182C237.404 175.552 237.745 175.915 238.184 176.108C238.843 176.399 239.675 176.236 240.176 175.719C240.677 175.201 240.813 174.364 240.501 173.715C241.076 174.435 241.858 175.234 242.757 175.034C243.784 174.806 244.075 173.499 244.123 172.448C244.687 173.068 245.686 173.239 246.424 172.842C247.162 172.445 247.569 171.517 247.362 170.704C247.923 171.291 249.01 170.842 249.32 170.092C249.631 169.342 249.417 168.49 249.196 167.709C248.64 165.74 247.144 162.773 247.411 160.716C247.52 159.878 247.88 159.096 248.234 158.328C250.774 152.816 253.764 146.968 255.139 141.029C257.018 132.914 254.569 123.605 248.551 117.764C244.972 114.29 239.792 112.111 235.404 109.822C230.49 107.259 225.481 104.877 220.391 102.682" fill="#FFDE17"/>
<path d="M215.399 123.75C219.274 125.722 223.115 127.756 226.951 129.802C228.674 130.722 230.413 131.615 232.093 132.613C232.948 133.12 233.787 133.654 234.597 134.23C234.989 134.508 235.374 134.795 235.749 135.096C236.016 135.31 236.766 135.738 236.701 136.129C236.631 136.557 236.318 137.03 236.143 137.428C235.938 137.893 235.738 138.361 235.542 138.83C235.144 139.782 234.765 140.741 234.407 141.709C233.709 143.599 233.091 145.518 232.565 147.462C231.506 151.375 230.821 155.4 230.623 159.45C230.569 160.573 230.552 161.696 230.575 162.82C230.597 163.89 230.611 164.988 230.781 166.047C230.921 166.926 231.333 167.823 232.209 168.165C232.959 168.457 233.887 168.285 234.297 167.542L233.386 167.296C233.58 169.481 234.288 171.618 235.37 173.523C236.265 175.099 237.983 177.741 240.115 176.39C241.108 175.76 241.379 174.511 240.923 173.468L240.155 174.061C240.91 174.994 242.1 176.026 243.356 175.323C244.339 174.773 244.558 173.469 244.612 172.448L243.778 172.794C244.518 173.558 245.725 173.775 246.67 173.264C247.623 172.75 248.061 171.606 247.833 170.575L247.017 171.05C247.973 171.948 249.47 171.225 249.838 170.096C250.266 168.785 249.593 167.256 249.147 166.029C248.677 164.738 248.153 163.435 247.936 162.072C247.833 161.426 247.849 160.791 248.026 160.16C248.239 159.401 248.601 158.69 248.932 157.978C250.348 154.927 251.814 151.898 253.091 148.785C254.313 145.803 255.428 142.701 255.931 139.505C256.787 134.071 255.867 128.381 253.355 123.487C252.11 121.062 250.451 118.813 248.429 116.98C246.205 114.964 243.58 113.45 240.929 112.072C238.146 110.626 235.341 109.214 232.538 107.807C229.413 106.238 226.252 104.742 223.058 103.32C222.253 102.962 221.447 102.609 220.638 102.26C220.067 102.013 219.568 102.855 220.145 103.104C223.236 104.438 226.298 105.84 229.327 107.31C232.2 108.704 235.022 110.196 237.878 111.622C240.461 112.912 243.061 114.208 245.438 115.858C247.685 117.417 249.614 119.355 251.132 121.631C254.056 126.013 255.475 131.357 255.247 136.611C255.12 139.523 254.396 142.339 253.452 145.085C252.388 148.179 251.039 151.164 249.658 154.126C248.984 155.573 248.29 157.011 247.636 158.467C247.32 159.169 247.033 159.883 246.932 160.651C246.853 161.251 246.909 161.852 247.013 162.445C247.238 163.729 247.718 164.957 248.163 166.177C248.372 166.747 248.579 167.319 248.743 167.904C248.92 168.535 249.19 169.409 248.809 170.019C248.606 170.345 248.046 170.677 247.708 170.359C247.345 170.018 246.786 170.358 246.891 170.835C247.025 171.443 246.738 172.127 246.177 172.42C245.608 172.717 244.903 172.55 244.469 172.102C244.161 171.784 243.656 172.039 243.635 172.448C243.601 173.088 243.517 174.025 242.94 174.432C242.151 174.988 241.28 173.906 240.847 173.369C240.468 172.901 239.877 173.499 240.079 173.962C240.477 174.871 239.702 175.871 238.731 175.757C238.175 175.692 237.78 175.243 237.443 174.837C237.103 174.427 236.798 173.989 236.516 173.537C235.351 171.667 234.559 169.497 234.364 167.296C234.323 166.843 233.705 166.593 233.453 167.049C233.14 167.617 232.336 167.245 232.068 166.834C231.591 166.105 231.645 165.047 231.602 164.213C231.502 162.236 231.529 160.254 231.672 158.281C231.954 154.368 232.699 150.497 233.784 146.729C234.328 144.84 234.958 142.976 235.662 141.141C236.016 140.218 236.389 139.301 236.781 138.393C236.975 137.943 237.175 137.495 237.377 137.049C237.567 136.627 237.784 136.182 237.651 135.708C237.536 135.301 237.191 135.027 236.882 134.767C236.522 134.465 236.153 134.173 235.779 133.89C235.024 133.318 234.239 132.787 233.436 132.285C231.802 131.264 230.097 130.365 228.396 129.463C224.237 127.26 220.088 125.041 215.893 122.906C215.333 122.621 214.838 123.464 215.399 123.75Z" fill="#662D91"/>
<path d="M120.955 28.5241C119.749 30.4116 118.271 32.1283 117.235 34.1232C116.687 35.1792 116.712 35.6763 116.783 36.7955C116.845 37.7668 116.721 38.8738 116.016 39.6061C115.664 39.971 115.2 40.2065 114.728 40.391C113.36 40.9259 111.818 41.0778 110.408 40.664C109.35 40.3532 107.899 39.5384 107.482 38.4365C107.163 37.5951 107.426 36.6669 107.247 35.8084C107.067 34.9459 106.625 33.983 106.145 33.2443C105.587 32.3875 104.849 31.6657 104.118 30.9515C102.091 28.9721 99.5545 26.7043 98.7792 23.8817C98.3293 22.2438 98.3468 20.511 98.5329 18.8227C99.1793 12.9561 103.918 9.24897 109.62 8.67946C112.527 8.38916 115.548 8.85433 118.101 10.2754C122.062 12.481 124.147 16.7236 123.684 21.2087C123.414 23.8213 122.369 26.311 120.955 28.5241Z" fill="#FFDE17"/>
<path d="M110.249 47.579C111.165 47.8086 112.11 47.9396 113.051 47.8708C114.125 47.7922 115.197 47.4394 116.028 46.7535C116.271 46.5522 116.501 46.3113 116.591 46.0085C116.766 45.4239 116.385 44.7745 116.579 44.1957C116.662 43.9465 116.844 43.7414 116.94 43.497C117.072 43.1636 117.027 42.766 116.824 42.4706C116.727 42.3299 116.598 42.2117 116.518 42.0611C116.364 41.7717 116.416 41.4161 116.518 41.1043C116.62 40.7926 116.767 40.4899 116.793 40.163C116.883 39.0494 115.699 38.7609 114.915 38.3836C114.608 38.2359 114.293 38.0947 113.958 38.0346C113.642 37.978 113.318 37.9952 112.997 38.0147C111.992 38.0759 110.989 38.1577 109.987 38.2598C109.039 38.3565 107.971 38.5447 107.41 39.4184C107.155 39.8156 107.086 40.3522 107.319 40.7623C107.441 40.9755 107.639 41.1551 107.681 41.3967C107.722 41.6341 107.602 41.8654 107.507 42.0868C107.416 42.2991 107.345 42.52 107.296 42.7456C107.239 43.004 107.217 43.2806 107.305 43.5347C107.404 43.8221 107.654 43.9311 107.806 44.1762C107.998 44.4859 107.868 44.8852 107.883 45.2493C107.91 45.8958 108.38 46.1312 108.693 46.6035C109.014 47.0867 109.27 47.3094 109.861 47.4757C109.989 47.5119 110.119 47.5465 110.249 47.579Z" fill="#3B1954"/>
<path d="M114.728 40.3901C113.36 40.9248 111.818 41.0767 110.408 40.663C109.942 40.5261 107.426 39.4842 107.965 38.8105C108.094 38.6487 108.31 38.5885 108.511 38.542C110.819 38.01 113.262 38.0747 115.538 38.7281C115.727 38.7824 115.92 38.8429 116.077 38.9618C116.144 39.0129 116.205 39.0763 116.237 39.1552C116.461 39.7226 115.092 40.248 114.728 40.3901Z" fill="#662D91"/>
<path d="M114.598 39.9197C113.316 40.4073 111.871 40.6046 110.538 40.1927C109.937 40.0067 109.339 39.7126 108.814 39.3673C108.689 39.2848 108.565 39.1979 108.462 39.0873C108.443 39.0668 108.396 38.9908 108.378 38.9848C108.321 38.9659 108.397 38.912 108.372 38.9701C108.371 38.9712 108.377 39.0643 108.372 39.061C108.381 39.0667 108.347 39.0902 108.366 39.1018C108.368 39.1036 108.482 39.0548 108.489 39.0533C108.637 39.0213 108.782 38.9811 108.93 38.9503C109.298 38.874 109.669 38.8111 110.042 38.7678C111.443 38.605 112.873 38.65 114.257 38.9223C114.663 39.0021 115.069 39.0959 115.465 39.2169C115.504 39.2289 115.79 39.354 115.772 39.2711C115.768 39.2522 115.69 39.345 115.67 39.3599C115.344 39.6035 114.976 39.772 114.598 39.9197C114.019 40.1461 114.271 41.092 114.858 40.8625C115.351 40.67 115.851 40.4657 116.266 40.1303C116.776 39.7185 116.954 39.0311 116.373 38.5785C116.071 38.3434 115.674 38.254 115.311 38.1601C114.833 38.0367 114.349 37.9389 113.861 37.8667C112.938 37.7302 112.007 37.6707 111.075 37.7093C110.162 37.7471 109.216 37.8487 108.331 38.0834C107.783 38.2286 107.247 38.6444 107.443 39.2735C107.584 39.7257 108.042 40.0388 108.422 40.2764C108.863 40.5513 109.339 40.7689 109.818 40.9651C111.419 41.6199 113.267 41.4675 114.858 40.8625C115.44 40.6411 115.188 39.6955 114.598 39.9197Z" fill="#662D91"/>
<path d="M107.82 42.9558C108.641 43.5711 109.656 43.9059 110.679 43.9378C110.935 43.9458 111.179 43.7074 111.168 43.4491C111.156 43.1776 110.953 42.969 110.679 42.9604C110.56 42.9567 110.441 42.9494 110.323 42.9367C110.293 42.9336 110.264 42.9301 110.234 42.9263C110.29 42.9339 110.289 42.9334 110.231 42.9249C110.188 42.9171 110.143 42.9104 110.1 42.9021C109.873 42.8595 109.649 42.7996 109.432 42.7233C109.382 42.7061 109.333 42.6881 109.285 42.6692C109.257 42.6584 109.229 42.6473 109.202 42.636C109.25 42.6564 109.248 42.6553 109.196 42.6325C109.094 42.5852 108.994 42.5378 108.895 42.4849C108.692 42.3756 108.498 42.2503 108.313 42.1119C108.107 41.9581 107.758 42.0719 107.644 42.2872C107.509 42.5436 107.6 42.7916 107.82 42.9558Z" fill="#662D91"/>
<path d="M115.028 43.5588C115.45 43.5557 115.884 43.4297 116.23 43.1864C116.336 43.1119 116.419 43.023 116.455 42.8943C116.487 42.7774 116.472 42.6216 116.405 42.5178C116.338 42.4135 116.238 42.3216 116.113 42.2932C115.991 42.2654 115.843 42.2677 115.737 42.3425C115.638 42.4119 115.532 42.4702 115.421 42.5176L115.538 42.4683C115.401 42.5251 115.258 42.564 115.111 42.5845L115.241 42.567C115.17 42.5761 115.1 42.581 115.028 42.5815C114.902 42.5824 114.772 42.6353 114.683 42.7246C114.598 42.8093 114.534 42.9484 114.54 43.0701C114.545 43.1965 114.587 43.3276 114.683 43.4157C114.778 43.5031 114.896 43.5598 115.028 43.5588Z" fill="#662D91"/>
<path d="M111.68 46.1396C111.829 46.1785 111.986 46.2005 112.14 46.2071C112.295 46.2138 112.45 46.1941 112.603 46.1681C112.667 46.153 112.722 46.1238 112.769 46.0806C112.823 46.0461 112.865 46.0004 112.895 45.9435C112.931 45.8874 112.95 45.8269 112.953 45.7618C112.968 45.6969 112.965 45.6319 112.945 45.567C112.906 45.4487 112.833 45.3346 112.72 45.2749L112.603 45.2256C112.517 45.2024 112.43 45.2024 112.343 45.2256C112.323 45.2291 112.303 45.2323 112.282 45.2351L112.412 45.2176C112.276 45.2352 112.14 45.2352 112.004 45.218L112.134 45.2354C112.068 45.2265 112.004 45.2138 111.94 45.1971C111.816 45.1649 111.674 45.1815 111.563 45.2464C111.506 45.2771 111.46 45.3191 111.426 45.3723C111.383 45.4195 111.354 45.4749 111.338 45.5384C111.31 45.6635 111.316 45.804 111.388 45.915C111.456 46.0213 111.555 46.107 111.68 46.1396Z" fill="#662D91"/>
<path d="M111.021 47.7091C111.007 48.425 111.711 48.8804 112.369 48.8591C112.71 48.848 113.03 48.7312 113.285 48.5028C113.524 48.2886 113.655 47.9774 113.669 47.6605C113.68 47.4047 113.436 47.1603 113.18 47.1718C112.906 47.1841 112.704 47.3865 112.692 47.6605C112.691 47.6853 112.689 47.7094 112.685 47.734L112.703 47.6041C112.697 47.6405 112.689 47.6763 112.677 47.7114C112.672 47.729 112.648 47.7868 112.68 47.7103C112.712 47.6343 112.687 47.6909 112.678 47.7075C112.668 47.7256 112.656 47.7425 112.647 47.7606C112.612 47.8227 112.671 47.7177 112.679 47.7217C112.679 47.7217 112.607 47.7998 112.603 47.8033C112.59 47.8157 112.541 47.8541 112.605 47.8051C112.67 47.7558 112.62 47.7934 112.605 47.8034C112.584 47.8173 112.523 47.8672 112.497 47.863C112.505 47.8643 112.606 47.8237 112.538 47.8449C112.52 47.8503 112.503 47.8565 112.485 47.8616C112.441 47.8743 112.396 47.883 112.35 47.89L112.48 47.8725C112.378 47.8852 112.277 47.8842 112.175 47.8706L112.305 47.888C112.233 47.8767 112.166 47.8579 112.096 47.8358C112.049 47.8172 112.063 47.8233 112.139 47.8539C112.123 47.8462 112.107 47.838 112.091 47.8294C112.076 47.8207 112.06 47.8115 112.045 47.8018C112.004 47.7729 112.015 47.7826 112.08 47.8308C112.061 47.8058 112.027 47.7813 112.005 47.759C111.973 47.7206 111.982 47.7334 112.034 47.7974C112.024 47.7833 112.015 47.7689 112.007 47.754C111.998 47.7393 111.99 47.7241 111.983 47.7087C112.014 47.7869 112.021 47.8021 112.005 47.7543C111.997 47.721 111.988 47.6893 111.984 47.6552L112.001 47.7851C111.999 47.7594 111.998 47.7348 111.999 47.709C112.004 47.4533 111.77 47.2087 111.51 47.2204C111.241 47.2324 111.027 47.4351 111.021 47.7091Z" fill="#662D91"/>
<path d="M110.714 39.2398C110.802 35.8293 110.25 32.451 109.657 29.1041C109.381 27.5422 109.12 25.9721 108.7 24.441C108.486 23.6637 108.228 22.9008 107.913 22.1587C107.67 21.5876 107.244 20.9731 106.53 21.1925C105.814 21.4126 105.897 22.2514 106.342 22.6844C106.824 23.1531 107.628 23.3029 108.269 23.3832C109.801 23.5752 111.304 23.1594 112.807 22.9298C113.204 22.8691 113.605 22.8258 114.008 22.8147C114.264 22.8076 114.738 22.7519 114.945 22.9475C115.02 23.0178 114.982 23.0309 115.017 23.0879C115.029 23.1061 114.995 23.1235 114.996 23.1382C114.988 23.0377 115.157 23.1375 114.981 23.0698C114.654 22.9442 114.288 23.1567 114.141 23.4407C113.974 23.7615 113.971 24.1985 113.915 24.551C113.846 24.9893 113.781 25.428 113.719 25.8672C113.603 26.6856 113.498 27.5055 113.404 28.3267C112.972 32.1127 112.791 35.9248 112.852 39.7346C112.862 40.3631 113.84 40.365 113.83 39.7346C113.778 36.5511 113.896 33.366 114.189 30.1955C114.333 28.6281 114.52 27.0644 114.751 25.5074C114.809 25.1202 114.869 24.7335 114.932 24.3471C114.942 24.2818 115.037 23.8662 115.018 23.8557C115.074 23.887 114.666 23.9524 114.926 24.0569C114.985 24.0806 115.075 24.0768 115.138 24.0734C115.692 24.0439 116.018 23.4938 115.992 22.9821C115.918 21.5448 113.834 21.8107 112.907 21.9355C111.458 22.1305 110.017 22.563 108.542 22.4348C108.222 22.407 107.905 22.3451 107.598 22.249C107.437 22.1986 107.252 22.1441 107.111 22.0501C107.09 22.0361 106.974 21.9283 106.971 21.9283C106.908 21.9268 106.82 22.1263 106.822 22.1508C106.829 22.2481 107.013 22.5207 107.052 22.6127C107.118 22.771 107.18 22.9311 107.24 23.0917C107.369 23.4358 107.487 23.7842 107.594 24.1357C108.031 25.5713 108.303 27.0502 108.566 28.5257C109.197 32.0665 109.83 35.6285 109.736 39.2397C109.72 39.8691 110.697 39.8688 110.714 39.2398Z" fill="#662D91"/>
<path d="M110.236 0.489245C110.197 1.30951 110.159 2.12978 110.12 2.95005C110.108 3.20584 110.354 3.45034 110.609 3.43891C110.884 3.42658 111.085 3.22409 111.098 2.95005C111.136 2.12978 111.175 1.30951 111.213 0.489245C111.225 0.233452 110.98 -0.0110435 110.725 0.000385568C110.45 0.012711 110.249 0.215204 110.236 0.489245Z" fill="#FFDE17"/>
<path d="M97.1824 4.97368C97.6388 5.43593 98.0952 5.89822 98.5516 6.36047C98.7315 6.54267 99.0649 6.55412 99.2427 6.36047C99.4227 6.16436 99.4346 5.86379 99.2427 5.66937C98.7863 5.20712 98.3299 4.74483 97.8735 4.28258C97.6936 4.10038 97.3602 4.08893 97.1824 4.28258C97.0024 4.47869 96.9905 4.77926 97.1824 4.97368Z" fill="#FFDE17"/>
<path d="M91.2027 18.0782L92.6785 18.28C92.8147 18.2987 92.931 18.3034 93.055 18.2308C93.1564 18.1715 93.2531 18.0553 93.2796 17.9387C93.3081 17.8136 93.3019 17.6732 93.2303 17.5622C93.1667 17.4635 93.0605 17.3543 92.9383 17.3376L91.4625 17.1358C91.3262 17.1171 91.21 17.1124 91.0859 17.185C90.9846 17.2444 90.8879 17.3606 90.8614 17.4771C90.8329 17.6022 90.839 17.7426 90.9106 17.8536C90.9743 17.9523 91.0805 18.0615 91.2027 18.0782Z" fill="#FFDE17"/>
<path d="M94.9206 30.9597C95.6784 30.3403 96.4363 29.7208 97.1941 29.1014C97.3929 28.9389 97.3753 28.5766 97.1941 28.4103C96.983 28.2164 96.7151 28.2369 96.503 28.4103C95.7452 29.0297 94.9873 29.6492 94.2295 30.2686C94.0307 30.4311 94.0483 30.7934 94.2295 30.9597C94.4406 31.1536 94.7085 31.1331 94.9206 30.9597Z" fill="#FFDE17"/>
<path d="M124.235 6.24919C124.314 6.12054 124.399 5.99639 124.491 5.8767L124.415 5.97559C124.632 5.69518 124.884 5.44357 125.164 5.22563L125.065 5.30206C125.184 5.21008 125.308 5.1245 125.437 5.04552C125.655 4.91171 125.758 4.60215 125.612 4.37691C125.472 4.15849 125.177 4.05839 124.944 4.2016C124.312 4.58973 123.779 5.12389 123.391 5.75589C123.258 5.97412 123.337 6.30298 123.567 6.4245C123.805 6.5504 124.092 6.48214 124.235 6.24919Z" fill="#FFDE17"/>
<path d="M125.849 17.6985C126.801 17.8671 127.767 17.9448 128.734 17.9147C128.99 17.9068 129.235 17.6956 129.223 17.426C129.211 17.1681 129.008 16.9288 128.734 16.9374C128.282 16.9514 127.829 16.9439 127.378 16.9123C127.156 16.8967 126.936 16.8757 126.715 16.849C126.718 16.8493 126.56 16.8293 126.634 16.8392C126.581 16.8321 126.529 16.8244 126.476 16.8165C126.353 16.7981 126.231 16.7777 126.108 16.756C125.858 16.7116 125.57 16.8235 125.507 17.0973C125.453 17.3354 125.579 17.6509 125.849 17.6985Z" fill="#FFDE17"/>
<path d="M123.073 30.0787C123.655 30.7414 124.32 31.3242 125.043 31.8285C125.253 31.9752 125.595 31.8737 125.711 31.6531C125.843 31.4032 125.76 31.1411 125.536 30.9845C125.453 30.9269 125.372 30.8684 125.291 30.8086C125.246 30.7758 125.203 30.737 125.157 30.7077C125.181 30.723 125.225 30.761 125.176 30.7225C125.154 30.7052 125.132 30.688 125.11 30.6706C124.948 30.542 124.79 30.4084 124.636 30.2702C124.328 29.9938 124.038 29.6986 123.765 29.3876C123.595 29.1948 123.244 29.2017 123.073 29.3876C122.885 29.5931 122.893 29.8731 123.073 30.0787Z" fill="#FFDE17"/>
<path d="M114.717 11.8058C115.542 10.9317 118.373 12.7563 118.312 13.7935C118.29 14.1634 117.95 14.5371 117.591 14.4465C117.407 14.4002 117.271 14.2515 117.14 14.1148C116.73 13.6867 116.261 13.3031 115.715 13.0747C115.419 12.9508 115.095 12.8688 114.853 12.6569C114.612 12.4451 114.497 12.0393 114.717 11.8058Z" fill="#FFDE17"/>
<path d="M115.063 12.1516C115.067 12.1479 115.116 12.0973 115.118 12.0995C115.148 12.1262 115.014 12.162 115.08 12.1309C115.1 12.1212 115.127 12.1059 115.145 12.0928C115.213 12.0445 115.099 12.123 115.098 12.1107C115.098 12.0996 115.209 12.0772 115.224 12.0728C115.316 12.0464 115.232 12.0463 115.203 12.0723C115.212 12.0644 115.277 12.0664 115.289 12.0659C115.338 12.0637 115.388 12.0646 115.438 12.0676C115.469 12.0695 115.501 12.0754 115.532 12.076C115.414 12.0737 115.464 12.0643 115.497 12.072C115.621 12.1001 115.744 12.1238 115.865 12.1625C115.923 12.1811 115.981 12.2014 116.038 12.2231C116.073 12.2365 116.108 12.2505 116.143 12.2648C116.127 12.2584 116.049 12.222 116.131 12.2608C116.261 12.3224 116.389 12.3846 116.514 12.4555C116.63 12.5208 116.742 12.5907 116.852 12.6649C116.907 12.7018 116.96 12.7398 117.013 12.7788C117.028 12.7896 117.132 12.8708 117.039 12.7971C117.069 12.8211 117.1 12.8452 117.129 12.8698C117.225 12.9493 117.318 13.0326 117.406 13.1206C117.448 13.1623 117.489 13.205 117.529 13.249C117.553 13.2751 117.689 13.4468 117.603 13.3309C117.664 13.4129 117.721 13.4966 117.769 13.5868C117.778 13.6046 117.787 13.6346 117.8 13.6495C117.839 13.6919 117.764 13.5334 117.788 13.6194C117.801 13.6669 117.814 13.7167 117.829 13.7637C117.853 13.8408 117.812 13.7012 117.821 13.7035C117.825 13.7044 117.825 13.7663 117.824 13.7714C117.815 13.8229 117.825 13.7737 117.827 13.7643C117.826 13.7674 117.773 13.9104 117.807 13.8409C117.763 13.9313 117.774 13.9258 117.695 13.9807C117.756 13.9382 117.672 13.9806 117.671 13.9851C117.69 13.9699 117.712 13.9649 117.736 13.9701C117.677 13.9693 117.672 13.971 117.72 13.9752C117.736 13.9791 117.775 14.055 117.684 13.9583C117.579 13.848 117.719 14.0008 117.606 13.8925C117.535 13.8244 117.469 13.7511 117.4 13.6813C117.241 13.5213 117.074 13.3703 116.897 13.2304C116.49 12.9078 116.064 12.6847 115.579 12.5006C115.418 12.4396 115.234 12.3711 115.131 12.2424C115.173 12.2957 115.126 12.23 115.121 12.2208C115.095 12.1682 115.091 12.1624 115.109 12.2033C115.099 12.1727 115.09 12.1415 115.084 12.1097C115.094 12.1713 115.071 12.1225 115.089 12.0987C115.079 12.1523 115.081 12.1506 115.095 12.0937C115.091 12.117 115.081 12.1363 115.063 12.1516C115.233 11.9499 115.261 11.6581 115.063 11.4602C114.888 11.2857 114.543 11.2574 114.372 11.4602C113.987 11.9168 114.06 12.578 114.49 12.9861C114.885 13.3607 115.436 13.442 115.877 13.7035C116.084 13.8262 116.263 13.96 116.441 14.1188C116.635 14.2911 116.801 14.4945 117 14.6603C117.244 14.8641 117.527 14.9811 117.848 14.9329C118.158 14.8863 118.404 14.6939 118.583 14.4435C119.061 13.7733 118.66 13.0226 118.172 12.506C117.683 11.9876 117.059 11.5919 116.402 11.3219C115.767 11.0604 114.907 10.9146 114.372 11.4602C113.931 11.9097 114.622 12.6017 115.063 12.1516Z" fill="#662D91"/>
<path d="M119.786 16.9339C120.206 17.5247 120.964 16.9234 120.636 16.3652C120.271 15.7436 119.322 16.2819 119.786 16.9339Z" fill="#FFDE17"/>
<path d="M119.364 17.18C119.409 17.2427 119.455 17.3066 119.509 17.3625C119.56 17.4155 119.623 17.4612 119.681 17.5037C119.762 17.562 119.858 17.6035 119.953 17.6307C120.046 17.6576 120.151 17.6728 120.248 17.6632C120.314 17.6568 120.382 17.6502 120.446 17.6339C120.511 17.6176 120.577 17.5862 120.636 17.5598C120.81 17.4823 120.953 17.3346 121.054 17.1766C121.156 17.0163 121.217 16.7988 121.203 16.6084C121.195 16.5044 121.182 16.4002 121.142 16.3035C121.114 16.2341 121.087 16.1637 121.047 16.1001C121.009 16.0395 120.964 15.9831 120.918 15.9285C120.798 15.7876 120.616 15.6788 120.437 15.6337C120.262 15.5895 120.067 15.5891 119.894 15.6437C119.725 15.697 119.559 15.7894 119.439 15.9218C119.376 15.991 119.316 16.0675 119.276 16.1531C119.213 16.2922 119.182 16.3993 119.173 16.5542C119.16 16.7699 119.241 17.0049 119.364 17.18C119.438 17.2861 119.527 17.3692 119.656 17.4046C119.773 17.4368 119.929 17.4222 120.032 17.3553C120.137 17.288 120.229 17.1879 120.257 17.0633C120.285 16.9411 120.282 16.7933 120.208 16.6867C120.176 16.642 120.149 16.5952 120.128 16.5452L120.177 16.6619C120.158 16.6154 120.144 16.5676 120.136 16.5178L120.154 16.6477C120.149 16.6056 120.148 16.5638 120.153 16.5217L120.136 16.6516C120.141 16.612 120.152 16.5739 120.167 16.5369L120.117 16.6536C120.134 16.6154 120.154 16.5798 120.179 16.5466L120.103 16.6455C120.131 16.6087 120.164 16.5762 120.201 16.5477L120.102 16.6241C120.139 16.596 120.18 16.5728 120.223 16.5544L120.106 16.6036C120.15 16.5857 120.195 16.5732 120.241 16.5663L120.111 16.5837C120.158 16.5774 120.205 16.5771 120.252 16.5831L120.122 16.5656C120.165 16.5717 120.206 16.5829 120.246 16.5993L120.13 16.5501C120.169 16.5669 120.205 16.5881 120.239 16.6138L120.14 16.5373C120.18 16.5679 120.214 16.6032 120.245 16.6424L120.168 16.5436C120.2 16.586 120.227 16.6314 120.249 16.6801L120.199 16.5633C120.219 16.6105 120.233 16.6589 120.24 16.7096L120.223 16.5797C120.228 16.6237 120.228 16.6674 120.223 16.7115L120.241 16.5816C120.234 16.6299 120.221 16.6763 120.202 16.7213L120.252 16.6045C120.233 16.6483 120.208 16.6889 120.179 16.7267L120.256 16.6279C120.226 16.6648 120.193 16.6976 120.156 16.7266L120.255 16.6501C120.22 16.6764 120.183 16.6983 120.143 16.7159L120.26 16.6666C120.22 16.6834 120.179 16.6951 120.136 16.7013L120.265 16.6839C120.225 16.6891 120.185 16.6891 120.144 16.6839L120.274 16.7013C120.234 16.6955 120.197 16.6849 120.16 16.6697L120.277 16.7189C120.237 16.7016 120.201 16.6796 120.166 16.6535L120.265 16.7299C120.223 16.6969 120.187 16.6593 120.154 16.6178L120.23 16.7167C120.222 16.7068 120.215 16.6968 120.208 16.6867C120.177 16.6298 120.135 16.584 120.082 16.5496C120.035 16.5064 119.979 16.4772 119.916 16.4621C119.799 16.4299 119.643 16.4445 119.539 16.5114C119.435 16.5787 119.343 16.6788 119.314 16.8035C119.287 16.9245 119.288 17.0751 119.364 17.18Z" fill="#FFDE17"/>
<path d="M226.891 207.659C226.848 205.973 227.954 204.346 229.527 203.733C229.898 203.589 230.343 203.457 230.745 203.493C231.248 203.537 231.277 204.286 231.307 204.682C231.384 205.707 231.12 206.704 230.571 207.569L231.464 207.945C231.623 207.159 232.188 206.493 232.976 206.282C233.768 206.07 234.667 206.42 235.145 207.079C235.715 207.865 235.601 208.962 235.235 209.808C234.833 210.734 234.134 211.494 233.466 212.234L234.283 212.71C234.359 212.201 234.841 212.035 235.309 212.02C235.935 211.999 236.544 212.282 237.012 212.688C237.502 213.113 237.862 213.701 237.849 214.366C237.836 215 237.514 215.578 236.942 215.864L237.436 216.708C238.656 216.022 240.221 216.067 241.377 216.874C242.472 217.639 243.024 218.996 242.903 220.306C242.845 220.932 243.823 220.928 243.88 220.306C244.033 218.644 243.237 216.979 241.87 216.03C240.43 215.031 238.45 215.016 236.942 215.864C236.39 216.175 236.877 216.988 237.436 216.708C238.281 216.286 238.762 215.398 238.822 214.474C238.885 213.486 238.364 212.536 237.614 211.921C236.915 211.349 236.033 210.963 235.116 211.056C234.31 211.137 233.471 211.576 233.34 212.45C233.275 212.885 233.795 213.328 234.157 212.926C235.026 211.963 235.921 210.955 236.315 209.693C236.683 208.515 236.563 207.151 235.697 206.219C234.937 205.401 233.684 205.026 232.61 205.37C231.563 205.707 230.74 206.604 230.521 207.685C230.413 208.222 231.109 208.543 231.415 208.062C232.125 206.945 232.423 205.603 232.241 204.29C232.156 203.683 231.999 202.993 231.413 202.676C230.901 202.399 230.229 202.514 229.693 202.654C227.499 203.23 225.856 205.391 225.914 207.659C225.93 208.287 226.907 208.29 226.891 207.659Z" fill="#662D91"/>
<path d="M228.698 218.072C228.792 218.063 228.885 218.066 228.979 218.078L228.849 218.061C228.961 218.077 229.069 218.108 229.174 218.151L229.057 218.102C229.167 218.149 229.27 218.21 229.365 218.283L229.266 218.206C229.354 218.277 229.434 218.356 229.503 218.446L229.427 218.347C229.487 218.428 229.537 218.514 229.578 218.606L229.528 218.489C229.536 218.507 229.542 218.524 229.549 218.542C229.595 218.664 229.658 218.766 229.774 218.834C229.878 218.895 230.033 218.921 230.15 218.883C230.268 218.845 230.383 218.772 230.442 218.659C230.5 218.548 230.537 218.403 230.492 218.282C230.411 218.068 230.31 217.895 230.165 217.718C230.05 217.578 229.902 217.46 229.75 217.363C229.446 217.169 229.058 217.062 228.698 217.095C228.566 217.107 228.449 217.141 228.352 217.238C228.267 217.323 228.204 217.462 228.209 217.583C228.215 217.71 228.256 217.841 228.352 217.929C228.443 218.012 228.57 218.084 228.698 218.072Z" fill="#662D91"/>
<path d="M127.99 211.059C126.404 210.265 124.095 209.611 122.847 211.33C121.729 212.87 122.671 215.124 124.56 215.391C124.804 215.426 125.034 215.352 125.136 215.108C125.223 214.903 125.158 214.6 124.936 214.498C123.3 213.745 121.081 213.444 119.657 214.809C118.554 215.866 118.235 217.764 119.348 218.926L119.823 218.109C117.904 217.46 115.393 216.898 113.834 218.625C113.242 219.281 112.998 220.133 113.202 220.998C113.391 221.803 113.976 222.495 114.792 222.695C115.403 222.845 115.663 221.903 115.052 221.752C114.511 221.619 114.186 221.131 114.115 220.595C114.03 219.962 114.352 219.39 114.848 219.016C116.238 217.969 118.084 218.552 119.564 219.052C120.044 219.214 120.36 218.57 120.039 218.235C119.272 217.434 119.657 216.092 120.423 215.432C121.519 214.486 123.244 214.791 124.443 215.342L124.82 214.449C123.534 214.267 122.821 212.768 123.758 211.75C124.727 210.697 126.44 211.375 127.496 211.903C128.057 212.184 128.553 211.341 127.99 211.059Z" fill="#662D91"/>
<path d="M152.333 80.5467C152.346 80.5614 152.359 80.5763 152.372 80.5916C152.329 80.5347 152.319 80.5211 152.34 80.5506C152.357 80.5796 152.379 80.6063 152.397 80.6351C152.425 80.6801 152.444 80.7485 152.478 80.7879C152.422 80.7228 152.449 80.7148 152.471 80.7779C152.481 80.8049 152.489 80.8323 152.497 80.86C152.506 80.8923 152.514 80.9249 152.521 80.9577C152.525 80.9772 152.537 81.081 152.529 80.9922C152.522 80.8983 152.532 81.0255 152.533 81.0423C152.535 81.0713 152.536 81.1003 152.537 81.1293C152.537 81.1877 152.535 81.2462 152.53 81.3043C152.528 81.3238 152.526 81.3432 152.524 81.3626C152.535 81.2861 152.537 81.267 152.531 81.3054C152.524 81.3336 152.521 81.3635 152.515 81.3921C152.502 81.4545 152.485 81.5163 152.465 81.5771C152.456 81.6051 152.445 81.6326 152.436 81.6605C152.404 81.7554 152.481 81.5689 152.44 81.6526C152.412 81.71 152.385 81.7668 152.352 81.8219C152.323 81.8712 152.267 81.9271 152.247 81.9799C152.279 81.8979 152.292 81.9237 152.251 81.9714C152.232 81.9933 152.212 82.0147 152.192 82.0355C152.172 82.0562 152.151 82.0764 152.13 82.0959C152.116 82.1091 152.021 82.1765 152.092 82.1322C152.166 82.0861 152.062 82.1527 152.049 82.1615C152.025 82.1774 152 82.1925 151.976 82.2068C151.951 82.2211 151.925 82.2347 151.899 82.2474C151.886 82.2538 151.873 82.2599 151.86 82.2657C151.826 82.281 151.843 82.2739 151.91 82.2445C151.859 82.241 151.765 82.2911 151.713 82.3026L152.332 82.7739C152.331 82.7485 152.331 82.7232 152.332 82.6978C152.332 82.6944 152.338 82.572 152.332 82.6491C152.328 82.7161 152.336 82.6346 152.339 82.6203C152.344 82.5955 152.35 82.5708 152.356 82.5464C152.364 82.5157 152.375 82.4858 152.384 82.4554C152.399 82.4019 152.393 82.4307 152.376 82.466C152.401 82.4142 152.426 82.3635 152.456 82.3144C152.469 82.2928 152.485 82.2724 152.498 82.2504C152.53 82.1922 152.446 82.3077 152.49 82.2581C152.528 82.2155 152.565 82.1724 152.607 82.1332C152.625 82.1159 152.646 82.1003 152.664 82.0829C152.636 82.1093 152.609 82.1206 152.656 82.0906C152.709 82.0559 152.763 82.024 152.82 81.9957C153.05 81.8821 153.132 81.538 152.996 81.3268C152.844 81.0916 152.573 81.03 152.327 81.1515C151.728 81.4476 151.343 82.1096 151.355 82.7739C151.361 83.1035 151.661 83.3144 151.973 83.2453C152.676 83.0898 153.192 82.5027 153.408 81.8369C153.629 81.1549 153.502 80.395 153.024 79.8553C152.854 79.6633 152.504 79.6688 152.333 79.8553C152.145 80.0602 152.151 80.342 152.333 80.5467Z" fill="#662D91"/>
<path d="M150.881 76.0098C152.163 75.4653 153.614 75.5497 154.911 75.9926C156.029 76.3742 157.14 77.1163 157.556 78.2707C157.768 78.8581 158.713 78.6047 158.499 78.0108C157.387 74.9252 153.154 73.9909 150.388 75.1656C150.143 75.2696 150.094 75.626 150.213 75.8344C150.357 76.0875 150.64 76.1124 150.881 76.0098Z" fill="#662D91"/>
<path d="M171.454 86.2342C171.467 86.2489 171.48 86.2638 171.493 86.2791C171.45 86.2222 171.44 86.2086 171.461 86.2381C171.479 86.2671 171.501 86.2938 171.518 86.3226C171.546 86.3676 171.565 86.436 171.599 86.4754C171.544 86.4103 171.57 86.4023 171.592 86.4654C171.602 86.4924 171.61 86.5198 171.618 86.5475C171.627 86.5798 171.635 86.6124 171.642 86.6452C171.646 86.6647 171.658 86.7685 171.651 86.6797C171.643 86.5858 171.653 86.713 171.654 86.7298C171.656 86.7588 171.657 86.7878 171.658 86.8168C171.659 86.8752 171.656 86.9337 171.651 86.9918C171.65 87.0113 171.648 87.0307 171.645 87.0501C171.656 86.9736 171.658 86.9545 171.652 86.9929C171.645 87.0211 171.642 87.051 171.636 87.0796C171.623 87.142 171.606 87.2038 171.586 87.2646C171.577 87.2926 171.567 87.3201 171.557 87.348C171.525 87.4429 171.602 87.2564 171.561 87.3401C171.533 87.3975 171.506 87.4543 171.473 87.5094C171.444 87.5587 171.389 87.6146 171.368 87.6674C171.4 87.5854 171.413 87.6112 171.372 87.6589C171.353 87.6808 171.333 87.7022 171.313 87.723C171.293 87.7437 171.273 87.7639 171.251 87.7834C171.237 87.7966 171.142 87.864 171.213 87.8197C171.287 87.7736 171.183 87.8402 171.17 87.849C171.146 87.8649 171.122 87.88 171.097 87.8943C171.072 87.9086 171.046 87.9222 171.021 87.9349C171.008 87.9413 170.995 87.9474 170.981 87.9532C170.947 87.9685 170.964 87.9614 171.031 87.932C170.98 87.9285 170.886 87.9786 170.834 87.9901L171.453 88.4614C171.453 88.436 171.452 88.4107 171.453 88.3853C171.453 88.3819 171.459 88.2595 171.454 88.3366C171.449 88.4036 171.457 88.3221 171.46 88.3078C171.465 88.283 171.471 88.2583 171.477 88.2339C171.485 88.2032 171.496 88.1733 171.505 88.1429C171.521 88.0894 171.514 88.1182 171.498 88.1535C171.522 88.1017 171.547 88.051 171.577 88.0019C171.59 87.9803 171.607 87.9599 171.619 87.9379C171.651 87.8797 171.567 87.9952 171.611 87.9456C171.649 87.9029 171.686 87.8599 171.728 87.8207C171.747 87.8034 171.767 87.7878 171.785 87.7704C171.757 87.7968 171.731 87.8081 171.777 87.7781C171.831 87.7434 171.884 87.7115 171.942 87.6832C172.171 87.5696 172.253 87.2255 172.117 87.0143C171.965 86.7791 171.694 86.7175 171.448 86.839C170.849 87.1351 170.464 87.7971 170.476 88.4614C170.482 88.791 170.782 89.0019 171.094 88.9328C171.797 88.7773 172.313 88.1902 172.529 87.5244C172.75 86.8424 172.623 86.0825 172.145 85.5428C171.975 85.3508 171.625 85.3563 171.454 85.5428C171.266 85.7477 171.273 86.0295 171.454 86.2342Z" fill="#662D91"/>
<path d="M170.002 81.6968C171.284 81.1524 172.735 81.2367 174.032 81.6796C175.15 82.0612 176.261 82.8033 176.677 83.9577C176.889 84.5452 177.834 84.2917 177.62 83.6978C176.508 80.6122 172.275 79.6779 169.509 80.8526C169.264 80.9566 169.215 81.313 169.334 81.5214C169.478 81.7746 169.761 81.7994 170.002 81.6968Z" fill="#662D91"/>
<path d="M160.527 86.5449C159.405 85.8711 158.115 85.5079 156.826 85.329C155.619 85.1616 154.307 85.1958 153.227 85.827C152.307 86.3647 151.608 87.3247 151.506 88.3983C151.399 89.5103 152.069 90.455 152.946 91.0632C154.099 91.8635 155.613 92.2152 156.994 91.9797C157.612 91.874 157.35 90.9317 156.734 91.0369C154.803 91.3665 151.1 89.6351 152.978 87.3078C153.756 86.3446 155.028 86.1512 156.196 86.2365C157.515 86.3329 158.897 86.706 160.034 87.3891C160.574 87.7139 161.066 86.8688 160.527 86.5449Z" fill="#662D91"/>
<path d="M156.184 96.0283C159.11 97.0602 161.751 94.8907 164.569 94.5257C165.832 94.3621 167.084 94.6546 167.921 95.6644C168.645 96.5378 168.951 97.7387 169.055 98.8464C169.313 101.604 168.664 104.498 167.417 106.957C166.395 108.971 164.432 111.866 161.776 111.361C160.465 111.112 159.431 110.091 158.827 108.943C158.047 107.461 157.9 105.729 157.75 104.09C157.693 103.468 156.715 103.462 156.772 104.09C157.035 106.951 157.497 110.367 160.323 111.868C161.55 112.519 162.94 112.527 164.196 111.953C165.468 111.371 166.476 110.292 167.257 109.155C169.021 106.584 169.991 103.441 170.072 100.33C170.138 97.8148 169.503 94.6995 166.83 93.7486C165.193 93.1661 163.371 93.6924 161.812 94.2731C160.118 94.9045 158.256 95.7246 156.444 95.0855C155.85 94.8759 155.594 95.8201 156.184 96.0283Z" fill="#662D91"/>
<path d="M157.117 104.152C161.307 104.237 165.515 103.273 169.251 101.373C168.532 104.183 167.785 107.055 166.169 109.464C165.695 110.17 165.126 110.849 164.362 111.223C162.721 112.027 160.654 111.14 159.535 109.694C158.417 108.248 158.018 106.388 157.649 104.597" fill="#662D91"/>
<path d="M157.117 104.641C161.407 104.715 165.668 103.729 169.498 101.795L168.78 101.243C168.055 104.072 167.316 107.01 165.602 109.428C164.874 110.455 163.854 111.217 162.539 111.002C161.312 110.802 160.268 109.989 159.614 108.956C158.76 107.608 158.438 106.009 158.121 104.467C157.994 103.851 157.051 104.112 157.178 104.727C157.763 107.565 158.668 110.872 161.785 111.826C163.174 112.252 164.587 111.914 165.629 110.904C166.749 109.819 167.483 108.299 168.07 106.878C168.786 105.142 169.257 103.319 169.722 101.502C169.832 101.073 169.381 100.76 169.004 100.95C165.328 102.807 161.233 103.734 157.117 103.663C156.488 103.652 156.488 104.63 157.117 104.641Z" fill="#662D91"/>
<path d="M156.654 68.2711C158.645 66.8268 161.398 66.6934 163.504 67.9776C164.042 68.3059 164.534 67.461 163.997 67.1337C161.619 65.6836 158.421 65.7881 156.161 67.4272C155.656 67.793 156.144 68.6413 156.654 68.2711Z" fill="#662D91"/>
<path d="M182.203 75.004C181.03 72.3143 178.269 70.4794 175.35 70.3599C174.721 70.3341 174.722 71.3119 175.35 71.3376C177.951 71.4441 180.323 73.1226 181.359 75.4975C181.466 75.7413 181.818 75.7924 182.028 75.6728C182.279 75.5298 182.308 75.2445 182.203 75.004Z" fill="#662D91"/>
<path d="M200.772 87.2505C200.646 87.5809 200.549 87.9252 200.504 88.2886C200.648 87.9507 200.732 87.6026 200.772 87.2505Z" fill="#662D91"/>
<path d="M200.301 87.1203C200.157 87.5 200.067 87.8858 200.015 88.2884C200.001 88.3987 200.079 88.5611 200.158 88.6339C200.239 88.708 200.33 88.7537 200.439 88.7683C200.543 88.7823 200.66 88.769 200.751 88.7103L200.85 88.6339C200.91 88.573 200.952 88.5011 200.975 88.4183C201.133 88.0437 201.214 87.6526 201.261 87.2502C201.274 87.1343 201.197 86.9835 201.118 86.9047C201.033 86.8199 200.894 86.7561 200.772 86.7616C200.646 86.7672 200.515 86.8087 200.427 86.9047L200.35 87.0036C200.306 87.0798 200.284 87.162 200.284 87.2502C200.281 87.2758 200.277 87.3014 200.274 87.327L200.292 87.197C200.247 87.5276 200.162 87.8509 200.033 88.1585L200.993 88.2884C200.994 88.2754 200.996 88.2624 200.998 88.2495L200.98 88.3794C201.028 88.0366 201.121 87.7032 201.243 87.3801C201.286 87.2681 201.253 87.1031 201.194 87.0035C201.135 86.9022 201.019 86.8055 200.902 86.779C200.777 86.7505 200.637 86.7566 200.526 86.8282L200.427 86.9047C200.366 86.9656 200.324 87.0375 200.301 87.1203Z" fill="#662D91"/>
<path d="M221.101 75.3549C221.057 75.1378 221.17 74.9234 221.275 74.729C223.09 71.3906 224.033 67.5426 223.738 63.741C223.442 59.9214 221.899 56.2746 219.778 53.0845C215.213 46.2174 207.971 41.3463 200.092 38.9195C192.213 36.4927 183.734 36.4021 175.616 37.8377C169.93 38.8432 164.151 40.7151 160.019 44.75C155.888 48.7849 153.88 55.4226 156.559 60.5389C155.455 61.1308 154.374 61.7719 153.314 62.4488C164.416 64.2692 175.805 64.3305 186.924 62.6161C187.892 68.3987 189.121 74.6675 193.549 78.5086C195.187 79.9293 197.175 80.9209 198.726 82.4361C200.014 83.6945 200.97 85.5234 200.772 87.2507C201.83 84.4788 205.51 82.945 208.393 84.0039C211.621 85.189 213.53 88.7916 213.482 92.2303C213.445 94.8416 211.953 97.8081 209.355 98.0681C213.266 99.8039 217.176 101.54 221.086 103.275C223.227 104.226 225.399 105.177 227.642 105.825C227.786 104.758 227.903 103.69 227.988 102.623C228.868 93.2413 226.756 83.4053 221.279 75.6989C221.204 75.5928 221.126 75.4825 221.101 75.3549Z" fill="#662D91"/>
<path d="M221.589 75.3545C221.574 75.1218 221.726 74.9236 221.832 74.7239C221.942 74.5137 222.05 74.3015 222.153 74.0876C222.358 73.6641 222.549 73.2338 222.728 72.7987C223.099 71.8965 223.409 70.969 223.651 70.0236C224.12 68.1877 224.342 66.2769 224.264 64.3823C224.109 60.6119 222.758 56.9818 220.804 53.7837C217.257 47.9801 211.812 43.4709 205.697 40.5766C198.79 37.3071 191.069 36.1189 183.471 36.4664C179.67 36.6403 175.85 37.1536 172.154 38.0645C168.753 38.9026 165.39 40.1498 162.478 42.1267C159.755 43.975 157.502 46.4389 156.171 49.4701C154.918 52.3232 154.434 55.5779 155.278 58.6172C155.487 59.3676 155.78 60.0935 156.137 60.7851L156.313 60.1163C155.207 60.7115 154.127 61.3518 153.067 62.0262C152.746 62.2303 152.742 62.8476 153.184 62.9197C161.928 64.347 170.837 64.7145 179.667 63.9687C182.139 63.76 184.603 63.4632 187.054 63.087L186.453 62.7456C187.07 66.4256 187.755 70.157 189.34 73.5631C190.098 75.1903 191.081 76.7219 192.327 78.0194C193.735 79.486 195.496 80.4886 197.108 81.7004C198.852 83.0102 200.514 84.9168 200.284 87.2502C200.225 87.8422 201.058 87.8501 201.243 87.3802C201.821 85.915 203.201 84.8778 204.675 84.4264C206.271 83.9374 207.932 84.1338 209.353 85.0145C212.198 86.7775 213.598 90.7192 212.759 93.9186C212.326 95.5687 211.202 97.3667 209.355 97.5788C208.938 97.6266 208.611 98.2688 209.109 98.4897C212.198 99.8612 215.288 101.233 218.378 102.604C221.374 103.934 224.357 105.375 227.512 106.295C227.85 106.394 228.09 106.128 228.131 105.824C228.701 101.568 228.867 97.2757 228.323 93.0078C227.805 88.9399 226.724 84.9594 225.02 81.2258C224.54 80.1751 224.011 79.1467 223.432 78.1471C223.143 77.6467 222.841 77.1534 222.526 76.6681C222.381 76.4438 222.233 76.2212 222.083 76.0004C221.92 75.761 221.664 75.5008 221.572 75.2245C221.373 74.6309 220.429 74.8854 220.629 75.4844C220.782 75.9395 221.124 76.3197 221.389 76.7154C221.686 77.159 221.973 77.6096 222.249 78.0666C222.778 78.9412 223.268 79.8391 223.719 80.756C224.623 82.5935 225.365 84.5078 225.954 86.4689C227.125 90.3623 227.69 94.4222 227.692 98.4858C227.694 100.939 227.479 103.394 227.153 105.824L227.772 105.353C224.646 104.441 221.694 103.013 218.726 101.696C215.685 100.346 212.643 98.9955 209.602 97.6455L209.355 98.5565C211.296 98.3338 212.65 96.9021 213.369 95.1611C214.124 93.3355 214.124 91.2788 213.594 89.3923C213.056 87.4754 211.953 85.7138 210.351 84.5151C208.785 83.3439 206.835 82.9268 204.928 83.3485C202.893 83.7986 201.075 85.1582 200.301 87.1204L201.261 87.2503C201.457 85.2621 200.372 83.3285 198.972 81.9939C197.445 80.5393 195.542 79.5757 193.947 78.2076C191.116 75.7774 189.608 72.2777 188.669 68.7433C188.121 66.6846 187.747 64.5852 187.396 62.4858C187.349 62.2047 187.032 62.1078 186.795 62.1443C178.177 63.4665 169.397 63.7161 160.717 62.9091C158.282 62.6828 155.857 62.3709 153.444 61.977L153.56 62.8704C154.62 62.196 155.7 61.5558 156.806 60.9605C157.047 60.8308 157.099 60.5198 156.981 60.2917C155.578 57.5751 155.552 54.3972 156.442 51.5151C157.371 48.5051 159.237 45.9082 161.672 43.9322C164.285 41.8123 167.431 40.4304 170.638 39.4863C174.104 38.4659 177.714 37.8825 181.311 37.5837C188.782 36.963 196.441 37.7638 203.411 40.6268C209.415 43.0926 214.903 47.1034 218.711 52.3974C220.785 55.2823 222.403 58.5502 223.034 62.068C223.691 65.7263 223.114 69.5627 221.61 72.947C221.436 73.3381 221.251 73.7241 221.054 74.1041C220.847 74.5027 220.58 74.8871 220.612 75.3545C220.654 75.9789 221.632 75.9836 221.589 75.3545Z" fill="#662D91"/>
</svg>
