<svg width="24" height="24" viewBox="0 0 24 24" fill="none" xmlns="http://www.w3.org/2000/svg">
<path d="M20.7976 18.0009C20.7837 18.0248 20.7643 18.045 20.741 18.0599C20.7178 18.0748 20.6912 18.0839 20.6637 18.0865C20.6362 18.089 20.6085 18.085 20.5828 18.0747C20.5572 18.0643 20.5344 18.048 20.5163 18.0271L7.80665 4.04993C7.77093 4.00966 7.74429 3.96216 7.72856 3.91066C7.71283 3.85917 7.70837 3.8049 7.71548 3.75153C7.7226 3.69816 7.74112 3.64695 7.7698 3.60138C7.79847 3.55581 7.83662 3.51694 7.88166 3.48743C9.13436 2.6589 10.608 2.22791 12.1098 2.25087C16.2188 2.31275 19.4813 5.729 19.5001 9.83712C19.5132 13.1071 20.2792 15.6065 20.7957 16.4934C20.9301 16.7218 21.0011 16.9819 21.0014 17.2469C21.0017 17.5119 20.9314 17.7721 20.7976 18.0009ZM15.0001 20.2509H9.02072C8.82777 20.2494 8.64135 20.3207 8.49855 20.4504C8.35575 20.5802 8.26705 20.759 8.25009 20.9512C8.24328 21.0538 8.25764 21.1567 8.29226 21.2535C8.32689 21.3503 8.38106 21.4389 8.45139 21.5139C8.52173 21.5889 8.60673 21.6487 8.70112 21.6894C8.79551 21.7302 8.89728 21.7511 9.00009 21.7509H14.9757C15.1693 21.7533 15.3567 21.6825 15.5003 21.5526C15.6439 21.4227 15.7331 21.2434 15.7501 21.0506C15.7569 20.948 15.7426 20.8451 15.7079 20.7483C15.6733 20.6515 15.6191 20.5628 15.5488 20.4878C15.4785 20.4128 15.3935 20.3531 15.2991 20.3123C15.2047 20.2716 15.1029 20.2506 15.0001 20.2509ZM5.04759 3.2465C4.98173 3.17225 4.90178 3.11182 4.81239 3.0687C4.723 3.02558 4.62594 3.00063 4.52684 2.9953C4.42773 2.98997 4.32855 3.00436 4.23505 3.03764C4.14155 3.07092 4.05558 3.12243 3.98213 3.18918C3.90869 3.25593 3.84921 3.33659 3.80717 3.42649C3.76513 3.51639 3.74134 3.61375 3.7372 3.71291C3.73306 3.81207 3.74864 3.91107 3.78303 4.00416C3.81743 4.09726 3.86997 4.1826 3.93759 4.25525L5.51166 5.98681C4.84393 7.12877 4.4925 8.42802 4.49353 9.75087C4.49353 13.0406 3.72947 15.5634 3.20916 16.4756C3.07075 16.7132 2.99854 16.9836 3.00002 17.2586C3.00151 17.5336 3.07663 17.8032 3.21759 18.0393C3.35033 18.2579 3.53748 18.4384 3.76078 18.5631C3.98408 18.6878 4.2359 18.7525 4.49166 18.7509H17.1207L18.9442 20.7552C19.0779 20.9026 19.2647 20.9907 19.4635 21.0003C19.6623 21.0099 19.8567 20.9401 20.004 20.8063C20.1513 20.6726 20.2395 20.4858 20.249 20.287C20.2586 20.0882 20.1889 19.8938 20.0551 19.7465L5.04759 3.2465Z" fill="#FFFFFD"/>
</svg>
