<svg width="24" height="24" viewBox="0 0 24 24" fill="none" xmlns="http://www.w3.org/2000/svg">
<path fill-rule="evenodd" clip-rule="evenodd" d="M20.5 6H3.5C3.10218 6 2.72064 6.15804 2.43934 6.43934C2.15804 6.72064 2 7.10218 2 7.5V16.5C2 16.8978 2.15804 17.2794 2.43934 17.5607C2.72064 17.842 3.10218 18 3.5 18H20.5C20.8978 18 21.2794 17.842 21.5607 17.5607C21.842 17.2794 22 16.8978 22 16.5V7.5C22 7.10218 21.842 6.72064 21.5607 6.43934C21.2794 6.15804 20.8978 6 20.5 6ZM8.75 16.25C8.55109 16.25 8.36032 16.171 8.21967 16.0303C8.07902 15.8897 8 15.6989 8 15.5C8 15.3011 8.07902 15.1103 8.21967 14.9697C8.36032 14.829 8.55109 14.75 8.75 14.75H15.25C15.4489 14.75 15.6397 14.829 15.7803 14.9697C15.921 15.1103 16 15.3011 16 15.5C16 15.6989 15.921 15.8897 15.7803 16.0303C15.6397 16.171 15.4489 16.25 15.25 16.25H8.75ZM4.25 9C4.25 8.58579 4.58579 8.25 5 8.25C5.41421 8.25 5.75 8.58579 5.75 9C5.75 9.41421 5.41421 9.75 5 9.75C4.58579 9.75 4.25 9.41421 4.25 9ZM18.25 9C18.25 8.58579 18.5858 8.25 19 8.25C19.4142 8.25 19.75 8.58579 19.75 9C19.75 9.41421 19.4142 9.75 19 9.75C18.5858 9.75 18.25 9.41421 18.25 9ZM15.5 8.25C15.0858 8.25 14.75 8.58579 14.75 9C14.75 9.41421 15.0858 9.75 15.5 9.75C15.9142 9.75 16.25 9.41421 16.25 9C16.25 8.58579 15.9142 8.25 15.5 8.25ZM11.25 9C11.25 8.58579 11.5858 8.25 12 8.25C12.4142 8.25 12.75 8.58579 12.75 9C12.75 9.41421 12.4142 9.75 12 9.75C11.5858 9.75 11.25 9.41421 11.25 9ZM8.5 8.25C8.08579 8.25 7.75 8.58579 7.75 9C7.75 9.41421 8.08579 9.75 8.5 9.75C8.91421 9.75 9.25 9.41421 9.25 9C9.25 8.58579 8.91421 8.25 8.5 8.25ZM5 11C4.58579 11 4.25 11.3358 4.25 11.75C4.25 12.1642 4.58579 12.5 5 12.5C5.41421 12.5 5.75 12.1642 5.75 11.75C5.75 11.3358 5.41421 11 5 11ZM19 11C18.5858 11 18.25 11.3358 18.25 11.75C18.25 12.1642 18.5858 12.5 19 12.5C19.4142 12.5 19.75 12.1642 19.75 11.75C19.75 11.3358 19.4142 11 19 11ZM14.75 11.75C14.75 11.3358 15.0858 11 15.5 11C15.9142 11 16.25 11.3358 16.25 11.75C16.25 12.1642 15.9142 12.5 15.5 12.5C15.0858 12.5 14.75 12.1642 14.75 11.75ZM12 11C11.5858 11 11.25 11.3358 11.25 11.75C11.25 12.1642 11.5858 12.5 12 12.5C12.4142 12.5 12.75 12.1642 12.75 11.75C12.75 11.3358 12.4142 11 12 11ZM7.75 11.75C7.75 11.3358 8.08579 11 8.5 11C8.91421 11 9.25 11.3358 9.25 11.75C9.25 12.1642 8.91421 12.5 8.5 12.5C8.08579 12.5 7.75 12.1642 7.75 11.75Z" fill="#FFFFFD"/>
</svg>
