<svg width="24" height="24" viewBox="0 0 24 24" fill="none" xmlns="http://www.w3.org/2000/svg">
<path d="M12.3549 6.5297L8.26454 15.5297C8.23483 15.5953 8.18684 15.651 8.12633 15.6901C8.06581 15.7291 7.99532 15.7499 7.92329 15.75H2.6461C2.52762 15.752 2.41029 15.7265 2.30328 15.6756C2.19627 15.6247 2.10248 15.5497 2.02923 15.4566C1.92227 15.3171 1.86771 15.1444 1.87507 14.9688C1.88244 14.7932 1.95127 14.6257 2.06954 14.4956L5.3611 10.875L2.06954 7.25439C1.95103 7.12427 1.88205 6.95662 1.87468 6.78078C1.86731 6.60493 1.92202 6.4321 2.02923 6.29252C2.10267 6.19965 2.19652 6.12496 2.30351 6.07423C2.41049 6.0235 2.52772 5.99811 2.6461 6.00002H12.0136C12.0763 6.00008 12.1379 6.01584 12.1929 6.04587C12.2479 6.0759 12.2945 6.11924 12.3285 6.17192C12.3624 6.22461 12.3826 6.28496 12.3872 6.34746C12.3918 6.40996 12.3807 6.47262 12.3549 6.5297ZM22.2708 3.96002C22.1238 3.82244 21.9293 3.74717 21.728 3.75002H15.7495C15.6056 3.75007 15.4647 3.79156 15.3437 3.86953C15.2226 3.94749 15.1266 4.05864 15.067 4.1897L11.0761 12.9694C11.05 13.0265 11.0387 13.0893 11.0433 13.1519C11.0478 13.2145 11.0679 13.275 11.1019 13.3279C11.1358 13.3807 11.1825 13.4241 11.2376 13.4542C11.2928 13.4843 11.3546 13.5 11.4174 13.5H16.8352L13.567 20.6897C13.5232 20.7798 13.4978 20.8777 13.4924 20.9777C13.4869 21.0777 13.5016 21.1778 13.5355 21.2721C13.5695 21.3664 13.6219 21.4529 13.6898 21.5265C13.7577 21.6002 13.8396 21.6595 13.9308 21.701C14.022 21.7424 14.1206 21.7652 14.2207 21.7679C14.3209 21.7707 14.4205 21.7533 14.5139 21.7169C14.6072 21.6805 14.6923 21.6258 14.7641 21.5559C14.8359 21.4861 14.893 21.4026 14.932 21.3103L22.432 4.81033C22.4963 4.66931 22.5153 4.51183 22.4864 4.35957C22.4576 4.2073 22.3822 4.06772 22.2708 3.96002Z" fill="#FFFFFD"/>
</svg>
