<svg width="24" height="24" viewBox="0 0 24 24" fill="none" xmlns="http://www.w3.org/2000/svg">
<path d="M22 11.9882C22.0007 12.2428 21.9327 12.4929 21.8033 12.7127C21.6738 12.9325 21.4875 13.114 21.2636 13.2384L6.14717 21.8125C5.93025 21.9344 5.68535 21.999 5.436 22C5.20625 21.9988 4.98014 21.943 4.77653 21.8375C4.57292 21.7319 4.39772 21.5795 4.26556 21.3931C4.1334 21.2067 4.04811 20.9916 4.01682 20.7658C3.98553 20.54 4.00914 20.3101 4.08567 20.0952L6.51626 12.9553C6.54001 12.8855 6.58494 12.8247 6.6449 12.7812C6.70485 12.7378 6.77688 12.7137 6.85114 12.7124H13.3579C13.4566 12.7127 13.5544 12.6927 13.645 12.6539C13.7356 12.6151 13.8173 12.5582 13.8848 12.4867C13.9523 12.4153 14.0043 12.3309 14.0376 12.2386C14.0708 12.1464 14.0846 12.0484 14.0781 11.9507C14.0618 11.767 13.9761 11.5962 13.8382 11.4725C13.7003 11.3488 13.5204 11.2813 13.3345 11.2836H6.85294C6.7776 11.2836 6.70416 11.2602 6.64296 11.2166C6.58175 11.173 6.53587 11.1115 6.51176 11.0407L4.08117 3.90175C3.98443 3.62812 3.9739 3.33177 4.05098 3.05206C4.12807 2.77235 4.28912 2.52252 4.51273 2.33577C4.73635 2.14902 5.01195 2.03419 5.30292 2.00652C5.59389 1.97885 5.88647 2.03966 6.14177 2.18088L21.2654 10.7442C21.488 10.8683 21.6734 11.0489 21.8025 11.2675C21.9315 11.4861 21.9997 11.7348 22 11.9882Z" fill="#FFFFFD"/>
</svg>
