<svg width="101" height="100" viewBox="0 0 101 100" fill="none" xmlns="http://www.w3.org/2000/svg">
<path d="M60.1845 66.2043C56.8663 72.5898 63.3799 59.7565 60.1845 66.2043C59.9837 63.9131 59.788 61.6575 59.4117 59.386C58.5725 54.3195 57.6496 49.5273 54.2693 45.4851C53.7939 44.9167 53.2719 44.3584 52.6011 44.0434C49.1818 42.4376 45.0094 42.9163 41.6177 44.4565C39.1552 45.5747 38.8068 48.8826 39.5378 51.2026C40.21 53.3361 41.5485 55.2047 42.2878 57.3159C43.8595 61.804 42.6626 67.0943 42.6264 71.7464C42.5862 76.9342 42.9482 82.147 44.0846 87.2187C44.5852 89.4531 44.9992 91.1912 46.7105 92.8614C48.2969 94.4099 50.3861 95.4419 52.566 95.8208C60.2278 97.1521 66.5954 91.5592 70.8023 85.851C75.8856 78.9536 79.4434 71.8351 82.154 63.6997C82.6503 62.2102 63.4858 53.662 60.1845 77.4704" fill="#332E36"/>
<path d="M69.5768 46.7335C66.9938 51.7049 64.4473 56.6953 61.9383 61.7044C61.2245 63.1294 60.5139 64.556 59.8061 65.984L60.6163 66.2035C60.3774 63.4767 60.0918 60.7671 59.6255 58.0687C59.2284 55.7714 58.7665 53.4724 57.9843 51.2709C57.1978 49.0576 56.084 46.9822 54.5738 45.1769C54.1983 44.728 53.7977 44.3018 53.3182 43.9621C52.8336 43.6189 52.2491 43.401 51.6901 43.211C50.5529 42.8242 49.3448 42.6383 48.1455 42.614C46.9311 42.5894 45.7098 42.7344 44.5272 43.008C43.3923 43.2706 42.2161 43.6363 41.1837 44.1847C39.525 45.0658 38.8171 46.959 38.7647 48.7474C38.6992 50.984 39.7245 52.9502 40.7157 54.8892C41.2927 56.0179 41.8345 57.1558 42.1569 58.3869C42.473 59.5939 42.608 60.8363 42.6464 62.0813C42.7248 64.6239 42.4182 67.1559 42.2655 69.6899C42.1039 72.3725 42.175 75.0796 42.3437 77.7604C42.518 80.5298 42.8477 83.2933 43.3851 86.0164C43.8138 88.1887 44.2344 90.5041 45.6236 92.2959C48.5063 96.0142 53.736 97.1227 58.1424 96.0523C62.4118 95.0152 66.0212 92.1245 68.8895 88.9011C70.4364 87.1627 71.8013 85.2674 73.1 83.3393C74.4798 81.2909 75.7601 79.1757 76.9318 77.0015C79.2936 72.6192 81.2056 68.0027 82.7493 63.2724C83.1774 61.9605 83.5733 60.6384 83.9251 59.3039C84.0679 58.7622 83.2293 58.5312 83.0865 59.0727C81.8214 63.8719 80.0759 68.5799 77.9506 73.0641C75.9013 77.3877 73.4387 81.5067 70.6158 85.3694C68.141 88.7557 65.1302 91.9411 61.3715 93.8987C57.5454 95.8914 52.8154 96.2972 48.9935 94.0561C48.0102 93.4795 47.0959 92.7464 46.3774 91.857C45.7455 91.075 45.3231 90.1598 45.0292 89.2039C44.3059 86.8508 43.9064 84.3556 43.6007 81.9181C43.2659 79.2484 43.1047 76.5586 43.0653 73.8689C43.0287 71.3708 43.1937 68.9053 43.3745 66.416C43.549 64.0128 43.6578 61.5777 43.2244 59.1943C43.0087 58.0079 42.6269 56.8774 42.1227 55.7835C41.6089 54.6686 40.9984 53.601 40.4932 52.482C39.7297 50.791 39.3271 48.9144 39.9066 47.0999C40.1556 46.3204 40.6173 45.5858 41.3062 45.1248C42.2027 44.5249 43.3618 44.2002 44.3966 43.9348C46.6634 43.3534 49.1012 43.2783 51.343 44.0108C51.8738 44.1843 52.4228 44.3844 52.8793 44.713C53.3253 45.034 53.6916 45.4667 54.0389 45.8882C54.7718 46.7774 55.4062 47.7475 55.9473 48.7643C56.9984 50.739 57.6635 52.8874 58.1554 55.0625C58.6883 57.4187 59.0905 59.8202 59.3637 62.22C59.5146 63.5455 59.6303 64.8746 59.7467 66.2034C59.781 66.594 60.3482 66.8443 60.557 66.4229C63.045 61.4033 65.5698 56.4019 68.132 51.4198C68.8609 50.0024 69.5929 48.5867 70.3277 47.1724C70.5854 46.6764 69.8352 46.2362 69.5768 46.7335Z" fill="#F3F2F3"/>
<path d="M69.8078 8.9657C70.6899 7.13184 72.8323 6.21352 74.7026 5.62076C76.8143 4.9515 79.1858 4.83552 81.0506 6.1801C81.6532 6.61458 82.2341 5.63032 81.6379 5.20041C79.5431 3.6899 76.7695 3.77356 74.3932 4.5267C72.2498 5.20602 69.8133 6.29279 68.803 8.39306C68.4869 9.05027 69.4898 9.62699 69.8078 8.9657Z" fill="#F3F2F3"/>
<path d="M74.3956 15.82C76.1232 14.1979 78.71 13.7744 80.8794 14.669C81.1627 14.7859 81.5019 14.5422 81.5761 14.2692C81.6652 13.9413 81.4649 13.6823 81.1805 13.565C78.6395 12.5171 75.5943 13.1329 73.5946 15.0104C73.0593 15.513 73.8618 16.3213 74.3956 15.82Z" fill="#F3F2F3"/>
<path d="M51.4776 20.7634C53.2052 19.1413 55.792 18.7177 57.9614 19.6124C58.2448 19.7292 58.584 19.4855 58.6582 19.2126C58.7473 18.8847 58.547 18.6256 58.2626 18.5084C55.7215 17.4605 52.6763 18.0762 50.6766 19.9538C50.1413 20.4564 50.9438 21.2646 51.4776 20.7634Z" fill="#F3F2F3"/>
<path d="M38.2999 42.3594C31.4484 40.8111 25.8523 34.0166 26.1989 26.899C26.4202 22.3534 28.6651 18.1604 33.1139 16.5121C36.1697 15.38 39.7528 15.7855 42.4783 17.5719C45.7421 19.7111 47.5597 23.5157 48.416 27.323C49.0183 30.0007 49.2188 32.8182 48.5519 35.4806C47.7793 38.5654 45.6649 42.0735 42.2517 42.6373C41.6362 42.7389 41.0073 42.7012 40.3849 42.6613C39.6805 42.6162 38.9839 42.5139 38.2999 42.3594Z" fill="#F3F2F3"/>
<path d="M41.7148 40.7108C43.8877 43.9322 45.7711 47.3488 47.3349 50.9058C47.7904 51.9417 48.5624 53.6367 50.0281 52.8746C51.538 52.0896 50.1041 49.833 49.6624 48.8049C48.1089 45.1893 46.4481 41.6193 44.6297 38.1289" fill="#F3F2F3"/>
<path d="M43.1211 46.6602C44.2679 47.034 45.4732 47.2256 46.6792 47.2306C47.6502 47.2347 48.8806 46.7888 49.8112 46.9306C50.0246 46.9631 50.2095 47.1005 50.3514 47.2633C50.9473 47.9471 50.7777 49.1476 50.0156 49.6395C51.8386 48.8546 52.5266 51.2574 51.6716 52.4744C52.2895 52.4844 52.8841 52.8843 53.1265 53.4529C53.3689 54.0214 53.2457 54.7273 52.825 55.1801C53.5042 55.4477 53.9261 56.2065 53.8819 56.9353C53.7402 59.2727 49.9899 60.1977 48.1716 59.6664" fill="#332E36"/>
<path d="M43.0055 47.0801C43.8837 47.3604 44.7879 47.5411 45.7064 47.6215C46.5589 47.6961 47.3544 47.6264 48.1941 47.4804C48.7901 47.3769 49.8071 47.0631 50.1529 47.7422C50.4073 48.2418 50.2637 48.9402 49.7962 49.2647C49.4228 49.5238 49.6432 50.2579 50.1313 50.0594C50.7103 49.8239 51.2283 49.9208 51.4768 50.5392C51.7004 51.0959 51.6286 51.7607 51.2961 52.2555C51.1017 52.545 51.3638 52.8941 51.6716 52.9098C52.6559 52.9601 53.1682 54.1192 52.5176 54.8733C52.3554 55.0613 52.3295 55.4359 52.6056 55.5562C53.3541 55.8824 53.6295 56.7348 53.3201 57.4723C53.0813 58.0417 52.5658 58.4433 52.0365 58.7274C50.953 59.3088 49.4886 59.5843 48.2872 59.2478C47.7474 59.0966 47.517 59.9354 48.056 60.0864C49.5861 60.5149 51.5055 60.139 52.821 59.2731C53.4837 58.8369 54.0573 58.2138 54.2461 57.424C54.4908 56.4004 54.042 55.24 53.0445 54.8053L53.1325 55.4882C53.6705 54.8645 53.8486 53.9987 53.5019 53.234C53.1755 52.5138 52.4464 52.0797 51.6715 52.0402L52.047 52.6944C52.5595 51.9316 52.6016 50.8783 52.2086 50.0561C51.7768 49.153 50.8051 48.8528 49.9 49.2209L50.235 50.0156C51.6006 49.068 51.402 46.5174 49.4906 46.4695C48.5414 46.4457 47.6258 46.7887 46.6792 46.7965C45.5111 46.8061 44.3468 46.5959 43.2367 46.2415C42.7023 46.0709 42.4735 46.9102 43.0055 47.0801Z" fill="#F3F2F3"/>
<path d="M59.4986 63.3418C59.9763 68.195 60.0472 73.0819 59.7106 77.9469C59.6719 78.5055 60.5417 78.5031 60.5802 77.9469C60.9169 73.0819 60.8459 68.195 60.3682 63.3418C60.3139 62.7899 59.4437 62.7843 59.4986 63.3418Z" fill="#F3F2F3"/>
<path d="M49.9295 46.2846C49.8179 46.2187 49.7398 46.14 49.6677 46.0212C49.6443 45.9827 49.6227 45.9432 49.6027 45.9029C49.5943 45.8859 49.5612 45.8096 49.5824 45.8619C49.5486 45.7785 49.5226 45.6912 49.5008 45.6038C49.4538 45.4149 49.4394 45.2677 49.4503 45.0621C49.4544 44.9841 49.4609 44.9307 49.4833 44.8386C49.4958 44.7872 49.5113 44.7372 49.5276 44.6868C49.5727 44.5469 49.4963 44.7324 49.5534 44.621C49.5901 44.5494 49.629 44.4803 49.6746 44.414C49.692 44.3898 49.6912 44.3901 49.672 44.4147C49.6856 44.3977 49.6997 44.3812 49.7143 44.365C49.7384 44.3379 49.7633 44.3116 49.7894 44.2864C49.8202 44.2565 49.8523 44.2262 49.8869 44.2005C49.8289 44.2436 49.9404 44.1698 49.9407 44.1697C49.9775 44.1475 50.0159 44.1267 50.0551 44.1089C49.9855 44.1405 50.1189 44.0896 50.1224 44.0886C50.288 44.0406 50.4412 44.0402 50.633 44.0636C50.7862 44.0823 51.0208 44.1425 51.201 44.1893C51.4282 44.2483 51.6731 44.1143 51.7359 43.8856C51.7976 43.661 51.6604 43.41 51.4322 43.3508C50.9062 43.2142 50.329 43.087 49.7998 43.2805C49.3531 43.4438 48.9831 43.7894 48.7841 44.2216C48.3657 45.1307 48.5767 46.4955 49.4906 47.0356C49.9735 47.3209 50.4115 46.5694 49.9295 46.2846Z" fill="#F3F2F3"/>
<path d="M42.4047 22.0514C40.5803 19.1702 36.8516 17.5453 33.5609 18.7692C31.0256 19.7121 29.522 22.1227 29.0292 24.6949C28.7734 26.0303 28.7569 27.3939 28.9557 28.7376C29.1632 30.1395 29.6747 31.4475 30.3275 32.6997C31.8707 35.6602 34.2839 38.4659 37.3954 39.8232C39.1433 40.5856 41.1119 40.8558 42.9813 40.4036C45.043 39.9048 46.0444 38.0007 46.3626 36.043C46.4516 35.4955 45.6137 35.2599 45.524 35.8118C45.2754 37.3415 44.6133 39.0194 42.9917 39.5008C41.4844 39.9482 39.8132 39.7912 38.3472 39.2715C35.4291 38.2371 33.1337 35.7702 31.5833 33.1659C30.8959 32.011 30.2956 30.7771 29.9798 29.4652C29.6983 28.2958 29.6242 27.0799 29.733 25.8828C29.9388 23.6186 30.9149 21.223 32.945 20.0179C35.9512 18.2334 39.8633 19.6626 41.6538 22.4903C41.9524 22.9619 42.7053 22.5261 42.4047 22.0514Z" fill="#332E36"/>
<path d="M43.4245 25.4624C44.2693 27.005 44.8746 28.6588 45.2354 30.38C45.3502 30.9274 46.1887 30.6958 46.074 30.1488C45.6984 28.3573 45.0545 26.6288 44.1754 25.0234C43.9066 24.5324 43.1553 24.9708 43.4245 25.4624Z" fill="#332E36"/>
<path d="M31.7576 28.0598C31.3728 27.7444 31.3334 26.4899 31.3232 26.152C31.2992 25.3552 31.4248 24.5588 31.645 23.7945C31.7977 23.2646 32.3575 22.6859 32.7575 22.3219C33.1034 22.0072 33.6108 21.6612 34.0916 21.891C34.1826 21.9345 34.2541 22.0119 34.3063 22.0982C34.4995 22.4175 34.4339 22.8384 34.2551 23.1659C34.0763 23.4935 33.8005 23.7551 33.5555 24.0366C33.3533 24.2688 33.1704 24.5178 33.0088 24.7799C32.6195 25.4106 32.362 26.11 32.2343 26.8393C32.1814 27.1416 32.2227 27.4019 32.2397 27.7026C32.2514 27.9104 32.2279 28.1115 31.9743 28.1313C31.892 28.1377 31.8202 28.1112 31.7576 28.0598Z" fill="#332E36"/>
<path d="M32.0627 27.7536C31.9048 27.6084 31.8577 27.2653 31.8227 27.037C31.7818 26.7695 31.767 26.4971 31.758 26.2269C31.742 25.7429 31.7712 25.2599 31.8572 24.7831C31.9413 24.3168 32.0299 23.8469 32.3037 23.4522C32.5314 23.1239 32.8296 22.8251 33.1339 22.5674C33.3419 22.3914 33.9323 21.9991 33.9848 22.5039C34.029 22.9289 33.6382 23.2941 33.3816 23.5782C33.0425 23.9536 32.7357 24.3576 32.4914 24.8014C32.2252 25.2848 32.0213 25.8087 31.8918 26.3451C31.827 26.6137 31.7716 26.8899 31.771 27.1672C31.7707 27.3094 31.786 27.4511 31.7952 27.5928C31.7979 27.6343 31.7893 27.7036 31.8037 27.7425C31.8041 27.7602 31.8047 27.7778 31.8055 27.7955C31.8049 27.8778 31.8613 27.8412 31.9747 27.6856C31.5042 27.3795 31.0678 28.1321 31.5357 28.4365C32.075 28.7874 32.6661 28.3813 32.6745 27.7811C32.679 27.4641 32.6168 27.1635 32.6713 26.847C32.7273 26.5215 32.8244 26.1983 32.9404 25.8894C33.177 25.2589 33.5469 24.6915 33.9965 24.1931C34.4055 23.7399 34.8116 23.2685 34.8527 22.6302C34.8918 22.0214 34.5207 21.4659 33.896 21.3947C33.2925 21.326 32.7717 21.7104 32.3551 22.1015C31.9399 22.4911 31.5271 22.9379 31.3027 23.468C31.0398 24.0893 30.9447 24.828 30.8993 25.4966C30.8652 25.9974 30.8853 26.5064 30.9474 27.0046C31.0054 27.4689 31.0838 28.0336 31.4477 28.3686C31.859 28.747 32.4756 28.1336 32.0627 27.7536Z" fill="#332E36"/>
<path d="M16.9585 39.5051C19.1441 38.8656 21.3297 38.2262 23.5153 37.5867C24.0513 37.4299 23.8232 36.5904 23.2841 36.7482C21.0985 37.3876 18.9129 38.027 16.7273 38.6665C16.1913 38.8233 16.4194 39.6628 16.9585 39.5051Z" fill="#F3F2F3"/>
<path d="M38.2018 34.3605C38.6678 32.1315 39.1338 29.9025 39.5998 27.6735C39.7141 27.1268 38.8661 26.9324 38.7512 27.4822C38.2852 29.7112 37.8192 31.9402 37.3532 34.1693C37.2389 34.7159 38.0869 34.9104 38.2018 34.3605Z" fill="#332E36"/>
<path d="M41.6231 32.7157C39.8767 31.2542 38.1304 29.7928 36.384 28.3313C35.9557 27.9729 35.3846 28.6292 35.8154 28.9896C37.5617 30.4511 39.3081 31.9125 41.0545 33.374C41.4828 33.7324 42.0539 33.0762 41.6231 32.7157Z" fill="#332E36"/>
<path d="M22.6988 12.5044C23.6259 12.9951 24.5529 13.4857 25.48 13.9764C25.6809 14.0827 25.9621 14.034 26.0749 13.8204C26.1812 13.6193 26.1336 13.3391 25.9189 13.2255C24.9919 12.7348 24.0648 12.2442 23.1377 11.7535C22.9368 11.6472 22.6556 11.6959 22.5428 11.9095C22.4365 12.1106 22.4841 12.3908 22.6988 12.5044Z" fill="#F3F2F3"/>
<path d="M37.2238 53.093L36.5762 55.5486C36.5182 55.7683 36.6492 56.031 36.8799 56.0835C37.1076 56.1354 37.3527 56.0151 37.4147 55.7798L38.0624 53.3242C38.1203 53.1045 37.9893 52.8418 37.7587 52.7893C37.5309 52.7374 37.2858 52.8576 37.2238 53.093Z" fill="#F3F2F3"/>
<path d="M51.7316 13.3935C52.4091 12.3823 53.2959 11.522 54.3349 10.8835C55.3347 10.269 56.6362 9.6581 57.8381 9.86294C60.2439 10.273 61.3679 13.2867 61.8298 15.3397C62.3979 17.8639 62.3164 20.4787 62.455 23.0472C62.5251 24.3451 62.6076 25.688 62.9256 26.9527C63.2101 28.084 63.8172 29.1904 64.9046 29.724C66.0651 30.2934 67.3591 29.9497 68.1638 28.9621C69.1314 27.7744 69.0923 26.229 68.9805 24.7837C68.9236 24.0477 67.7648 24.0416 67.8222 24.7837C67.9156 25.9912 68.0643 27.4626 67.1188 28.3984C66.2347 29.2735 65.0421 28.7349 64.483 27.7842C63.8439 26.6973 63.7742 25.2669 63.678 24.0398C63.5783 22.7691 63.5509 21.4943 63.5015 20.2211C63.4054 17.7461 63.2338 15.2072 62.2735 12.8929C61.4297 10.8593 59.8048 8.6594 57.3625 8.6739C56.0037 8.68197 54.6086 9.31146 53.4946 10.0498C52.3925 10.7803 51.4659 11.7148 50.7315 12.8109C50.3164 13.4305 51.3192 14.0091 51.7316 13.3935Z" fill="#F3F2F3"/>
<path d="M67.4282 37.8868C66.5027 36.6871 66.6959 35.0097 67.3961 33.7508C68.0734 32.5333 69.2599 31.6133 70.5608 31.1413C73.6091 30.0356 76.8274 31.437 79.2376 33.3188C79.8162 33.7706 79.147 34.6977 78.5657 34.2438C76.5918 32.7026 73.965 31.3736 71.3995 32.0675C70.2945 32.3664 69.258 33.0356 68.5971 33.9772C67.9796 34.8569 67.6046 36.2437 68.3219 37.1735C68.7703 37.7547 67.8793 38.4715 67.4282 37.8868Z" fill="#F3F2F3"/>
<path d="M78.1139 34.0524C78.3023 33.995 78.4867 33.9259 78.6656 33.8432C78.7437 33.8071 78.8209 33.7686 78.8967 33.7278C78.94 33.7044 78.9826 33.6798 79.0254 33.6556C79.0786 33.6241 79.0679 33.6307 78.9935 33.6751C79.0144 33.6622 79.0352 33.649 79.0559 33.6357C79.2111 33.5358 79.3598 33.4259 79.5007 33.3067C79.5759 33.2431 79.6488 33.177 79.7194 33.1083C79.737 33.0912 79.7545 33.0738 79.7718 33.0563C79.8161 33.011 79.8064 33.0214 79.7428 33.0876C79.7637 33.0491 79.8127 33.0114 79.842 32.9782C79.9449 32.8616 80.0564 32.7747 80.215 32.7496C80.3535 32.7277 80.5289 32.7628 80.6404 32.8517C80.8638 33.0298 80.9788 33.41 80.767 33.6501C80.1776 34.318 79.43 34.8384 78.5734 35.0994C78.4252 35.1446 78.2937 35.1679 78.1427 35.1112C78.0098 35.0612 77.8724 34.9404 77.8202 34.8057C77.719 34.5448 77.808 34.1456 78.1139 34.0524Z" fill="#F3F2F3"/>
</svg>
