<svg width="24" height="24" viewBox="0 0 24 24" fill="none" xmlns="http://www.w3.org/2000/svg">
<path fill-rule="evenodd" clip-rule="evenodd" d="M6.58319 3.89317C8.18657 2.82183 10.0716 2.25 12 2.25C14.585 2.25273 17.0634 3.28084 18.8913 5.10872C20.7192 6.93661 21.7473 9.41498 21.75 12C21.75 13.9284 21.1782 15.8134 20.1068 17.4168C19.0355 19.0202 17.5127 20.2699 15.7312 21.0078C13.9496 21.7458 11.9892 21.9389 10.0979 21.5627C8.20656 21.1865 6.46927 20.2579 5.10571 18.8943C3.74215 17.5307 2.81355 15.7934 2.43735 13.9021C2.06114 12.0108 2.25422 10.0504 2.99218 8.26884C3.73013 6.48726 4.97982 4.96452 6.58319 3.89317ZM14.8356 14.6678L16.8356 7.66781C16.871 7.59737 16.8833 7.51757 16.8708 7.43975C16.8582 7.36193 16.8214 7.29004 16.7657 7.2343C16.71 7.17856 16.6381 7.1418 16.5603 7.12925C16.4824 7.11669 16.4026 7.12899 16.3322 7.16437L9.33219 9.16438C9.25988 9.20111 9.20111 9.25987 9.16438 9.33219L7.16438 16.3322C7.12899 16.4026 7.1167 16.4824 7.12925 16.5602C7.1418 16.6381 7.17856 16.71 7.2343 16.7657C7.29004 16.8214 7.36193 16.8582 7.43975 16.8708C7.51758 16.8833 7.59738 16.871 7.66782 16.8356L14.6678 14.8356C14.7401 14.7989 14.7989 14.7401 14.8356 14.6678ZM12 13.5C12.8284 13.5 13.5 12.8284 13.5 12C13.5 11.1716 12.8284 10.5 12 10.5C11.1716 10.5 10.5 11.1716 10.5 12C10.5 12.8284 11.1716 13.5 12 13.5Z" fill="#FFFFFD"/>
</svg>
