<svg width="101" height="100" viewBox="0 0 101 100" fill="none" xmlns="http://www.w3.org/2000/svg">
<path d="M57.6601 24.917C58.1679 25.549 58.8523 25.9668 59.6679 26.0273L59.2191 25.2452C58.9032 25.8771 58.7107 26.5467 58.6782 27.2543C58.6453 27.9697 58.812 28.6761 58.9347 29.376C59.2008 30.8932 59.2727 32.4379 59.1864 33.9749C59.1488 34.6432 60.1884 34.6411 60.2258 33.9749C60.3059 32.5497 60.239 31.1281 60.0355 29.7155C59.8387 28.3495 59.4623 27.0788 60.1167 25.7698C60.3 25.4031 60.0723 25.0178 59.6679 24.9878C59.1301 24.9479 58.7184 24.5843 58.3951 24.182C57.9761 23.6605 57.2447 24.4001 57.6601 24.917Z" fill="#F3F2F3"/>
<path d="M44.3727 35.03C45.3894 34.8522 45.7018 33.6003 45.7975 32.7352C45.921 31.6181 45.6769 30.4934 45.3118 29.442C44.5606 27.2783 43.5181 25.2285 43.2122 22.9301C43.0729 21.8836 43.0031 20.671 43.4753 19.6951C43.904 18.8094 44.6803 18.0345 45.4563 17.4444C47.0472 16.2347 48.9613 15.9213 50.8508 16.5742C53.0882 17.3472 54.6606 19.2201 55.7777 21.2297C56.1027 21.8145 57.0008 21.2909 56.6752 20.7051C55.6369 18.8371 54.2355 17.0992 52.3158 16.0875C50.4693 15.1143 48.3079 14.8622 46.3664 15.708C45.4227 16.1191 44.5793 16.7471 43.8581 17.4776C43.1389 18.2061 42.4915 19.055 42.2459 20.0662C41.6993 22.3165 42.4367 24.8226 43.2204 26.9252C43.6905 28.1865 44.2939 29.4141 44.6112 30.7271C44.7584 31.3364 44.8322 31.9664 44.7726 32.5929C44.7318 33.0212 44.6275 33.9348 44.0964 34.0277C43.4387 34.1427 43.7175 35.1447 44.3727 35.03Z" fill="#F3F2F3"/>
<path d="M94.2624 44.4518C95.2214 46.6565 95.5196 49.0832 95.4526 51.4702C95.3985 53.3986 95.2101 55.4038 94.6343 57.2544C94.1999 58.6504 93.5711 59.9985 92.7513 61.2104C92.0922 62.1848 91.1952 63.2678 90.0247 63.623C88.7853 63.999 87.732 63.191 86.9987 62.2462C85.8409 60.7545 85.1951 58.8925 84.8454 57.0562C84.1277 53.2872 84.5856 49.2796 85.5438 45.5945C85.8416 44.449 86.2111 43.3035 86.882 42.3164C87.4912 41.4202 88.4327 40.5317 89.5102 40.2655C90.5705 40.0036 91.5629 40.699 92.2723 41.4179C93.1286 42.2857 93.766 43.3444 94.2624 44.4518C94.5355 45.0611 95.4315 44.5331 95.1599 43.9271C94.3098 42.0304 92.7744 39.6561 90.5661 39.2254C88.338 38.7908 86.3265 40.9089 85.4497 42.7276C84.5181 44.66 84.1041 46.8934 83.8017 49.0043C83.4946 51.1483 83.3707 53.3269 83.5814 55.4865C83.7853 57.5747 84.2837 59.6537 85.2925 61.5069C86.0771 62.9484 87.2815 64.5381 89.0348 64.7433C90.4276 64.9063 91.6845 64.0497 92.5926 63.0774C93.7078 61.8834 94.5107 60.419 95.1326 58.9184C95.8574 57.1694 96.1677 55.3576 96.3588 53.4797C96.6237 50.8775 96.5574 48.1977 95.8071 45.6755C95.6295 45.0785 95.4083 44.4981 95.1599 43.9271C94.8938 43.3152 93.9979 43.8439 94.2624 44.4518Z" fill="#F3F2F3"/>
<path d="M60.166 40.1613C61.1844 39.7289 62.1731 39.2187 63.0805 38.5857C63.5214 38.2782 63.9496 37.9345 64.2493 37.4883C64.8299 36.6236 64.8484 35.5161 65.0721 34.4989C65.3899 33.0539 66.7057 31.3848 68.1235 32.7475C69.7689 34.3291 71.2143 36.1186 72.4143 38.0599C72.5977 38.3565 72.7789 38.6664 72.8317 39.0111C72.8893 39.3874 72.7882 39.7691 72.6671 40.1301C71.8615 42.5311 70.1281 44.5618 68.0233 45.9703C65.9185 47.3787 63.4581 48.195 60.9591 48.6065C56.0471 49.4155 50.8568 48.6633 46.4746 46.3015C45.6076 45.8342 44.7652 45.3002 44.0718 44.6007C42.7679 43.2853 42.0868 41.4929 41.4409 39.7569C41.3646 39.5518 43.1332 40.2956 43.2474 40.3418C44.0286 40.6581 44.8359 40.9175 45.6498 41.1351C47.2401 41.5603 48.8774 41.8081 50.522 41.8783C53.8101 42.0188 57.1337 41.4486 60.166 40.1613Z" fill="#332E36"/>
<path d="M60.4283 40.6083C61.3792 40.2009 62.3046 39.733 63.1642 39.1549C63.9772 38.6081 64.6831 37.9883 65.0471 37.0557C65.3772 36.2099 65.3806 35.294 65.6254 34.4277C65.7938 33.8316 66.179 33.0062 66.8224 32.7987C67.1311 32.6991 67.4129 32.8268 67.6549 33.021C68.0553 33.3425 68.4076 33.7542 68.7579 34.1283C69.4425 34.8592 70.089 35.6271 70.6854 36.4318C70.9685 36.8138 71.2415 37.2033 71.5041 37.5997C71.7684 37.9985 72.116 38.4368 72.2689 38.8951C72.4234 39.3587 72.2237 39.8485 72.0621 40.2834C71.9047 40.7071 71.7116 41.1159 71.4939 41.5119C69.6796 44.8128 66.2771 46.7943 62.7166 47.7076C58.9279 48.6793 54.8591 48.6313 51.0909 47.5892C49.032 47.0198 46.9036 46.1756 45.1846 44.883C44.3143 44.2286 43.6554 43.3777 43.1411 42.4245C42.8892 41.9575 42.668 41.474 42.4674 40.983C42.3666 40.7362 42.2701 40.4876 42.1753 40.2384C42.0991 40.0383 41.9719 39.8129 41.9399 39.6024L41.8875 40.0029C41.8706 40.0357 41.4818 40.2964 41.4338 40.2306C41.4411 40.2405 41.4889 40.2394 41.5004 40.2455C41.5529 40.2735 41.6331 40.2819 41.6913 40.3C41.8777 40.358 42.061 40.4263 42.2435 40.4954C42.5189 40.5996 42.7911 40.7113 43.0637 40.8225C44.3353 41.3408 45.668 41.7191 47.0152 41.9811C49.8629 42.5351 52.7946 42.5549 55.6496 42.0417C57.2476 41.7545 58.8077 41.2899 60.3042 40.6606C60.5648 40.551 60.7454 40.318 60.6671 40.0213C60.6026 39.7766 60.2863 39.5496 60.0278 39.6583C54.6473 41.9206 48.5159 41.9239 43.1148 39.7277C42.7676 39.5865 42.4186 39.4466 42.0627 39.3287C41.7506 39.2253 41.3458 39.0926 41.0767 39.3625C40.8684 39.5713 40.9171 39.833 41.0091 40.0796C41.1333 40.4121 41.2587 40.7441 41.3903 41.0738C41.6449 41.7116 41.9169 42.3446 42.2435 42.9492C42.9052 44.1741 43.7984 45.1943 44.946 45.9851C46.1234 46.7964 47.4514 47.4115 48.7828 47.923C53.9949 49.9255 60.2236 50.0334 65.4214 47.9137C67.9025 46.9019 70.1254 45.3313 71.6962 43.1388C72.4267 42.1192 73.1628 40.8318 73.3381 39.5718C73.4382 38.8521 73.1599 38.2702 72.7878 37.6747C72.3973 37.0498 71.9806 36.441 71.5404 35.85C70.6614 34.67 69.6975 33.5554 68.6446 32.5272C68.2033 32.0963 67.6918 31.7197 67.0466 31.7207C66.521 31.7215 66.0406 31.9792 65.6657 32.3324C64.7264 33.2173 64.5607 34.4526 64.3427 35.6535C64.2227 36.3143 64.0582 36.979 63.5892 37.4846C63.1016 38.01 62.4602 38.3972 61.844 38.7531C61.2185 39.1143 60.5672 39.4265 59.9037 39.7107C59.2906 39.9734 59.8195 40.8691 60.4283 40.6083Z" fill="#F3F2F3"/>
<path d="M62.0515 63.4957C55.1145 64.0377 48.0547 63.7305 41.399 63.222C36.2726 62.8302 31.1638 62.2095 26.0927 61.3624C23.2014 60.8794 20.262 60.8523 17.3521 60.5398C15.3405 60.3237 11.4524 60.1136 10.123 58.3154C9.95508 58.0882 9.81914 57.8182 9.83669 57.5361C9.88906 56.6941 10.629 56.08 10.6787 55.1359C10.7102 54.5384 10.5844 53.9571 10.4613 53.3793C10.0598 51.4942 9.39659 49.6284 8.86968 47.774C7.72662 43.751 6.58352 39.728 5.44046 35.705C5.08648 34.4591 4.73161 33.2093 4.53562 31.9291C4.48071 31.5704 4.4394 31.1967 4.54773 30.8503C5.28996 28.4774 11.61 29.9444 13.0953 30.5629C16.9677 32.1755 18.7697 36.5058 21.2649 39.8777C21.7471 40.5293 22.2954 41.1772 23.0411 41.4949C23.7603 41.8013 24.5737 41.763 25.3537 41.7083C28.4028 41.4943 31.44 41.1099 34.4465 40.5581C36.5237 40.1768 38.732 40.0052 40.8492 39.8675C41.1275 39.8494 41.4161 39.8347 41.6761 39.9355C41.9506 40.0419 42.1606 40.2638 42.3759 40.4646C43.2228 41.2548 44.2709 41.795 45.3344 42.2542C52.1987 45.2176 60.3449 45.0486 67.0804 41.8031C68.4058 41.1644 69.7058 40.3898 70.6381 39.2517C70.9808 38.8332 71.2871 38.3551 71.765 38.1016C72.5722 37.6735 73.9857 38.6676 74.7544 38.9821C76.0035 39.4932 77.2482 40.0168 78.4679 40.5952C80.8682 41.7334 83.2091 43.0912 85.1246 44.9539C86.658 46.445 88.048 48.2762 88.2386 50.4065C88.4206 52.4401 87.4498 54.4531 86.0227 55.9133C84.5957 57.3734 82.7508 58.3512 80.8787 59.166C75.005 61.7223 68.5826 62.9854 62.0515 63.4957Z" fill="#332E36"/>
<path d="M62.0514 62.9762C54.2312 63.5796 46.3365 63.1863 38.5377 62.4598C34.581 62.0912 30.6377 61.5854 26.7164 60.9418C23.2008 60.3648 19.635 60.2643 16.0953 59.8934C14.82 59.7598 13.5256 59.5863 12.3121 59.1542C11.7903 58.9683 11.2572 58.7184 10.8457 58.3403C10.6238 58.1364 10.3494 57.8581 10.3563 57.5363C10.363 57.2223 10.5677 56.9055 10.7074 56.6368C11.1012 55.8789 11.2662 55.1884 11.1588 54.3302C11.0398 53.38 10.7897 52.4392 10.5323 51.5185C10.0037 49.6272 9.4046 47.7554 8.86776 45.866C7.76728 41.9928 6.6111 38.1307 5.57223 34.2406C5.32951 33.3317 5.01095 32.3321 5.0013 31.3854C4.99677 30.9409 5.15525 30.6726 5.50451 30.4636C6.2806 29.9993 7.34998 30.0349 8.22137 30.0831C9.27872 30.1416 10.3284 30.3244 11.3562 30.5756C12.2503 30.7942 13.0902 31.0682 13.8853 31.5434C16.3627 33.0242 17.8591 35.6752 19.38 38.0315C20.1769 39.2663 20.9892 40.7356 22.2 41.6097C22.9076 42.1206 23.7578 42.2773 24.6164 42.2648C25.569 42.2508 26.5272 42.143 27.4749 42.0518C31.3554 41.6781 35.1656 40.8235 39.0509 40.5153C39.4947 40.4801 39.9388 40.4483 40.383 40.4183C40.8026 40.39 41.3204 40.267 41.6818 40.537C41.9876 40.7656 42.2486 41.0547 42.5528 41.2887C42.9163 41.5684 43.2996 41.8172 43.7006 42.0397C45.1875 42.8645 46.8367 43.4554 48.4718 43.9083C51.7721 44.8224 55.2591 45.096 58.6622 44.7192C62.0134 44.3481 65.3729 43.3938 68.3265 41.744C69.0459 41.3422 69.737 40.8753 70.3445 40.3165C70.6431 40.0418 70.9105 39.7412 71.1618 39.4231C71.3847 39.141 71.6078 38.8045 71.9198 38.613C72.41 38.3121 73.1458 38.7613 73.5888 38.9852C74.2696 39.3293 74.9599 39.6216 75.6639 39.9167C78.9518 41.2952 82.284 42.8835 84.8527 45.4153C86 46.5463 87.0761 47.8679 87.5288 49.4417C87.9877 51.0369 87.632 52.683 86.7876 54.0851C84.9766 57.0925 81.3371 58.5346 78.1908 59.683C74.7249 60.9481 71.1186 61.8023 67.4744 62.3604C65.6754 62.6359 63.8654 62.8327 62.0514 62.9762C61.3889 63.0285 61.3833 64.0685 62.0514 64.0157C65.904 63.711 69.7456 63.1578 73.4951 62.2096C75.3242 61.747 77.1302 61.1906 78.8963 60.5263C80.5809 59.8926 82.2718 59.1948 83.8187 58.2674C86.7259 56.5244 89.2776 53.4771 88.6901 49.8727C88.4235 48.2374 87.496 46.7895 86.4221 45.5625C85.267 44.2426 83.8928 43.1244 82.4237 42.172C80.8589 41.1577 79.1814 40.3276 77.4781 39.574C76.6118 39.1908 75.7217 38.857 74.86 38.4647C74.2186 38.1727 73.6177 37.7857 72.9354 37.5882C72.2245 37.3825 71.605 37.4914 71.0451 37.983C70.4378 38.5162 70.0257 39.232 69.4041 39.7635C68.0894 40.8877 66.3959 41.6206 64.7887 42.2181C61.4796 43.4482 57.9357 43.9808 54.411 43.8126C50.9451 43.6472 47.2799 42.8367 44.2252 41.1421C43.8451 40.9312 43.4728 40.6997 43.1308 40.4306C42.798 40.1686 42.5175 39.832 42.1593 39.6032C41.3973 39.1164 40.29 39.3818 39.4439 39.4454C37.5002 39.5913 35.5828 39.8363 33.6634 40.1728C31.666 40.523 29.656 40.798 27.6378 40.9964C26.6365 41.0948 25.6231 41.2116 24.6163 41.2252C23.677 41.2379 22.9319 40.9874 22.2791 40.299C21.221 39.1831 20.4417 37.7602 19.6136 36.473C18.8051 35.2164 17.9756 33.9623 16.9844 32.84C16.0313 31.7609 14.8962 30.8058 13.5764 30.2094C12.7644 29.8425 11.8942 29.6193 11.0249 29.4347C9.90022 29.1958 8.74207 29.0251 7.59025 29.0254C6.65474 29.0256 5.58019 29.1183 4.79856 29.6874C3.5127 30.6236 4.03884 32.3468 4.35042 33.6538C4.82904 35.6615 5.4496 37.6401 6.01358 39.625C7.1382 43.5831 8.30445 47.5287 9.44133 51.4827C9.72234 52.46 10.0277 53.4762 10.1384 54.4901C10.1837 54.9048 10.1762 55.3031 10.017 55.6927C9.88606 56.0133 9.69551 56.3076 9.556 56.6246C9.20285 57.4273 9.28851 58.146 9.86399 58.82C10.2566 59.28 10.791 59.6219 11.3365 59.8721C12.5745 60.4401 13.9298 60.6697 15.2715 60.8388C16.7687 61.0276 18.2773 61.161 19.7819 61.27C21.8161 61.4173 23.8586 61.5221 25.874 61.8506C27.8894 62.1792 29.9088 62.4883 31.9343 62.7559C39.9329 63.8125 48.0634 64.4173 56.1345 64.2867C58.109 64.2547 60.0824 64.1676 62.0514 64.0157C62.7141 63.9645 62.7196 62.9246 62.0514 62.9762Z" fill="#F3F2F3"/>
<path d="M57.7844 80.7401C54.6278 71.3785 52.5391 61.1509 50.4176 51.502C48.1591 51.8111 44.8737 52.8879 43.0839 53.1233C42.9223 54.8502 43.3936 56.4721 43.7818 58.1329C45.6394 66.0802 46.4812 74.237 48.316 82.1896C48.5319 83.1251 48.7726 84.0827 49.3285 84.8655C51.0012 87.2206 54.514 86.9602 57.3567 86.4473" fill="#332E36"/>
<path d="M58.2855 80.6008C55.779 73.1509 54.0128 65.4777 52.3278 57.8083C51.8559 55.6603 51.3909 53.5107 50.9188 51.3626C50.8531 51.0637 50.5452 50.9621 50.2794 50.9996C47.7955 51.3499 45.4282 52.2812 42.9457 52.621C42.7098 52.6533 42.5813 52.9153 42.5641 53.1222C42.4418 54.5952 42.7474 56.0417 43.0887 57.4664C43.4358 58.9146 43.7566 60.3682 44.0486 61.8286C44.6413 64.7922 45.1352 67.7743 45.6328 70.755C46.1304 73.7357 46.6317 76.7166 47.239 79.6772C47.5274 81.0831 47.7528 82.5689 48.2634 83.9152C48.6708 84.9896 49.3531 85.9031 50.3577 86.4828C52.4798 87.7075 55.1972 87.358 57.4949 86.9473C58.1523 86.8298 57.8737 85.8279 57.2185 85.945C55.3169 86.2849 53.0656 86.607 51.243 85.7723C50.2844 85.3332 49.605 84.5625 49.2422 83.5746C48.7703 82.2898 48.5485 80.8893 48.2726 79.5526C47.1079 73.9101 46.335 68.1966 45.2449 62.5403C44.9376 60.9454 44.6064 59.3544 44.2311 57.774C43.8665 56.2386 43.4713 54.7141 43.6036 53.1221L43.2221 53.6233C45.7045 53.2835 48.0719 52.3521 50.5558 52.0019L49.9164 51.6389C51.603 59.3128 53.1986 67.0156 55.3408 74.5794C55.9395 76.6933 56.5825 78.7946 57.2832 80.8771C57.4954 81.5078 58.4997 81.2373 58.2855 80.6008Z" fill="#F3F2F3"/>
<path d="M55.1685 50.6393C52.6866 50.8769 50.2326 51.4055 47.873 52.2109C47.6872 52.2744 47.4836 52.3553 47.3993 52.5326C47.3324 52.6733 47.3591 52.8386 47.3873 52.9918C49.0271 61.9085 49.9618 71.012 51.8288 79.9532C52.1437 81.4615 52.4836 83.0056 53.3214 84.2988C54.1591 85.5919 55.6128 86.6001 57.148 86.4687C59.0847 86.303 60.4177 84.5039 61.4165 82.8364C66.829 73.8006 70.2961 63.6059 71.5146 53.1437C71.5492 52.8467 71.5784 52.5286 71.4393 52.2638C71.2652 51.9325 70.8812 51.7797 70.5263 51.661C67.8806 50.7758 65.0918 50.3198 62.302 50.3164" fill="#332E36"/>
<path d="M55.1687 50.1197C53.5341 50.2801 51.9108 50.5499 50.317 50.9484C49.4949 51.1539 48.6795 51.3902 47.8767 51.662C47.2093 51.8879 46.7536 52.2427 46.8669 53.0135C47.1125 54.6834 47.4537 56.343 47.7207 58.0102C47.9906 59.6945 48.2457 61.3812 48.4972 63.0683C49.0011 66.4501 49.4901 69.8344 50.0513 73.2073C50.3364 74.921 50.64 76.6318 50.9734 78.3369C51.2732 79.8706 51.5277 81.4538 52.075 82.9232C52.573 84.2601 53.3469 85.474 54.5566 86.2692C55.6745 87.004 57.0736 87.2222 58.3266 86.7104C59.5466 86.2122 60.4486 85.2087 61.1894 84.1504C62.0377 82.9386 62.7474 81.6159 63.4509 80.3167C66.4308 74.8135 68.7233 68.9319 70.2547 62.8641C71.0208 59.8283 71.5919 56.7458 71.9752 53.6386C72.0618 52.9366 72.1879 52.1719 71.6001 51.6426C71.0777 51.1722 70.2505 51.016 69.5943 50.8276C68.0171 50.3748 66.3974 50.0749 64.7643 49.9173C63.9458 49.8383 63.1245 49.8003 62.3022 49.7969C61.6332 49.7941 61.6324 50.8336 62.3022 50.8364C63.8512 50.8428 65.396 50.9777 66.9191 51.2626C67.6536 51.4001 68.3823 51.5688 69.1023 51.7689C69.4623 51.869 69.8201 51.9768 70.1754 52.0923C70.4202 52.1718 70.8215 52.2511 70.9675 52.4897C71.1161 52.7325 70.9935 53.1614 70.9616 53.4267C70.9161 53.8045 70.8679 54.182 70.816 54.5589C70.7188 55.2639 70.6111 55.9674 70.4935 56.6693C70.2504 58.1197 69.9641 59.563 69.6355 60.9965C68.3363 66.6642 66.3783 72.1804 63.7974 77.3912C63.1551 78.6879 62.4751 79.9658 61.7581 81.2227C61.1122 82.355 60.4739 83.5373 59.5939 84.509C58.8228 85.3605 57.809 86.0633 56.6072 85.9488C55.3562 85.8297 54.2904 84.902 53.6627 83.8639C52.9431 82.6741 52.6408 81.294 52.3581 79.9485C52.034 78.4064 51.7386 76.8585 51.4623 75.3072C50.9033 72.1689 50.4245 69.0171 49.9556 65.8643C49.4879 62.7191 49.0302 59.5721 48.5118 56.4347C48.3814 55.6461 48.2473 54.858 48.1081 54.0709C48.0453 53.7157 47.9782 53.3613 47.9166 53.0059C47.9213 53.0329 47.8629 52.7841 47.8776 52.7577C47.8676 52.7756 47.8028 52.8355 47.9176 52.7459C48.0426 52.6483 48.2885 52.6187 48.4371 52.5704C49.9071 52.0919 51.4115 51.7196 52.935 51.4577C53.6759 51.3303 54.4206 51.2326 55.1688 51.1592C55.8284 51.0946 55.8351 50.0544 55.1687 50.1197Z" fill="#F3F2F3"/>
<path d="M44.9136 61.9333C46.0972 61.6795 47.2808 61.4258 48.4644 61.172C48.7389 61.1132 48.8987 60.7922 48.8274 60.5327C48.7493 60.2487 48.4634 60.1106 48.188 60.1697C47.0045 60.4234 45.8209 60.6772 44.6373 60.9309C44.3627 60.9898 44.203 61.3108 44.2743 61.5703C44.3523 61.8543 44.6383 61.9923 44.9136 61.9333Z" fill="#F3F2F3"/>
<path d="M47.3283 74.2914C48.1355 74.2914 48.9427 74.2914 49.7499 74.2914C50.0218 74.2914 50.2822 74.0524 50.2696 73.7717C50.257 73.4901 50.0413 73.252 49.7499 73.252C48.9427 73.252 48.1355 73.252 47.3283 73.252C47.0564 73.252 46.796 73.491 46.8085 73.7717C46.8212 74.0533 47.0369 74.2914 47.3283 74.2914Z" fill="#F3F2F3"/>
<path d="M88.6373 50.7834C88.7392 50.7657 88.5666 50.7833 88.669 50.7806C88.7187 50.7792 88.7677 50.7771 88.8173 50.7791C88.8387 50.78 88.9596 50.796 88.8951 50.784C88.8281 50.7714 88.8988 50.7859 88.9092 50.7884C88.9435 50.7965 88.9778 50.8036 89.0118 50.8128C89.0526 50.824 89.0929 50.8367 89.1327 50.851C89.1526 50.8581 89.1724 50.8657 89.1921 50.8734C89.1732 50.866 89.0997 50.8282 89.1844 50.873C89.2665 50.9164 89.3467 50.9609 89.423 51.0142C89.436 51.0233 89.5061 51.0799 89.4562 51.0377C89.4094 50.9983 89.4639 51.0457 89.47 51.0514C89.5017 51.0804 89.5339 51.1086 89.5645 51.1389C89.6 51.1741 89.6341 51.2109 89.6667 51.2488C89.6807 51.2651 89.6943 51.2817 89.7079 51.2982C89.6786 51.2626 89.6746 51.252 89.7034 51.2959C89.7542 51.3736 89.7951 51.4557 89.8426 51.5349C89.8722 51.5842 89.8363 51.5149 89.8333 51.5075C89.8412 51.5271 89.8487 51.5469 89.8558 51.5668C89.8749 51.6197 89.8912 51.6736 89.9045 51.7283C89.9092 51.7475 89.9336 51.8702 89.9225 51.8041C89.9114 51.738 89.9226 51.807 89.9231 51.8189C89.9245 51.8472 89.9269 51.8751 89.9275 51.9035C89.9284 51.9462 89.9259 51.9886 89.9243 52.0312C89.9238 52.0429 89.9157 52.1153 89.9244 52.0455C89.9333 51.975 89.9208 52.0604 89.9176 52.0739C89.8984 52.1555 89.8744 52.2327 89.846 52.3114C89.8759 52.2286 89.86 52.2768 89.8347 52.325C89.8111 52.3698 89.7853 52.4134 89.7574 52.4556C89.7289 52.499 89.692 52.5398 89.7491 52.4734C89.72 52.5072 89.6919 52.5417 89.6613 52.5742C89.635 52.6021 89.6079 52.6291 89.5798 52.6552C89.5658 52.6683 89.5516 52.6813 89.5372 52.6939C89.5254 52.7042 89.4389 52.7716 89.5002 52.7261C89.5551 52.6854 89.4587 52.7537 89.4431 52.764C89.4108 52.7852 89.3779 52.8055 89.3444 52.8247C89.3052 52.8472 89.2647 52.8667 89.2249 52.8879C89.2144 52.8935 89.1555 52.9247 89.2166 52.8935C89.2787 52.8617 89.2036 52.8986 89.1893 52.9036C89.0983 52.9356 89.007 52.9639 88.9123 52.9829C88.8938 52.9866 88.8742 52.9884 88.8558 52.9932C88.7933 53.0092 88.9608 52.9877 88.8614 52.9915C88.817 52.9932 88.7729 52.9973 88.7284 52.9975C88.6779 52.9977 88.6269 52.99 88.5767 52.9908C88.5141 52.9919 88.6234 52.997 88.6208 52.9977C88.6028 53.0024 88.5644 52.9878 88.5461 52.984C88.4965 52.9735 88.4472 52.9603 88.399 52.9445C88.3816 52.9388 88.3626 52.9288 88.3448 52.9254C88.2797 52.9131 88.4526 52.9755 88.3448 52.9245C88.0994 52.8085 87.7725 52.8481 87.6336 53.111C87.5116 53.342 87.5577 53.698 87.8201 53.8221C88.7374 54.2558 89.8759 53.9753 90.5076 53.1785C90.853 52.7429 91.0186 52.2214 90.944 51.666C90.8728 51.1358 90.5841 50.6303 90.1722 50.2888C89.6534 49.8586 89.0291 49.665 88.3608 49.7812C88.0923 49.8279 87.9172 50.1714 87.9979 50.4206C88.0914 50.7098 88.3495 50.8335 88.6373 50.7834Z" fill="#F3F2F3"/>
<path d="M91.7068 44.5619C91.9339 44.7932 92.0482 44.9358 92.2092 45.1905C92.2857 45.3115 92.3563 45.4363 92.4208 45.5641C92.4531 45.6281 92.4835 45.6929 92.513 45.7582C92.5497 45.8395 92.49 45.6995 92.5236 45.7823C92.5404 45.8238 92.5566 45.8655 92.5721 45.9075C92.6717 46.177 92.7421 46.4542 92.7916 46.7369C92.7964 46.7649 92.8039 46.8153 92.7962 46.7581C92.801 46.7936 92.8047 46.8292 92.8083 46.8648C92.8165 46.9449 92.8223 47.0252 92.826 47.1056C92.8329 47.2577 92.8309 47.4097 92.8224 47.5617C92.8072 47.8337 93.0723 48.0936 93.3421 48.0815C93.6367 48.0683 93.8456 47.853 93.8619 47.5617C93.9389 46.1864 93.4047 44.8078 92.4419 43.8268C92.2452 43.6265 91.904 43.6296 91.7068 43.8268C91.5062 44.0274 91.5096 44.3609 91.7068 44.5619Z" fill="#F3F2F3"/>
<path d="M93.8097 51.4379C94.4785 51.4379 94.4796 50.3984 93.8097 50.3984C93.1408 50.3984 93.1397 51.4379 93.8097 51.4379Z" fill="#F3F2F3"/>
<path d="M61.8637 34.5315C61.7946 35.955 60.9653 37.2396 59.3228 37.5378C58.129 37.7545 56.9319 37.2961 55.7466 37.0373C54.581 36.7827 53.3738 36.7197 52.188 36.8516C51.3553 36.9442 50.5206 37.1374 49.7917 37.5506C48.4871 38.2901 47.3194 40.2539 45.8154 40.5102C44.0083 40.8182 42.187 39.2195 40.4322 38.9757C38.2493 38.6725 36.2616 37.5222 34.0239 37.4476C32.3414 37.3914 30.5102 38.0555 29.7091 39.5361C27.7131 37.6028 26.1804 35.1394 24.7389 32.7767C24.5765 32.5104 24.4111 32.1988 24.5057 31.9016C24.5766 31.6791 24.7767 31.5264 24.9697 31.3949C27.0071 30.0067 29.4964 29.3352 31.9617 29.3559C34.427 29.3766 36.8651 30.071 39.049 31.2149C40.3316 31.8867 41.5412 32.7155 42.9026 33.2083C45.7809 34.2501 47.5201 32.4861 50.1896 31.8649C51.5652 31.5448 53.0485 31.7096 54.3203 32.3238C54.9981 32.6511 55.6128 33.099 56.2952 33.4167C57.8536 34.1423 59.7493 33.3307 59.8642 31.4387C60.6973 31.4828 61.3816 32.1884 61.6454 32.9798C61.815 33.4887 61.8886 34.019 61.8637 34.5315Z" fill="#332E36"/>
<path d="M23.2611 33.6005C23.5149 33.34 23.7863 33.0978 24.0737 32.8749L23.9685 32.9562C24.1743 32.7977 24.3875 32.6496 24.6079 32.5121C24.8384 32.3682 24.9495 32.0416 24.7943 31.801C24.6454 31.57 24.33 31.4605 24.0832 31.6145C23.5181 31.9672 22.991 32.3883 22.526 32.8654C22.3361 33.0603 22.3174 33.4089 22.526 33.6005C22.7313 33.7889 23.0583 33.8085 23.2611 33.6005Z" fill="#F3F2F3"/>
<path d="M24.1407 34.6918C24.4244 34.4081 24.708 34.1245 24.9917 33.8408C25.086 33.7465 25.1439 33.6065 25.1439 33.4733C25.1439 33.3458 25.0873 33.1935 24.9917 33.1057C24.8926 33.0148 24.7626 32.9473 24.6242 32.9535C24.4863 32.9597 24.3562 33.0063 24.2567 33.1057C23.973 33.3894 23.6893 33.6731 23.4056 33.9568C23.3114 34.051 23.2534 34.191 23.2534 34.3243C23.2534 34.4518 23.3101 34.6041 23.4056 34.6918C23.5047 34.7827 23.6347 34.8502 23.7732 34.844C23.911 34.8379 24.0412 34.7913 24.1407 34.6918Z" fill="#F3F2F3"/>
<path d="M25.2946 36.2241C25.3276 36.1717 25.3628 36.121 25.4003 36.0718L25.3191 36.177C25.422 36.0439 25.5408 35.9247 25.6734 35.8213L25.5683 35.9025C25.684 35.8135 25.8086 35.7374 25.9409 35.6756C26.0526 35.6234 26.1482 35.4795 26.1797 35.3649C26.214 35.2405 26.1985 35.0749 26.1273 34.9645C26.0558 34.8535 25.9493 34.7558 25.8167 34.7256L25.6785 34.707C25.5847 34.7073 25.4973 34.731 25.4162 34.778C25.2061 34.8761 25.0149 35.0134 24.8414 35.1664C24.6684 35.3191 24.5195 35.5046 24.397 35.6994C24.3266 35.8114 24.31 35.974 24.3446 36.0999C24.3778 36.2204 24.471 36.3511 24.5835 36.4105C24.7041 36.4742 24.8502 36.5062 24.984 36.4629C25.1153 36.4204 25.2203 36.3423 25.2946 36.2241Z" fill="#F3F2F3"/>
<path d="M26.4475 37.8231C26.6839 37.6576 26.9203 37.4922 27.1567 37.3268C27.2173 37.2941 27.2659 37.2495 27.3025 37.1929C27.3485 37.1427 27.3795 37.0838 27.3956 37.0161C27.4172 36.947 27.4203 36.878 27.4049 36.8089C27.4017 36.7397 27.3812 36.6753 27.3432 36.6156C27.2716 36.5046 27.1651 36.407 27.0326 36.3768C26.9026 36.3472 26.7456 36.3497 26.6321 36.4292C26.3957 36.5946 26.1593 36.76 25.9228 36.9255C25.8623 36.9581 25.8136 37.0028 25.777 37.0594C25.7311 37.1096 25.7001 37.1685 25.684 37.2361C25.6623 37.3052 25.6592 37.3743 25.6747 37.4434C25.6778 37.5126 25.6984 37.577 25.7364 37.6366C25.8079 37.7476 25.9145 37.8453 26.047 37.8755C26.177 37.9051 26.334 37.9025 26.4475 37.8231Z" fill="#F3F2F3"/>
<path d="M27.9766 39.5479C28.0316 39.4477 28.094 39.3521 28.1636 39.2613L28.0823 39.3665C28.1965 39.2191 28.3282 39.0868 28.4752 38.9721L28.37 39.0533C28.4135 39.0197 28.4582 38.9877 28.504 38.9573C28.6169 38.8823 28.7061 38.7801 28.7429 38.6467C28.7645 38.5776 28.7676 38.5085 28.7521 38.4394C28.749 38.3702 28.7284 38.3058 28.6904 38.2462C28.6189 38.1352 28.5124 38.0375 28.3798 38.0073C28.2479 37.9773 28.0958 37.9823 27.9793 38.0597C27.609 38.3057 27.2937 38.632 27.0791 39.0232C27.0132 39.1435 26.9899 39.29 27.0267 39.4237C27.0599 39.5442 27.1532 39.6749 27.2656 39.7343C27.3862 39.798 27.5323 39.83 27.6661 39.7867C27.793 39.7456 27.9109 39.6678 27.9766 39.5479Z" fill="#F3F2F3"/>
<path d="M29.1822 40.7959C29.4659 40.4886 29.7495 40.1813 30.0332 39.874C30.1259 39.7735 30.1854 39.6453 30.1854 39.5065C30.1854 39.379 30.1288 39.2267 30.0332 39.1389C29.9341 39.048 29.8041 38.9805 29.6657 38.9867C29.531 38.9927 29.3922 39.0371 29.2982 39.1389C29.0145 39.4463 28.7308 39.7536 28.4471 40.0609C28.3544 40.1614 28.2949 40.2896 28.2949 40.4284C28.2949 40.5559 28.3516 40.7082 28.4471 40.7959C28.5462 40.8869 28.6762 40.9544 28.8147 40.9482C28.9493 40.9422 29.0881 40.8978 29.1822 40.7959Z" fill="#F3F2F3"/>
<path d="M7.15989 29.9248C9.69609 37.5783 12.2323 45.2319 14.7685 52.8854C15.1083 53.9108 15.4485 54.9361 15.7879 55.9616C16.1093 56.9326 16.4837 57.9668 16.1489 58.9834C15.9392 59.6202 16.9426 59.8932 17.1513 59.2597C17.4494 58.3544 17.3113 57.407 17.0525 56.5096C16.7876 55.5912 16.4598 54.6881 16.1592 53.7809C15.5172 51.8435 14.8752 49.9061 14.2332 47.9686C12.9394 44.0643 11.6455 40.16 10.3518 36.2557C9.62192 34.0533 8.89208 31.8509 8.16224 29.6484C7.95281 29.0165 6.94861 29.2873 7.15989 29.9248Z" fill="#F3F2F3"/>
<path d="M8.58968 44.3521C9.70857 44.1959 10.8275 44.0397 11.9464 43.8836C12.2166 43.8459 12.388 43.4873 12.3094 43.2443C12.2134 42.9477 11.9597 42.8408 11.67 42.8813C10.5511 43.0374 9.43224 43.1936 8.31333 43.3497C8.04309 43.3874 7.87169 43.7461 7.95034 43.9891C8.04631 44.2856 8.30002 44.3925 8.58968 44.3521Z" fill="#F3F2F3"/>
<path d="M30.5345 49.2505C31.5997 50.5382 31.8657 52.5429 31.3965 54.1164C31.1212 55.0397 30.5595 55.6998 29.738 56.1938C29.308 56.4523 28.8043 56.8124 28.2907 56.8406C27.8476 56.865 27.3777 56.7882 26.9468 56.6922C25.3043 56.3265 23.7435 55.284 23.1867 53.6332C22.5803 51.8355 23.242 49.8969 24.6794 48.6963C26.4544 47.2137 29.0375 47.5344 30.5345 49.2505C30.9751 49.7555 31.7077 49.0178 31.2695 48.5154C29.6529 46.6623 26.861 46.1338 24.7293 47.397C22.7682 48.5592 21.6333 50.854 21.9892 53.1104C22.3303 55.2722 24.0338 56.8738 26.0581 57.5281C27.1136 57.8692 28.3598 58.0787 29.3872 57.5752C30.4613 57.0487 31.4888 56.3731 32.0447 55.2794C33.1107 53.1821 32.7623 50.3201 31.2695 48.5154C30.8427 47.9995 30.111 48.7385 30.5345 49.2505Z" fill="#F3F2F3"/>
<path d="M28.3322 51.2953C28.7615 51.8015 28.8371 52.8057 28.3703 53.3177C28.2415 53.459 28.0706 53.5536 27.903 53.6456C27.7998 53.7023 27.6908 53.7605 27.5731 53.7598C26.7532 53.7549 25.9436 53.2565 25.8731 52.3684C25.8136 51.6185 26.4274 50.8685 27.1776 50.8122C27.6094 50.7798 28.0521 50.9651 28.3322 51.2953Z" fill="#F3F2F3"/>
<path d="M27.9643 51.662C27.8706 51.5481 27.9891 51.7023 28.0066 51.7321C28.0191 51.7532 28.031 51.7748 28.0424 51.7966C28.0456 51.8029 28.1031 51.9118 28.0642 51.8366C28.0257 51.7624 28.0772 51.8728 28.0802 51.8811C28.0888 51.9054 28.0969 51.9301 28.1044 51.9547C28.1254 52.0237 28.1422 52.094 28.1552 52.1649C28.1631 52.208 28.1982 52.2671 28.1569 52.1644C28.1643 52.1828 28.1628 52.2268 28.164 52.2438C28.1686 52.31 28.1697 52.3764 28.1673 52.4427C28.1664 52.4691 28.164 52.4953 28.1627 52.5217C28.1579 52.6199 28.168 52.5153 28.168 52.5007C28.168 52.5664 28.1409 52.6463 28.1227 52.7087C28.1138 52.7392 28.1031 52.7689 28.0933 52.7991C28.0613 52.8969 28.1029 52.7844 28.1025 52.7791C28.1056 52.8182 28.0309 52.9076 28.0116 52.9398C27.9851 52.9839 28.0071 52.9867 28.0266 52.922C28.0183 52.9494 27.9729 52.9805 27.9522 53C27.9343 53.0168 27.8526 53.0768 27.9281 53.0236C27.8889 53.0511 27.8484 53.0768 27.8075 53.1015C27.7527 53.1345 27.6967 53.1655 27.6404 53.196C27.631 53.201 27.5049 53.2889 27.5814 53.231C27.5581 53.2486 27.4892 53.2376 27.5728 53.2392C27.5133 53.238 27.454 53.2358 27.3947 53.2303C27.2848 53.22 27.3936 53.2186 27.3957 53.2314C27.3954 53.2298 27.2851 53.2103 27.2796 53.2091C27.2222 53.1964 27.1655 53.1809 27.1094 53.163C27.0735 53.1516 26.9165 53.0791 27.0339 53.1393C26.9191 53.0804 26.8081 53.0231 26.7041 52.9456C26.8148 53.028 26.6599 52.8993 26.6384 52.8774C26.603 52.8415 26.5697 52.8035 26.5381 52.7643C26.6243 52.8711 26.5077 52.7076 26.4923 52.6799C26.4798 52.6574 26.4691 52.6341 26.4568 52.6115C26.4025 52.5123 26.4777 52.6929 26.4492 52.5912C26.4311 52.5261 26.4133 52.462 26.3967 52.3964C26.3898 52.3689 26.39 52.3006 26.3966 52.4103C26.3945 52.3751 26.3904 52.3404 26.3894 52.3051C26.3875 52.2424 26.3919 52.181 26.397 52.1186C26.3877 52.233 26.3906 52.1605 26.3979 52.134C26.4108 52.0874 26.4199 52.04 26.4344 51.9936C26.4448 51.9605 26.4567 51.9282 26.4688 51.8957C26.462 51.914 26.4224 51.99 26.4667 51.9057C26.4959 51.8501 26.525 51.7955 26.5592 51.7427C26.5782 51.7136 26.598 51.6851 26.6187 51.6572C26.5557 51.7423 26.6001 51.6812 26.6161 51.6652C26.6698 51.6112 26.725 51.5587 26.7789 51.5051C26.8351 51.4492 26.6796 51.5688 26.7885 51.4979C26.8232 51.4753 26.8571 51.4524 26.893 51.4318C26.9169 51.4181 26.9419 51.4066 26.9656 51.3929C27.0651 51.3354 26.8913 51.4106 26.9928 51.381C27.0258 51.3714 27.0579 51.3596 27.0911 51.3508C27.121 51.3429 27.2698 51.3219 27.1358 51.335C27.2096 51.3278 27.2822 51.3282 27.3562 51.33C27.4544 51.3324 27.3735 51.3298 27.3513 51.3262C27.4029 51.3346 27.4538 51.3458 27.5042 51.3597C27.5403 51.3697 27.5752 51.3822 27.6108 51.3937C27.712 51.4264 27.552 51.3527 27.6507 51.413C27.7146 51.452 27.7801 51.4861 27.8408 51.5305C27.7589 51.4706 27.8368 51.5311 27.8561 51.549C27.8945 51.5847 27.9297 51.6227 27.9643 51.662C28.1443 51.867 28.518 51.8597 28.6995 51.662C28.9001 51.4435 28.8915 51.1456 28.6995 50.927C28.1237 50.2714 27.1247 50.1003 26.3684 50.5342C25.636 50.9544 25.2425 51.8056 25.3871 52.632C25.5178 53.3788 26.1164 53.9291 26.8145 54.1595C27.2257 54.2952 27.6793 54.3361 28.0752 54.1411C28.4426 53.9602 28.7948 53.7114 28.9839 53.3373C29.3733 52.5667 29.2427 51.588 28.6995 50.927C28.5261 50.7161 28.1417 50.7339 27.9644 50.927C27.7587 51.1512 27.7794 51.437 27.9643 51.662Z" fill="#F3F2F3"/>
<path d="M52.7151 15.1009C52.2952 14.9806 52.0332 15.5495 51.9959 15.9847C51.8029 18.235 52.4721 20.5325 51.9996 22.7411C51.4151 25.4737 49.0839 27.6273 46.4231 28.4812C43.7623 29.335 40.8376 29.0301 38.1865 28.1467C36.8606 27.7049 35.5704 27.1154 34.463 26.2628C33.4933 25.5161 32.6166 24.3747 32.8578 23.1748C33.0881 22.0294 34.2979 21.2941 35.4637 21.2177C36.6294 21.1412 37.7621 21.571 38.8512 21.9936C39.973 22.4289 41.0949 22.8642 42.2168 23.2995C40.9929 21.9097 40.4383 19.9556 40.7495 18.1301C41.0608 16.3046 42.2316 14.6447 43.8469 13.739C44.7028 13.2591 45.6611 12.9875 46.6264 12.8116C47.8049 12.5968 49.0126 12.519 50.2039 12.6435C50.954 12.7218 51.7037 12.8829 52.3809 13.2148C53.4766 13.7519 54.3141 14.6997 55.0242 15.6921C55.2165 15.9609 55.4347 16.2571 55.7596 16.3181C55.9106 16.3464 56.0749 16.3203 56.2123 16.3894C56.4764 16.5224 56.4726 16.9019 56.3846 17.1843C56.2532 17.6063 56.0197 17.9962 55.7097 18.3113C55.6346 18.3877 55.5456 18.464 55.4385 18.4695C55.2987 18.4767 55.1858 18.3637 55.0887 18.2628C54.2699 17.4121 53.1737 16.8327 52.0095 16.6354" fill="#F3F2F3"/>
<path d="M52.8532 14.5998C51.3193 14.3276 51.4158 16.5072 51.4519 17.4577C51.5094 18.9744 51.772 20.5003 51.596 22.0181C51.3094 24.4896 49.532 26.4881 47.3521 27.5527C44.7508 28.8232 41.6563 28.6362 38.9464 27.8404C37.5538 27.4315 36.1933 26.8674 35.006 26.0217C34.1152 25.3871 32.9509 24.2092 33.4487 23.002C34.0197 21.6173 35.8433 21.6005 37.0479 21.9198C37.868 22.1371 38.6552 22.4725 39.4446 22.7788C40.3226 23.1194 41.2006 23.4601 42.0786 23.8008C42.6061 24.0055 42.8877 23.2842 42.5843 22.9321C41.3874 21.5433 40.8961 19.5788 41.3511 17.7963C41.799 16.0415 43.0727 14.5765 44.7415 13.8773C45.7063 13.4731 46.7755 13.2656 47.8129 13.1647C48.8813 13.0608 49.9932 13.0614 51.044 13.3025C52.0358 13.53 52.8612 14.02 53.5721 14.7429C53.8789 15.0549 54.1604 15.3916 54.4212 15.7427C54.6883 16.1023 54.9304 16.5082 55.3442 16.7163C55.433 16.761 55.5247 16.7962 55.6214 16.8194C55.7056 16.8315 55.7901 16.8422 55.8747 16.8513C56.0131 16.8758 56.0284 16.8656 55.9206 16.8209C55.9505 17.0098 55.8145 17.2531 55.7307 17.4103C55.6896 17.4874 55.6439 17.5654 55.5945 17.6378C55.5473 17.7127 55.4934 17.7825 55.4329 17.8472C55.2849 17.952 55.318 17.9934 55.5321 17.9713C55.5504 17.9482 55.0204 17.4896 54.9922 17.4663C54.1703 16.7881 53.1972 16.3249 52.1476 16.1343C51.4936 16.0156 51.213 17.0172 51.8713 17.1367C52.9842 17.3387 53.9116 17.8499 54.7211 18.6304C55.1432 19.0374 55.6372 19.1017 56.0772 18.6789C56.4787 18.2932 56.8105 17.7217 56.9208 17.1745C57.0192 16.6861 56.8985 16.1423 56.4125 15.9146C56.213 15.8211 55.972 15.8731 55.7851 15.775C55.5686 15.6612 55.4207 15.3543 55.2795 15.1656C54.6028 14.2609 53.8218 13.4016 52.8168 12.8564C51.7276 12.2654 50.4577 12.0865 49.2332 12.0662C47.9491 12.045 46.6304 12.2124 45.3933 12.5595C43.2249 13.168 41.4651 14.613 40.6134 16.719C39.6664 19.0607 40.2179 21.7743 41.8492 23.6673L42.3549 22.7986C40.7634 22.181 39.1749 21.4577 37.5357 20.9771C36.1962 20.5844 34.6834 20.5226 33.5036 21.3791C32.3738 22.1993 32.0132 23.553 32.5905 24.8276C33.1832 26.136 34.4981 27.0382 35.7313 27.6814C40.7513 30.2995 48.2782 30.5316 51.5873 25.1314C52.4391 23.7413 52.729 22.1722 52.6868 20.5571C52.6623 19.6204 52.5545 18.6886 52.505 17.7532C52.4816 17.3113 52.4703 16.8681 52.4883 16.4258C52.4962 16.2288 52.4932 16.0231 52.5513 15.833C52.5945 15.6915 52.7172 15.6272 52.5769 15.6023C53.231 15.7183 53.5118 14.7166 52.8532 14.5998Z" fill="#F3F2F3"/>
<path d="M51.9146 22.295C53.2954 22.0408 54.6845 21.839 56.0814 21.6975C56.4537 21.6598 56.8264 21.6261 57.1994 21.5963C57.3517 21.5841 57.8087 21.4707 57.9459 21.5716C57.8848 21.5266 57.9609 21.7046 57.9711 21.7714C57.9983 21.9488 58.0068 22.1319 58.0127 22.311C58.0237 22.6476 58.011 22.9884 57.9607 23.3216C57.9275 23.5417 57.9172 23.7385 57.7052 23.838C57.4438 23.9606 57.0983 24.0026 56.8167 24.0596C56.1789 24.1887 55.6085 24.1586 55.0303 23.8469C54.4746 23.5473 53.9605 23.2433 53.3233 23.1573C52.6595 23.0677 51.9928 23.1571 51.3303 23.2185C50.6698 23.2796 50.6634 24.3197 51.3303 24.2579C51.938 24.2016 52.5754 24.0964 53.1847 24.1808C53.7604 24.2605 54.2081 24.6095 54.7189 24.854C55.2868 25.1257 55.8804 25.2242 56.5068 25.1542C57.0626 25.0921 57.6878 24.989 58.1998 24.7539C58.7333 24.5089 58.9065 24.0037 58.9832 23.4599C59.0749 22.8096 59.083 22.1483 58.9742 21.499C58.7456 20.134 57.1304 20.5532 56.1512 20.651C54.6389 20.8021 53.133 21.0174 51.6383 21.2926C50.9813 21.4135 51.2596 22.4156 51.9146 22.295Z" fill="#F3F2F3"/>
<path d="M54.8276 27.0298C54.814 27.2316 54.8491 27.4462 54.9253 27.6336C55.0184 27.8628 55.1405 28.0673 55.3174 28.2435C55.6308 28.5557 56.0845 28.7621 56.5324 28.7302C56.6714 28.7203 56.7989 28.6789 56.8999 28.578C56.99 28.4878 57.0579 28.3399 57.0521 28.2105C57.0461 28.076 57.0019 27.9366 56.8999 27.8429C56.8024 27.7535 56.6692 27.681 56.5324 27.6907C56.4662 27.6954 56.4006 27.6937 56.3347 27.6858L56.4729 27.7044C56.3803 27.6917 56.291 27.6672 56.2046 27.6319L56.3288 27.6843C56.2322 27.6432 56.1424 27.59 56.0592 27.526L56.1643 27.6072C56.0816 27.5418 56.0078 27.4673 55.9432 27.3839L56.0244 27.4891C55.9646 27.4097 55.9145 27.3245 55.8753 27.2332L55.9277 27.3573C55.8921 27.271 55.8672 27.1818 55.8542 27.0894L55.8727 27.2275C55.8646 27.1617 55.8626 27.0961 55.8671 27.0298C55.8757 26.9023 55.803 26.7504 55.7149 26.6623C55.6247 26.5722 55.4768 26.5043 55.3473 26.5101C55.2129 26.5161 55.0735 26.5603 54.9798 26.6623C54.883 26.7678 54.8373 26.8863 54.8276 27.0298Z" fill="#F3F2F3"/>
<path d="M54.8498 27.3178C55.0402 27.1818 55.2443 27.0675 55.4596 26.9759L55.3354 27.0283C55.4972 26.9607 55.6638 26.9063 55.8344 26.8657C55.9588 26.8362 56.0813 26.7357 56.145 26.6269C56.2102 26.5155 56.2378 26.3513 56.1974 26.2264C56.1082 25.9506 55.8417 25.7959 55.5581 25.8634C55.1198 25.9676 54.6918 26.1582 54.3252 26.4203C54.2125 26.5009 54.1243 26.593 54.0863 26.7309C54.052 26.8553 54.0675 27.021 54.1387 27.1314C54.2103 27.2424 54.3168 27.3401 54.4493 27.3703C54.5785 27.3997 54.7376 27.3981 54.8498 27.3178Z" fill="#F3F2F3"/>
<path d="M53.1834 38.4161C54.8695 37.754 56.678 37.9329 58.4411 38.0848C60.3468 38.2489 62.2149 38.2393 64.105 37.9156C64.763 37.8029 64.4841 36.801 63.8287 36.9133C61.9338 37.2378 60.06 37.1842 58.1534 37.0205C56.397 36.8697 54.5821 36.756 52.907 37.4137C52.2914 37.6555 52.5594 38.6611 53.1834 38.4161Z" fill="#F3F2F3"/>
</svg>
