<svg width="40" height="40" viewBox="0 0 40 40" fill="none" xmlns="http://www.w3.org/2000/svg">
<path d="M12.9399 17.311C12.8006 17.1717 12.69 17.0063 12.6146 16.8243C12.5392 16.6423 12.5004 16.4472 12.5004 16.2502C12.5004 16.0532 12.5392 15.8581 12.6146 15.6761C12.69 15.4941 12.8006 15.3287 12.9399 15.1894L18.9399 9.18939C19.2212 8.90805 19.6028 8.75 20.0007 8.75C20.3985 8.75 20.7801 8.90805 21.0614 9.18939C21.3428 9.47073 21.5008 9.8523 21.5008 10.2502C21.5008 10.648 21.3428 11.0296 21.0614 11.311L15.0614 17.311C14.9221 17.4503 14.7568 17.5608 14.5748 17.6362C14.3928 17.7116 14.1977 17.7504 14.0007 17.7504C13.8036 17.7504 13.6086 17.7116 13.4266 17.6362C13.2445 17.5608 13.0792 17.4503 12.9399 17.311ZM30.8114 18.9394C30.6721 18.8001 30.5068 18.6895 30.3248 18.6141C30.1428 18.5387 29.9477 18.4999 29.7507 18.4999C29.5536 18.4999 29.3586 18.5387 29.1766 18.6141C28.9945 18.6895 28.8292 18.8001 28.6899 18.9394L22.6899 24.9394C22.5506 25.0787 22.44 25.2441 22.3646 25.4261C22.2892 25.6081 22.2504 25.8032 22.2504 26.0002C22.2504 26.1972 22.2892 26.3923 22.3646 26.5743C22.44 26.7563 22.5506 26.9217 22.6899 27.061C22.8292 27.2003 22.9945 27.3108 23.1766 27.3862C23.3586 27.4616 23.5536 27.5004 23.7507 27.5004C23.9477 27.5004 24.1428 27.4616 24.3248 27.3862C24.5068 27.3108 24.6721 27.2003 24.8114 27.061L30.8114 21.061C30.9508 20.9217 31.0613 20.7563 31.1367 20.5743C31.2121 20.3923 31.2509 20.1972 31.2509 20.0002C31.2509 19.8032 31.2121 19.6081 31.1367 19.4261C31.0613 19.2441 30.9508 19.0787 30.8114 18.9394ZM27.5199 17.4581L22.5427 12.481C22.5079 12.4461 22.4665 12.4184 22.421 12.3996C22.3755 12.3807 22.3267 12.371 22.2774 12.371C22.2281 12.371 22.1793 12.3807 22.1338 12.3996C22.0883 12.4184 22.0469 12.4461 22.0121 12.481L16.2314 18.2616C16.1966 18.2964 16.1689 18.3378 16.15 18.3833C16.1312 18.4288 16.1215 18.4776 16.1215 18.5269C16.1215 18.5762 16.1312 18.625 16.15 18.6705C16.1689 18.716 16.1966 18.7574 16.2314 18.7922L17.6564 20.22L10.6899 27.1903C10.4204 27.4739 10.2725 27.8515 10.2775 28.2427C10.2825 28.6338 10.4401 29.0075 10.7167 29.2841C10.9933 29.5607 11.367 29.7184 11.7581 29.7234C12.1493 29.7284 12.5269 29.5804 12.8105 29.311L19.7808 22.3444L21.2086 23.7722C21.2435 23.8071 21.2848 23.8347 21.3303 23.8536C21.3759 23.8725 21.4247 23.8822 21.4739 23.8822C21.5232 23.8822 21.572 23.8725 21.6175 23.8536C21.6631 23.8347 21.7044 23.8071 21.7393 23.7722L27.5199 17.9916C27.5552 17.9567 27.5832 17.9152 27.6023 17.8694C27.6214 17.8236 27.6313 17.7745 27.6313 17.7249C27.6313 17.6752 27.6214 17.6261 27.6023 17.5803C27.5832 17.5346 27.5552 17.493 27.5199 17.4581Z" fill="#C63945"/>
</svg>
