<svg width="24" height="24" viewBox="0 0 24 24" fill="none" xmlns="http://www.w3.org/2000/svg">
<path fill-rule="evenodd" clip-rule="evenodd" d="M20.25 3.75H3.75C3.35218 3.75 2.97064 3.90804 2.68934 4.18934C2.40804 4.47064 2.25 4.85218 2.25 5.25V18.75C2.25 19.1478 2.40804 19.5294 2.68934 19.8107C2.97064 20.092 3.35218 20.25 3.75 20.25H20.25C20.6478 20.25 21.0294 20.092 21.3107 19.8107C21.592 19.5294 21.75 19.1478 21.75 18.75V5.25C21.75 4.85218 21.592 4.47064 21.3107 4.18934C21.0294 3.90804 20.6478 3.75 20.25 3.75ZM11.155 16.9125C10.5778 16.9125 10.11 16.4447 10.11 15.8676V8.08256C10.11 7.50544 10.5778 7.0376 11.155 7.0376H13.3233C14.2533 7.0376 15.084 7.21524 15.8155 7.57053C16.5574 7.91537 17.1374 8.43785 17.5554 9.13798C17.9838 9.83811 18.198 10.7107 18.198 11.7556C18.198 12.7065 18.0517 13.5112 17.7592 14.1695C17.477 14.8278 17.0852 15.3608 16.5836 15.7683C16.082 16.1654 15.502 16.458 14.8437 16.6461C14.1958 16.8237 13.5061 16.9125 12.7747 16.9125H11.155ZM11.5521 15.1988C11.5521 15.4873 11.786 15.7213 12.0745 15.7213H12.6336C13.1352 15.7213 13.6211 15.6638 14.0913 15.5489C14.572 15.4339 15.0004 15.2354 15.3766 14.9532C15.7633 14.6606 16.0663 14.2583 16.2858 13.7463C16.5156 13.2238 16.6306 12.5602 16.6306 11.7556C16.6306 10.6166 16.3014 9.74406 15.6431 9.13798C14.9952 8.5319 14.1279 8.22886 13.0411 8.22886H12.0745C11.786 8.22886 11.5521 8.46278 11.5521 8.75134V15.1988ZM6.58 16.1915C6.58 16.5897 6.90281 16.9125 7.30103 16.9125C7.69924 16.9125 8.02205 16.5897 8.02205 16.1915V7.75863C8.02205 7.36041 7.69924 7.0376 7.30103 7.0376C6.90281 7.0376 6.58 7.36041 6.58 7.75862V16.1915Z" fill="#FFFFFD"/>
</svg>
