<svg width="24" height="24" viewBox="0 0 24 24" fill="none" xmlns="http://www.w3.org/2000/svg">
<path fill-rule="evenodd" clip-rule="evenodd" d="M21.5488 6C21.5488 6.19891 21.4698 6.38968 21.3292 6.53033C21.1885 6.67098 20.9977 6.75 20.7988 6.75H19.2988V8.25C19.2988 8.44891 19.2198 8.63968 19.0792 8.78033C18.9385 8.92098 18.7477 9 18.5488 9C18.3499 9 18.1591 8.92098 18.0185 8.78033C17.8778 8.63968 17.7988 8.44891 17.7988 8.25V6.75H16.2988C16.0999 6.75 15.9092 6.67098 15.7685 6.53033C15.6278 6.38968 15.5488 6.19891 15.5488 6C15.5488 5.80109 15.6278 5.61032 15.7685 5.46967C15.9092 5.32902 16.0999 5.25 16.2988 5.25H17.7988V3.75C17.7988 3.55109 17.8778 3.36032 18.0185 3.21967C18.1591 3.07902 18.3499 3 18.5488 3C18.7477 3 18.9385 3.07902 19.0792 3.21967C19.2198 3.36032 19.2988 3.55109 19.2988 3.75V5.25H20.7988C20.9977 5.25 21.1885 5.32902 21.3292 5.46967C21.4698 5.61032 21.5488 5.80109 21.5488 6ZM7.53662 14.0055C7.55433 13.9579 7.56214 13.9071 7.5596 13.8563C7.54835 13.7381 7.54835 13.62 7.54835 13.5C7.54934 12.354 7.87811 11.2321 8.49589 10.2668C9.11366 9.30156 9.99465 8.53312 11.0349 8.05221C11.1082 8.019 11.1687 7.96275 11.2071 7.89201C11.2455 7.82127 11.2598 7.73992 11.2477 7.66033C11.1542 7.06851 10.9203 6.50771 10.5655 6.02489C10.2107 5.54207 9.74537 5.1513 9.20849 4.8853C8.67161 4.6193 8.07881 4.48581 7.47973 4.49603C6.88066 4.50624 6.29275 4.65986 5.76525 4.944C5.23775 5.22815 4.78602 5.63456 4.44789 6.12919C4.10975 6.62382 3.89506 7.19228 3.8218 7.78694C3.74854 8.38161 3.81883 8.98517 4.0268 9.54709C4.23476 10.109 4.57434 10.6129 5.0171 11.0166C4.00862 11.4535 3.13067 12.1444 2.46898 13.0219C2.39736 13.1123 2.34661 13.2174 2.32036 13.3297C2.2941 13.4421 2.29299 13.5588 2.3171 13.6716C2.35582 13.8364 2.44915 13.9832 2.58192 14.0882C2.71468 14.1933 2.87907 14.2503 3.04835 14.25H7.1846C7.23546 14.2501 7.28581 14.2398 7.33257 14.2198C7.37934 14.1998 7.42154 14.1705 7.45662 14.1336C7.4917 14.0968 7.51892 14.0532 7.53662 14.0055ZM17.8476 14.8057C17.5739 15.7056 17.0251 16.4972 16.2783 17.0691H16.2849C17.612 17.6423 18.7206 18.6257 19.448 19.875C19.5139 19.989 19.5485 20.1184 19.5485 20.2501C19.5485 20.3817 19.5138 20.5111 19.448 20.6251C19.3821 20.7391 19.2874 20.8338 19.1734 20.8996C19.0594 20.9654 18.93 21.0001 18.7983 21H8.29835C8.16668 21.0001 8.03733 20.9654 7.92329 20.8996C7.80925 20.8338 7.71455 20.7391 7.6487 20.6251C7.58286 20.5111 7.54819 20.3817 7.54818 20.2501C7.54817 20.1184 7.58283 19.989 7.64866 19.875C8.37454 18.6265 9.48104 17.6432 10.8062 17.0691C10.0594 16.4972 9.51061 15.7056 9.23694 14.8057C8.96327 13.9058 8.97846 12.9428 9.2804 12.052C9.58233 11.1611 10.1558 10.3873 10.9203 9.83924C11.6847 9.29118 12.6017 8.99644 13.5423 8.99644C14.4829 8.99644 15.3998 9.29118 16.1643 9.83924C16.9287 10.3873 17.5022 11.1611 17.8041 12.052C18.106 12.9428 18.1212 13.9058 17.8476 14.8057Z" fill="#FFFFFD"/>
</svg>
