<svg width="24" height="24" viewBox="0 0 24 24" fill="none" xmlns="http://www.w3.org/2000/svg">
<path fill-rule="evenodd" clip-rule="evenodd" d="M16.0788 11.6624C15.581 12.955 14.6757 14.0503 13.5 14.7825C15.4313 15.4163 17.1732 16.6003 18.5747 18.2672C18.6667 18.3766 18.7256 18.5099 18.7443 18.6516C18.7631 18.7933 18.7409 18.9374 18.6806 19.0669C18.6202 19.1964 18.524 19.306 18.4035 19.3827C18.2829 19.4595 18.1429 19.5002 18 19.5H2.25003C2.1076 19.4991 1.96837 19.4576 1.84864 19.3805C1.72891 19.3033 1.63362 19.1937 1.57393 19.0644C1.51423 18.935 1.4926 18.7914 1.51155 18.6502C1.53051 18.5091 1.58927 18.3762 1.68097 18.2672C3.08159 16.6003 4.82347 15.4163 6.75941 14.7825C5.58369 14.0503 4.67846 12.955 4.18066 11.6624C3.68286 10.3698 3.61958 8.95031 4.00039 7.61858C4.3812 6.28684 5.18539 5.11537 6.29128 4.28138C7.39718 3.44739 8.74461 2.99628 10.1297 2.99628C11.5148 2.99628 12.8623 3.44739 13.9682 4.28138C15.074 5.11537 15.8782 6.28684 16.259 7.61858C16.6399 8.95031 16.5766 10.3698 16.0788 11.6624ZM23.1218 10.6287C23.2624 10.7693 23.3414 10.9601 23.3414 11.159C23.3414 11.3579 23.2624 11.5487 23.1218 11.6893L22.0611 12.75L23.1218 13.8107C23.2624 13.9513 23.3414 14.1421 23.3414 14.341C23.3414 14.5399 23.2624 14.7307 23.1218 14.8713C22.9811 15.012 22.7904 15.091 22.5914 15.091C22.3925 15.091 22.2018 15.012 22.0611 14.8713L21.0005 13.8107L19.9398 14.8713C19.7991 15.012 19.6084 15.091 19.4095 15.091C19.2106 15.091 19.0198 15.012 18.8791 14.8713C18.7385 14.7307 18.6595 14.5399 18.6595 14.341C18.6595 14.1421 18.7385 13.9513 18.8791 13.8107L19.9398 12.75L18.8791 11.6893C18.7385 11.5487 18.6595 11.3579 18.6595 11.159C18.6595 10.9601 18.7385 10.7693 18.8791 10.6287C19.0198 10.488 19.2106 10.409 19.4095 10.409C19.6084 10.409 19.7991 10.488 19.9398 10.6287L21.0005 11.6893L22.0611 10.6287C22.2018 10.488 22.3925 10.409 22.5914 10.409C22.7904 10.409 22.9811 10.488 23.1218 10.6287Z" fill="#FFFFFD"/>
</svg>
