<svg width="24" height="24" viewBox="0 0 24 24" fill="none" xmlns="http://www.w3.org/2000/svg">
<path d="M22.477 8.51341C22.477 8.52373 22.477 8.5331 22.4704 8.54341L20.3442 18.2812C20.2787 18.6241 20.0957 18.9334 19.8267 19.1559C19.5577 19.3784 19.2195 19.5001 18.8704 19.5H5.12948C4.78056 19.4998 4.44259 19.3781 4.17377 19.1556C3.90495 18.9332 3.72209 18.624 3.65667 18.2812L1.53042 8.54341C1.53042 8.5331 1.52573 8.52373 1.52385 8.51341C1.46566 8.19101 1.51462 7.85842 1.66325 7.56646C1.81189 7.2745 2.05202 7.03923 2.34695 6.89659C2.64189 6.75396 2.97541 6.71181 3.29656 6.77658C3.61771 6.84135 3.90882 7.00949 4.12542 7.25529L7.28198 10.6575L10.6382 3.13029C10.6384 3.12717 10.6384 3.12404 10.6382 3.12091C10.7582 2.86061 10.9503 2.64015 11.1917 2.48562C11.4331 2.33109 11.7138 2.24896 12.0004 2.24896C12.2871 2.24896 12.5677 2.33109 12.8091 2.48562C13.0505 2.64015 13.2426 2.86061 13.3626 3.12091C13.3624 3.12404 13.3624 3.12717 13.3626 3.13029L16.7189 10.6575L19.8754 7.25529C20.0925 7.01131 20.3832 6.84482 20.7035 6.78111C21.0237 6.71739 21.3561 6.75993 21.6499 6.90227C21.9438 7.0446 22.1833 7.27896 22.3319 7.56974C22.4804 7.86052 22.5301 8.19185 22.4732 8.51341H22.477Z" fill="#FFFFFD"/>
</svg>
