<svg width="25" height="24" viewBox="0 0 25 24" fill="none" xmlns="http://www.w3.org/2000/svg">
<path d="M13.5 6.75V10.7869L16.9144 9.07875C17.0025 9.03468 17.0985 9.0084 17.1968 9.00141C17.2951 8.99443 17.3938 9.00687 17.4873 9.03804C17.5808 9.0692 17.6673 9.11848 17.7417 9.18305C17.8162 9.24762 17.8772 9.32623 17.9213 9.41438C17.9653 9.50253 17.9916 9.5985 17.9986 9.6968C18.0056 9.79511 17.9931 9.89383 17.962 9.98733C17.9308 10.0808 17.8815 10.1673 17.817 10.2417C17.7524 10.3162 17.6738 10.3772 17.5856 10.4213L13.0856 12.6713C12.9712 12.7285 12.8441 12.7555 12.7163 12.7498C12.5886 12.744 12.4644 12.7057 12.3556 12.6385C12.2468 12.5712 12.157 12.4772 12.0948 12.3655C12.0325 12.2537 11.9999 12.1279 12 12V6.75C12 6.55109 12.079 6.36033 12.2197 6.21967C12.3603 6.07902 12.5511 6 12.75 6C12.9489 6 13.1397 6.07902 13.2803 6.21967C13.421 6.36033 13.5 6.55109 13.5 6.75ZM12.75 20.25C11.1183 20.25 9.52326 19.7661 8.16655 18.8596C6.80984 17.9531 5.75242 16.6646 5.128 15.1571C4.50358 13.6497 4.3402 11.9909 4.65853 10.3905C4.97685 8.79017 5.76259 7.32016 6.91637 6.16637C8.07016 5.01259 9.54017 4.22685 11.1405 3.90853C12.7409 3.5902 14.3997 3.75358 15.9071 4.378C17.4146 5.00242 18.7031 6.05984 19.6096 7.41655C20.5161 8.77326 21 10.3683 21 12C21 12.1989 21.079 12.3897 21.2197 12.5303C21.3603 12.671 21.5511 12.75 21.75 12.75C21.9489 12.75 22.1397 12.671 22.2803 12.5303C22.421 12.3897 22.5 12.1989 22.5 12C22.5 10.0716 21.9282 8.18657 20.8568 6.58319C19.7855 4.97982 18.2627 3.73013 16.4812 2.99218C14.6996 2.25422 12.7392 2.06114 10.8479 2.43735C8.95656 2.81355 7.21927 3.74215 5.85571 5.10571C4.49215 6.46927 3.56355 8.20656 3.18735 10.0979C2.81114 11.9892 3.00422 13.9496 3.74218 15.7312C4.48013 17.5127 5.72982 19.0355 7.33319 20.1068C8.93657 21.1782 10.8216 21.75 12.75 21.75C12.9489 21.75 13.1397 21.671 13.2803 21.5303C13.421 21.3897 13.5 21.1989 13.5 21C13.5 20.8011 13.421 20.6103 13.2803 20.4697C13.1397 20.329 12.9489 20.25 12.75 20.25Z" fill="#D0CFD0"/>
<path fill-rule="evenodd" clip-rule="evenodd" d="M21.6978 20.0517C21.6633 19.9685 21.6128 19.8929 21.5491 19.8292L19.7197 18L21.5491 16.1708C21.6777 16.0422 21.75 15.8677 21.75 15.6858C21.75 15.5039 21.6777 15.3295 21.5491 15.2009C21.4205 15.0723 21.2461 15 21.0642 15C20.8823 15 20.7078 15.0723 20.5792 15.2009L18.75 17.0303L16.9208 15.2009C16.7922 15.0723 16.6177 15 16.4358 15C16.2539 15 16.0795 15.0723 15.9509 15.2009C15.8223 15.3295 15.75 15.5039 15.75 15.6858C15.75 15.8677 15.8223 16.0422 15.9509 16.1708L17.7803 18L15.9509 19.8292C15.8223 19.9578 15.75 20.1323 15.75 20.3142C15.75 20.4961 15.8223 20.6705 15.9509 20.7991C16.0795 20.9277 16.2539 21 16.4358 21C16.6177 21 16.7922 20.9277 16.9208 20.7991L18.75 18.9697L20.5792 20.7991C20.6429 20.8628 20.7185 20.9133 20.8017 20.9478C20.8849 20.9823 20.9741 21 21.0642 21C21.1542 21 21.2434 20.9823 21.3266 20.9478C21.4098 20.9133 21.4854 20.8628 21.5491 20.7991C21.6128 20.7354 21.6633 20.6598 21.6978 20.5766C21.7323 20.4934 21.75 20.4042 21.75 20.3142C21.75 20.2241 21.7323 20.1349 21.6978 20.0517Z" fill="#D0CFD0"/>
</svg>
