<svg width="101" height="100" viewBox="0 0 101 100" fill="none" xmlns="http://www.w3.org/2000/svg">
<path d="M60.1825 66.2043C56.8643 72.5898 63.3779 59.7565 60.1825 66.2043C59.9817 63.9131 59.786 61.6575 59.4097 59.386C58.5706 54.3195 57.6477 49.5273 54.2673 45.4851C53.7919 44.9167 53.2699 44.3584 52.5992 44.0434C49.1799 42.4376 45.0074 42.9163 41.6157 44.4565C39.1532 45.5747 38.8048 48.8826 39.5358 51.2026C40.208 53.3361 41.5465 55.2047 42.2858 57.3159C43.8575 61.804 42.6606 67.0943 42.6245 71.7464C42.5842 76.9342 42.9463 82.147 44.0826 87.2187C44.5833 89.4531 44.9972 91.1912 46.7085 92.8614C48.295 94.4099 50.3841 95.4419 52.5641 95.8208C60.2259 97.1521 66.5934 91.5592 70.8003 85.851C75.8837 78.9536 79.4414 71.8351 82.152 63.6997C82.6483 62.2102 63.4839 53.662 60.1825 77.4704" fill="#332E36"/>
<path d="M69.5787 46.7345C66.9957 51.7059 64.4492 56.6962 61.9402 61.7054C61.2265 63.1304 60.5158 64.557 59.808 65.985L60.6183 66.2045C60.3794 63.4777 60.0938 60.7681 59.6274 58.0697C59.2304 55.7724 58.7685 53.4734 57.9862 51.2719C57.1997 49.0586 56.086 46.9832 54.5758 45.1778C54.2003 44.729 53.7997 44.3027 53.3201 43.9631C52.8355 43.6199 52.251 43.402 51.6921 43.2119C50.5548 42.8252 49.3468 42.6393 48.1474 42.615C46.933 42.5904 45.7117 42.7354 44.5292 43.009C43.3942 43.2715 42.218 43.6372 41.1857 44.1857C39.5269 45.0668 38.8191 46.96 38.7667 48.7484C38.7011 50.985 39.7264 52.9512 40.7177 54.8902C41.2947 56.0189 41.8365 57.1568 42.1589 58.3878C42.475 59.5948 42.61 60.8373 42.6484 62.0822C42.7268 64.6248 42.4201 67.1568 42.2674 69.6908C42.1058 72.3735 42.1769 75.0806 42.3457 77.7613C42.52 80.5307 42.8497 83.2942 43.3871 86.0174C43.8158 88.1896 44.2364 90.5051 45.6255 92.2969C48.5082 96.0151 53.7379 97.1237 58.1444 96.0533C62.4137 95.0162 66.0232 92.1255 68.8915 88.902C70.4383 87.1637 71.8032 85.2684 73.102 83.3403C74.4818 81.2919 75.7621 79.1766 76.9338 77.0024C79.2955 72.6202 81.2076 68.0037 82.7512 63.2733C83.1793 61.9614 83.5753 60.6393 83.9271 59.3049C84.0699 58.7632 83.2313 58.5321 83.0885 59.0737C81.8234 63.8729 80.0778 68.5809 77.9525 73.065C75.9033 77.3887 73.4407 81.5077 70.6177 85.3704C68.143 88.7566 65.1321 91.9421 61.3735 93.8997C57.5473 95.8924 52.8174 96.2982 48.9954 94.057C48.0122 93.4804 47.0979 92.7474 46.3793 91.858C45.7475 91.076 45.3251 90.1608 45.0312 89.2049C44.3079 86.8518 43.9084 84.3566 43.6027 81.9191C43.2678 79.2494 43.1067 76.5596 43.0673 73.8699C43.0307 71.3718 43.1957 68.9063 43.3764 66.4169C43.551 64.0138 43.6598 61.5787 43.2264 59.1953C43.0106 58.0089 42.6288 56.8784 42.1247 55.7845C41.6109 54.6696 41.0004 53.602 40.4951 52.4829C39.7316 50.7919 39.3291 48.9154 39.9086 47.1009C40.1576 46.3214 40.6193 45.5868 41.3082 45.1258C42.2047 44.5258 43.3637 44.2012 44.3986 43.9358C46.6653 43.3544 49.1031 43.2792 51.3449 44.0118C51.8757 44.1852 52.4247 44.3854 52.8812 44.714C53.3273 45.035 53.6935 45.4676 54.0409 45.8891C54.7738 46.7783 55.4081 47.7485 55.9493 48.7652C57.0003 50.74 57.6654 52.8884 58.1574 55.0635C58.6902 57.4197 59.0924 59.8212 59.3656 62.2209C59.5165 63.5464 59.6322 64.8755 59.7487 66.2044C59.7829 66.595 60.3501 66.8452 60.559 66.4239C63.047 61.4043 65.5718 56.4029 68.134 51.4207C68.8628 50.0034 69.5949 48.5877 70.3297 47.1734C70.5874 46.6774 69.8371 46.2371 69.5787 46.7345Z" fill="#F3F2F3"/>
<path d="M69.8078 8.9657C70.6899 7.13184 72.8323 6.21352 74.7026 5.62076C76.8143 4.9515 79.1858 4.83552 81.0506 6.1801C81.6532 6.61458 82.2341 5.63032 81.6379 5.20041C79.5431 3.6899 76.7695 3.77356 74.3932 4.5267C72.2498 5.20602 69.8133 6.29279 68.803 8.39306C68.4869 9.05027 69.4898 9.62699 69.8078 8.9657Z" fill="#F3F2F3"/>
<path d="M74.3956 15.819C76.1232 14.197 78.71 13.7734 80.8794 14.6681C81.1627 14.7849 81.5019 14.5412 81.5761 14.2682C81.6652 13.9404 81.4649 13.6813 81.1805 13.564C78.6395 12.5161 75.5943 13.1319 73.5946 15.0095C73.0593 15.5121 73.8618 16.3203 74.3956 15.819Z" fill="#F3F2F3"/>
<path d="M51.4776 20.7634C53.2052 19.1413 55.792 18.7177 57.9614 19.6124C58.2448 19.7292 58.584 19.4855 58.6582 19.2126C58.7473 18.8847 58.547 18.6256 58.2626 18.5084C55.7215 17.4605 52.6763 18.0762 50.6766 19.9538C50.1413 20.4564 50.9438 21.2646 51.4776 20.7634Z" fill="#F3F2F3"/>
<path d="M38.3019 42.3594C31.4504 40.8111 25.8542 34.0166 26.2008 26.899C26.4222 22.3534 28.667 18.1604 33.1159 16.5121C36.1717 15.38 39.7548 15.7855 42.4803 17.5719C45.744 19.7111 47.5616 23.5157 48.4179 27.323C49.0202 30.0007 49.2207 32.8182 48.5539 35.4806C47.7813 38.5654 45.6669 42.0735 42.2536 42.6373C41.6382 42.7389 41.0093 42.7012 40.3868 42.6613C39.6824 42.6162 38.9859 42.5139 38.3019 42.3594Z" fill="#F3F2F3"/>
<path d="M41.7148 40.7099C43.8877 43.9313 45.7711 47.3478 47.3349 50.9049C47.7904 51.9407 48.5624 53.6357 50.0281 52.8737C51.538 52.0886 50.1041 49.832 49.6624 48.8039C48.1089 45.1883 46.4481 41.6183 44.6297 38.1279" fill="#F3F2F3"/>
<path d="M43.1211 46.6602C44.2679 47.034 45.4732 47.2256 46.6792 47.2306C47.6502 47.2347 48.8806 46.7888 49.8112 46.9306C50.0246 46.9631 50.2095 47.1005 50.3514 47.2633C50.9473 47.9471 50.7777 49.1476 50.0156 49.6395C51.8386 48.8546 52.5266 51.2574 51.6716 52.4744C52.2895 52.4844 52.8841 52.8843 53.1265 53.4529C53.3689 54.0214 53.2457 54.7273 52.825 55.1801C53.5042 55.4477 53.9261 56.2065 53.8819 56.9353C53.7402 59.2727 49.9899 60.1977 48.1716 59.6664" fill="#332E36"/>
<path d="M43.0055 47.0791C43.8837 47.3594 44.7879 47.5401 45.7064 47.6205C46.5589 47.6952 47.3544 47.6254 48.1941 47.4795C48.7901 47.3759 49.8071 47.0621 50.1529 47.7412C50.4073 48.2408 50.2637 48.9392 49.7962 49.2637C49.4228 49.5228 49.6432 50.2569 50.1313 50.0584C50.7103 49.823 51.2283 49.9198 51.4768 50.5383C51.7004 51.0949 51.6286 51.7597 51.2961 52.2545C51.1017 52.544 51.3638 52.8931 51.6716 52.9088C52.6559 52.9591 53.1682 54.1182 52.5176 54.8723C52.3554 55.0603 52.3295 55.4349 52.6056 55.5552C53.3541 55.8814 53.6295 56.7338 53.3201 57.4714C53.0813 58.0408 52.5658 58.4423 52.0365 58.7264C50.953 59.3079 49.4886 59.5833 48.2872 59.2468C47.7474 59.0956 47.517 59.9344 48.056 60.0854C49.5861 60.514 51.5055 60.138 52.821 59.2722C53.4837 58.8359 54.0573 58.2128 54.2461 57.423C54.4908 56.3994 54.042 55.239 53.0445 54.8043L53.1325 55.4873C53.6705 54.8635 53.8486 53.9977 53.5019 53.2331C53.1755 52.5128 52.4464 52.0788 51.6715 52.0392L52.047 52.6935C52.5595 51.9306 52.6016 50.8773 52.2086 50.0551C51.7768 49.152 50.8051 48.8518 49.9 49.2199L50.235 50.0146C51.6006 49.067 51.402 46.5164 49.4906 46.4685C48.5414 46.4447 47.6258 46.7877 46.6792 46.7955C45.5111 46.8051 44.3468 46.5949 43.2367 46.2405C42.7023 46.0699 42.4735 46.9093 43.0055 47.0791Z" fill="#F3F2F3"/>
<path d="M59.4986 63.3408C59.9763 68.194 60.0472 73.0809 59.7106 77.9459C59.6719 78.5045 60.5417 78.5021 60.5802 77.9459C60.9169 73.0809 60.8459 68.194 60.3682 63.3408C60.3139 62.789 59.4437 62.7833 59.4986 63.3408Z" fill="#F3F2F3"/>
<path d="M49.9295 46.2856C49.8179 46.2197 49.7398 46.141 49.6677 46.0222C49.6443 45.9836 49.6227 45.9442 49.6027 45.9038C49.5943 45.8869 49.5612 45.8106 49.5824 45.8629C49.5486 45.7795 49.5226 45.6921 49.5008 45.6048C49.4538 45.4159 49.4394 45.2687 49.4503 45.0631C49.4544 44.985 49.4609 44.9317 49.4833 44.8396C49.4958 44.7881 49.5113 44.7381 49.5276 44.6877C49.5727 44.5479 49.4963 44.7333 49.5534 44.622C49.5901 44.5504 49.629 44.4813 49.6746 44.415C49.692 44.3908 49.6912 44.3911 49.672 44.4157C49.6856 44.3987 49.6997 44.3821 49.7143 44.366C49.7384 44.3389 49.7633 44.3126 49.7894 44.2874C49.8202 44.2575 49.8523 44.2272 49.8869 44.2014C49.8289 44.2446 49.9404 44.1708 49.9407 44.1706C49.9775 44.1485 50.0159 44.1276 50.0551 44.1098C49.9855 44.1415 50.1189 44.0906 50.1224 44.0896C50.288 44.0416 50.4412 44.0412 50.633 44.0646C50.7862 44.0833 51.0208 44.1435 51.201 44.1903C51.4282 44.2493 51.6731 44.1153 51.7359 43.8866C51.7976 43.662 51.6604 43.411 51.4322 43.3517C50.9062 43.2151 50.329 43.088 49.7998 43.2814C49.3531 43.4447 48.9831 43.7904 48.7841 44.2226C48.3657 45.1316 48.5767 46.4965 49.4906 47.0365C49.9735 47.3219 50.4115 46.5704 49.9295 46.2856Z" fill="#F3F2F3"/>
<path d="M42.4067 22.0504C40.5823 19.1692 36.8536 17.5443 33.5629 18.7682C31.0275 19.7111 29.5239 22.1217 29.0312 24.694C28.7754 26.0293 28.7589 27.3929 28.9577 28.7367C29.1651 30.1386 29.6767 31.4465 30.3295 32.6988C31.8726 35.6593 34.2858 38.465 37.3974 39.8222C39.1452 40.5846 41.1138 40.8549 42.9833 40.4026C45.0449 39.9039 46.0464 37.9998 46.3645 36.042C46.4535 35.4945 45.6156 35.2589 45.526 35.8108C45.2774 37.3405 44.6152 39.0185 42.9937 39.4998C41.4863 39.9472 39.8151 39.7902 38.3491 39.2705C35.431 38.2361 33.1356 35.7692 31.5853 33.1649C30.8978 32.0101 30.2975 30.7761 29.9817 29.4643C29.7002 28.2948 29.6261 27.0789 29.7349 25.8818C29.9407 23.6177 30.9169 21.2221 32.9469 20.017C35.9531 18.2324 39.8653 19.6616 41.6558 22.4893C41.9544 22.9609 42.7073 22.5251 42.4067 22.0504Z" fill="#332E36"/>
<path d="M43.4245 25.4624C44.2693 27.005 44.8746 28.6588 45.2354 30.38C45.3502 30.9274 46.1887 30.6958 46.074 30.1488C45.6984 28.3573 45.0545 26.6288 44.1754 25.0234C43.9066 24.5324 43.1553 24.9708 43.4245 25.4624Z" fill="#332E36"/>
<path d="M31.7576 28.0608C31.3728 27.7453 31.3334 26.4908 31.3232 26.153C31.2992 25.3562 31.4248 24.5598 31.645 23.7954C31.7977 23.2655 32.3575 22.6869 32.7575 22.3229C33.1034 22.0082 33.6108 21.6622 34.0916 21.892C34.1826 21.9355 34.2541 22.0129 34.3063 22.0992C34.4995 22.4185 34.4339 22.8393 34.2551 23.1669C34.0763 23.4945 33.8005 23.756 33.5555 24.0376C33.3533 24.2698 33.1704 24.5188 33.0088 24.7808C32.6195 25.4116 32.362 26.111 32.2343 26.8403C32.1814 27.1425 32.2227 27.4029 32.2397 27.7036C32.2514 27.9114 32.2279 28.1125 31.9743 28.1322C31.892 28.1387 31.8202 28.1122 31.7576 28.0608Z" fill="#332E36"/>
<path d="M32.0646 27.7536C31.9067 27.6084 31.8596 27.2653 31.8247 27.037C31.7837 26.7695 31.769 26.4971 31.76 26.2269C31.744 25.7429 31.7732 25.2599 31.8592 24.7831C31.9433 24.3168 32.0319 23.8469 32.3057 23.4522C32.5334 23.1239 32.8315 22.8251 33.1359 22.5674C33.3438 22.3914 33.9343 21.9991 33.9868 22.5039C34.031 22.9289 33.6402 23.2941 33.3835 23.5782C33.0444 23.9536 32.7377 24.3576 32.4933 24.8014C32.2272 25.2848 32.0232 25.8087 31.8938 26.3451C31.8289 26.6137 31.7735 26.8899 31.773 27.1672C31.7727 27.3094 31.7879 27.4511 31.7972 27.5928C31.7999 27.6343 31.7912 27.7036 31.8057 27.7425C31.8061 27.7602 31.8066 27.7778 31.8074 27.7955C31.8069 27.8778 31.8633 27.8412 31.9766 27.6856C31.5061 27.3795 31.0698 28.1321 31.5377 28.4365C32.077 28.7874 32.668 28.3813 32.6765 27.7811C32.6809 27.4641 32.6188 27.1635 32.6733 26.847C32.7293 26.5215 32.8264 26.1983 32.9423 25.8894C33.179 25.2589 33.5488 24.6915 33.9985 24.1931C34.4075 23.7399 34.8136 23.2685 34.8546 22.6302C34.8938 22.0214 34.5226 21.4659 33.8979 21.3947C33.2945 21.326 32.7737 21.7104 32.357 22.1015C31.9419 22.4911 31.529 22.9379 31.3047 23.468C31.0417 24.0893 30.9467 24.828 30.9012 25.4966C30.8672 25.9974 30.8872 26.5064 30.9494 27.0046C31.0074 27.4689 31.0857 28.0336 31.4497 28.3686C31.861 28.747 32.4775 28.1336 32.0646 27.7536Z" fill="#332E36"/>
<path d="M16.9585 39.5051C19.1441 38.8656 21.3297 38.2262 23.5153 37.5867C24.0513 37.4299 23.8232 36.5904 23.2841 36.7482C21.0985 37.3876 18.9129 38.027 16.7273 38.6665C16.1913 38.8233 16.4194 39.6628 16.9585 39.5051Z" fill="#F3F2F3"/>
<path d="M38.2018 34.3605C38.6678 32.1315 39.1338 29.9025 39.5998 27.6735C39.7141 27.1268 38.8661 26.9324 38.7512 27.4822C38.2852 29.7112 37.8192 31.9402 37.3532 34.1693C37.2389 34.7159 38.0869 34.9104 38.2018 34.3605Z" fill="#332E36"/>
<path d="M41.6231 32.7157C39.8767 31.2542 38.1304 29.7928 36.384 28.3313C35.9557 27.9729 35.3846 28.6292 35.8154 28.9896C37.5617 30.4511 39.3081 31.9125 41.0545 33.374C41.4828 33.7324 42.0539 33.0762 41.6231 32.7157Z" fill="#332E36"/>
<path d="M22.6988 12.5044C23.6259 12.9951 24.5529 13.4857 25.48 13.9764C25.6809 14.0827 25.9621 14.034 26.0749 13.8204C26.1812 13.6193 26.1336 13.3391 25.9189 13.2255C24.9919 12.7348 24.0648 12.2442 23.1377 11.7535C22.9368 11.6472 22.6556 11.6959 22.5428 11.9095C22.4365 12.1106 22.4841 12.3908 22.6988 12.5044Z" fill="#F3F2F3"/>
<path d="M37.2218 53.092L36.5742 55.5476C36.5163 55.7673 36.6472 56.03 36.8779 56.0825C37.1057 56.1344 37.3507 56.0142 37.4128 55.7788L38.0604 53.3232C38.1183 53.1035 37.9874 52.8408 37.7567 52.7883C37.529 52.7364 37.2839 52.8567 37.2218 53.092Z" fill="#F3F2F3"/>
<path d="M51.7297 13.3935C52.4072 12.3823 53.294 11.522 54.333 10.8835C55.3327 10.269 56.6342 9.6581 57.8361 9.86294C60.2419 10.273 61.3659 13.2867 61.8279 15.3397C62.3959 17.8639 62.3145 20.4787 62.4531 23.0472C62.5231 24.3451 62.6056 25.688 62.9237 26.9527C63.2082 28.084 63.8152 29.1904 64.9027 29.724C66.0631 30.2934 67.3571 29.9497 68.1618 28.9621C69.1294 27.7744 69.0903 26.229 68.9786 24.7837C68.9216 24.0477 67.7629 24.0416 67.8203 24.7837C67.9136 25.9912 68.0623 27.4626 67.1168 28.3984C66.2328 29.2735 65.0401 28.7349 64.481 27.7842C63.8419 26.6973 63.7723 25.2669 63.676 24.0398C63.5763 22.7691 63.5489 21.4943 63.4995 20.2211C63.4034 17.7461 63.2319 15.2072 62.2715 12.8929C61.4277 10.8593 59.8028 8.6594 57.3605 8.6739C56.0018 8.68197 54.6066 9.31146 53.4927 10.0498C52.3905 10.7803 51.4639 11.7148 50.7296 12.8109C50.3144 13.4305 51.3173 14.0091 51.7297 13.3935Z" fill="#F3F2F3"/>
<path d="M67.4302 37.8859C66.5046 36.6861 66.6978 35.0088 67.3981 33.7499C68.0753 32.5323 69.2619 31.6123 70.5628 31.1404C73.6111 30.0346 76.8293 31.4361 79.2395 33.3179C79.8181 33.7696 79.149 34.6967 78.5677 34.2429C76.5937 32.7016 73.967 31.3726 71.4015 32.0665C70.2965 32.3654 69.26 33.0346 68.5991 33.9762C67.9815 34.8559 67.6066 36.2427 68.3239 37.1725C68.7723 37.7538 67.8812 38.4705 67.4302 37.8859Z" fill="#F3F2F3"/>
<path d="M78.1158 34.0524C78.3043 33.995 78.4887 33.9259 78.6675 33.8432C78.7457 33.8071 78.8228 33.7686 78.8986 33.7278C78.942 33.7044 78.9845 33.6798 79.0274 33.6556C79.0805 33.6241 79.0698 33.6307 78.9954 33.6751C79.0164 33.6622 79.0371 33.649 79.0579 33.6357C79.2131 33.5358 79.3618 33.4259 79.5027 33.3067C79.5779 33.2431 79.6508 33.177 79.7213 33.1083C79.7389 33.0912 79.7564 33.0738 79.7737 33.0563C79.818 33.011 79.8084 33.0214 79.7448 33.0876C79.7657 33.0491 79.8147 33.0114 79.8439 32.9782C79.9469 32.8616 80.0583 32.7747 80.2169 32.7496C80.3554 32.7277 80.5309 32.7628 80.6423 32.8517C80.8658 33.0298 80.9808 33.41 80.7689 33.6501C80.1796 34.318 79.4319 34.8384 78.5754 35.0994C78.4272 35.1446 78.2956 35.1679 78.1446 35.1112C78.0118 35.0612 77.8744 34.9404 77.8221 34.8057C77.721 34.5448 77.8099 34.1456 78.1158 34.0524Z" fill="#F3F2F3"/>
</svg>
