<svg width="24" height="24" viewBox="0 0 24 24" fill="none" xmlns="http://www.w3.org/2000/svg">
<path fill-rule="evenodd" clip-rule="evenodd" d="M21.7203 9.29V3.62C21.7203 3.19035 21.5496 2.7783 21.2458 2.47449C20.942 2.17068 20.5299 2 20.1003 2H3.90027C3.47062 2 3.05857 2.17068 2.75476 2.47449C2.45095 2.7783 2.28027 3.19035 2.28027 3.62V9.29C2.28027 14.6279 4.86417 17.8628 7.02586 19.6367C9.36372 21.5463 11.6834 22.1953 11.7846 22.2216C11.9238 22.2595 12.0706 22.2595 12.2099 22.2216C12.3111 22.1953 14.6338 21.5463 16.9686 19.6367C19.1364 17.8628 21.7203 14.6279 21.7203 9.29ZM15.727 10.1685C15.4152 10.9439 14.8483 11.6009 14.1121 12.0401C15.3215 12.4203 16.4123 13.1306 17.29 14.1305C17.3476 14.1961 17.3845 14.2761 17.3962 14.3611C17.408 14.4461 17.3941 14.5325 17.3563 14.6102C17.3185 14.6879 17.2583 14.7536 17.1828 14.7996C17.1073 14.8457 17.0196 14.8701 16.9301 14.87H7.06691C6.97772 14.8694 6.89053 14.8446 6.81555 14.7983C6.74057 14.752 6.68089 14.6862 6.64351 14.6087C6.60613 14.5311 6.59258 14.4449 6.60445 14.3602C6.61632 14.2756 6.65312 14.1959 6.71054 14.1305C7.58767 13.1306 8.67849 12.4203 9.89084 12.0401C9.15457 11.6009 8.58768 10.9439 8.27594 10.1685C7.9642 9.39313 7.92457 8.54161 8.16305 7.74275C8.40153 6.94389 8.90514 6.24116 9.59769 5.74089C10.2902 5.24061 11.134 4.97 12.0014 4.97C12.8689 4.97 13.7127 5.24061 14.4052 5.74089C15.0978 6.24116 15.6014 6.94389 15.8399 7.74275C16.0783 8.54161 16.0387 9.39313 15.727 10.1685Z" fill="#FFFFFD"/>
</svg>
