<svg width="24" height="24" viewBox="0 0 24 24" fill="none" xmlns="http://www.w3.org/2000/svg">
<path d="M14.84 12.3891L9.93155 17.3388C9.82922 17.442 9.69042 17.5 9.54569 17.5C9.40097 17.5 9.26217 17.442 9.15983 17.3388C9.05749 17.2356 9 17.0957 9 16.9497C9 16.8038 9.05749 16.6638 9.15983 16.5606L13.6831 12L9.15983 7.43938C9.05749 7.33618 9 7.19622 9 7.05028C9 6.90433 9.05749 6.76437 9.15983 6.66117C9.26217 6.55798 9.40097 6.5 9.54569 6.5C9.69042 6.5 9.82922 6.55798 9.93155 6.66117L14.84 11.6109C14.8908 11.662 14.931 11.7226 14.9584 11.7894C14.9859 11.8562 15 11.9277 15 12C15 12.0723 14.9859 12.1438 14.9584 12.2106C14.931 12.2774 14.8908 12.338 14.84 12.3891Z" fill="#FFFFFD"/>
</svg>
