<svg width="343" height="321" viewBox="0 0 343 321" fill="none" xmlns="http://www.w3.org/2000/svg">
<path d="M201.398 292.646C193.045 292.481 185.324 288.716 179.147 283.239C172.565 277.402 168.07 269.897 164.259 262.056C160.234 253.776 156.823 245.181 151.853 237.393C147.222 230.136 141.523 223.561 135.053 217.887C128.527 212.163 121.185 207.69 113.798 203.189C106.515 198.752 99.1402 194.089 93.5849 187.505C80.8364 172.396 80.9868 151.707 76.7716 133.386C74.5324 123.653 71.3155 114.196 67.7972 104.861C64.5909 96.3533 62.2126 87.4647 57.9109 79.4083C56.7909 77.3108 55.7167 75.2623 54.9358 73.006C54.1868 70.8416 53.6257 68.6164 53.1551 66.3765C52.6876 64.1511 52.3016 61.9071 51.9347 59.6631C51.6064 57.6548 51.3199 55.4639 52.0148 53.4973C52.8454 51.1462 55.1639 50.0507 57.3374 49.2166C59.6926 48.3127 62.1544 47.6648 64.6511 47.3014C69.6055 46.5801 74.6593 46.9516 79.5485 47.945C84.407 48.9322 89.234 50.1098 94.0907 51.1212C98.8573 52.1138 103.471 53.3689 108.017 55.1208C117.285 58.693 126.663 61.981 136.136 64.9708C145.721 67.9961 155.402 70.7159 165.163 73.1162C174.815 75.49 184.565 77.6165 194.471 78.5981C204.351 79.5772 214.166 79.1784 223.873 77.0475C233.44 74.9472 243.215 71.9014 253.047 74.1729C261.626 76.1549 269.12 81.1194 277.536 83.59C285.483 85.9231 294.14 85.5853 301.902 82.6992C305.534 81.3492 308.903 79.4608 311.934 77.0489C312.704 76.4363 311.616 75.3605 310.853 75.9675C304.078 81.3584 295.251 83.9407 286.641 83.575C277.56 83.1893 269.724 78.7737 261.513 75.3812C257.428 73.6932 253.204 72.3495 248.782 71.9498C243.899 71.5084 238.992 72.1795 234.21 73.1469C229.335 74.1332 224.533 75.4535 219.639 76.351C214.603 77.2746 209.483 77.6533 204.366 77.6144C194.056 77.536 183.841 75.8117 173.802 73.5781C163.913 71.378 154.106 68.7797 144.395 65.8995C134.625 63.002 124.95 59.7863 115.387 56.2685C110.71 54.5482 106.109 52.5529 101.295 51.2394C96.5526 49.9455 91.7001 49.1283 86.9014 48.0811C82.0438 47.0211 77.2993 45.7288 72.3072 45.4586C67.5106 45.199 62.6593 45.7593 58.1057 47.317C54.3323 48.6077 50.7208 50.4277 50.1643 54.7769C49.9186 56.6974 50.2168 58.6195 50.5346 60.5129C50.9242 62.8341 51.3211 65.1556 51.8248 67.4553C52.8205 72.0014 54.4048 76.0872 56.5902 80.1801C58.8551 84.4219 60.5668 88.9302 62.1645 93.457C65.3907 102.598 68.9032 111.668 71.7877 120.924C74.826 130.673 76.7338 140.557 78.3652 150.621C79.8815 159.976 81.6566 169.374 85.7507 177.995C89.5391 185.973 95.273 192.337 102.357 197.534C109.356 202.669 117.079 206.697 124.277 211.531C131.741 216.544 138.494 222.583 144.228 229.512C150.101 236.608 154.46 244.563 158.315 252.892C162.183 261.249 165.82 269.884 171.483 277.227C176.309 283.483 182.544 288.825 189.917 291.813C193.572 293.294 197.455 294.097 201.398 294.175C202.383 294.195 202.383 292.666 201.398 292.646Z" fill="#662D91"/>
<path d="M86.8532 84.2559C86.9935 84.3116 87.1382 84.3585 87.2879 84.3946C89.4977 84.9274 91.4109 82.9809 92.6782 81.2441C95.0292 78.0221 99.7558 73.2301 100.642 69.4314C101.21 66.9942 99.7864 67.0424 97.3699 65.8722C95.3256 64.8822 93.402 63.7516 91.6131 62.4076C90.2147 61.357 83.5359 56.7917 81.7748 57.2512C85.3449 56.0402 88.9151 54.8292 92.4853 53.6181C93.4349 53.296 94.495 52.875 94.8261 52.0007C95.3347 50.6581 93.805 49.452 92.466 48.7289C88.4397 46.5544 84.3057 44.5491 80.1005 42.6791C70.9424 38.6065 61.4554 35.1885 51.8886 32.0096C47.0979 30.4177 42.29 28.8593 37.4625 27.3628C33.3747 26.0956 30.1026 26.0908 31.6998 30.6928C35.2135 40.8168 40.1185 50.4821 45.252 59.992C47.7864 64.6871 50.3918 69.3499 52.9437 74.037C53.8505 75.7025 58.0133 86.6666 61.6741 83.3113C62.0055 83.0076 62.1777 82.5922 62.3408 82.1902C64.1811 77.6532 65.5788 72.299 68.11 68.0775C73.6787 73.1058 79.3086 78.0775 84.9982 82.9916C85.5609 83.4776 86.1518 83.9774 86.8532 84.2559Z" fill="#662D91"/>
<path d="M230.639 244.743C237.279 252.134 246.907 257.119 250.948 266.61C252.015 269.117 252.708 271.77 253.285 274.426C253.801 276.805 254.031 279.346 255.004 281.596C255.865 283.59 257.604 285.217 259.909 285.061C262.582 284.879 264.447 282.845 265.326 280.456C265.868 278.984 266.132 277.401 266.34 275.852C266.564 274.178 266.668 272.491 266.673 270.801C266.685 267.403 266.327 264.018 265.912 260.65L264.761 261.311C266.024 262.167 267.831 261.726 268.836 260.664C270.041 259.388 270.228 257.477 270.564 255.837C270.959 253.906 271.473 251.961 271.696 250.001C271.897 248.231 271.436 246.587 270.158 245.321C269.033 244.206 267.588 243.499 266.2 242.774C264.537 241.905 262.922 240.945 261.347 239.924C258.192 237.879 255.202 235.593 252.267 233.247C248.735 230.425 245.236 227.56 241.723 224.714C240.965 224.099 239.877 225.175 240.642 225.795C246.228 230.322 251.718 235.025 257.576 239.201C260.388 241.205 263.313 242.965 266.363 244.581C267.553 245.211 268.892 245.926 269.65 247.087C270.607 248.553 270.134 250.33 269.809 251.92C269.405 253.89 269.08 255.899 268.576 257.846C268.385 258.581 268.101 259.393 267.453 259.85C266.884 260.25 266.128 260.394 265.533 259.99C265.086 259.687 264.312 260.081 264.382 260.65C265.088 266.365 265.661 272.255 264.436 277.942C263.942 280.234 263.005 282.807 260.465 283.438C258.303 283.975 256.849 282.317 256.189 280.46C255.842 279.484 255.651 278.469 255.454 277.454C255.201 276.148 254.944 274.843 254.655 273.544C254.083 270.978 253.374 268.441 252.345 266.018C250.424 261.492 247.234 257.826 243.64 254.538C239.672 250.907 235.326 247.675 231.72 243.661C231.061 242.928 229.983 244.012 230.639 244.743Z" fill="#662D91"/>
<path d="M161.213 176.711C167.911 191.675 177.7 204.189 188.431 216.817C195.459 225.087 203.259 232.81 211.718 239.874C215.218 242.798 219.705 247.658 224.204 249.206C228.336 250.629 234.283 249.129 238.177 247.74C245.4 245.164 251.905 240.927 256.926 235.531C249.913 229.001 241.63 223.618 235.216 216.594C228.274 208.99 223.781 199.707 221.062 190.123C218.719 181.868 217.432 172.925 211.543 166.308C204.948 158.899 194.116 156.107 183.993 153.718" fill="#FFDE17"/>
<path d="M160.553 177.097C164.242 185.32 168.977 193.015 174.273 200.295C179.635 207.666 185.454 214.778 191.559 221.547C194.739 225.072 198.051 228.477 201.483 231.756C204.849 234.97 208.382 237.971 211.891 241.024C215.007 243.736 217.94 246.804 221.574 248.841C223.293 249.804 225.102 250.385 227.072 250.513C229.138 250.647 231.231 250.371 233.25 249.945C241.424 248.221 249.222 243.929 255.302 238.241C256.048 237.543 256.769 236.818 257.467 236.071C257.741 235.778 257.778 235.279 257.467 234.99C251.554 229.498 244.874 224.901 239.011 219.353C233.251 213.901 228.747 207.399 225.498 200.17C223.923 196.665 222.658 193.026 221.633 189.325C220.65 185.78 219.852 182.185 218.773 178.667C217.705 175.184 216.351 171.74 214.33 168.691C212.365 165.726 209.808 163.256 206.859 161.279C200.882 157.273 193.753 155.3 186.839 153.613C185.959 153.399 185.078 153.189 184.196 152.981C183.239 152.755 182.831 154.229 183.79 154.456C190.726 156.094 197.855 157.796 204.094 161.366C207.079 163.074 209.802 165.239 211.93 167.957C214.177 170.828 215.692 174.196 216.839 177.637C217.994 181.101 218.811 184.665 219.742 188.193C220.708 191.854 221.863 195.458 223.319 198.954C226.32 206.16 230.477 212.86 235.933 218.467C241.541 224.232 248.177 228.84 254.217 234.118C254.949 234.759 255.672 235.409 256.385 236.071V234.99C250.767 241.004 243.455 245.487 235.552 247.787C231.936 248.84 227.674 249.731 224.032 248.332C222.19 247.624 220.516 246.436 218.982 245.214C217.376 243.934 215.865 242.539 214.342 241.162C211.046 238.185 207.6 235.385 204.348 232.356C200.944 229.186 197.654 225.894 194.49 222.486C191.375 219.131 188.407 215.646 185.482 212.126C182.643 208.71 179.86 205.248 177.197 201.694C171.925 194.658 167.118 187.252 163.276 179.333C162.793 178.338 162.326 177.335 161.873 176.325C161.471 175.429 160.153 176.206 160.553 177.097Z" fill="#662D91"/>
<path d="M211.44 195.091C208.077 191.787 204.715 188.483 201.352 185.179C204.092 190.112 206.833 195.048 209.795 199.874C212.616 204.468 215.717 208.433 219.267 212.547C225.419 219.678 231.543 226.828 237.637 234C239.084 235.709 240.55 237.454 241.372 239.479C242.195 241.504 242.292 243.889 241.059 245.733C242.078 246.406 243.458 245.623 244.408 244.871C247.988 242.034 251.568 239.197 255.148 236.36C250.869 231.926 246.407 227.64 241.775 223.513" fill="#662D91"/>
<path d="M211.98 194.55C208.618 191.246 205.255 187.942 201.893 184.638C201.27 184.027 200.269 184.803 200.692 185.565C203.087 189.878 205.483 194.191 208.02 198.422C210.415 202.414 213.051 206.211 215.987 209.824C219.091 213.644 222.377 217.321 225.582 221.056C228.86 224.877 232.132 228.705 235.395 232.54C237.092 234.535 238.981 236.49 240.22 238.817C241.297 240.839 241.698 243.33 240.399 245.347C240.175 245.695 240.329 246.19 240.673 246.393C241.875 247.099 243.241 246.612 244.31 245.886C245.602 245.01 246.794 243.949 248.017 242.98C250.574 240.953 253.131 238.927 255.689 236.9C256.017 236.641 255.95 236.089 255.689 235.819C251.393 231.372 246.93 227.087 242.315 222.972C241.583 222.319 240.497 223.397 241.234 224.053C245.849 228.169 250.311 232.453 254.607 236.9V235.819C252.334 237.62 250.061 239.422 247.788 241.223C246.68 242.101 245.572 242.979 244.463 243.857C243.742 244.429 242.442 245.659 241.445 245.072L241.719 246.119C242.884 244.311 242.99 242.053 242.376 240.029C241.707 237.823 240.27 235.962 238.815 234.216C235.568 230.32 232.242 226.487 228.943 222.634C225.593 218.723 222.205 214.843 218.874 210.916C215.831 207.328 212.979 203.584 210.509 199.575C207.528 194.736 204.772 189.761 202.012 184.793L200.811 185.72C204.174 189.024 207.536 192.328 210.899 195.632C211.601 196.322 212.684 195.242 211.98 194.55Z" fill="#662D91"/>
<path d="M267.141 237.986C274.013 245.124 283.726 249.778 288.18 259.026C289.392 261.545 290.206 264.237 290.898 266.938C291.498 269.28 291.832 271.776 292.848 273.986C293.752 275.956 295.516 277.561 297.812 277.391C300.504 277.192 302.364 275.068 303.16 272.634C303.649 271.138 303.858 269.533 304.01 267.972C304.177 266.271 304.21 264.559 304.148 262.852C304.025 259.418 303.53 256.008 302.982 252.619L301.859 253.483C303.174 254.313 305.003 253.821 305.968 252.67C307.101 251.317 307.211 249.427 307.489 247.759C307.812 245.818 308.273 243.846 308.4 241.88C308.51 240.177 308.006 238.604 306.757 237.416C305.586 236.301 304.091 235.628 302.653 234.935C300.957 234.118 299.307 233.21 297.695 232.239C294.438 230.277 291.339 228.065 288.292 225.795C284.628 223.066 280.998 220.292 277.354 217.536C277.022 217.285 276.502 217.486 276.308 217.811C276.075 218.2 276.255 218.609 276.582 218.857C282.335 223.207 287.997 227.744 294.018 231.722C296.901 233.627 299.891 235.257 302.985 236.787C304.189 237.382 305.551 238.074 306.309 239.233C307.228 240.642 306.842 242.38 306.584 243.928C306.254 245.91 306.005 247.927 305.574 249.89C305.412 250.625 305.166 251.454 304.544 251.938C304.003 252.358 303.232 252.542 302.631 252.162C302.013 251.772 301.409 252.414 301.508 253.026C302.434 258.761 303.232 264.717 302.119 270.487C301.681 272.76 300.714 275.236 298.199 275.799C296.092 276.27 294.667 274.558 293.99 272.787C293.591 271.742 293.361 270.649 293.108 269.564C292.812 268.298 292.51 267.033 292.176 265.776C291.49 263.202 290.658 260.659 289.5 258.255C287.409 253.912 284.098 250.432 280.463 247.336C276.383 243.859 271.952 240.778 268.222 236.905C267.538 236.195 266.458 237.277 267.141 237.986Z" fill="#662D91"/>
<path d="M199.93 183.08C211.062 201.618 227.943 220.083 243.492 233.553C249.369 238.644 259.363 246.144 268.079 242.523C274.563 239.83 280.67 235.578 283.186 229.584C283.968 227.722 284.38 225.736 284.399 223.746C284.407 222.932 284.345 222.1 284.004 221.345C283.583 220.411 282.773 219.669 281.988 218.949C272.714 210.441 265.011 200.525 255.521 192.38C250.741 188.277 247.137 182.584 243.026 177.932C236.847 170.941 230.91 164.839 221.96 160.872C218.822 159.481 215.679 158.088 212.413 156.972C207.083 155.151 201.445 154.081 195.761 153.811" fill="#FFDE17"/>
<path d="M199.27 183.466C203.503 190.506 208.319 197.186 213.473 203.578C218.714 210.078 224.321 216.283 230.214 222.197C233.06 225.053 235.975 227.841 238.959 230.552C241.509 232.867 244.086 235.164 246.826 237.254C252.105 241.28 258.879 245.277 265.791 243.999C267.55 243.674 269.193 242.913 270.793 242.139C272.449 241.337 274.055 240.428 275.574 239.389C278.436 237.43 281.045 235.001 282.824 231.997C283.804 230.342 284.519 228.514 284.874 226.622C285.231 224.718 285.493 222.398 284.501 220.637C284.026 219.795 283.302 219.119 282.598 218.472C281.833 217.768 281.074 217.057 280.325 216.335C278.804 214.869 277.317 213.368 275.85 211.849C270.052 205.844 264.557 199.534 258.386 193.899C256.905 192.546 255.347 191.278 253.938 189.847C252.535 188.423 251.239 186.898 249.983 185.344C247.519 182.295 245.166 179.174 242.551 176.25C237.695 170.82 232.466 165.656 226.062 162.07C224.299 161.083 222.464 160.259 220.615 159.447C218.629 158.573 216.632 157.718 214.602 156.951C210.551 155.42 206.352 154.313 202.068 153.673C199.977 153.361 197.873 153.15 195.761 153.046C194.777 152.998 194.779 154.528 195.761 154.576C199.983 154.783 204.172 155.426 208.258 156.512C212.386 157.609 216.327 159.217 220.228 160.937C223.664 162.452 226.932 164.181 229.968 166.403C232.798 168.474 235.378 170.869 237.815 173.384C240.369 176.021 242.828 178.764 245.117 181.634C247.531 184.663 249.836 187.795 252.527 190.591C253.892 192.009 255.401 193.259 256.86 194.577C258.37 195.94 259.841 197.347 261.284 198.782C264.173 201.653 266.951 204.632 269.733 207.607C272.523 210.59 275.319 213.57 278.234 216.433C279.64 217.815 281.196 219.087 282.529 220.539C283.202 221.271 283.565 222.091 283.621 223.087C283.675 224.062 283.602 225.058 283.434 226.019C282.18 233.215 275.932 238.017 269.703 240.97C268.168 241.698 266.608 242.367 264.912 242.602C263.335 242.821 261.713 242.714 260.159 242.39C256.825 241.696 253.742 240.11 250.904 238.27C248.198 236.516 245.704 234.476 243.279 232.356C240.401 229.84 237.588 227.251 234.836 224.598C229.014 218.985 223.458 213.09 218.222 206.926C212.993 200.772 208.078 194.342 203.657 187.582C202.604 185.972 201.582 184.342 200.59 182.694C200.083 181.851 198.761 182.619 199.27 183.466Z" fill="#662D91"/>
<path d="M167.02 183.554C166.632 183.535 166.244 183.517 165.855 183.499C166.661 184.649 168.162 185.196 169.58 185.627C175.288 187.363 181.382 188.372 187.405 187.798C193.158 187.249 198.512 185.368 204.068 183.872C211.559 181.856 219.414 180.969 227.216 181.275C227.174 180.156 227.131 179.037 227.089 177.919C226.997 175.504 226.884 173.008 225.731 170.833C222.015 163.819 209.645 168.223 203.301 168.782C193.96 169.604 184.645 167.302 175.726 164.638" fill="#662D91"/>
<path d="M167.02 182.789C166.632 182.771 166.244 182.753 165.856 182.735C165.314 182.709 164.851 183.419 165.195 183.885C166.28 185.355 167.984 185.949 169.672 186.454C171.69 187.057 173.737 187.563 175.809 187.943C179.937 188.698 184.162 188.964 188.337 188.462C192.477 187.963 196.485 186.827 200.48 185.677C204.545 184.507 208.617 183.457 212.804 182.825C217.569 182.106 222.403 181.858 227.216 182.039C227.618 182.054 227.997 181.677 227.981 181.275C227.886 178.761 227.928 176.188 227.482 173.705C227.147 171.838 226.411 169.963 225.026 168.623C222.773 166.444 219.43 166.052 216.437 166.155C213.039 166.272 209.696 166.991 206.358 167.577C202.088 168.325 197.76 168.324 193.455 167.844C187.493 167.178 181.665 165.611 175.929 163.901C174.984 163.619 174.58 165.095 175.523 165.376C184.895 168.17 194.954 170.752 204.801 169.367C207.905 168.931 210.96 168.197 214.079 167.859C216.926 167.551 220.246 167.36 222.818 168.858C224.408 169.784 225.319 171.337 225.782 173.088C226.478 175.718 226.349 178.576 226.452 181.275L227.216 180.51C218.922 180.197 210.653 181.237 202.663 183.465C198.759 184.554 194.885 185.789 190.895 186.533C186.822 187.292 182.687 187.372 178.581 186.841C176.315 186.548 174.072 186.074 171.866 185.485C170.837 185.21 169.8 184.93 168.798 184.567C167.961 184.264 167.059 183.849 166.516 183.113L165.856 184.264C166.244 184.282 166.632 184.3 167.02 184.318C168.004 184.364 168.002 182.835 167.02 182.789Z" fill="#662D91"/>
<path d="M201.889 173.5C205.635 178.425 209.394 183.341 213.224 188.201C217.147 193.177 221.146 198.095 225.278 202.899C229.415 207.709 233.686 212.406 238.143 216.922C242.609 221.446 247.263 225.789 252.147 229.86C256.986 233.892 262.048 237.665 267.352 241.064C268.028 241.496 268.707 241.922 269.39 242.343C270.23 242.861 270.999 241.538 270.162 241.022C264.831 237.737 259.736 234.08 254.876 230.134C249.991 226.167 245.336 221.923 240.87 217.491C236.389 213.044 232.098 208.406 227.946 203.65C223.814 198.915 219.819 194.061 215.908 189.143C212.067 184.314 208.307 179.421 204.569 174.513C204.115 173.918 203.662 173.323 203.21 172.728C202.958 172.396 202.553 172.231 202.163 172.453C201.838 172.639 201.639 173.171 201.889 173.5Z" fill="#662D91"/>
<path d="M216.731 173.499C223.728 183.002 231.358 192.016 239.444 200.608C247.058 208.698 255.051 216.419 263.119 224.053C267.7 228.387 272.303 232.697 276.874 237.041C277.588 237.719 278.671 236.639 277.956 235.959C269.904 228.309 261.752 220.764 253.806 213.004C245.74 205.128 237.899 197.014 230.562 188.45C226.203 183.362 222.024 178.123 218.052 172.728C217.474 171.943 216.146 172.705 216.731 173.499Z" fill="#662D91"/>
<path d="M235.633 181.626C241.405 188.446 247.654 194.84 254.02 201.103C260.271 207.253 266.641 213.283 272.781 219.543C276.133 222.96 279.412 226.449 282.549 230.064C283.196 230.809 284.273 229.723 283.631 228.983C277.996 222.488 271.905 216.408 265.756 210.404C259.415 204.213 253 198.095 246.851 191.711C243.363 188.09 239.963 184.382 236.714 180.544C236.077 179.792 235 180.878 235.633 181.626Z" fill="#662D91"/>
<path d="M160.771 124.855C148.962 118.196 140.21 107.866 132.739 97.1843C125.267 86.5031 118.768 75.201 110.093 65.3077C107.633 62.5027 104.94 59.7703 101.519 57.9941C98.0985 56.2178 93.8112 55.5148 90.1875 56.9158C88.7491 57.4718 87.2927 58.9321 88.0943 60.1564C89.4245 62.188 85.0305 64.8721 88.1015 67.5699C86.1828 69.1839 86.7785 72.5548 89.1558 73.5357C87.4881 74.0597 87.341 76.3133 88.3428 77.6388C89.3446 78.9643 91.0178 79.7022 92.3781 80.7273C94.5969 82.3995 95.956 84.8179 97.179 87.1958C103.61 99.6989 108.554 112.85 115.375 125.219C121.555 136.425 129.35 147.147 140.079 154.985C142.699 156.899 145.62 158.681 148.947 159.083" fill="#FFDE17"/>
<path d="M161.157 124.195C154.385 120.362 148.489 115.22 143.302 109.448C138.031 103.581 133.514 97.1064 129.153 90.5494C124.449 83.4771 119.881 76.303 114.639 69.6092C109.884 63.5372 104.295 56.5348 96.1126 55.5208C94.2121 55.2853 92.2341 55.4098 90.4121 56.0241C88.9475 56.5179 87.0076 57.7145 87.1048 59.5079C87.1388 60.1356 87.6226 60.603 87.5848 61.1453C87.5541 61.5867 87.299 62.11 87.0979 62.5429C86.5593 63.702 85.9877 64.9354 86.3322 66.2402C86.5276 66.98 87.0029 67.6032 87.5609 68.1106V67.0291C85.2776 69.032 86.0327 73.0031 88.77 74.196L88.9527 72.7983C87.6409 73.2555 86.9014 74.472 86.9534 75.8487C87.0123 77.4063 87.9528 78.5528 89.1462 79.4611C90.476 80.4732 91.9597 81.2054 93.1343 82.4196C94.3464 83.6725 95.2468 85.1794 96.0629 86.7095C99.7982 93.7114 102.922 101.038 106.202 108.258C109.444 115.396 112.802 122.495 116.795 129.249C120.402 135.349 124.519 141.18 129.339 146.386C131.762 149.005 134.364 151.46 137.147 153.694C139.916 155.916 142.866 158.148 146.279 159.265C147.15 159.55 148.039 159.73 148.947 159.847C149.36 159.9 149.708 159.458 149.712 159.083C149.717 158.626 149.355 158.37 148.947 158.318C145.499 157.874 142.498 155.857 139.782 153.819C137.022 151.747 134.437 149.442 132.018 146.981C127.234 142.113 123.137 136.617 119.539 130.827C115.631 124.536 112.327 117.898 109.217 111.184C105.975 104.184 102.927 97.0925 99.5256 90.1667C98.0068 87.0743 96.5568 83.6842 94.0889 81.2089C92.9087 80.0253 91.4541 79.2738 90.1218 78.2929C89.166 77.5891 88.2593 76.5883 88.5195 75.3085C88.6163 74.8322 88.8902 74.4366 89.3593 74.2731C89.9083 74.0817 90.1973 73.161 89.5419 72.8754C87.6823 72.0649 87.0435 69.5131 88.6424 68.1106C88.9429 67.847 88.9334 67.2937 88.6424 67.0291C88.1789 66.6076 87.7844 66.1249 87.7535 65.4751C87.7294 64.9672 87.9114 64.4608 88.1057 63.9993C88.5359 62.9775 89.2252 61.9324 89.0983 60.7756C89.0639 60.4614 88.9756 60.1818 88.8307 59.9001C88.6876 59.6219 88.5729 59.4684 88.6815 59.1476C88.9136 58.4618 89.7069 57.9523 90.3337 57.6784C92.006 56.9476 93.9525 56.8271 95.7465 57.0084C99.5292 57.3909 102.911 59.3709 105.695 61.8677C108.622 64.4923 111.14 67.6035 113.557 70.6907C118.614 77.147 123.022 84.0765 127.553 90.9019C131.787 97.2793 136.157 103.588 141.192 109.367C146.095 114.993 151.644 120.106 157.98 124.083C158.77 124.579 159.573 125.056 160.385 125.516C161.243 126.001 162.015 124.68 161.157 124.195Z" fill="#662D91"/>
<path d="M196.413 180.62C195.43 181.101 194.424 181.538 193.398 181.929C184.962 185.146 175.491 185.492 166.611 183.779C152.304 181.019 140.704 172.906 133.929 160.951C124.89 145 126.791 126.252 137.06 111.345C139.81 107.354 143.065 103.576 147.226 100.785C151.854 97.6805 157.417 95.9255 163.034 94.8353C174.577 92.5953 186.728 93.0255 198.046 96.075C203.211 97.4665 208.755 99.8183 214.243 99.6905C219.203 99.575 223.289 97.9128 227.623 95.8636C234.866 92.4391 243.686 91.4999 251.296 94.1808C258.905 96.8618 264.963 103.416 265.655 110.838C266.16 116.249 263.844 121.738 259.855 125.765C255.865 129.792 250.311 132.399 244.486 133.49C239.261 134.469 233.578 135.024 228.308 135.576C224.035 136.023 219.754 136.485 216.97 139.809C213.393 144.079 214.824 149.56 214.807 154.514C214.771 165.393 206.946 175.472 196.413 180.62Z" fill="#FFDE17"/>
<path d="M196.027 179.96C184.327 185.629 169.913 185.11 157.945 180.519C147.696 176.588 139.078 169.104 133.942 159.383C128.221 148.553 127.468 135.811 131.386 124.255C133.377 118.384 136.51 112.855 140.463 108.08C142.492 105.629 144.788 103.371 147.423 101.573C150.074 99.7641 153.012 98.424 156.052 97.4154C162.537 95.2635 169.479 94.3362 176.293 94.202C183.308 94.0638 190.336 94.8649 197.129 96.6239C200.45 97.4837 203.676 98.6694 207.004 99.5008C210.302 100.325 213.628 100.692 217.01 100.227C220.12 99.7992 223.067 98.7445 225.926 97.4804C227.452 96.8059 228.939 96.0548 230.505 95.4744C231.986 94.9256 233.506 94.4793 235.049 94.1411C241.131 92.8083 247.811 93.143 253.462 95.9126C258.226 98.2473 262.404 102.288 264.132 107.388C266.027 112.981 264.413 119.09 260.764 123.606C256.891 128.399 251.09 131.307 245.143 132.58C238.511 134 231.715 134.214 225.023 135.206C222.224 135.621 219.412 136.431 217.278 138.381C215.111 140.362 214.085 143.129 213.842 146.001C213.6 148.871 214.064 151.738 214.042 154.608C214.021 157.265 213.512 159.891 212.614 162.388C210.752 167.566 207.225 172.055 202.992 175.517C200.855 177.265 198.503 178.742 196.027 179.96C195.144 180.395 195.918 181.714 196.799 181.281C206.81 176.353 215.342 166.479 215.567 154.891C215.624 151.992 215.145 149.1 215.356 146.201C215.576 143.187 216.844 140.302 219.454 138.623C221.945 137.019 225.016 136.689 227.894 136.384C231.398 136.013 234.905 135.668 238.398 135.207C241.796 134.76 245.238 134.3 248.518 133.277C251.498 132.347 254.375 131.006 256.932 129.208C262 125.647 265.781 120.219 266.406 113.957C266.965 108.356 264.499 102.974 260.562 99.0808C256.257 94.8237 250.497 92.4919 244.51 91.9755C241.214 91.6913 237.871 91.9577 234.642 92.6663C231.444 93.3684 228.539 94.6381 225.569 95.9747C222.568 97.3256 219.415 98.4632 216.122 98.8064C212.584 99.175 209.151 98.5428 205.755 97.5835C202.37 96.6277 199.053 95.474 195.623 94.6804C192.11 93.8675 188.537 93.3038 184.945 92.9789C177.815 92.3338 170.6 92.665 163.558 93.9605C157.038 95.16 150.497 97.2222 145.187 101.32C140.135 105.218 136.169 110.626 133.199 116.233C127.365 127.249 125.644 140.302 129.354 152.291C132.768 163.324 140.384 172.784 150.359 178.577C161.26 184.909 174.887 187.117 187.222 184.53C190.533 183.835 193.754 182.756 196.799 181.281C197.685 180.852 196.91 179.532 196.027 179.96Z" fill="#662D91"/>
<path d="M198.753 141.605C215.821 151.455 235.312 157.358 255.068 161.165C266.582 163.384 278.237 164.919 289.909 166.251C299.978 167.4 311.059 167.016 320.586 169.978C321.538 170.274 322.539 170.599 323.187 171.302C323.953 172.132 324.036 173.428 323.381 174.334C324.533 174.287 325.035 175.646 325.077 176.698C325.108 177.474 325.073 178.298 324.61 178.949C324.148 179.6 323.119 179.973 322.415 179.537C323.2 180.656 324.418 181.536 324.908 182.788C325.397 184.039 324.518 185.854 323.082 185.635C322.473 185.542 321.864 185.1 321.302 185.335C322.525 186.392 323.406 188.197 322.382 189.417C321.199 190.828 318.776 190.172 316.993 189.46C311.872 187.416 307.153 186.721 301.669 187.64C302.318 189.486 302.949 191.339 303.102 193.303C303.14 193.802 303.147 194.333 302.87 194.764C302.164 195.865 300.315 195.527 299.129 194.853C296.17 193.173 294.094 190.332 290.952 188.954C289.323 188.239 287.508 187.967 285.716 187.753C282.234 187.337 278.724 187.11 275.213 187.072C268.378 186.999 261.558 187.151 254.739 186.67C231.668 185.043 208.639 180.317 188.007 170.748" fill="#FFDE17"/>
<path d="M198.366 142.266C205.591 146.425 213.208 149.873 221.029 152.747C229.003 155.678 237.189 158.012 245.465 159.919C254.128 161.916 262.895 163.439 271.693 164.702C280.502 165.967 289.348 167.13 298.231 167.707C302.452 167.981 306.682 168.214 310.881 168.746C312.947 169.008 315.005 169.353 317.036 169.818C318.046 170.05 319.05 170.312 320.042 170.611C320.874 170.862 321.847 171.09 322.502 171.698C323.164 172.311 323.199 173.222 322.721 173.948C322.392 174.448 322.829 175.088 323.381 175.099C324.217 175.115 324.317 176.403 324.32 177.018C324.324 177.748 323.929 179.465 322.801 178.877C322.182 178.554 321.272 179.26 321.754 179.923C322.244 180.597 322.824 181.183 323.369 181.809C323.823 182.33 324.349 182.976 324.273 183.712C324.224 184.184 323.933 184.814 323.403 184.886C323.063 184.932 322.696 184.719 322.378 184.626C321.942 184.498 321.538 184.471 321.099 184.598C320.57 184.751 320.323 185.481 320.761 185.876C321.398 186.449 322.125 187.311 322.066 188.233C322.009 189.118 321.153 189.471 320.378 189.486C318.401 189.523 316.467 188.382 314.625 187.802C310.332 186.451 305.901 186.178 301.465 186.902C301.076 186.966 300.805 187.484 300.931 187.843C301.269 188.805 301.603 189.768 301.867 190.753C302.125 191.716 302.507 192.946 302.349 193.952C302.087 195.621 299.531 194.236 298.777 193.74C295.787 191.773 293.542 188.9 290.018 187.793C288.03 187.169 285.902 186.989 283.838 186.783C281.689 186.568 279.532 186.426 277.373 186.355C272.923 186.208 268.466 186.304 264.015 186.249C255.497 186.145 246.996 185.404 238.562 184.228C230.391 183.089 222.279 181.502 214.308 179.372C205.432 176.999 196.734 173.948 188.393 170.088C187.505 169.677 186.728 170.995 187.621 171.408C195.283 174.954 203.236 177.846 211.357 180.146C219.574 182.473 227.953 184.205 236.4 185.451C245.042 186.726 253.776 187.597 262.514 187.756C267.106 187.839 271.701 187.754 276.293 187.854C278.588 187.904 280.881 188.036 283.167 188.248C285.319 188.447 287.539 188.618 289.612 189.268C293.212 190.398 295.462 193.628 298.649 195.459C299.872 196.162 301.684 196.669 302.941 195.772C304.535 194.635 303.78 192.021 303.374 190.47C303.105 189.442 302.758 188.438 302.406 187.436L301.872 188.377C304.426 187.96 307.042 187.874 309.61 188.222C312.154 188.567 314.576 189.35 316.964 190.266C318.693 190.93 321.118 191.604 322.679 190.206C324.452 188.619 323.317 186.121 321.843 184.795L321.505 186.073C321.985 185.934 322.588 186.349 323.082 186.399C323.523 186.444 323.97 186.365 324.363 186.154C325.079 185.768 325.564 185.015 325.732 184.23C326.202 182.033 324.21 180.713 323.075 179.151L322.029 180.198C322.88 180.641 323.852 180.538 324.63 179.984C325.457 179.396 325.776 178.424 325.839 177.446C325.943 175.813 325.365 173.608 323.381 173.57L324.041 174.72C325.041 173.202 324.567 171.263 323.112 170.238C322.358 169.708 321.435 169.436 320.562 169.17C319.533 168.857 318.492 168.584 317.443 168.343C313.302 167.395 309.059 166.946 304.829 166.621C300.5 166.289 296.16 166.101 291.838 165.688C287.269 165.251 282.709 164.652 278.158 164.057C268.932 162.851 259.731 161.409 250.624 159.491C242.139 157.705 233.732 155.505 225.519 152.715C217.39 149.954 209.454 146.606 201.91 142.499C200.98 141.992 200.056 141.474 199.138 140.945C198.284 140.453 197.513 141.774 198.366 142.266Z" fill="#662D91"/>
<path d="M271.864 154.013C267.933 156.409 262.788 156.601 258.36 155.833C256.203 155.459 254.051 154.841 252.119 153.795C249.824 152.552 247.569 150.691 246.781 148.106C245.053 142.438 251.762 139.122 256.266 138.23C258.913 137.706 261.481 137.852 264.115 138.338C266.618 138.801 269.251 139.212 271.498 140.48C273.951 141.864 275.706 144.397 275.775 147.261C275.844 150.103 274.216 152.536 271.864 154.013C271.032 154.536 271.799 155.86 272.636 155.334C275.051 153.817 276.846 151.461 277.226 148.587C277.599 145.769 276.538 142.912 274.558 140.896C272.571 138.875 269.828 137.952 267.121 137.368C264.259 136.75 261.363 136.168 258.422 136.401C255.463 136.636 252.475 137.445 249.922 138.99C247.504 140.453 245.323 142.702 245.012 145.631C244.693 148.635 246.406 151.427 248.641 153.287C250.66 154.968 253.062 156.089 255.584 156.781C258.426 157.561 261.437 157.871 264.379 157.681C267.247 157.495 270.159 156.843 272.636 155.334C273.475 154.823 272.708 153.499 271.864 154.013Z" fill="#662D91"/>
<path d="M282.517 105.231C282.261 103.383 283.381 101.599 284.841 100.561C286.311 99.5168 288.109 98.9707 289.905 98.913C293.162 98.8085 296.81 100.326 297.861 103.655C298.331 105.145 298.236 106.794 297.417 108.147C296.766 109.22 295.739 110.037 294.616 110.572C292.443 111.608 289.818 111.514 287.586 110.727C285.093 109.848 282.968 107.915 282.517 105.231C282.355 104.263 280.88 104.673 281.042 105.638C282.061 111.71 289.902 114.271 295.067 112.038C296.45 111.439 297.654 110.477 298.524 109.244C299.62 107.689 299.896 105.679 299.494 103.843C298.598 99.7471 294.527 97.5021 290.577 97.3832C285.97 97.2445 280.307 100.336 281.042 105.638C281.099 106.05 281.621 106.267 281.983 106.172C282.425 106.055 282.574 105.638 282.517 105.231Z" fill="#662D91"/>
<path d="M189.666 183.466C195.335 192.688 201.703 201.491 208.589 209.842C212.023 214.008 215.588 218.082 219.355 221.951C223.16 225.859 227.218 229.512 231.391 233.02C236.124 237 241.006 240.796 245.887 244.59C246.215 244.845 246.647 244.904 246.968 244.59C247.235 244.329 247.294 243.762 246.968 243.509C238.325 236.789 229.643 230.051 221.869 222.317C214.239 214.726 207.367 206.306 201.026 197.621C197.489 192.777 194.128 187.804 190.987 182.694C190.472 181.857 189.149 182.624 189.666 183.466Z" fill="#662D91"/>
<path d="M177.006 185.26C182.808 195.348 189.867 204.601 197.673 213.215C201.284 217.2 205.031 221.06 208.797 224.899C212.645 228.822 216.43 232.816 220.341 236.677C225.21 241.484 230.394 245.998 236.122 249.761C236.947 250.303 237.714 248.979 236.894 248.44C227.113 242.015 219.243 233.353 211.098 225.06C203.571 217.397 196.093 209.665 189.506 201.161C185.405 195.866 181.666 190.294 178.327 184.488C177.837 183.635 176.514 184.404 177.006 185.26Z" fill="#662D91"/>
<path d="M92.8945 62.1024C93.4914 62.3014 94.0882 62.5004 94.6851 62.6994C94.8674 62.7602 95.1119 62.7174 95.2744 62.6223C95.433 62.5295 95.5843 62.3476 95.6258 62.1653C95.7219 61.7432 95.4983 61.3602 95.0917 61.2246C94.4948 61.0256 93.898 60.8266 93.3011 60.6276C93.1188 60.5669 92.8743 60.6097 92.7119 60.7047C92.5532 60.7976 92.4019 60.9795 92.3604 61.1618C92.2643 61.5839 92.4879 61.9669 92.8945 62.1024Z" fill="#662D91"/>
<path d="M92.6691 67.0859C93.2716 67.3623 93.8742 67.6385 94.4766 67.9149C94.6684 68.0028 94.855 68.05 95.0659 67.992C95.2433 67.9431 95.4355 67.806 95.5229 67.6405C95.6167 67.463 95.6637 67.2481 95.6 67.0513C95.5422 66.8726 95.4265 66.6758 95.2486 66.5943C94.6461 66.3179 94.0436 66.0417 93.4411 65.7653C93.2493 65.6774 93.0627 65.6302 92.8518 65.6882C92.6744 65.7371 92.4822 65.8742 92.3948 66.0397C92.301 66.2172 92.254 66.4321 92.3177 66.6289C92.3755 66.8076 92.4912 67.0044 92.6691 67.0859Z" fill="#662D91"/>
<path d="M93.9634 75.1687C94.9476 75.1687 94.9492 73.6393 93.9634 73.6393C92.9793 73.6393 92.9777 75.1687 93.9634 75.1687Z" fill="#662D91"/>
<path d="M195.918 185.419C197.951 188.574 200.088 191.662 202.328 194.674C203.429 196.154 204.554 197.616 205.702 199.061C206.808 200.452 207.833 201.756 209.44 202.589C211.171 203.485 212.734 204.386 214.06 205.846C214.724 206.576 215.803 205.492 215.142 204.765C214.027 203.537 212.689 202.524 211.212 201.769C210.502 201.406 209.748 201.09 209.11 200.604C208.431 200.085 207.904 199.377 207.373 198.717C205.055 195.833 202.836 192.87 200.718 189.836C199.526 188.128 198.367 186.398 197.239 184.647C196.708 183.822 195.383 184.588 195.918 185.419Z" fill="#662D91"/>
<path d="M96.6792 168.84C84.3576 170.43 71.9577 171.513 59.5295 172.087C50.0085 172.526 38.1207 174.836 28.9473 172.502C28.1501 172.299 27.3315 172.061 26.7168 171.555C21.1336 166.959 32.5828 158.253 37.3909 158.357C39.909 158.412 42.711 159.586 43.2926 161.824C42.0148 162.541 40.2294 162.062 39.2538 161.022C38.2782 159.981 37.9837 158.534 38.0261 157.165C38.1793 152.21 42.4793 147.819 47.6774 146.391C52.8755 144.963 58.6665 146.196 63.2019 148.92C65.4943 150.297 67.5924 152.136 68.4814 154.507C69.3703 156.877 68.7574 159.834 66.5188 161.282C66.1377 161.529 65.6967 161.733 65.2298 161.726C64.1583 161.707 63.4689 160.533 63.6887 159.575C63.9085 158.617 64.7376 157.882 65.5796 157.277C70.9095 153.445 78.5288 152.463 84.8117 154.799C91.0946 157.135 95.7962 162.698 96.6792 168.84Z" fill="#FFDE17"/>
<path d="M96.6792 168.075C88.5317 169.125 80.3565 169.956 72.164 170.563C68.1014 170.864 64.0348 171.11 59.9656 171.302C56.4692 171.466 52.9883 171.816 49.5035 172.135C45.8944 172.465 42.2748 172.762 38.648 172.765C35.2782 172.767 31.8006 172.567 28.5523 171.602C27.5207 171.295 26.5819 170.646 26.1796 169.657C25.8956 168.96 25.9347 168.231 26.1649 167.474C26.7405 165.581 28.2904 164.006 29.7667 162.758C31.3698 161.402 33.2478 160.215 35.2434 159.536C37.2556 158.851 39.8159 159.006 41.559 160.514C42.0355 160.927 42.3832 161.419 42.5551 162.027L42.9066 161.163C41.6477 161.821 40.0713 161.077 39.3899 159.937C38.6252 158.657 38.6705 156.986 39.0002 155.578C39.6595 152.763 41.6458 150.402 44.0394 148.856C49.8335 145.113 57.5941 146.285 63.1959 149.814C65.7037 151.394 68.2948 153.855 68.0958 157.069C68.0142 158.386 67.4001 159.697 66.3256 160.49C65.8411 160.848 65.1253 161.232 64.6593 160.646C64.2477 160.128 64.4275 159.507 64.7905 159.018C65.2575 158.389 65.9494 157.929 66.596 157.504C67.263 157.066 67.9586 156.673 68.6756 156.323C70.1474 155.605 71.7172 155.092 73.3183 154.754C76.4857 154.086 79.8304 154.153 82.9559 155.006C88.7434 156.585 93.7775 161.097 95.4803 166.921C95.6838 167.617 95.8349 168.326 95.9418 169.043C96.0031 169.455 96.518 169.673 96.8824 169.577C97.3212 169.462 97.4771 169.043 97.4165 168.637C96.375 161.649 90.8078 155.897 84.1952 153.778C80.5966 152.625 76.6886 152.499 72.9972 153.262C71.1521 153.643 69.3557 154.269 67.6729 155.117C66.1325 155.893 64.256 156.92 63.3397 158.44C62.4656 159.891 62.99 162.07 64.8133 162.442C66.533 162.793 68.2017 161.129 68.9137 159.729C70.6148 156.384 69.0548 152.74 66.4659 150.376C63.5841 147.744 59.7128 146.036 55.8912 145.362C52.0665 144.686 48.0283 145.014 44.538 146.802C41.5079 148.355 38.9172 150.978 37.7971 154.232C36.7108 157.388 37.1762 162.189 41.1835 162.862C42.0514 163.008 42.8971 162.892 43.6784 162.484C43.9744 162.329 44.1185 161.934 44.0299 161.62C43.223 158.766 39.6696 157.387 36.9312 157.607C34.8284 157.776 32.7934 158.81 31.0455 159.931C29.0385 161.218 27.1514 162.829 25.8025 164.812C24.6725 166.472 23.9732 168.585 24.8913 170.501C25.4525 171.671 26.5208 172.51 27.7248 172.941C29.349 173.522 31.1332 173.772 32.8385 173.979C36.5744 174.431 40.3602 174.339 44.108 174.099C47.8867 173.857 51.6507 173.439 55.4237 173.126C59.473 172.792 63.5376 172.667 67.5923 172.408C76.227 171.856 84.8458 171.057 93.4348 170.011C94.5167 169.88 95.5981 169.744 96.6791 169.605C97.092 169.551 97.4391 169.291 97.4438 168.84C97.4477 168.467 97.0888 168.022 96.6792 168.075Z" fill="#662D91"/>
<path d="M63.0101 64.7105C64.0304 65.5886 65.0508 66.4668 66.0712 67.3449C66.3742 67.6056 66.8591 67.6648 67.1527 67.3449C67.4157 67.0584 67.4765 66.5421 67.1527 66.2634C66.1323 65.3853 65.1119 64.5071 64.0915 63.629C63.7886 63.3683 63.3037 63.3091 63.0101 63.629C62.7471 63.9155 62.6863 64.4318 63.0101 64.7105Z" fill="#FFDE17"/>
<path d="M75.4136 54.0271C76.9836 55.0278 78.5537 56.0284 80.1237 57.029C80.4617 57.2444 80.9822 57.1102 81.17 56.7547C81.3699 56.3764 81.2564 55.9383 80.8957 55.7084C79.3256 54.7078 77.7556 53.7072 76.1855 52.7065C75.8476 52.4912 75.3271 52.6254 75.1392 52.9809C74.9394 53.3592 75.0529 53.7973 75.4136 54.0271Z" fill="#FFDE17"/>
<path d="M17.7137 30.6139C18.6928 30.8821 19.6718 31.1504 20.651 31.4186C21.0364 31.5242 21.4999 31.2875 21.5916 30.8845C21.6836 30.4808 21.4704 30.0569 21.0575 29.9438C20.0784 29.6756 19.0994 29.4074 18.1203 29.1391C17.7348 29.0335 17.2714 29.2702 17.1796 29.6732C17.0877 30.0769 17.3008 30.5008 17.7137 30.6139Z" fill="#662D91"/>
<path d="M22.2762 40.0738C22.57 39.7162 22.8637 39.3585 23.1574 39.0009C23.232 38.9317 23.2847 38.8496 23.3155 38.7548C23.3634 38.6636 23.3854 38.5654 23.3814 38.4601C23.3854 38.3549 23.3634 38.2566 23.3155 38.1655C23.2847 38.0707 23.232 37.9887 23.1574 37.9194C23.0117 37.7856 22.8204 37.6863 22.6167 37.6954C22.4256 37.704 22.2026 37.7652 22.0759 37.9194C21.7822 38.2771 21.4885 38.6347 21.1947 38.9923C21.1201 39.0616 21.0675 39.1436 21.0366 39.2384C20.9888 39.3296 20.9668 39.4278 20.9708 39.5331C20.9668 39.6384 20.9888 39.7366 21.0366 39.8277C21.0675 39.9225 21.1202 40.0046 21.1947 40.0738C21.3405 40.2076 21.5318 40.3069 21.7355 40.2978C21.9266 40.2893 22.1496 40.2281 22.2762 40.0738Z" fill="#662D91"/>
<path d="M28.9622 50.2627V49.1897C28.9622 48.9936 28.8769 48.7877 28.7382 48.649C28.669 48.5744 28.5869 48.5217 28.4921 48.4909C28.401 48.443 28.3028 48.421 28.1975 48.425C27.9997 48.4339 27.7946 48.4989 27.6567 48.649C27.5194 48.7986 27.4327 48.9826 27.4327 49.1898V50.2627C27.4327 50.4588 27.5181 50.6647 27.6567 50.8035C27.726 50.878 27.808 50.9307 27.9028 50.9616C27.994 51.0094 28.0922 51.0314 28.1975 51.0274C28.3952 51.0185 28.6004 50.9536 28.7382 50.8034C28.8756 50.6538 28.9622 50.4699 28.9622 50.2627Z" fill="#662D91"/>
<path d="M221.469 57.4218C219.044 56.6789 216.366 55.7226 214.733 53.6644C213.103 51.6084 213.005 48.6898 213.621 46.2384C214.815 41.4818 218.808 37.6931 223.529 36.5024C228.203 35.324 233.693 36.5043 237.185 39.9146C237.775 40.4916 239.263 42.0516 238.202 42.8478C237.986 43.0103 237.555 43.1889 237.295 43.0414C236.835 42.7798 237.369 42.0025 237.556 41.7244C238.968 39.6261 241.083 37.788 243.25 36.5119C245.463 35.2086 248.065 34.3983 250.653 34.6343C253.002 34.8486 255.331 36.0155 256.879 37.7972C258.292 39.4232 258.921 41.8155 257.654 43.7122C257.043 44.6271 255.999 45.4006 254.873 45.4728C254.615 45.4893 253.58 45.4781 253.501 45.1261C253.397 44.6705 254.453 44.1879 254.751 44.0518C257.278 42.8983 260.118 43.4108 262.609 44.3681C264.975 45.2776 267.314 46.6047 268.964 48.5663C270.466 50.3526 271.101 52.8333 270.266 55.0633C269.283 57.687 266.462 58.5429 263.962 59.0371C257.68 60.2794 251.21 60.2401 244.837 60.0095C238.596 59.7838 232.279 59.7744 226.128 58.5757C224.556 58.2693 223.002 57.8841 221.469 57.4218C220.525 57.1371 220.121 58.6128 221.063 58.8967C228.045 61.0018 235.314 61.1992 242.545 61.4538C249.898 61.7126 257.317 61.9412 264.571 60.4715C267.63 59.8517 270.65 58.5451 271.766 55.3983C272.732 52.6739 271.887 49.7141 270.096 47.5469C268.191 45.2414 265.39 43.7554 262.622 42.7463C259.725 41.6898 256.197 41.3505 253.438 43.0129C252.198 43.7601 251.239 45.584 252.838 46.5469C254.074 47.2916 255.721 47.0641 256.931 46.3985C259.433 45.0231 260.458 41.9933 259.522 39.3423C258.595 36.7138 256.274 34.8346 253.746 33.8308C250.949 32.7204 247.825 32.9087 245.041 33.9654C242.197 35.0447 239.703 36.9148 237.678 39.1685C236.763 40.1881 235.366 41.5781 235.631 43.0821C235.886 44.5286 237.475 44.8987 238.656 44.3401C240.033 43.6884 240.362 42.1844 239.776 40.8504C239.166 39.464 237.876 38.376 236.674 37.5054C234.346 35.8189 231.515 34.8803 228.667 34.6115C222.806 34.0584 217.012 36.7845 213.875 41.8029C212.382 44.1914 211.543 47.0842 211.792 49.9098C211.933 51.5123 212.408 53.0966 213.381 54.3967C214.282 55.6015 215.489 56.5226 216.812 57.224C218.16 57.9383 219.608 58.4511 221.063 58.8967C222.006 59.1856 222.409 57.7097 221.469 57.4218Z" fill="#662D91"/>
<path d="M152.407 114.638C151.783 113.647 150.872 112.772 149.882 111.996C145.495 108.56 138.908 105.37 133.789 109.487C130.798 111.892 129.062 115.713 129.549 119.339C130.071 123.229 133.109 126.777 137.159 128.074C141.21 129.371 146.076 128.292 148.936 125.369C150.915 123.347 152.783 120.853 153.197 118.106C153.392 116.813 153.053 115.663 152.407 114.638Z" fill="#FFDE17"/>
<path d="M153.068 114.252C151.717 112.168 149.534 110.636 147.43 109.377C145.386 108.154 143.137 107.192 140.762 106.881C138.394 106.572 135.977 107.034 133.989 108.391C131.919 109.804 130.329 111.888 129.435 114.221C127.726 118.678 129.256 123.623 132.92 126.604C136.656 129.644 141.834 130.168 146.195 128.188C148.731 127.036 150.723 124.865 152.213 122.554C153.007 121.323 153.654 119.939 153.906 118.488C154.167 116.979 153.864 115.555 153.068 114.252C152.555 113.414 151.232 114.181 151.747 115.024C152.357 116.022 152.626 117.097 152.398 118.259C152.173 119.405 151.698 120.47 151.092 121.464C149.968 123.307 148.428 125.147 146.561 126.27C143.028 128.396 138.367 128.393 134.89 126.159C131.489 123.975 129.512 119.912 130.505 115.911C131.519 111.823 135.079 108.251 139.45 108.31C141.79 108.342 144.055 109.228 146.073 110.359C148.144 111.52 150.435 112.999 151.747 115.024C152.281 115.847 153.605 115.082 153.068 114.252Z" fill="#662D91"/>
<path d="M143.518 112.042C142.39 110.796 140.565 110.059 138.798 110.26C135.237 110.666 132.732 113.898 132.613 117.032C132.547 118.779 133.3 120.76 134.65 122.011C140.131 127.085 147.564 116.515 143.518 112.042Z" fill="#662D91"/>
<path d="M144.058 111.501C141.441 108.703 137.157 109.001 134.452 111.488C131.873 113.86 131.099 117.674 132.764 120.789C134.044 123.183 136.714 124.715 139.406 123.881C141.705 123.168 143.528 121.172 144.526 119.039C145.656 116.622 145.936 113.627 144.058 111.501C143.405 110.762 142.327 111.847 142.977 112.583C144.192 113.959 144.056 115.942 143.486 117.574C142.861 119.36 141.593 121.063 139.928 121.999C138.267 122.932 136.446 122.711 135.07 121.355C132.937 119.252 132.941 115.957 134.611 113.6C136.538 110.882 140.55 109.987 142.977 112.583C143.65 113.303 144.73 112.22 144.058 111.501Z" fill="#662D91"/>
<path d="M178.921 121.134C178.297 120.143 177.386 119.268 176.395 118.492C172.009 115.056 165.422 111.867 160.303 115.983C157.312 118.388 155.576 122.209 156.062 125.835C156.585 129.725 159.623 133.273 163.673 134.57C167.723 135.867 172.59 134.788 175.45 131.865C177.429 129.843 179.296 127.349 179.711 124.602C179.906 123.309 179.566 122.159 178.921 121.134Z" fill="#FFDE17"/>
<path d="M179.581 120.748C178.231 118.664 176.047 117.132 173.944 115.874C171.9 114.651 169.65 113.688 167.275 113.377C164.908 113.068 162.491 113.53 160.502 114.887C158.433 116.3 156.843 118.385 155.948 120.717C154.239 125.174 155.77 130.12 159.434 133.101C163.17 136.14 168.348 136.664 172.708 134.684C175.244 133.533 177.236 131.361 178.726 129.05C179.52 127.819 180.168 126.436 180.419 124.984C180.681 123.475 180.377 122.051 179.581 120.748C179.069 119.91 177.746 120.677 178.261 121.52C178.871 122.519 179.14 123.593 178.911 124.755C178.686 125.901 178.211 126.966 177.606 127.96C176.482 129.803 174.942 131.643 173.075 132.766C169.541 134.892 164.88 134.889 161.404 132.656C158.003 130.471 156.026 126.408 157.018 122.407C158.032 118.32 161.593 114.747 165.963 114.806C168.304 114.838 170.569 115.724 172.587 116.855C174.658 118.016 176.948 119.495 178.261 121.52C178.794 122.344 180.119 121.578 179.581 120.748Z" fill="#662D91"/>
<path d="M170.031 118.538C168.903 117.292 167.079 116.555 165.312 116.757C161.75 117.162 159.245 120.394 159.127 123.529C159.061 125.275 159.813 127.257 161.164 128.507C166.644 133.582 174.078 123.011 170.031 118.538Z" fill="#662D91"/>
<path d="M170.572 117.998C167.955 115.199 163.67 115.497 160.966 117.984C158.386 120.356 157.612 124.17 159.278 127.285C160.558 129.679 163.228 131.211 165.92 130.377C168.219 129.664 170.042 127.668 171.039 125.535C172.169 123.118 172.45 120.123 170.572 117.998C169.919 117.258 168.841 118.343 169.49 119.079C170.706 120.455 170.57 122.438 169.999 124.07C169.374 125.856 168.106 127.559 166.442 128.495C164.781 129.429 162.959 129.207 161.583 127.851C159.45 125.748 159.454 122.453 161.125 120.096C163.051 117.378 167.064 116.484 169.49 119.079C170.164 119.799 171.244 118.716 170.572 117.998Z" fill="#662D91"/>
<path d="M155.504 123.035C154.693 122.307 153.631 121.816 152.508 121.65C151.823 121.549 151.125 121.567 150.431 121.578C150.071 121.584 149.654 121.564 149.438 121.301C149.232 121.052 149.306 120.699 149.41 120.402C149.574 119.931 149.79 119.477 150.005 119.023C150.095 118.834 150.19 118.638 150.365 118.507C150.589 118.34 150.898 118.313 151.187 118.302C153.101 118.227 155.031 118.54 156.8 119.211C156.844 119.228 156.893 119.249 156.914 119.289C156.935 119.328 156.923 119.375 156.91 119.418C156.634 120.345 156.358 121.273 156.081 122.201" fill="#662D91"/>
<path d="M155.969 122.57C155.04 121.755 153.907 121.204 152.683 121.016C151.981 120.908 151.278 120.908 150.57 120.918C150.394 120.92 150.081 120.976 149.922 120.863C150.018 120.931 149.945 120.896 149.982 120.781C150.025 120.648 150.065 120.516 150.115 120.385C150.232 120.076 150.373 119.777 150.514 119.479C150.593 119.313 150.656 119.096 150.822 119.006C151.018 118.9 151.394 118.951 151.607 118.949C151.958 118.946 152.308 118.956 152.658 118.978C153.321 119.02 153.978 119.113 154.627 119.254C154.945 119.323 155.26 119.403 155.572 119.494C155.75 119.546 155.927 119.601 156.103 119.66C156.19 119.689 156.278 119.719 156.365 119.75C156.505 119.82 156.533 119.822 156.449 119.754L156.279 119.464L156.29 119.527V119.177C156.077 120.136 155.727 121.084 155.447 122.026C155.205 122.84 156.475 123.187 156.716 122.376C156.944 121.611 157.172 120.845 157.4 120.08C157.49 119.775 157.644 119.435 157.549 119.114C157.427 118.703 157.009 118.584 156.649 118.458C155.214 117.954 153.688 117.683 152.168 117.639C151.5 117.619 150.671 117.549 150.077 117.911C149.498 118.263 149.255 119.049 149.006 119.64C148.74 120.269 148.445 121.002 148.87 121.633C149.281 122.245 150.052 122.241 150.709 122.231C151.505 122.22 152.298 122.225 153.071 122.443C153.795 122.647 154.472 123.003 155.039 123.5C155.673 124.057 156.607 123.13 155.969 122.57Z" fill="#662D91"/>
<path d="M150.031 127.897C148.835 126.966 147.112 126.397 145.72 127.291C144.369 128.16 143.947 130.004 144.568 131.435C144.891 132.178 145.484 132.787 146.187 133.18C146.928 133.593 147.592 132.456 146.852 132.043C145.769 131.44 145.212 130.158 145.871 129.012C146.578 127.782 148.112 128.058 149.1 128.827C149.381 129.045 149.758 129.1 150.031 128.827C150.258 128.6 150.313 128.116 150.031 127.897Z" fill="#662D91"/>
<path d="M145.282 136.556C143.968 136.983 144.131 138.538 144.855 139.429C145.75 140.53 147.273 140.85 148.6 141.079C151.415 141.565 154.618 141.337 156.727 139.183C157.32 138.578 156.39 137.646 155.796 138.253C154.358 139.722 152.234 140.098 150.255 139.967C149.189 139.897 148.058 139.721 147.05 139.355C146.622 139.199 146.186 138.978 145.888 138.622C145.818 138.538 145.407 137.899 145.632 137.825C146.434 137.565 146.091 136.293 145.282 136.556Z" fill="#662D91"/>
<path d="M155.742 137.422C155.842 137.818 155.933 138.217 156.042 138.61C156.097 138.811 156.182 139.002 156.31 139.168C156.399 139.283 156.484 139.368 156.613 139.449C156.767 139.546 156.926 139.571 157.103 139.592C157.258 139.61 157.462 139.505 157.568 139.399C157.682 139.285 157.768 139.098 157.761 138.934C157.753 138.763 157.697 138.587 157.568 138.468L157.435 138.366C157.332 138.306 157.221 138.276 157.102 138.276L157.08 138.273L157.255 138.297C157.227 138.292 157.201 138.284 157.174 138.274L157.331 138.341C157.3 138.327 157.272 138.31 157.244 138.289L157.377 138.392C157.345 138.366 157.317 138.336 157.292 138.304L157.395 138.437C157.356 138.384 157.326 138.327 157.3 138.267L157.367 138.425C157.286 138.227 157.248 138.011 157.196 137.805L157.011 137.073C156.927 136.739 156.535 136.505 156.202 136.613C155.856 136.725 155.652 137.065 155.742 137.422Z" fill="#662D91"/>
<path d="M150.065 108.061C152.249 107.45 154.565 107.578 156.675 108.405C157.006 108.535 157.397 108.262 157.484 107.945C157.587 107.572 157.357 107.266 157.024 107.136C154.711 106.229 152.105 106.123 149.716 106.792C148.901 107.02 149.247 108.29 150.065 108.061Z" fill="#662D91"/>
<path d="M167.075 109.46C169.811 109.145 172.687 109.865 174.825 111.641C175.472 112.179 176.408 111.253 175.755 110.711C173.358 108.719 170.17 107.788 167.075 108.144C166.722 108.184 166.417 108.417 166.417 108.802C166.417 109.126 166.719 109.501 167.075 109.46Z" fill="#662D91"/>
<path d="M198.625 141.862C191.364 137.78 183.815 134.124 176.041 130.924C175.676 130.773 175.27 130.584 175.158 130.233C175.063 129.937 175.213 129.626 175.36 129.347C175.725 128.652 176.091 127.957 176.456 127.262C176.573 127.04 176.706 126.803 176.949 126.695C177.252 126.56 177.611 126.676 177.923 126.793C181.695 128.208 185.422 129.724 189.097 131.339C193.075 133.088 196.992 134.953 200.908 136.817C202.246 137.455 203.585 138.092 204.924 138.73C206.268 139.37 207.613 140.01 208.953 140.656C210.911 141.599 212.861 142.556 214.804 143.525C215.544 143.894 216.311 144.289 216.778 144.929C217.596 146.053 217.252 147.544 216.878 148.85C216.793 149.148 216.677 149.481 216.373 149.615C216.086 149.741 215.747 149.638 215.452 149.529C213.313 148.736 211.302 147.684 209.3 146.635C206.194 145.009 203.088 143.382 199.982 141.755" fill="#662D91"/>
<path d="M198.957 141.294C193.612 138.292 188.134 135.527 182.543 133.012C181.139 132.381 179.729 131.765 178.312 131.165C177.65 130.885 176.983 130.616 176.322 130.333C176.202 130.282 176.074 130.235 175.963 130.164C175.758 130.033 175.789 130.088 175.842 129.85C175.921 129.492 176.257 129.053 176.426 128.732C176.592 128.416 176.758 128.099 176.925 127.784C177.087 127.477 177.125 127.239 177.506 127.346C178.272 127.558 179.024 127.909 179.765 128.195C181.239 128.765 182.707 129.35 184.169 129.952C190.018 132.358 195.727 135.077 201.436 137.795C204.225 139.123 207.017 140.443 209.795 141.792C211.228 142.487 212.657 143.19 214.083 143.899C215.23 144.47 216.557 145.019 216.619 146.485C216.65 147.199 216.465 147.913 216.267 148.593C216.24 148.685 216.228 148.824 216.171 148.902C216.025 149.102 215.853 148.972 215.627 148.894C215.225 148.757 214.83 148.589 214.439 148.424C212.921 147.782 211.456 147.021 209.996 146.258C206.768 144.57 203.541 142.877 200.314 141.187C199.565 140.795 198.898 141.93 199.65 142.324C202.816 143.982 205.983 145.641 209.15 147.299C210.609 148.063 212.073 148.823 213.585 149.478C214.81 150.009 216.756 151.084 217.428 149.283C217.872 148.096 218.172 146.569 217.73 145.344C217.215 143.916 215.818 143.295 214.553 142.666C211.406 141.102 208.238 139.581 205.065 138.07C198.784 135.08 192.523 132.042 186.109 129.344C184.521 128.676 182.924 128.026 181.32 127.396C180.517 127.08 179.712 126.769 178.906 126.463C178.248 126.214 177.488 125.807 176.774 126.061C176.08 126.307 175.803 127.092 175.489 127.688C175.136 128.36 174.505 129.182 174.479 129.964C174.458 130.619 174.872 131.087 175.433 131.37C176.205 131.759 177.044 132.045 177.841 132.383C184.837 135.353 191.666 138.709 198.293 142.43C199.032 142.845 199.696 141.709 198.957 141.294Z" fill="#662D91"/>
<path d="M180.694 102.438C175.148 100.405 170.851 95.7452 169.601 90.4088C169.094 88.2451 169.158 85.7475 170.8 84.1204C171.665 83.2628 172.877 82.752 174.116 82.4677C177.999 81.5764 182.192 82.7932 185.42 84.958C188.647 87.1228 191.051 90.1465 193.205 93.2296C193.321 90.7456 197.02 89.5543 199.488 90.6049C201.955 91.6555 203.376 94.0094 204.632 96.215C203.9 94.3747 205.411 92.1864 207.487 91.696C209.563 91.2056 211.845 92.21 213.055 93.8261C214.266 95.4422 214.515 97.5409 214.127 99.4665C215.354 98.4737 216.268 97.2004 217.421 96.1361C218.574 95.0717 220.108 94.187 221.742 94.3107C223.376 94.4344 224.898 95.9611 224.375 97.3801C227.361 91.1803 235.516 88.4191 242.931 88.3185C244.525 88.2968 246.179 88.3806 247.595 89.0492C249.01 89.7177 250.125 91.1121 249.917 92.5552C254.015 88.936 260.89 89.2288 265.826 91.8332C269.255 93.6426 272.157 96.595 272.855 100.155C273.553 103.716 271.554 107.792 267.827 109.018C271.812 109.982 274.594 113.723 274.657 117.486C274.72 121.25 272.362 124.849 269.017 127.049C265.673 129.248 261.458 130.155 257.336 130.142C257.369 132.28 255.299 134.058 253.043 134.631C250.788 135.203 248.39 134.851 246.081 134.496C241.892 133.851 237.703 133.207 233.513 132.562C234.479 134.975 233.284 137.947 230.838 139.215C227.815 140.782 224.039 139.717 220.776 138.623C221.658 140.766 219.071 142.831 216.624 143.33C210.885 144.498 205.029 141.363 201.205 137.285C196.644 132.423 194.048 126.101 193.746 119.705C193.597 116.542 194.056 113.199 196.095 110.638C193.355 111.577 190.311 111.762 187.459 111.163C184.985 110.643 182.447 109.311 181.736 107.085C181.025 104.859 183.315 102.034 185.732 102.746" fill="#662D91"/>
<path d="M180.904 101.675C178.135 100.645 175.651 98.9139 173.719 96.6799C171.899 94.5766 170.442 91.8322 170.16 89.0308C170.02 87.6388 170.161 86.1115 171.077 84.9874C172.082 83.7537 173.783 83.2482 175.303 83.0525C178.594 82.6289 181.962 83.6774 184.72 85.4442C187.932 87.5024 190.358 90.5389 192.522 93.629C192.977 94.2795 193.94 94.0338 193.996 93.2296C194.139 91.2108 197.125 90.7553 198.648 91.1543C201.221 91.8282 202.728 94.4739 203.949 96.6144C204.381 97.3718 205.711 96.866 205.395 96.0047C204.997 94.9175 205.491 93.8309 206.354 93.12C207.351 92.2979 208.711 92.2036 209.913 92.5687C212.803 93.4467 213.893 96.4828 213.364 99.2562C213.211 100.057 214.069 100.536 214.687 100.026C216.405 98.6064 217.6 96.5546 219.639 95.5394C220.498 95.1119 221.577 94.8945 222.481 95.3096C223.191 95.6357 223.879 96.3422 223.613 97.1697C223.342 98.0118 224.661 98.5916 225.059 97.7794C226.629 94.5705 229.597 92.369 232.853 91.0496C236.401 89.6121 240.359 88.9653 244.181 89.1229C246.119 89.2028 249.414 89.9714 249.126 92.5551C249.043 93.2978 250.015 93.5153 250.476 93.1146C254.173 89.9039 259.885 90.1437 264.171 91.9221C268.321 93.6445 273.007 97.8165 272.101 102.801C271.654 105.258 270.018 107.436 267.617 108.255C266.911 108.496 266.82 109.58 267.617 109.781C271.508 110.763 274.29 114.604 273.812 118.625C273.283 123.079 269.493 126.443 265.501 127.96C262.894 128.95 260.116 129.35 257.336 129.351C256.906 129.351 256.548 129.713 256.545 130.142C256.533 131.771 255.122 132.986 253.723 133.576C251.791 134.39 249.545 134.193 247.521 133.916C242.913 133.284 238.321 132.507 233.724 131.799C233.196 131.718 232.511 132.145 232.75 132.773C233.654 135.141 232.339 137.764 230.04 138.719C227.149 139.92 223.785 138.795 220.986 137.86C220.444 137.679 219.802 138.275 220.013 138.834C220.524 140.187 219.335 141.268 218.251 141.882C216.856 142.673 215.185 142.84 213.607 142.774C210.257 142.636 207.061 141.143 204.424 139.137C199.079 135.074 195.622 128.527 194.735 121.926C194.253 118.339 194.326 114.181 196.655 111.197C197.09 110.639 196.718 109.595 195.885 109.875C192.304 111.077 187.7 111.235 184.404 109.124C183.218 108.365 182.075 107.044 182.493 105.545C182.852 104.254 184.137 103.14 185.522 103.509C186.507 103.772 186.927 102.245 185.942 101.983C182.894 101.17 179.938 104.58 181.049 107.51C182.32 110.863 186.394 112.026 189.627 112.257C191.878 112.418 194.167 112.119 196.305 111.401L195.536 110.078C193.175 113.103 192.707 116.966 193.02 120.691C193.338 124.473 194.412 128.163 196.163 131.53C199.531 138.005 205.883 143.985 213.519 144.353C215.535 144.45 217.685 144.151 219.406 143.032C220.928 142.043 222.252 140.302 221.539 138.413L220.566 139.386C223.907 140.503 227.804 141.621 231.156 139.939C233.848 138.588 235.371 135.219 234.276 132.352L233.303 133.325C237.312 133.942 241.321 134.559 245.329 135.176C248.734 135.7 252.699 136.413 255.72 134.264C257.086 133.292 258.115 131.87 258.128 130.142L257.336 130.934C262.586 130.932 268.224 129.522 271.968 125.623C275.258 122.196 276.624 117.089 274.096 112.824C272.764 110.575 270.577 108.896 268.038 108.255V109.781C270.561 108.921 272.458 106.922 273.317 104.411C274.193 101.849 273.746 99.096 272.393 96.7857C269.509 91.8622 263.456 89.0754 257.88 89.0663C254.791 89.0612 251.715 89.9479 249.357 91.9956L250.708 92.5551C250.98 90.1226 248.681 88.3782 246.566 87.8515C244.373 87.3052 241.951 87.4754 239.725 87.7354C235.606 88.2165 231.387 89.4335 228.019 91.9347C226.215 93.2747 224.685 94.9518 223.692 96.9806L225.139 97.5904C225.521 96.403 224.969 95.1965 224.037 94.4378C222.945 93.5489 221.551 93.3382 220.2 93.661C217.254 94.3646 215.753 97.1013 213.567 98.907L214.89 99.6769C215.255 97.7678 215.116 95.7506 214.137 94.0344C213.263 92.5014 211.728 91.3652 210.012 90.9554C208.302 90.5471 206.511 90.877 205.177 92.0497C203.964 93.1156 203.296 94.8622 203.869 96.4253L205.316 95.8156C203.806 93.1695 201.821 90.0395 198.541 89.5201C196.006 89.1187 192.622 90.2847 192.414 93.2295L193.888 92.8301C191.736 89.7557 189.368 86.7979 186.289 84.6002C183.325 82.484 179.598 81.159 175.926 81.4104C174.131 81.5333 172.243 81.9776 170.792 83.0904C169.4 84.1576 168.704 85.7479 168.558 87.4678C168.288 90.6396 169.74 93.9907 171.574 96.5044C173.814 99.5759 176.925 101.878 180.483 103.201C181.439 103.556 181.852 102.027 180.904 101.675Z" fill="#662D91"/>
<path d="M151.485 98.1369C150.319 96.5964 150.269 94.4171 151.365 92.834C152.46 91.2509 154.637 90.3562 156.661 90.6568C156.006 89.4264 156.793 87.9075 157.955 87.0445C159.934 85.5759 162.806 85.4482 165.224 86.1868C167.642 86.9254 169.694 88.4095 171.607 89.9491C171.991 90.2585 172.393 90.6031 172.5 91.061C172.637 91.6508 172.22 92.2547 171.664 92.5798C171.108 92.9051 170.437 93.013 169.787 93.1192C163.6 94.1305 157.502 95.5985 151.573 97.504C151.846 97.6509 152.254 97.4739 152.303 97.1876" fill="#662D91"/>
<path d="M152.168 97.7375C151.166 96.3593 151.061 94.4507 152.161 93.0827C153.232 91.7524 155.011 91.2299 156.661 91.4482C157.312 91.5344 157.572 90.7275 157.344 90.2575C156.871 89.2797 157.734 88.1739 158.491 87.6298C159.39 86.9843 160.503 86.65 161.598 86.5642C164.144 86.3648 166.513 87.3368 168.608 88.7079C169.14 89.0561 169.657 89.4276 170.162 89.8127C170.629 90.1677 171.217 90.5304 171.583 90.9931C172.358 91.9734 169.865 92.3083 169.366 92.3909C166.488 92.8674 163.626 93.441 160.787 94.1142C157.613 94.8671 154.469 95.7454 151.362 96.741C150.595 96.9867 150.628 98.0079 151.362 98.2671C152.1 98.5277 152.815 98.1003 153.066 97.398C153.409 96.4371 151.88 96.0235 151.54 96.9772C151.59 96.8622 151.671 96.7835 151.783 96.741V98.2671C155.093 97.2064 158.445 96.2792 161.831 95.4943C163.494 95.1088 165.165 94.757 166.842 94.4392C167.611 94.2933 168.382 94.1547 169.154 94.0231C169.96 93.8858 170.797 93.8069 171.561 93.5001C172.849 92.9825 173.842 91.5735 172.99 90.2386C172.611 89.6447 171.969 89.2263 171.423 88.8016C170.818 88.3311 170.204 87.872 169.566 87.4466C167.121 85.8158 164.238 84.6764 161.252 85.0152C159.712 85.19 158.156 85.7276 157.01 86.8085C155.842 87.9101 155.251 89.554 155.978 91.0563L156.661 89.8656C154.492 89.5784 152.163 90.4708 150.835 92.2277C149.45 94.0583 149.457 96.6871 150.801 98.5363C151.394 99.3521 152.768 98.5633 152.168 97.7375Z" fill="#662D91"/>
</svg>
