<svg width="101" height="100" viewBox="0 0 101 100" fill="none" xmlns="http://www.w3.org/2000/svg">
<path d="M57.2005 57.4378C60.1881 58.1599 63.1756 58.882 66.1632 59.6041C66.2928 59.6355 66.4288 59.67 66.5242 59.7558C66.6927 59.9074 66.6742 60.1545 66.6521 60.3691C66.5621 61.2404 66.5444 62.1722 66.8378 63.0143C67.0538 63.6339 67.4972 64.2178 68.1496 64.4832C69.1345 64.8839 70.3355 64.4446 71.0508 63.7101C71.766 62.9755 72.106 62.0083 72.4275 61.0716C72.5221 60.7961 77.7074 62.0483 78.2006 62.1797C79.0586 62.4084 79.8955 62.7123 80.7711 62.8787C81.2856 62.9764 82.0914 62.9356 82.4848 63.3132C83.3608 64.154 82.3721 67.0539 82.1779 68.084C81.8192 69.9869 81.3384 71.8707 80.738 73.7225C79.9179 76.2523 78.6627 78.9463 76.0684 80.125C75.3166 80.4665 74.4932 80.6574 73.668 80.8022C67.6106 81.8657 61.3882 80.5574 55.3874 79.2554C54.0484 78.9649 52.6914 78.6683 51.4821 78.0703C51.37 78.0149 51.2507 77.9476 51.2103 77.8376C51.1782 77.7502 51.2036 77.6549 51.2291 77.5657C51.8543 75.3814 52.4795 73.1971 53.1047 71.0128C51.6783 71.1722 50.4532 69.9754 50.0523 68.7203C49.6095 67.3337 49.9194 65.6978 51.0808 64.7134C52.2421 63.729 54.2847 63.6348 55.369 64.6894C55.7172 64.0637 56.9864 57.3861 57.2005 57.4378Z" fill="#332E36"/>
<path d="M29.828 72.0431C28.2049 71.5181 26.581 70.9889 25.0042 70.3559C23.6048 69.7941 22.5211 69.0786 21.2753 68.3308C18.9015 66.9059 17.2876 64.6712 16.298 62.2792C15.8657 61.2341 15.5363 60.1463 15.4373 59.0333C15.2445 56.8664 15.9274 54.72 16.6745 52.655C17.5104 50.3442 18.8422 48.3488 20.291 46.3156C20.3351 46.2537 20.3834 46.1886 20.4576 46.1588C20.5508 46.1213 20.6585 46.1491 20.7556 46.1773C22.4657 46.674 23.9471 47.6212 25.6534 48.2056C26.1095 48.3618 31.2974 49.7749 31.3214 49.6194C31.5479 48.1486 32.8899 46.8768 34.4963 46.6105C36.1028 46.3442 37.8519 47.1036 38.6343 48.4072C39.4168 49.7107 39.1733 51.4594 38.0583 52.5444C40.5943 53.5391 43.1173 54.5612 45.6265 55.6105C45.9131 55.7303 46.23 55.8816 46.3168 56.1573C46.3784 56.353 46.305 56.5605 46.2323 56.7531C45.7639 57.9922 45.2955 59.2313 44.8271 60.4703C44.51 61.3091 44.3857 62.5504 43.8145 63.2655C43.4024 62.6774 42.8243 62.2506 42.0739 62.0629C41.3447 61.8805 40.5631 61.9297 39.8318 62.1051C39.3471 62.2214 38.8732 62.3947 38.4692 62.6649C36.8658 63.737 36.8683 65.9346 38.6691 66.8067C39.2338 67.0801 39.8609 67.23 40.4395 67.4782C40.6766 67.5799 40.9237 67.7174 41.0083 67.943C41.0717 68.1122 41.0303 68.2973 40.9875 68.4717C40.5226 70.371 39.9692 72.2524 39.3293 74.1091C39.2653 74.2949 39.1788 74.5025 38.9804 74.5755C38.8403 74.6271 38.6818 74.5956 38.535 74.5628C35.5757 73.9019 32.6989 72.9717 29.828 72.0431Z" fill="#332E36"/>
<path d="M52.7863 30.7285C53.4375 29.5296 53.6792 28.0225 54.0495 26.7384C54.311 25.8315 54.6339 24.914 54.8189 23.9914C54.939 23.4014 54.9958 22.8165 55.1521 22.2354C55.0075 22.143 54.8588 22.0561 54.7069 21.974C52.9968 21.0498 50.9856 20.7939 49.1375 20.1862C48.2494 19.8942 47.2971 19.8518 46.3666 19.6599C45.2597 19.4316 44.1531 19.1866 43.0226 19.0753C41.5204 18.9273 40.0016 19.0174 38.5003 19.1733C37.2663 19.3014 36.0268 19.4764 34.8655 19.8772C31.763 20.948 29.5728 23.4949 27.9458 26.1253C25.6079 29.9051 24.0923 34.1036 23.5117 38.4081C24.3544 38.6454 25.1976 38.8551 26.0483 39.0654C28.947 39.7821 31.8497 40.4996 34.8039 40.9942C34.7954 39.9071 35.5659 38.8483 36.6694 38.4305C37.7728 38.0127 39.1419 38.2615 39.984 39.0329C41.0383 39.9986 41.1617 41.5579 40.7279 42.8603C40.7678 42.7405 45.5611 44.03 45.9985 44.1547C47.3686 44.5451 49.021 45.3658 49.2922 43.453C49.5632 41.5416 50.0672 39.6576 50.792 37.8467C52.4233 37.6555 54.0902 37.1224 55.1575 35.9843C56.2248 34.8461 56.4814 33.0003 55.4 31.8733C54.7514 31.1974 53.7582 30.8815 52.7863 30.7285Z" fill="#F3F2F3"/>
<path d="M73.5528 53.9619C74.2013 53.3792 74.8488 52.6905 74.5473 52.5833C77.6821 53.6983 80.874 54.6806 84.1091 55.5258C84.2222 55.5554 86.1918 52.0017 86.3794 51.6613C86.934 50.6551 87.2472 49.5213 87.7324 48.4707C88.9062 45.9296 89.6264 43.1663 89.3917 40.3974C89.2161 38.3262 88.4546 36.2713 87.1357 34.5689C86.0915 33.221 84.4401 31.7351 82.9267 30.8154C80.7887 29.516 78.3078 28.5264 75.9354 27.6434C75.3429 27.4229 68.7616 25.2428 68.6767 25.4856C67.9165 27.6608 67.0285 29.82 66.1128 31.94C67.9754 32.8403 68.9574 35.0181 68.3263 36.8486C67.6951 38.6791 65.5215 39.9569 63.4272 39.7287C63.1002 41.0902 62.5647 42.412 62.0367 43.7175C61.7718 44.3726 61.5147 45.0325 61.2563 45.6875C61.0219 46.2819 60.7452 46.835 61.2146 47.4206C61.4762 47.747 61.8823 47.9477 62.2788 48.1296C63.9956 48.9169 65.7916 49.5505 67.5842 50.1827C67.4573 50.7453 67.3795 51.317 67.3516 51.8907C67.3355 52.2234 67.3369 52.5619 67.4358 52.8826C67.5744 53.3314 67.8954 53.7161 68.254 54.0493C68.544 54.3188 68.865 54.5638 69.2254 54.7502C70.2178 55.2634 71.4835 55.247 72.501 54.8006C72.6093 54.7531 73.0813 54.3855 73.5528 53.9619Z" fill="#332E36"/>
<path d="M6.12396 62.6055L9.86756 61.4538C10.3754 61.2976 10.1334 60.5081 9.62477 60.6646L5.88117 61.8163C5.37337 61.9726 5.61531 62.762 6.12396 62.6055Z" fill="#F3F2F3"/>
<path d="M12.542 71.3762C13.112 70.269 13.6821 69.1619 14.2521 68.0548C14.3542 67.8566 14.2791 67.602 14.0804 67.4968C13.8845 67.393 13.6248 67.4696 13.5224 67.6684C12.9523 68.7756 12.3823 69.8827 11.8122 70.9898C11.7102 71.188 11.7853 71.4427 11.9839 71.5478C12.1798 71.6516 12.4396 71.5751 12.542 71.3762Z" fill="#F3F2F3"/>
<path d="M89.9209 28.3357C89.6321 29.1441 89.3432 29.9525 89.0544 30.761C88.9816 30.9646 89.1364 31.2218 89.3427 31.2688C89.5745 31.3216 89.7727 31.1985 89.8506 30.9804C90.1394 30.172 90.4282 29.3636 90.7171 28.5552C90.7898 28.3515 90.635 28.0943 90.4287 28.0473C90.197 27.9945 89.9988 28.1176 89.9209 28.3357Z" fill="#F3F2F3"/>
<path d="M93.7755 38.4945C94.4664 38.4289 95.1573 38.3634 95.8482 38.2978C96.0626 38.2775 96.2717 38.1225 96.2611 37.885C96.2518 37.6788 96.0785 37.4503 95.8482 37.4722C95.1573 37.5377 94.4664 37.6032 93.7755 37.6688C93.5611 37.6891 93.3521 37.8441 93.3627 38.0816C93.3719 38.2878 93.5453 38.5163 93.7755 38.4945Z" fill="#F3F2F3"/>
<path d="M92.6636 45.4895C92.7894 45.7183 92.9152 45.9471 93.041 46.1759C93.0901 46.2654 93.1903 46.3388 93.2877 46.3657C93.3865 46.3929 93.5181 46.3806 93.6058 46.324C93.694 46.2672 93.7716 46.1826 93.7955 46.0773C93.8206 45.9673 93.809 45.8594 93.7539 45.7592C93.6281 45.5304 93.5023 45.3016 93.3765 45.0727C93.3274 44.9833 93.2272 44.9099 93.1298 44.883C93.031 44.8558 92.8994 44.8681 92.8117 44.9246C92.7235 44.9815 92.6459 45.0661 92.622 45.1713C92.5969 45.2814 92.6085 45.3893 92.6636 45.4895Z" fill="#F3F2F3"/>
<path d="M8.08211 53.0727C8.92878 53.4209 9.77546 53.769 10.6221 54.1171C10.8216 54.1991 11.078 54.1601 11.1802 53.9454C11.2687 53.7595 11.2218 53.4751 11.0085 53.3874C10.1618 53.0392 9.31515 52.6911 8.46847 52.343C8.26903 52.261 8.01261 52.3 7.91043 52.5147C7.82195 52.7006 7.8688 52.985 8.08211 53.0727Z" fill="#F3F2F3"/>
</svg>
