<svg width="24" height="24" viewBox="0 0 24 24" fill="none" xmlns="http://www.w3.org/2000/svg">
<path d="M13.251 20.25C13.251 20.4489 13.33 20.6397 13.4706 20.7803C13.6113 20.921 13.8021 21 14.001 21H20.001C20.1999 21 20.3907 20.921 20.5313 20.7803C20.672 20.6397 20.751 20.4489 20.751 20.25V3.75C20.751 3.55109 20.672 3.36032 20.5313 3.21967C20.3907 3.07902 20.1999 3 20.001 3H14.001C13.8021 3 13.6113 3.07902 13.4706 3.21967C13.33 3.36032 13.251 3.55109 13.251 3.75C13.251 3.94891 13.33 4.13968 13.4706 4.28033C13.6113 4.42098 13.8021 4.5 14.001 4.5H19.251V19.5H14.001C13.8021 19.5 13.6113 19.579 13.4706 19.7197C13.33 19.8603 13.251 20.0511 13.251 20.25ZM14.531 11.4694L10.781 7.71937C10.6761 7.61437 10.5424 7.54284 10.3969 7.51385C10.2513 7.48487 10.1004 7.49972 9.96329 7.55653C9.82618 7.61335 9.709 7.70957 9.6266 7.83301C9.54419 7.95646 9.50027 8.10158 9.50039 8.25V11.25H3.50039C3.30148 11.25 3.11071 11.329 2.97006 11.4697C2.82941 11.6103 2.75039 11.8011 2.75039 12C2.75039 12.1989 2.82941 12.3897 2.97006 12.5303C3.11071 12.671 3.30148 12.75 3.50039 12.75H9.50039V15.75C9.50027 15.8984 9.54419 16.0435 9.6266 16.167C9.709 16.2904 9.82618 16.3867 9.96329 16.4435C10.1004 16.5003 10.2513 16.5151 10.3969 16.4861C10.5424 16.4572 10.6761 16.3856 10.781 16.2806L14.531 12.5306C14.6007 12.461 14.6561 12.3783 14.6938 12.2872C14.7316 12.1962 14.751 12.0986 14.751 12C14.751 11.9014 14.7316 11.8038 14.6938 11.7128C14.6561 11.6217 14.6007 11.539 14.531 11.4694Z" fill="#FFFFFD"/>
</svg>
