<svg width="24" height="24" viewBox="0 0 24 24" fill="none" xmlns="http://www.w3.org/2000/svg">
<path d="M21.75 12C21.7504 13.6833 21.3149 15.338 20.486 16.8031C19.6572 18.2682 18.4631 19.4938 17.02 20.3605C15.577 21.2272 13.9341 21.7055 12.2514 21.7489L4.23669 21.7129C3.68485 21.7104 3.08033 21.7001 2.69011 21.3099C2.49311 21.1129 2.35486 20.8649 2.29087 20.5938C2.22688 20.3226 2.23967 20.039 2.32781 19.7747L3.39187 16.5825C2.69639 15.2749 2.30793 13.826 2.256 12.3459C2.20406 10.8658 2.49001 9.39325 3.09213 8.04012C3.69425 6.687 4.59672 5.48882 5.73105 4.53655C6.86537 3.58428 8.20173 2.90295 9.63869 2.54426C11.0756 2.18557 12.5754 2.15895 14.0242 2.46644C15.473 2.77392 16.8327 3.40742 18.0001 4.31885C19.1675 5.23027 20.1119 6.39567 20.7616 7.72659C21.4114 9.0575 21.7494 10.519 21.75 12Z" fill="#FFFFFD"/>
</svg>
