<svg width="24" height="24" viewBox="0 0 24 24" fill="none" xmlns="http://www.w3.org/2000/svg">
<g clip-path="url(#clip0_1887_43434)">
<path d="M13.5 14.7825C14.6757 14.0503 15.581 12.955 16.0788 11.6624C16.5766 10.3698 16.6399 8.95031 16.259 7.61858C15.8782 6.28684 15.074 5.11537 13.9682 4.28138C12.8623 3.44739 11.5148 2.99628 10.1297 2.99628C8.74461 2.99628 7.39718 3.44739 6.29128 4.28138C5.18539 5.11537 4.3812 6.28684 4.00039 7.61858C3.61958 8.95031 3.68286 10.3698 4.18066 11.6624C4.67846 12.955 5.58369 14.0503 6.75941 14.7825C4.82347 15.4163 3.08159 16.6003 1.68097 18.2672C1.58927 18.3762 1.53051 18.5091 1.51155 18.6502C1.4926 18.7914 1.51423 18.935 1.57393 19.0644C1.63362 19.1937 1.72891 19.3033 1.84864 19.3805C1.96837 19.4576 2.1076 19.4991 2.25003 19.5H18C18.1429 19.5002 18.2829 19.4595 18.4035 19.3827C18.524 19.306 18.6202 19.1964 18.6806 19.0669C18.7409 18.9374 18.7631 18.7933 18.7443 18.6516C18.7256 18.5099 18.6667 18.3766 18.5747 18.2672C17.1732 16.6003 15.4313 15.4163 13.5 14.7825Z" fill="#FFFFFD"/>
<path d="M24 12.75C24 12.9489 23.921 13.1397 23.7804 13.2804C23.6397 13.421 23.4489 13.5 23.25 13.5H21.75H20.25H18.75C18.5511 13.5 18.3604 13.421 18.2197 13.2804C18.0791 13.1397 18 12.9489 18 12.75C18 12.5511 18.0791 12.3603 18.2197 12.2197C18.3604 12.079 18.5511 12 18.75 12H20.25H21.75H23.25C23.4489 12 23.6397 12.079 23.7804 12.2197C23.921 12.3603 24 12.5511 24 12.75Z" fill="#FFFFFD"/>
</g>
<defs>
<clipPath id="clip0_1887_43434">
<rect width="24" height="24" fill="white"/>
</clipPath>
</defs>
</svg>
