<svg width="24" height="24" viewBox="0 0 24 24" fill="none" xmlns="http://www.w3.org/2000/svg">
<path d="M6.01077 13.8562C6.01332 13.907 6.0055 13.9578 5.98779 14.0055C5.97009 14.0532 5.94287 14.0968 5.90779 14.1336C5.87271 14.1704 5.83051 14.1998 5.78374 14.2198C5.73698 14.2398 5.68664 14.2501 5.63577 14.25H1.49952C1.33024 14.2502 1.16586 14.1932 1.03309 14.0882C0.900326 13.9832 0.806995 13.8363 0.768272 13.6716C0.74416 13.5588 0.745272 13.442 0.771527 13.3297C0.797782 13.2174 0.848532 13.1123 0.920147 13.0219C1.58184 12.1443 2.45979 11.4534 3.46827 11.0166C3.02552 10.6129 2.68593 10.109 2.47797 9.54706C2.27 8.98514 2.19971 8.38158 2.27297 7.78691C2.34624 7.19225 2.56092 6.62379 2.89906 6.12916C3.23719 5.63453 3.68893 5.22812 4.21642 4.94397C4.74392 4.65983 5.33183 4.50621 5.9309 4.496C6.52998 4.48578 7.12278 4.61927 7.65966 4.88527C8.19654 5.15127 8.66186 5.54204 9.01666 6.02486C9.37146 6.50768 9.6054 7.06848 9.6989 7.6603C9.71097 7.73989 9.69671 7.82124 9.6583 7.89198C9.61988 7.96272 9.55941 8.01897 9.48608 8.05218C8.44583 8.53309 7.56483 9.30153 6.94706 10.2668C6.32928 11.2321 6.00051 12.3539 5.99952 13.5C5.99952 13.62 5.99952 13.7381 6.01077 13.8562ZM23.0733 13.0209C22.4131 12.1444 21.5372 11.4539 20.5308 11.0166C20.9735 10.6129 21.3131 10.109 21.5211 9.54706C21.729 8.98514 21.7993 8.38158 21.7261 7.78691C21.6528 7.19225 21.4381 6.62379 21.1 6.12916C20.7619 5.63453 20.3101 5.22812 19.7826 4.94397C19.2551 4.65983 18.6672 4.50621 18.0681 4.496C17.4691 4.48578 16.8763 4.61927 16.3394 4.88527C15.8025 5.15127 15.3372 5.54204 14.9824 6.02486C14.6276 6.50768 14.3936 7.06848 14.3001 7.6603C14.2881 7.73989 14.3023 7.82124 14.3407 7.89198C14.3792 7.96272 14.4396 8.01897 14.513 8.05218C15.5532 8.53309 16.4342 9.30153 17.052 10.2668C17.6698 11.2321 17.9985 12.3539 17.9995 13.5C17.9995 13.62 17.9995 13.7381 17.9883 13.8562C17.9857 13.907 17.9935 13.9578 18.0112 14.0055C18.029 14.0532 18.0562 14.0968 18.0912 14.1336C18.1263 14.1704 18.1685 14.1998 18.2153 14.2198C18.2621 14.2398 18.3124 14.2501 18.3633 14.25H22.4995C22.6688 14.2502 22.8332 14.1932 22.966 14.0882C23.0987 13.9832 23.192 13.8363 23.2308 13.6716C23.255 13.5586 23.2539 13.4416 23.2275 13.3291C23.2011 13.2166 23.15 13.1113 23.078 13.0209H23.0733ZM14.7295 17.0691C15.4763 16.4971 16.0251 15.7056 16.2987 14.8057C16.5724 13.9058 16.5572 12.9427 16.2553 12.0519C15.9534 11.1611 15.3799 10.3873 14.6154 9.83921C13.851 9.29115 12.934 8.99641 11.9934 8.99641C11.0528 8.99641 10.1359 9.29115 9.37142 9.83921C8.60699 10.3873 8.0335 11.1611 7.73157 12.0519C7.42964 12.9427 7.41444 13.9058 7.68811 14.8057C7.96178 15.7056 8.51057 16.4971 9.25733 17.0691C7.93221 17.6432 6.82571 18.6265 6.09983 19.875C6.034 19.989 5.99935 20.1184 5.99935 20.25C5.99936 20.3817 6.03403 20.511 6.09988 20.6251C6.16572 20.7391 6.26042 20.8338 6.37446 20.8996C6.4885 20.9654 6.61786 21 6.74952 21H17.2495C17.3812 21 17.5105 20.9654 17.6246 20.8996C17.7386 20.8338 17.8333 20.7391 17.8992 20.6251C17.965 20.511 17.9997 20.3817 17.9997 20.25C17.9997 20.1184 17.965 19.989 17.8992 19.875C17.1718 18.6257 16.0632 17.6423 14.7361 17.0691H14.7295Z" fill="#FFFFFD"/>
</svg>
