<svg width="24" height="24" viewBox="0 0 24 24" fill="none" xmlns="http://www.w3.org/2000/svg">
<path d="M13.251 20.25C13.251 20.4489 13.33 20.6397 13.4706 20.7803C13.6113 20.921 13.8021 21 14.001 21H20.001C20.1999 21 20.3907 20.921 20.5313 20.7803C20.672 20.6397 20.751 20.4489 20.751 20.25V3.75C20.751 3.55109 20.672 3.36032 20.5313 3.21967C20.3907 3.07902 20.1999 3 20.001 3H14.001C13.8021 3 13.6113 3.07902 13.4706 3.21967C13.33 3.36032 13.251 3.55109 13.251 3.75C13.251 3.94891 13.33 4.13968 13.4706 4.28033C13.6113 4.42098 13.8021 4.5 14.001 4.5H19.251V19.5H14.001C13.8021 19.5 13.6113 19.579 13.4706 19.7197C13.33 19.8603 13.251 20.0511 13.251 20.25ZM2.97035 11.4694L6.72035 7.71937C6.82524 7.61437 6.95893 7.54284 7.1045 7.51385C7.25006 7.48487 7.40095 7.49972 7.53807 7.55653C7.67519 7.61335 7.79236 7.70957 7.87477 7.83301C7.95717 7.95646 8.00109 8.10158 8.00098 8.25V11.25H14.001C14.1999 11.25 14.3907 11.329 14.5313 11.4697C14.672 11.6103 14.751 11.8011 14.751 12C14.751 12.1989 14.672 12.3897 14.5313 12.5303C14.3907 12.671 14.1999 12.75 14.001 12.75H8.00098V15.75C8.00109 15.8984 7.95717 16.0435 7.87477 16.167C7.79236 16.2904 7.67519 16.3867 7.53807 16.4435C7.40095 16.5003 7.25006 16.5151 7.1045 16.4861C6.95893 16.4572 6.82524 16.3856 6.72035 16.2806L2.97035 12.5306C2.90062 12.461 2.8453 12.3783 2.80756 12.2872C2.76981 12.1962 2.75039 12.0986 2.75039 12C2.75039 11.9014 2.76981 11.8038 2.80756 11.7128C2.8453 11.6217 2.90062 11.539 2.97035 11.4694Z" fill="#FFFFFD"/>
</svg>
