<svg width="65" height="64" viewBox="0 0 65 64" fill="none" xmlns="http://www.w3.org/2000/svg">
<path d="M32.3462 5.76623C32.0741 5.7629 31.9046 5.41454 32.0048 5.16155C32.105 4.90855 32.3831 4.76574 32.6532 4.73289C32.3927 4.65174 32.4269 4.2244 32.6607 4.0837C32.8945 3.94299 33.1941 4.00626 33.4528 4.09295C33.382 3.87308 33.3104 3.64716 33.3227 3.41651C33.3349 3.18586 33.4495 2.94589 33.6599 2.85071C33.8637 2.75853 34.1109 2.82296 34.2912 2.95538C34.4715 3.08779 34.5986 3.27838 34.7221 3.46493C34.5551 3.07272 35.0231 2.61875 35.4375 2.71874C35.8519 2.81873 36.0854 3.31086 36.002 3.72891C36.0141 3.24066 36.6026 2.88279 37.0587 3.05734C37.5149 3.23189 37.7266 3.83624 37.5209 4.27921C37.6392 3.88316 38.1122 3.61784 38.4987 3.7643C38.8853 3.91076 39.0519 4.47323 38.7773 4.78225C39.0051 4.62584 39.2639 4.46195 39.5366 4.50699C39.8092 4.55203 40.0069 4.93878 39.7923 5.11287C40.1406 4.96524 40.6143 4.8475 40.8393 5.15166C40.9016 5.2359 40.9309 5.3411 40.9381 5.44566C40.9673 5.87237 40.638 6.25817 40.2475 6.43275C39.857 6.60734 39.4156 6.61632 38.9879 6.62242C37.6587 6.64134 36.3295 6.66028 35.0003 6.67921" fill="#662D91"/>
<path d="M32.346 5.58903C32.1767 5.5762 32.1176 5.33902 32.1773 5.20767C32.2674 5.00933 32.5021 4.93283 32.7002 4.90401C32.8931 4.87595 32.8419 4.6168 32.7002 4.56203C32.5858 4.51778 32.6689 4.30623 32.7296 4.25199C32.9022 4.09774 33.218 4.20313 33.4055 4.26406C33.532 4.30513 33.664 4.17197 33.6237 4.04593C33.5306 3.75555 33.354 3.22268 33.7085 3.02485C34.0739 2.82094 34.4032 3.30483 34.5688 3.55453C34.6733 3.71218 34.9663 3.61695 34.8929 3.4179C34.7805 3.11313 35.1359 2.80491 35.4324 2.90155C35.7405 3.00198 35.8823 3.38382 35.8309 3.68187L36.1792 3.72901C36.2018 3.35013 36.6667 3.08545 37.0115 3.22844C37.3631 3.37429 37.5137 3.85202 37.3676 4.18982L37.6917 4.32645C37.7904 4.03135 38.1629 3.7955 38.4663 3.94313C38.7088 4.06109 38.8317 4.43798 38.6518 4.65696C38.534 4.8004 38.6871 5.0578 38.8667 4.93545C39.0404 4.81713 39.2798 4.63347 39.5049 4.68245C39.6192 4.70732 39.7804 4.88063 39.6668 4.98758C39.5454 5.1019 39.6712 5.35355 39.8393 5.28396C40.0477 5.19769 40.3251 5.08413 40.5528 5.15787C40.8118 5.24179 40.7916 5.57591 40.6986 5.7776C40.4337 6.35242 39.7258 6.42809 39.1718 6.4419C37.7818 6.47656 36.3905 6.48215 35.0002 6.50197C34.7722 6.50522 34.7716 6.85986 35.0002 6.85661C36.3182 6.83785 37.6361 6.81933 38.954 6.8003C39.5022 6.79238 40.1106 6.78389 40.5735 6.44822C40.9532 6.17289 41.2499 5.66961 41.0619 5.19503C40.8435 4.6434 40.1794 4.76215 39.745 4.94197L39.9176 5.23835C40.1705 5.00016 40.0493 4.60396 39.7873 4.42492C39.4291 4.18009 38.997 4.41854 38.6877 4.62921L38.9026 4.90771C39.2263 4.51364 39.102 3.8746 38.6425 3.63567C38.1328 3.37064 37.5204 3.72185 37.3498 4.23215C37.2871 4.41957 37.5935 4.55463 37.6739 4.36879C37.9099 3.82289 37.6968 3.10099 37.1058 2.88642C36.5283 2.6768 35.8607 3.12273 35.8246 3.72897C35.8129 3.92561 36.1387 3.97449 36.1729 3.77611C36.2608 3.26669 36.002 2.63701 35.4415 2.53941C34.9211 2.44881 34.3556 2.98244 34.551 3.51212L34.8751 3.37548C34.5998 2.96038 34.1315 2.42323 33.5704 2.69766C33.0149 2.96933 33.1292 3.66412 33.2817 4.14015L33.4999 3.92202C33.137 3.80414 32.6166 3.73264 32.3843 4.12016C32.2154 4.40199 32.2857 4.78009 32.606 4.90395V4.56198C32.2445 4.61454 31.8559 4.84733 31.8053 5.23994C31.7608 5.58481 31.9932 5.91688 32.3461 5.94362C32.5737 5.96086 32.5726 5.60619 32.346 5.58903Z" fill="#662D91"/>
<path d="M32.6737 16.9521C31.2093 17.0751 29.6892 16.9639 28.3585 16.3401C27.0278 15.7163 25.9123 14.5176 25.6557 13.0705C25.4555 11.9416 25.7902 10.7601 26.4136 9.7979C27.037 8.83566 27.9303 8.07425 28.8912 7.44867C32.5972 5.03579 37.5118 4.59627 41.5871 6.31329C42.8618 6.85036 44.0765 7.60331 44.9414 8.68286C45.8062 9.76241 46.2854 11.2018 46.0052 12.5563C45.7111 13.9784 44.6278 15.1362 43.3702 15.8625C42.1127 16.5887 40.6818 16.9462 39.2722 17.2952" fill="#FFDE17"/>
<path d="M32.6738 16.7748C31.129 16.9011 29.4878 16.7838 28.1091 16.013C26.9539 15.3672 25.9955 14.25 25.8082 12.9084C25.5928 11.365 26.3761 9.87942 27.4442 8.82039C28.4745 7.79889 29.7806 7.02713 31.1179 6.47952C33.775 5.39146 36.7748 5.15455 39.566 5.83426C42.2554 6.48917 45.3786 8.11338 45.859 11.1283C46.0867 12.5566 45.4732 13.8891 44.4406 14.8553C43.3116 15.9118 41.8244 16.4398 40.3576 16.8353C39.9814 16.9367 39.6033 17.0306 39.2251 17.1242C39.0037 17.179 39.0975 17.5211 39.3194 17.4662C40.9151 17.071 42.5745 16.6616 43.9434 15.7084C45.1163 14.8918 46.0661 13.6834 46.2354 12.2299C46.4128 10.7076 45.7223 9.195 44.6783 8.1174C43.614 7.01882 42.199 6.29783 40.7637 5.81232C37.8986 4.84319 34.7072 4.87 31.8441 5.83215C30.4097 6.3142 29.0381 7.02822 27.8574 7.97854C26.6275 8.96835 25.6392 10.312 25.4496 11.9149C25.2751 13.3911 25.9529 14.7904 27.0756 15.7284C28.3005 16.7517 29.8929 17.1441 31.4626 17.1721C31.8669 17.1793 32.2709 17.1624 32.6738 17.1294C32.8997 17.1109 32.9017 16.7561 32.6738 16.7748Z" fill="#662D91"/>
<path d="M31.2219 7.48532C31.7985 7.62899 32.341 7.8705 32.8345 8.20141L32.8769 7.8773C32.5222 8.01997 32.1675 8.16263 31.8128 8.30529C31.724 8.341 31.6615 8.42357 31.689 8.52342C31.7121 8.60774 31.8177 8.68322 31.9071 8.64727C32.2618 8.5046 32.6165 8.36194 32.9712 8.21928C33.1133 8.16211 33.1478 7.9852 33.0136 7.89517C32.4969 7.54874 31.9198 7.29371 31.3162 7.14333C31.0948 7.08815 31.0002 7.43008 31.2219 7.48532Z" fill="#662D91"/>
<path d="M38.0188 7.286C37.4187 7.66026 36.6794 7.69609 36.0454 7.99659C35.905 8.06311 35.9475 8.28466 36.0877 8.32069C36.585 8.44846 37.0823 8.57623 37.5796 8.704C37.8008 8.76082 37.8951 8.41886 37.6738 8.36202C37.1766 8.23426 36.6793 8.10648 36.182 7.97872L36.2244 8.30283C36.8601 8.00148 37.5925 7.96978 38.1978 7.59223C38.3911 7.47171 38.2132 7.16475 38.0188 7.286Z" fill="#662D91"/>
<path d="M33.6577 6.51159C33.8641 6.44828 33.9361 6.87359 33.9612 7.0028C34.0045 7.22521 34.0079 7.45421 34.0075 7.68009C34.0067 8.19188 33.9889 8.70386 33.9611 9.21485C33.9487 9.4429 34.3034 9.44222 34.3157 9.21485C34.3499 8.58642 34.3926 7.9444 34.3532 7.31543C34.3276 6.90593 34.1855 5.9787 33.5635 6.16962C33.3459 6.23639 33.4387 6.57883 33.6577 6.51159Z" fill="#662D91"/>
<path d="M33.5098 10.607C34.1525 11.0495 35.0634 10.9157 35.5426 10.2967C35.6011 10.221 35.6163 10.1196 35.5426 10.0459C35.4815 9.98481 35.3508 9.96972 35.2918 10.0459C35.1082 10.2831 34.8561 10.4459 34.56 10.5021C34.2557 10.5598 33.9407 10.4741 33.6888 10.3007C33.6099 10.2464 33.492 10.286 33.4462 10.3644C33.3948 10.4523 33.4307 10.5525 33.5098 10.607Z" fill="#662D91"/>
<path d="M35.4598 9.70106C35.366 9.8343 35.3455 10.0024 35.3711 10.1598C35.3827 10.2307 35.4094 10.3009 35.4451 10.3631C35.4894 10.44 35.5483 10.498 35.6182 10.5509C35.6524 10.5768 35.7156 10.5796 35.7549 10.5688C35.796 10.5575 35.8406 10.5257 35.8608 10.4873C35.8826 10.4462 35.8935 10.3963 35.8787 10.3507C35.8636 10.3039 35.8361 10.2741 35.7972 10.2447C35.8462 10.2818 35.8075 10.2521 35.7965 10.2416C35.787 10.2325 35.7779 10.2229 35.7692 10.2128C35.7584 10.2003 35.752 10.1815 35.7773 10.2239C35.7746 10.2194 35.7711 10.2153 35.7681 10.211C35.76 10.1989 35.7525 10.1864 35.7456 10.1737C35.7424 10.1678 35.7394 10.1619 35.7365 10.156C35.7332 10.1491 35.7229 10.1253 35.7357 10.1554C35.7495 10.1881 35.7321 10.144 35.7295 10.1354C35.721 10.1087 35.7153 10.0814 35.7114 10.0536L35.7177 10.1008C35.7125 10.0583 35.7126 10.0159 35.7182 9.97353L35.7119 10.0207C35.7167 9.98897 35.725 9.95887 35.7354 9.92861C35.7449 9.90086 35.7156 9.96953 35.7298 9.94178C35.7334 9.93472 35.7368 9.92752 35.7406 9.92054C35.7482 9.90651 35.7568 9.89311 35.766 9.88005C35.7912 9.84427 35.7951 9.7841 35.7839 9.74341C35.7726 9.70227 35.7408 9.65771 35.7024 9.63743C35.6115 9.58937 35.517 9.61985 35.4598 9.70106Z" fill="#662D91"/>
<path d="M33.5891 10.7616C33.6824 10.6872 33.75 10.569 33.7749 10.4529C33.8043 10.3158 33.7886 10.1805 33.7264 10.0547C33.7075 10.0165 33.6604 9.98427 33.6204 9.97324C33.578 9.96155 33.5215 9.96683 33.4838 9.99112C33.3985 10.0461 33.3761 10.1446 33.4202 10.2337C33.4242 10.2419 33.428 10.2501 33.4315 10.2585L33.4137 10.2161C33.4256 10.2457 33.4337 10.276 33.4384 10.3075L33.4321 10.2604C33.4372 10.2988 33.437 10.3372 33.4319 10.3756L33.4383 10.3284C33.4329 10.3646 33.4234 10.3995 33.4096 10.4333L33.4275 10.3909C33.4132 10.4244 33.3951 10.4556 33.3729 10.4844L33.4006 10.4486C33.3821 10.4717 33.3615 10.4924 33.3383 10.5109C33.3051 10.5373 33.2864 10.5959 33.2864 10.6363C33.2864 10.6797 33.3057 10.7317 33.3383 10.7616C33.3721 10.7927 33.4165 10.8157 33.4637 10.8136L33.5108 10.8072C33.5409 10.7988 33.567 10.7836 33.5891 10.7616Z" fill="#662D91"/>
<path d="M27.7114 15.6889C29.0674 16.6055 30.7892 16.866 32.3811 16.5553C32.6044 16.5117 32.6992 16.8536 32.4754 16.8973C32.0645 16.9774 31.6473 17.0259 31.2286 17.0345C29.5638 17.0688 27.8901 16.4922 26.6973 15.3107C26.4181 15.0341 26.169 14.7295 25.9551 14.4034L25.9119 13.621C26.3153 14.4516 26.9506 15.1746 27.7114 15.6889Z" fill="#662D91"/>
<path d="M47.6093 42.9394C47.9917 43.6641 48.4554 44.3458 48.9888 44.9678C48.9964 44.9767 49.0047 44.9861 49.0161 44.9892C49.0366 44.995 49.0561 44.9784 49.0708 44.963C49.5376 44.4728 49.7471 43.6917 49.537 43.0393C49.3083 42.3293 48.8373 41.703 48.2917 41.2042" fill="#662D91"/>
<path d="M47.4561 43.0288C47.711 43.5084 47.9983 43.9698 48.3199 44.4076C48.4798 44.6253 48.6439 44.8443 48.8235 45.0463C49.0068 45.2526 49.1665 45.1368 49.3099 44.9565C49.5877 44.6071 49.7523 44.1804 49.7892 43.7358C49.8283 43.2657 49.677 42.8211 49.4628 42.4087C49.2016 41.9055 48.8322 41.462 48.417 41.0787C48.2495 40.9241 47.9981 41.1743 48.1662 41.3295C48.6884 41.8115 49.1502 42.4002 49.366 43.0863C49.4609 43.388 49.4631 43.7085 49.3866 44.0147C49.347 44.1732 49.2892 44.3254 49.211 44.4689C49.1709 44.5424 49.1263 44.6143 49.0767 44.6818C49.0561 44.7099 49.0344 44.7372 49.0119 44.7637C48.9958 44.7827 48.9793 44.8012 48.9622 44.8193C48.9377 44.8441 48.94 44.8437 48.9689 44.8182L49.1414 44.8637C48.9917 44.7462 48.8704 44.5511 48.7551 44.4008C48.6304 44.2382 48.5107 44.0719 48.3955 43.9025C48.165 43.5636 47.9547 43.2117 47.7623 42.8498C47.6552 42.6482 47.349 42.8272 47.4561 43.0288Z" fill="#662D91"/>
<path d="M31.7747 34.6729C30.0796 37.7319 29.3768 41.6943 30.1493 45.1259C30.333 45.9415 30.6002 46.7523 31.0765 47.4393C32.1489 48.9863 33.9307 49.1212 35.6604 48.9556C36.9514 48.8319 38.1871 48.3811 39.3872 47.8893C41.1524 47.166 42.8777 46.3453 44.5526 45.4322C46.087 44.5958 47.6186 43.6579 49.3324 43.2358C50.4836 42.9523 52.6855 42.9741 53.1229 44.4406C53.2756 44.9525 53.3651 45.5699 53.8359 45.8223C54.3904 46.1196 55.0669 45.6732 55.4165 45.15C56.0672 44.1762 56.1586 42.886 55.7774 41.7786C55.3962 40.6711 54.5795 39.7443 53.6 39.1022C54.0742 38.9155 54.301 38.3432 54.2513 37.836C54.2016 37.3288 53.9385 36.8709 53.6814 36.4309C53.1415 35.5067 52.6015 34.5826 52.0616 33.6584C49.769 34.8137 47.4738 35.964 45.1762 37.1094C44.0007 37.6954 42.8245 38.2801 41.6477 38.8635C41.1179 39.1261 39.7367 40.2683 39.1639 40.0029C40.0011 36.4395 40.8429 33.0629 40.8919 29.3641" fill="#FFDE17"/>
<path d="M31.6216 34.5835C30.0138 37.4985 29.3178 40.9997 29.815 44.3004C30.0518 45.8724 30.552 47.6548 31.9818 48.55C33.2263 49.329 34.8791 49.2852 36.2755 49.0515C37.2205 48.8933 38.1314 48.5794 39.0198 48.2276C39.898 47.8799 40.7654 47.5033 41.6224 47.1063C42.5074 46.6961 43.381 46.261 44.2415 45.8016C45.0354 45.3777 45.8135 44.9247 46.6126 44.5107C47.9064 43.8402 49.3203 43.2087 50.8086 43.2767C51.3672 43.3023 51.9653 43.4162 52.4259 43.7523C52.632 43.9026 52.8017 44.1067 52.9011 44.3425C53.0304 44.6494 53.0719 44.9879 53.1979 45.2974C53.3236 45.6062 53.519 45.8826 53.8349 46.0164C54.1811 46.163 54.5648 46.0836 54.8808 45.8996C55.5514 45.5091 55.9314 44.7291 56.0882 43.9946C56.4311 42.3882 55.7614 40.7837 54.6022 39.673C54.3214 39.404 54.0137 39.1636 53.6896 38.9492V39.2554C54.0924 39.0843 54.3399 38.6778 54.4101 38.2572C54.4968 37.7381 54.3183 37.2351 54.0809 36.7799C53.8029 36.2467 53.4798 35.7343 53.1765 35.2152C52.856 34.6665 52.5354 34.1178 52.2148 33.5691C52.1643 33.4827 52.0579 33.4623 51.9722 33.5054C50.0214 34.4884 48.0688 35.4678 46.1145 36.4437C45.1439 36.9283 44.1728 37.412 43.2013 37.8949C42.4569 38.2649 41.6908 38.6007 40.995 39.0578C40.6846 39.2617 40.3738 39.468 40.0436 39.6391C39.847 39.741 39.4851 39.9485 39.2535 39.8499L39.335 40.0502C39.9784 37.3124 40.6486 34.5709 40.93 31.7666C41.0102 30.9681 41.0576 30.1667 41.0692 29.3642C41.0726 29.1359 40.7179 29.1359 40.7146 29.3642C40.674 32.1595 40.1588 34.9061 39.5383 37.6232C39.3605 38.4017 39.1757 39.1786 38.993 39.9559C38.9769 40.0243 39.0019 40.1253 39.0745 40.1562C39.6201 40.3882 40.2843 39.9301 40.7278 39.6526C40.9971 39.484 41.2578 39.3018 41.5285 39.1355C41.9038 38.9048 42.3168 38.7293 42.711 38.5336C44.7328 37.5298 46.7527 36.5221 48.7707 35.5106C49.8981 34.9455 51.0249 34.3791 52.1512 33.8117L51.9086 33.748C52.4733 34.7146 53.0432 35.6783 53.6025 36.6479C53.8391 37.0582 54.0884 37.5114 54.0803 37.9992C54.0737 38.3962 53.8884 38.7886 53.5106 38.9492C53.3788 39.0052 53.4123 39.1904 53.5106 39.2554C54.7993 40.1081 55.8064 41.4836 55.825 43.0753C55.8338 43.8258 55.6316 44.672 55.12 45.245C54.8915 45.501 54.5592 45.7519 54.1982 45.7402C53.8542 45.7291 53.6406 45.4558 53.5226 45.1603C53.3998 44.8526 53.3562 44.5188 53.2284 44.2134C53.1281 43.9737 52.9757 43.7578 52.7808 43.5854C52.3688 43.2211 51.8264 43.044 51.29 42.9679C49.9785 42.7818 48.721 43.1564 47.5275 43.6781C46.7293 44.0271 45.9656 44.4481 45.2045 44.8701C44.4076 45.312 43.6066 45.7448 42.7912 46.1516C41.9765 46.5581 41.1511 46.9431 40.3162 47.3062C39.4659 47.676 38.6068 48.0372 37.7239 48.3226C36.89 48.5921 36.0411 48.7669 35.1655 48.8165C34.4751 48.8557 33.7712 48.836 33.1011 48.6506C32.4491 48.4702 31.8664 48.1215 31.4256 47.605C30.874 46.9587 30.576 46.1254 30.3752 45.3117C29.6016 42.177 30.0795 38.7228 31.4054 35.8024C31.5658 35.449 31.7404 35.1024 31.9278 34.7625C32.0381 34.5625 31.732 34.3834 31.6216 34.5835Z" fill="#662D91"/>
<path d="M29.1321 29.8542C26.2477 32.3627 24.5733 35.9441 22.8905 39.3764C21.5676 42.0743 20.1908 44.7458 18.7612 47.3888C17.5414 49.6436 16.4706 52.3996 14.7728 54.3161C13.9866 55.2036 12.1625 56.437 10.9692 55.4789C10.5527 55.1444 10.1282 54.6872 9.59737 54.7471C8.97211 54.8176 8.66915 55.5694 8.67881 56.1985C8.69682 57.3696 9.35476 58.4832 10.2978 59.1778C11.2408 59.8724 12.4395 60.1709 13.6104 60.1426C13.3263 60.5657 13.4649 61.1655 13.794 61.5546C14.1231 61.9437 14.5998 62.171 15.0614 62.387C16.0309 62.8405 17.0003 63.2941 17.9698 63.7477C22.5212 55.4088 27.1754 47.1126 32.1121 38.9948C33.1804 37.2379 34.2966 35.5339 35.3524 33.7667C35.7606 33.0835 36.1716 32.3943 36.4345 31.6431C36.6973 30.8918 36.8048 30.0645 36.5931 29.2972" fill="#FFDE17"/>
<path d="M29.0068 29.7288C26.8074 31.6496 25.2975 34.1938 23.9843 36.7679C23.2812 38.1458 22.6173 39.5434 21.9251 40.9268C21.1567 42.4623 20.3707 43.989 19.5674 45.5066C18.8442 46.8728 18.1197 48.2337 17.4349 49.6197C16.7871 50.9307 16.1233 52.2484 15.2573 53.4319C14.5521 54.3957 13.6128 55.3486 12.3979 55.605C12.127 55.6621 11.8418 55.6698 11.5735 55.5952C11.2693 55.5106 11.0469 55.314 10.8101 55.1156C10.3537 54.7332 9.74143 54.34 9.15754 54.7205C8.68334 55.0295 8.49518 55.6588 8.5015 56.1986C8.50931 56.866 8.72255 57.5268 9.06876 58.0944C9.81439 59.3167 11.1315 60.0461 12.5267 60.2515C12.886 60.3044 13.2473 60.3271 13.6103 60.32L13.4572 60.0532C13.1995 60.4624 13.2475 60.9738 13.4681 61.3885C13.7011 61.8264 14.1322 62.1187 14.5619 62.3412C15.0802 62.6097 15.6189 62.8428 16.1476 63.0902C16.7252 63.3604 17.3027 63.6306 17.8803 63.9008C17.965 63.9405 18.0737 63.9274 18.1229 63.8372C19.3744 61.5444 20.6331 59.2556 21.9032 56.9731C23.1682 54.6999 24.4444 52.4329 25.7358 50.1746C27.0271 47.9163 28.3334 45.667 29.6588 43.4287C30.9848 41.1893 32.3271 38.96 33.7124 36.7567C34.3954 35.6703 35.08 34.5842 35.7304 33.4777C36.3306 32.4565 36.8911 31.3458 36.8824 30.1317C36.8802 29.8341 36.8401 29.5377 36.764 29.2502C36.7057 29.0297 36.3635 29.1232 36.4221 29.3444C36.7435 30.5596 36.2728 31.7792 35.6898 32.8344C35.0858 33.9278 34.4074 34.9832 33.7435 36.0408C32.3791 38.2147 31.043 40.4043 29.7317 42.6106C28.4142 44.8273 27.1157 47.0553 25.8325 49.292C24.5493 51.5287 23.2811 53.7747 22.0245 56.0268C20.7627 58.2883 19.5125 60.5563 18.27 62.8284C18.1188 63.105 17.9677 63.3816 17.8167 63.6582L18.0593 63.5946C17.0556 63.125 16.0499 62.6593 15.0481 62.1856C14.6416 61.9934 14.2106 61.784 13.9194 61.4293C13.6484 61.0992 13.5246 60.6115 13.7635 60.2322C13.8348 60.1189 13.7422 59.9628 13.6103 59.9654C12.1861 59.9932 10.715 59.5374 9.75727 58.4385C9.32352 57.9408 9.01667 57.3298 8.90083 56.6785C8.80737 56.1531 8.82888 55.4478 9.27437 55.0733C9.82186 54.613 10.4343 55.2783 10.8438 55.6043C11.3001 55.9676 11.8589 56.0636 12.4251 55.9601C13.5724 55.7503 14.5462 54.9072 15.2502 54.0216C16.1323 52.912 16.8089 51.6583 17.4437 50.396C17.7666 49.7538 18.0788 49.1063 18.402 48.4642C18.7413 47.7902 19.1043 47.1289 19.4599 46.4635C20.9928 43.5947 22.4304 40.6812 23.8771 37.7687C25.1332 35.2402 26.5016 32.6976 28.5108 30.6785C28.7514 30.4367 29.0006 30.2039 29.2575 29.9796C29.4297 29.8292 29.1781 29.5792 29.0068 29.7288Z" fill="#662D91"/>
<path d="M26.1064 20.405C23.5052 16.7767 21.3328 12.8413 19.6487 8.70676C19.3449 7.9608 18.953 7.24704 18.9997 6.42966C19.0445 5.64517 19.315 4.8725 19.7811 4.23877C19.9775 3.97178 20.2194 3.63944 20.069 3.34411C19.9309 3.07306 19.5511 3.04445 19.2564 3.11969C18.6483 3.27491 18.1232 3.72616 17.8783 4.30398C17.8266 3.54166 17.9234 2.78233 17.8213 2.02237C17.7428 1.43762 17.5541 0.856843 17.1968 0.387351C17.1455 0.319966 17.0887 0.253274 17.0131 0.215145C16.9375 0.177017 16.8385 0.173832 16.7736 0.228222C16.719 0.273985 16.6995 0.348257 16.683 0.417574C16.4671 1.32431 16.638 2.40955 16.7889 3.32575C16.7044 2.8128 16.6572 2.38591 16.4098 1.91988C16.1663 1.46124 15.9873 1.03731 15.5941 0.674529C15.5097 0.596598 15.4067 0.519005 15.2924 0.531538C15.1825 0.543594 15.0966 0.640169 15.0637 0.745765C15.0309 0.85136 15.0407 0.964969 15.0531 1.07486C15.1524 1.9534 15.5627 2.85933 15.9905 3.62694C15.7649 3.22214 15.5954 2.81502 15.3097 2.44177C15.0493 2.10165 14.7368 1.78217 14.3996 1.51635C14.2957 1.43449 14.1884 1.35079 14.0613 1.3141C13.9343 1.27742 13.7811 1.29874 13.6967 1.40053C13.586 1.53396 13.6352 1.73337 13.6956 1.89587C14.0367 2.81327 14.5659 3.62521 15.073 4.45717C14.9072 4.18525 14.5523 4.0433 14.3178 3.84668C14.0683 3.6375 13.8798 3.44865 13.5656 3.31685C13.4876 3.28413 13.4041 3.25456 13.3202 3.26519C13.16 3.28548 13.0499 3.45173 13.0403 3.61293C13.0163 4.01721 13.3459 4.35882 13.5622 4.66287C14.1932 5.55027 14.6447 5.93111 14.3324 6.96842C14.035 7.95638 14.1501 9.03164 14.77 9.87987C14.9103 10.0718 15.0735 10.2505 15.173 10.4664C15.2795 10.6976 15.306 10.9561 15.3379 11.2086C15.5558 12.9333 16.0865 14.6018 16.6479 16.2471C17.6105 19.0687 18.6791 21.8739 20.2068 24.4341C21.7344 26.9942 24.5156 31.004 30.7828 32.2861" fill="#FFDE17"/>
<path d="M26.2595 20.3156C24.4663 17.8115 22.875 15.1642 21.5081 12.4041C20.8208 11.0163 20.2244 9.59432 19.6132 8.17258C19.4703 7.84031 19.3302 7.50422 19.246 7.1514C19.1567 6.77674 19.1583 6.39868 19.2225 6.01999C19.2823 5.66723 19.3865 5.31916 19.5386 4.99508C19.6897 4.67335 19.9002 4.40261 20.0907 4.10588C20.2749 3.81909 20.398 3.43799 20.1487 3.14786C19.9413 2.90657 19.5895 2.87716 19.2955 2.93026C18.6074 3.05455 18.0024 3.58386 17.7252 4.21458L18.0556 4.30408C18.0174 3.68915 18.0693 3.07329 18.0378 2.45828C18.0096 1.90865 17.9064 1.36512 17.6808 0.86097C17.5402 0.546592 17.1431 -0.246057 16.6841 0.0752068C16.4959 0.206943 16.4782 0.503984 16.4494 0.711011C16.4129 0.973353 16.3999 1.2376 16.4048 1.50234C16.4162 2.1307 16.5162 2.75415 16.618 3.37299C16.6549 3.59775 16.9964 3.50225 16.9599 3.27871C16.8833 2.80915 16.8142 2.34294 16.6035 1.91074C16.4011 1.49521 16.1891 1.06311 15.8811 0.714429C15.7472 0.562921 15.5769 0.380796 15.3643 0.357377C15.1512 0.333917 14.9699 0.481382 14.9014 0.676489C14.8261 0.890837 14.8783 1.13944 14.9158 1.35691C14.9605 1.61617 15.0287 1.87115 15.112 2.12058C15.2973 2.67583 15.5539 3.20541 15.8374 3.71654C15.9481 3.91622 16.2539 3.73773 16.1436 3.53754C15.8909 3.07906 15.6765 2.61084 15.3443 2.20142C15.0532 1.84274 14.6898 1.44145 14.28 1.21661C13.9098 1.01353 13.4148 1.18159 13.4569 1.66116C13.4765 1.88492 13.5825 2.09963 13.6698 2.30337C13.7713 2.54045 13.8844 2.77239 14.0054 3.00015C14.2865 3.52933 14.6079 4.03563 14.9199 4.54679L15.2261 4.36779C15.0493 4.09941 14.7746 3.96065 14.52 3.7791C14.2447 3.58281 14.0208 3.3331 13.7093 3.18771C13.4063 3.04624 13.0697 3.05089 12.9165 3.3936C12.7881 3.68066 12.904 4.01234 13.0581 4.26511C13.3832 4.79872 13.8591 5.24451 14.1305 5.8118C14.4183 6.41339 14.0887 7.0125 14.0203 7.62441C13.9443 8.30452 14.0678 9.00602 14.3914 9.61058C14.5659 9.93669 14.848 10.1971 15.0068 10.5295C15.1718 10.8748 15.1682 11.3024 15.2261 11.6751C15.4784 13.2973 15.9874 14.8646 16.5176 16.4136C17.5053 19.2987 18.6148 22.1592 20.2039 24.7731C21.1165 26.2745 22.1801 27.6871 23.4863 28.87C25.2513 30.4683 27.3887 31.5897 29.6843 32.2086C30.0321 32.3024 30.3829 32.3845 30.7357 32.4572C30.9584 32.5032 31.0537 32.1614 30.8299 32.1153C28.4799 31.6306 26.2377 30.6673 24.3634 29.1549C22.9882 28.0453 21.848 26.6871 20.8927 25.2059C19.4402 22.9539 18.3629 20.4959 17.4465 17.984C16.9108 16.5157 16.3861 15.0331 15.9841 13.5218C15.7818 12.7613 15.6153 11.9897 15.5152 11.2087C15.471 10.8634 15.4289 10.5232 15.2409 10.2213C15.0508 9.91603 14.8063 9.65866 14.6468 9.33221C14.3476 8.72 14.2849 8.00538 14.4209 7.34171C14.4852 7.02794 14.6002 6.73027 14.6105 6.40651C14.6186 6.15042 14.5602 5.90207 14.4542 5.67003C14.2028 5.11974 13.7549 4.67025 13.4197 4.17204C13.3397 4.05311 13.2652 3.92772 13.2324 3.7868C13.2024 3.65798 13.2074 3.41868 13.398 3.44587C13.7164 3.49129 13.9907 3.81283 14.2285 4.0013C14.4548 4.18069 14.7569 4.29929 14.9199 4.54679C15.0445 4.73602 15.346 4.56426 15.2261 4.36779C14.9356 3.89175 14.637 3.42006 14.3702 2.93002C14.242 2.69463 14.1211 2.4551 14.013 2.20979C13.9607 2.0911 13.9103 1.97102 13.8667 1.84885C13.8381 1.76878 13.7687 1.61267 13.8235 1.52809C14.0173 1.22918 14.8349 2.15168 14.9602 2.29427C15.3364 2.72191 15.5651 3.22257 15.8374 3.71654L16.1436 3.53754C15.8847 3.07071 15.6478 2.59008 15.4738 2.08463C15.3879 1.83542 15.3167 1.58071 15.2683 1.32147C15.2484 1.21428 15.1283 0.557451 15.409 0.750856C15.7975 1.01857 16.0063 1.53043 16.2167 1.93341C16.4558 2.39128 16.5356 2.86846 16.618 3.37299L16.9599 3.27871C16.8648 2.70055 16.7734 2.11963 16.76 1.5327C16.7531 1.23258 16.7643 0.929047 16.8186 0.633284C16.8371 0.532669 16.8345 0.321073 16.9703 0.39831C17.0675 0.453598 17.1488 0.621856 17.2037 0.712361C17.8681 1.80864 17.6256 3.09185 17.701 4.30408C17.7108 4.46147 17.9546 4.56839 18.0314 4.39358C18.2725 3.845 18.782 3.36975 19.3898 3.27223C19.6409 3.23194 20.0015 3.29982 19.9264 3.63344C19.8579 3.93821 19.5783 4.19821 19.4213 4.4608C19.0755 5.03911 18.873 5.70077 18.8261 6.37238C18.7757 7.09448 19.0513 7.75756 19.3309 8.40696C19.9103 9.75277 20.4732 11.1002 21.1196 12.4163C21.7712 13.7427 22.4743 15.0437 23.2268 16.3156C24.0741 17.7476 24.9845 19.1418 25.9533 20.4946C26.085 20.6785 26.3927 20.5016 26.2595 20.3156Z" fill="#662D91"/>
<path d="M15.6219 53.223C15.3556 53.6087 15.0743 53.9759 14.7728 54.3162C13.9866 55.2037 12.1625 56.4371 10.9692 55.479C10.5527 55.1446 10.1282 54.6874 9.59737 54.7472C8.97213 54.8177 8.66914 55.5695 8.67881 56.1986C8.69682 57.3697 9.35477 58.4833 10.2978 59.1779C11.2408 59.8725 12.4395 60.171 13.6104 60.1428C13.3263 60.5659 13.4649 61.1656 13.794 61.5547C14.1231 61.9438 14.5998 62.1711 15.0614 62.3871C16.0309 62.8407 17.0003 63.2942 17.9698 63.7478C18.9986 61.863 20.7339 58.726 21.7753 56.8471C20.3341 54.7327 17.7429 54.4709 15.6219 53.223Z" fill="#FFDE17"/>
<path d="M15.4688 53.1335C14.8389 54.0415 14.1163 54.8701 13.1052 55.3588C12.6866 55.5611 12.1956 55.7083 11.7273 55.6298C11.1824 55.5385 10.8543 55.102 10.4155 54.8122C9.98412 54.5273 9.4451 54.4611 9.03208 54.8152C8.67922 55.1177 8.52685 55.6185 8.50381 56.0684C8.44669 57.184 9.03763 58.3023 9.84733 59.0371C10.8635 59.9594 12.2589 60.3465 13.6103 60.32L13.4572 60.0532C13.206 60.4513 13.2459 60.9435 13.4497 61.3528C13.6754 61.8062 14.1145 62.1087 14.5519 62.336C15.075 62.608 15.6194 62.8431 16.1534 63.0929C16.729 63.3622 17.3046 63.6315 17.8802 63.9008C17.965 63.9405 18.0736 63.9274 18.1228 63.8372C19.1264 61.9988 20.1405 60.166 21.1547 58.3334C21.4124 57.8677 21.6703 57.4021 21.9283 56.9365C21.9575 56.8839 21.9642 56.8096 21.9283 56.7575C21.3845 55.9686 20.642 55.3738 19.8015 54.9244C18.962 54.4756 18.0612 54.1584 17.1855 53.7903C16.6809 53.5782 16.1843 53.3462 15.7113 53.0699C15.5139 52.9545 15.3352 53.2609 15.5324 53.3761C17.1264 54.3076 19.0175 54.677 20.5109 55.7876C20.9405 56.1071 21.3182 56.4957 21.6221 56.9366V56.7576C20.6067 58.5897 19.5927 60.4226 18.5838 62.2583C18.3275 62.7246 18.0716 63.1912 17.8166 63.6582L18.0592 63.5946C17.0485 63.1217 16.0354 62.6535 15.027 62.1756C14.62 61.9828 14.1876 61.7695 13.9026 61.4083C13.6432 61.0796 13.5294 60.603 13.7634 60.2322C13.8349 60.1189 13.742 59.9628 13.6103 59.9654C12.4411 59.9883 11.2276 59.694 10.2981 58.9567C9.46214 58.2934 8.85787 57.2622 8.85597 56.177C8.85526 55.772 8.98079 55.257 9.34349 55.0221C9.82602 54.7097 10.3294 55.1726 10.6819 55.4701C11.052 55.7825 11.4406 55.9899 11.9348 56.0031C12.3964 56.0154 12.8504 55.8714 13.263 55.6751C14.3378 55.1636 15.1084 54.2734 15.775 53.3124C15.9053 53.1245 15.5981 52.947 15.4688 53.1335Z" fill="#662D91"/>
<path d="M36.593 29.2972L29.132 29.8542C26.2476 32.3627 24.5732 35.9441 22.8904 39.3764C21.5675 42.0743 20.1907 44.7459 18.761 47.3888C17.7579 49.2433 16.8551 51.4363 15.6218 53.2229C15.8043 52.9586 19.1608 55.8989 19.4673 56.142C20.7115 57.1291 22.1889 58.3838 22.248 59.8615C23.274 58.5065 24.3643 56.7539 25.1875 55.2669C28.8228 48.6996 32.2734 42.0299 35.5339 35.2686C35.9946 34.3132 36.4769 33.3041 36.4914 32.2226C36.5045 31.2518 36.8626 30.2743 36.593 29.2972Z" fill="#FFDE17"/>
<path d="M30.7394 37.0438C29.7499 39.0905 29.376 41.383 29.247 43.6527C29.2105 44.2959 29.1927 44.9403 29.1972 45.5846C29.2012 46.141 29.2215 46.7015 29.1281 47.2501C29.0528 47.6923 28.9034 48.1219 28.6881 48.5156C28.9261 47.9985 29.2329 47.6227 29.5545 47.177C29.9437 46.6376 30.2267 45.9769 30.5515 45.3957C30.7867 44.9748 31.0255 44.544 31.1118 44.0695C31.1838 43.6738 31.1459 43.2677 31.1229 42.8661C31.0119 40.9322 31.2554 38.9784 31.8379 37.1309" fill="#662D91"/>
<path d="M30.5862 36.9542C29.2626 39.7104 28.9924 42.8559 29.0227 45.8737C29.0271 46.3165 29.0315 46.7648 28.957 47.2028C28.8841 47.6319 28.7407 48.0428 28.5349 48.426L28.8411 48.605C29.1628 47.9202 29.6873 47.3676 30.0569 46.7116C30.2452 46.3775 30.4115 46.0318 30.5914 45.6932C30.7681 45.3606 30.9619 45.038 31.1067 44.6894C31.423 43.928 31.2987 43.1494 31.2789 42.3499C31.2586 41.5323 31.3011 40.7131 31.4057 39.9019C31.5247 38.9783 31.7307 38.0663 32.0088 37.1779C32.0771 36.9596 31.7349 36.8662 31.6668 37.0836C31.1863 38.6188 30.9319 40.2245 30.9198 41.8334C30.9167 42.2417 30.9324 42.6491 30.957 43.0565C30.9813 43.4597 30.9985 43.8636 30.8856 44.2561C30.7782 44.6295 30.5854 44.9683 30.3983 45.3062C30.2183 45.6311 30.0557 45.9651 29.8814 46.2931C29.683 46.6663 29.4572 47.0126 29.2071 47.3529C28.9557 47.6948 28.7159 48.0407 28.5349 48.426C28.4393 48.6295 28.7317 48.8088 28.8411 48.605C29.2072 47.9235 29.3592 47.1894 29.3764 46.4202C29.3943 45.6193 29.3691 44.8197 29.4055 44.0187C29.4743 42.5097 29.6419 40.9991 30.0237 39.5348C30.239 38.7093 30.523 37.9027 30.8925 37.1332C30.9908 36.9285 30.6851 36.7483 30.5862 36.9542Z" fill="#662D91"/>
<path d="M36.593 29.12C35.4849 29.2027 34.3769 29.2854 33.2688 29.3681C31.9274 29.4682 30.5861 29.5683 29.2447 29.6685C29.2093 29.6711 29.1724 29.6712 29.1372 29.6765C29.0583 29.6884 29.0232 29.7151 28.9642 29.766C28.822 29.8885 28.6843 30.0166 28.5483 30.1459C28.0339 30.6349 27.5565 31.1622 27.1124 31.7157C26.214 32.8352 25.4495 34.0538 24.7563 35.3089C24.0553 36.5779 23.4247 37.8839 22.7871 39.1854C22.041 40.7084 21.2782 42.2232 20.4982 43.729C19.7369 45.1986 18.9283 46.6446 18.1792 48.1201C17.4887 49.4801 16.856 50.8719 16.0752 52.184C15.8831 52.5068 15.6816 52.8238 15.4688 53.1335C15.3562 53.2973 15.621 53.5062 15.7473 53.3483C15.7377 53.3603 15.6618 53.3887 15.6698 53.3838C15.6591 53.3903 15.6346 53.3658 15.6595 53.384C15.6688 53.3908 15.6887 53.3928 15.6995 53.3973C15.7294 53.4096 15.6713 53.3842 15.7036 53.3992C15.719 53.4064 15.7343 53.4139 15.7493 53.4218C15.7847 53.4404 15.8195 53.46 15.8539 53.4805C16.0459 53.5946 16.2273 53.7268 16.4066 53.8596C16.8961 54.2224 17.3675 54.6098 17.8362 54.9987C18.2495 55.3417 18.6586 55.6896 19.0678 56.0373C19.5385 56.4372 20.0306 56.8104 20.4841 57.2306C21.2284 57.92 22.017 58.7943 22.0708 59.8615C22.0802 60.0482 22.2974 60.0885 22.4012 59.951C23.6595 58.2851 24.72 56.4846 25.726 54.6587C26.8372 52.6417 27.9311 50.6151 29.0074 48.5793C30.0837 46.5434 31.1424 44.4983 32.1834 42.4441C33.2245 40.39 34.2478 38.3269 35.2532 36.2551C35.7191 35.2951 36.2554 34.329 36.5203 33.2888C36.6534 32.7661 36.6454 32.2471 36.7018 31.7156C36.7602 31.1649 36.8755 30.6179 36.8705 30.0619C36.868 29.7879 36.8335 29.5153 36.764 29.2502C36.7062 29.0296 36.364 29.1231 36.422 29.3444C36.5644 29.8875 36.5157 30.4435 36.4415 30.9932C36.4047 31.2654 36.3632 31.5372 36.3377 31.8108C36.3126 32.0793 36.3198 32.3494 36.2885 32.6173C36.1646 33.6778 35.6366 34.6511 35.1786 35.5979C34.1904 37.6411 33.1849 39.6759 32.1621 41.702C31.1342 43.738 30.0891 45.7652 29.0266 47.7833C27.9642 49.8015 26.8845 51.8105 25.7878 53.8102C24.7804 55.6469 23.7512 57.4682 22.5329 59.1757C22.3896 59.3764 22.2436 59.5752 22.095 59.772L22.4254 59.8615C22.3353 58.0704 20.6444 56.9098 19.405 55.8598C18.4864 55.0817 17.5754 54.2898 16.6091 53.5709C16.4017 53.4166 16.1911 53.2586 15.9637 53.1344C15.8398 53.0667 15.6134 52.9515 15.4965 53.0976L15.775 53.3125C16.7757 51.8565 17.5128 50.2438 18.2998 48.6681C19.1354 46.9948 20.0532 45.3622 20.9118 43.7005C21.7759 42.028 22.6138 40.3427 23.4419 38.6522C24.1749 37.1558 24.9178 35.6606 25.7872 34.2376C26.7462 32.668 27.8675 31.1935 29.2575 29.9796L29.1322 30.0316C29.9751 29.9686 30.8181 29.9057 31.6611 29.8428L35.6709 29.5435C35.9783 29.5205 36.2857 29.4976 36.5931 29.4746C36.8193 29.4577 36.821 29.1029 36.593 29.12Z" fill="#662D91"/>
<path d="M17.7801 4.34889C17.6272 4.25143 17.4283 4.27898 17.2523 4.32257C16.9035 4.40895 16.5622 4.54782 16.2833 4.77436C16.0045 5.0009 15.7922 5.322 15.7438 5.67799" fill="#FFDE17"/>
<path d="M17.8697 4.19593C17.6414 4.0635 17.3807 4.10377 17.1378 4.16913C16.8834 4.23756 16.6319 4.33465 16.4065 4.47194C15.9892 4.72598 15.6468 5.13741 15.5728 5.63102C15.5586 5.7256 15.5965 5.82163 15.6967 5.84915C15.7804 5.87214 15.9005 5.82058 15.9148 5.7253C15.974 5.33061 16.2231 5.00697 16.556 4.79644C16.735 4.68327 16.9291 4.60086 17.1315 4.53977C17.2992 4.48914 17.5254 4.40628 17.6907 4.50217C17.8884 4.61693 18.0672 4.31055 17.8697 4.19593Z" fill="#662D91"/>
<path d="M52.952 44.4877C53.1263 45.082 53.2613 45.8835 53.9675 46.0632C54.6719 46.2425 55.3236 45.6588 55.6575 45.1005C56.4613 43.7569 56.2832 42.0285 55.4717 40.7349C55.0196 40.0143 54.3967 39.417 53.6896 38.949V39.2553C54.0924 39.0841 54.3399 38.6776 54.4102 38.2571C54.4968 37.738 54.3183 37.235 54.0809 36.7798C53.8029 36.2466 53.4799 35.7342 53.1766 35.2151C52.856 34.6663 52.5354 34.1176 52.2148 33.5689C52.1643 33.4825 52.0579 33.4621 51.9722 33.5053C50.1586 34.4191 48.3431 35.3292 46.5264 36.2368C46.441 36.2794 46.3169 36.3159 46.2483 36.3855C46.1763 36.4583 46.1748 36.5983 46.1572 36.6937C46.1187 36.9022 46.0875 37.1119 46.0614 37.3223C46.0056 37.7733 45.9802 38.228 45.9816 38.6824C45.9844 39.5463 46.0833 40.4116 46.2661 41.2559C46.4751 42.2212 46.8153 43.132 47.2252 44.0284C47.2677 44.1214 47.3881 44.1284 47.4678 44.092C48.3182 43.7041 49.2274 43.3534 50.1681 43.2857C50.8653 43.2355 51.6405 43.2863 52.2585 43.6441C52.5891 43.8355 52.8378 44.1205 52.952 44.4877C53.0196 44.705 53.3621 44.6122 53.294 44.3934C52.8036 42.817 50.6443 42.743 49.3151 43.0576C48.6154 43.2232 47.9417 43.488 47.2888 43.7858L47.5314 43.8494C47.0145 42.7191 46.6357 41.5549 46.4563 40.322C46.2751 39.0763 46.2887 37.792 46.5446 36.558L46.4631 36.664C48.3607 35.7162 50.257 34.766 52.1512 33.8115L51.9086 33.7479C52.4733 34.7144 53.0432 35.6781 53.6025 36.6478C53.8391 37.0581 54.0885 37.5112 54.0804 37.999C54.0738 38.396 53.8884 38.7885 53.5106 38.949C53.3788 39.005 53.4124 39.1903 53.5106 39.2553C54.6053 39.9797 55.5012 41.0718 55.7555 42.3833C55.8835 43.0432 55.8397 43.739 55.6121 44.3724C55.4086 44.9385 54.9996 45.6026 54.3597 45.7267C53.5966 45.8748 53.4476 44.917 53.294 44.3934C53.2299 44.1749 52.8876 44.2679 52.952 44.4877Z" fill="#662D91"/>
<path d="M31.7747 34.6729C31.444 34.8654 31.1499 35.9318 31.0075 36.2824C30.201 38.2685 29.8439 40.4623 29.7697 42.5979C29.6588 45.7945 29.8386 49.1917 33.3248 50.4032C35.1183 51.0264 37.0925 50.9677 38.9463 50.5571C41.2975 50.0362 44.0346 49.1315 46.0628 47.8373C47.2287 47.0933 48.2917 46.1471 48.9962 44.9568C48.0184 43.752 47.2818 42.3548 46.8255 40.8724C46.5974 40.1312 46.4391 39.3684 46.3558 38.5973C46.3247 38.3094 46.0422 36.6764 46.3736 36.5109C45.9745 36.7103 45.5756 36.9103 45.1763 37.1094C44.0007 37.6954 42.8246 38.2801 41.6478 38.8635C41.118 39.1261 39.7367 40.2683 39.164 40.0029C40.0012 36.4395 40.843 33.0629 40.892 29.3641" fill="#FFDE17"/>
<path d="M31.6852 34.5199C31.3433 34.7374 31.1964 35.2342 31.0655 35.5929C30.8887 36.0775 30.7001 36.5596 30.5348 37.0481C30.0936 38.3528 29.8322 39.7138 29.6941 41.0826C29.5808 42.2063 29.5414 43.3475 29.5831 44.4766C29.6185 45.432 29.7273 46.4019 30.0339 47.3118C30.3247 48.1746 30.8027 48.9738 31.4963 49.5724C32.3636 50.321 33.4741 50.7191 34.5912 50.9089C35.9398 51.1381 37.3219 51.0612 38.6597 50.798C39.9073 50.5525 41.1423 50.1999 42.341 49.7777C44.6727 48.9567 47.0833 47.7939 48.634 45.7985C48.8208 45.5581 48.9931 45.3079 49.1493 45.0465C49.1932 44.973 49.1714 44.8933 49.1215 44.8316C48.2403 43.7401 47.5562 42.4897 47.1053 41.1617C46.733 40.0648 46.5452 38.9211 46.429 37.7715C46.4044 37.5286 46.3852 37.2834 46.3927 37.0392C46.3954 36.9519 46.3996 36.8637 46.4193 36.7783C46.4261 36.7492 46.4392 36.71 46.444 36.6933C46.4535 36.6605 46.4527 36.6701 46.4631 36.6641C46.6628 36.5497 46.4869 36.2566 46.2841 36.3579C45.0746 36.9621 43.8647 37.5656 42.6537 38.167C42.1904 38.397 41.7055 38.6029 41.268 38.8803C40.9318 39.0935 40.6054 39.3219 40.26 39.5205C40.072 39.6285 39.8782 39.7335 39.6721 39.8029C39.5532 39.8429 39.3779 39.9028 39.2535 39.8499L39.335 40.0502C39.9784 37.3124 40.6486 34.5709 40.9301 31.7666C41.0102 30.9681 41.0576 30.1667 41.0693 29.3642C41.0726 29.1359 40.718 29.1359 40.7146 29.3642C40.674 32.1595 40.1588 34.9061 39.5383 37.6233C39.3605 38.4017 39.1757 39.1786 38.993 39.9559C38.9769 40.0244 39.0019 40.1253 39.0745 40.1562C39.4045 40.2965 39.7562 40.1659 40.0633 40.0237C40.4544 39.8426 40.8148 39.6 41.1741 39.364C41.5615 39.1094 41.9606 38.9061 42.3763 38.6998C43.0153 38.3827 43.6541 38.0652 44.2928 37.7473C45.0166 37.387 45.7398 37.0255 46.4631 36.6641L46.2841 36.3579C45.9659 36.5403 46.0282 37.1123 46.0454 37.4144C46.0672 37.7969 46.135 38.2323 46.1763 38.5781C46.3597 40.1157 46.7836 41.5986 47.494 42.9778C47.879 43.7255 48.3427 44.4283 48.8708 45.0824L48.843 44.8675C47.5911 46.9625 45.3337 48.2326 43.1269 49.107C41.9778 49.5624 40.7931 49.928 39.5933 50.2238C38.3293 50.5354 37.0479 50.7432 35.7419 50.6793C34.5601 50.6215 33.3252 50.3598 32.3084 49.7309C31.5468 49.2597 30.9653 48.5742 30.591 47.7634C30.2158 46.9502 30.0518 46.0473 29.9781 45.1602C29.8964 44.1764 29.9136 43.182 29.9643 42.197C30.0323 40.8752 30.2111 39.5573 30.5412 38.2745C30.7062 37.6333 30.9093 37.0019 31.1553 36.387C31.3077 36.0062 31.4151 35.6078 31.5902 35.2361C31.6546 35.0994 31.731 34.9108 31.8642 34.8261C32.0563 34.704 31.8786 34.397 31.6852 34.5199Z" fill="#662D91"/>
<path d="M22.5745 14.8251C20.8194 15.5759 19.2605 16.8002 18.1764 18.3776C18.0464 18.5668 17.9236 18.761 17.8088 18.9598C17.7515 19.0589 17.6931 19.1588 17.6424 19.2615C17.576 19.3963 17.6428 19.4998 17.6944 19.6297C17.9046 20.1584 18.1237 20.6836 18.3539 21.2038C18.8184 22.2538 19.3303 23.2836 19.9078 24.2762C20.509 25.3097 21.1691 26.3109 21.9302 27.2344C22.8499 28.3505 23.9192 29.3406 25.1185 30.1506C26.5947 31.1477 28.2558 31.8538 29.9816 32.286C30.2317 32.3486 30.4831 32.4053 30.7356 32.4573C30.9583 32.5033 31.0536 32.1615 30.8299 32.1154C28.2712 31.5877 25.8567 30.4878 23.8886 28.7547C22.4887 27.522 21.3729 26.0317 20.4161 24.4388C19.4402 22.8141 18.647 21.0896 17.9542 19.3274L17.9363 19.464C18.9685 17.4996 20.7249 15.9991 22.7535 15.1313C22.9627 15.0418 22.7822 14.7362 22.5745 14.8251Z" fill="#662D91"/>
<path d="M28.3024 29.5764C26.4449 28.6973 25.2504 26.7589 24.8319 24.747C24.4135 22.735 24.6737 20.6442 25.083 18.6304C24.1978 19.4014 23.3061 20.1793 22.5926 21.1116C21.8791 22.0438 21.3475 23.1529 21.2885 24.3254C21.1664 26.7491 22.8185 28.2079 24.5591 29.532C26.3884 30.9235 28.5369 31.8269 30.7828 32.2863" fill="#662D91"/>
<path d="M28.392 29.423C27.1131 28.81 26.166 27.7024 25.5726 26.4308C24.8835 24.9544 24.7242 23.2994 24.8245 21.6891C24.8876 20.6753 25.0527 19.6719 25.254 18.6773C25.2897 18.5009 25.0936 18.3863 24.9576 18.5047C23.8475 19.4718 22.715 20.4635 21.9505 21.7399C21.251 22.9077 20.9148 24.2817 21.2222 25.6274C21.4831 26.7696 22.2044 27.723 23.0458 28.5103C23.9972 29.4004 25.0752 30.1912 26.2168 30.8179C27.6278 31.5925 29.1608 32.1321 30.7357 32.457C30.9584 32.503 31.0537 32.1612 30.8299 32.1151C29.4855 31.8376 28.1717 31.4068 26.9408 30.7962C25.7756 30.2182 24.7048 29.4774 23.7165 28.6339C22.8772 27.9175 22.0809 27.0767 21.7052 26.0179C21.2709 24.7941 21.4487 23.4677 22.0318 22.3247C22.7677 20.8823 24.0065 19.8025 25.2084 18.7555L24.912 18.583C24.5464 20.39 24.294 22.2515 24.5421 24.092C24.7444 25.5929 25.3065 27.0497 26.2865 28.2168C26.8159 28.8471 27.4697 29.3729 28.213 29.7292C28.4178 29.8274 28.5979 29.5218 28.392 29.423Z" fill="#662D91"/>
<path d="M27.6823 31.6539C28.6476 32.8033 30.2594 33.1186 31.7404 33.3624C32.7318 33.5256 33.7232 33.6888 34.7146 33.852C35.7366 34.0202 36.7715 34.1922 37.7178 34.6132C38.6642 35.0343 39.5277 35.7392 39.9175 36.6988C40.6421 33.8243 40.8741 30.8262 40.6003 27.8744" fill="#662D91"/>
<path d="M27.5569 31.7794C28.6407 33.0496 30.4015 33.3208 31.9577 33.577C32.9837 33.7459 34.0105 33.9111 35.0358 34.0842C35.9819 34.2439 36.9488 34.428 37.8165 34.8544C38.6358 35.2571 39.3888 35.8865 39.7466 36.746C39.8084 36.8945 40.0417 36.9331 40.0886 36.746C40.6517 34.5 40.9229 32.181 40.8857 29.8655C40.875 29.2007 40.8383 28.5366 40.7777 27.8745C40.757 27.649 40.4022 27.6469 40.423 27.8745C40.6321 30.1598 40.5464 32.4716 40.1541 34.7333C40.0423 35.3777 39.9057 36.0174 39.7466 36.6518H40.0886C39.3765 34.941 37.563 34.2138 35.8658 33.8757C34.865 33.6763 33.8519 33.5313 32.8451 33.3656C31.9474 33.2178 31.0373 33.0975 30.1574 32.8605C29.2712 32.6218 28.4145 32.2398 27.8077 31.5286C27.6593 31.3547 27.4095 31.6066 27.5569 31.7794Z" fill="#662D91"/>
<path d="M28.5196 31.816C25.5649 30.8351 23.1001 28.7039 22.7767 25.4376C22.5842 23.4941 23.1632 21.5412 24.1788 19.8932C25.0725 18.4429 26.5997 17.3119 28.0835 16.4875C29.7085 15.5848 32.0037 15.2085 33.8441 15.0777C35.8921 14.9322 37.9806 15.1966 39.8797 15.9978C41.5405 16.6985 43.0585 17.8211 44.0183 19.3468C45.4987 21.7 45.7288 24.6648 44.5262 27.1852C43.5213 29.2914 41.6377 30.9281 39.4682 31.7878C38.4737 32.1819 37.4226 32.4214 36.3623 32.5623C33.7366 32.9113 31.033 32.6503 28.5196 31.816Z" fill="#FFDE17"/>
<path d="M28.5666 31.6451C26.9605 31.1082 25.4407 30.2115 24.3658 28.8826C23.1549 27.3858 22.7215 25.4426 22.9996 23.5521C23.1667 22.4166 23.5664 21.3215 24.1303 20.3241C24.645 19.4138 25.3358 18.649 26.1453 17.9903C26.9219 17.3585 27.7951 16.7862 28.7084 16.3723C29.6401 15.95 30.6492 15.6984 31.6534 15.5205C33.7782 15.1441 35.9836 15.0713 38.0904 15.5924C40.0799 16.0844 41.9985 17.0949 43.3227 18.6877C44.6207 20.249 45.2485 22.346 45.0974 24.3629C44.9487 26.3471 44.0091 28.1797 42.5943 29.5609C41.0974 31.0221 39.181 31.8804 37.1395 32.2606C34.8588 32.6853 32.4797 32.617 30.2193 32.1051C29.6612 31.9788 29.11 31.8243 28.5666 31.6451C28.3494 31.5734 28.2563 31.9158 28.4724 31.9871C30.761 32.7422 33.2025 33.0345 35.6041 32.8235C37.8284 32.628 40.0263 32.0186 41.836 30.6701C43.4513 29.4664 44.709 27.77 45.2159 25.8052C45.7441 23.7582 45.4415 21.5472 44.4292 19.6963C43.4279 17.8654 41.721 16.5603 39.8115 15.7791C37.6543 14.8965 35.3066 14.7288 33.0077 14.9749C31.9521 15.0879 30.898 15.2666 29.8788 15.5683C28.8772 15.8649 27.9613 16.3132 27.0848 16.8783C26.1845 17.4588 25.3295 18.1384 24.6386 18.9616C23.923 19.814 23.4003 20.8344 23.042 21.8848C22.3562 23.8955 22.3666 26.1665 23.3928 28.06C24.2315 29.6075 25.657 30.7597 27.2352 31.4956C27.6377 31.6833 28.0513 31.8463 28.4724 31.9871C28.6893 32.0596 28.7824 31.7172 28.5666 31.6451Z" fill="#662D91"/>
<path d="M41.685 21.5412C44.7576 18.3024 47.4473 14.7008 49.6805 10.8351C50.0834 10.1376 50.5692 9.48412 50.6346 8.66803C50.6973 7.88475 50.535 7.08238 50.1598 6.39092C50.0018 6.09959 49.8075 5.73731 49.9969 5.46529C50.1707 5.21565 50.5509 5.23922 50.8326 5.35402C51.4137 5.59088 51.8722 6.10963 52.0359 6.7155C52.1912 5.96739 52.1991 5.20194 52.4041 4.46306C52.5618 3.89452 52.828 3.34499 53.2461 2.92872C53.3062 2.86896 53.3715 2.81065 53.4517 2.78322C53.5318 2.75579 53.6303 2.76616 53.6871 2.8289C53.735 2.8817 53.7441 2.95793 53.751 3.02885C53.841 3.95659 53.5234 5.00829 53.2487 5.89528C53.4025 5.39868 53.5076 4.98225 53.8164 4.55441C54.1203 4.13335 54.3555 3.73785 54.7945 3.43218C54.8888 3.36651 55.0015 3.30374 55.1129 3.33176C55.2202 3.35872 55.2921 3.46614 55.3102 3.57523C55.3284 3.68432 55.3031 3.79554 55.2758 3.9027C55.0574 4.75944 54.5272 5.6008 53.9985 6.30277C54.2773 5.93258 54.5008 5.55242 54.8348 5.22173C55.1392 4.92037 55.4925 4.64659 55.8629 4.42934C55.9769 4.36243 56.0947 4.29419 56.2256 4.27521C56.3565 4.25622 56.5053 4.29827 56.575 4.41064C56.6664 4.55796 56.5904 4.74877 56.5083 4.90149C56.0451 5.76368 55.41 6.49571 54.794 7.25058C54.9953 7.00386 55.3663 6.91172 55.6255 6.74899C55.9012 6.57587 56.1137 6.41453 56.443 6.32691C56.5248 6.30515 56.6115 6.28725 56.6932 6.30926C56.8491 6.35125 56.9355 6.53099 56.9229 6.69197C56.8915 7.09575 56.5183 7.3891 56.2625 7.66076C55.5161 8.45359 55.0168 8.76918 55.1845 9.83944C55.3441 10.8588 55.0831 11.9082 54.3532 12.6638C54.188 12.8348 54.0019 12.9895 53.8738 13.1898C53.7368 13.4042 53.6751 13.6567 53.6091 13.9024C53.1576 15.5812 52.4038 17.1615 51.6229 18.7147C50.2838 21.3783 48.8419 24.0112 46.9788 26.3386C45.1156 28.6661 41.8127 32.2582 35.4291 32.672" fill="#FFDE17"/>
<path d="M41.8104 21.6666C43.8422 19.5225 45.7086 17.2221 47.387 14.7913C48.2248 13.578 49.0156 12.3322 49.7566 11.0575C50.1013 10.4644 50.5152 9.88441 50.7105 9.21943C50.9039 8.56109 50.8473 7.81554 50.6624 7.16161C50.5565 6.78712 50.3819 6.45656 50.2122 6.10949C50.1418 5.96557 50.044 5.75797 50.1232 5.59846C50.1895 5.4648 50.3502 5.44071 50.4846 5.44992C50.7979 5.47138 51.1043 5.67044 51.3274 5.87968C51.5849 6.1211 51.7686 6.42347 51.8649 6.76263C51.9104 6.92284 52.1711 6.94003 52.2069 6.76263C52.4454 5.5817 52.3809 4.28026 53.1663 3.28393C53.2457 3.18328 53.3412 3.05078 53.4515 2.9822C53.6059 2.88614 53.581 3.09461 53.5857 3.20059C53.5992 3.50106 53.5749 3.80338 53.5271 4.10002C53.4311 4.69501 53.2555 5.27353 53.0777 5.84815L53.4197 5.94243C53.5672 5.46337 53.7094 5.01021 54.003 4.59723C54.1428 4.40053 54.2763 4.19792 54.4314 4.01271C54.578 3.83767 54.7684 3.61425 54.9837 3.52385C55.2715 3.40299 55.0551 4.03769 55.0209 4.14039C54.9356 4.39581 54.8266 4.64189 54.7028 4.88084C54.4594 5.3507 54.1624 5.7904 53.8454 6.21326L54.1516 6.39225C54.4772 5.95588 54.7634 5.51014 55.1749 5.14626C55.3712 4.97268 55.5807 4.81498 55.8019 4.67441C55.9173 4.60101 56.2938 4.31555 56.4218 4.50014C56.4877 4.59504 56.3841 4.75808 56.3406 4.83885C56.2781 4.95504 56.2113 5.06896 56.1422 5.18136C56.0047 5.40499 55.8558 5.62143 55.7005 5.83299C55.3742 6.27743 55.0173 6.6984 54.6686 7.12519C54.5265 7.29908 54.7671 7.54972 54.9193 7.37597C55.1232 7.14337 55.4369 7.06809 55.6951 6.91405C55.833 6.83177 55.9638 6.73815 56.1037 6.65912C56.2279 6.58896 56.4979 6.42736 56.6461 6.48025C56.7835 6.52932 56.7502 6.72701 56.7125 6.83055C56.6625 6.96786 56.568 7.08637 56.471 7.19331C56.2643 7.42116 56.0414 7.63707 55.8263 7.85703C55.4795 8.21155 55.1092 8.58664 55.01 9.09206C54.9517 9.38917 54.9879 9.67367 55.0252 9.97044C55.0665 10.2998 55.0642 10.6401 55.0076 10.9674C54.8897 11.6492 54.5605 12.2122 54.0716 12.6934C53.826 12.9353 53.643 13.1847 53.5346 13.5152C53.4187 13.8683 53.3358 14.2322 53.2213 14.5862C52.7369 16.0842 52.0393 17.5009 51.3299 18.9026C50.0026 21.5254 48.5611 24.11 46.7033 26.3996C45.622 27.732 44.4135 28.9638 42.9973 29.9423C41.0562 31.2834 38.8063 32.1046 36.4679 32.3967C36.1227 32.4398 35.7762 32.4716 35.4291 32.4947C35.2025 32.5097 35.2009 32.8645 35.4291 32.8493C37.9687 32.6806 40.4536 31.9689 42.6193 30.6149C44.1949 29.6297 45.5476 28.3462 46.7316 26.9213C48.606 24.6657 50.0773 22.1279 51.4106 19.5247C52.1388 18.103 52.8628 16.6685 53.3997 15.1614C53.5383 14.7725 53.6635 14.3788 53.7717 13.9803C53.8186 13.8077 53.8593 13.6311 53.9294 13.466C54.0063 13.2846 54.1257 13.1404 54.2637 13.0022C54.7542 12.5112 55.1311 11.9791 55.3004 11.2952C55.3831 10.9614 55.4177 10.6131 55.404 10.2695C55.3912 9.94666 55.3061 9.62768 55.3355 9.30355C55.3848 8.76071 55.8066 8.38519 56.1647 8.01825C56.3834 7.79413 56.6216 7.57667 56.8176 7.3323C56.9979 7.10753 57.1575 6.80944 57.0827 6.51213C56.871 5.67128 55.8585 6.42226 55.4551 6.64281C55.1824 6.79193 54.8797 6.8842 54.6686 7.12519L54.9193 7.37597C55.2426 6.98032 55.5709 6.5887 55.8799 6.18168C56.1873 5.77674 56.5134 5.34267 56.7176 4.87425C56.8007 4.68359 56.8343 4.46346 56.7021 4.28628C56.5821 4.12555 56.3697 4.07156 56.1784 4.10422C55.9402 4.14488 55.7208 4.3011 55.5239 4.43278C55.3223 4.5676 55.129 4.71639 54.9465 4.87601C54.5024 5.26429 54.195 5.74467 53.8454 6.21326C53.7087 6.39645 54.0163 6.57275 54.1516 6.39225C54.4625 5.97757 54.754 5.54681 54.9948 5.08718C55.2114 4.67377 55.4516 4.18423 55.4901 3.71225C55.5064 3.512 55.4312 3.29554 55.2462 3.19492C55.0224 3.07321 54.7883 3.21281 54.6107 3.34846C54.2462 3.62688 53.9921 4.00183 53.7298 4.3718C53.406 4.8285 53.241 5.31805 53.0777 5.84815C53.0103 6.06679 53.3523 6.16011 53.4197 5.94243C53.5855 5.40641 53.7493 4.86747 53.8485 4.31439C53.8973 4.04298 53.9329 3.76772 53.9417 3.49192C53.9489 3.2691 53.9762 2.95847 53.8548 2.76118C53.7348 2.56602 53.4769 2.55598 53.2941 2.66302C53.0885 2.7834 52.9269 3.0063 52.7913 3.19708C52.4874 3.62446 52.293 4.12934 52.1772 4.63836C52.0251 5.3071 52.0006 5.99665 51.8649 6.66837H52.2069C52.0366 6.06883 51.6184 5.54157 51.0573 5.26219C50.8019 5.13503 50.5067 5.04866 50.2214 5.1179C49.9392 5.18636 49.7453 5.42997 49.7419 5.72039C49.7379 6.0554 49.9473 6.34871 50.0875 6.63781C50.2522 6.97713 50.3624 7.34407 50.4226 7.71612C50.482 8.08373 50.4987 8.4817 50.4339 8.8498C50.3709 9.20731 50.2244 9.54004 50.0515 9.85681C49.701 10.4985 49.3118 11.1248 48.9331 11.7503C48.5301 12.4159 48.1134 13.0733 47.6834 13.7219C46.8317 15.0064 45.9285 16.2571 44.9747 17.4677C43.8974 18.8351 42.757 20.1523 41.5596 21.4158C41.4027 21.5815 41.653 21.8327 41.8104 21.6666Z" fill="#662D91"/>
<path d="M52.1741 6.94456C52.3606 6.86821 52.5633 6.96674 52.734 7.04588C52.9195 7.13185 53.1019 7.23492 53.2589 7.36675C53.5583 7.61811 53.7809 7.96833 53.7853 8.36844C53.7878 8.5965 54.1425 8.59709 54.14 8.36844C54.1345 7.86845 53.8683 7.40775 53.4861 7.09642C53.2942 6.94019 53.083 6.81395 52.8568 6.71422C52.6172 6.60864 52.3391 6.49642 52.0799 6.60257C51.9913 6.63884 51.9285 6.72044 51.956 6.8207C51.9791 6.90455 52.085 6.98107 52.1741 6.94456Z" fill="#662D91"/>
<path d="M33.1097 20.3627C33.6091 20.1129 34.2606 20.169 34.7039 20.5132C34.7794 20.5719 34.881 20.5869 34.9546 20.5132C35.0158 20.4521 35.0307 20.3216 34.9546 20.2625C34.3774 19.8142 33.5869 19.7282 32.9307 20.0564C32.7265 20.1585 32.9059 20.4646 33.1097 20.3627Z" fill="#662D91"/>
<path d="M27.9986 19.3654C28.2434 19.3959 28.5165 19.4294 28.7388 19.552C28.7639 19.5658 28.7885 19.5807 28.8123 19.5965C28.8324 19.6099 28.8575 19.6287 28.861 19.6316C28.905 19.6683 28.9459 19.7083 28.9826 19.7523C29.0023 19.7761 28.9715 19.7363 28.9895 19.7612C28.9987 19.7739 29.0075 19.7868 29.0159 19.8001C29.0309 19.8238 29.0441 19.8484 29.0566 19.8735C29.0702 19.9007 29.0498 19.8541 29.0609 19.8824C29.0666 19.8968 29.0716 19.9115 29.076 19.9263C29.0796 19.9382 29.0829 19.9502 29.0858 19.9623C29.0858 19.9623 29.096 20.018 29.0924 19.9892C29.1045 20.0842 29.1652 20.1665 29.2697 20.1665C29.3561 20.1665 29.4592 20.0848 29.447 19.9892C29.4074 19.6773 29.2184 19.4253 28.9509 19.2648C28.6636 19.0924 28.3244 19.0514 27.9986 19.0107C27.9034 18.9988 27.8213 19.1007 27.8213 19.188C27.8213 19.2938 27.9031 19.3534 27.9986 19.3654Z" fill="#662D91"/>
<path d="M44.5673 18.2454C45.3716 20.3723 47.2443 21.8212 49.1574 22.916C49.3558 23.0295 49.5347 22.7232 49.3364 22.6098C47.5122 21.5659 45.6782 20.1844 44.9093 18.1511C44.8293 17.9396 44.4864 18.0313 44.5673 18.2454Z" fill="#662D91"/>
<path d="M20.3138 59.7667C20.6584 59.9487 21.0463 60.0593 21.4413 60.0882C21.6424 60.1028 21.8521 60.0951 22.0342 60.0144C22.2164 59.9337 22.3652 59.7665 22.3663 59.5787C22.3669 59.476 22.325 59.3777 22.2807 59.2837C22.0305 58.7542 21.678 58.2668 21.245 57.8519C21.2389 58.1701 21.0101 58.4401 20.8271 58.7089C20.6134 59.023 20.4507 59.3671 20.3465 59.726" fill="#662D91"/>
<path d="M20.2244 59.9197C20.5173 60.0718 20.8318 60.1809 21.1583 60.232C21.4783 60.2821 21.8215 60.3055 22.1238 60.1674C22.4058 60.0386 22.5935 59.7483 22.5263 59.4365C22.4926 59.2803 22.4054 59.1291 22.3307 58.9891C22.2554 58.8479 22.1728 58.7106 22.0837 58.5777C21.8771 58.2695 21.6372 57.9841 21.3704 57.7264C21.2568 57.6168 21.0746 57.6991 21.0677 57.8518C21.0531 58.1759 20.7863 58.4421 20.6199 58.7012C20.4259 59.0034 20.2775 59.3347 20.1755 59.6788C20.1105 59.898 20.4527 59.9917 20.5175 59.773C20.6225 59.419 20.7818 59.088 20.9905 58.7834C21.1884 58.4945 21.406 58.2163 21.4224 57.8518L21.1197 57.9772C21.3697 58.2187 21.5958 58.4829 21.7882 58.7727C21.8803 58.9113 21.9652 59.0546 22.0424 59.202C22.1054 59.3222 22.226 59.497 22.1785 59.6381C22.0779 59.9369 21.6524 59.9293 21.4018 59.9076C21.0543 59.8774 20.7125 59.7739 20.4034 59.6134C20.2011 59.5084 20.0215 59.8144 20.2244 59.9197Z" fill="#662D91"/>
<path d="M39.1991 39.1168C38.7476 40.7702 38.2652 42.415 37.7522 44.0504C37.6837 44.2686 38.0259 44.362 38.0941 44.1446C38.6072 42.5093 39.0896 40.8645 39.541 39.2111C39.6012 38.9906 39.2592 38.8965 39.1991 39.1168Z" fill="#662D91"/>
<path d="M49.3901 42.1496C49.3688 42.465 49.4428 42.7829 49.5929 43.0604C49.637 43.1421 49.7568 43.1747 49.8355 43.124C49.9184 43.0705 49.9463 42.9688 49.8991 42.8814C49.8831 42.8517 49.8678 42.8217 49.8537 42.7911C49.8497 42.7823 49.8457 42.7736 49.8419 42.7647C49.8503 42.785 49.8506 42.7858 49.843 42.7672C49.8378 42.7537 49.8324 42.7403 49.8274 42.7268C49.8032 42.6613 49.7837 42.5941 49.7689 42.5259C49.7617 42.4929 49.7564 42.4597 49.7507 42.4265C49.7488 42.4132 49.7493 42.417 49.7522 42.4379C49.751 42.4283 49.7499 42.4187 49.7489 42.4092C49.7472 42.3924 49.7457 42.3756 49.7445 42.3588C49.7397 42.2891 49.74 42.2193 49.7447 42.1496C49.751 42.0569 49.6587 41.9682 49.5674 41.9723C49.466 41.9768 49.3968 42.0503 49.3901 42.1496Z" fill="#662D91"/>
<path d="M50.5814 41.9206C50.4928 42.2408 50.5332 42.5843 50.6876 42.8776C50.7309 42.9598 50.8522 42.9915 50.9302 42.9412C51.0139 42.8872 51.0401 42.7865 50.9938 42.6986C50.9852 42.6822 50.9768 42.6658 50.969 42.649C50.9651 42.6407 50.9612 42.6322 50.9575 42.6238C50.9654 42.6428 50.9669 42.6463 50.962 42.6342C50.9501 42.6016 50.9378 42.5694 50.928 42.5361C50.9189 42.5051 50.9111 42.4736 50.9047 42.442C50.902 42.4284 50.8999 42.4147 50.8972 42.4011C50.8942 42.3808 50.8943 42.3828 50.8976 42.407C50.8964 42.3979 50.8954 42.3887 50.8945 42.3795C50.8879 42.3152 50.8869 42.2503 50.8916 42.1857C50.8929 42.1678 50.893 42.1482 50.8969 42.1306C50.8871 42.1749 50.8969 42.1334 50.8987 42.1229C50.9051 42.0865 50.9135 42.0506 50.9234 42.0149C50.9481 41.9256 50.8928 41.818 50.7995 41.7968C50.7057 41.7754 50.6079 41.825 50.5814 41.9206Z" fill="#662D91"/>
<path d="M51.7581 42.2406V43.0608C51.7581 43.1535 51.8396 43.2424 51.9354 43.2381C52.0314 43.2338 52.1127 43.1602 52.1127 43.0608V42.2406C52.1127 42.1478 52.0311 42.059 51.9354 42.0633C51.8393 42.0676 51.7581 42.1412 51.7581 42.2406Z" fill="#662D91"/>
<path d="M12.4213 56.129C12.5371 56.4048 12.653 56.6805 12.7688 56.9563C12.7876 57.001 12.8067 57.0368 12.8503 57.0623C12.8883 57.0845 12.9443 57.0939 12.9869 57.0802C13.0687 57.0537 13.1493 56.9536 13.1108 56.862C12.9949 56.5863 12.8791 56.3105 12.7633 56.0347C12.7445 55.9901 12.7253 55.9543 12.6818 55.9287C12.6438 55.9065 12.5877 55.8971 12.5451 55.9109C12.4634 55.9373 12.3828 56.0374 12.4213 56.129Z" fill="#662D91"/>
<path d="M13.3216 55.3641C13.4351 55.5302 13.5384 55.7029 13.6302 55.8819C13.7245 56.0661 13.7909 56.2206 13.8592 56.4111C13.8903 56.4982 13.9814 56.566 14.0773 56.5349C14.1631 56.5072 14.2346 56.4103 14.2011 56.3168C14.058 55.917 13.8674 55.5358 13.6279 55.185C13.5756 55.1086 13.4696 55.067 13.3852 55.1214C13.3091 55.1705 13.2657 55.2821 13.3216 55.3641Z" fill="#662D91"/>
<path d="M14.2631 55.1254C14.3396 55.1872 14.4113 55.2543 14.4772 55.3272C14.4932 55.3449 14.5089 55.3629 14.5242 55.3812C14.5328 55.3914 14.5412 55.4016 14.5495 55.412C14.5514 55.4145 14.5713 55.4401 14.5601 55.4254C14.5472 55.4083 14.5726 55.4424 14.5749 55.4456C14.5812 55.4542 14.5873 55.4628 14.5935 55.4715C14.6087 55.4932 14.6235 55.5152 14.6379 55.5376C14.6896 55.6181 14.7342 55.7024 14.7739 55.7894C14.795 55.8356 14.7671 55.7711 14.778 55.7983C14.7829 55.8106 14.7879 55.8229 14.7927 55.8353C14.8013 55.8575 14.8094 55.88 14.8171 55.9026C14.8334 55.9503 14.8476 55.9987 14.8601 56.0475C14.8831 56.1374 14.9882 56.2005 15.0782 56.1714C15.171 56.1413 15.2267 56.0496 15.2021 55.9532C15.0946 55.5339 14.8511 55.1471 14.5139 54.8746C14.4419 54.8164 14.3326 54.799 14.2631 54.8746C14.2038 54.9393 14.1861 55.0631 14.2631 55.1254Z" fill="#662D91"/>
<path d="M12.6207 54.1602C12.2274 54.0965 11.9333 53.6944 11.9871 53.2971C12.0147 53.0932 12.1591 52.8784 12.368 52.8293C12.4615 52.8073 12.5475 52.8284 12.616 52.8966C12.6674 52.9477 12.7179 53.0359 12.6836 53.1096L13.0077 53.152C12.9817 52.965 12.942 52.7236 13.0562 52.5569C13.1341 52.4432 13.2801 52.3731 13.3869 52.489C13.5144 52.6272 13.572 52.85 13.624 53.0253C13.6917 53.2538 13.7337 53.4875 13.7495 53.7252C13.7647 53.9517 14.1194 53.9534 14.1042 53.7252C14.0829 53.4057 14.0242 53.0892 13.9195 52.7863C13.8303 52.5283 13.7182 52.2163 13.4432 52.1067C13.184 52.0034 12.9054 52.147 12.7579 52.3659C12.5829 52.6253 12.6252 52.9547 12.6657 53.2463C12.6863 53.3947 12.9285 53.4202 12.9898 53.2886C13.1145 53.0212 13.0072 52.73 12.7691 52.566C12.5189 52.3937 12.1962 52.4644 11.9725 52.6446C11.55 52.9849 11.5386 53.6174 11.8363 54.042C11.9999 54.2752 12.2408 54.4559 12.5264 54.5022C12.6208 54.5175 12.7172 54.4777 12.7445 54.3783C12.7678 54.2937 12.7157 54.1756 12.6207 54.1602Z" fill="#662D91"/>
<path d="M50.4085 44.2914C50.3164 44.8702 50.4057 45.4542 50.6742 45.9761C50.7246 46.074 50.8793 46.0947 50.9527 46.012C51.3445 45.5711 51.5095 44.9822 51.4125 44.4017L51.0705 44.4959C51.214 44.8884 51.4219 45.2456 51.6921 45.5643C51.775 45.6621 51.9653 45.613 51.9885 45.486C52.092 44.9207 51.8521 44.3423 51.3747 44.0205C51.2952 43.9669 51.1782 44.0052 51.1321 44.0841C51.081 44.1714 51.116 44.273 51.1957 44.3267C51.5322 44.5536 51.7198 44.9915 51.6465 45.3918L51.9429 45.3135C51.7146 45.0442 51.5337 44.7333 51.4125 44.4017C51.3335 44.1855 51.033 44.2712 51.0705 44.4959C51.1453 44.9437 51.0027 45.4229 50.702 45.7613L50.9805 45.7972C50.759 45.3668 50.6743 44.8646 50.7505 44.3857C50.7655 44.2912 50.7262 44.1949 50.6267 44.1676C50.5423 44.1444 50.4236 44.1963 50.4085 44.2914Z" fill="#662D91"/>
<path d="M32.4322 63.4643C31.7532 62.4624 31.1291 61.4237 30.5665 60.352C30.4302 60.0921 30.2914 59.8318 30.1688 59.5651C30.0588 59.3256 29.9399 59.0151 30.0476 58.7543C30.1404 58.5293 30.3904 58.362 30.608 58.5324C30.8104 58.6909 30.9615 58.9471 31.1039 59.1577C31.4678 59.6962 31.7606 60.2789 31.9762 60.892C32.0533 61.1113 32.3516 61.0207 32.3182 60.7977C32.2306 60.2126 32.2771 59.6111 32.4466 59.0448C32.5315 58.7608 32.6472 58.4878 32.7937 58.2302C32.9079 58.0294 33.0716 57.7561 33.339 57.7702C33.5944 57.7836 33.7946 58.0211 33.8637 58.2493C33.9571 58.5574 33.8932 58.8932 33.8382 59.2019C33.7223 59.8536 33.6041 60.505 33.487 61.1565C33.4597 61.3084 33.663 61.4846 33.7834 61.329C34.247 60.7297 35.3131 60.4912 35.6935 61.311C35.7647 61.4644 35.7998 61.6395 35.7815 61.8085C35.7615 61.9938 35.6734 62.1203 35.5582 62.2595C35.4392 62.4031 35.3584 62.59 35.4786 62.7591C35.5858 62.9099 35.7964 62.9513 35.9301 62.8126C36.0886 62.6483 35.8382 62.3972 35.6794 62.5618C35.7417 62.5973 35.7797 62.5871 35.7935 62.5312C35.808 62.5111 35.8236 62.4919 35.8404 62.4736C35.8747 62.433 35.9102 62.3939 35.9417 62.3509C35.9919 62.2824 36.0307 62.2098 36.0623 62.1311C36.1265 61.9709 36.1496 61.7952 36.1356 61.6234C36.1061 61.2632 35.9306 60.9144 35.6463 60.6887C34.9926 60.1699 34.0097 60.4616 33.5326 61.0782L33.829 61.2508C33.9422 60.621 34.0555 59.9912 34.1685 59.3613C34.2628 58.8362 34.3713 58.2315 34.0099 57.7792C33.7039 57.3965 33.1797 57.2894 32.8005 57.6304C32.6141 57.7981 32.4877 58.0356 32.3782 58.2573C32.2595 58.4974 32.1615 58.7489 32.0882 59.0065C31.9136 59.621 31.8818 60.2615 31.9762 60.892L32.3182 60.7977C32.0991 60.1748 31.8088 59.5784 31.4432 59.0281C31.1662 58.6113 30.7432 57.8785 30.138 58.1675C29.5171 58.4639 29.6155 59.1984 29.8501 59.7164C30.141 60.3587 30.4921 60.9806 30.8429 61.5916C31.2447 62.2914 31.6733 62.9754 32.126 63.6433C32.2534 63.8312 32.5607 63.6539 32.4322 63.4643Z" fill="#662D91"/>
<path d="M28.6475 17.531C29.0644 17.1137 29.6922 16.9439 30.2624 17.0958C30.4831 17.1546 30.5773 16.8126 30.3566 16.7539C29.6658 16.5698 28.9022 16.7743 28.3967 17.2802C28.2352 17.4419 28.4859 17.6927 28.6475 17.531Z" fill="#662D91"/>
<path d="M33.3148 17.4023C33.6754 17.3778 34.0327 17.4573 34.3446 17.6416C34.6849 17.8426 34.9171 18.1607 35.1413 18.4778C35.1964 18.5559 35.2961 18.5928 35.3839 18.5415C35.4611 18.4963 35.503 18.3775 35.4475 18.2988C35.1877 17.9313 34.9179 17.5684 34.5236 17.3354C34.1616 17.1215 33.7343 17.0192 33.3148 17.0476C33.0883 17.063 33.0866 17.4178 33.3148 17.4023Z" fill="#662D91"/>
<path d="M30.4383 25.1462C30.3874 24.8843 30.6466 24.655 30.8912 24.6372C31.1473 24.6185 31.3905 24.7909 31.5388 24.9858C31.726 25.2319 31.7972 25.5524 31.8354 25.8531C31.8741 26.1579 31.8952 26.4688 31.8878 26.7759C31.8802 27.0888 31.8348 27.3986 31.7532 27.7006C31.6772 27.9821 31.5821 28.3451 31.3427 28.5354C30.7122 29.0364 30.5506 27.7256 30.5243 27.3682C30.5077 27.1419 30.1529 27.1401 30.1697 27.3682C30.1948 27.7106 30.2527 28.0557 30.368 28.38C30.46 28.6388 30.6121 28.9011 30.8975 28.9746C31.5834 29.1515 31.9292 28.3756 32.0787 27.8542C32.2713 27.1825 32.2729 26.4837 32.1826 25.7952C32.1064 25.2148 31.878 24.6008 31.2964 24.36C30.7071 24.116 29.9644 24.5615 30.0963 25.2405C30.1398 25.4643 30.4817 25.3695 30.4383 25.1462Z" fill="#662D91"/>
<path d="M30.3989 27.8831C30.3341 27.6627 30.3027 27.4325 30.3062 27.2027C30.3087 27.0378 30.3382 26.8554 30.4663 26.7515C30.5532 26.6811 30.6691 26.6606 30.7798 26.6449C31.0827 26.6018 31.3881 26.5762 31.6939 26.5683C31.7391 26.5671 31.7868 26.5669 31.8263 26.589C31.8797 26.619 31.9045 26.6818 31.9208 26.7409C32.0666 27.2681 31.8506 27.8214 31.6269 28.3205C31.5867 28.4101 31.5436 28.503 31.4671 28.5647C31.3243 28.6799 31.1072 28.6485 30.9517 28.5511C30.7831 28.4455 30.6597 28.2701 30.6175 28.0757" fill="#662D91"/>
<path d="M30.5699 27.836C30.5179 27.6536 30.4872 27.4691 30.4836 27.2793C30.4815 27.1624 30.4744 26.9992 30.5603 26.9064C30.6505 26.8089 30.8476 26.8119 30.9694 26.7976C31.1593 26.7752 31.35 26.7597 31.5411 26.7511C31.5856 26.7491 31.6302 26.7473 31.6748 26.7462C31.6885 26.7459 31.7153 26.75 31.7281 26.7453C31.7594 26.7338 31.7438 26.7553 31.7277 26.7323C31.7655 26.7866 31.7736 26.8778 31.7819 26.9411C31.8034 27.1071 31.7885 27.2777 31.7535 27.4407C31.7148 27.6213 31.6547 27.7968 31.5864 27.9681C31.5317 28.105 31.4807 28.2769 31.3878 28.3937C31.3004 28.5035 31.1444 28.4615 31.0412 28.3981C30.9077 28.316 30.8243 28.1781 30.7885 28.0286C30.7354 27.8067 30.3933 27.9006 30.4465 28.1228C30.5417 28.521 30.9289 28.8865 31.361 28.8036C31.5737 28.7627 31.696 28.5956 31.78 28.41C31.8826 28.1832 31.981 27.952 32.0505 27.7125C32.1147 27.4909 32.1557 27.2555 32.1436 27.0241C32.1328 26.8186 32.1025 26.5292 31.8946 26.427C31.7865 26.3739 31.6575 26.3912 31.541 26.3964C31.4137 26.4022 31.2865 26.411 31.1596 26.4229C30.9386 26.4435 30.6872 26.449 30.4815 26.5393C29.9796 26.7595 30.1099 27.5162 30.2279 27.9303C30.2904 28.1494 30.6327 28.0562 30.5699 27.836Z" fill="#662D91"/>
<path d="M30.2527 21.3432C29.9302 21.2238 29.5419 21.3566 29.333 21.6223C29.0892 21.9323 29.1307 22.3441 29.3779 22.6387C29.5137 22.8005 29.7047 22.8935 29.9122 22.9175C30.0074 22.9286 30.0895 22.8281 30.0895 22.7402C30.0895 22.6352 30.0077 22.574 29.9122 22.5629C29.9515 22.5675 29.8863 22.5569 29.8791 22.555C29.8581 22.5497 29.8377 22.5429 29.8173 22.5355C29.8517 22.548 29.7928 22.5232 29.7863 22.5197C29.7721 22.512 29.7581 22.5037 29.7445 22.4949C29.711 22.4732 29.635 22.3989 29.6121 22.3651C29.5583 22.2856 29.5474 22.2632 29.5271 22.1695C29.5248 22.159 29.5228 22.1484 29.5211 22.1377C29.5236 22.1582 29.5237 22.1578 29.5215 22.1367C29.5207 22.1151 29.5191 22.0938 29.5198 22.0721C29.52 22.0638 29.5293 21.9999 29.5217 22.0385C29.5253 22.0199 29.5292 22.0016 29.5344 21.9834C29.5395 21.9657 29.5453 21.9481 29.5523 21.931C29.5376 21.9671 29.5649 21.9089 29.5684 21.9027C29.5788 21.8844 29.5904 21.8671 29.6022 21.8498C29.5817 21.8798 29.6136 21.8365 29.6189 21.8306C29.6312 21.8169 29.644 21.8038 29.6574 21.7911C29.6623 21.7865 29.7117 21.7458 29.6821 21.7681C29.7138 21.7442 29.7479 21.7234 29.7832 21.7054C29.7901 21.7019 29.8409 21.6808 29.806 21.694C29.8257 21.6865 29.8456 21.6795 29.866 21.6737C29.8863 21.6678 29.9069 21.664 29.9274 21.659C29.9483 21.6556 29.9482 21.6553 29.927 21.6582C29.9348 21.6572 29.9427 21.6565 29.9505 21.6559C29.9899 21.654 30.0288 21.6531 30.068 21.6578C30.0257 21.6527 30.0905 21.6638 30.0982 21.6658C30.1187 21.6711 30.1386 21.6778 30.1585 21.6852C30.2483 21.7185 30.3528 21.648 30.3766 21.5613C30.4039 21.4622 30.3429 21.3766 30.2527 21.3432Z" fill="#662D91"/>
<path d="M13.9658 22.6369C14.3857 24.8408 15.3894 26.9184 16.8375 28.6305C17.2505 29.1187 17.7002 29.5743 18.1814 29.9952C18.3526 30.1449 18.6044 29.895 18.4322 29.7444C16.7764 28.2959 15.5085 26.4196 14.787 24.3405C14.5833 23.7537 14.424 23.1527 14.3078 22.5426C14.2651 22.3186 13.9232 22.4135 13.9658 22.6369Z" fill="#662D91"/>
<path d="M12.8293 28.0954C13.1033 29.4946 13.8719 30.7804 14.9762 31.6825C15.1515 31.8257 15.4039 31.5763 15.227 31.4317C14.1641 30.5634 13.435 29.3481 13.1713 28.0011C13.1275 27.7773 12.7855 27.8721 12.8293 28.0954Z" fill="#662D91"/>
<path d="M26.2364 14.1986C25.992 13.6995 26.5504 13.2385 26.9178 12.9954C27.406 12.6722 27.9358 12.5701 28.5154 12.6268C29.7192 12.7444 30.8382 13.3861 31.8489 14.0063C34.086 15.3791 36.0869 17.0848 38.1999 18.6333C39.4021 19.5142 40.6251 20.3663 41.8635 21.1955C42.0537 21.3228 42.2314 21.0157 42.0425 20.8892C40.877 20.1089 39.725 19.3082 38.5913 18.4822C37.4594 17.6575 36.3569 16.7955 35.2452 15.9442C34.1402 15.098 33.0093 14.2891 31.8159 13.5712C30.7548 12.9329 29.5554 12.2992 28.2896 12.2573C27.6094 12.2348 27.0119 12.4568 26.4816 12.8763C26.0203 13.2413 25.6412 13.7876 25.9302 14.3776C26.0305 14.5825 26.3365 14.403 26.2364 14.1986Z" fill="#662D91"/>
<path d="M33.5789 14.7431C34.4288 14.1134 35.4188 13.6276 36.4738 13.5506C39.2043 13.3512 41.9925 14.9497 43.3509 17.2999C43.58 17.6961 43.8167 18.1245 43.7802 18.5807C43.7464 19.0033 43.4831 19.3692 43.2137 19.6966C42.8865 20.0943 42.5358 20.472 42.1854 20.8494C42.1415 20.8967 42.0956 20.9454 42.0358 20.9697C41.9599 21.0005 41.8738 20.9873 41.7945 20.9672C41.4017 20.868 41.0658 20.6202 40.7412 20.3779C40.3792 20.1077 40.0172 19.8375 39.6553 19.5673C38.418 18.6436 37.1806 17.72 35.9539 16.7823C35.234 16.2319 34.5177 15.6767 33.8015 15.1214C33.6527 15.0061 33.4968 14.7812 33.6404 14.6595" fill="#662D91"/>
<path d="M33.6683 14.8963C34.3374 14.4041 35.0802 13.9971 35.8963 13.8148C36.6127 13.6548 37.3814 13.6848 38.1001 13.8166C39.5353 14.0799 40.8803 14.7876 41.9341 15.7934C42.4729 16.3076 42.9248 16.896 43.2872 17.5462C43.4908 17.9115 43.6843 18.3227 43.5719 18.7491C43.4683 19.1422 43.1806 19.4666 42.9228 19.7686C42.7766 19.9399 42.6265 20.108 42.4747 20.2746C42.3307 20.4327 42.1805 20.6501 42.0076 20.7769C41.8718 20.8765 41.5847 20.7127 41.4573 20.6447C41.2693 20.5443 41.0949 20.4206 40.9237 20.2941C40.1693 19.737 39.4201 19.1725 38.6691 18.6108C37.8089 17.9674 36.9503 17.3221 36.0967 16.67C35.6694 16.3436 35.2434 16.0154 34.818 15.6865C34.7208 15.6113 33.6931 14.8625 33.7658 14.785C33.9219 14.6187 33.6716 14.3674 33.515 14.5343C33.1791 14.8922 33.6841 15.2532 33.9381 15.4501C34.3344 15.7572 34.7309 16.0642 35.128 16.3702C35.9581 17.0098 36.7928 17.6433 37.6306 18.2728C38.4732 18.906 39.3184 19.5358 40.163 20.1663C40.5524 20.457 40.9383 20.7947 41.3812 21.0026C41.5507 21.0822 41.7497 21.1679 41.9409 21.1653C42.1673 21.1623 42.3014 20.9852 42.4422 20.8333C42.7858 20.4624 43.1314 20.0901 43.4437 19.692C43.6992 19.3663 43.9251 19.0036 43.9575 18.5808C43.9939 18.1061 43.7628 17.6612 43.5339 17.2624C43.3394 16.9233 43.1191 16.6012 42.8751 16.2957C41.8763 15.045 40.4731 14.1073 38.9391 13.6531C38.0759 13.3974 37.1412 13.2838 36.2447 13.3965C35.2332 13.5237 34.3027 13.9917 33.4893 14.5901C33.3074 14.7239 33.4841 15.0318 33.6683 14.8963Z" fill="#662D91"/>
<path d="M26.3622 13.2953C26.3714 13.4918 26.471 13.649 26.6261 13.766C26.7771 13.8799 26.958 13.9222 27.1276 13.999C27.4798 14.1584 27.6193 14.5642 27.9301 14.7816C28.0014 14.8315 28.0845 14.8726 28.169 14.8953C28.2304 14.9118 28.3457 14.9064 28.366 14.9403C28.3972 14.9926 28.3867 15.0807 28.4027 15.1398C28.4226 15.2137 28.4569 15.2817 28.5019 15.3431C28.5896 15.4626 28.7088 15.5486 28.8272 15.6354C28.93 15.7108 29.0507 15.7909 29.0892 15.9189C29.1547 16.1369 29.4971 16.0441 29.4312 15.8247C29.342 15.5278 29.0769 15.4121 28.8647 15.2178C28.752 15.1145 28.7467 15.0213 28.7154 14.8783C28.6728 14.684 28.5474 14.5914 28.3558 14.5668C27.9777 14.5183 27.831 14.1093 27.5776 13.8757C27.4321 13.7416 27.2611 13.67 27.0784 13.6013C26.9421 13.5501 26.725 13.4695 26.7168 13.2953C26.7061 13.0681 26.3514 13.0668 26.3622 13.2953Z" fill="#662D91"/>
<path d="M27.7586 12.6016C27.8429 12.7582 27.9547 12.8994 28.0928 13.0122C28.2338 13.1274 28.4032 13.1903 28.5485 13.2969C28.7818 13.4681 28.8222 13.8034 29.0005 14.0222C29.0971 14.1408 29.2236 14.2146 29.3713 14.2514C29.4548 14.2722 29.5397 14.2818 29.6156 14.3248C29.6978 14.3714 29.7627 14.447 29.8236 14.5177C30.1152 14.8564 30.3907 15.2105 30.6735 15.5566C30.818 15.7334 31.0676 15.4812 30.9243 15.3058C30.6513 14.9717 30.3815 14.6346 30.105 14.3034C29.9891 14.1646 29.8606 14.0362 29.6892 13.9693C29.5459 13.9133 29.379 13.9233 29.2728 13.7976C29.0944 13.5863 29.0583 13.291 28.8549 13.0922C28.728 12.9681 28.5635 12.9041 28.416 12.8107C28.2638 12.7143 28.1497 12.5802 28.0648 12.4226C27.9565 12.2215 27.6503 12.4004 27.7586 12.6016Z" fill="#662D91"/>
<path d="M30.751 13.3979C30.8512 13.4349 30.9004 13.6253 30.9432 13.7218C30.9774 13.7989 31.0167 13.8706 31.0698 13.9365C31.1337 14.0159 31.2161 14.0564 31.2988 14.1122C31.382 14.1683 31.4284 14.2855 31.4795 14.3694C31.547 14.4802 31.6145 14.5911 31.682 14.7019C31.8172 14.9239 31.9523 15.1458 32.0875 15.3677C32.2061 15.5624 32.5129 15.3844 32.3938 15.1887C32.2515 14.9551 32.1092 14.7215 31.9669 14.4879C31.8923 14.3654 31.8177 14.2429 31.7431 14.1204C31.6756 14.0096 31.6135 13.8993 31.5049 13.8234C31.4375 13.7762 31.3684 13.7532 31.3214 13.6829C31.2741 13.6121 31.2441 13.5299 31.2106 13.4522C31.1334 13.2729 31.0349 13.126 30.8453 13.0559C30.7554 13.0227 30.651 13.093 30.6271 13.1797C30.5999 13.2788 30.6609 13.3645 30.751 13.3979Z" fill="#662D91"/>
</svg>
