<svg width="75" height="64" viewBox="0 0 75 64" fill="none" xmlns="http://www.w3.org/2000/svg">
<path d="M59.4646 10.2548C63.353 10.5761 67.6444 11.1392 71.3252 12.4459C72.3505 12.8099 73.4763 13.2612 73.9354 14.236C74.2968 15.0035 74.1441 15.9002 73.9739 16.7296C72.7319 22.7812 71.3105 28.7141 70.0476 34.7613C68.7392 41.0261 67.148 47.1795 64.8215 53.1573C64.5431 53.8726 64.2375 54.6087 63.6701 55.1319C63.0453 55.7078 62.1842 55.9514 61.3507 56.1396C56.1149 57.3216 50.6667 57.0508 45.3073 56.7007C37.1794 56.1696 29.0571 55.4696 20.9904 54.3382C16.8984 53.7642 12.8101 53.1002 8.76703 52.2498C6.54235 51.7819 2.03498 51.1594 1.07882 48.8471C0.574246 47.6268 0.980425 46.2461 1.37721 44.9877C4.69472 34.4665 7.14757 23.68 8.7038 12.7689C8.89322 11.4408 9.07522 10.0899 9.62609 8.86373C11.3762 4.9682 15.5079 6.10639 19.0211 6.31445C23.5782 6.58433 28.1297 6.94331 32.6723 7.39102C39.2707 8.04135 45.922 9.45221 52.5171 9.83091C54.8382 9.9642 57.1597 10.0642 59.4646 10.2548Z" fill="#FFDE17"/>
<path d="M11.6272 10.9775C12.9105 12.2632 13.5501 13.4754 14.5026 14.9442C15.7437 16.8578 17.5408 18.5577 19.0411 20.2789C22.1883 23.8895 25.3827 27.4619 28.7017 30.9203C30.2279 32.5105 31.8713 34.1335 33.9883 34.792C36.8807 35.6918 39.9918 34.6073 42.777 33.4232C53.0176 29.0698 63.1348 23.1701 71.5665 15.998" fill="#FFDE17"/>
<path fill-rule="evenodd" clip-rule="evenodd" d="M11.4057 10.7556C11.53 10.6349 11.7298 10.6364 11.8522 10.7589C12.9023 11.8111 13.538 12.8244 14.2299 13.9273C14.4035 14.204 14.5806 14.4863 14.7686 14.7762C15.6275 16.1005 16.7476 17.31 17.8673 18.519C18.3452 19.035 18.8231 19.551 19.2805 20.0758C22.4262 23.6846 25.6169 27.2528 28.931 30.7061C30.4634 32.3029 32.0551 33.8641 34.0832 34.4949C36.851 35.3559 39.8593 34.3244 42.6521 33.1371C52.8686 28.794 62.957 22.91 71.3604 15.762C71.4924 15.6497 71.6918 15.6643 71.8056 15.7945C71.9195 15.9248 71.9047 16.1215 71.7727 16.2338C63.3126 23.4301 53.1667 29.3455 42.902 33.7092C40.1243 34.8901 36.9104 36.0276 33.8934 35.0891C31.6875 34.4029 29.9924 32.7181 28.4725 31.1344C25.1486 27.6709 21.9506 24.0943 18.8018 20.4819C18.3718 19.9886 17.9106 19.4905 17.4418 18.9842C16.3063 17.7579 15.1262 16.4834 14.2367 15.112L14.5027 14.9441L14.2367 15.112C14.0385 14.8063 13.855 14.5141 13.6779 14.2319C12.9908 13.1376 12.3984 12.194 11.4023 11.196C11.2799 11.0735 11.2815 10.8763 11.4057 10.7556Z" fill="#662D91"/>
<path d="M48.1688 31.514C51.8298 36.4769 55.1699 41.6691 58.1584 47.0529C58.992 48.5546 59.7978 50.0712 60.5767 51.6012C60.7774 51.9952 61.3766 51.6487 61.1764 51.2554C58.3837 45.7704 55.2373 40.4617 51.7572 35.3735C50.7865 33.9542 49.7896 32.5525 48.7684 31.1682C48.508 30.8152 47.9052 31.1567 48.1688 31.514Z" fill="#662D91"/>
<path d="M5.06133 46.6345C8.0792 43.6099 11.311 40.7764 14.6469 38.0984C15.5198 37.3977 16.4032 36.7097 17.3031 36.0431C17.6562 35.7815 17.3105 35.1865 16.9526 35.4515C13.4885 38.0174 10.1992 40.8305 7.04918 43.762C6.20903 44.5439 5.38053 45.338 4.57029 46.1501C4.25649 46.4646 4.7472 46.9494 5.06133 46.6345Z" fill="#662D91"/>
<path d="M34.7586 25.321C36.3753 24.654 38.476 25.641 39.1445 27.1874C39.542 28.1068 39.6015 29.244 38.9998 30.0482C38.8149 30.2953 38.5763 30.5001 38.3164 30.6691C37.5157 31.1894 36.494 31.3664 35.5615 31.1462C32.9092 30.5199 31.9422 26.483 34.7586 25.321Z" fill="#662D91"/>
</svg>
