<svg width="21" height="20" viewBox="0 0 21 20" fill="none" xmlns="http://www.w3.org/2000/svg">
<path d="M17.6355 7.69251C18.0997 8.47387 18.4044 9.33953 18.5319 10.2394C18.6595 11.1393 18.6073 12.0555 18.3785 12.9351C18.1496 13.8147 17.7487 14.6402 17.1988 15.3638C16.6489 16.0875 15.9609 16.6949 15.1748 17.151C14.3886 17.607 13.5198 17.9027 12.6186 18.0208C11.7175 18.139 10.8018 18.0773 9.92467 17.8393C9.04751 17.6013 8.22625 17.1917 7.50839 16.6343C6.79053 16.0768 6.19032 15.3826 5.74248 14.5917L2.54483 9.05344C2.39272 8.76746 2.35757 8.4336 2.44678 8.12221C2.53599 7.81082 2.74259 7.54622 3.02305 7.38416C3.30352 7.2221 3.63594 7.17524 3.95027 7.25346C4.2646 7.33167 4.5363 7.52885 4.70811 7.80344L6.15811 10.3128C6.19915 10.3839 6.25379 10.4462 6.31891 10.4962C6.38403 10.5462 6.45836 10.5829 6.53765 10.6041C6.61695 10.6254 6.69965 10.6308 6.78104 10.6201C6.86243 10.6094 6.94092 10.5828 7.01202 10.5417C7.08311 10.5007 7.14543 10.446 7.19541 10.3809C7.2454 10.3158 7.28206 10.2415 7.30332 10.1622C7.32457 10.0829 7.33 10.0002 7.3193 9.91879C7.30859 9.8374 7.28196 9.75892 7.24092 9.68782L4.17373 4.37532C4.02163 4.08934 3.98648 3.75547 4.07569 3.44408C4.16489 3.13269 4.3715 2.86809 4.65196 2.70603C4.93242 2.54398 5.26484 2.49712 5.57917 2.57533C5.89351 2.65354 6.1652 2.85072 6.33702 3.12532L9.40811 8.43782C9.44794 8.51116 9.50205 8.57579 9.56726 8.62788C9.63247 8.67998 9.70745 8.71848 9.78778 8.74112C9.86811 8.76377 9.95216 8.7701 10.035 8.75973C10.1178 8.74937 10.1977 8.72252 10.27 8.68077C10.3422 8.63903 10.4054 8.58323 10.4558 8.51667C10.5061 8.45012 10.5426 8.37415 10.5632 8.29325C10.5837 8.21235 10.5878 8.12816 10.5753 8.04564C10.5627 7.96313 10.5338 7.88397 10.4901 7.81282L8.14639 3.75032C7.98548 3.46353 7.94406 3.12488 8.03112 2.80776C8.11818 2.49064 8.32669 2.22061 8.61148 2.05617C8.89626 1.89173 9.23437 1.84614 9.55254 1.92928C9.87071 2.01242 10.1433 2.21758 10.3112 2.50032L13.4706 7.97844C12.772 8.68249 12.379 9.63349 12.3769 10.6253C12.3745 11.4371 12.6379 12.2273 13.1269 12.8753C13.1756 12.9424 13.2372 12.9991 13.3081 13.0421C13.379 13.0851 13.4577 13.1136 13.5397 13.1259C13.6217 13.1382 13.7053 13.1341 13.7856 13.1137C13.866 13.0934 13.9416 13.0573 14.0078 13.0075C14.0741 12.9577 14.1298 12.8952 14.1717 12.8237C14.2136 12.7521 14.2409 12.6729 14.2519 12.5908C14.2629 12.5086 14.2574 12.4251 14.2358 12.345C14.2142 12.265 14.1769 12.19 14.1261 12.1245C13.9284 11.8606 13.7849 11.5601 13.7038 11.2405C13.6227 10.9208 13.6057 10.5882 13.6537 10.262C13.7017 9.9357 13.8138 9.62215 13.9835 9.33939C14.1532 9.05662 14.3771 8.81022 14.6425 8.61438C14.7659 8.52308 14.8513 8.38956 14.8826 8.23928C14.9139 8.08901 14.8887 7.93248 14.812 7.79954L13.9167 6.25032C13.7558 5.96353 13.7144 5.62488 13.8014 5.30776C13.8885 4.99065 14.097 4.72061 14.3818 4.55617C14.6666 4.39173 15.0047 4.34614 15.3229 4.42928C15.641 4.51242 15.9136 4.71758 16.0815 5.00032L17.6355 7.69251ZM15.3409 3.23938C15.7788 3.35478 16.1894 3.55606 16.5489 3.83154C16.9083 4.10702 17.2094 4.4512 17.4347 4.84407L17.4605 4.8886C17.5433 5.03219 17.6799 5.13697 17.84 5.1799C17.9193 5.20116 18.002 5.20659 18.0834 5.19588C18.1648 5.18518 18.2433 5.15854 18.3144 5.11751C18.3855 5.07647 18.4478 5.02183 18.4978 4.95671C18.5477 4.89158 18.5844 4.81725 18.6057 4.73796C18.6269 4.65867 18.6323 4.57597 18.6216 4.49457C18.6109 4.41318 18.5843 4.3347 18.5433 4.2636L18.5175 4.21907C18.2103 3.6835 17.7998 3.21432 17.3097 2.83879C16.8196 2.46326 16.2598 2.18887 15.6628 2.03157C15.5031 1.99027 15.3335 2.01378 15.1911 2.09699C15.0487 2.18019 14.9449 2.31633 14.9024 2.47572C14.8599 2.63512 14.8822 2.80485 14.9643 2.9479C15.0465 3.09095 15.1818 3.19572 15.3409 3.23938ZM6.71905 17.6347C5.90917 16.9956 5.22899 16.2074 4.71514 15.3128C4.6741 15.2417 4.61946 15.1794 4.55434 15.1294C4.48922 15.0794 4.41489 15.0428 4.3356 15.0215C4.2563 15.0003 4.1736 14.9948 4.09221 15.0055C4.01082 15.0162 3.93233 15.0429 3.86123 15.0839C3.79014 15.125 3.72782 15.1796 3.67783 15.2447C3.62785 15.3098 3.59119 15.3842 3.56993 15.4635C3.54868 15.5428 3.54325 15.6255 3.55395 15.7068C3.56466 15.7882 3.59129 15.8667 3.63233 15.9378C4.22549 16.9697 5.0104 17.8787 5.94483 18.6159C6.07516 18.7162 6.23975 18.7611 6.40293 18.7408C6.56612 18.7206 6.71474 18.6368 6.8166 18.5077C6.91845 18.3786 6.96533 18.2146 6.94707 18.0512C6.92881 17.8878 6.84688 17.7381 6.71905 17.6347Z" fill="#3CC374"/>
</svg>
