<svg width="101" height="100" viewBox="0 0 101 100" fill="none" xmlns="http://www.w3.org/2000/svg">
<path d="M37.8132 88.6857C38.4831 88.3083 39.1116 87.8365 39.7038 87.407C40.4641 86.8557 41.2753 86.5164 41.9321 85.8135C42.0757 85.6598 43.4484 83.6888 43.2304 83.6089C42.3717 83.2945 41.4261 83.363 40.5142 83.4358C38.4304 83.602 36.1621 83.6427 34.134 84.1528C32.123 84.6586 29.889 83.4713 27.9095 83.1783C27.213 83.0753 26.5457 82.8822 25.9117 83.2785C25.1088 83.7804 24.4909 84.9019 23.9509 85.6555C23.4964 86.2899 23.949 86.3596 24.0196 86.9171C24.097 87.5292 23.6138 88.0067 23.1769 88.3647C21.181 90.0005 19.2433 91.7657 17.8596 93.9402C17.6858 94.2132 17.5149 94.5215 17.5629 94.8412C17.9154 97.1893 24.4357 93.8348 25.3008 93.2771C27.1854 92.0622 29.07 90.8472 30.9546 89.6322C31.4929 89.2852 32.0636 88.9272 32.7039 88.8916C33.4419 88.8507 34.1304 89.245 34.8603 89.3617C35.9288 89.5327 36.9088 89.1952 37.8132 88.6857Z" fill="#332E36"/>
<path d="M37.9281 88.8807C38.5249 88.5415 39.0806 88.1393 39.6346 87.7359C40.1394 87.3685 40.681 87.0633 41.1979 86.7144C41.5699 86.4633 41.9412 86.1826 42.2123 85.8216C42.3967 85.5759 42.5693 85.3208 42.7389 85.0649C42.934 84.7705 43.1273 84.4724 43.2937 84.1606C43.3927 83.9752 43.5913 83.6518 43.4046 83.4589C43.3302 83.382 43.1993 83.3573 43.1013 83.328C42.9318 83.2773 42.7584 83.2402 42.5835 83.2133C42.2548 83.1628 41.9229 83.1448 41.5904 83.1491C40.9125 83.1578 40.2353 83.2335 39.5592 83.2785C38.1927 83.3696 36.8227 83.4448 35.4681 83.6561C35.1402 83.7073 34.8135 83.7668 34.4893 83.8376C34.1781 83.9055 33.8721 83.9953 33.5542 84.0275C32.9557 84.0881 32.353 84.0243 31.7654 83.907C30.5418 83.6627 29.3715 83.1982 28.1405 82.9876C27.5428 82.8854 26.8913 82.7221 26.2892 82.874C25.7312 83.0149 25.2897 83.4464 24.9343 83.8763C24.5701 84.3168 24.2635 84.7987 23.9434 85.2707C23.798 85.4851 23.6125 85.6961 23.5485 85.9526C23.4963 86.1617 23.5485 86.347 23.6416 86.535C23.7378 86.729 23.8221 86.9095 23.7977 87.1337C23.7696 87.3909 23.6171 87.6193 23.4468 87.8065C23.0341 88.2601 22.5069 88.6221 22.0422 89.021C21.0706 89.8552 20.1325 90.7323 19.2845 91.6924C18.8604 92.1726 18.4588 92.6736 18.0881 93.196C17.7427 93.6826 17.2405 94.2761 17.3464 94.9128C17.555 96.1669 19.2065 95.9279 20.0897 95.7224C21.5138 95.3911 22.8849 94.7845 24.1891 94.1362C24.5912 93.9363 24.997 93.7335 25.3784 93.4958C26.5466 92.7677 27.6937 92.0036 28.8506 91.2578C29.4686 90.8593 30.0867 90.4609 30.7048 90.0624C31.2437 89.715 31.793 89.301 32.4303 89.1572C33.0753 89.0116 33.6966 89.2895 34.3053 89.4645C34.9225 89.642 35.5541 89.6766 36.186 89.5576C36.802 89.4417 37.3839 89.1847 37.9281 88.8807C38.1828 88.7385 37.9543 88.348 37.6991 88.4905C37.1593 88.792 36.5875 89.0374 35.9735 89.1379C35.3452 89.2408 34.7502 89.1333 34.1507 88.9449C33.5576 88.7586 32.9646 88.5828 32.3395 88.7146C31.7432 88.8404 31.2223 89.1909 30.7189 89.5154C29.5334 90.2797 28.348 91.0439 27.1625 91.8082C26.3951 92.3029 25.6431 92.8377 24.8451 93.2827C23.7538 93.8913 22.603 94.4177 21.4278 94.8431C20.7819 95.077 20.1177 95.2853 19.4371 95.391C19.1713 95.4323 18.8985 95.4526 18.6298 95.4329C18.4451 95.4194 18.2343 95.3727 18.0803 95.2785C17.9426 95.1942 17.8528 95.0727 17.8074 94.9037C17.742 94.6604 17.8334 94.4337 17.9537 94.222C18.1106 93.946 18.2961 93.683 18.4798 93.4241C19.1892 92.4246 20.0192 91.5143 20.9014 90.6642C21.3519 90.2301 21.8169 89.8114 22.2907 89.4029C22.7406 89.0149 23.2319 88.6596 23.655 88.2428C24.0288 87.8745 24.3193 87.3992 24.2387 86.857C24.2079 86.6497 24.1137 86.4784 24.0258 86.2917C23.9429 86.1156 24.0037 85.9844 24.1083 85.8257C24.4056 85.3748 24.7085 84.9214 25.029 84.4867C25.3369 84.069 25.7121 83.5954 26.2003 83.3796C26.7466 83.1381 27.4023 83.3222 27.963 83.4139C28.5471 83.5094 29.1187 83.6692 29.687 83.8314C30.8281 84.1573 32.0004 84.5303 33.2012 84.5012C33.806 84.4865 34.3761 84.3142 34.9657 84.2002C35.616 84.0744 36.2733 83.9901 36.9323 83.9256C38.2349 83.7981 39.5441 83.7295 40.8494 83.6359C41.4937 83.5897 42.155 83.5613 42.7883 83.7122C42.8637 83.7301 42.9384 83.7507 43.0124 83.7736C43.1667 83.8215 43.064 83.7916 43.0332 83.695C43.0253 83.67 43.0262 83.64 43.0309 83.6337C43.0214 83.6464 43.0164 83.6866 43.0113 83.7024C42.9868 83.78 42.924 83.8936 42.8658 83.9987C42.5578 84.5556 42.1944 85.0903 41.8148 85.601C41.7899 85.6346 41.7997 85.6204 41.8069 85.6118C41.7986 85.6218 41.7911 85.6326 41.7822 85.6422C41.7004 85.7309 41.6143 85.8153 41.5246 85.8961C41.3057 86.0933 41.0657 86.2634 40.8184 86.4233C40.3078 86.7537 39.7917 87.0648 39.2994 87.423C38.7806 87.8004 38.2577 88.173 37.6991 88.4905C37.4455 88.6347 37.6738 89.0253 37.9281 88.8807Z" fill="#332E36"/>
<path d="M33.5747 84.8025C32.0627 84.8733 30.5478 84.9114 29.038 84.7789C27.6041 84.653 26.173 84.8186 24.726 84.5631C24.6203 84.5444 24.5093 84.522 24.4278 84.4523C24.3195 84.3595 24.2895 84.2072 24.266 84.0668C24.1925 83.6278 24.1189 83.1804 24.1822 82.7398C24.2455 82.2993 24.4686 81.8585 24.8592 81.6424C25.2547 81.4236 25.7382 81.4691 26.1876 81.5207C25.8733 80.8809 26.2214 80.118 26.6398 79.5403C27.0728 78.9426 27.6644 78.3668 28.403 78.3217C29.2032 78.2728 29.8872 78.8529 30.4745 79.3963C30.8875 78.7876 31.3559 78.1963 31.9756 77.7979C32.5954 77.3995 33.3931 77.218 34.0844 77.4742C34.7757 77.7304 35.2867 78.4962 35.1109 79.2097C35.6422 78.7465 36.2915 78.3946 36.9928 78.3133C37.6941 78.232 38.4473 78.4489 38.9241 78.9675C39.401 79.486 39.5412 80.3173 39.1749 80.9185C39.7417 80.7831 40.3732 80.7865 40.8691 81.0916C41.3649 81.3967 41.6591 82.0642 41.4083 82.5882C42.1197 82.3203 43.0138 82.7839 43.2015 83.5179C43.2253 83.6108 43.2385 83.7115 43.2032 83.8007C43.1575 83.9163 43.0414 83.9872 42.9281 84.0391C42.3138 84.3209 41.6551 84.151 41.0103 84.2361C40.1646 84.3476 39.3078 84.4072 38.4579 84.4798C36.8325 84.6186 35.2043 84.7262 33.5747 84.8025Z" fill="#F3F2F3"/>
<path d="M33.5747 84.5764C32.6749 84.6182 31.7742 84.6491 30.8733 84.639C29.9768 84.629 29.0871 84.5313 28.192 84.507C27.3208 84.4833 26.4478 84.5154 25.5783 84.4444C25.3609 84.4266 25.144 84.403 24.9286 84.3689C24.8386 84.3547 24.7124 84.349 24.6281 84.3089C24.5437 84.2687 24.5244 84.199 24.5047 84.113C24.4096 83.6993 24.3466 83.2326 24.4002 82.8094C24.4447 82.4587 24.6 82.0813 24.9054 81.879C25.2784 81.6319 25.7676 81.6989 26.1875 81.7467C26.3762 81.7681 26.4463 81.5433 26.3834 81.4066C26.1533 80.9066 26.3985 80.337 26.667 79.9049C26.9211 79.496 27.2503 79.0902 27.6564 78.8228C28.0736 78.5479 28.5409 78.4716 29.0159 78.6416C29.5172 78.8208 29.9303 79.2019 30.3141 79.556C30.4266 79.6598 30.5866 79.6332 30.6704 79.5103C31.2583 78.6478 32.0201 77.7501 33.1219 77.5994C33.6014 77.5338 34.1079 77.6379 34.4686 77.9729C34.7899 78.2713 34.9905 78.71 34.8921 79.1495C34.8414 79.3762 35.0997 79.517 35.2713 79.3694C36.025 78.721 37.0501 78.3038 38.035 78.6511C38.8904 78.9527 39.471 79.9602 38.979 80.8043C38.8765 80.9801 39.0452 81.1799 39.2352 81.1363C39.755 81.017 40.3646 81.0022 40.817 81.3281C41.1563 81.5724 41.3932 82.0684 41.2124 82.4741C41.1406 82.6354 41.2624 82.879 41.4686 82.8061C41.9809 82.625 42.5876 82.8432 42.8691 83.3095C42.9276 83.4065 43.0214 83.5723 42.9978 83.6894C42.9679 83.838 42.68 83.8981 42.5572 83.9277C42.19 84.0164 41.8049 83.9788 41.4308 83.9836C41.0298 83.9887 40.631 84.0593 40.2325 84.0996C39.8069 84.1426 39.3806 84.1774 38.9543 84.2124C38.1193 84.2811 37.2845 84.3513 36.4487 84.4093C35.4914 84.4758 34.5333 84.5313 33.5747 84.5764C33.284 84.5901 33.2823 85.0421 33.5747 85.0284C35.5131 84.9371 37.4469 84.7918 39.3804 84.6291C39.8538 84.5892 40.3271 84.5463 40.7987 84.4888C41.2383 84.4352 41.6682 84.4505 42.1093 84.4344C42.4914 84.4205 42.9804 84.3621 43.2718 84.0864C43.5563 83.8173 43.4471 83.4016 43.2729 83.1014C42.9001 82.4589 42.0561 82.12 41.348 82.3703L41.6042 82.7022C41.8641 82.1191 41.659 81.4373 41.1717 81.0339C40.5991 80.56 39.8088 80.5412 39.1146 80.7005L39.3708 81.0324C39.976 79.9942 39.363 78.7201 38.3138 78.2775C37.1346 77.78 35.8692 78.2595 34.9505 79.0498L35.3297 79.2697C35.4539 78.7145 35.2639 78.1577 34.8809 77.7447C34.477 77.3091 33.8877 77.1049 33.299 77.132C31.9409 77.1946 30.991 78.237 30.2786 79.2822L30.6349 79.2365C30.1775 78.8143 29.6862 78.3834 29.0827 78.1874C28.4979 77.9975 27.8815 78.1166 27.3818 78.4635C26.885 78.8082 26.4734 79.3097 26.1819 79.8354C25.8721 80.3942 25.7144 81.0323 25.9917 81.6347L26.1876 81.2947C25.7621 81.2464 25.3158 81.2084 24.9089 81.3711C24.5461 81.5162 24.2751 81.808 24.1172 82.1603C23.9369 82.5626 23.9078 83.0045 23.9492 83.4388C23.972 83.6779 24.009 83.9171 24.0518 84.1533C24.0863 84.3433 24.1517 84.5284 24.3133 84.6474C24.4842 84.7731 24.7111 84.7913 24.9146 84.8208C25.1585 84.8562 25.4034 84.8833 25.6492 84.9019C26.1432 84.9391 26.6388 84.9445 27.134 84.9472C27.6395 84.9499 28.1453 84.9495 28.6502 84.9774C29.1517 85.0051 29.651 85.0548 30.1532 85.0737C31.2937 85.1166 32.4352 85.0813 33.5747 85.0284C33.8654 85.0148 33.8671 84.5628 33.5747 84.5764Z" fill="#332E36"/>
<path d="M79.8742 88.582C80.8904 88.0846 87.8389 84.3086 86.8335 83.0174C86.6295 82.7554 86.2895 82.6454 85.9686 82.5572C82.3359 81.5588 78.5111 81.5723 74.7426 81.5928C73.1139 81.6017 71.4852 81.6106 69.8566 81.6195C69.2026 81.623 68.539 81.6279 67.9101 81.8067C67.4552 81.9361 67.0309 82.1532 66.6152 82.3782C63.216 84.2191 60.1514 86.4266 57.111 88.8044C53.8141 91.3829 50.1253 93.7403 47.8081 97.3265C47.609 97.6346 47.4165 97.9685 47.4048 98.3347C47.3835 99.0021 47.9929 99.557 48.6454 99.71C49.298 99.863 49.9793 99.7119 50.6315 99.5575C54.2127 98.7096 57.4979 97.6457 60.6034 95.6437C63.5052 93.7729 66.4071 91.9021 69.3089 90.0314C70.1378 89.497 71.0166 88.9458 72.0025 88.891C73.1389 88.8279 74.199 89.4351 75.3228 89.6149C76.8845 89.8647 78.4545 89.2767 79.8742 88.582Z" fill="#332E36"/>
<path d="M79.9886 88.7771C81.386 88.0916 82.7389 87.2766 84.0355 86.4197C84.8106 85.9074 85.5848 85.3675 86.2622 84.7295C86.652 84.3623 87.2304 83.8066 87.1511 83.2127C87.0836 82.7062 86.5176 82.4786 86.0857 82.3552C85.2304 82.1109 84.3534 81.9339 83.475 81.7957C81.6791 81.5132 79.8613 81.4087 78.0451 81.3756C76.2092 81.3421 74.3721 81.3689 72.536 81.3789C71.5822 81.3841 70.6284 81.3867 69.6747 81.3947C68.7871 81.4021 67.948 81.4884 67.1334 81.8615C66.3491 82.2207 65.5997 82.6754 64.8587 83.1148C64.1039 83.5623 63.3609 84.0292 62.6285 84.512C61.1742 85.4706 59.7621 86.4913 58.376 87.5449C57.0867 88.5249 55.8084 89.5185 54.5165 90.4952C53.2741 91.4345 52.0388 92.3879 50.8881 93.4382C49.7341 94.4915 48.6677 95.6469 47.7912 96.9418C47.369 97.5657 46.9479 98.2778 47.3493 99.0208C47.7016 99.673 48.4447 99.9816 49.1578 99.9989C50.0259 100.02 50.9106 99.7295 51.7439 99.5172C52.554 99.3109 53.3597 99.0867 54.157 98.8356C55.7178 98.344 57.2479 97.7461 58.7042 96.9992C60.3019 96.18 61.7836 95.1518 63.2899 94.1806C64.8837 93.1531 66.4776 92.1256 68.0714 91.0981C68.8239 90.613 69.5643 90.0923 70.3502 89.6616C71.0752 89.2642 71.8497 89.0207 72.6826 89.153C73.508 89.284 74.2758 89.642 75.0943 89.8027C75.9421 89.9691 76.8092 89.901 77.6424 89.6887C78.4575 89.4809 79.2348 89.1445 79.9886 88.7771C80.2509 88.6493 80.0212 88.2594 79.7596 88.3869C78.2444 89.1254 76.5763 89.7238 74.8812 89.2909C74.1101 89.094 73.3717 88.78 72.576 88.6858C71.7741 88.5908 71.0092 88.8125 70.3007 89.1759C69.5479 89.5621 68.849 90.059 68.1391 90.5166C67.3697 91.0126 66.6003 91.5086 65.8309 92.0047C64.292 92.9968 62.7531 93.9889 61.2143 94.9809C59.8286 95.8743 58.4238 96.6944 56.9054 97.3465C55.4343 97.9784 53.905 98.4709 52.3598 98.8883C51.5525 99.1065 50.7354 99.3353 49.9114 99.4818C49.1822 99.6114 48.306 99.5866 47.8274 98.9313C47.3343 98.2562 47.9368 97.5174 48.3299 96.9566C48.762 96.3404 49.2405 95.7579 49.7501 95.2039C51.7991 92.9762 54.3048 91.2452 56.6952 89.4102C59.356 87.3677 62.0175 85.3425 64.9013 83.6161C65.6237 83.1836 66.3541 82.7538 67.1067 82.3751C67.4836 82.1855 67.872 82.0309 68.2875 81.9491C68.7077 81.8664 69.1382 81.8529 69.5653 81.8477C71.4032 81.8255 73.2417 81.8264 75.0796 81.817C78.5803 81.7992 82.1334 81.8065 85.5468 82.6793C85.8843 82.7656 86.3062 82.8308 86.5744 83.0714C86.6259 83.1177 86.6657 83.1631 86.6948 83.2252C86.6738 83.1804 86.6915 83.2192 86.6977 83.2428C86.7123 83.2984 86.7039 83.2603 86.7045 83.2736C86.7054 83.2948 86.7052 83.3157 86.705 83.3369C86.7045 83.4016 86.7131 83.314 86.7019 83.3676C86.6906 83.4212 86.6751 83.4732 86.6551 83.5243C86.6604 83.5109 86.6486 83.5407 86.6328 83.5708C86.6196 83.596 86.6065 83.6212 86.5924 83.646C86.5579 83.7065 86.5194 83.7644 86.4793 83.8213C86.0648 84.4088 85.3924 84.9078 84.8002 85.341C83.3839 86.3771 81.8562 87.2758 80.3086 88.1025C80.1268 88.1996 79.9447 88.2961 79.7596 88.3869C79.4977 88.5154 79.7273 88.9053 79.9886 88.7771Z" fill="#332E36"/>
<path d="M37.6767 55.847C37.1938 57.2435 36.5501 58.5233 35.9029 59.8315C35.5506 60.5436 35.2928 61.324 35.0126 62.0665C34.8048 62.6173 34.2296 63.5855 34.2597 64.1692C34.1601 62.2344 34.0604 60.2997 33.9607 58.3649C32.3858 58.4236 30.8156 58.6086 29.2705 58.9177C29.1859 60.496 29.1116 62.0749 29.0456 63.6541C28.0995 62.1644 27.1602 60.6704 26.2287 59.1716C25.9288 59.2983 25.6125 59.438 25.4285 59.7058C25.1046 60.1769 25.3203 60.8139 25.5444 61.3394C26.1523 62.765 26.7615 64.1921 27.4651 65.5742C28.019 66.6621 28.969 67.8583 29.1645 69.0678C29.276 69.7572 29.2186 70.4613 29.1671 71.1577C28.8406 75.5746 28.7622 80.0055 28.6838 84.4336C29.4999 84.7119 30.386 84.7794 31.2484 84.8152C31.5741 84.8356 35.0176 84.88 35.0176 84.6418C34.9286 79.4237 34.8397 74.2056 34.7507 68.9876C34.7462 68.7191 34.7418 68.4482 34.793 68.1845C34.843 67.9272 34.9448 67.6831 35.0459 67.4412C35.4726 66.4201 39.1635 56.3593 39.4506 56.4582C38.8593 56.2545 38.268 56.0507 37.6767 55.847Z" fill="#332E36"/>
<path d="M37.458 55.787C37.0268 57.026 36.4549 58.2063 35.8738 59.3808C35.5859 59.9627 35.3313 60.552 35.1059 61.1608C34.9217 61.6582 34.7389 62.1474 34.5152 62.6285C34.2953 63.1015 34.0172 63.6336 34.0329 64.1692H34.4867C34.387 62.2345 34.2873 60.2997 34.1877 58.365C34.1816 58.2466 34.0886 58.1341 33.9608 58.139C32.3652 58.2004 30.7761 58.3886 29.2102 58.6999C29.1095 58.7199 29.0487 58.8233 29.0437 58.9177C28.9592 60.4961 28.8849 62.0749 28.8188 63.6541L29.2416 63.5401C28.2955 62.0503 27.3563 60.5564 26.4247 59.0576C26.3542 58.9442 26.2299 58.9276 26.1143 58.9766C25.7867 59.1155 25.4608 59.2733 25.2486 59.5701C25.0294 59.8766 25.0075 60.2595 25.0715 60.6192C25.1395 61.0015 25.3077 61.3579 25.4592 61.7127C25.6389 62.134 25.8193 62.555 26.0026 62.9748C26.3646 63.8034 26.7384 64.6272 27.1424 65.4365C27.5059 66.1646 27.9559 66.8411 28.3452 67.5548C28.5316 67.8964 28.7032 68.2475 28.8218 68.6187C28.9477 69.0128 28.9941 69.4185 29.0008 69.831C29.0159 70.7523 28.8996 71.6796 28.8423 72.5986C28.7271 74.4482 28.6504 76.3001 28.5944 78.1524C28.5311 80.2457 28.4941 82.3397 28.457 84.4337C28.4552 84.5371 28.5295 84.6202 28.6236 84.6516C29.7898 85.0408 31.0516 85.0541 32.2713 85.058C32.7973 85.0597 33.3236 85.0556 33.8491 85.0352C34.2153 85.021 34.6301 85.0313 34.9839 84.9222C35.2065 84.8536 35.2459 84.7184 35.2421 84.4969C35.2334 83.9896 35.2248 83.4823 35.2161 82.9749C35.1988 81.9603 35.1815 80.9457 35.1642 79.9311C35.1296 77.9018 35.095 75.8726 35.0604 73.8433C35.0431 72.8287 35.0258 71.8141 35.0085 70.7995C34.9999 70.2922 34.9912 69.7848 34.9826 69.2775C34.9744 68.7942 34.954 68.3296 35.1191 67.8672C35.318 67.3102 35.5537 66.7627 35.7636 66.2094C36.4644 64.3622 37.159 62.5127 37.8745 60.6712C38.2135 59.7985 38.5554 58.9266 38.9147 58.062C39.1064 57.6007 39.303 57.1073 39.5619 56.6565C39.6004 56.5895 39.5498 56.6597 39.5703 56.6424C39.6038 56.6141 39.5535 56.6556 39.5448 56.6589C39.5066 56.6734 39.4526 56.6923 39.3903 56.6762C39.6756 56.7497 39.7848 56.3348 39.5109 56.2404C38.9196 56.0367 38.3283 55.8329 37.737 55.6292C37.4605 55.5339 37.3417 55.9703 37.6164 56.065C38.2077 56.2687 38.799 56.4725 39.3903 56.6762L39.5109 56.2404C39.3093 56.1885 39.194 56.3788 39.1122 56.5268C38.9983 56.7329 38.9033 56.9501 38.8083 57.1652C38.4725 57.9254 38.1654 58.6983 37.8599 59.471C37.1073 61.375 36.3849 63.2908 35.6606 65.2056C35.4219 65.8367 35.1855 66.4687 34.9404 67.0972C34.7845 67.4971 34.597 67.8861 34.5449 68.317C34.4851 68.8115 34.5296 69.3243 34.5381 69.8211C34.5468 70.3284 34.5554 70.8357 34.5641 71.343C34.6335 75.4136 34.7028 79.4842 34.7723 83.5547C34.7764 83.7963 34.7805 84.0379 34.7846 84.2795C34.7852 84.3119 34.812 84.6288 34.7908 84.6418L34.8172 84.5425C34.8322 84.5161 34.8527 84.4953 34.8788 84.4799C34.8612 84.498 34.8402 84.4751 34.8984 84.4744C34.8544 84.4749 34.7974 84.5036 34.7526 84.5121C34.6559 84.5304 34.6454 84.5297 34.5421 84.54C34.0645 84.5876 33.5821 84.5953 33.1026 84.602C32.1087 84.6159 31.1039 84.6212 30.115 84.5096C29.6493 84.4571 29.1889 84.3642 28.7442 84.2158L28.9107 84.4337C28.9752 80.7878 29.0397 77.1408 29.2429 73.4995C29.2929 72.602 29.3574 71.7057 29.4194 70.809C29.4772 69.9745 29.4917 69.1267 29.2014 68.3295C28.9311 67.5873 28.5038 66.9171 28.101 66.2418C27.6704 65.52 27.3075 64.7633 26.9559 64.0009C26.5428 63.105 26.1524 62.1986 25.768 61.2902C25.6171 60.9337 25.4345 60.5153 25.502 60.1193C25.5746 59.6926 25.9859 59.5184 26.3432 59.3668L26.0328 59.2858C26.9644 60.7845 27.9037 62.2785 28.8497 63.7682C28.9715 63.96 29.263 63.8794 29.2725 63.6542C29.3386 62.075 29.4129 60.4961 29.4974 58.9178L29.3308 59.1357C30.8577 58.8322 32.405 58.6508 33.9608 58.591L33.7339 58.365C33.8336 60.2997 33.9333 62.2345 34.0329 64.1692C34.0478 64.458 34.4953 64.4616 34.4867 64.1692C34.4736 63.7249 34.7137 63.2731 34.8959 62.8804C35.1159 62.4063 35.3052 61.929 35.4853 61.4384C35.7031 60.8454 35.9397 60.2672 36.2201 59.7006C36.5066 59.1219 36.7926 58.5428 37.0615 57.9556C37.3686 57.2849 37.653 56.6038 37.8955 55.9072C37.9913 55.6318 37.5532 55.5135 37.458 55.787Z" fill="#F3F2F3"/>
<path d="M27.9907 61.9846C27.4008 61.0485 26.8127 60.1114 26.2287 59.1717C25.9288 59.2984 25.6125 59.4381 25.4285 59.7059C25.1046 60.177 25.3203 60.814 25.5444 61.3395C25.6725 61.64 25.8009 61.9404 25.9301 62.2406C26.2381 62.2783 26.5477 62.2858 26.8574 62.2452C27.1638 62.2051 27.462 62.1194 27.7611 62.0419C27.8368 62.0222 27.9134 62.003 27.9907 61.9846Z" fill="#332E36"/>
<path d="M28.1868 61.8705C27.5969 60.9345 27.0089 59.9973 26.4248 59.0577C26.3543 58.9442 26.23 58.9276 26.1144 58.9766C25.8354 59.0949 25.5451 59.2255 25.3396 59.4559C25.1235 59.6983 25.0254 60.0111 25.0382 60.3331C25.051 60.6545 25.1495 60.9658 25.2688 61.2622C25.4166 61.6292 25.5781 61.9912 25.7344 62.3547C25.7673 62.4312 25.8565 62.4581 25.9303 62.4666C26.2897 62.5083 26.6461 62.5069 27.0039 62.4506C27.3586 62.3947 27.7028 62.2867 28.0512 62.2025C28.3349 62.134 28.2147 61.6981 27.9306 61.7667C27.6008 61.8464 27.2751 61.9471 26.9404 62.0053C26.6067 62.0633 26.2655 62.0536 25.9303 62.0147L26.1262 62.1266C25.9951 61.8218 25.8623 61.5175 25.7347 61.2112C25.6311 60.9625 25.5297 60.6989 25.499 60.4295C25.4718 60.1906 25.5066 59.9412 25.6757 59.7584C25.852 59.5679 26.1089 59.4663 26.3435 59.3669L26.0331 59.2858C26.6171 60.2254 27.2052 61.1626 27.795 62.0987C27.9499 62.3444 28.3426 62.1178 28.1868 61.8705Z" fill="#332E36"/>
<path d="M35.9032 59.8316C35.8235 59.9927 35.7491 60.1576 35.6777 60.3244C36.0477 60.1962 36.4309 60.094 36.7765 59.912C37.2957 59.6386 37.7289 59.2302 38.2342 58.939C38.2703 58.9182 38.3055 58.8958 38.3408 58.8736C38.9147 57.4444 39.3586 56.4265 39.4508 56.4583C38.8595 56.2545 38.2682 56.0508 37.6769 55.8471C37.194 57.2435 36.5504 58.5233 35.9032 59.8316Z" fill="#332E36"/>
<path d="M35.7066 59.7175C35.6271 59.8799 35.5527 60.0444 35.4811 60.2104C35.4111 60.3729 35.5294 60.6135 35.7374 60.5423C36.3158 60.3443 36.863 60.1618 37.3696 59.81C37.6098 59.6432 37.8402 59.4627 38.0833 59.2999C38.1959 59.2246 38.3154 59.1602 38.4281 59.0853C38.5621 58.9964 38.5939 58.8462 38.6518 58.7031C38.8512 58.2099 39.0521 57.7168 39.2716 57.2321C39.3405 57.0799 39.4104 56.9276 39.4897 56.7804C39.5144 56.7345 39.5406 56.6898 39.5684 56.6457C39.5958 56.6024 39.5759 56.6479 39.5679 56.6445C39.5725 56.6392 39.5774 56.6342 39.5826 56.6295C39.5274 56.679 39.4631 56.6946 39.3898 56.6762C39.6747 56.7212 39.7914 56.3372 39.5104 56.2404C38.9191 56.0366 38.3278 55.8329 37.7366 55.6292C37.6154 55.5874 37.4955 55.6777 37.4575 55.787C36.9849 57.1446 36.3432 58.4309 35.7066 59.7175C35.5779 59.9775 35.9691 60.2068 36.0983 59.9456C36.7522 58.6243 37.4097 57.3015 37.895 55.9072L37.6159 56.065C38.2072 56.2687 38.7985 56.4725 39.3898 56.6762L39.5104 56.2404C39.1765 56.1877 39.0221 56.694 38.9155 56.9257C38.6303 57.5459 38.3758 58.1804 38.1213 58.8135L38.2256 58.6785C37.809 58.94 37.4209 59.237 37.0109 59.5077C36.577 59.7943 36.1044 59.9396 35.6167 60.1065L35.8729 60.4385C35.9444 60.2725 36.0189 60.108 36.0983 59.9456C36.2257 59.6852 35.8346 59.4558 35.7066 59.7175Z" fill="#332E36"/>
<path d="M34.1145 61.3431C34.0634 60.3504 34.0122 59.3577 33.9611 58.365C32.3861 58.4236 30.816 58.6087 29.2708 58.9178C29.2187 59.89 29.1717 60.8624 29.127 61.835C29.3112 61.8382 29.4944 61.8586 29.6741 61.9036C30.1665 62.0269 30.5798 62.1805 31.115 62.1972C32.1714 62.2303 33.2658 61.9967 34.1145 61.3431Z" fill="#332E36"/>
<path d="M34.3409 61.343C34.2898 60.3503 34.2386 59.3576 34.1875 58.3649C34.1814 58.2465 34.0884 58.134 33.9606 58.1389C32.365 58.2003 30.7759 58.3886 29.21 58.6998C29.1093 58.7198 29.0485 58.8232 29.0435 58.9177C28.9915 59.8899 28.9444 60.8623 28.8996 61.8349C28.8939 61.9595 29.0083 62.0574 29.1265 62.0608C29.6008 62.0749 30.0397 62.2562 30.5007 62.3488C30.9398 62.4369 31.3895 62.4428 31.8346 62.4028C32.6931 62.3257 33.5368 62.0616 34.2285 61.5381C34.4581 61.3644 34.2322 60.9718 33.9995 61.1479C33.3383 61.6482 32.5383 61.9033 31.7146 61.9604C31.2948 61.9895 30.8792 61.9762 30.4686 61.8796C30.0196 61.7741 29.5923 61.6227 29.1265 61.6089L29.3533 61.8349C29.3981 60.8623 29.4452 59.8899 29.4972 58.9177L29.3306 59.1356C30.8575 58.8321 32.4048 58.6507 33.9606 58.5908L33.7337 58.3649C33.7849 59.3576 33.836 60.3503 33.8871 61.343C33.9021 61.6324 34.3559 61.6342 34.3409 61.343Z" fill="#332E36"/>
<path d="M47.1829 42.549C47.6353 41.2906 47.7027 39.8929 47.3511 38.6017C46.8791 36.8684 45.6577 35.3513 44.0616 34.5158C44.3221 33.6507 44.738 32.715 44.7581 31.8202C44.7783 30.9233 44.6564 29.9718 44.4423 29.1008C44.0557 27.5276 43.3456 25.985 42.1366 24.9019C40.9277 23.8189 39.1596 23.2715 37.6198 23.7916C37.4848 22.7337 37.5918 21.9042 37.0089 20.9326C36.5099 20.1008 35.7622 19.4151 34.8868 18.9918C33.4524 18.298 31.7214 18.2963 30.2415 18.8879C28.6535 19.5227 27.7381 20.6851 26.7565 21.9945C26.0151 21.1447 23.8619 21.4929 22.9279 21.7646C21.5721 22.159 20.3331 22.9779 19.4447 24.072C17.8135 26.0809 17.333 28.7351 17.5263 31.2561C17.6281 32.5839 17.0519 32.5115 16.0977 33.1913C15.1074 33.8968 14.3589 35.0093 14.0005 36.1596C13.3605 38.2141 13.8411 40.5314 15.0612 42.3063C15.5181 42.9709 16.0925 43.5828 16.8266 43.9205C16.1921 43.9781 15.6822 44.8543 15.3396 45.3296C14.8989 45.9413 14.5746 46.6346 14.3742 47.36C13.9823 48.7784 14.0636 50.339 14.6976 51.6765C15.8519 54.1118 18.733 55.6042 21.3976 55.1471C21.5259 56.9095 22.5796 58.5298 24.0071 59.5789C25.4347 60.628 27.2023 61.1471 28.9693 61.3039C30.9679 61.4813 33.0408 61.2023 34.8132 60.2654C35.6083 59.8451 36.3325 59.2876 36.9355 58.6214C37.5347 57.9595 37.7758 57.2563 38.2396 56.5342C39.4612 57.1062 40.9065 56.9634 42.1959 56.5655C42.7847 56.3837 43.3608 56.1503 43.8836 55.825C45.4652 54.8409 46.4498 53.0332 46.5942 51.1814C46.7385 49.3295 46.0917 47.4605 44.9766 45.9717C45.9927 44.9502 46.5751 44.0802 47.1014 42.7638C47.1298 42.6927 47.157 42.6211 47.1829 42.549Z" fill="#F3F2F3"/>
<path d="M70.9443 83.395C69.9665 82.153 70.1923 80.0667 71.2902 78.9531C72.388 77.8396 74.136 77.6981 75.4744 78.4251C75.4586 77.2449 75.6211 76.0144 76.2268 75.0409C76.8324 74.0673 77.9664 73.4253 78.9971 73.7466C80.4599 74.2024 80.9949 76.2149 80.8918 77.886C81.3546 77.156 82.3662 76.9385 83.0441 77.4234C83.722 77.9082 83.9535 79.0148 83.5368 79.7777C84.3876 79.2579 85.54 79.4289 86.2356 80.1782C86.9313 80.9276 87.1126 82.1931 86.6602 83.1421L70.9443 83.395Z" fill="#F3F2F3"/>
<path d="M71.1386 83.2809C70.4475 82.3858 70.4019 81.1443 70.8054 80.1171C71.232 79.031 72.2563 78.3018 73.4201 78.2127C74.0925 78.1612 74.7641 78.3031 75.3583 78.6202C75.507 78.6996 75.7015 78.6017 75.6997 78.4251C75.6831 76.8809 75.9714 74.971 77.4716 74.1521C78.0677 73.8268 78.7712 73.7914 79.355 74.1614C79.8724 74.4893 80.1943 75.0603 80.3864 75.6255C80.6329 76.3504 80.7074 77.1244 80.6633 77.886C80.6496 78.1227 80.9707 78.1757 81.0861 78C81.4812 77.3988 82.3675 77.174 82.9555 77.6395C83.5347 78.098 83.6746 79.0264 83.3393 79.6637C83.2369 79.8582 83.4474 80.0928 83.6497 79.9728C84.4598 79.4923 85.5132 79.6883 86.1247 80.3953C86.7283 81.0931 86.8459 82.2006 86.4627 83.028L86.6586 82.9161C86.1385 82.9245 85.6183 82.9329 85.0982 82.9412C83.8487 82.9613 82.5993 82.9814 81.3499 83.0015C79.8376 83.0259 78.3253 83.0502 76.813 83.0745C75.5002 83.0957 74.1873 83.1168 72.8745 83.1379C72.2411 83.1481 71.6021 83.1344 70.9695 83.1686C70.9606 83.1691 70.9516 83.1689 70.9427 83.169C70.651 83.1737 70.6502 83.6257 70.9427 83.621C71.4629 83.6126 71.983 83.6042 72.5031 83.5958C73.7526 83.5757 75.002 83.5556 76.2515 83.5355C77.7637 83.5112 79.276 83.4869 80.7883 83.4625L84.7268 83.3991C85.3602 83.3889 85.9992 83.4027 86.6319 83.3685C86.6408 83.368 86.6497 83.3682 86.6586 83.3681C86.7328 83.3669 86.8216 83.3272 86.8545 83.2561C87.3287 82.2321 87.1927 80.9395 86.4456 80.0757C85.7042 79.2186 84.3949 79.0047 83.4207 79.5826L83.7311 79.8917C84.1794 79.0398 83.9863 77.8459 83.1942 77.2558C82.3857 76.6534 81.2263 76.9624 80.6943 77.7719L81.1171 77.8859C81.1976 76.4942 80.91 74.742 79.7083 73.8566C79.0931 73.4033 78.2881 73.3269 77.582 73.6048C76.7872 73.9175 76.1754 74.5628 75.8127 75.3237C75.3536 76.287 75.2346 77.3699 75.2459 78.4251L75.5873 78.2299C74.4049 77.5988 72.91 77.5715 71.7573 78.291C70.6579 78.9772 70.0738 80.2525 70.0963 81.5258C70.1088 82.2317 70.3113 82.9449 70.7468 83.509C70.8221 83.6065 70.9411 83.6559 71.0572 83.5901C71.1534 83.5355 71.2132 83.3775 71.1386 83.2809Z" fill="#332E36"/>
<path d="M66.3262 54.0748C66.5202 58.9614 66.6503 63.8505 66.7164 68.7405C66.7791 73.3738 66.5776 77.9659 66.6277 82.6188C69.0991 83.4306 71.7704 83.631 74.3359 83.197C74.2499 77.5094 73.0039 56.4681 72.9178 50.7805" fill="#332E36"/>
<path d="M66.0979 54.0748C66.2455 57.8003 66.3565 61.5271 66.4301 65.2547C66.4668 67.1117 66.5023 68.9692 66.5002 70.8266C66.4982 72.6693 66.4665 74.5118 66.4378 76.3543C66.4053 78.4423 66.3775 80.5306 66.3994 82.6188C66.4005 82.7223 66.4697 82.8053 66.5659 82.8367C69.0849 83.6582 71.7821 83.8511 74.3949 83.4149C74.4905 83.3989 74.5628 83.2886 74.5614 83.197C74.5366 81.5752 74.4649 79.9537 74.3954 78.3333C74.2953 75.9974 74.1822 73.6621 74.0675 71.3268C73.9402 68.7352 73.8096 66.1437 73.6816 63.5521C73.5642 61.1755 73.4482 58.7988 73.3432 56.4216C73.2666 54.688 73.1896 52.9538 73.1515 51.2188C73.1483 51.0727 73.1455 50.9266 73.1433 50.7805C73.1389 50.49 72.6851 50.4891 72.6896 50.7805C72.7144 52.4024 72.7861 54.0238 72.8556 55.6442C72.9557 57.9802 73.0688 60.3155 73.1835 62.6508C73.3107 65.2424 73.4414 67.8338 73.5694 70.4254C73.6867 72.802 73.8028 75.1787 73.9078 77.5559C73.9844 79.2895 74.0614 81.0238 74.0994 82.7588C74.1026 82.9048 74.1054 83.0509 74.1077 83.197L74.2742 82.9791C71.7424 83.4018 69.125 83.1962 66.6866 82.4009L66.8531 82.6188C66.8144 78.9271 66.9334 75.2365 66.9517 71.5451C66.9703 67.8269 66.8724 64.1064 66.7667 60.3899C66.7069 58.2845 66.635 56.1795 66.5516 54.0748C66.5401 53.785 66.0863 53.7835 66.0979 54.0748Z" fill="#F3F2F3"/>
<path d="M66.4851 58.7503C67.0333 57.9516 67.9132 57.4259 68.8368 57.1264C69.7603 56.8268 70.7363 56.7322 71.7031 56.6394C72.1535 56.5962 72.604 56.553 73.0544 56.5098C73.1149 55.7781 73.1131 55.0412 73.0488 54.3098C70.6901 54.605 68.6805 54.7465 66.3379 55.1492C66.596 56.0096 66.7995 57.7302 66.6404 58.6141" fill="#332E36"/>
<path d="M66.6808 58.8643C67.2904 57.9925 68.2872 57.4918 69.2957 57.2278C70.5161 56.9085 71.8031 56.8558 73.0542 56.7357C73.1841 56.7233 73.2705 56.6418 73.2811 56.5098C73.3397 55.7769 73.3379 55.0424 73.2755 54.3098C73.2662 54.2 73.1785 54.0677 73.0487 54.0839C70.791 54.3653 68.5214 54.5475 66.2774 54.9313C66.1579 54.9518 66.0871 55.1012 66.119 55.2093C66.2783 55.7494 66.364 56.3135 66.4186 56.8728C66.4723 57.4235 66.5159 58.0053 66.4215 58.554C66.3725 58.8384 66.8097 58.9607 66.859 58.6741C66.961 58.0813 66.9305 57.4686 66.8723 56.8728C66.8139 56.274 66.7272 55.6676 66.5565 55.0892L66.398 55.3671C68.6019 54.9901 70.8313 54.8122 73.0487 54.5358L72.8218 54.3098C72.8841 55.0424 72.886 55.7769 72.8274 56.5098L73.0542 56.2838C70.7234 56.5075 67.7797 56.5044 66.289 58.6362C66.1218 58.8754 66.5149 59.1015 66.6808 58.8643Z" fill="#332E36"/>
<path d="M58.9141 41.7063C57.4201 41.7356 54.3991 41.7714 54.4319 41.7943C54.4647 41.8172 56.7736 34.3303 57.0153 33.5597C57.8684 30.8407 58.4316 28.0705 59.2646 25.3415C57.9303 25.2479 56.596 25.1544 55.2618 25.0608C54.4647 24.1918 64.4469 4.38208 67.1693 0.390015C67.1693 0.390015 80.3277 22.6101 80.5545 23.5892C80.7814 24.5684 76.3196 25.171 76.3196 25.171C76.3196 25.171 83.0501 39.0303 82.8988 39.8588C82.7476 40.6874 78.5883 40.5367 78.5883 40.5367L84.4869 55.6012L54.8428 56.2037L58.9141 41.7063Z" fill="#F3F2F3"/>
<path d="M36.3035 82.034C36.3055 82.0203 36.3221 81.9629 36.3174 81.9729C36.3128 81.9865 36.3161 81.9826 36.3272 81.9613C36.3145 81.9786 36.3172 81.9775 36.3351 81.9578C36.3059 81.9807 36.3596 81.9441 36.3629 81.9426C36.3292 81.9574 36.3884 81.9343 36.396 81.9323C36.4624 81.9147 36.5495 81.9183 36.6137 81.963C36.6804 82.0095 36.7461 82.1278 36.7756 82.2328C36.8147 82.3723 36.8238 82.5152 36.8309 82.6591C36.8411 82.868 37.0657 82.9399 37.2182 82.8189C37.4149 82.6628 37.7287 82.6623 37.9292 82.8094C38.1284 82.9557 38.2085 83.2249 38.1437 83.4579C38.0655 83.7385 38.5032 83.8583 38.5812 83.578C38.7017 83.1451 38.5283 82.6743 38.1582 82.4192C37.7728 82.1536 37.2509 82.2188 36.8973 82.4993L37.2846 82.6591C37.2644 82.2469 37.1952 81.7183 36.7612 81.533C36.4337 81.3932 35.9261 81.5081 35.8659 81.9138C35.848 82.0344 35.8961 82.1567 36.0244 82.1918C36.1312 82.221 36.2854 82.1554 36.3035 82.034Z" fill="#332E36"/>
<path d="M77.53 80.1972C77.5434 79.7818 77.9796 79.4123 78.397 79.5196C78.7881 79.6202 79.0061 80.0754 78.8868 80.4457C78.8302 80.6214 79.0592 80.8207 79.2201 80.7009C79.5523 80.4535 79.9911 80.471 80.3382 80.6836C80.6997 80.905 80.9198 81.2985 81.0498 81.6892C81.1412 81.964 81.5795 81.8462 81.4873 81.5691C81.3146 81.0501 81.0128 80.5421 80.5214 80.2664C80.0542 80.0041 79.4318 79.9825 78.9911 80.3107L79.3244 80.5659C79.5221 79.9519 79.1186 79.2051 78.4717 79.0731C77.7753 78.931 77.0986 79.5018 77.0763 80.1972C77.067 80.4881 77.5207 80.4877 77.53 80.1972Z" fill="#332E36"/>
<path d="M30.5594 62.2437C30.5396 63.1164 30.5198 63.9892 30.5001 64.862C30.4935 65.1529 30.9472 65.1529 30.9538 64.862C30.9736 63.9892 30.9934 63.1164 31.0131 62.2437C31.0197 61.9527 30.566 61.9528 30.5594 62.2437Z" fill="#F3F2F3"/>
<path d="M30.6038 67.716C30.3624 71.0733 30.2281 74.4381 30.2034 77.8039C30.1963 78.7656 30.1983 79.7273 30.2088 80.6889C30.212 80.9795 30.6657 80.9803 30.6626 80.6889C30.6258 77.3232 30.6965 73.9565 30.8766 70.5954C30.928 69.635 30.9886 68.6752 31.0576 67.716C31.0784 67.4258 30.6246 67.4271 30.6038 67.716Z" fill="#F3F2F3"/>
<path d="M33.0116 72.368C32.9512 74.6174 32.9361 76.8678 32.9663 79.1178C32.9702 79.4083 33.424 79.4092 33.42 79.1178C33.3898 76.8678 33.4049 74.6174 33.4654 72.368C33.4732 72.0771 33.0195 72.0773 33.0116 72.368Z" fill="#F3F2F3"/>
<path d="M32.959 66.6659V67.0732C32.959 67.1311 32.9843 67.192 33.0254 67.233C33.0648 67.2722 33.1293 67.3017 33.1858 67.2991C33.2445 67.2965 33.3054 67.2773 33.3463 67.233C33.387 67.1888 33.4127 67.1344 33.4127 67.0732V66.6659C33.4127 66.6079 33.3874 66.5471 33.3463 66.5061C33.3069 66.4669 33.2424 66.4374 33.1858 66.4399C33.1272 66.4425 33.0663 66.4617 33.0254 66.5061C32.9847 66.5503 32.959 66.6046 32.959 66.6659Z" fill="#F3F2F3"/>
<path d="M33.1803 83.0745V82.4344C33.1803 82.3162 33.0759 82.203 32.9534 82.2084C32.8305 82.2139 32.7266 82.3077 32.7266 82.4344V83.0745C32.7266 83.1927 32.8309 83.3059 32.9534 83.3004C33.0763 83.2949 33.1803 83.2011 33.1803 83.0745Z" fill="#F3F2F3"/>
<path d="M28.763 63.6416C28.7892 63.7275 28.812 63.8144 28.8303 63.9024C28.8401 63.9497 28.8488 63.9973 28.8562 64.0451C28.8569 64.0499 28.8653 64.1174 28.8596 64.0671C28.8623 64.0912 28.8653 64.1151 28.8677 64.1392C28.8859 64.3216 28.8859 64.505 28.8693 64.6875C28.8586 64.8056 28.9813 64.9186 29.0962 64.9134C29.2282 64.9076 29.3115 64.814 29.323 64.6875C29.3585 64.2966 29.3152 63.8968 29.2005 63.5215C29.166 63.4085 29.0402 63.3253 28.9214 63.3636C28.807 63.4005 28.726 63.5205 28.763 63.6416Z" fill="#F3F2F3"/>
<path d="M34.4521 64.0676C34.4464 64.0616 34.4411 64.0554 34.436 64.0489L34.4715 64.0946C34.4602 64.0795 34.4509 64.0633 34.4435 64.046L34.4664 64.0999C34.4588 64.0813 34.4536 64.0621 34.4507 64.0423L34.4588 64.1024C34.4562 64.0825 34.4561 64.0626 34.4584 64.0427L34.4503 64.1028C34.4527 64.0852 34.457 64.0683 34.4635 64.0518C34.4729 64.0217 34.4743 63.9917 34.4675 63.9617C34.4661 63.9316 34.4572 63.9036 34.4406 63.8777C34.4263 63.8513 34.4068 63.8302 34.3822 63.8143C34.3603 63.7943 34.3345 63.7808 34.305 63.7738L34.2447 63.7657C34.2037 63.7659 34.1656 63.7762 34.1302 63.7966L34.0843 63.8319C34.0562 63.8601 34.0367 63.8934 34.0259 63.9317C34.0219 63.9421 34.0186 63.9527 34.0162 63.9636C34.0097 63.9929 34.006 64.0233 34.0036 64.0532C34.0027 64.0643 34.0027 64.0755 34.0035 64.0866C34.0055 64.1166 34.0096 64.1469 34.0155 64.1763C34.0176 64.1867 34.0204 64.1969 34.0238 64.2069C34.0334 64.2347 34.0451 64.2622 34.0583 64.2884C34.0633 64.2984 34.0691 64.308 34.0755 64.317C34.0927 64.3411 34.1108 64.3656 34.1313 64.3871C34.1519 64.4091 34.1762 64.4247 34.2043 64.4338C34.2314 64.448 34.2605 64.4545 34.2917 64.4533C34.323 64.4545 34.3521 64.448 34.3792 64.4338C34.4073 64.4247 34.4316 64.4091 34.4522 64.3871C34.4919 64.344 34.5213 64.2875 34.5186 64.2273L34.5105 64.1673C34.4997 64.129 34.4803 64.0958 34.4521 64.0676Z" fill="#332E36"/>
<path d="M34.0255 64.0467C34.0106 64.1283 34.0022 64.2096 34.0121 64.2921C34.0246 64.3962 34.0489 64.4848 34.0911 64.5808C34.1574 64.7312 34.2747 64.858 34.4134 64.9452C34.5139 65.0085 34.6679 64.9695 34.7238 64.8642C34.7829 64.7528 34.7497 64.6225 34.6424 64.555C34.6266 64.5451 34.6112 64.5345 34.5963 64.5233L34.6422 64.5586C34.6002 64.5261 34.563 64.4888 34.5302 64.4472L34.5657 64.4929C34.5315 64.4482 34.5034 64.4 34.4811 64.3484L34.504 64.4024C34.4824 64.3505 34.4673 64.2968 34.459 64.2412L34.4671 64.3013C34.4596 64.2457 34.4592 64.1901 34.4665 64.1344L34.4584 64.1945C34.4598 64.1853 34.4613 64.1761 34.463 64.1669C34.4741 64.106 34.4725 64.0479 34.4401 63.9928C34.4126 63.9459 34.3586 63.9012 34.3045 63.8889C34.2465 63.8758 34.1813 63.8786 34.1297 63.9117C34.0826 63.942 34.0359 63.9896 34.0255 64.0467Z" fill="#F3F2F3"/>
<path d="M68.4427 57.3584C68.3836 58.4432 68.4192 59.5302 68.5491 60.6089C68.5638 60.731 68.6428 60.8335 68.7759 60.8348C68.8873 60.836 69.0174 60.73 69.0028 60.6089C68.8729 59.5302 68.8374 58.4433 68.8964 57.3584C68.9123 57.0678 68.4585 57.0687 68.4427 57.3584Z" fill="#F3F2F3"/>
<path d="M70.7331 60.4873C70.9033 62.8099 70.9861 65.1383 70.9813 67.4671C70.9807 67.7579 71.4344 67.7583 71.435 67.4671C71.4398 65.1383 71.357 62.8099 71.1869 60.4873C71.1658 60.199 70.7119 60.1967 70.7331 60.4873Z" fill="#F3F2F3"/>
<path d="M69.3336 64.9384C69.4371 68.4949 69.4599 72.0537 69.4003 75.6113C69.3833 76.6277 69.3594 77.644 69.3292 78.6601C69.3206 78.9511 69.7743 78.9508 69.783 78.6601C69.8887 75.1037 69.9138 71.5449 69.8565 67.9873C69.8401 66.9708 69.8169 65.9545 69.7874 64.9384C69.7789 64.6482 69.3252 64.647 69.3336 64.9384Z" fill="#F3F2F3"/>
<path d="M71.459 76.7334V78.7792C71.459 79.07 71.9127 79.0705 71.9127 78.7792V76.7334C71.9127 76.4426 71.459 76.4421 71.459 76.7334Z" fill="#F3F2F3"/>
<path d="M71.2841 58.0409C71.2438 58.081 71.2035 58.1211 71.1633 58.1612C71.1411 58.1817 71.1255 58.206 71.1164 58.234C71.1022 58.2609 71.0956 58.2899 71.0968 58.321C71.0956 58.3521 71.1021 58.3812 71.1164 58.4081C71.1255 58.4361 71.1411 58.4603 71.1633 58.4808L71.2092 58.5162C71.2446 58.5366 71.2828 58.5469 71.3237 58.547L71.384 58.5389C71.4224 58.5282 71.4558 58.5088 71.4841 58.4808C71.5244 58.4407 71.5647 58.4006 71.6049 58.3605C71.6271 58.34 71.6427 58.3158 71.6519 58.2878C71.6661 58.2608 71.6726 58.2318 71.6714 58.2007C71.6726 58.1696 71.6661 58.1406 71.6519 58.1137C71.6427 58.0856 71.6271 58.0614 71.6049 58.0409L71.559 58.0056C71.5236 57.9851 71.4855 57.9749 71.4445 57.9747L71.3842 57.9828C71.3458 57.9935 71.3124 58.0129 71.2841 58.0409Z" fill="#F3F2F3"/>
<path d="M70.5648 38.6975C70.1671 38.08 69.4883 37.7695 68.7642 37.7504C68.047 37.7315 67.1779 37.9004 66.7386 38.5193C66.4923 38.8662 66.3507 39.2898 66.26 39.7012C66.2386 39.7986 66.2189 39.897 66.2056 39.9959L66.1962 40.0678C66.1963 40.1461 66.1813 40.1228 66.1515 39.9981C66.1541 39.9939 66.3023 40.0167 66.2933 40.0156C66.554 40.0472 66.815 40.0758 67.0763 40.1025C68.0303 40.2 68.9869 40.2705 69.9423 40.3524C70.2166 40.376 70.4906 40.4019 70.7648 40.4268C70.8239 40.4322 70.9509 40.4444 70.9683 40.4231C71.0085 40.3737 70.9718 40.1253 70.9685 40.0593C70.9446 39.5781 70.8165 39.1103 70.5648 38.6975C70.4128 38.4482 70.805 38.2209 70.9565 38.4694C71.2283 38.915 71.3712 39.417 71.4141 39.9347C71.4319 40.1495 71.4703 40.4378 71.37 40.6379C71.2604 40.8565 71.0237 40.8987 70.8005 40.8822C69.6303 40.7955 68.4583 40.6905 67.2905 40.5759C67.0052 40.5479 66.7201 40.5178 66.4353 40.4844C66.2063 40.4576 65.833 40.4849 65.7522 40.207C65.691 39.9966 65.7947 39.6892 65.845 39.4838C65.911 39.214 66.0036 38.9509 66.1187 38.698C66.3113 38.2751 66.6052 37.9082 67.016 37.6795C67.4334 37.4471 67.9157 37.3513 68.3877 37.3103C69.399 37.2226 70.3971 37.6007 70.9565 38.4694C71.1146 38.7149 70.7221 38.9418 70.5648 38.6975Z" fill="#332E36"/>
<path d="M75.2044 26.5368C74.8507 27.1577 73.7664 27.1756 73.1487 27.2191C72.9915 27.2301 72.8312 27.2392 72.6783 27.201C72.5254 27.1629 72.3784 27.0699 72.3136 26.9268C72.2536 26.7944 72.2724 26.6356 72.3381 26.5059C72.4038 26.3761 72.5117 26.272 72.6284 26.1848C72.9255 25.963 73.3073 25.8569 73.6493 25.7309C74.0153 25.596 74.4482 25.5643 74.8221 25.6822C74.9314 25.7167 75.0388 25.7655 75.1216 25.8444C75.3034 26.0174 75.3284 26.3191 75.2044 26.5368Z" fill="#F3F2F3"/>
<path d="M63.5009 29.2529C63.6693 29.5351 64.0076 29.6445 64.3124 29.7107C64.6475 29.7835 64.9907 29.7984 65.3319 29.8212C65.5234 29.834 65.8289 29.8808 65.9656 29.7029C66.0988 29.5295 65.8972 29.3124 65.7665 29.21C65.5768 29.0614 65.3443 28.9726 65.1196 28.8922C64.8901 28.8101 64.6591 28.7138 64.4162 28.6801C64.0857 28.6343 63.2155 28.7076 63.5009 29.2529C63.6358 29.5105 63.2443 29.7392 63.1091 29.481C62.9746 29.224 62.9581 28.9031 63.1175 28.6511C63.2852 28.3861 63.6004 28.2779 63.8974 28.2358C64.2241 28.1894 64.5614 28.2218 64.8743 28.3268C65.183 28.4304 65.5044 28.5339 65.791 28.6901C66.058 28.8357 66.317 29.0478 66.4184 29.3431C66.5276 29.6608 66.3997 29.9981 66.1064 30.1631C65.8308 30.3181 65.513 30.2845 65.2105 30.2653C64.9742 30.2502 64.7386 30.2327 64.5041 30.2002C63.9786 30.1275 63.3978 29.9648 63.1091 29.481C62.9596 29.2304 63.3518 29.0028 63.5009 29.2529Z" fill="#332E36"/>
<path d="M63.8808 28.6771C64.0456 28.7286 64.1826 28.8615 64.2386 29.0242C64.2946 29.187 64.2682 29.3756 64.1698 29.517C64.093 29.6272 63.966 29.7101 63.8314 29.7047C63.6299 29.6965 63.4862 29.5041 63.4161 29.3157C63.3515 29.1419 63.3306 28.9255 63.4574 28.7898C63.5644 28.6753 63.7376 28.6587 63.8944 28.6495" fill="#332E36"/>
<path d="M63.9398 28.4591C64.2101 28.548 64.4331 28.7753 64.4794 29.061C64.5283 29.3627 64.4108 29.6816 64.1424 29.8451C64.0108 29.9253 63.8464 29.9521 63.697 29.9112C63.5462 29.8699 63.4293 29.7674 63.3373 29.6456C63.1816 29.4394 63.1044 29.157 63.1529 28.9024C63.1832 28.7432 63.2945 28.5952 63.4397 28.5222C63.5818 28.4507 63.7361 28.4329 63.8931 28.4234C64.0117 28.4162 64.1252 28.5325 64.1199 28.6494C64.1141 28.7779 64.0202 28.8677 63.8931 28.8753C63.8553 28.8776 63.801 28.8724 63.7657 28.886C63.8057 28.8705 63.797 28.8813 63.7784 28.8848C63.7679 28.8868 63.7574 28.8886 63.747 28.8908C63.7213 28.8962 63.6964 28.9037 63.6713 28.9114C63.6384 28.9214 63.6791 28.9042 63.6825 28.9057C63.6801 28.9047 63.6549 28.9197 63.6552 28.9195C63.6463 28.9244 63.6379 28.9299 63.6292 28.9353C63.5997 28.9534 63.6378 28.9275 63.6387 28.9278C63.6368 28.9272 63.6154 28.9505 63.6165 28.9494C63.5907 28.9743 63.6259 28.9395 63.6233 28.9392C63.6215 28.939 63.6067 28.9659 63.6074 28.9646L63.6004 28.9777C63.592 28.9955 63.5919 28.9956 63.5999 28.9779L63.6058 28.9647C63.6033 28.9717 63.601 28.9788 63.5991 28.986C63.5963 28.9956 63.594 29.0053 63.5919 29.0151C63.5803 29.0707 63.5933 28.973 63.5909 29.0306C63.5899 29.0541 63.5912 29.0772 63.5922 29.1007C63.5934 29.1259 63.5827 29.1149 63.5896 29.0877C63.587 29.0981 63.5945 29.1168 63.5965 29.1268C63.6049 29.1681 63.6166 29.2086 63.6309 29.2482C63.6344 29.2577 63.6383 29.2671 63.6418 29.2767C63.6524 29.3053 63.6229 29.2376 63.6371 29.265C63.6479 29.2856 63.6574 29.3068 63.669 29.3271C63.6792 29.3452 63.6901 29.3629 63.7018 29.38C63.7044 29.3839 63.7143 29.4019 63.7197 29.4052C63.695 29.3899 63.6975 29.3785 63.7131 29.3954C63.7268 29.4103 63.7402 29.4252 63.755 29.439C63.7538 29.4378 63.776 29.4592 63.7775 29.4586C63.7527 29.4401 63.7472 29.4357 63.761 29.4454C63.7669 29.4496 63.773 29.4536 63.7793 29.4574C63.7875 29.4625 63.7961 29.4669 63.8046 29.4717C63.8346 29.4888 63.7945 29.4598 63.79 29.4664C63.7893 29.4676 63.8425 29.4796 63.8461 29.4818C63.8391 29.4775 63.7916 29.4805 63.8301 29.4786C63.8345 29.4784 63.8615 29.4775 63.8623 29.4782C63.8587 29.4747 63.8071 29.4913 63.8493 29.4798C63.862 29.4764 63.875 29.4719 63.8877 29.4693C63.9174 29.463 63.8515 29.489 63.878 29.474C63.8873 29.4687 63.8971 29.4643 63.9064 29.4589C63.9157 29.4535 63.9244 29.4469 63.9338 29.4416C63.9602 29.4264 63.9049 29.4688 63.9265 29.4472C63.9414 29.4322 63.9572 29.4158 63.9729 29.4015C63.9955 29.3809 63.9511 29.4349 63.9678 29.4093C63.9753 29.3978 63.9835 29.3867 63.9907 29.3749C64.0011 29.3576 64.0169 29.3357 64.0215 29.3159C64.0106 29.3629 64.0133 29.3359 64.017 29.3235C64.0201 29.3128 64.0238 29.3024 64.0268 29.2917C64.0297 29.281 64.0324 29.2702 64.0348 29.2594C64.0359 29.254 64.0397 29.2032 64.0388 29.2402C64.038 29.2735 64.0382 29.2372 64.0386 29.2288C64.0393 29.215 64.0396 29.2011 64.0392 29.1872C64.039 29.1761 64.038 29.1651 64.0375 29.154C64.0351 29.1005 64.0499 29.2 64.0361 29.1483C64.0297 29.1244 64.0222 29.1006 64.0158 29.0768C64.008 29.0473 64.035 29.1145 64.0208 29.0874C64.0148 29.0759 64.0095 29.064 64.0031 29.0526C63.998 29.0435 63.9927 29.0345 63.9871 29.0257C63.983 29.0191 63.9786 29.0126 63.9741 29.0062C63.9644 28.9926 63.9685 28.9974 63.9862 29.0206C63.9784 29.0024 63.9528 28.9823 63.9387 28.9686C63.9312 28.9613 63.9235 28.9543 63.9156 28.9474C63.8832 28.9192 63.9063 28.9498 63.9185 28.9487C63.9057 28.9498 63.865 28.9148 63.8518 28.9079C63.8449 28.9043 63.8281 28.899 63.8236 28.8943L63.8488 28.9051C63.839 28.9013 63.8291 28.8979 63.8191 28.8948C63.7067 28.8578 63.6216 28.737 63.6607 28.6168C63.697 28.5051 63.8192 28.4194 63.9398 28.4591Z" fill="#332E36"/>
<path d="M68.3977 27.3654C68.044 27.9862 66.9597 28.0042 66.342 28.0476C66.1848 28.0587 66.0245 28.0677 65.8716 28.0295C65.7187 27.9914 65.5718 27.8984 65.507 27.7554C65.447 27.6229 65.4658 27.4642 65.5314 27.3344C65.5971 27.2046 65.705 27.1005 65.8218 27.0133C66.1189 26.7915 66.5007 26.6854 66.8427 26.5594C67.2086 26.4246 67.6415 26.3928 68.0155 26.5108C68.1248 26.5452 68.2321 26.594 68.315 26.6729C68.4967 26.8459 68.5218 27.1476 68.3977 27.3654Z" fill="#F3F2F3"/>
<path d="M70.3066 30.0815C70.4749 30.3636 70.8133 30.4731 71.118 30.5393C71.4532 30.6121 71.7964 30.627 72.1376 30.6498C72.3291 30.6626 72.6346 30.7094 72.7712 30.5315C72.9045 30.3581 72.7029 30.1409 72.5722 30.0386C72.3825 29.89 72.15 29.8012 71.9252 29.7208C71.6958 29.6387 71.4648 29.5424 71.2218 29.5087C70.8913 29.4629 70.0212 29.5362 70.3066 30.0815C70.4415 30.339 70.05 30.5678 69.9148 30.3096C69.7803 30.0526 69.7637 29.7317 69.9232 29.4797C70.0909 29.2146 70.406 29.1064 70.7031 29.0643C71.0297 29.018 71.3671 29.0504 71.68 29.1554C71.9887 29.2589 72.3101 29.3624 72.5967 29.5187C72.8636 29.6642 73.1226 29.8764 73.2241 30.1717C73.3332 30.4894 73.2053 30.8267 72.9121 30.9917C72.6365 31.1467 72.3186 31.1131 72.0161 31.0939C71.7799 31.0788 71.5443 31.0613 71.3098 31.0288C70.7842 30.9561 70.2034 30.7934 69.9148 30.3096C69.7653 30.0589 70.1574 29.8314 70.3066 30.0815Z" fill="#332E36"/>
<path d="M70.6855 29.5056C70.8503 29.5571 70.9873 29.69 71.0433 29.8527C71.0993 30.0155 71.0729 30.2041 70.9744 30.3455C70.8976 30.4557 70.7707 30.5386 70.6361 30.5332C70.4346 30.525 70.2908 30.3326 70.2208 30.1442C70.1562 29.9703 70.1353 29.7539 70.2621 29.6183C70.3691 29.5038 70.5423 29.4872 70.699 29.478" fill="#332E36"/>
<path d="M70.7465 29.2877C71.0168 29.3766 71.2398 29.6039 71.2861 29.8895C71.3349 30.1912 71.2175 30.5101 70.9491 30.6737C70.8174 30.7539 70.653 30.7806 70.5036 30.7397C70.3528 30.6984 70.236 30.596 70.144 30.4742C69.9883 30.2679 69.911 29.9856 69.9595 29.7309C69.9898 29.5718 70.1012 29.4237 70.2464 29.3507C70.3885 29.2793 70.5428 29.2615 70.6997 29.252C70.8184 29.2448 70.9318 29.361 70.9266 29.4779C70.9208 29.6065 70.8268 29.6962 70.6997 29.7039C70.662 29.7062 70.6076 29.7009 70.5723 29.7146C70.6123 29.6991 70.6036 29.7098 70.585 29.7134C70.5746 29.7154 70.5641 29.7171 70.5537 29.7193C70.5279 29.7248 70.503 29.7322 70.4779 29.7399C70.445 29.75 70.4858 29.7328 70.4892 29.7343C70.4867 29.7332 70.4615 29.7482 70.4619 29.748C70.453 29.7529 70.4445 29.7585 70.4359 29.7638C70.4063 29.7819 70.4444 29.756 70.4454 29.7564C70.4435 29.7558 70.4221 29.779 70.4231 29.778C70.3973 29.8028 70.4325 29.7681 70.4299 29.7678C70.4282 29.7676 70.4133 29.7944 70.4141 29.7931L70.4071 29.8062C70.3987 29.8241 70.3985 29.8241 70.4066 29.8064L70.4125 29.7932C70.4099 29.8003 70.4077 29.8074 70.4057 29.8145C70.403 29.8242 70.4006 29.8338 70.3986 29.8436C70.387 29.8993 70.4 29.8015 70.3975 29.8591C70.3965 29.8826 70.3978 29.9058 70.3989 29.9292C70.4001 29.9545 70.3894 29.9435 70.3962 29.9163C70.3936 29.9266 70.4011 29.9453 70.4032 29.9554C70.4116 29.9966 70.4232 30.0371 70.4376 30.0767C70.441 30.0863 70.4449 30.0957 70.4484 30.1052C70.4591 30.1339 70.4296 30.0662 70.4438 30.0935C70.4546 30.1142 70.4641 30.1354 70.4756 30.1557C70.4859 30.1737 70.4968 30.1914 70.5084 30.2085C70.5111 30.2124 70.521 30.2304 70.5264 30.2338C70.5017 30.2185 70.5041 30.207 70.5197 30.224C70.5334 30.2388 70.5468 30.2538 70.5617 30.2675C70.5604 30.2664 70.5826 30.2877 70.5841 30.2871C70.5594 30.2687 70.5538 30.2643 70.5676 30.2739C70.5736 30.2781 70.5797 30.2822 70.5859 30.286C70.5942 30.2911 70.6028 30.2954 70.6112 30.3002C70.6412 30.3174 70.6012 30.2884 70.5967 30.295C70.5959 30.2961 70.6492 30.3081 70.6527 30.3103C70.6458 30.3061 70.5983 30.3091 70.6368 30.3071C70.6412 30.3069 70.6682 30.306 70.6689 30.3068C70.6654 30.3033 70.6138 30.3198 70.656 30.3084C70.6686 30.3049 70.6816 30.3005 70.6944 30.2978C70.724 30.2916 70.6582 30.3176 70.6846 30.3025C70.6939 30.2972 70.7038 30.2928 70.7131 30.2874C70.7224 30.282 70.7311 30.2755 70.7404 30.2701C70.7669 30.2549 70.7115 30.2974 70.7331 30.2757C70.7481 30.2607 70.7639 30.2444 70.7795 30.2301C70.8021 30.2094 70.7578 30.2634 70.7744 30.2379C70.782 30.2263 70.7902 30.2152 70.7973 30.2034C70.8078 30.1861 70.8236 30.1642 70.8282 30.1445C70.8173 30.1914 70.8199 30.1644 70.8236 30.152C70.8267 30.1414 70.8305 30.1309 70.8334 30.1202C70.8364 30.1096 70.8391 30.0988 70.8414 30.0879C70.8426 30.0825 70.8463 30.0317 70.8455 30.0687C70.8447 30.102 70.8448 30.0658 70.8452 30.0573C70.8459 30.0435 70.8462 30.0296 70.8459 30.0158C70.8456 30.0046 70.8446 29.9937 70.8441 29.9826C70.8417 29.9291 70.8566 30.0286 70.8427 29.9768C70.8363 29.9529 70.8289 29.9292 70.8225 29.9053C70.8146 29.8758 70.8417 29.943 70.8275 29.916C70.8214 29.9044 70.8161 29.8925 70.8098 29.8812C70.8047 29.8721 70.7994 29.8631 70.7938 29.8543C70.7896 29.8477 70.7853 29.8412 70.7807 29.8348C70.7711 29.8212 70.7751 29.826 70.7928 29.8492C70.785 29.8309 70.7594 29.8108 70.7454 29.7971C70.7379 29.7899 70.7302 29.7828 70.7223 29.7759C70.6898 29.7477 70.713 29.7783 70.7252 29.7773C70.7123 29.7784 70.6717 29.7433 70.6584 29.7364C70.6515 29.7328 70.6347 29.7275 70.6302 29.7228L70.6554 29.7336C70.6457 29.7299 70.6358 29.7265 70.6258 29.7234C70.5133 29.6864 70.4283 29.5656 70.4673 29.4454C70.5036 29.3337 70.6258 29.248 70.7465 29.2877Z" fill="#332E36"/>
<path d="M37.9324 34.8806C38.295 35.7445 36.8411 36.4322 36.258 36.5987C35.848 36.7157 35.3973 36.7941 35.0042 36.6295C34.8668 36.5719 34.7343 36.4768 34.6845 36.3369C34.5953 36.0861 34.7685 35.729 34.9216 35.5342C35.3425 34.9988 36.0107 34.7163 36.6733 34.5525C36.9034 34.4956 37.1427 34.4501 37.3767 34.4882C37.6107 34.5262 37.8409 34.6627 37.9324 34.8806Z" fill="#F3F2F3"/>
<path d="M37.7127 34.9407C37.8544 35.2999 37.6045 35.5906 37.3326 35.8068C37.0358 36.0427 36.6761 36.2217 36.3173 36.343C36.0688 36.427 35.8039 36.4926 35.5407 36.4972C35.3429 36.5007 34.9235 36.4675 34.8868 36.2112C34.8513 35.9636 35.0719 35.6857 35.2324 35.5228C35.4338 35.3184 35.6766 35.1648 35.9353 35.0421C36.2325 34.9012 36.556 34.8042 36.8777 34.7371C37.1868 34.6726 37.5804 34.6666 37.7356 34.9947C37.86 35.2576 38.2513 35.0284 38.1274 34.7666C37.758 33.9859 36.6958 34.2675 36.0695 34.4995C35.4107 34.7435 34.7139 35.1755 34.4847 35.8774C34.3675 36.2367 34.4662 36.5958 34.8076 36.7855C35.1501 36.9758 35.5592 36.9723 35.9346 36.9069C36.4613 36.8152 36.9844 36.5949 37.4257 36.2956C37.9031 35.9719 38.3939 35.4384 38.1503 34.8205C38.0447 34.5529 37.6058 34.6694 37.7127 34.9407Z" fill="#332E36"/>
<path d="M36.9227 36.0602C37.2224 36.001 37.4684 35.7757 37.6201 35.5116C37.6777 35.4113 37.7247 35.3019 37.7314 35.1865C37.7383 35.0676 37.7021 34.9501 37.653 34.8415C37.6307 34.7922 37.6049 34.7431 37.5648 34.7068C37.5276 34.6731 37.4804 34.6525 37.4328 34.6365C37.242 34.5724 37.0296 34.5743 36.84 34.6419C36.4153 34.7933 36.1822 35.2243 36.2614 35.662C36.2814 35.772 36.321 35.8802 36.389 35.9692C36.526 36.1487 36.7798 36.2301 36.9962 36.1638" fill="#332E36"/>
<path d="M36.9831 36.278C37.3572 36.1986 37.6695 35.9112 37.8418 35.5787C37.9513 35.3674 37.9908 35.1414 37.921 34.9102C37.8917 34.813 37.8513 34.71 37.7919 34.6266C37.7141 34.5174 37.6071 34.455 37.4801 34.4144C37.0846 34.2879 36.6255 34.4037 36.3377 34.7013C36.0743 34.9735 35.9759 35.3539 36.0427 35.722C36.0847 35.9527 36.2117 36.1607 36.4105 36.2887C36.599 36.4101 36.8416 36.4424 37.0565 36.3816C37.1744 36.3483 37.2476 36.222 37.215 36.1037C37.1826 35.9863 37.0542 35.9124 36.9359 35.9458C36.9218 35.9498 36.9077 35.953 36.8936 35.9568C36.8304 35.9742 36.9166 35.9572 36.8784 35.9593C36.8457 35.961 36.8128 35.9615 36.7803 35.9574C36.8243 35.9629 36.7429 35.9467 36.7336 35.9439C36.7197 35.9398 36.7057 35.9351 36.6922 35.9298C36.731 35.945 36.6699 35.9168 36.6674 35.9154C36.6091 35.8826 36.6084 35.885 36.5631 35.8264C36.5828 35.8519 36.5526 35.8078 36.5489 35.8016C36.5401 35.7869 36.5318 35.7719 36.5243 35.7564C36.5063 35.7192 36.5315 35.7779 36.5169 35.7391C36.5078 35.7149 36.5006 35.69 36.4941 35.6649C36.4898 35.6482 36.4861 35.6314 36.4828 35.6145C36.4819 35.61 36.474 35.5606 36.4777 35.5881C36.4821 35.62 36.4748 35.5492 36.475 35.5527C36.4741 35.5383 36.4735 35.5238 36.4732 35.5094C36.4727 35.4808 36.4734 35.4521 36.4756 35.4235C36.4766 35.4094 36.4778 35.3951 36.4797 35.3811C36.4734 35.4295 36.4845 35.3618 36.4854 35.3577C36.4913 35.3304 36.4984 35.3033 36.5067 35.2765C36.5119 35.2599 36.5179 35.2436 36.5237 35.2272C36.5357 35.1933 36.5098 35.2559 36.5249 35.2234C36.538 35.1951 36.5522 35.1674 36.5681 35.1405C36.5751 35.1286 36.5825 35.1168 36.5901 35.1052C36.5928 35.101 36.6241 35.0562 36.6085 35.0773C36.5901 35.1022 36.6322 35.0493 36.6302 35.0516C36.6394 35.0411 36.6489 35.0309 36.6585 35.0208C36.678 35.0006 36.6992 34.9823 36.7198 34.9633C36.7512 34.9344 36.732 34.953 36.7237 34.9591C36.7352 34.9507 36.7469 34.9425 36.7588 34.9346C36.7889 34.9147 36.8202 34.8966 36.8525 34.8804C36.8483 34.8825 36.9135 34.8535 36.8859 34.8646C36.8616 34.8743 36.9103 34.8563 36.9134 34.8553C36.9525 34.842 36.9922 34.8318 37.0327 34.8238C37.085 34.8134 37.1751 34.8111 37.2457 34.8212C37.2336 34.8195 37.2264 34.8167 37.2667 34.8259C37.2845 34.8299 37.3024 34.8337 37.3201 34.8385C37.3378 34.8432 37.3552 34.8486 37.3726 34.8543C37.4178 34.8692 37.398 34.8637 37.3884 34.86C37.4415 34.8803 37.3904 34.8562 37.4127 34.8746C37.4389 34.8962 37.4017 34.8546 37.4197 34.8834C37.4369 34.9109 37.4524 34.9437 37.4609 34.9651C37.5155 35.1021 37.5217 35.2074 37.4621 35.3266C37.4263 35.3985 37.3844 35.4676 37.3363 35.5319C37.3423 35.5238 37.3583 35.5061 37.329 35.5406C37.314 35.5582 37.2991 35.5756 37.2834 35.5926C37.2574 35.6207 37.23 35.6476 37.2014 35.6731C37.1126 35.7524 36.994 35.8143 36.8625 35.8422C36.7426 35.8677 36.673 36.0075 36.7041 36.1202C36.7382 36.2438 36.8629 36.3035 36.9831 36.278Z" fill="#332E36"/>
<path d="M29.614 37.4416C29.9767 38.3055 28.5227 38.9932 27.9396 39.1597C27.5297 39.2767 27.0789 39.3551 26.6859 39.1905C26.5485 39.1329 26.416 39.0378 26.3662 38.8979C26.2769 38.6471 26.4502 38.29 26.6032 38.0952C27.0241 37.5598 27.6924 37.2773 28.3549 37.1135C28.5851 37.0566 28.8243 37.0111 29.0583 37.0492C29.2923 37.0872 29.5225 37.2237 29.614 37.4416Z" fill="#F3F2F3"/>
<path d="M29.3944 37.5016C29.536 37.8608 29.2861 38.1515 29.0142 38.3677C28.7174 38.6037 28.3577 38.7827 27.9989 38.904C27.7505 38.9879 27.4856 39.0536 27.2223 39.0582C27.0245 39.0617 26.6051 39.0285 26.5684 38.7722C26.533 38.5246 26.7535 38.2466 26.914 38.0838C27.1154 37.8794 27.3582 37.7257 27.617 37.6031C27.9142 37.4622 28.2376 37.3651 28.5593 37.2981C28.8684 37.2336 29.262 37.2276 29.4173 37.5556C29.5417 37.8185 29.933 37.5894 29.809 37.3275C29.4397 36.5469 28.3775 36.8285 27.7511 37.0604C27.0923 37.3044 26.3956 37.7364 26.1664 38.4384C26.0491 38.7977 26.1478 39.1567 26.4893 39.3465C26.8317 39.5368 27.2409 39.5332 27.6162 39.4679C28.1429 39.3762 28.666 39.1559 29.1074 38.8566C29.5847 38.5329 30.0756 37.9993 29.8319 37.3815C29.7264 37.1139 29.2874 37.2304 29.3944 37.5016Z" fill="#332E36"/>
<path d="M28.6043 38.6211C28.904 38.5619 29.1501 38.3367 29.3018 38.0726C29.3593 37.9723 29.4063 37.8628 29.413 37.7475C29.42 37.6286 29.3837 37.511 29.3346 37.4024C29.3123 37.3532 29.2865 37.304 29.2465 37.2677C29.2093 37.234 29.1621 37.2135 29.1145 37.1974C28.9237 37.1333 28.7112 37.1352 28.5216 37.2028C28.0969 37.3542 27.8638 37.7853 27.9431 38.2229C27.963 38.333 28.0026 38.4411 28.0706 38.5302C28.2076 38.7097 28.4614 38.791 28.6778 38.7248" fill="#332E36"/>
<path d="M28.6638 38.839C29.0379 38.7596 29.3501 38.4721 29.5225 38.1396C29.632 37.9284 29.6715 37.7024 29.6017 37.4712C29.5724 37.3739 29.532 37.271 29.4726 37.1876C29.3948 37.0784 29.2878 37.0159 29.1608 36.9753C28.7653 36.8489 28.3062 36.9646 28.0183 37.2623C27.755 37.5345 27.6566 37.9149 27.7234 38.2829C27.7653 38.5137 27.8924 38.7217 28.0911 38.8496C28.2797 38.971 28.5223 39.0034 28.7372 38.9426C28.8551 38.9093 28.9283 38.783 28.8957 38.6646C28.8633 38.5473 28.7349 38.4734 28.6166 38.5068C28.6025 38.5108 28.5883 38.5139 28.5743 38.5178C28.511 38.5352 28.5973 38.5181 28.559 38.5202C28.5264 38.522 28.4935 38.5224 28.461 38.5184C28.505 38.5239 28.4236 38.5077 28.4143 38.5049C28.4004 38.5007 28.3864 38.4961 28.3729 38.4908C28.4116 38.506 28.3506 38.4778 28.3481 38.4764C28.2898 38.4435 28.2891 38.446 28.2437 38.3874C28.2635 38.4129 28.2333 38.3688 28.2296 38.3626C28.2207 38.3479 28.2125 38.3328 28.205 38.3174C28.1869 38.2801 28.2121 38.3389 28.1976 38.3001C28.1885 38.2758 28.1812 38.251 28.1748 38.2259C28.1705 38.2092 28.1667 38.1924 28.1634 38.1754C28.1626 38.171 28.1546 38.1216 28.1584 38.1491C28.1627 38.1809 28.1555 38.1102 28.1557 38.1137C28.1548 38.0993 28.1542 38.0848 28.1539 38.0704C28.1533 38.0417 28.1541 38.013 28.1562 37.9845C28.1573 37.9704 28.1585 37.9561 28.1603 37.9421C28.154 37.9904 28.1652 37.9228 28.1661 37.9187C28.1719 37.8913 28.179 37.8642 28.1874 37.8375C28.1926 37.8209 28.1986 37.8046 28.2044 37.7881C28.2163 37.7543 28.1905 37.8169 28.2055 37.7844C28.2187 37.7561 28.2329 37.7284 28.2488 37.7015C28.2558 37.6896 28.2631 37.6778 28.2707 37.6662C28.2734 37.662 28.3047 37.6172 28.2892 37.6382C28.2707 37.6632 28.3129 37.6103 28.3108 37.6126C28.32 37.6021 28.3295 37.5918 28.3392 37.5818C28.3587 37.5616 28.3798 37.5433 28.4005 37.5243C28.4319 37.4954 28.4127 37.5139 28.4044 37.5201C28.4158 37.5116 28.4276 37.5035 28.4394 37.4956C28.4695 37.4757 28.5009 37.4575 28.5332 37.4414C28.529 37.4435 28.5942 37.4144 28.5665 37.4255C28.5423 37.4353 28.591 37.4173 28.5941 37.4162C28.6332 37.403 28.6729 37.3928 28.7134 37.3847C28.7656 37.3743 28.8558 37.372 28.9263 37.3822C28.9142 37.3804 28.907 37.3777 28.9474 37.3868C28.9652 37.3909 28.9831 37.3947 29.0008 37.3994C29.0185 37.4042 29.0359 37.4096 29.0533 37.4153C29.0984 37.4301 29.0787 37.4247 29.069 37.421C29.1221 37.4413 29.071 37.4172 29.0934 37.4356C29.1195 37.4572 29.0824 37.4156 29.1003 37.4443C29.1176 37.4719 29.1331 37.5047 29.1416 37.5261C29.1962 37.663 29.2023 37.7683 29.1428 37.8876C29.107 37.9595 29.0651 38.0285 29.0169 38.0929C29.023 38.0848 29.039 38.0671 29.0097 38.1016C28.9947 38.1191 28.9798 38.1366 28.9641 38.1536C28.9381 38.1817 28.9107 38.2086 28.8821 38.2341C28.7932 38.3133 28.6746 38.3753 28.5432 38.4032C28.4233 38.4286 28.3536 38.5685 28.3847 38.6812C28.4188 38.8048 28.5435 38.8645 28.6638 38.839Z" fill="#332E36"/>
<path d="M25.2037 35.9006C25.9357 34.7052 27.2294 33.8776 28.6307 33.7315C28.9182 33.7016 28.9213 33.2493 28.6307 33.2796C27.0647 33.4428 25.6334 34.3309 24.8119 35.6725C24.6595 35.9214 25.0517 36.1488 25.2037 35.9006Z" fill="#332E36"/>
<path d="M38.2553 30.9213C36.8592 30.3835 35.2313 30.6735 34.0842 31.6198C33.8591 31.8055 34.1816 32.1237 34.405 31.9394C35.4332 31.0912 36.8966 30.8801 38.1347 31.3571C38.4073 31.4621 38.5253 31.0253 38.2553 30.9213Z" fill="#332E36"/>
<path d="M32.8843 34.5335C33.2149 35.8072 33.5796 37.0774 33.8723 38.3603C34.0034 38.9349 34.0951 39.6007 33.7634 40.1268C33.5217 40.5102 33.038 40.8203 32.5842 40.6054C32.127 40.3888 31.9476 39.7989 31.8967 39.3367C31.8653 39.0507 31.4112 39.0475 31.443 39.3367C31.5017 39.87 31.6709 40.4564 32.0957 40.8188C32.5471 41.2038 33.1725 41.2168 33.6566 40.8796C34.96 39.9717 34.3066 38.208 33.9859 36.9724C33.7646 36.1194 33.5432 35.2664 33.3219 34.4134C33.2488 34.132 32.8111 34.2512 32.8843 34.5335Z" fill="#332E36"/>
<path d="M33.6481 43.864C33.5626 43.2504 32.9442 42.971 32.3756 42.9985C32.1078 43.0114 31.8954 43.1287 31.7627 43.361C31.6359 43.583 31.586 43.8431 31.538 44.0912C31.4828 44.3764 31.0454 44.2557 31.1005 43.971C31.1621 43.6527 31.2378 43.316 31.4262 43.0452C31.6501 42.7231 31.9867 42.5658 32.3756 42.5465C33.1249 42.5094 33.9738 42.9412 34.0857 43.7439C34.1025 43.8646 34.0562 43.9865 33.9272 44.0218C33.8212 44.0509 33.6651 43.9857 33.6481 43.864Z" fill="#332E36"/>
<path d="M31.0963 43.7832C31.1367 43.8174 31.1779 43.8507 31.2199 43.8831L31.174 43.8478C31.3082 43.9505 31.4501 44.0428 31.5985 44.1239C31.7027 44.1808 31.7451 44.3325 31.6799 44.4331C31.6118 44.5383 31.481 44.575 31.3695 44.5142C31.1575 44.3984 30.9595 44.2587 30.7754 44.1027C30.7333 44.067 30.709 43.9962 30.709 43.9429C30.709 43.8875 30.7337 43.8213 30.7754 43.7832C30.8187 43.7436 30.8754 43.7143 30.9358 43.717C30.9987 43.7198 31.0483 43.7425 31.0963 43.7832Z" fill="#332E36"/>
<path d="M73.3258 27.5595C72.038 27.5549 71.0084 26.7307 70.0795 25.9369C69.8576 25.7472 70.1797 25.4288 70.4004 25.6173C71.2337 26.3295 72.1675 27.1035 73.3258 27.1075C73.6177 27.1086 73.6183 27.5605 73.3258 27.5595Z" fill="#332E36"/>
<path d="M63.5089 25.9807C64.0658 26.0618 64.6502 25.9415 65.1419 25.674C65.3866 25.5409 65.6081 25.3743 65.8006 25.1731C65.9908 24.9742 66.1441 24.6117 66.465 24.6278C66.7556 24.6424 66.7573 25.0944 66.465 25.0797C66.473 25.0685 66.472 25.0682 66.462 25.0789C66.4539 25.086 66.4464 25.0938 66.4397 25.1023C66.4179 25.1229 66.4025 25.1507 66.3849 25.1748C66.3385 25.238 66.2903 25.3003 66.2399 25.3605C66.1449 25.4738 66.0404 25.5793 65.9283 25.676C65.7004 25.8726 65.4463 26.0393 65.1715 26.1633C64.6074 26.4176 64.0008 26.5057 63.3883 26.4165C63.2673 26.3989 63.1997 26.2457 63.2298 26.1386C63.2663 26.0091 63.3867 25.9629 63.5089 25.9807Z" fill="#332E36"/>
<path d="M67.6197 25.5174C67.495 27.2343 67.4582 28.9568 67.5124 30.6773C67.5391 31.5255 67.5879 32.373 67.6584 33.2187C67.6942 33.6475 67.7355 34.0759 67.7825 34.5036C67.8047 34.7056 67.8281 34.9074 67.8528 35.1091C67.8739 35.2809 67.8829 35.465 67.9438 35.629C68.1116 36.0807 68.5139 35.494 68.6337 35.2949C68.8509 34.9339 68.9733 34.5269 68.9951 34.107C69.0101 33.8176 69.4639 33.8158 69.4489 34.107C69.4271 34.5263 69.3261 34.9301 69.142 35.3083C68.9756 35.6503 68.7176 36.067 68.345 36.2114C67.4193 36.5703 67.3992 35.1326 67.3406 34.6105C67.125 32.6862 67.0231 30.7493 67.035 28.8131C67.0418 27.7134 67.0863 26.6142 67.166 25.5174C67.1869 25.2291 67.6408 25.2268 67.6197 25.5174Z" fill="#332E36"/>
</svg>
