<svg width="24" height="24" viewBox="0 0 24 24" fill="none" xmlns="http://www.w3.org/2000/svg">
<path fill-rule="evenodd" clip-rule="evenodd" d="M16.8309 12.3514C16.4268 13.4479 15.6919 14.377 14.7375 14.9982C16.3053 15.5358 17.7193 16.5402 18.8571 17.9542C18.9318 18.047 18.9795 18.1601 18.9947 18.2803C19.01 18.4005 18.992 18.5227 18.943 18.6326C18.894 18.7425 18.8159 18.8354 18.7181 18.9005C18.6202 18.9656 18.5066 19.0001 18.3905 19H5.6049C5.48928 18.9992 5.37626 18.964 5.27906 18.8986C5.18186 18.8332 5.10451 18.7401 5.05605 18.6304C5.00759 18.5207 4.99003 18.3989 5.00542 18.2791C5.0208 18.1594 5.06851 18.0467 5.14294 17.9542C6.27995 16.5402 7.69398 15.5358 9.26555 14.9982C8.31112 14.377 7.57627 13.4479 7.17216 12.3514C6.76805 11.2549 6.71668 10.0508 7.02582 8.92106C7.33496 7.79136 7.98779 6.79761 8.88554 6.09014C9.78329 5.38268 10.8771 5 12.0015 5C13.1259 5 14.2198 5.38268 15.1175 6.09014C16.0153 6.79761 16.6681 7.79136 16.9772 8.92106C17.2864 10.0508 17.235 11.2549 16.8309 12.3514ZM12.1015 15.1751C12.2199 15.1142 15 13.6383 15 11.815C14.9995 11.3868 14.8244 10.9763 14.513 10.6736C14.2017 10.3708 13.7796 10.2005 13.3393 10.2C12.7862 10.2 12.3019 10.4313 12 10.8223C11.6981 10.4313 11.2138 10.2 10.6607 10.2C10.2204 10.2005 9.7983 10.3708 9.48696 10.6736C9.17562 10.9763 9.0005 11.3868 9 11.815C9 13.6383 11.7801 15.1142 11.8985 15.1751C11.9297 15.1915 11.9646 15.2 12 15.2C12.0354 15.2 12.0703 15.1915 12.1015 15.1751Z" fill="#FFFFFD"/>
</svg>
