<svg width="24" height="24" viewBox="0 0 24 24" fill="none" xmlns="http://www.w3.org/2000/svg">
<path d="M3.75 18.125L8.625 13.25L16.125 20.75H3.75V18.125ZM20.25 20.75H18.2466L14.8716 17.375L16.7466 15.5L20.25 19.0044V20.75Z" fill="#FFFFFD"/>
<path fill-rule="evenodd" clip-rule="evenodd" d="M3.75 4.75C3.35218 4.75 2.97064 4.90804 2.68934 5.18934C2.40804 5.47064 2.25 5.85218 2.25 6.25V20.75C2.25 21.1478 2.40804 21.5294 2.68934 21.8107C2.97064 22.092 3.35218 22.25 3.75 22.25H20.25C20.6478 22.25 21.0294 22.092 21.3107 21.8107C21.592 21.5294 21.75 21.1478 21.75 20.75V9C21.75 9 21.75 8.1 21 8.1C20.25 8.1 20.25 9 20.25 9V16.8828L17.8059 14.4397C17.6666 14.3004 17.5013 14.1898 17.3193 14.1144C17.1373 14.039 16.9422 14.0002 16.7452 14.0002C16.5481 14.0002 16.3531 14.039 16.1711 14.1144C15.989 14.1898 15.8237 14.3004 15.6844 14.4397L13.8094 16.3147L9.68438 12.1897C9.4031 11.9086 9.02172 11.7507 8.62406 11.7507C8.22641 11.7507 7.84503 11.9086 7.56375 12.1897L3.75 16.0034V6.25H10C10 6.25 10.9 6.25 10.9 5.5C10.9 4.75 10 4.75 10 4.75H3.75ZM8.625 13.25L3.75 18.125V20.75H16.125L8.625 13.25ZM18.2466 20.75H20.25V19.0044L16.7466 15.5L14.8716 17.375L18.2466 20.75Z" fill="#FFFFFD"/>
<path fill-rule="evenodd" clip-rule="evenodd" d="M22 5.5C22 5.70886 21.917 5.90916 21.7693 6.05685C21.6217 6.20453 21.4214 6.2875 21.2125 6.2875H18.2875V9.2125C18.2875 9.42136 18.2045 9.62166 18.0568 9.76935C17.9092 9.91703 17.7089 10 17.5 10C17.2911 10 17.0908 9.91703 16.9432 9.76935C16.7955 9.62166 16.7125 9.42136 16.7125 9.2125V6.2875H13.7875C13.5786 6.2875 13.3783 6.20453 13.2307 6.05685C13.083 5.90916 13 5.70886 13 5.5C13 5.29114 13.083 5.09084 13.2307 4.94315C13.3783 4.79547 13.5786 4.7125 13.7875 4.7125H16.7125V1.7875C16.7125 1.57864 16.7955 1.37834 16.9432 1.23065C17.0908 1.08297 17.2911 1 17.5 1C17.7089 1 17.9092 1.08297 18.0568 1.23065C18.2045 1.37834 18.2875 1.57864 18.2875 1.7875V4.7125H21.2125C21.4214 4.7125 21.6217 4.79547 21.7693 4.94315C21.917 5.09084 22 5.29114 22 5.5Z" fill="#FFFFFD"/>
</svg>
