<svg width="101" height="100" viewBox="0 0 101 100" fill="none" xmlns="http://www.w3.org/2000/svg">
<path d="M71.8205 73.0408C71.2717 68.0191 70.5493 62.9083 71.4403 57.8852C71.7218 56.2987 72.2917 53.4352 74.2898 53.7519C76.0961 54.0382 77.3698 56.4686 78.022 57.9356C81.1154 64.8931 81.7724 72.6502 82.388 80.2395C82.6089 82.9634 82.8295 85.7101 82.4935 88.4223C82.3924 89.238 82.2328 90.0699 81.7976 90.7672C81.3625 91.4646 80.5976 92.0071 79.7763 91.9698C76.7119 91.8304 74.6844 86.1746 73.9167 83.8571C72.7591 80.3624 72.2192 76.6892 71.8205 73.0408Z" fill="#F3F2F3"/>
<path d="M72.3685 72.9483C72.0571 70.1071 71.6869 67.2641 71.5961 64.4047C71.5121 61.7593 71.5939 58.9698 72.3295 56.4088C72.5641 55.5921 72.9979 54.2425 74.0596 54.2864C75.137 54.3311 75.9664 55.4182 76.5007 56.2371C77.1491 57.2306 77.6177 58.3454 78.0548 59.4436C78.5975 60.8069 79.0558 62.2021 79.4405 63.6179C80.9939 69.3348 81.4451 75.2849 81.9085 81.1686C82.0275 82.6793 82.1295 84.1929 82.1117 85.7092C82.0953 87.11 82.1011 88.7223 81.5538 90.0354C81.1042 91.1139 80.0861 91.7113 78.9814 91.2094C78.148 90.8309 77.5207 90.0613 77.0104 89.3274C75.8726 87.6911 75.1415 85.7632 74.5087 83.8853C73.5627 81.0782 73.0235 78.1547 72.6395 75.223C72.5404 74.4658 72.4519 73.7073 72.3685 72.9483C72.2902 72.2361 71.1962 72.4279 71.274 73.1354C71.6384 76.452 72.1119 79.7743 73.0651 82.9796C73.7034 85.126 74.4759 87.2945 75.6327 89.2209C76.6385 90.8958 78.4919 93.1885 80.7371 92.3586C82.1669 91.83 82.7585 90.3196 82.9828 88.9312C83.2424 87.3239 83.2528 85.6731 83.192 84.05C83.0718 80.844 82.7586 77.6294 82.4292 74.4387C82.0993 71.2438 81.657 68.0536 80.9152 64.9258C80.2324 62.0471 79.3484 59.0811 77.9234 56.4732C77.3369 55.3998 76.5928 54.2677 75.5146 53.6328C74.4842 53.026 73.2288 52.9903 72.3695 53.906C71.5448 54.7849 71.242 56.0442 71.0094 57.1919C70.7191 58.6243 70.5578 60.0803 70.4977 61.54C70.3694 64.6529 70.6763 67.7644 71.0196 70.8544C71.104 71.6148 71.1906 72.3749 71.274 73.1354C71.3521 73.8476 72.446 73.6559 72.3685 72.9483Z" fill="#F3F2F3"/>
<path d="M43.7713 39.5489C44.494 37.2985 46.2747 34.8947 48.6202 35.1859C49.7886 35.331 50.7692 36.1379 51.5359 37.0313C55.5887 41.7534 55.7847 48.5639 60.9915 52.5768C61.5915 53.0392 62.2618 53.4791 62.5833 54.1651C62.7688 54.5609 62.8196 55.0043 62.8679 55.4388C63.8753 64.4939 64.8827 73.5489 65.8901 82.604C66.2058 85.4416 67.7636 89.3642 64.5668 90.7614C61.5951 92.0602 57.8791 93.1217 54.7069 93.7466C49.2697 94.8178 43.1147 94.4256 37.9963 92.2214C32.6971 89.9392 27.886 87.005 27.9241 80.5753C27.9258 80.2921 27.9321 79.9885 27.7758 79.7524C27.642 79.5505 27.4135 79.4363 27.1955 79.3311C24.9769 78.2602 22.4204 76.5892 21.3899 74.2568C20.4545 72.1397 20.8715 69.3694 22.6938 67.9423C21.0931 66.7975 19.4744 65.4111 18.9997 63.5014C18.525 61.5916 19.8396 59.1702 21.8054 59.2622C20.1957 57.5833 18.6709 55.4795 18.261 53.1555C18.0605 52.0188 18.071 50.8142 18.5178 49.7499C19.3935 47.6632 21.7808 46.5535 24.0419 46.4612C26.3031 46.369 28.5065 47.0884 30.6883 47.6892C34.6918 48.7917 39.2125 49.8886 43.3514 49.8907C43.2323 46.191 42.6132 43.1556 43.7713 39.5489Z" fill="#332E36"/>
<path d="M62.758 93.1287C62.947 93.1469 63.1895 93.1582 63.541 93.2043C65.9873 93.5253 68.4853 93.5132 70.9281 93.165C73.3934 92.8135 75.8657 92.477 78.0922 91.2758C73.7225 86.7679 72.4753 79.0315 71.8207 73.042C71.2719 68.0203 70.5495 62.9095 71.4405 57.8864C71.7176 56.3246 72.1308 54.7546 72.9884 53.4203C70.6546 53.0106 68.1429 53.2591 65.7786 53.1384C63.5248 53.0232 61.3997 53.3919 60.0606 55.3749C59.0415 56.8843 58.6532 58.7238 58.3662 60.5224C57.1165 68.3535 57.4094 76.4224 59.1805 84.1504C59.6233 86.0824 60.1584 87.9934 60.785 89.8738C61.0167 90.5694 61.2322 91.9519 61.7197 92.4939C62.1906 93.0176 62.35 93.0893 62.758 93.1287Z" fill="#332E36"/>
<path d="M78.5196 90.9192C75.0321 87.2811 73.7162 82.0668 72.9357 77.2307C72.5381 74.7673 72.2874 72.2803 72.0206 69.8C71.7488 67.2731 71.524 64.7341 71.587 62.19C71.6223 60.7643 71.7469 59.3398 71.9957 57.9349C72.2551 56.4701 72.65 55.0058 73.4477 53.7357C73.8262 53.1331 72.9149 52.4979 72.5334 53.1054C71.123 55.3512 70.7146 58.1488 70.5416 60.7507C70.365 63.408 70.535 66.0775 70.7954 68.7233C71.305 73.9018 71.7846 79.1897 73.4354 84.1532C74.3435 86.8837 75.6625 89.5395 77.6692 91.6329C78.1611 92.146 79.0151 91.4361 78.5196 90.9192Z" fill="#F3F2F3"/>
<path d="M61.9793 53.1013C59.1015 54.3453 58.2811 57.5784 57.8263 60.3967C57.3537 63.3252 57.0998 66.2892 57.0567 69.2552C56.9692 75.2816 57.7406 81.3206 59.3673 87.1247C59.6162 88.0129 59.8846 88.8958 60.1712 89.7725C60.3892 90.4394 60.5291 91.1281 60.7509 91.7939C60.9568 92.412 61.284 92.9442 61.805 93.3482C62.2917 93.7256 62.9116 93.6861 63.4934 93.7571C64.2042 93.8437 64.299 92.7375 63.59 92.651C63.2045 92.6041 62.707 92.6757 62.398 92.4037C61.9809 92.0366 61.8121 91.5384 61.6677 91.0168C61.3126 89.7336 60.898 88.4707 60.5332 87.1901C59.7414 84.4105 59.1449 81.5756 58.7468 78.7131C57.9863 73.245 57.9606 67.6812 58.6816 62.2073C59.0556 59.3674 59.4336 55.4114 62.4415 54.1111C63.0988 53.827 62.6346 52.8181 61.9793 53.1013Z" fill="#F3F2F3"/>
<path d="M25.4034 47.2578C28.6153 47.8043 31.8638 48.3891 34.7814 49.9108C37.0193 51.078 39.9924 53.1818 39.6505 56.0775C39.4895 57.4415 38.5663 58.7871 37.1745 59.0952C36.6451 59.2123 36.5399 59.9713 37.0811 60.1652C38.9047 60.8187 40.7584 61.9979 41.4586 63.8975C42.0116 65.3979 41.6281 67.4418 40.1657 68.2871C39.7535 68.5254 39.7322 69.1285 40.2098 69.3147C41.948 69.9926 43.5889 71.2339 44.2304 73.0479C44.7493 74.5151 44.4734 76.3262 43.2993 77.4016C43.0279 77.6502 43.0426 78.0626 43.3411 78.284C44.7075 79.2976 46.346 80.4648 46.7771 82.215C47.1154 83.5883 46.6713 85.0912 45.2071 85.5299C44.0076 85.8893 42.7281 85.5898 41.5064 85.5303C40.3261 85.4728 39.1435 85.4597 37.9621 85.4351C36.8095 85.4111 35.6433 85.4187 34.4956 85.2974C33.7837 85.2222 33.6878 86.3283 34.399 86.4035C36.8194 86.6592 39.2771 86.507 41.7055 86.6521C43.1753 86.7399 44.7368 87.0496 46.1197 86.36C47.6182 85.6127 48.196 83.9426 47.9372 82.3545C47.5723 80.115 45.683 78.6393 43.9713 77.3696L44.0131 78.252C45.4974 76.8924 45.9118 74.7297 45.3245 72.8416C44.636 70.6282 42.6751 69.0847 40.5838 68.2691L40.6279 69.2968C42.5066 68.2109 43.1908 65.8546 42.5961 63.8258C41.8998 61.4506 39.68 59.9169 37.4551 59.1196L37.3617 60.1896C38.8264 59.8655 39.9368 58.7653 40.4639 57.3813C41.0114 55.9437 40.8198 54.367 40.0552 53.0463C38.4213 50.2238 35.0803 48.5612 32.0835 47.5962C29.9415 46.9065 27.7137 46.5283 25.5 46.1517C24.7946 46.0317 24.7026 47.1386 25.4034 47.2578Z" fill="#F3F2F3"/>
<path d="M42.7492 49.8497C43.0348 52.5294 44.0074 55.075 45.5418 57.2865L45.6101 56.5044C44.1843 57.5701 43.442 59.2709 43.5186 61.0326C43.5317 61.3345 43.8899 61.5295 44.1594 61.4864C44.4866 61.434 44.6261 61.1435 44.6131 60.8455C44.5534 59.4731 45.2368 58.1673 46.3238 57.3549C46.5798 57.1635 46.5553 56.8079 46.3922 56.5728C44.9695 54.5223 44.1079 52.141 43.8437 49.6626C43.7678 48.9502 42.6737 49.1421 42.7492 49.8497Z" fill="#F3F2F3"/>
<path d="M32.1993 67.4894C34.501 67.7191 36.7897 68.0849 39.0454 68.5987C39.3372 68.6651 39.6457 68.5691 39.7551 68.2629C39.8467 68.0066 39.7135 67.6201 39.4194 67.5531C37.0703 67.0181 34.6934 66.6227 32.2959 66.3834C31.5837 66.3123 31.4875 67.4183 32.1993 67.4894Z" fill="#F3F2F3"/>
<path d="M29.7134 57.9302C31.2828 58.0204 32.838 58.2624 34.334 58.6579C34.6235 58.7344 34.9368 58.6215 35.0438 58.3221C35.1382 58.0581 34.9993 57.6894 34.708 57.6124C33.1054 57.1887 31.4653 56.9193 29.81 56.8242C29.5108 56.807 29.2353 57.024 29.2087 57.3289C29.1831 57.6215 29.413 57.913 29.7134 57.9302Z" fill="#F3F2F3"/>
<path d="M35.2448 77.5047C36.6179 77.6903 37.9445 78.0724 39.2404 78.6522C39.514 78.7747 39.8548 78.5832 39.9501 78.3165C40.0575 78.0161 39.889 77.7296 39.6144 77.6067C38.2574 76.9996 36.8143 76.5977 35.3415 76.3987C35.0442 76.3585 34.7653 76.6147 34.7401 76.9034C34.713 77.2144 34.9469 77.4645 35.2448 77.5047Z" fill="#F3F2F3"/>
<path d="M62.0115 13.3594C61.337 14.5892 66.0418 21.9055 67.1243 22.8376C66.5656 23.8635 65.4041 24.3689 64.4561 25.0516C62.6326 26.3647 61.4786 28.5624 61.4329 30.8091C60.8953 27.3027 58.8466 24.0543 55.9141 22.0584C58.6487 20.3637 60.5037 16.1086 62.0115 13.3594Z" fill="#332E36"/>
<path d="M38.104 5.8672C38.3378 7.01613 38.8853 8.10193 39.4238 9.15548C40.4392 11.1422 41.4547 13.1289 42.4702 15.1156C42.5277 15.228 42.5863 15.3445 42.5941 15.4705C42.6102 15.7292 42.4147 15.9466 42.2359 16.1342C39.913 18.5707 37.9893 21.4901 37.9193 24.9329C37.329 21.0828 35.0795 17.5159 31.8594 15.3243C32.6708 15.8766 34.8194 11.9447 35.0976 11.3673C36.118 9.25006 37.224 7.25076 37.9935 5.01367C38.0085 5.30222 38.0469 5.58661 38.104 5.8672Z" fill="#F3F2F3"/>
</svg>
