<svg width="24" height="24" viewBox="0 0 24 24" fill="none" xmlns="http://www.w3.org/2000/svg">
<path d="M1.72041 11.0306L9.22041 18.5306C9.3253 18.6356 9.45899 18.7071 9.60455 18.7361C9.75012 18.7651 9.90101 18.7503 10.0381 18.6934C10.1752 18.6366 10.2924 18.5404 10.3748 18.417C10.4572 18.2935 10.5012 18.1484 10.501 18V14.2715C15.8542 14.5753 19.5245 18.0469 20.5548 19.1465C20.7166 19.3193 20.9287 19.4367 21.1611 19.4819C21.3934 19.5271 21.6341 19.4979 21.8489 19.3984C22.0636 19.2989 22.2415 19.1342 22.3573 18.9277C22.473 18.7213 22.5207 18.4835 22.4935 18.2484C22.1457 15.224 20.4892 12.315 17.8285 10.0575C15.6188 8.18248 12.9329 6.99279 10.501 6.78467V2.99998C10.5012 2.85156 10.4572 2.70644 10.3748 2.58299C10.2924 2.45955 10.1752 2.36333 10.0381 2.30651C9.90101 2.2497 9.75012 2.23485 9.60455 2.26383C9.45899 2.29282 9.3253 2.36435 9.22041 2.46936L1.72041 9.96936C1.65068 10.039 1.59536 10.1217 1.55761 10.2128C1.51987 10.3038 1.50044 10.4014 1.50044 10.5C1.50044 10.5985 1.51987 10.6961 1.55761 10.7872C1.59536 10.8782 1.65068 10.961 1.72041 11.0306Z" fill="#FFFFFD"/>
</svg>
