<svg width="24" height="24" viewBox="0 0 24 24" fill="none" xmlns="http://www.w3.org/2000/svg">
<path d="M8.30341 3.28126C8.22882 3.09652 8.23067 2.88972 8.30855 2.70634C8.38644 2.52297 8.53398 2.37804 8.71872 2.30345C8.90346 2.22886 9.11027 2.23071 9.29364 2.3086C9.47702 2.38648 9.62194 2.53402 9.69653 2.71876L10.4465 4.59376C10.4835 4.68524 10.502 4.78309 10.5011 4.88174C10.5003 4.98038 10.48 5.07789 10.4414 5.16868C10.4028 5.25948 10.3468 5.3418 10.2764 5.41092C10.206 5.48005 10.1227 5.53464 10.0312 5.57158C9.93975 5.60851 9.84189 5.62707 9.74325 5.62618C9.6446 5.6253 9.5471 5.605 9.4563 5.56643C9.3655 5.52787 9.28319 5.47179 9.21406 5.40142C9.14493 5.33104 9.09034 5.24774 9.05341 5.15626L8.30341 3.28126ZM2.71872 9.69658L4.59372 10.4466C4.68519 10.4835 4.78305 10.5021 4.88169 10.5012C4.98034 10.5003 5.07784 10.48 5.16864 10.4414C5.25944 10.4029 5.34175 10.3468 5.41088 10.2764C5.48001 10.206 5.5346 10.1227 5.57153 10.0313C5.60847 9.93979 5.62702 9.84194 5.62614 9.74329C5.62526 9.64465 5.60495 9.54714 5.56639 9.45634C5.52782 9.36555 5.47175 9.28323 5.40137 9.2141C5.331 9.14498 5.24769 9.09039 5.15622 9.05345L3.28122 8.30345C3.09648 8.22886 2.88968 8.23071 2.7063 8.3086C2.52293 8.38648 2.378 8.53402 2.30341 8.71876C2.22882 8.9035 2.23067 9.11031 2.30855 9.29368C2.38644 9.47706 2.53398 9.62198 2.71872 9.69658ZM21.2812 14.3035L19.4062 13.5535C19.2215 13.4789 19.0147 13.4807 18.8313 13.5586C18.6479 13.6365 18.503 13.784 18.4284 13.9688C18.3538 14.1535 18.3557 14.3603 18.4336 14.5437C18.5114 14.7271 18.659 14.872 18.8437 14.9466L20.7187 15.6966C20.9035 15.7712 21.1103 15.7693 21.2936 15.6914C21.477 15.6135 21.6219 15.466 21.6965 15.2813C21.7711 15.0965 21.7693 14.8897 21.6914 14.7063C21.6135 14.523 21.466 14.378 21.2812 14.3035ZM14.9465 18.8438C14.8719 18.659 14.727 18.5115 14.5436 18.4336C14.3603 18.3557 14.1535 18.3539 13.9687 18.4285C13.784 18.503 13.6364 18.648 13.5586 18.8313C13.4807 19.0147 13.4788 19.2215 13.5534 19.4063L14.3034 21.2813C14.378 21.466 14.5229 21.6135 14.7063 21.6914C14.8897 21.7693 15.0965 21.7712 15.2812 21.6966C15.466 21.622 15.6135 21.4771 15.6914 21.2937C15.7693 21.1103 15.7711 20.9035 15.6965 20.7188L14.9465 18.8438ZM22.304 1.73626C22.2352 1.66286 22.1524 1.60405 22.0604 1.56333C21.9684 1.52261 21.8691 1.50081 21.7685 1.49924C21.668 1.49766 21.5681 1.51634 21.4749 1.55416C21.3816 1.59198 21.297 1.64817 21.2259 1.71939L16.3125 6.63283L15.8081 6.12845C15.5295 5.84952 15.1986 5.62825 14.8344 5.47727C14.4702 5.3263 14.0798 5.24859 13.6856 5.24859C13.2913 5.24859 12.901 5.3263 12.5368 5.47727C12.1726 5.62825 11.8417 5.84952 11.5631 6.12845L9.9506 7.73814C9.91573 7.77297 9.88807 7.81433 9.8692 7.85985C9.85033 7.90537 9.84061 7.95417 9.84061 8.00345C9.84061 8.05273 9.85033 8.10153 9.8692 8.14705C9.88807 8.19258 9.91573 8.23394 9.9506 8.26876L15.735 14.0494C15.7698 14.0843 15.8112 14.1119 15.8567 14.1308C15.9022 14.1497 15.951 14.1594 16.0003 14.1594C16.0496 14.1594 16.0984 14.1497 16.1439 14.1308C16.1894 14.1119 16.2308 14.0843 16.2656 14.0494L17.835 12.48C18.4038 11.9222 18.7335 11.1652 18.7547 10.3688C18.7624 9.96615 18.6886 9.56613 18.5376 9.19282C18.3867 8.8195 18.1617 8.48061 17.8762 8.19658L17.3718 7.69314L22.2656 2.8022C22.4082 2.66378 22.4919 2.47559 22.499 2.27696C22.5062 2.07832 22.4363 1.8846 22.304 1.73626ZM8.02872 8.46939C7.95768 8.39832 7.87307 8.34225 7.77994 8.30452C7.6868 8.26678 7.58703 8.24815 7.48655 8.24972C7.38608 8.2513 7.28694 8.27305 7.19503 8.31368C7.10312 8.35431 7.02032 8.413 6.95153 8.48626C6.81924 8.6346 6.74937 8.82832 6.75654 9.02696C6.7637 9.22559 6.84733 9.41378 6.98997 9.5522L7.56278 10.125L6.1256 11.5603C5.84077 11.8445 5.61636 12.1833 5.46588 12.5565C5.31541 12.9296 5.24196 13.3293 5.24997 13.7316C5.26977 14.5278 5.59819 15.2852 6.16591 15.8438L6.63466 16.3069L1.73341 21.1997C1.59512 21.3344 1.51249 21.5161 1.50189 21.7089C1.4913 21.9016 1.55352 22.0913 1.67622 22.2403C1.7436 22.3185 1.82639 22.3819 1.91941 22.4266C2.01243 22.4713 2.11367 22.4964 2.2168 22.5001C2.31994 22.5039 2.42274 22.4864 2.51878 22.4486C2.61483 22.4108 2.70204 22.3537 2.77497 22.2806L7.68747 17.3672L8.19091 17.8716C8.75487 18.4329 9.51818 18.748 10.3139 18.748C11.1096 18.748 11.8729 18.4329 12.4368 17.8716L13.875 16.4353L14.4693 17.0306C14.539 17.1003 14.6218 17.1556 14.7128 17.1933C14.8038 17.231 14.9014 17.2504 15 17.2504C15.0985 17.2504 15.1961 17.231 15.2871 17.1933C15.3782 17.1556 15.4609 17.1003 15.5306 17.0306C15.6003 16.961 15.6556 16.8782 15.6933 16.7872C15.731 16.6961 15.7504 16.5986 15.7504 16.5C15.7504 16.4015 15.731 16.3039 15.6933 16.2128C15.6556 16.1218 15.6003 16.0391 15.5306 15.9694L8.02872 8.46939Z" fill="#D0CFD0"/>
</svg>
