<svg width="24" height="24" viewBox="0 0 24 24" fill="none" xmlns="http://www.w3.org/2000/svg">
<path d="M20.9995 6.66565C20.823 6.75707 20.6174 6.77465 20.4278 6.71453C20.2383 6.65441 20.0805 6.5215 19.9889 6.34502C19.273 4.93079 18.1894 3.73549 16.852 2.88471C16.7687 2.83214 16.6965 2.76367 16.6396 2.6832C16.5827 2.60274 16.5423 2.51186 16.5205 2.41575C16.4987 2.31964 16.4961 2.22019 16.5128 2.12307C16.5294 2.02594 16.5651 1.93306 16.6177 1.84971C16.6702 1.76636 16.7387 1.69418 16.8192 1.6373C16.8996 1.58041 16.9905 1.53993 17.0866 1.51817C17.1827 1.4964 17.2822 1.49378 17.3793 1.51045C17.4764 1.52713 17.5693 1.56276 17.6527 1.61533C19.2113 2.61334 20.477 4.00742 21.3202 5.65502C21.4116 5.83157 21.4292 6.0372 21.369 6.2267C21.3089 6.41621 21.176 6.57409 20.9995 6.66565ZM3.34734 6.75002C3.48474 6.74996 3.61949 6.71216 3.73687 6.64074C3.85426 6.56932 3.94976 6.46702 4.01297 6.34502C4.72884 4.93079 5.81242 3.73549 7.14984 2.88471C7.31817 2.77854 7.43743 2.60985 7.48139 2.41575C7.52534 2.22165 7.49039 2.01804 7.38422 1.84971C7.27805 1.68138 7.10936 1.56212 6.91526 1.51817C6.72116 1.47421 6.51755 1.50916 6.34922 1.61533C4.79053 2.61334 3.52489 4.00742 2.68172 5.65502C2.6225 5.76932 2.5937 5.89694 2.59809 6.02559C2.60248 6.15424 2.63991 6.2796 2.70677 6.3896C2.77364 6.4996 2.86769 6.59053 2.97988 6.65366C3.09207 6.71678 3.21861 6.74997 3.34734 6.75002ZM20.7942 16.4944C20.9271 16.7222 20.9975 16.9811 20.9984 17.2449C20.9993 17.5086 20.9307 17.768 20.7994 17.9967C20.6681 18.2255 20.4788 18.4156 20.2506 18.5478C20.0223 18.6801 19.7633 18.7498 19.4995 18.75H15.6745C15.5024 19.5977 15.0425 20.3599 14.3727 20.9073C13.703 21.4547 12.8645 21.7538 11.9995 21.7538C11.1345 21.7538 10.2961 21.4547 9.62634 20.9073C8.95658 20.3599 8.49667 19.5977 8.32453 18.75H4.49953C4.23592 18.7495 3.97711 18.6795 3.74916 18.5471C3.52121 18.4147 3.33217 18.2246 3.20109 17.9959C3.07001 17.7672 3.00151 17.508 3.0025 17.2444C3.00349 16.9808 3.07393 16.7221 3.20672 16.4944C4.0514 15.0366 4.49953 12.9638 4.49953 10.5C4.49953 8.5109 5.28971 6.60324 6.69623 5.19672C8.10275 3.7902 10.0104 3.00002 11.9995 3.00002C13.9887 3.00002 15.8963 3.7902 17.3028 5.19672C18.7094 6.60324 19.4995 8.5109 19.4995 10.5C19.4995 12.9628 19.9477 15.0356 20.7942 16.4944ZM14.1202 18.75H9.8789C10.0343 19.1882 10.3216 19.5675 10.7013 19.8358C11.0811 20.104 11.5346 20.2481 11.9995 20.2481C12.4645 20.2481 12.918 20.104 13.2977 19.8358C13.6775 19.5675 13.9648 19.1882 14.1202 18.75Z" fill="#FFFFFD"/>
</svg>
