<svg width="24" height="24" viewBox="0 0 24 24" fill="none" xmlns="http://www.w3.org/2000/svg">
<path fill-rule="evenodd" clip-rule="evenodd" d="M21.75 12C21.7502 13.0979 21.5651 14.1836 21.2063 15.2125H19.7875V13.7875C19.7875 13.1808 19.5465 12.599 19.1175 12.17C18.6885 11.741 18.1067 11.5 17.5 11.5C16.8933 11.5 16.3115 11.741 15.8825 12.17C15.4535 12.599 15.2125 13.1808 15.2125 13.7875V15.2125H13.7875C13.1808 15.2125 12.599 15.4535 12.17 15.8825C11.741 16.3115 11.5 16.8933 11.5 17.5C11.5 18.1067 11.741 18.6885 12.17 19.1175C12.599 19.5465 13.1808 19.7875 13.7875 19.7875H15.2125V21.2077C14.2632 21.539 13.2645 21.7228 12.2514 21.7489L4.23669 21.7129C3.68485 21.7104 3.08033 21.7001 2.69011 21.3099C2.49311 21.1129 2.35486 20.8649 2.29087 20.5938C2.22688 20.3226 2.23967 20.039 2.32781 19.7747L3.39187 16.5825C2.69639 15.2749 2.30793 13.8261 2.256 12.3459C2.20406 10.8658 2.49001 9.39328 3.09213 8.04016C3.69425 6.68703 4.59672 5.48885 5.73105 4.53658C6.86537 3.58431 8.20173 2.90298 9.63869 2.54429C11.0756 2.1856 12.5754 2.15899 14.0242 2.46647C15.473 2.77395 16.8327 3.40745 18.0001 4.31888C19.1675 5.2303 20.1119 6.3957 20.7616 7.72662C21.4114 9.05753 21.7494 10.519 21.75 12ZM18.0568 13.2307C18.2045 13.3783 18.2875 13.5786 18.2875 13.7875V16.7125H20.5367H21.2125C21.4214 16.7125 21.6217 16.7955 21.7693 16.9432C21.917 17.0908 22 17.2911 22 17.5C22 17.7089 21.917 17.9092 21.7693 18.0568C21.6217 18.2045 21.4214 18.2875 21.2125 18.2875H19.4537H18.2875V19.454V21.2125C18.2875 21.4214 18.2045 21.6217 18.0568 21.7693C17.9092 21.917 17.7089 22 17.5 22C17.2911 22 17.0908 21.917 16.9432 21.7693C16.7955 21.6217 16.7125 21.4214 16.7125 21.2125V20.5377V18.2875H13.7875C13.5786 18.2875 13.3783 18.2045 13.2307 18.0568C13.083 17.9092 13 17.7089 13 17.5C13 17.2911 13.083 17.0908 13.2307 16.9432C13.3783 16.7955 13.5786 16.7125 13.7875 16.7125H16.7125V13.7875C16.7125 13.5786 16.7955 13.3783 16.9432 13.2307C17.0908 13.083 17.2911 13 17.5 13C17.7089 13 17.9092 13.083 18.0568 13.2307Z" fill="#FFFFFD"/>
</svg>
