<svg width="343" height="197" viewBox="0 0 343 197" fill="none" xmlns="http://www.w3.org/2000/svg">
<path d="M174.104 107.071C168.486 120.145 163.967 133.689 160.6 147.513C159.017 154.01 157.689 160.569 156.621 167.17C156.15 170.078 156.08 173.236 154.885 175.959C153.77 178.498 151.884 180.703 149.515 182.155C147.983 183.095 146.272 183.728 144.797 184.753C143.06 185.96 141.47 188.248 141.99 190.468C142.395 192.2 144.119 193.305 145.822 193.827C149.064 194.819 152.523 194.314 155.673 193.231C156.45 192.963 157.214 192.658 157.966 192.328C158.476 192.104 159.439 191.37 159.996 191.362C160.746 191.352 160.552 191.487 160.509 192.307C160.457 193.283 160.316 194.263 160.22 195.236C163.263 195.945 166.395 196.174 169.512 196.401C171.86 196.572 174.307 196.728 176.484 195.831C181.794 169.809 186.619 143.071 199.829 119.615C200.027 119.265 200.226 118.915 200.426 118.567" fill="#662D91"/>
<path d="M173.698 106.834C170.461 114.374 167.579 122.063 165.077 129.876C162.555 137.748 160.416 145.741 158.668 153.819C157.768 157.975 156.972 162.154 156.281 166.35C155.675 170.033 155.663 173.929 153.706 177.226C152.836 178.691 151.686 180.003 150.327 181.034C148.842 182.161 147.102 182.835 145.497 183.758C144.011 184.614 142.685 185.787 141.953 187.367C141.285 188.809 141.179 190.531 142.115 191.887C143.017 193.196 144.517 193.96 146.017 194.372C147.902 194.891 149.878 194.928 151.806 194.661C153.765 194.389 155.664 193.797 157.487 193.039C158.184 192.749 158.799 192.367 159.467 192.024C159.605 191.954 159.752 191.877 159.905 191.847C159.994 191.83 160.156 191.867 160.229 191.833L160.258 191.84C160.387 191.877 160.331 191.796 160.092 191.595C160.08 191.607 160.099 191.695 160.091 191.718C160.042 191.848 160.058 192.045 160.047 192.183C159.97 193.203 159.853 194.217 159.75 195.236C159.731 195.431 159.91 195.645 160.095 195.688C163.443 196.459 166.895 196.704 170.316 196.926C171.88 197.028 173.463 197.067 175.009 196.76C175.373 196.687 175.732 196.595 176.084 196.478C176.448 196.358 176.842 196.284 176.953 195.878C177.161 195.116 177.272 194.313 177.429 193.539C178.689 187.328 179.932 181.113 181.28 174.921C182.637 168.694 184.1 162.49 185.795 156.346C187.479 150.246 189.392 144.206 191.651 138.294C193.92 132.356 196.546 126.551 199.609 120.978C200.009 120.249 200.417 119.525 200.832 118.804C201.134 118.279 200.322 117.806 200.021 118.33C194.719 127.542 190.662 137.415 187.432 147.526C184.22 157.582 181.804 167.871 179.618 178.192C178.384 184.022 177.222 189.867 176.031 195.707L176.359 195.379C173.905 196.359 171.215 196.059 168.646 195.868C165.86 195.661 163.073 195.411 160.345 194.783L160.69 195.236C160.793 194.217 160.908 193.203 160.987 192.183C161.025 191.699 161.127 191.127 160.537 190.941C159.93 190.75 159.298 191.039 158.78 191.328C158.069 191.725 157.39 192.082 156.627 192.38C153.1 193.761 148.855 194.633 145.22 193.115C143.809 192.525 142.447 191.424 142.364 189.788C142.279 188.097 143.358 186.532 144.604 185.487C146.038 184.286 147.879 183.658 149.48 182.723C150.947 181.867 152.255 180.74 153.319 179.417C154.398 178.075 155.252 176.555 155.779 174.913C156.358 173.112 156.565 171.218 156.794 169.348C157.295 165.262 158.103 161.2 158.923 157.168C160.573 149.062 162.616 141.037 165.042 133.128C167.428 125.351 170.184 117.687 173.3 110.173C173.697 109.216 174.101 108.261 174.51 107.308C174.746 106.759 173.936 106.28 173.698 106.834Z" fill="#662D91"/>
<path d="M174.104 107.071C168.486 120.145 163.967 133.689 160.6 147.513C158.658 155.482 157.388 163.572 155.614 171.571C155.538 171.915 155.465 172.292 155.621 172.608C155.806 172.981 156.244 173.142 156.641 173.269C161.603 174.861 166.593 176.453 171.736 177.356C174.334 177.812 176.966 178.092 179.605 178.091C181.031 178.091 181.461 178.306 182.081 177.164C182.63 176.155 182.769 174.625 183.072 173.512C185.63 164.138 188.3 154.779 191.681 145.662C195.499 135.366 205.858 114.356 212.259 105.396" fill="#3B1954"/>
<path d="M197.723 130.525C197.384 127.947 196.506 125.446 195.182 123.21C193.83 120.927 191.293 119.122 189.465 117.176C188.955 116.632 188.432 116.07 187.754 115.757C185.094 114.527 185.306 117.816 185.26 119.458C185.196 121.759 185.379 124.062 185.739 126.333C186.455 130.86 187.863 135.252 189.522 139.514C190.443 141.881 191.682 144.496 191.346 147.103C192.799 142.656 194.666 138.345 196.914 134.242C197.253 133.624 197.605 132.996 197.739 132.303C197.851 131.718 197.801 131.115 197.723 130.525Z" fill="#662D91"/>
<path d="M195.723 115.359C194.627 126.626 194.666 139.801 203.399 151.039C207.503 156.321 212.799 165.218 217.305 170.162C219.29 172.341 221.72 174.361 223.109 176.991C224.404 179.443 224.957 182.291 224.62 185.047C224.402 186.829 223.833 188.562 223.718 190.353C223.582 192.462 224.384 195.129 226.447 196.105C228.056 196.867 229.995 196.207 231.463 195.2C234.26 193.283 236.017 190.265 237.129 187.128C237.404 186.354 237.641 185.567 237.85 184.773C237.992 184.235 238.017 183.025 238.357 182.585C238.816 181.992 238.801 182.228 239.416 182.772C240.149 183.42 240.829 184.14 241.531 184.821C243.982 182.884 246.111 180.578 248.228 178.283C249.824 176.553 251.47 174.737 252.123 172.477C235.044 152.126 217.102 131.707 206.952 106.777C206.801 106.404 206.651 106.031 206.503 105.658" fill="#662D91"/>
<path d="M195.253 115.359C194.554 122.572 194.417 129.937 196.163 137.022C197.091 140.792 198.556 144.434 200.57 147.758C201.585 149.432 202.782 150.96 203.944 152.532C205.004 153.968 206.02 155.436 207.028 156.908C209.209 160.091 211.34 163.312 213.652 166.404C214.669 167.763 215.717 169.103 216.855 170.364C218.169 171.822 219.627 173.145 220.902 174.638C222.268 176.238 223.279 178.052 223.812 180.093C224.367 182.219 224.332 184.357 223.901 186.499C223.517 188.403 223.027 190.301 223.364 192.249C223.635 193.818 224.412 195.397 225.787 196.277C227.412 197.317 229.422 196.91 231.017 196.028C232.656 195.121 234.014 193.727 235.09 192.212C236.199 190.651 237.015 188.891 237.641 187.087C237.968 186.143 238.286 185.18 238.422 184.189C238.471 183.839 238.506 183.474 238.615 183.136C238.666 182.977 238.8 182.865 238.85 182.723L238.917 182.657L238.638 182.682C238.634 182.724 238.882 182.916 238.919 182.951C239.686 183.679 240.441 184.416 241.199 185.153C241.396 185.345 241.662 185.313 241.863 185.153C244.506 183.052 246.804 180.551 249.07 178.059C250.09 176.939 251.093 175.769 251.817 174.43C251.989 174.111 252.142 173.782 252.28 173.447C252.399 173.157 252.628 172.733 252.585 172.415C252.542 172.097 252.15 171.782 251.953 171.547C251.685 171.227 251.416 170.908 251.148 170.589C247.056 165.722 242.948 160.869 238.922 155.948C234.866 150.991 230.892 145.963 227.113 140.79C223.369 135.664 219.813 130.395 216.575 124.933C213.311 119.428 210.365 113.725 207.889 107.822C207.57 107.062 207.26 106.299 206.957 105.533C206.737 104.978 205.827 105.22 206.05 105.783C208.021 110.755 210.31 115.597 212.861 120.298C215.378 124.934 218.143 129.433 221.079 133.815C224.036 138.227 227.166 142.52 230.402 146.732C233.62 150.921 236.939 155.031 240.305 159.102C243.688 163.194 247.117 167.249 250.534 171.313C250.953 171.811 251.372 172.31 251.791 172.809L251.67 172.353C250.921 174.854 249 176.759 247.272 178.627C245.359 180.693 243.407 182.733 241.199 184.489H241.863C241.09 183.736 240.314 182.986 239.534 182.24C239.315 182.031 239.102 181.783 238.777 181.771C238.418 181.758 238.134 182.074 237.951 182.348C237.56 182.937 237.568 183.707 237.452 184.381C237.276 185.405 236.893 186.435 236.53 187.406C235.875 189.156 235.006 190.861 233.837 192.327C232.656 193.808 231.09 195.229 229.234 195.772C228.34 196.034 227.363 196.067 226.521 195.618C225.825 195.246 225.302 194.652 224.927 193.966C224.072 192.401 224.069 190.606 224.373 188.895C224.753 186.752 225.31 184.69 225.153 182.491C225.006 180.444 224.429 178.427 223.445 176.623C222.502 174.894 221.137 173.436 219.769 172.039C218.505 170.748 217.258 169.459 216.118 168.057C213.745 165.139 211.639 162.008 209.523 158.902C208.476 157.364 207.432 155.824 206.363 154.3C205.363 152.873 204.304 151.495 203.269 150.095C200.902 146.896 199.077 143.325 197.854 139.541C195.6 132.563 195.414 125.149 195.971 117.895C196.036 117.049 196.112 116.203 196.193 115.359C196.252 114.758 195.311 114.762 195.253 115.359Z" fill="#662D91"/>
<path d="M185.854 114.889C186.874 125.821 194.206 137.012 199.533 146.613C205.116 156.672 212.913 164.793 220.126 173.69C220.348 173.964 220.597 174.255 220.942 174.329C221.35 174.417 221.748 174.175 222.095 173.944C226.432 171.055 230.785 168.146 234.695 164.687C236.669 162.941 238.527 161.057 240.169 158.993C241.057 157.878 241.493 157.676 240.985 156.48C240.536 155.423 239.424 154.362 238.741 153.432C232.472 144.892 225.894 136.343 222.565 126.159C219.375 116.396 219.249 105.61 222.473 95.8386" fill="#3B1954"/>
<path d="M173.698 106.834C170.282 114.791 167.261 122.915 164.664 131.175C162.037 139.532 159.853 148.01 158.142 156.602C157.277 160.945 156.476 165.302 155.554 169.634C155.442 170.163 155.327 170.692 155.211 171.22C155.101 171.719 154.966 172.239 155.168 172.732C155.513 173.576 156.613 173.753 157.383 174C159.458 174.664 161.536 175.32 163.63 175.92C167.887 177.138 172.235 178.125 176.66 178.45C177.72 178.528 178.778 178.548 179.84 178.563C180.43 178.571 181.107 178.665 181.645 178.361C182.24 178.025 182.568 177.321 182.791 176.708C183.098 175.861 183.217 174.962 183.415 174.087C183.887 171.996 184.54 169.931 185.12 167.868C185.722 165.726 186.336 163.586 186.97 161.453C188.23 157.212 189.567 152.992 191.038 148.819C191.395 147.805 191.761 146.795 192.134 145.787C192.344 145.22 191.436 144.975 191.228 145.537C188.241 153.6 185.804 161.85 183.513 170.132C183.227 171.167 182.941 172.203 182.66 173.239C182.429 174.088 182.307 174.96 182.083 175.81C181.94 176.353 181.723 177.261 181.171 177.55C181.003 177.638 180.797 177.636 180.611 177.638C180.224 177.641 179.837 177.624 179.45 177.621C175.15 177.599 170.896 176.849 166.74 175.79C164.678 175.265 162.636 174.664 160.603 174.033C159.612 173.726 158.622 173.411 157.633 173.094C157.198 172.955 156.688 172.856 156.289 172.624C155.823 172.353 156.039 171.822 156.134 171.394C157.064 167.169 157.858 162.915 158.689 158.67C160.328 150.299 162.338 142.031 164.816 133.866C167.246 125.86 170.068 117.973 173.271 110.243C173.678 109.262 174.091 108.284 174.51 107.308C174.746 106.759 173.936 106.28 173.698 106.834Z" fill="#662D91"/>
<path d="M185.384 114.889C185.884 120.115 187.689 125.107 189.887 129.841C192.163 134.743 194.904 139.407 197.577 144.098C198.902 146.424 200.181 148.772 201.631 151.025C203.107 153.317 204.696 155.535 206.353 157.7C209.638 161.991 213.177 166.078 216.649 170.217C217.54 171.279 218.426 172.345 219.303 173.419C219.676 173.875 220.034 174.458 220.593 174.702C221.185 174.96 221.774 174.712 222.28 174.384C224.689 172.82 227.068 171.193 229.391 169.502C231.68 167.836 233.909 166.077 235.987 164.151C237.006 163.206 237.989 162.22 238.92 161.188C239.402 160.655 239.87 160.109 240.322 159.549C240.676 159.112 241.081 158.69 241.387 158.215C241.971 157.309 241.491 156.257 240.946 155.452C240.241 154.41 239.363 153.487 238.617 152.474C237.022 150.305 235.42 148.142 233.861 145.947C230.766 141.589 227.828 137.092 225.524 132.259C223.156 127.294 221.559 121.978 220.92 116.51C220.273 110.975 220.55 105.328 221.82 99.8979C222.131 98.5707 222.501 97.2585 222.926 95.9634C223.115 95.3879 222.208 95.1413 222.02 95.7138C220.315 100.909 219.532 106.398 219.656 111.862C219.78 117.307 220.789 122.741 222.657 127.857C224.452 132.775 226.998 137.374 229.854 141.75C231.301 143.966 232.826 146.13 234.379 148.273C235.148 149.336 235.925 150.393 236.702 151.449C237.452 152.467 238.172 153.515 238.985 154.484C239.393 154.971 239.819 155.447 240.17 155.978C240.418 156.352 240.774 156.89 240.73 157.363C240.694 157.757 240.292 158.108 240.056 158.393C239.615 158.925 239.187 159.466 238.732 159.987C236.925 162.06 234.91 163.946 232.791 165.698C230.623 167.492 228.339 169.141 226.021 170.735C224.845 171.544 223.659 172.338 222.472 173.13C222.094 173.381 221.341 174.107 220.864 173.786C220.63 173.628 220.455 173.353 220.28 173.138C220.057 172.864 219.834 172.591 219.61 172.318C216.215 168.18 212.684 164.156 209.332 159.983C205.995 155.83 202.842 151.513 200.217 146.871C197.639 142.314 194.968 137.8 192.561 133.15C190.154 128.5 187.989 123.643 186.888 118.501C186.633 117.308 186.44 116.104 186.324 114.889C186.267 114.293 185.327 114.287 185.384 114.889Z" fill="#662D91"/>
<path d="M215.145 110.166C216.752 110.326 218.412 110.508 219.948 110.013C219.954 106.555 220.983 100.916 222.824 97.9878C220.833 98.3931 218.744 100.377 216.716 100.262C209.617 99.8612 202.524 100.585 195.468 101.277C191.97 101.62 188.47 101.959 184.96 102.153C181.998 102.316 179.227 102.263 176.437 103.448C176.138 103.575 175.837 103.716 175.607 103.944C175.402 104.146 175.264 104.404 175.13 104.661C173.802 107.203 172.196 110.026 171.485 112.805C178.177 110.715 185.936 110.17 192.954 109.743C200.347 109.293 207.775 109.432 215.145 110.166Z" fill="#662D91"/>
<path d="M215.145 110.636C216.79 110.8 218.467 110.962 220.073 110.466C220.272 110.404 220.417 110.224 220.418 110.013C220.427 107.969 220.71 105.921 221.151 103.927C221.585 101.964 222.161 99.9463 223.229 98.2249C223.457 97.859 223.083 97.4516 222.699 97.5352C221.135 97.8755 219.845 98.895 218.372 99.4674C218.019 99.6046 217.647 99.7252 217.27 99.7748C216.829 99.8327 216.375 99.7729 215.933 99.7531C214.916 99.7074 213.898 99.6836 212.88 99.6788C208.782 99.6596 204.69 99.9459 200.611 100.314C196.579 100.679 192.554 101.124 188.518 101.442C186.568 101.596 184.618 101.691 182.665 101.793C180.847 101.888 179.01 102.059 177.272 102.634C176.374 102.931 175.419 103.251 174.904 104.098C174.372 104.973 173.929 105.921 173.459 106.831C172.49 108.705 171.567 110.631 171.032 112.68C170.944 113.016 171.261 113.366 171.61 113.258C176.816 111.641 182.27 110.994 187.687 110.569C193.473 110.115 199.27 109.851 205.075 110.003C208.438 110.092 211.797 110.304 215.145 110.636C215.747 110.695 215.743 109.756 215.145 109.697C209.15 109.103 203.118 108.896 197.096 109.083C191.505 109.257 185.868 109.627 180.328 110.416C177.298 110.847 174.286 111.444 171.36 112.352L171.938 112.93C172.41 111.122 173.192 109.421 174.036 107.761C174.462 106.925 174.905 106.099 175.342 105.269C175.516 104.938 175.668 104.542 175.939 104.276C176.245 103.976 176.717 103.828 177.111 103.683C178.804 103.059 180.591 102.849 182.382 102.748C184.3 102.639 186.217 102.558 188.132 102.411C196.092 101.801 204.023 100.662 212.019 100.618C213.115 100.612 214.211 100.627 215.306 100.667C216.259 100.701 217.191 100.818 218.119 100.545C219.814 100.047 221.215 98.8177 222.948 98.4406L222.418 97.7509C221.308 99.5378 220.695 101.639 220.245 103.677C219.787 105.75 219.487 107.888 219.478 110.013L219.824 109.56C218.3 110.03 216.704 109.852 215.145 109.697C214.544 109.637 214.548 110.576 215.145 110.636Z" fill="#662D91"/>
<path d="M146.611 94.9495C143.025 101.844 139.505 108.773 136.051 115.734C135.834 113.26 135.623 110.825 135.216 108.372C134.309 102.902 133.312 97.7281 129.658 93.3638C129.144 92.7501 128.58 92.1473 127.855 91.8072C124.16 90.0734 119.65 90.5902 115.984 92.2531C113.323 93.4605 112.946 97.032 113.737 99.5369C114.463 101.84 115.91 103.858 116.709 106.137C118.407 110.983 117.114 116.695 117.075 121.718C117.031 127.319 117.422 132.947 118.651 138.423C119.192 140.836 119.639 142.712 121.489 144.516C123.203 146.188 125.461 147.302 127.817 147.711C136.098 149.148 142.98 143.11 147.527 136.947C153.021 129.5 156.866 121.814 159.796 113.03C160.332 111.422 160.829 109.8 161.26 108.16" fill="#FFDE17"/>
<path d="M146.206 94.7126C143.414 100.08 140.662 105.468 137.95 110.877C137.179 112.415 136.411 113.955 135.646 115.497L136.521 115.734C136.263 112.79 135.954 109.865 135.45 106.951C135.021 104.471 134.522 101.988 133.677 99.6116C132.827 97.2219 131.623 94.981 129.991 93.0318C129.585 92.5472 129.152 92.087 128.634 91.7203C128.11 91.3498 127.478 91.1145 126.874 90.9093C125.645 90.4917 124.339 90.291 123.043 90.2648C121.73 90.2382 120.411 90.3947 119.132 90.6901C117.906 90.9736 116.635 91.3685 115.519 91.9606C113.726 92.912 112.961 94.956 112.904 96.8869C112.834 99.3018 113.942 101.425 115.013 103.518C115.637 104.737 116.222 105.965 116.571 107.295C116.912 108.598 117.058 109.939 117.1 111.283C117.184 114.029 116.853 116.762 116.688 119.498C116.513 122.395 116.59 125.318 116.773 128.212C116.961 131.202 117.317 134.186 117.898 137.126C118.361 139.472 118.816 141.972 120.317 143.906C123.433 147.921 129.085 149.118 133.848 147.962C138.462 146.842 142.363 143.721 145.463 140.241C147.135 138.364 148.61 136.317 150.014 134.236C151.505 132.024 152.888 129.74 154.155 127.393C156.707 122.661 158.774 117.677 160.442 112.569C160.905 111.153 161.333 109.726 161.713 108.285C161.867 107.7 160.961 107.45 160.807 108.035C159.439 113.217 157.553 118.3 155.256 123.142C153.041 127.81 150.38 132.257 147.329 136.428C144.654 140.084 141.4 143.523 137.337 145.637C133.202 147.788 128.09 148.226 123.959 145.807C122.897 145.184 121.909 144.393 121.132 143.432C120.449 142.588 119.993 141.6 119.675 140.568C118.893 138.027 118.461 135.333 118.131 132.701C117.769 129.819 117.595 126.915 117.552 124.011C117.513 121.313 117.691 118.651 117.887 115.964C118.075 113.369 118.193 110.74 117.724 108.166C117.491 106.886 117.079 105.665 116.534 104.484C115.978 103.28 115.318 102.127 114.772 100.919C113.947 99.0934 113.512 97.0673 114.139 95.1082C114.408 94.2665 114.907 93.4734 115.651 92.9756C116.62 92.3279 117.873 91.9773 118.991 91.6908C121.441 91.0631 124.076 90.9819 126.499 91.7728C127.072 91.9601 127.666 92.1763 128.159 92.531C128.641 92.8776 129.037 93.3447 129.413 93.7998C130.205 94.7599 130.89 95.8073 131.475 96.9052C132.611 99.0373 133.33 101.357 133.862 103.705C134.437 106.249 134.872 108.842 135.167 111.433C135.331 112.864 135.456 114.299 135.581 115.734C135.618 116.156 136.231 116.426 136.457 115.971C139.146 110.551 141.875 105.152 144.644 99.7723C145.432 98.242 146.223 96.7134 147.017 95.1864C147.296 94.6509 146.485 94.1756 146.206 94.7126Z" fill="#662D91"/>
<path d="M118.337 72.6359L158.91 111.759L229.873 102.213L246.008 45.2496C243.543 42.6787 241.077 40.1078 238.611 37.5369C233.326 32.026 228.041 26.5151 222.756 21.0042C217.804 15.8401 212.852 10.676 207.899 5.51193C206.598 4.15467 205.344 2.71369 203.977 1.42209C202.596 0.11731 199.948 0.512422 198.144 0.645146C194.669 0.900785 191.281 1.7863 187.905 2.59586C177.484 5.09465 166.505 6.8763 156.123 4.21895C151.894 3.13628 147.729 1.31725 143.369 1.53721C141.343 1.63941 139.185 2.29666 138.008 3.94681C136.83 5.59693 137.221 8.37401 139.117 9.09548C137.096 7.94279 134.656 7.54219 132.372 7.98798C130.713 8.31172 128.978 9.26227 128.551 10.8958C127.852 13.5651 130.528 14.7604 132.605 15.5614C131.864 15.2981 130.995 15.5973 130.467 16.1801C129.939 16.7629 129.724 17.5797 129.748 18.3652C129.788 19.6245 130.489 21.2083 131.579 21.9225C132.805 22.7261 134.626 23.0731 136.058 23.2485C135.952 23.2344 134.94 26.6536 134.833 26.9785C134.449 28.1487 133.942 29.2408 133.541 30.4121C132.649 33.0195 131.759 35.6275 130.852 38.23C128.36 45.3868 125.808 52.5229 123.194 59.6363C121.598 63.9781 119.979 68.3115 118.337 72.6359Z" fill="#FFDE17"/>
<path d="M118.005 72.968C119.715 74.6172 121.426 76.2664 123.136 77.9156C127.076 81.7144 131.015 85.5131 134.955 89.3119C139.323 93.524 143.691 97.7361 148.059 101.948C151.103 104.884 154.148 107.82 157.192 110.755C157.634 111.181 158.073 111.739 158.578 112.091C159.005 112.389 159.95 112.089 160.425 112.025C163.865 111.562 167.305 111.099 170.746 110.637C176.282 109.892 181.818 109.147 187.355 108.402C193.497 107.576 199.639 106.75 205.781 105.924L221.399 103.823C224.139 103.454 226.88 103.085 229.62 102.717C229.746 102.7 229.872 102.683 229.998 102.666C230.155 102.645 230.286 102.479 230.326 102.338C230.793 100.689 231.261 99.0393 231.728 97.39C232.872 93.3502 234.016 89.3104 235.161 85.2706C236.596 80.2024 238.032 75.1342 239.467 70.066C240.808 65.3316 242.149 60.5972 243.491 55.8629C244.349 52.8313 245.208 49.7998 246.067 46.7683C246.191 46.3272 246.412 45.8335 246.461 45.3754C246.503 44.9924 246.238 44.8108 245.988 44.5504C245.519 44.0607 245.049 43.571 244.579 43.0814C243.64 42.102 242.701 41.1226 241.762 40.1432C239.912 38.2147 238.063 36.2862 236.213 34.3577C228.809 26.6367 221.404 18.9157 214 11.1946C212.165 9.28091 210.329 7.36716 208.494 5.45339C207.616 4.53795 206.763 3.59986 205.89 2.67975C205.192 1.94396 204.471 1.02278 203.551 0.555911C201.907 -0.278313 199.906 0.0355822 198.144 0.175718C195.637 0.37512 193.174 0.86268 190.729 1.43534C180.756 3.77081 170.55 6.12578 160.256 4.57548C157.774 4.20163 155.37 3.55251 152.972 2.82537C150.657 2.12378 148.331 1.41887 145.918 1.15317C142.504 0.777234 137.064 1.54163 136.875 5.95719C136.81 7.48935 137.547 8.94755 138.992 9.54825C139.488 9.75436 139.811 8.94389 139.354 8.69015C137.499 7.66027 135.354 7.17369 133.235 7.39085C131.557 7.56284 129.753 8.1449 128.7 9.54705C127.786 10.7652 127.71 12.4637 128.657 13.6801C129.591 14.8793 131.105 15.4813 132.48 16.0142L132.73 15.1087C131.547 14.7607 130.308 15.3546 129.723 16.4201C129.095 17.5625 129.192 18.9548 129.665 20.1322C130.137 21.3096 130.929 22.2047 132.088 22.7332C133.34 23.3039 134.701 23.5468 136.058 23.7181L135.821 22.8432C135.587 22.965 135.511 23.2979 135.43 23.5234C135.27 23.9646 135.133 24.4141 134.993 24.8617C134.739 25.6705 134.515 26.4904 134.231 27.2892C133.62 29.0057 132.949 30.6958 132.358 32.4207C131.736 34.2379 131.113 36.0546 130.482 37.8687C127.909 45.2642 125.27 52.6366 122.566 59.9852C121.027 64.1685 119.466 68.3438 117.884 72.5111C117.67 73.0767 118.578 73.3212 118.791 72.7607C121.523 65.5626 124.192 58.3405 126.797 51.0955C128.093 47.4901 129.374 43.8792 130.64 40.2628C131.884 36.7057 132.991 33.0777 134.353 29.564C134.812 28.378 135.256 27.2039 135.628 25.9888C135.793 25.4497 135.959 24.9107 136.133 24.3746C136.199 24.1736 136.264 23.9718 136.336 23.773C136.438 23.4926 136.513 23.5401 136.295 23.6539C136.754 23.415 136.475 22.8317 136.058 22.7791C134.21 22.5458 131.881 22.1852 130.853 20.4391C130.38 19.6357 130.097 18.6377 130.26 17.7039C130.444 16.6452 131.328 15.6752 132.48 16.0142C133.072 16.1882 133.282 15.3227 132.73 15.1087C131.631 14.6827 130.435 14.2107 129.602 13.3442C128.637 12.3397 128.737 10.837 129.676 9.84088C130.708 8.74752 132.328 8.35651 133.779 8.2904C135.564 8.20899 137.32 8.63479 138.88 9.50087L139.242 8.64277C137.85 8.06418 137.561 6.23526 138.012 4.95195C138.609 3.25458 140.516 2.43588 142.157 2.14125C146.412 1.37708 150.738 3.19172 154.754 4.33385C163.306 6.7659 172.259 6.20573 180.906 4.58728C185.286 3.76753 189.573 2.54236 193.945 1.69823C195.951 1.31088 197.988 1.07097 200.03 0.972629C200.848 0.933171 201.694 0.928442 202.489 1.14951C203.445 1.41499 204.064 2.14305 204.734 2.83181C211.154 9.43466 217.459 16.1581 223.834 22.8057C230.293 29.5407 236.751 36.2757 243.21 43.0106C244.032 43.8676 244.854 44.7246 245.676 45.5815L245.555 45.1248C245.021 47.0115 244.486 48.898 243.952 50.7847C242.668 55.3161 241.385 59.8476 240.101 64.379C238.548 69.8626 236.995 75.3462 235.442 80.8298C234.098 85.5728 232.755 90.3158 231.411 95.0589C230.968 96.6237 230.525 98.1886 230.081 99.7534C229.943 100.242 229.805 100.73 229.666 101.218C229.599 101.457 229.469 101.739 229.448 101.988C229.446 102.021 229.429 102.057 229.42 102.088L229.748 101.76C227.379 102.079 225.01 102.398 222.641 102.716C216.998 103.476 211.355 104.235 205.712 104.994C198.893 105.911 192.073 106.829 185.253 107.746C179.34 108.541 173.427 109.337 167.514 110.132L161.657 110.92C160.77 111.039 159.769 111.051 158.903 111.291C158.866 111.301 158.824 111.301 158.785 111.306L159.242 111.427C157.896 110.129 156.55 108.831 155.203 107.532C151.971 104.415 148.738 101.298 145.505 98.1805C141.61 94.4247 137.715 90.6688 133.82 86.9129C130.438 83.6518 127.056 80.3907 123.674 77.1296C122.562 76.0575 121.451 74.9853 120.339 73.9131C119.809 73.4026 119.3 72.8486 118.74 72.3712C118.715 72.3504 118.693 72.3262 118.67 72.3039C118.235 71.8841 117.569 72.5474 118.005 72.968Z" fill="#662D91"/>
<path d="M135.503 23.7295C137.352 23.9569 139.282 23.4391 140.769 22.3181C140.971 22.1656 141.076 21.9129 140.938 21.6758C140.821 21.4767 140.498 21.3537 140.295 21.5073C138.918 22.5452 137.214 23.001 135.503 22.7905C135.25 22.7595 135.033 23.0285 135.033 23.26C135.033 23.5395 135.25 23.6984 135.503 23.7295Z" fill="#662D91"/>
<path d="M144.9 53.6354C145.613 52.1177 147.343 51.3577 148.854 50.8672C150.559 50.3133 152.475 50.2173 153.981 51.3301C154.468 51.6896 154.937 50.8751 154.455 50.5193C152.763 49.2692 150.523 49.3385 148.604 49.9618C146.872 50.5239 144.904 51.4233 144.088 53.1615C143.833 53.7053 144.643 54.1826 144.9 53.6354Z" fill="#662D91"/>
<path d="M148.643 59.2003C150.077 57.8701 152.223 57.5227 154.023 58.2564C154.258 58.3522 154.54 58.1524 154.601 57.9285C154.675 57.6596 154.509 57.4472 154.273 57.351C152.165 56.4916 149.638 56.9966 147.979 58.5364C147.535 58.9486 148.201 59.6114 148.643 59.2003Z" fill="#662D91"/>
<path d="M135.424 62.7815C135.652 63.0767 135.523 63.5943 135.409 63.9051C135.268 64.2937 135.037 64.5918 134.677 64.7932C133.648 65.3692 132.43 65.5974 131.259 65.591C130.735 65.5881 130.055 65.5698 129.75 65.0652C129.517 64.6783 129.54 64.1461 129.725 63.7441C130.08 62.9713 130.985 62.6093 131.754 62.4032C132.319 62.2518 132.897 62.1618 133.484 62.1793C134.093 62.1975 134.982 62.3132 135.424 62.7815C135.839 63.2224 136.503 62.5575 136.088 62.1176C135.552 61.5488 134.635 61.3516 133.889 61.2692C133.157 61.1883 132.415 61.2776 131.701 61.4479C130.614 61.7073 129.402 62.2373 128.896 63.3052C128.612 63.9055 128.556 64.6268 128.802 65.2497C129.112 66.0348 129.826 66.4025 130.631 66.4959C132.106 66.6669 133.751 66.3547 135.059 65.6551C136.237 65.0244 136.981 63.2715 136.088 62.1176C135.932 61.9153 135.589 61.9564 135.424 62.1176C135.223 62.3135 135.269 62.582 135.424 62.7815Z" fill="#662D91"/>
<path d="M132.184 63.7356C132.37 64.5749 132.056 65.8629 130.998 65.8244C129.934 65.7858 129.002 65.102 129.393 63.9449C129.524 63.557 129.78 63.2122 130.113 62.9738C130.645 62.5931 131.478 62.5268 131.91 63.0937C132.052 63.2801 132.133 63.5068 132.184 63.7356Z" fill="#662D91"/>
<path d="M131.73 63.8603C131.736 63.8894 131.742 63.9184 131.748 63.9477C131.765 64.0489 131.728 63.9665 131.748 63.9434C131.733 63.9604 131.762 64.1033 131.763 64.1311C131.764 64.1846 131.765 64.2382 131.763 64.2917C131.761 64.3517 131.773 64.4652 131.746 64.5188L131.753 64.4587C131.75 64.4802 131.747 64.5017 131.743 64.5231C131.737 64.5552 131.731 64.5872 131.723 64.6189C131.712 64.6716 131.698 64.7238 131.682 64.7754C131.672 64.806 131.662 64.8365 131.651 64.8666L131.64 64.8965C131.621 64.9441 131.625 64.936 131.651 64.8721C131.66 64.9134 131.572 65.029 131.55 65.0644C131.547 65.0698 131.502 65.1417 131.499 65.1403C131.497 65.1391 131.576 65.0506 131.517 65.1168C131.477 65.1617 131.436 65.2027 131.393 65.2447C131.32 65.3163 131.481 65.1905 131.394 65.244C131.369 65.2596 131.345 65.2766 131.318 65.2912C131.313 65.2942 131.238 65.332 131.238 65.3318C131.235 65.3228 131.349 65.2929 131.235 65.3273C131.205 65.3366 131.174 65.3422 131.143 65.3505C131.038 65.3792 131.25 65.3492 131.137 65.352C131.065 65.3539 130.994 65.3557 130.921 65.3509C130.887 65.3486 130.702 65.3175 130.82 65.3426C130.735 65.3245 130.65 65.3113 130.566 65.2884C130.496 65.2694 130.428 65.2451 130.36 65.2211C130.253 65.1838 130.416 65.2575 130.358 65.2204C130.334 65.2052 130.305 65.1953 130.28 65.1823C130.219 65.1509 130.16 65.1161 130.103 65.0777C130.081 65.0627 130 64.9908 130.091 65.0712C130.058 65.0421 130.025 65.0144 129.994 64.9835C129.971 64.9616 129.864 64.8254 129.939 64.9322C129.902 64.8795 129.867 64.8263 129.837 64.7688C129.822 64.741 129.795 64.6466 129.831 64.7627C129.821 64.7313 129.809 64.7009 129.8 64.6691C129.793 64.6423 129.788 64.6149 129.781 64.588C129.749 64.4701 129.778 64.656 129.776 64.5599C129.774 64.4866 129.774 64.4153 129.777 64.342C129.782 64.2191 129.751 64.4365 129.781 64.313C129.791 64.2731 129.798 64.2328 129.809 64.1931C129.827 64.1222 129.85 64.0523 129.877 63.9841C129.843 64.0706 129.901 63.935 129.904 63.9302C129.931 63.876 129.961 63.8231 129.993 63.7716C130.067 63.6527 130.126 63.5775 130.268 63.4486C130.27 63.4464 130.384 63.35 130.313 63.4059C130.344 63.3816 130.377 63.3593 130.41 63.338C130.482 63.2913 130.559 63.2506 130.638 63.2163C130.621 63.2234 130.548 63.248 130.629 63.2226C130.677 63.2078 130.723 63.1914 130.771 63.179C130.808 63.1697 130.844 63.1634 130.88 63.1551C130.934 63.1463 130.929 63.1466 130.865 63.1559C130.89 63.1532 130.914 63.1512 130.939 63.1497C131.012 63.1455 131.085 63.1492 131.158 63.1543C131.035 63.1457 131.149 63.1548 131.176 63.1607C131.223 63.1712 131.268 63.1864 131.314 63.2007C131.422 63.2344 131.237 63.15 131.333 63.2112C131.374 63.2373 131.417 63.2597 131.457 63.2875C131.374 63.2301 131.443 63.2764 131.462 63.2969C131.492 63.3297 131.525 63.3594 131.553 63.3946C131.491 63.3169 131.578 63.4399 131.582 63.4468C131.591 63.4617 131.666 63.6159 131.636 63.5451C131.678 63.6465 131.706 63.7538 131.73 63.8603C131.786 64.0998 132.074 64.2639 132.308 64.188C132.559 64.107 132.696 63.8671 132.636 63.6105C132.527 63.1349 132.286 62.6822 131.855 62.427C131.475 62.2022 131.019 62.1687 130.594 62.2568C129.723 62.4371 129.001 63.2529 128.865 64.1218C128.8 64.5377 128.845 64.9629 129.073 65.3265C129.269 65.6384 129.565 65.8872 129.899 66.0384C130.609 66.3585 131.533 66.4514 132.122 65.8472C132.68 65.2747 132.798 64.3642 132.636 63.6105C132.585 63.37 132.29 63.2077 132.058 63.2827C131.805 63.3647 131.675 63.6027 131.73 63.8603Z" fill="#662D91"/>
<path d="M112.402 89.9894C104.997 88.3178 98.9486 80.9818 99.3232 73.2969C99.5624 68.389 101.989 63.8619 106.797 62.0823C110.1 60.8599 113.972 61.2977 116.918 63.2265C120.445 65.5362 122.41 69.644 123.335 73.7547C123.986 76.6458 124.203 79.6879 123.482 82.5625C122.647 85.8931 120.362 89.6808 116.673 90.2895C116.008 90.3992 115.328 90.3585 114.655 90.3154C113.894 90.2668 113.141 90.1563 112.402 89.9894Z" fill="#662D91"/>
<path d="M116.091 88.2085C118.439 91.6866 120.475 95.3754 122.165 99.216C122.657 100.334 123.492 102.164 125.076 101.342C126.708 100.494 125.158 98.0576 124.681 96.9476C123.002 93.0439 121.207 89.1893 119.241 85.4208" fill="#3B1954"/>
<path d="M117.61 94.6328C118.849 95.0364 120.152 95.2433 121.455 95.2488C122.505 95.2532 123.835 94.7717 124.84 94.9248C125.071 94.9599 125.271 95.1083 125.424 95.284C126.068 96.0223 125.885 97.3185 125.061 97.8496C127.032 97.0022 127.775 99.5965 126.851 100.91C127.519 100.921 128.162 101.353 128.424 101.967C128.686 102.581 128.552 103.343 128.098 103.832C128.832 104.121 129.288 104.94 129.24 105.727C129.087 108.251 125.034 109.249 123.068 108.676" fill="#FFDE17"/>
<path d="M117.485 95.0856C118.434 95.3883 119.411 95.5833 120.404 95.6702C121.325 95.7508 122.185 95.6755 123.093 95.5179C123.737 95.406 124.836 95.0673 125.21 95.8005C125.485 96.3399 125.33 97.094 124.824 97.4443C124.421 97.724 124.659 98.5167 125.186 98.3024C125.812 98.0482 126.372 98.1527 126.641 98.8205C126.882 99.4215 126.805 100.139 126.445 100.674C126.235 100.986 126.519 101.363 126.851 101.38C127.915 101.434 128.469 102.686 127.766 103.5C127.59 103.703 127.562 104.107 127.861 104.237C128.67 104.589 128.967 105.51 128.633 106.306C128.375 106.921 127.818 107.354 127.246 107.661C126.075 108.289 124.492 108.586 123.193 108.223C122.61 108.06 122.361 108.965 122.944 109.128C124.597 109.591 126.672 109.185 128.093 108.25C128.81 107.779 129.43 107.107 129.634 106.254C129.898 105.149 129.413 103.896 128.335 103.427L128.43 104.164C129.012 103.49 129.204 102.556 128.829 101.73C128.477 100.952 127.689 100.484 126.851 100.441L127.257 101.147C127.811 100.324 127.856 99.1866 127.432 98.2988C126.965 97.3237 125.915 96.9996 124.936 97.397L125.299 98.2551C126.775 97.232 126.56 94.478 124.494 94.4263C123.468 94.4007 122.479 94.771 121.455 94.7794C120.193 94.7898 118.935 94.5628 117.735 94.1802C117.157 93.996 116.91 94.9022 117.485 95.0856Z" fill="#662D91"/>
<path d="M135.311 112.643C135.827 117.883 135.904 123.159 135.54 128.412C135.498 129.015 136.438 129.013 136.48 128.412C136.844 123.159 136.767 117.883 136.251 112.643C136.192 112.047 135.252 112.041 135.311 112.643Z" fill="#662D91"/>
<path d="M124.969 94.2284C124.848 94.1573 124.764 94.0723 124.686 93.944C124.66 93.9024 124.637 93.8599 124.615 93.8163C124.606 93.798 124.571 93.7156 124.593 93.7721C124.557 93.682 124.529 93.5877 124.505 93.4934C124.454 93.2894 124.439 93.1305 124.451 92.9085C124.455 92.8242 124.462 92.7666 124.486 92.6672C124.5 92.6117 124.517 92.5577 124.534 92.5033C124.583 92.3523 124.5 92.5525 124.562 92.4322C124.602 92.355 124.644 92.2803 124.693 92.2088C124.712 92.1827 124.711 92.1829 124.69 92.2095C124.705 92.1912 124.72 92.1733 124.736 92.1559C124.762 92.1266 124.789 92.0982 124.817 92.071C124.851 92.0387 124.885 92.006 124.923 91.9782C124.86 92.0248 124.98 91.9451 124.981 91.9449C125.021 91.921 125.062 91.8985 125.104 91.8793C125.029 91.9135 125.173 91.8585 125.177 91.8574C125.356 91.8056 125.522 91.8052 125.729 91.8304C125.895 91.8506 126.148 91.9157 126.343 91.9662C126.588 92.0299 126.853 91.8852 126.921 91.6383C126.988 91.3958 126.839 91.1247 126.593 91.0608C126.024 90.9133 125.4 90.776 124.828 90.9849C124.346 91.1612 123.946 91.5343 123.731 92.001C123.278 92.9825 123.507 94.4562 124.494 95.0392C125.016 95.3473 125.49 94.5359 124.969 94.2284Z" fill="#662D91"/>
<path d="M224.645 74.7494C232.116 78.6607 239.15 83.4069 245.572 88.8708C245.956 89.1972 246.349 89.5421 246.552 90.0031C246.741 90.4344 246.743 90.9214 246.739 91.3924C246.676 100.578 245.953 109.822 247.163 118.966C247.477 121.341 247.915 123.698 248.605 125.982C249.331 128.384 249.657 130.985 250.295 133.431C250.667 134.859 251.045 136.301 251.746 137.599C251.902 137.888 252.085 138.18 252.367 138.349C254.394 139.564 254.45 135.891 254.64 134.948C255.604 136.796 256.871 138.724 258.871 139.315C259.044 139.366 259.23 139.406 259.403 139.355C259.696 139.269 259.857 138.957 259.95 138.667C260.247 137.746 260.206 136.721 259.836 135.828C260.249 136.369 260.775 136.849 261.417 137.078C262.059 137.307 262.83 137.247 263.352 136.809C263.79 136.441 264.004 135.852 264.01 135.279C264.016 134.707 263.836 134.147 263.598 133.626C264.101 134.241 264.704 134.908 265.499 134.932C266.108 134.95 266.694 134.532 266.913 133.963C267.131 133.395 266.991 132.715 266.595 132.252C266.999 132.728 267.731 132.847 268.311 132.616C268.891 132.384 269.317 131.854 269.528 131.266C269.755 130.633 269.752 129.92 269.519 129.289C269.232 128.512 268.63 127.898 268.045 127.311C267.521 126.784 266.997 126.257 266.428 125.779C265.655 125.127 264.8 124.566 264.101 123.835C262.487 122.146 263.045 120.235 263.285 118.125C263.546 115.833 263.876 113.55 264.205 111.267C264.86 106.714 265.513 102.145 265.602 97.5384C265.644 95.3917 265.562 93.2415 265.316 91.1079C264.326 82.5454 261.194 74.1271 255.688 67.4909C249.698 60.2705 241.287 55.5168 232.846 51.4108" fill="#FFDE17"/>
<path d="M224.407 75.1547C229.419 77.7826 234.235 80.7779 238.801 84.1187C241.061 85.7716 243.289 87.4932 245.396 89.3377C245.969 89.8391 246.252 90.2979 246.269 91.0767C246.284 91.8127 246.259 92.5516 246.247 93.2876C246.224 94.8114 246.187 96.3349 246.149 97.8584C245.997 103.948 245.821 110.058 246.377 116.134C246.644 119.055 247.053 121.982 247.792 124.825C248.156 126.224 248.571 127.597 248.866 129.014C249.16 130.425 249.413 131.844 249.762 133.243C250.097 134.586 250.455 135.935 251.026 137.2C251.428 138.089 252.044 139.11 253.165 139.06C254.658 138.994 254.858 136.851 254.999 135.752C255.031 135.498 255.048 135.305 255.093 135.073L254.234 135.185C255.116 136.868 256.243 138.663 258.032 139.493C258.909 139.9 259.874 140.062 260.319 139.009C260.756 137.976 260.692 136.732 260.289 135.703L259.503 136.159C260.378 137.275 261.868 138.135 263.271 137.421C264.814 136.637 264.589 134.708 264.004 133.389L263.266 133.958C264.049 134.91 265.216 135.878 266.486 135.137C267.677 134.443 267.722 132.927 266.927 131.92L266.262 132.584C267.312 133.699 269.009 133.154 269.72 131.956C270.6 130.473 270.055 128.818 268.988 127.616C267.85 126.334 266.528 125.306 265.214 124.219C264.622 123.729 264.036 123.184 263.735 122.46C263.469 121.822 263.438 121.126 263.48 120.445C263.583 118.785 263.866 117.112 264.085 115.464C264.338 113.564 264.621 111.667 264.89 109.769C265.417 106.055 265.904 102.326 266.042 98.5741C266.297 91.6772 265.172 84.7272 262.593 78.3141C260.171 72.2907 256.465 66.9346 251.609 62.6144C246.729 58.273 241.028 54.9778 235.214 52.0574C234.506 51.7019 233.795 51.3519 233.083 51.0052C232.542 50.7416 232.065 51.551 232.609 51.816C238.236 54.556 243.819 57.5379 248.743 61.4333C251.19 63.3691 253.466 65.5272 255.451 67.9373C257.436 70.3489 259.106 73.0186 260.471 75.8255C263.284 81.6088 264.852 88.0716 265.104 94.492C265.391 101.804 263.972 109.017 263.045 116.236C262.934 117.095 262.843 117.957 262.727 118.816C262.637 119.482 262.535 120.151 262.525 120.825C262.504 122.27 263.032 123.501 264.093 124.485C264.687 125.036 265.355 125.499 265.979 126.014C266.629 126.549 267.225 127.148 267.816 127.747C268.355 128.292 268.925 128.877 269.136 129.636C269.343 130.382 269.195 131.267 268.64 131.833C268.173 132.311 267.415 132.438 266.927 131.92C266.502 131.469 265.898 132.122 266.262 132.584C266.74 133.19 266.594 134.188 265.791 134.423C265.007 134.653 264.363 133.819 263.93 133.294C263.564 132.849 262.995 133.417 263.192 133.863C263.583 134.743 263.85 136.238 262.676 136.659C261.666 137.02 260.745 136.232 260.168 135.495C259.882 135.132 259.215 135.526 259.382 135.952C259.703 136.771 259.796 137.699 259.497 138.542C259.458 138.652 259.399 138.852 259.277 138.902C259.125 138.965 258.83 138.812 258.69 138.759C258.353 138.629 258.033 138.446 257.739 138.238C256.519 137.374 255.726 136.008 255.046 134.711C254.866 134.367 254.263 134.427 254.187 134.823C254.077 135.396 254.044 135.981 253.934 136.554C253.846 137.011 253.726 137.815 253.288 138.072C253.108 138.178 252.844 138.091 252.645 137.968C252.124 137.643 251.853 136.8 251.641 136.257C251.152 135.001 250.819 133.674 250.518 132.363C250.2 130.984 249.956 129.589 249.654 128.206C249.357 126.845 248.931 125.523 248.596 124.172C247.894 121.341 247.507 118.436 247.264 115.532C246.77 109.625 246.943 103.69 247.091 97.7721C247.128 96.2774 247.164 94.7826 247.187 93.2876C247.198 92.5774 247.217 91.866 247.209 91.1558C247.202 90.5109 247.102 89.8883 246.711 89.3587C246.341 88.856 245.829 88.4725 245.354 88.0737C244.822 87.6275 244.287 87.1862 243.748 86.7498C242.7 85.9022 241.637 85.0732 240.561 84.2624C236.171 80.9546 231.54 77.9651 226.717 75.3263C226.108 74.9932 225.496 74.6662 224.881 74.3439C224.346 74.0633 223.871 74.8734 224.407 75.1547Z" fill="#662D91"/>
<path d="M116.838 68.0621C114.866 64.9512 110.836 63.1969 107.28 64.5183C104.539 65.5364 102.914 68.1391 102.382 70.9163C102.105 72.3581 102.087 73.8304 102.302 75.2812C102.527 76.7948 103.079 78.207 103.785 79.5591C105.453 82.7555 108.061 85.7848 111.424 87.2503C113.313 88.0734 115.441 88.3652 117.461 87.8769C119.689 87.3384 120.772 85.2826 121.115 83.1687C121.212 82.5776 120.306 82.3233 120.209 82.9191C119.94 84.5708 119.225 86.3824 117.472 86.9021C115.843 87.3852 114.037 87.2157 112.453 86.6546C109.299 85.5378 106.818 82.8742 105.142 80.0623C104.399 78.8155 103.75 77.4832 103.409 76.0668C103.105 74.8041 103.025 73.4913 103.142 72.1988C103.365 69.7543 104.42 67.1677 106.614 65.8666C109.863 63.9398 114.091 65.4829 116.026 68.536C116.349 69.0452 117.163 68.5746 116.838 68.0621Z" fill="#3B1954"/>
<path d="M117.937 71.7457C118.85 73.4113 119.505 75.1968 119.895 77.0552C120.019 77.6463 120.925 77.3962 120.801 76.8056C120.395 74.8713 119.699 73.005 118.749 71.2717C118.458 70.7416 117.647 71.2149 117.937 71.7457Z" fill="#3B1954"/>
<path d="M105.328 74.5512C104.912 74.2106 104.87 72.8561 104.859 72.4913C104.833 71.631 104.969 70.7712 105.207 69.9459C105.372 69.3738 105.977 68.749 106.409 68.356C106.783 68.0162 107.331 67.6426 107.851 67.8907C107.949 67.9377 108.026 68.0213 108.083 68.1145C108.292 68.4592 108.221 68.9136 108.028 69.2673C107.834 69.6209 107.536 69.9033 107.271 70.2073C107.053 70.4581 106.855 70.7269 106.681 71.0098C106.26 71.6909 105.982 72.446 105.843 73.2334C105.786 73.5597 105.831 73.8408 105.849 74.1655C105.862 74.3899 105.837 74.607 105.563 74.6283C105.474 74.6352 105.396 74.6066 105.328 74.5512Z" fill="#FFDE17"/>
<path d="M105.661 74.2192C105.49 74.0623 105.439 73.6919 105.401 73.4454C105.357 73.1567 105.341 72.8625 105.331 72.5708C105.314 72.0482 105.346 71.5267 105.439 71.0119C105.53 70.5085 105.625 70.0011 105.921 69.5749C106.167 69.2205 106.49 68.8979 106.818 68.6197C107.043 68.4296 107.681 68.0061 107.738 68.5511C107.786 69.0099 107.363 69.4042 107.086 69.711C106.72 70.1163 106.388 70.5525 106.124 71.0317C105.836 71.5536 105.616 72.1192 105.476 72.6984C105.406 72.9884 105.346 73.2866 105.345 73.586C105.345 73.7395 105.362 73.8925 105.372 74.0455C105.375 74.0903 105.365 74.1652 105.381 74.2071C105.381 74.2262 105.382 74.2453 105.383 74.2644C105.382 74.3532 105.443 74.3137 105.566 74.1458C105.057 73.8153 104.585 74.6279 105.091 74.9565C105.674 75.3353 106.313 74.8969 106.322 74.2488C106.327 73.9066 106.26 73.582 106.318 73.2402C106.379 72.8888 106.484 72.5398 106.609 72.2064C106.865 71.5256 107.265 70.913 107.751 70.3749C108.193 69.8856 108.632 69.3766 108.676 68.6874C108.718 68.0301 108.317 67.4303 107.642 67.3535C106.99 67.2793 106.427 67.6944 105.977 68.1166C105.528 68.5372 105.082 69.0197 104.839 69.592C104.555 70.2628 104.452 71.0604 104.403 71.7823C104.367 72.323 104.388 72.8726 104.455 73.4104C104.518 73.9117 104.603 74.5215 104.996 74.8831C105.441 75.2917 106.107 74.6294 105.661 74.2192Z" fill="#FFDE17"/>
<path d="M70.7967 70.6295C78.4006 69.2835 86.027 68.0548 93.6744 66.9818C95.5755 66.715 97.4781 66.4596 99.3828 66.2198C99.6366 66.1879 99.8498 66.0269 99.8527 65.7503C99.8551 65.5211 99.6346 65.2492 99.3828 65.2809C91.9478 66.2169 84.5375 67.3555 77.1466 68.5893C74.9448 68.9568 72.7449 69.335 70.5468 69.7241C69.9522 69.8293 70.2042 70.7344 70.7967 70.6295Z" fill="#662D91"/>
<path d="M58.4343 72.9685C60.4193 72.5632 62.4079 72.1753 64.3987 71.7989C64.9923 71.6867 64.7409 70.7815 64.1488 70.8935C62.1581 71.2699 60.1695 71.6578 58.1844 72.0631C57.5922 72.1841 57.8429 73.0893 58.4343 72.9685Z" fill="#662D91"/>
<path d="M72.5883 134.925C71.0966 136.444 69.5972 137.955 68.0901 139.459C67.6615 139.886 68.326 140.55 68.7547 140.123C70.2618 138.619 71.7612 137.108 73.2529 135.589C73.6769 135.157 73.0128 134.493 72.5883 134.925Z" fill="#662D91"/>
<path d="M111.488 91.3794C107.283 96.5573 102.996 101.668 98.6273 106.708C94.2582 111.748 89.8075 116.717 85.2776 121.613C82.7381 124.358 80.1733 127.079 77.5847 129.778C77.1661 130.214 77.8298 130.879 78.2493 130.442C82.8668 125.628 87.4074 120.741 91.8674 115.781C96.3273 110.821 100.707 105.789 105.004 100.688C107.413 97.8281 109.795 94.9461 112.152 92.0433C112.53 91.5781 111.869 90.9097 111.488 91.3794Z" fill="#662D91"/>
<path d="M89.3344 86.9082C91.6965 86.2178 94.0587 85.5274 96.4209 84.837C97.0002 84.6677 96.7537 83.7613 96.171 83.9316C93.8089 84.622 91.4467 85.3124 89.0845 86.0028C88.5052 86.1721 88.7517 87.0785 89.3344 86.9082Z" fill="#662D91"/>
<path d="M95.539 57.7551C96.541 58.2849 97.543 58.8146 98.5449 59.3444C98.7621 59.4592 99.066 59.4066 99.1879 59.176C99.3028 58.9588 99.2514 58.6563 99.0193 58.5336C98.0174 58.0039 97.0154 57.4741 96.0134 56.9444C95.7963 56.8296 95.4924 56.8822 95.3704 57.1128C95.2556 57.3299 95.307 57.6325 95.539 57.7551Z" fill="#662D91"/>
<path d="M111.236 101.578L110.536 104.229C110.473 104.466 110.615 104.75 110.864 104.807C111.11 104.863 111.375 104.733 111.442 104.479L112.142 101.827C112.205 101.59 112.063 101.307 111.814 101.25C111.568 101.194 111.303 101.324 111.236 101.578Z" fill="#662D91"/>
<path d="M138.217 9.07033C139.349 9.95966 140.797 10.4083 142.236 10.222C142.487 10.1894 142.706 10.0295 142.706 9.75247C142.706 9.52411 142.489 9.25018 142.236 9.28298C141.058 9.43548 139.829 9.15045 138.882 8.40636C138.682 8.2498 138.412 8.21207 138.217 8.40636C138.054 8.56915 138.016 8.91275 138.217 9.07033Z" fill="#662D91"/>
<path d="M131.968 15.7715C132.944 16.262 134.11 16.3518 135.136 15.9569C135.364 15.8689 135.547 15.6373 135.464 15.3794C135.392 15.157 135.131 14.9569 134.886 15.0515C134.663 15.1371 134.436 15.1982 134.201 15.2389C134.051 15.2648 134.289 15.2326 134.138 15.2475C134.075 15.2536 134.012 15.2592 133.949 15.2625C133.839 15.2683 133.728 15.2688 133.617 15.2641C133.562 15.2618 133.507 15.258 133.451 15.2531C133.434 15.2515 133.279 15.2314 133.365 15.2444C133.255 15.2277 133.147 15.206 133.039 15.179C132.932 15.152 132.826 15.1199 132.722 15.0827C132.706 15.0771 132.546 15.0125 132.614 15.0422C132.556 15.017 132.499 14.9892 132.443 14.9608C132.223 14.8505 131.923 14.8955 131.8 15.1292C131.687 15.3425 131.734 15.6536 131.968 15.7715Z" fill="#662D91"/>
<path d="M197.666 112.095C200.66 114.893 204.859 116.302 208.94 115.941C210.115 115.838 211.272 115.596 212.385 115.205C212.951 115.006 212.707 114.098 212.135 114.299C207.446 115.948 201.966 114.828 198.33 111.431C197.889 111.018 197.223 111.681 197.666 112.095Z" fill="#662D91"/>
<path d="M204.329 115.813C206.892 123.6 210.11 131.172 213.934 138.424C217.749 145.661 222.168 152.58 227.133 159.085C229.926 162.744 232.887 166.273 236.011 169.656C236.422 170.101 237.086 169.436 236.676 168.992C231.15 163.008 226.132 156.565 221.682 149.745C217.261 142.968 213.398 135.827 210.149 128.417C208.307 124.214 206.67 119.922 205.235 115.563C205.047 114.992 204.139 115.236 204.329 115.813Z" fill="#662D91"/>
<path d="M168.372 174.055C170.08 167.218 172.013 160.437 174.172 153.728C176.33 147.019 178.712 140.382 181.313 133.832C182.773 130.153 184.304 126.502 185.902 122.88C186.144 122.333 185.334 121.854 185.09 122.407C182.229 128.892 179.579 135.47 177.154 142.131C174.744 148.754 172.554 155.457 170.59 162.225C169.475 166.065 168.435 169.926 167.466 173.806C167.319 174.392 168.225 174.642 168.372 174.055Z" fill="#662D91"/>
<path d="M106.38 189.679C104.485 188.679 102.993 186.972 102.269 184.953C101.915 183.964 101.61 182.738 101.836 181.689C102.062 180.64 103.039 180.178 104.047 180.224C105.376 180.286 106.478 181.287 107.416 182.127C107.797 182.468 108.451 182.03 108.154 181.558C106.551 179.009 106.798 175.571 108.558 173.162C108.988 172.573 109.533 172.017 110.153 171.628C110.76 171.248 111.751 170.855 112.343 171.467C112.647 171.781 112.766 172.248 112.899 172.652C113.067 173.163 113.219 173.679 113.356 174.2C113.616 175.194 113.819 176.203 113.962 177.221C114.289 179.554 114.283 181.932 113.982 184.266C113.91 184.827 114.733 184.848 114.905 184.391C115.346 183.221 115.878 182.013 116.836 181.17C117.606 180.493 118.782 180.146 119.769 180.531C120.928 180.984 121.175 182.402 121.021 183.503C120.858 184.673 120.221 185.787 119.273 186.498L119.916 187.14C120.981 185.538 123.458 186.002 124.819 186.902C125.597 187.416 126.29 188.246 126.285 189.222C126.281 190.044 125.818 190.89 124.984 191.099L125.441 191.884C126.366 190.835 128.594 191.365 128.772 192.833C128.844 193.425 129.785 193.433 129.712 192.833C129.444 190.625 126.305 189.488 124.776 191.22C124.471 191.566 124.762 192.123 125.234 192.005C127.157 191.522 127.675 189.112 126.747 187.559C125.752 185.892 123.571 184.966 121.673 185.188C120.63 185.31 119.694 185.779 119.104 186.666C118.855 187.042 119.368 187.593 119.747 187.309C121.594 185.923 122.651 183.228 121.6 181.04C120.55 178.855 117.616 179.16 116.079 180.59C115.056 181.542 114.482 182.859 113.999 184.142L114.922 184.266C115.222 181.933 115.216 179.573 114.905 177.241C114.751 176.084 114.527 174.937 114.224 173.809C114.085 173.289 113.93 172.773 113.759 172.263C113.586 171.745 113.397 171.203 113.008 170.803C111.601 169.357 109.411 170.793 108.354 171.941C107.197 173.197 106.472 174.815 106.235 176.5C105.966 178.409 106.309 180.388 107.343 182.032L108.081 181.463C107.067 180.555 105.934 179.567 104.543 179.341C103.404 179.155 102.122 179.45 101.398 180.405C100.587 181.475 100.79 183.032 101.081 184.253C101.372 185.481 101.923 186.66 102.671 187.676C103.53 188.841 104.622 189.813 105.906 190.489C106.44 190.771 106.916 189.961 106.38 189.679Z" fill="#662D91"/>
<path d="M269.574 189.611C268.817 188.629 268.282 187.51 268.015 186.298C267.776 185.214 267.708 183.993 268.073 182.929C268.381 182.031 269.182 181.218 270.178 181.738C271.324 182.336 271.495 183.785 271.65 184.929L272.556 184.679C272.19 182.581 273.232 180.305 275.047 179.192C275.45 178.945 276.091 178.548 276.322 179.171C276.545 179.771 276.574 180.502 276.579 181.134C276.59 182.468 276.298 183.792 275.721 184.995C275.532 185.39 275.842 185.743 276.252 185.685C277.075 185.568 277.868 185.2 278.703 185.179C279.388 185.161 280.044 185.442 280.523 185.929C281.523 186.944 281.337 188.575 280.286 189.474L280.951 190.138C281.45 189.549 282.257 189.264 283.006 189.523C283.743 189.779 284.212 190.526 284.214 191.289C284.215 191.893 285.155 191.894 285.154 191.289C285.151 190.139 284.443 189.071 283.362 188.657C282.296 188.249 281.017 188.611 280.286 189.474C279.895 189.936 280.489 190.534 280.951 190.138C282.332 188.955 282.514 186.817 281.34 185.432C280.775 184.764 279.936 184.334 279.067 184.252C278.015 184.154 277.026 184.634 276.002 184.779L276.533 185.469C277.094 184.298 277.428 183.046 277.503 181.749C277.54 181.114 277.507 180.481 277.418 179.851C277.34 179.305 277.256 178.655 276.844 178.244C275.984 177.385 274.675 178.243 273.933 178.837C273.104 179.5 272.465 180.387 272.054 181.362C271.577 182.495 271.438 183.718 271.65 184.929C271.756 185.531 272.636 185.263 272.556 184.679C272.4 183.522 272.19 182.28 271.319 181.424C270.573 180.691 269.456 180.38 268.503 180.9C266.65 181.911 266.724 184.734 267.095 186.483C267.372 187.788 267.948 189.029 268.763 190.085C268.919 190.288 269.165 190.39 269.406 190.254C269.605 190.14 269.729 189.812 269.574 189.611Z" fill="#662D91"/>
<path d="M130.062 57.3166C130.612 56.4942 131.331 55.7946 132.175 55.2753C132.986 54.7755 134.042 54.2787 135.017 54.4453C136.969 54.7787 137.882 57.2298 138.256 58.8995C138.717 60.9524 138.651 63.0791 138.764 65.168C138.821 66.2236 138.888 67.3158 139.146 68.3443C139.376 69.2645 139.869 70.1642 140.751 70.5982C141.693 71.0614 142.743 70.7818 143.396 69.9786C144.181 69.0127 144.15 67.7558 144.059 66.5803C144.013 65.9817 143.072 65.9767 143.119 66.5803C143.195 67.5624 143.315 68.759 142.548 69.5202C141.831 70.2319 140.863 69.7939 140.409 69.0206C139.891 68.1366 139.834 66.9733 139.756 65.9753C139.675 64.9418 139.653 63.9051 139.613 62.8695C139.535 60.8566 139.396 58.7918 138.616 56.9095C137.932 55.2556 136.613 53.4664 134.631 53.4782C133.529 53.4848 132.397 53.9967 131.493 54.5972C130.598 55.1913 129.846 55.9513 129.25 56.8428C128.914 57.3467 129.727 57.8173 130.062 57.3166Z" fill="#662D91"/>
<path d="M142.938 75.228C143.288 76.4222 144.498 77.1034 145.673 77.2457C146.811 77.3833 147.996 77.0389 148.938 76.4022C151.147 74.9102 151.769 72.0951 151.682 69.5852C151.661 68.9826 150.721 68.9798 150.742 69.5852C150.814 71.6408 150.429 74.0279 148.727 75.3978C147.995 75.9878 147.049 76.3536 146.103 76.3384C145.22 76.3241 144.116 75.9039 143.844 74.9784C143.674 74.3999 142.767 74.6461 142.938 75.228Z" fill="#662D91"/>
<path d="M150.65 69.9779C150.779 69.8804 150.914 69.7912 151.056 69.7122C151.117 69.6777 151.18 69.6451 151.244 69.6144C151.281 69.5968 151.318 69.5805 151.354 69.5637C151.401 69.5435 151.391 69.5475 151.326 69.5755C151.345 69.5678 151.363 69.5603 151.382 69.553C151.524 69.4981 151.669 69.4523 151.816 69.4162C151.895 69.3969 151.974 69.3804 152.054 69.3667C152.074 69.3632 152.094 69.36 152.114 69.3569C152.165 69.3494 152.154 69.3508 152.079 69.3611C152.115 69.3658 152.163 69.3514 152.199 69.348C152.327 69.3359 152.438 69.3037 152.532 69.2105C152.613 69.129 152.675 68.9954 152.669 68.8785C152.659 68.644 152.462 68.3841 152.199 68.409C151.47 68.4783 150.763 68.7239 150.176 69.1671C150.074 69.2438 149.995 69.32 149.96 69.4477C149.929 69.5601 149.943 69.7097 150.007 69.8095C150.132 70.0026 150.44 70.1362 150.65 69.9779Z" fill="#662D91"/>
<path d="M222.757 21.0041C217.804 15.8401 212.852 10.676 207.899 5.51192C206.598 4.15465 205.345 2.71367 203.977 1.42208C202.596 0.117325 199.948 0.512407 198.144 0.645162C194.669 0.90077 191.281 1.78631 187.905 2.59581C177.484 5.09464 166.505 6.87628 156.124 4.2189C151.894 3.13629 147.73 1.31727 143.369 1.53724C141.343 1.6394 139.186 2.29664 138.008 3.9468C136.926 5.46331 137.172 7.92738 138.69 8.8772C136.757 7.90054 134.499 7.57286 132.372 7.98794C130.714 8.31171 128.978 9.26222 128.551 10.8958C127.852 13.565 130.528 14.7604 132.605 15.5613C131.864 15.2981 130.995 15.5973 130.467 16.18C129.94 16.7629 129.724 17.5797 129.749 18.3652C129.788 19.6245 130.489 21.2083 131.579 21.9224C132.727 22.6748 134.392 23.0247 135.775 23.2106C136.477 23.1098 137.173 22.9716 137.855 22.7988C141.592 21.8521 145.02 19.9836 148.402 18.1334C152.149 16.0832 155.896 14.0331 159.644 11.983C158.44 18.1168 163.808 23.9965 169.85 25.6223C173.691 26.6559 178.046 26.5396 181.175 28.9942C183.726 30.9966 184.855 34.2654 185.858 37.3485C185.025 33.5683 187.711 29.4578 191.442 28.413C195.173 27.3683 199.43 29.2796 201.401 32.6118C203.372 35.9442 203.094 40.3798 200.994 43.6325C213.467 49.5121 228.454 48.5646 240.588 55.1152C241.322 55.5114 242.088 55.9349 242.869 56.3338C243.853 52.8595 246.008 45.2496 246.008 45.2496C243.543 42.6787 241.077 40.1078 238.612 37.5369C233.327 32.026 228.042 26.515 222.757 21.0041Z" fill="#662D91"/>
<path d="M223.089 20.6723C217.887 15.248 212.614 9.88227 207.485 4.38937C206.938 3.80416 206.397 3.21383 205.846 2.63351C205.26 2.01796 204.675 1.32637 203.986 0.824583C202.963 0.0798399 201.599 -0.0128259 200.376 0.0203235C197.089 0.109458 193.839 0.705074 190.646 1.45455C183.653 3.09631 176.666 4.74095 169.456 5.02352C165.907 5.16265 162.334 4.98744 158.837 4.33691C155.411 3.69947 152.161 2.43601 148.774 1.65051C145.633 0.922141 141.647 0.441583 138.854 2.45802C137.698 3.29281 136.942 4.49998 136.877 5.94193C136.818 7.24911 137.348 8.54525 138.453 9.28265L138.927 8.47189C137.082 7.56377 135.022 7.16742 132.973 7.42129C131.311 7.62729 129.549 8.28157 128.574 9.72144C127.731 10.967 127.778 12.6247 128.738 13.782C129.677 14.9159 131.143 15.4963 132.48 16.0141L132.73 15.1087C131.623 14.7787 130.466 15.2798 129.839 16.2278C129.219 17.1663 129.167 18.3721 129.434 19.4363C129.704 20.5101 130.303 21.5814 131.213 22.2381C132.18 22.9363 133.417 23.2674 134.572 23.4894C135.177 23.6057 135.711 23.6995 136.32 23.5984C137.054 23.4766 137.78 23.313 138.497 23.114C139.875 22.7314 141.214 22.2241 142.523 21.6517C145.261 20.4552 147.861 18.9645 150.478 17.5323C153.612 15.8177 156.746 14.103 159.88 12.3884L159.19 11.8582C158.246 16.9204 161.394 21.6195 165.554 24.2365C167.859 25.6872 170.393 26.3031 173.049 26.757C175.71 27.2119 178.577 27.6063 180.79 29.2864C183.369 31.2457 184.442 34.5181 185.404 37.4733C185.592 38.0501 186.433 37.8152 186.311 37.2237C185.451 33.0722 188.893 28.8643 193.065 28.6113C197.431 28.3464 201.29 31.5878 202.096 35.8098C202.594 38.4168 202 41.1647 200.588 43.3956C200.461 43.596 200.532 43.9327 200.756 44.0379C211.127 48.8949 222.824 49.0899 233.594 52.6524C235.108 53.1534 236.602 53.7209 238.055 54.3818C239.619 55.0938 241.104 55.954 242.631 56.7392C242.9 56.8774 243.235 56.7623 243.321 56.4586C243.942 54.2692 244.562 52.0798 245.182 49.8905C245.46 48.9103 245.737 47.9301 246.015 46.9499C246.157 46.4487 246.369 45.9241 246.451 45.4088C246.523 44.9601 246.144 44.7132 245.858 44.4146C245.161 43.6881 244.464 42.9615 243.768 42.235C242.481 40.8936 241.195 39.5523 239.908 38.211C237.268 35.4576 234.627 32.7042 231.987 29.9508C229.021 26.8579 226.055 23.7651 223.089 20.6723C222.669 20.2351 222.005 20.8996 222.424 21.3361C228.459 27.6295 234.495 33.9229 240.53 40.2162C242.245 42.0047 243.96 43.7931 245.676 45.5815L245.555 45.1248C244.508 48.8195 243.462 52.5142 242.415 56.209L243.106 55.9284C240.538 54.6089 238.047 53.2568 235.327 52.2627C232.672 51.2924 229.937 50.5581 227.183 49.9323C221.618 48.668 215.959 47.8438 210.429 46.4235C207.28 45.6149 204.178 44.6073 201.231 43.2271L201.399 43.8694C204.103 39.5996 203.845 33.4891 199.87 30.0713C196.276 26.9821 190.725 26.7364 187.442 30.4162C185.731 32.3345 184.878 34.9313 185.404 37.4733L186.311 37.2237C185.493 34.7128 184.62 32.1321 182.923 30.0596C181.191 27.9437 178.701 26.9225 176.088 26.3613C173.441 25.7929 170.674 25.6117 168.158 24.5455C165.826 23.557 163.704 21.9497 162.178 19.923C160.495 17.6878 159.575 14.9005 160.096 12.1077C160.171 11.7103 159.784 11.3707 159.406 11.5775C154.688 14.1586 150.006 16.8229 145.235 19.3034C142.962 20.4849 140.622 21.5602 138.144 22.2371C137.597 22.3863 137.046 22.5149 136.489 22.6191C135.85 22.7386 135.365 22.6915 134.73 22.5657C133.69 22.3598 132.503 22.0794 131.657 21.4029C130.786 20.7062 130.252 19.4664 130.218 18.3652C130.18 17.1236 131.022 15.5792 132.48 16.0141C133.071 16.1904 133.282 15.3226 132.73 15.1087C131.639 14.6861 130.455 14.2182 129.623 13.3655C128.723 12.4436 128.695 11.0637 129.491 10.0531C130.396 8.904 131.977 8.43887 133.377 8.31687C135.126 8.16449 136.88 8.50879 138.453 9.28265C138.995 9.54977 139.432 8.80916 138.927 8.47189C137.92 7.79997 137.636 6.43416 137.906 5.31099C138.225 3.98504 139.354 3.07266 140.576 2.58182C143.406 1.44521 146.723 2.06666 149.566 2.81475C152.799 3.66528 155.932 4.79731 159.238 5.35789C162.502 5.91121 165.819 6.08547 169.125 5.97435C175.861 5.74799 182.49 4.38898 189.021 2.80939C192.294 2.01749 195.533 1.33387 198.895 1.05303C200.136 0.94936 201.482 0.805311 202.685 1.20768C203.342 1.42708 203.787 1.88004 204.268 2.3599C204.861 2.95069 205.433 3.56117 206.003 4.17388C211.393 9.97087 216.945 15.6231 222.424 21.3361C222.843 21.7733 223.507 21.1088 223.089 20.6723Z" fill="#662D91"/>
<path d="M195.332 34.908C194.041 35.6235 193.058 36.8784 192.694 38.3105C192.584 38.7458 192.521 39.2208 192.728 39.6386C192.907 39.9996 193.302 40.259 193.71 40.237C194.584 40.1897 194.79 38.9169 193.949 38.6366C193.374 38.445 193.127 39.3515 193.699 39.542C193.585 39.5038 193.612 39.4787 193.56 39.4131L193.555 39.3734C193.554 39.4236 193.554 39.432 193.556 39.3987C193.541 39.3661 193.595 39.328 193.55 39.388C193.57 39.3479 193.598 39.321 193.635 39.3071C193.64 39.3046 193.646 39.3025 193.652 39.3008C193.652 39.3036 193.584 39.2539 193.565 39.2245C193.528 39.1652 193.529 39.0576 193.529 38.9897C193.535 38.5477 193.73 38.0675 193.927 37.6773C194.346 36.8488 194.994 36.169 195.806 35.7187C196.335 35.4254 195.862 34.6142 195.332 34.908Z" fill="#662D91"/>
</svg>
