<svg width="101" height="100" viewBox="0 0 101 100" fill="none" xmlns="http://www.w3.org/2000/svg">
<path d="M62.2227 11.9675C63.6421 10.8911 65.6144 10.5895 67.2906 11.1925C68.5911 11.6604 69.8017 12.6435 71.1743 12.4819C72.0939 12.3737 72.862 11.7654 73.6692 11.3117C74.4763 10.858 75.5199 10.5592 76.2964 11.0637C76.8958 11.4531 77.1498 12.2575 76.9893 12.954C76.8288 13.6505 76.3088 14.229 75.6835 14.5753C76.4491 14.5262 77.1127 15.3178 77.0337 16.0809C76.9547 16.844 76.253 17.4578 75.4919 17.554C75.8721 17.8417 76.0026 18.381 75.8933 18.8451C75.784 19.3092 75.4717 19.703 75.1089 20.0124C73.8885 21.053 72.076 21.2225 70.5641 20.6871C69.0522 20.1518 67.8215 18.9981 66.9134 17.676C66.8135 17.5306 66.7155 17.3796 66.6687 17.2095" fill="#3B1954"/>
<path d="M62.3377 12.1627C63.3228 11.424 64.5452 11.0582 65.7743 11.1189C66.3848 11.1491 66.9811 11.2943 67.5432 11.5329C68.1393 11.7859 68.7031 12.1083 69.3005 12.3587C69.8562 12.5916 70.4551 12.7643 71.0637 12.7187C71.7123 12.6701 72.299 12.3918 72.8518 12.0662C73.394 11.7467 73.9147 11.3768 74.5173 11.1773C75.0705 10.9941 75.7222 10.9274 76.2225 11.286C76.7119 11.6368 76.901 12.321 76.7707 12.8927C76.6222 13.5444 76.1382 14.0567 75.5693 14.3783C75.3773 14.4868 75.4568 14.8109 75.6839 14.8015C76.3442 14.774 76.8821 15.4391 76.807 16.0799C76.7266 16.766 76.0777 17.2429 75.4319 17.334C75.2695 17.3569 75.2059 17.6133 75.3317 17.7136C75.625 17.9475 75.7455 18.3185 75.6939 18.6868C75.6384 19.0829 75.3916 19.4293 75.112 19.7021C74.5515 20.2489 73.8067 20.5702 73.0408 20.6976C71.451 20.9621 69.8734 20.3389 68.6733 19.315C68.3253 19.0181 68.0037 18.6909 67.7073 18.3427C67.5536 18.1621 67.4071 17.9759 67.2678 17.784C67.1245 17.5866 66.9613 17.3834 66.888 17.1481C66.8014 16.8699 66.3628 16.9887 66.45 17.2689C66.5872 17.7095 66.9259 18.0972 67.2109 18.452C67.5033 18.8159 67.8216 19.1595 68.1673 19.4734C68.8423 20.0864 69.6181 20.5868 70.4784 20.8959C72.1143 21.4836 74.1512 21.2736 75.4332 20.0233C75.8052 19.6605 76.0953 19.1983 76.1497 18.6733C76.1985 18.2019 76.0295 17.6927 75.6529 17.3924L75.5527 17.772C76.4183 17.6499 77.2103 16.9307 77.2652 16.0322C77.318 15.1672 76.5679 14.3105 75.6839 14.3472L75.7985 14.7705C76.8897 14.1536 77.623 12.869 77.0706 11.6426C76.8134 11.0715 76.2867 10.6832 75.6677 10.5964C75.005 10.5034 74.3353 10.7142 73.7489 11.011C73.1404 11.319 72.5947 11.7399 71.9704 12.0189C71.3477 12.2973 70.7009 12.3334 70.0472 12.1461C69.3938 11.959 68.7976 11.6208 68.1874 11.3296C67.5817 11.0405 66.9631 10.8081 66.2953 10.7152C64.8305 10.5115 63.2953 10.8804 62.1084 11.7704C61.8773 11.9437 62.1035 12.3383 62.3377 12.1627Z" fill="#3B1954"/>
<path d="M74.4478 86.29C71.8758 86.2782 69.3039 86.2695 66.7319 86.2611C60.6819 86.2413 54.6318 86.225 48.5818 86.2065C45.8606 86.1982 43.1395 86.1895 40.4184 86.1792C39.2851 86.1749 38.0559 86.2983 36.9416 86.1224C35.7002 85.9264 34.3662 85.4992 33.3043 84.8116C32.5113 84.2982 31.4355 83.896 30.8311 83.1554C30.0497 82.1979 30.0974 80.6974 30.8551 79.721C31.6128 78.7446 32.9713 78.3191 34.1802 78.5763C36.1703 78.9998 37.7287 80.6457 39.8393 80.6947C45.7104 80.8308 51.5964 80.7354 57.4691 80.7532C63.1286 80.7705 68.7882 80.7858 74.4478 80.8118C76.3707 80.8206 78.4484 81.0227 80.3484 80.7194C82.1207 80.4364 83.4737 79.8927 85.0211 78.9659C86.0915 78.3247 87.2958 77.6865 88.5742 77.6662C89.6944 77.6485 90.637 78.679 90.9801 79.6942C91.8665 82.3175 89.2006 84.2078 87.1067 85.0959C83.1938 86.7556 78.6003 86.3091 74.4478 86.29Z" fill="#FFDE17"/>
<path d="M74.4484 86.0625C69.793 86.0412 65.1376 86.0281 60.4822 86.0142C55.8153 86.0003 51.1484 85.9872 46.4815 85.9725C44.1653 85.9652 41.8414 85.9017 39.5261 85.9666C38.4394 85.997 37.3766 86.009 36.3094 85.771C35.3082 85.5477 34.3319 85.1904 33.4617 84.642C32.7157 84.1719 31.8399 83.8397 31.1999 83.219C30.5638 82.6021 30.363 81.6703 30.575 80.8226C30.7978 79.9315 31.4707 79.2471 32.3262 78.9338C33.1853 78.6191 34.0579 78.7133 34.9014 79.025C36.5534 79.6354 37.9651 80.8488 39.7928 80.9198C42.1232 81.0104 44.4628 80.9928 46.7946 80.9956C51.4491 81.0012 56.1033 80.9759 60.7578 80.9899C65.3937 81.0037 70.0311 80.9872 74.6667 81.0403C76.8119 81.0649 78.962 81.2608 81.0806 80.8141C82.0147 80.6171 82.918 80.3061 83.7796 79.8956C84.6929 79.4606 85.5263 78.8796 86.4424 78.4511C87.2972 78.0512 88.4694 77.6269 89.3781 78.0843C90.1779 78.4869 90.7165 79.3443 90.8813 80.207C91.1909 81.828 89.9528 83.1539 88.7071 83.9832C85.4192 86.1723 81.218 86.1846 77.4164 86.1135C76.4271 86.095 75.4379 86.0679 74.4484 86.0625C74.156 86.0609 74.1557 86.5151 74.4483 86.5167C78.6284 86.5394 83.0556 86.9986 87.023 85.3747C88.4503 84.7905 89.9155 83.9271 90.7827 82.6127C91.7068 81.212 91.5085 79.3679 90.295 78.1933C89.5973 77.5179 88.7674 77.3476 87.8296 77.5149C86.7944 77.6997 85.846 78.211 84.9518 78.7427C84.0639 79.2706 83.1463 79.7391 82.1611 80.0578C81.1311 80.3909 80.0593 80.5741 78.9793 80.6312C77.8372 80.6917 76.6932 80.6381 75.5511 80.6052C74.3869 80.5717 73.2216 80.5787 72.057 80.5739C69.6258 80.5639 67.1945 80.5556 64.7633 80.5479C59.9334 80.5326 55.1038 80.523 50.2739 80.5371C47.8347 80.5442 45.3955 80.5466 42.9564 80.5196C42.357 80.513 41.7575 80.5046 41.1581 80.494C40.598 80.4842 40.0246 80.5057 39.4676 80.442C38.5248 80.334 37.6645 79.8891 36.8377 79.4522C36.0353 79.0282 35.2215 78.5825 34.33 78.3767C33.4755 78.1795 32.5726 78.2814 31.7878 78.6755C30.2436 79.451 29.5245 81.4627 30.439 82.9892C30.9092 83.7742 31.7591 84.2008 32.534 84.6251C32.9482 84.8519 33.3392 85.1183 33.7574 85.3373C34.2167 85.578 34.7001 85.7755 35.1928 85.9365C36.1918 86.2629 37.2249 86.4359 38.2757 86.4436C39.4498 86.4523 40.6248 86.4068 41.7995 86.411C46.6648 86.4285 51.5301 86.4422 56.3954 86.4564C61.2458 86.4705 66.0962 86.4842 70.9465 86.5023C72.1138 86.5067 73.2811 86.5114 74.4483 86.5167C74.7407 86.5181 74.7411 86.0638 74.4484 86.0625Z" fill="#3B1954"/>
<path d="M55.1914 44.8386C59.5055 54.0146 61.7415 73.8715 62.429 81.668C62.6056 83.6701 63.6423 84.1622 65.5039 84.3958C68.2565 84.7412 71.0392 84.6184 73.798 84.4209C74.7994 84.3492 75.8004 84.3068 76.4326 83.3879C77.0436 82.4996 76.5453 81.2875 75.8681 80.5931C75.1489 79.8556 74.1896 79.3969 73.4295 78.7017C70.9109 76.3986 70.83 72.69 70.6578 69.5374C70.3104 63.1767 69.2607 56.7702 67.9605 50.5524C67.1388 46.6228 66.1649 42.6455 64.0798 39.2148" fill="#FFDE17"/>
<path d="M54.9965 44.9533C56.1043 47.3153 56.8761 49.8335 57.5476 52.3492C58.3391 55.3143 58.9679 58.3221 59.5178 61.3406C60.0763 64.4061 60.5494 67.4871 60.9639 70.5753C61.3176 73.2098 61.6286 75.8501 61.8995 78.4944C62.0031 79.505 62.1007 80.5163 62.1907 81.5282C62.247 82.161 62.3478 82.8151 62.7126 83.3526C63.0362 83.8293 63.5143 84.1346 64.0519 84.3222C64.794 84.5811 65.6076 84.6473 66.3845 84.7178C67.4698 84.8163 68.5603 84.8487 69.6498 84.8391C70.755 84.8294 71.8593 84.7764 72.9621 84.7053C73.7959 84.6515 74.7284 84.677 75.5193 84.3719C76.2765 84.0798 76.8755 83.4264 76.9329 82.5944C76.988 81.7972 76.5714 80.9923 76.0298 80.4326C75.3796 79.7605 74.5358 79.3286 73.819 78.7384C73.1741 78.2074 72.6502 77.5478 72.2533 76.8143C71.467 75.361 71.1895 73.6864 71.0449 72.0588C70.8767 70.1653 70.8262 68.2632 70.6573 66.3691C70.2698 62.0247 69.5981 57.709 68.7716 53.4278C68.0036 49.4496 67.2374 45.3857 65.5996 41.6566C65.2133 40.7773 64.7743 39.9221 64.2771 39.1003C64.1259 38.8505 63.733 39.0786 63.8848 39.3296C65.9303 42.7105 66.8955 46.586 67.7014 50.4164C68.5914 54.6462 69.3556 58.9068 69.8706 63.1995C70.1258 65.3268 70.3193 67.4616 70.4353 69.601C70.5224 71.2065 70.5878 72.8241 70.9247 74.4013C71.2576 75.9597 71.8931 77.4764 73.0246 78.6259C73.6657 79.2771 74.4619 79.7193 75.1754 80.2797C75.8207 80.7865 76.4188 81.4794 76.4783 82.3368C76.5388 83.2101 75.8734 83.8334 75.075 84.0359C74.7004 84.131 74.3138 84.1573 73.9298 84.1846C73.4162 84.2212 72.9026 84.2564 72.3886 84.2863C70.2431 84.4109 68.0846 84.4505 65.9446 84.22C64.748 84.0911 63.2971 83.9117 62.8463 82.604C62.6623 82.0704 62.6432 81.5012 62.5921 80.9439C62.5469 80.4525 62.5001 79.9612 62.4518 79.4701C62.2056 76.9694 61.9221 74.4724 61.6024 71.9801C61.2195 68.9947 60.7856 66.0155 60.2785 63.0486C59.7614 60.0231 59.1716 57.0077 58.4439 54.0254C57.8029 51.3983 57.0666 48.7778 56.0568 46.266C55.8479 45.7462 55.6265 45.2313 55.3887 44.7241C55.2646 44.4596 54.8729 44.69 54.9965 44.9533Z" fill="#3B1954"/>
<path d="M62.4286 81.6674C62.6051 83.6695 63.6419 84.1616 65.5035 84.3952C68.2561 84.7406 71.0388 84.6178 73.7976 84.4203C74.799 84.3486 75.8 84.3062 76.4321 83.3872C77.0432 82.499 76.5449 81.2869 75.8676 80.5924C75.1484 79.855 74.1892 79.3962 73.429 78.7011C72.9778 78.2884 72.5925 77.8318 72.3413 77.2719C72.0922 76.7168 72.0044 76.0615 71.5635 75.6103C70.9391 74.9713 69.8003 75.0825 69.1423 75.6867C68.7357 76.06 68.489 76.5726 68.3692 77.1056C68.3094 77.3717 68.2808 77.6441 68.2764 77.9166C68.2734 78.0979 68.3086 78.5007 68.1624 78.633C68.1205 78.6708 68.0648 78.6889 68.0105 78.7042C67.5637 78.8306 67.0937 78.8438 66.6293 78.8504C65.3808 78.8681 64.1393 78.9427 62.9054 79.0002C62.0603 79.0396 62.3775 81.0884 62.4286 81.6674Z" fill="#FFDE17"/>
<path d="M62.2029 81.6679C62.2536 82.217 62.3622 82.7768 62.6504 83.2553C62.8863 83.6469 63.236 83.954 63.6458 84.154C64.1104 84.3806 64.619 84.4937 65.1272 84.571C65.9423 84.6948 66.7679 84.761 67.591 84.8011C69.357 84.8871 71.1266 84.8223 72.8898 84.7097C74.1996 84.6262 75.8554 84.713 76.6588 83.4585C77.0269 82.8837 76.9934 82.1558 76.7477 81.5414C76.479 80.8699 76.0054 80.3536 75.4406 79.9147C74.8343 79.4435 74.1599 79.0598 73.5911 78.541C73.0437 78.0419 72.6334 77.4724 72.3929 76.7692C72.1779 76.1408 71.9467 75.4627 71.3088 75.1463C70.7398 74.8642 70.0644 74.9108 69.4993 75.1775C68.8618 75.4784 68.4413 76.0996 68.2307 76.7554C68.1111 77.1277 68.0546 77.5265 68.0507 77.9172C68.0494 78.0425 68.0585 78.1686 68.0473 78.2937C68.0433 78.3379 68.046 78.4235 68.0151 78.4583C67.9738 78.5048 67.825 78.519 67.7676 78.5314C67.3612 78.6193 66.9424 78.6185 66.5286 78.6254C66.0868 78.6327 65.6452 78.647 65.2037 78.6648C64.7526 78.6831 64.3015 78.7052 63.8505 78.7276C63.6482 78.7377 63.4459 78.7478 63.2435 78.7576C63.082 78.7654 62.9051 78.7529 62.7477 78.7966C62.3236 78.9146 62.1861 79.3793 62.1353 79.7664C62.0736 80.2364 62.1068 80.7147 62.153 81.1847C62.1688 81.3458 62.1883 81.5066 62.2029 81.6679C62.229 81.9567 62.6835 81.9594 62.6571 81.6679C62.6236 81.2974 62.5762 80.929 62.5618 80.5569C62.5476 80.1888 62.524 79.7128 62.703 79.3882C62.7294 79.3404 62.7769 79.2839 62.7956 79.2693C62.8538 79.2238 62.9032 79.2281 63.0078 79.2231C63.4239 79.2035 63.8399 79.1821 64.2559 79.1619C65.0896 79.1215 65.923 79.0921 66.7575 79.076C67.136 79.0687 67.5173 79.0496 67.8883 78.9694C68.0484 78.9349 68.2307 78.897 68.346 78.7711C68.4413 78.667 68.4744 78.5253 68.4915 78.3895C68.5295 78.0874 68.4959 77.7814 68.5342 77.478C68.5778 77.1327 68.6735 76.7857 68.8333 76.4757C69.1185 75.9224 69.6041 75.508 70.2333 75.4221C70.825 75.3414 71.3581 75.5812 71.6477 76.1089C71.8083 76.4017 71.8945 76.7275 72.0073 77.04C72.1205 77.3536 72.2633 77.6537 72.4505 77.9303C72.8487 78.5187 73.3803 78.9934 73.9518 79.4086C74.9766 80.1533 76.3827 80.9097 76.4783 82.3398C76.5208 82.975 76.1704 83.5272 75.6191 83.8298C75.1064 84.1112 74.4951 84.1443 73.9242 84.1849C72.2879 84.301 70.6492 84.3972 69.0081 84.3854C68.1755 84.3794 67.3428 84.3461 66.5132 84.2748C65.869 84.2195 65.2156 84.1596 64.586 84.0051C64.182 83.906 63.7704 83.762 63.4455 83.4935C63.1185 83.2233 62.9138 82.8537 62.7974 82.45C62.7238 82.1945 62.6816 81.9323 62.6571 81.6679C62.6305 81.3793 62.176 81.3765 62.2029 81.6679Z" fill="#3B1954"/>
<path d="M63.1236 82.4498C62.9788 82.4408 62.7688 82.4068 62.543 82.3813C62.892 83.7947 63.8863 84.1934 65.5035 84.3963C68.2561 84.7417 71.0388 84.6189 73.7976 84.4214C74.799 84.3497 75.8 84.3073 76.4321 83.3883C77.0432 82.5001 76.5449 81.288 75.8676 80.5936C75.3516 80.0645 74.7122 79.6785 74.1113 79.2461C73.8388 79.5419 73.6527 79.9257 73.5149 80.309C73.3844 80.6722 73.2856 81.0468 73.2199 81.4271C73.1692 81.7212 73.136 82.0258 72.9983 82.2906C72.7824 82.7056 72.3376 82.8067 71.9076 82.8343C69.0098 83.02 66.0154 82.6306 63.1236 82.4498Z" fill="#3B1954"/>
<path d="M63.1223 82.2218C62.928 82.2071 62.7351 82.1759 62.5416 82.1533C62.3896 82.1355 62.29 82.3121 62.3226 82.4408C62.4489 82.9384 62.6783 83.4164 63.0647 83.7644C63.4431 84.1051 63.9207 84.304 64.409 84.4293C65.0928 84.6047 65.809 84.6684 66.5104 84.7287C67.3625 84.8019 68.2177 84.835 69.0728 84.8397C70.7491 84.8488 72.4253 84.7521 74.0963 84.6261C74.7085 84.5799 75.3452 84.5119 75.8869 84.1984C76.4553 83.8693 76.8659 83.2963 76.9266 82.6368C76.9942 81.9026 76.6481 81.1658 76.1893 80.6128C75.6535 79.9669 74.8987 79.532 74.2246 79.0491C74.1473 78.9937 74.0117 79.0149 73.9494 79.0846C73.3966 79.7022 73.1394 80.5645 72.9996 81.3658C72.938 81.7191 72.9183 82.1837 72.5991 82.4129C72.329 82.6069 71.96 82.605 71.6426 82.6216C69.819 82.7168 67.9924 82.5965 66.1745 82.4537C65.1573 82.3737 64.1406 82.286 63.1223 82.2218C62.8304 82.2034 62.8315 82.6577 63.1223 82.676C64.988 82.7937 66.8483 82.9908 68.7163 83.0726C69.6471 83.1134 70.5798 83.1256 71.5106 83.0823C71.8907 83.0646 72.2861 83.0596 72.6406 82.9052C72.9907 82.7529 73.2053 82.4623 73.3148 82.1023C73.3821 81.881 73.4075 81.6501 73.4489 81.4232C73.4951 81.1701 73.556 80.9197 73.6312 80.6737C73.7698 80.2204 73.9505 79.7634 74.2706 79.4058L73.9953 79.4413C75.0024 80.1628 76.3157 80.894 76.469 82.2648C76.5359 82.8627 76.2599 83.4129 75.7587 83.7435C75.2901 84.0528 74.7183 84.1228 74.1711 84.1661C72.633 84.2877 71.0887 84.3753 69.5456 84.3852C68.0431 84.3948 66.5035 84.3577 65.0205 84.0958C64.5033 84.0045 63.9739 83.8714 63.5383 83.5654C63.1165 83.2691 62.8847 82.8087 62.7607 82.3201L62.5417 82.6075C62.7351 82.6302 62.928 82.6613 63.1223 82.676C63.4139 82.6981 63.4124 82.2438 63.1223 82.2218Z" fill="#3B1954"/>
<path d="M48.8159 58.791C48.5665 61.7822 48.2883 64.8728 46.8507 67.5076C45.5601 69.8732 43.5539 72.0216 41.9335 74.1791C40.5576 76.0111 39.1591 77.8265 37.7317 79.6188C36.4796 81.191 36.8915 82.2621 38.0791 83.7145C39.8352 85.8622 41.9358 87.6913 44.0707 89.4499C44.8456 90.0882 45.5999 90.7475 46.6914 90.5175C47.7464 90.2952 48.2209 89.0736 48.2089 88.1036C48.1962 87.0736 47.8175 86.0801 47.7459 85.0525C47.5088 81.6479 50.0066 78.9054 52.055 76.5027C54.2234 73.9592 56.924 71.3841 57.979 68.1097C58.5671 66.2839 58.6166 64.3239 58.447 62.4133" fill="#FFDE17"/>
<path d="M48.5858 58.7901C48.3813 61.2415 48.1662 63.7423 47.2706 66.0563C46.3702 68.3826 44.7031 70.3349 43.1559 72.2542C41.4814 74.3314 39.9102 76.4901 38.2586 78.5857C37.5719 79.4571 36.6366 80.3954 36.7473 81.6004C36.85 82.7194 37.7001 83.6429 38.4027 84.4522C40.0791 86.383 42.0218 88.0548 43.99 89.678C44.406 90.0211 44.8282 90.3754 45.328 90.5901C45.8207 90.8017 46.3837 90.8596 46.9005 90.6954C47.7998 90.4098 48.2785 89.4783 48.3991 88.5972C48.5685 87.3593 48.0277 86.1665 47.9633 84.9414C47.9066 83.8643 48.1375 82.7958 48.5638 81.8088C49.4282 79.8078 50.9312 78.1523 52.3362 76.518C53.8285 74.782 55.4418 73.1336 56.7006 71.2115C57.3209 70.2643 57.8471 69.2489 58.1949 68.1692C58.5929 66.9338 58.748 65.6271 58.7558 64.3327C58.7597 63.6916 58.7269 63.051 58.6711 62.4125C58.6458 62.1235 58.1913 62.1208 58.2168 62.4125C58.3283 63.6861 58.3516 64.9794 58.1684 66.2479C57.9975 67.4309 57.6396 68.5696 57.096 69.634C56.0689 71.645 54.542 73.3393 53.0531 75.015C52.3384 75.8195 51.6337 76.6327 50.9414 77.4566C50.2492 78.2805 49.5748 79.1253 48.999 80.0359C48.4301 80.9353 47.9546 81.9107 47.7026 82.9487C47.5769 83.4661 47.5062 83.9997 47.5005 84.5323C47.494 85.148 47.5934 85.7511 47.7181 86.3522C47.9294 87.3709 48.1832 88.4629 47.6718 89.4367C47.4792 89.8033 47.1837 90.1284 46.7797 90.2574C46.2821 90.4164 45.7577 90.3218 45.3065 90.0766C44.8319 89.8187 44.424 89.4507 44.01 89.1083C43.5251 88.7071 43.043 88.3023 42.5669 87.8906C41.6149 87.0673 40.6862 86.2157 39.8097 85.312C39.3716 84.8603 38.9467 84.3957 38.5393 83.9161C38.1613 83.471 37.7827 83.0159 37.5037 82.5002C37.2876 82.1007 37.1501 81.6571 37.2048 81.1992C37.2694 80.6575 37.579 80.1707 37.9103 79.7521C38.7449 78.6978 39.5753 77.6402 40.3945 76.5738C41.1901 75.5381 41.9617 74.4833 42.771 73.4583C44.2799 71.5473 45.932 69.7005 47.0868 67.5417C48.2337 65.3978 48.6371 62.9661 48.8797 60.5742C48.94 59.9801 48.9904 59.3851 49.04 58.7901C49.0643 58.4988 48.61 58.5004 48.5858 58.7901Z" fill="#3B1954"/>
<path d="M37.7317 79.6195C36.4796 81.1917 36.8915 82.2628 38.0791 83.7152C39.8352 85.8629 41.9359 87.692 44.0707 89.4506C44.8456 90.0889 45.6 90.7482 46.6914 90.5182C47.7464 90.2959 48.2209 89.0743 48.2089 88.1043C48.1962 87.0743 47.8175 86.0808 47.7459 85.0532C47.7034 84.4432 47.7391 83.8467 47.9431 83.268C48.1453 82.6941 48.5333 82.1589 48.5249 81.528C48.513 80.6347 47.6114 79.9304 46.7181 79.9145C46.1663 79.9046 45.6342 80.1059 45.1801 80.4095C44.9533 80.5611 44.7448 80.7387 44.5537 80.9331C44.4266 81.0624 44.1745 81.3785 43.9773 81.3735C43.9209 81.3721 43.8681 81.3467 43.8182 81.3205C43.4074 81.104 43.0578 80.7896 42.7169 80.4743C41.8001 79.6265 40.8492 78.8247 39.9157 78.0159C39.2763 77.4619 38.0939 79.1648 37.7317 79.6195Z" fill="#FFDE17"/>
<path d="M37.5718 79.4583C37.1466 79.9983 36.7819 80.6093 36.745 81.3125C36.7137 81.9094 36.9492 82.4808 37.2598 82.9783C37.6661 83.629 38.1872 84.2141 38.6979 84.7836C39.223 85.3689 39.7728 85.9319 40.3392 86.4774C41.4729 87.5692 42.6724 88.5897 43.8864 89.5906C44.391 90.0066 44.8996 90.4504 45.5271 90.6682C46.1183 90.8734 46.838 90.8348 47.3637 90.4752C47.8233 90.1609 48.1199 89.6677 48.2838 89.1434C48.4815 88.511 48.4538 87.8605 48.351 87.2131C48.2247 86.4176 47.9915 85.6415 47.9619 84.8323C47.9479 84.4488 47.9685 84.0637 48.0569 83.6892C48.1425 83.3266 48.301 82.9999 48.453 82.6623C48.7304 82.0462 48.888 81.3925 48.5488 80.7656C48.2615 80.2346 47.6994 79.852 47.1127 79.7321C46.4004 79.5866 45.6596 79.8163 45.066 80.2128C44.7874 80.399 44.535 80.6204 44.3065 80.865C44.2329 80.9438 44.1266 81.0953 44.0187 81.1278C43.9027 81.1627 43.7209 81.0025 43.6235 80.9361C43.3 80.7156 43.0182 80.4409 42.7304 80.1772C42.4187 79.8916 42.1029 79.6106 41.7849 79.332C41.4764 79.0616 41.1658 78.7936 40.855 78.5258C40.7042 78.3959 40.5533 78.2661 40.4026 78.1361C40.2678 78.0199 40.1372 77.8837 39.988 77.7859C39.6077 77.5366 39.1668 77.7726 38.8545 78.0176C38.4812 78.3106 38.174 78.6836 37.8829 79.0557C37.7779 79.1899 37.6559 79.3521 37.5718 79.4583C37.3921 79.685 37.7114 80.0086 37.893 79.7795C38.1305 79.4798 38.3561 79.1718 38.6104 78.8856C38.8547 78.6106 39.1613 78.2484 39.5308 78.147C39.5905 78.1306 39.6355 78.1281 39.6756 78.1381C39.7566 78.1585 39.8219 78.2333 39.9059 78.3059C40.2071 78.5662 40.5092 78.8255 40.8105 79.0857C41.3995 79.5942 41.9848 80.1068 42.5569 80.6343C42.8234 80.8801 43.094 81.1238 43.3942 81.3283C43.6445 81.4988 43.9294 81.6919 44.2302 81.5304C44.4735 81.3997 44.6424 81.1567 44.8402 80.9706C45.0894 80.736 45.3682 80.5361 45.676 80.3853C46.2428 80.1077 46.9117 80.0398 47.4811 80.3444C47.9628 80.6021 48.3307 81.0751 48.2957 81.6411C48.2757 81.9646 48.1361 82.2713 48.002 82.5612C47.8594 82.8696 47.7176 83.1774 47.6337 83.508C47.4505 84.2308 47.4814 84.9895 47.601 85.7197C47.8017 86.9452 48.2998 88.2753 47.6652 89.4572C47.422 89.9102 47.0359 90.2457 46.516 90.3199C45.8952 90.4086 45.343 90.1405 44.8535 89.785C44.293 89.378 43.7699 88.9105 43.2409 88.4641C42.6715 87.9835 42.1084 87.4954 41.557 86.9942C40.4707 86.007 39.4285 84.9679 38.4819 83.845C38.0593 83.3436 37.6126 82.8148 37.3624 82.2007C37.1567 81.6957 37.1469 81.1703 37.3532 80.6635C37.4832 80.3441 37.6806 80.0493 37.893 79.7795C38.0718 79.5523 37.7525 79.2287 37.5718 79.4583Z" fill="#3B1954"/>
<path d="M37.6962 80.6628C37.5975 80.5564 37.4688 80.387 37.3227 80.2129C36.6013 81.4775 37.0469 82.4517 38.0786 83.7134C39.8347 85.861 41.9353 87.6902 44.0701 89.4488C44.8451 90.0871 45.5994 90.7464 46.6909 90.5163C47.7458 90.294 48.2203 89.0724 48.2084 88.1025C48.1993 87.3635 48.0021 86.6432 47.8648 85.9156C47.4635 85.9421 47.064 86.0919 46.7 86.2747C46.3551 86.4478 46.0254 86.651 45.7157 86.8813C45.4761 87.0594 45.2422 87.2572 44.9598 87.3541C44.5173 87.506 44.1254 87.2726 43.795 86.9962C41.5676 85.1333 39.6665 82.7871 37.6962 80.6628Z" fill="#3B1954"/>
<path d="M37.8561 80.503C37.7255 80.3584 37.6073 80.2029 37.4827 80.0531C37.3889 79.9404 37.1924 79.9803 37.126 80.0991C36.8091 80.6654 36.6566 81.2896 36.8006 81.9322C36.9512 82.6042 37.3715 83.1884 37.7915 83.7185C38.7635 84.9456 39.8743 86.0651 41.0249 87.1238C41.5964 87.6496 42.1814 88.1606 42.7737 88.6628C43.3335 89.1375 43.8919 89.6196 44.4747 90.0661C44.9836 90.456 45.5583 90.778 46.2153 90.7905C46.8136 90.8019 47.3804 90.5706 47.7671 90.1094C48.1688 89.6304 48.3721 89.0133 48.4241 88.3963C48.496 87.5421 48.2419 86.687 48.0831 85.8561C48.0658 85.7655 47.9568 85.6818 47.8641 85.6893C47.0167 85.7581 46.2231 86.219 45.5555 86.7196C45.2611 86.9404 44.9214 87.2483 44.524 87.1577C44.1369 87.0695 43.8198 86.7265 43.5323 86.474C42.2081 85.3106 41.0147 84.0087 39.839 82.6985C39.1803 81.9645 38.5264 81.2263 37.8561 80.503C37.657 80.2881 37.3364 80.6099 37.5349 80.8242C38.7668 82.1537 39.9434 83.5338 41.1959 84.8442C41.8136 85.4903 42.4495 86.1196 43.1182 86.7131C43.427 86.9872 43.7437 87.3088 44.1199 87.4892C44.5071 87.6748 44.8987 87.6626 45.2773 87.4613C45.6886 87.2427 46.0358 86.9111 46.4392 86.675C46.8754 86.4198 47.3531 86.185 47.8641 86.1436L47.6451 85.9768C47.8697 87.1521 48.2714 88.4411 47.6095 89.5518C47.3498 89.9877 46.9458 90.2812 46.4335 90.3286C45.8302 90.3843 45.3041 90.1162 44.8305 89.769C44.2871 89.3706 43.7779 88.918 43.2631 88.4839C42.7176 88.0238 42.1779 87.5569 41.6485 87.0783C40.5907 86.1221 39.5735 85.1181 38.6435 84.0364C38.1609 83.4751 37.6319 82.8815 37.3546 82.1847C37.1001 81.545 37.1861 80.922 37.5182 80.3284L37.1615 80.3743C37.2861 80.5241 37.4043 80.6796 37.5349 80.8242C37.7313 81.0416 38.0518 80.7195 37.8561 80.503Z" fill="#3B1954"/>
<path d="M63.8906 38.1943C65.2443 41.35 66.9696 44.3462 69.0193 47.1011C70.847 49.5577 73.1058 51.9317 76.0671 52.7102C78.8321 53.4371 81.8847 52.6016 84.1157 50.8138C86.4171 48.9697 87.7379 46.3467 88.3918 43.5336C89.1462 40.2886 89.933 37.0872 90.5586 33.8034C90.6454 33.3475 90.7375 32.8782 90.993 32.4908C91.21 32.1617 91.5289 31.9162 91.8102 31.6401C92.943 30.5284 93.8696 28.3081 92.7969 26.8763C92.2307 26.1205 91.2796 25.769 90.3638 25.5382C89.6684 25.3629 88.9547 25.2341 88.2379 25.2564C87.8636 25.268 87.485 25.3226 87.1442 25.4778C86.7011 25.6797 86.5769 26.0178 86.2817 26.3426C85.9897 26.0959 85.5941 25.9797 85.2153 26.036C84.8355 26.0923 84.4847 26.3208 84.2797 26.6453C84.1155 26.9053 84.0458 27.2133 84.0002 27.5174C83.8855 28.282 83.9065 29.057 83.9028 29.8276C83.8996 30.4977 83.9642 31.3152 83.6311 31.9129C83.333 32.4479 83.1374 33.0614 82.9111 33.6299C82.4375 34.8195 81.9851 36.0175 81.5329 37.2154C81.0805 38.4137 80.6287 39.6122 80.1565 40.8028C79.92 41.3989 79.6787 41.9929 79.4297 42.5838C79.3 42.8914 79.1684 43.1982 79.0343 43.5039C78.9859 43.6142 78.6442 44.1874 78.6882 44.2787C78.0472 42.9499 77.4049 41.6186 76.6372 40.3587C75.2607 38.0996 73.4513 35.9975 72.907 33.4087" fill="#FFDE17"/>
<path d="M63.6965 38.3103C64.5813 40.3688 65.6208 42.3599 66.8075 44.2606C67.9227 46.0469 69.1466 47.8033 70.5767 49.354C71.8845 50.7722 73.4292 52.0236 75.2575 52.6943C77.1167 53.3763 79.173 53.3393 81.046 52.7273C82.9273 52.1127 84.5917 50.9472 85.8512 49.4247C87.0824 47.9364 87.9176 46.1623 88.4316 44.3074C88.7365 43.2071 88.967 42.0829 89.2277 40.9713C89.499 39.815 89.768 38.6581 90.0252 37.4985C90.2858 36.3239 90.5341 35.1466 90.7605 33.9649C90.8584 33.4536 90.9427 32.9053 91.2783 32.4872C91.5763 32.1158 91.9729 31.8366 92.2779 31.4696C93.345 30.186 94.078 28.0767 92.8938 26.6333C92.279 25.884 91.3049 25.5401 90.3946 25.3126C89.8379 25.1736 89.2694 25.0656 88.6955 25.0359C88.1368 25.007 87.5452 25.0425 87.0316 25.2831C86.6163 25.4777 86.4147 25.8548 86.1231 26.1834H86.4443C85.9283 25.7654 85.2236 25.6681 84.6364 26.0046C84.0169 26.3596 83.8358 27.0193 83.7526 27.6828C83.657 28.4446 83.6735 29.2199 83.678 29.9861C83.6817 30.622 83.7165 31.2762 83.4075 31.8535C83.0625 32.498 82.8377 33.2056 82.5699 33.8841C82.2813 34.6155 82 35.3497 81.7211 36.0848C81.1552 37.5763 80.5995 39.0718 80.0138 40.5558C79.6956 41.3623 79.3689 42.1655 79.0263 42.962C78.915 43.2209 78.7977 43.4689 78.6673 43.718C78.5781 43.8883 78.4116 44.1377 78.4712 44.3404L78.8863 44.1654C78.1361 42.6103 77.3739 41.0634 76.4362 39.6107C75.6114 38.333 74.7045 37.1019 74.0082 35.7459C73.6176 34.9852 73.3073 34.1873 73.128 33.3497C73.0669 33.064 72.6289 33.1849 72.69 33.4705C73.0133 34.9808 73.7615 36.3485 74.5885 37.6374C75.4615 38.998 76.3958 40.3101 77.1631 41.7363C77.6327 42.6092 78.0635 43.5021 78.4941 44.3947C78.6067 44.6282 78.9809 44.4637 78.9092 44.2197C78.9251 44.2738 78.8991 44.2929 78.9236 44.2354C78.9362 44.2058 78.9467 44.1758 78.96 44.1465C79.0058 44.0454 79.0589 43.9473 79.1114 43.8496C79.2211 43.6448 79.3133 43.4356 79.4053 43.2219C79.6934 42.5529 79.9715 41.8797 80.2424 41.2035C80.7972 39.8181 81.3219 38.421 81.849 37.0249C82.3684 35.6495 82.9009 34.2793 83.4311 32.9081C83.5545 32.589 83.6996 32.2872 83.854 31.9825C83.9958 31.7028 84.0648 31.4028 84.1015 31.093C84.1765 30.4589 84.1304 29.8051 84.1328 29.1678C84.1343 28.7601 84.1415 28.352 84.1784 27.9458C84.2112 27.5853 84.2498 27.1868 84.4205 26.861C84.7475 26.237 85.5718 26.0581 86.123 26.5045C86.2139 26.5781 86.3561 26.6039 86.4442 26.5045C86.7428 26.1681 86.9309 25.7872 87.3799 25.6287C87.8893 25.4488 88.4567 25.46 88.9874 25.5123C89.5294 25.5657 90.0676 25.687 90.5911 25.8346C91.0303 25.9585 91.4628 26.1136 91.856 26.3481C92.6192 26.8033 93.0599 27.5456 93.046 28.438C93.0329 29.2804 92.689 30.1053 92.2213 30.7945C91.9848 31.1431 91.7008 31.4394 91.392 31.7242C91.0065 32.0796 90.6992 32.4478 90.5303 32.9518C90.3623 33.453 90.2955 33.9912 90.1928 34.5084C90.079 35.082 89.9603 35.6547 89.8381 36.2267C89.3551 38.4858 88.8152 40.7321 88.2897 42.9816C88.0676 43.9322 87.8216 44.8694 87.4621 45.7789C87.1238 46.6347 86.6978 47.4584 86.185 48.2229C85.135 49.7882 83.6927 51.0759 81.9802 51.874C80.2739 52.6693 78.3021 52.9725 76.4517 52.5699C74.6049 52.1681 72.9976 51.0972 71.6509 49.803C70.2204 48.4283 69.0311 46.8109 67.9324 45.1657C66.7346 43.3723 65.669 41.4907 64.7469 39.5411C64.5186 39.0584 64.2995 38.5715 64.0887 38.081C63.9736 37.8132 63.5822 38.0443 63.6965 38.3103Z" fill="#3B1954"/>
<path d="M73.3182 39.7246C73.7971 39.0466 74.4339 38.3964 74.8845 37.6805C74.0146 36.3395 73.2334 34.9624 72.907 33.4102L63.8906 38.1957C65.2443 41.3514 66.9695 44.3476 69.0193 47.1026C69.5119 47.7647 70.0363 48.4206 70.5969 49.0411C70.6149 49.0181 70.6313 48.9937 70.6449 48.9669C70.7727 48.7153 70.6331 48.4187 70.532 48.1552C70.108 47.0501 70.3889 45.8061 70.7744 44.687C71.3819 42.9236 72.2423 41.2479 73.3182 39.7246Z" fill="#3B1954"/>
<path d="M56.9358 45.7921C61.3027 45.0009 66.4739 43.5747 69.9832 40.7711C73.299 38.1222 75.725 34.3087 76.4757 30.1111C76.6633 29.0619 76.7412 27.9938 76.7142 26.9285C76.3707 13.3579 61.0279 8.50012 49.6315 9.73922C44.8809 10.2558 40.1488 11.6869 35.4073 11.092C32.4981 10.727 29.7428 9.61314 26.9031 8.88306C24.0635 8.15297 20.9588 7.82819 18.2722 9.00243C16.1705 9.92101 13.7026 12.6969 15.7459 14.8936C14.7478 14.6471 13.7318 14.4209 12.7041 14.4462C11.6764 14.4714 10.6225 14.7718 9.86205 15.4636C8.80426 16.4258 8.48383 18.0424 8.88681 19.4144C9.28979 20.7864 10.3283 21.9121 11.5572 22.6432C10.6995 22.2884 9.66471 22.7968 9.18191 23.5896C8.69911 24.3824 8.66414 25.3714 8.78857 26.2912C8.99216 27.7964 9.62611 29.2259 10.5496 30.4269C11.2445 31.3307 12.493 33.225 13.6204 33.5197C12.3701 33.3905 11.3514 34.7429 11.4108 35.9985C11.4702 37.2542 12.2891 38.3436 13.1887 39.2216C15.5306 41.5073 18.5902 42.9189 21.6987 43.9417C27.3125 45.7888 33.3321 46.2996 39.2111 46.3487C45.1783 46.3985 50.9645 46.874 56.9358 45.7921Z" fill="#FFDE17"/>
<path d="M56.9949 46.0117C60.7337 45.3311 64.5258 44.3424 67.8582 42.4642C71.098 40.6382 73.744 37.7583 75.3301 34.3964C76.9093 31.0491 77.3529 27.2513 76.54 23.636C75.9397 20.9661 74.6086 18.5155 72.7386 16.5223C70.8676 14.5282 68.5239 13.0145 66.0321 11.9139C63.4219 10.761 60.6375 10.0304 57.8132 9.6465C54.9951 9.26342 52.132 9.21839 49.3064 9.54939C44.7778 10.0799 40.2586 11.4022 35.6647 10.896C31.279 10.4127 27.269 8.18346 22.8266 8.01068C20.9349 7.93711 18.8855 8.23075 17.2746 9.28942C16.041 10.1001 14.8087 11.4298 14.7543 12.9865C14.7268 13.7737 15.0652 14.48 15.584 15.0548L15.805 14.6752C13.7854 14.1788 11.2869 13.7639 9.62761 15.3718C8.24334 16.7132 8.20792 18.9256 9.11687 20.5327C9.66296 21.4982 10.4985 22.2694 11.4414 22.8399L11.6164 22.4248C10.7241 22.0887 9.72684 22.5087 9.15722 23.2316C8.48311 24.087 8.42427 25.2542 8.56022 26.2918C8.70686 27.4112 9.08578 28.4942 9.64309 29.4748C10.1181 30.3106 10.7365 31.0841 11.3304 31.839C11.9113 32.5774 12.616 33.4674 13.5588 33.7393L13.6192 33.2932C12.2749 33.1923 11.2807 34.4784 11.1864 35.7226C11.0689 37.2725 12.2158 38.6334 13.2746 39.6189C15.7194 41.8943 18.8497 43.2771 21.9985 44.2782C25.5052 45.3931 29.1577 45.9947 32.8187 46.302C36.5635 46.6163 40.3285 46.5871 44.083 46.6725C48.3995 46.7707 52.7304 46.7764 56.9949 46.0117C57.2822 45.9602 57.1605 45.5224 56.8742 45.5737C53.2573 46.2222 49.5803 46.309 45.9149 46.254C44.1208 46.2271 42.3272 46.1702 40.5331 46.1395C38.7421 46.1088 36.9524 46.0983 35.1631 46.0057C31.678 45.8255 28.1955 45.4164 24.801 44.59C21.6356 43.8193 18.4407 42.7311 15.6994 40.9355C14.2972 40.017 12.7657 38.8394 11.9981 37.3086C11.6277 36.5699 11.4954 35.711 11.8474 34.9405C12.1684 34.2377 12.8161 33.6872 13.6192 33.7475C13.8801 33.7671 13.9196 33.3706 13.6796 33.3014C12.9681 33.0962 12.4149 32.4406 11.9563 31.8938C11.445 31.2841 10.9601 30.6356 10.5031 29.984C9.92275 29.1567 9.47794 28.2362 9.21434 27.2596C8.9601 26.3177 8.81688 25.2544 9.10933 24.3043C9.41348 23.3161 10.4268 22.4602 11.4957 22.8629C11.7424 22.9558 11.8844 22.5771 11.6707 22.4478C9.78308 21.3057 8.34982 19.1142 9.18737 16.8707C9.60551 15.7506 10.5758 15.0474 11.7207 14.7914C13.0414 14.4961 14.3973 14.7969 15.6843 15.1133C15.9096 15.1687 16.0565 14.9013 15.9053 14.7337C15.3441 14.1121 15.0795 13.3303 15.2759 12.5023C15.4594 11.7289 15.9427 11.052 16.4986 10.4988C17.8045 9.19929 19.5963 8.61779 21.4043 8.48616C25.7047 8.17311 29.6617 10.1844 33.7784 11.0462C38.1139 11.9538 42.4185 11.0732 46.7129 10.376C49.7798 9.87807 52.8311 9.64213 55.933 9.89536C58.686 10.1201 61.4226 10.6732 64.0264 11.601C66.5555 12.5022 68.9866 13.7787 71.0354 15.5274C73.0234 17.2241 74.62 19.3667 75.5313 21.8262C76.7028 24.9879 76.7994 28.5438 75.8486 31.7732C74.8099 35.3009 72.5809 38.4704 69.681 40.7216C66.7414 43.0036 63.0472 44.2112 59.4653 45.0415C58.6062 45.2407 57.7418 45.4158 56.8742 45.5737C56.587 45.626 56.7086 46.0639 56.9949 46.0117Z" fill="#3B1954"/>
<path d="M71.2343 15.8464C71.334 15.7875 71.4278 15.7206 71.519 15.6503C65.9682 10.6775 56.9795 8.94019 49.6307 9.73921C44.88 10.2557 40.1479 11.6869 35.4065 11.092C32.4972 10.727 29.7419 9.61313 26.9023 8.88306C24.0626 8.15297 20.9579 7.82819 18.2713 9.00243C16.1696 9.92101 13.7017 12.6969 15.745 14.8936C14.747 14.6472 13.731 14.4209 12.7032 14.4462C11.6755 14.4714 10.6217 14.7718 9.8612 15.4636C9.7338 15.5795 9.61766 15.7053 9.51164 15.8386C9.39006 16.2913 9.28091 16.7466 9.18544 17.2015C9.04657 17.8632 8.9301 18.5286 8.82975 19.1965C8.84689 19.2696 8.86487 19.3425 8.88599 19.4144C9.28897 20.7864 10.3275 21.9121 11.5564 22.6432C10.6987 22.2884 9.66389 22.7968 9.18109 23.5896C8.6983 24.3824 8.66332 25.3713 8.78774 26.2912C8.99133 27.7964 9.62529 29.2259 10.5487 30.4269C11.2437 31.3307 12.4922 33.225 13.6196 33.5197C12.3692 33.3905 11.3506 34.7428 11.41 35.9985C11.4694 37.2541 12.2883 38.3436 13.1879 39.2216C15.5298 41.5073 18.5893 42.9188 21.6978 43.9416C23.2592 44.4554 24.8526 44.8626 26.465 45.1884C28.0081 43.9616 29.5068 42.6815 30.832 41.2257C33.357 38.4519 35.1894 35.118 37.598 32.2426C40.9719 28.2148 45.476 25.1439 50.458 23.4746L49.9858 23.7725C51.987 22.8364 54.9419 21.9404 57.1356 21.6788C56.3186 21.2115 56.2066 19.9449 56.8101 19.2227C57.4137 18.5004 58.5141 18.3282 59.3977 18.6526C60.2813 18.977 60.9616 19.7142 61.4238 20.5342C62.894 19.8961 63.8453 18.2312 63.6486 16.6407C64.443 17.3839 65.4966 18.0333 66.5598 17.8031C67.623 17.5728 68.2936 16.0153 67.4331 15.3496C68.3983 16.3315 70.0493 16.5473 71.2343 15.8464Z" fill="#3B1954"/>
<path d="M71.3477 16.0431C71.4463 15.9812 71.5392 15.9167 71.6323 15.847C71.7415 15.7653 71.7982 15.5971 71.6783 15.4903C68.8531 12.9722 65.323 11.3569 61.684 10.4074C57.9633 9.43661 54.0451 9.11223 50.2153 9.45468C45.4556 9.88026 40.7592 11.3774 35.9431 10.9243C31.2841 10.486 27.0377 8.00463 22.3082 8.00001C20.3367 7.99808 18.2949 8.43886 16.7266 9.68815C15.5021 10.6637 14.3164 12.3249 14.9029 13.9625C15.0504 14.3742 15.2911 14.7319 15.5832 15.0547L15.8041 14.6751C13.8877 14.2039 11.6214 13.8043 9.92807 15.1136C9.74066 15.2585 9.56769 15.4183 9.41461 15.5995C9.24954 15.7948 9.22029 16.0445 9.15996 16.289C9.02343 16.8424 8.90714 17.4003 8.80456 17.9609C8.71242 18.4645 8.52847 19.0213 8.6796 19.5209C8.80848 19.9469 8.99985 20.3571 9.23585 20.7341C9.7824 21.6072 10.5632 22.3098 11.4405 22.8399L11.6155 22.4247C10.7312 22.0886 9.7404 22.5042 9.16895 23.2145C8.48201 24.0685 8.42267 25.2495 8.55934 26.2918C8.70675 27.4159 9.08823 28.5023 9.64892 29.4865C10.1232 30.319 10.7401 31.0902 11.3321 31.8424C11.9113 32.5783 12.6169 33.4697 13.558 33.7393L13.6183 33.2932C12.1425 33.1787 11.0799 34.7409 11.1881 36.1005C11.3295 37.8793 12.7798 39.2699 14.0893 40.3243C17.0145 42.6798 20.6874 44.0203 24.2918 44.9296C24.7972 45.0571 25.3048 45.1754 25.8143 45.2851C26.0037 45.3258 26.2709 45.4357 26.4637 45.416C26.6613 45.3959 26.8377 45.1797 26.9865 45.0598C27.7682 44.4306 28.5368 43.7843 29.2751 43.1044C30.7096 41.7832 31.97 40.3153 33.1268 38.7476C34.2855 37.1775 35.3543 35.5431 36.5196 33.9778C37.6227 32.496 38.834 31.1043 40.1878 29.8458C42.8183 27.4004 45.9174 25.4478 49.266 24.1466C49.6795 23.986 50.0968 23.8359 50.5171 23.6942L50.3421 23.2791L49.87 23.5769C49.619 23.7352 49.8371 24.0909 50.0992 23.9691C52.2936 22.9497 54.7295 22.2012 57.1344 21.9065C57.3474 21.8804 57.4568 21.6105 57.249 21.4833C56.7612 21.1846 56.5783 20.5831 56.679 20.0368C56.7947 19.4095 57.288 18.9738 57.887 18.8056C59.3278 18.4013 60.5563 19.4838 61.2264 20.6494C61.2922 20.7639 61.4257 20.781 61.5372 20.7309C63.0817 20.0361 64.0601 18.3249 63.8744 16.6412L63.4867 16.8018C64.4014 17.6454 65.9674 18.6166 67.1863 17.7709C67.9791 17.2208 68.4501 15.8994 67.5925 15.1896C67.3712 15.0065 67.0591 15.3018 67.2713 15.5108C68.3394 16.5629 70.0453 16.7853 71.3477 16.0431C71.6017 15.8983 71.3731 15.5057 71.1185 15.6508C69.9927 16.2924 68.5154 16.0988 67.5925 15.1896L67.2713 15.5108C67.935 16.0601 67.4743 17.0919 66.8374 17.4546C65.8099 18.0397 64.5402 17.156 63.8079 16.4806C63.6777 16.3605 63.3972 16.4324 63.4202 16.6412C63.5903 18.1841 62.7237 19.7018 61.3079 20.3387L61.6187 20.4202C60.7963 18.9897 59.1718 17.7511 57.4639 18.4751C56.7701 18.7692 56.2865 19.3721 56.2101 20.1278C56.1408 20.8145 56.4218 21.5093 57.0197 21.8755L57.1344 21.4523C54.6433 21.7575 52.1436 22.5207 49.87 23.5769L50.0992 23.9691L50.5714 23.6713C50.7805 23.5394 50.65 23.1707 50.3964 23.2562C46.5403 24.556 42.9747 26.6655 39.9793 29.4204C38.4273 30.8478 37.0714 32.4509 35.8299 34.1522C34.5056 35.9668 33.2898 37.8615 31.8924 39.6223C30.2673 41.67 28.3431 43.4043 26.3032 45.0283L26.5241 44.9699C23.56 44.3671 20.6025 43.5098 17.8806 42.172C16.6087 41.5468 15.3843 40.8054 14.2882 39.9037C13.2418 39.0429 12.1024 37.9872 11.7384 36.6332C11.5556 35.953 11.6247 35.2657 11.9969 34.6615C12.3488 34.0901 12.9319 33.6941 13.6184 33.7474C13.8791 33.7676 13.919 33.3701 13.6788 33.3013C12.9581 33.0948 12.3976 32.4236 11.9355 31.87C11.4183 31.2503 10.9223 30.5927 10.4635 29.9283C9.89335 29.1028 9.45857 28.187 9.2021 27.2162C8.94908 26.2585 8.80547 25.1614 9.14016 24.2052C9.4707 23.2608 10.4711 22.4736 11.4948 22.8627C11.7412 22.9564 11.8836 22.5768 11.6698 22.4476C10.9674 22.0233 10.3279 21.4837 9.841 20.819C9.60134 20.4918 9.39484 20.1351 9.24347 19.7585C9.17351 19.5844 9.08227 19.3811 9.06976 19.1928C9.05365 18.9506 9.13886 18.6731 9.1801 18.4338C9.26407 17.9465 9.35744 17.4608 9.46471 16.9781C9.51963 16.7311 9.57826 16.4848 9.64057 16.2395C9.70597 15.9821 9.78937 15.8425 9.98302 15.6601C10.6181 15.0618 11.4964 14.7673 12.3534 14.6933C13.4805 14.5959 14.5959 14.8457 15.6834 15.1131C15.9086 15.1685 16.0559 14.9011 15.9044 14.7335C15.3124 14.0791 15.065 13.2576 15.3019 12.3963C15.5292 11.5703 16.0887 10.8614 16.7136 10.2937C18.1844 8.95758 20.1987 8.47795 22.1436 8.45522C26.6845 8.40213 30.7913 10.6997 35.2286 11.2965C39.8931 11.9239 44.4927 10.5921 49.0906 10.0293C52.7995 9.57529 56.5888 9.74311 60.242 10.531C63.8433 11.3076 67.3899 12.6961 70.3274 14.9557C70.6813 15.2279 71.0239 15.5144 71.3572 15.8115L71.4031 15.4548C71.31 15.5245 71.217 15.589 71.1185 15.6508C70.8715 15.8059 71.0992 16.1991 71.3477 16.0431Z" fill="#3B1954"/>
<path d="M58.5745 35.4694C61.1179 35.6825 63.9249 36.0558 66.3326 36.9221C67.0032 37.1635 67.7396 37.4627 68.0399 38.109C68.2763 38.6179 68.1764 39.2124 68.0651 39.7623C67.2527 43.7745 66.3229 47.7081 65.4968 51.7175C64.641 55.8711 63.6002 59.9509 62.0785 63.9142C61.8964 64.3885 61.6965 64.8765 61.3253 65.2234C60.9166 65.6053 60.3534 65.7668 59.8082 65.8915C56.3834 66.6752 52.8198 66.4957 49.3142 66.2635C43.9977 65.9114 38.6849 65.4473 33.4084 64.6972C30.7319 64.3166 28.0577 63.8764 25.4131 63.3125C23.9579 63.0023 21.0097 62.5896 20.3842 61.0565C20.0542 60.2475 20.3199 59.3321 20.5794 58.4977C22.7494 51.522 24.3538 44.3705 25.3717 37.1363C25.4956 36.2557 25.6147 35.3601 25.975 34.5471C27.1197 31.9643 29.8223 32.719 32.1203 32.8569C35.1011 33.0359 38.0783 33.2739 41.0496 33.5707C45.3656 34.0019 49.7162 34.9373 54.0301 35.1884C55.5484 35.2767 57.0668 35.3431 58.5745 35.4694Z" fill="#662D91"/>
<path d="M27.2852 35.9492C28.1246 36.8016 28.5429 37.6054 29.166 38.5791C29.9778 39.8479 31.1532 40.9749 32.1346 42.1161C34.1932 44.51 36.2827 46.8785 38.4537 49.1715C39.4519 50.2258 40.5268 51.3019 41.9116 51.7385C43.8035 52.335 45.8385 51.616 47.6603 50.8309C54.3587 47.9446 60.9764 44.033 66.4916 39.2778" fill="#662D91"/>
<path d="M49.984 23.7734C43.4992 26.361 37.7359 30.9556 34.252 37.0062C30.7681 43.0568 29.7075 50.5759 31.9116 57.2008C32.1846 58.0213 32.507 58.8347 32.6152 59.6926C32.7234 60.5504 32.59 61.4816 32.038 62.1475C31.7317 62.517 31.3033 62.6326 31.0254 63.0014C30.8456 63.24 30.6602 63.4917 30.6139 63.7869C30.5677 64.082 30.7132 64.4303 31.0022 64.5058C31.3739 64.6028 31.7263 64.2229 32.1086 64.2597C31.9519 64.5712 31.823 64.9145 31.8622 65.2609C31.9015 65.6074 32.155 65.9502 32.5017 65.9877C32.8996 66.0307 33.2229 65.6889 33.4752 65.3783C33.2885 65.7619 33.1185 66.2695 33.4191 66.5723C33.6132 66.7677 33.9399 66.7762 34.1892 66.6593C34.4386 66.5423 34.625 66.325 34.789 66.104C34.7812 66.4564 34.6198 66.8825 35.0297 67.101C35.3128 67.2518 35.6762 67.169 35.9318 66.9752C36.1873 66.7814 36.3552 66.4956 36.5017 66.2103C36.6878 65.8479 36.8503 65.4734 36.9879 65.09C37.0445 65.4609 37.2727 65.8021 37.5938 65.9961C37.8193 66.1323 38.1168 66.1927 38.3432 66.058C38.633 65.8855 38.6798 65.4927 38.6948 65.1558C38.7488 63.9459 38.6775 62.6695 38.8301 61.4808C39.0035 60.1309 39.1424 58.7778 39.2318 57.4197C39.3872 55.0602 39.4158 52.6873 39.2938 50.3254C39.2168 48.8343 39.058 46.4389 39.9114 45.1647C40.137 44.8279 40.4407 44.552 40.7444 44.2835C45.5428 40.0406 49.6746 37.619 55.1898 34.3618" fill="#FFDE17"/>
<path d="M49.9253 23.5542C46.8609 24.7805 43.9764 26.4299 41.3885 28.4806C38.8209 30.5154 36.5617 32.9483 34.7831 35.7028C32.8811 38.6482 31.5626 41.9679 30.9439 45.4201C30.3247 48.875 30.3958 52.4606 31.2808 55.8638C31.5127 56.7555 31.8354 57.614 32.1079 58.4928C32.3747 59.3537 32.5568 60.2762 32.2991 61.1626C32.1803 61.571 31.9662 61.9668 31.6238 62.2289C31.3003 62.4766 30.9925 62.6615 30.7482 62.9978C30.5204 63.3113 30.3278 63.674 30.3972 64.0733C30.4561 64.4129 30.7072 64.7105 31.0625 64.7442C31.4432 64.7803 31.7405 64.4714 32.1103 64.4866L31.9142 64.1449C31.6203 64.7417 31.4347 65.5438 32.0389 66.0254C32.6286 66.4955 33.2512 66.0092 33.6375 65.5387L33.2808 65.2635C33.0444 65.7594 32.8217 66.5129 33.422 66.8547C34.0418 67.2076 34.6343 66.6869 34.9868 66.2185L34.5636 66.1039C34.5501 66.4312 34.4557 66.7779 34.6582 67.07C34.8874 67.4005 35.3488 67.4689 35.7093 67.3463C36.105 67.2118 36.3809 66.8893 36.5845 66.5373C36.8377 66.0994 37.036 65.6248 37.2086 65.1502H36.7706C36.8762 65.7354 37.3522 66.2977 37.9699 66.3556C38.6523 66.4195 38.8871 65.777 38.9206 65.2156C38.9658 64.4583 38.9428 63.6974 38.9609 62.9393C38.9795 62.1647 39.0727 61.405 39.1627 60.6365C39.5352 57.4575 39.6791 54.2503 39.5554 51.0512C39.5093 49.8594 39.4022 48.6653 39.4958 47.473C39.5397 46.914 39.6279 46.3484 39.8295 45.8226C40.063 45.2137 40.5165 44.7876 40.9962 44.365C43.051 42.5546 45.2241 40.888 47.4972 39.361C49.7302 37.861 52.0436 36.4858 54.3586 35.1174C54.6744 34.9307 54.9903 34.7443 55.3061 34.5577C55.5577 34.4092 55.3294 34.0164 55.0769 34.1655C52.7743 35.5253 50.4656 36.8781 48.2238 38.337C46.0436 39.7558 43.9392 41.2871 41.9429 42.9554C41.3981 43.4107 40.8506 43.8681 40.3311 44.3523C39.9008 44.7533 39.5739 45.201 39.3719 45.7544C38.9858 46.8122 38.9814 48.0034 39.0137 49.1148C39.0528 50.4595 39.1405 51.8 39.144 53.1461C39.1481 54.7132 39.0916 56.2809 38.9769 57.8438C38.9209 58.607 38.8497 59.369 38.7661 60.1296C38.6826 60.8881 38.5639 61.644 38.5258 62.4066C38.4882 63.16 38.5018 63.9146 38.4852 64.6685C38.4784 64.9743 38.4985 65.3126 38.4044 65.6078C38.2936 65.9552 37.9564 65.9594 37.6823 65.782C37.4176 65.6106 37.2636 65.3344 37.2086 65.0294C37.1652 64.7891 36.8396 64.8398 36.7706 65.0294C36.6379 65.3942 36.4852 65.7505 36.3073 66.0955C36.1718 66.3584 36.0182 66.6463 35.7664 66.8162C35.5709 66.9482 35.1766 67.0523 35.0221 66.7987C34.9096 66.6139 35.0095 66.3056 35.0178 66.1039C35.028 65.8564 34.718 65.8252 34.5946 65.9893C34.3974 66.2512 34.0224 66.6676 33.6513 66.4625C33.3131 66.2757 33.5539 65.7426 33.6731 65.4928C33.7756 65.2777 33.4917 65.004 33.3163 65.2176C33.0959 65.4861 32.6917 65.9737 32.3155 65.6667C31.9144 65.3394 32.118 64.7568 32.3064 64.3742C32.3835 64.2178 32.2897 64.0398 32.1103 64.0325C31.9217 64.0247 31.7515 64.0775 31.5793 64.149C31.4306 64.2107 31.2311 64.3326 31.0643 64.2866C30.648 64.1719 30.8966 63.5884 31.0407 63.3698C31.1489 63.2056 31.2665 63.0493 31.4201 62.9249C31.5742 62.8 31.7486 62.7017 31.906 62.5809C32.2187 62.3408 32.445 62.0164 32.6011 61.6563C33.3328 59.9679 32.4459 58.2026 31.9556 56.5843C30.9608 53.3009 30.7522 49.7967 31.242 46.4058C31.7326 43.0087 32.8992 39.7171 34.656 36.7687C36.2918 34.0234 38.4115 31.5835 40.8426 29.5141C43.2738 27.4446 46.0211 25.7479 48.9399 24.4573C49.3058 24.2955 49.6747 24.1409 50.0461 23.9923C50.3141 23.885 50.1971 23.4454 49.9253 23.5542Z" fill="#3B1954"/>
<path d="M51.1872 49.5641C53.5819 52.8546 55.7667 56.297 57.7215 59.8665C58.2667 60.8622 58.7938 61.8677 59.3033 62.8821C59.4345 63.1434 59.8265 62.9136 59.6955 62.6528C57.8688 59.0162 55.8108 55.4965 53.5344 52.123C52.8995 51.182 52.2474 50.2527 51.5794 49.3348C51.4091 49.1007 51.0148 49.3272 51.1872 49.5641Z" fill="#3B1954"/>
<path d="M22.9887 59.5894C24.9627 57.584 27.0766 55.7054 29.2587 53.9299C29.8296 53.4653 30.4074 53.0091 30.9961 52.5672C31.227 52.3938 31.0009 51.9992 30.7668 52.175C28.5009 53.8761 26.3494 55.7413 24.2889 57.6849C23.7394 58.2033 23.1975 58.7298 22.6675 59.2682C22.4622 59.4767 22.7832 59.7982 22.9887 59.5894Z" fill="#3B1954"/>
<path d="M42.414 45.4588C43.4715 45.0165 44.8456 45.6709 45.2829 46.6962C45.5428 47.3058 45.5818 48.0598 45.1882 48.593C45.0673 48.7568 44.9112 48.8926 44.7412 49.0046C44.2174 49.3496 43.5491 49.4669 42.9392 49.3209C41.2043 48.9057 40.5718 46.2292 42.414 45.4588Z" fill="#3B1954"/>
<path d="M42.475 45.6773C43.2426 45.3681 44.1319 45.645 44.6957 46.2248C45.2832 46.8289 45.5233 47.979 44.8634 48.619C44.2251 49.2383 43.1389 49.3353 42.4057 48.8361C41.9131 48.5007 41.5848 47.906 41.5359 47.3147C41.4745 46.5715 41.8432 45.9491 42.5293 45.6544C42.6428 45.6056 42.666 45.4408 42.6107 45.3437C42.544 45.2264 42.412 45.2141 42.3 45.2622C41.5506 45.5841 41.0858 46.2933 41.0744 47.1069C41.0639 47.8641 41.4216 48.6356 42.0147 49.1079C42.8406 49.7656 44.0693 49.7653 44.925 49.1529C45.4043 48.8099 45.6777 48.3148 45.7065 47.725C45.7316 47.21 45.5787 46.6533 45.2838 46.2293C44.6603 45.3325 43.4012 44.8176 42.3542 45.2393C42.2396 45.2855 42.1618 45.3903 42.1956 45.5187C42.2242 45.627 42.3614 45.7231 42.475 45.6773Z" fill="#3B1954"/>
<path d="M78.9939 89.2585C79.3346 88.5269 79.2039 87.7442 78.7018 87.5104C78.1997 87.2765 77.5164 87.68 77.1756 88.4116C76.8348 89.1432 76.9656 89.9259 77.4677 90.1598C77.9698 90.3937 78.6531 89.9901 78.9939 89.2585Z" fill="#3B1954"/>
<path d="M78.8007 89.1451C78.6226 89.5177 78.3019 89.932 77.865 89.9952C77.4872 90.0499 77.2562 89.719 77.2219 89.3637C77.1735 88.8643 77.3922 88.3358 77.748 87.9882C77.9899 87.7518 78.395 87.5398 78.6973 87.7697C79.0983 88.0745 78.9766 88.7567 78.8007 89.1451C78.7501 89.2567 78.7686 89.3894 78.8821 89.4558C78.9795 89.5128 79.142 89.4866 79.1929 89.3743C79.4502 88.8065 79.5505 88.0472 79.1092 87.5379C78.7322 87.103 78.1011 87.1602 77.6658 87.4695C77.122 87.8558 76.7769 88.5258 76.7621 89.1917C76.7495 89.7623 77.0443 90.3699 77.6628 90.446C78.3435 90.5297 78.9239 89.9374 79.1929 89.3743C79.2457 89.2637 79.2234 89.1291 79.1114 89.0636C79.0123 89.0056 78.8538 89.0339 78.8007 89.1451Z" fill="#3B1954"/>
<path d="M73.2634 89.2585C73.6042 88.5269 73.4734 87.7442 72.9713 87.5104C72.4692 87.2765 71.7859 87.68 71.4452 88.4116C71.1044 89.1432 71.2352 89.9259 71.7372 90.1598C72.2393 90.3937 72.9226 89.9901 73.2634 89.2585Z" fill="#3B1954"/>
<path d="M73.0702 89.1451C72.8922 89.5177 72.5714 89.932 72.1345 89.9952C71.7568 90.0499 71.5258 89.719 71.4914 89.3637C71.443 88.8643 71.6617 88.3358 72.0175 87.9882C72.2594 87.7518 72.6645 87.5398 72.9669 87.7697C73.3678 88.0745 73.2462 88.7567 73.0702 89.1451C73.0196 89.2567 73.0382 89.3894 73.1517 89.4558C73.2491 89.5128 73.4115 89.4866 73.4624 89.3743C73.7197 88.8065 73.8201 88.0472 73.3787 87.5379C73.0018 87.103 72.3707 87.1602 71.9353 87.4695C71.3915 87.8558 71.0464 88.5258 71.0316 89.1917C71.019 89.7623 71.3139 90.3699 71.9324 90.446C72.613 90.5297 73.1934 89.9374 73.4624 89.3743C73.5152 89.2637 73.4929 89.1291 73.3809 89.0636C73.2818 89.0056 73.1233 89.0339 73.0702 89.1451Z" fill="#3B1954"/>
<path d="M40.4431 89.2585C40.7839 88.5269 40.6531 87.7442 40.151 87.5104C39.6489 87.2765 38.9656 87.68 38.6248 88.4116C38.2841 89.1432 38.4148 89.9259 38.9169 90.1598C39.419 90.3937 40.1023 89.9901 40.4431 89.2585Z" fill="#3B1954"/>
<path d="M40.246 89.1451C40.0679 89.5177 39.7472 89.932 39.3103 89.9952C38.9325 90.0499 38.7016 89.719 38.6672 89.3637C38.6188 88.8643 38.8375 88.3358 39.1933 87.9882C39.4352 87.7518 39.8403 87.5398 40.1427 87.7697C40.5436 88.0745 40.422 88.7567 40.246 89.1451C40.1954 89.2567 40.2139 89.3894 40.3274 89.4558C40.4248 89.5128 40.5873 89.4866 40.6382 89.3743C40.8955 88.8065 40.9958 88.0472 40.5545 87.5379C40.1775 87.103 39.5465 87.1602 39.1111 87.4695C38.5673 87.8558 38.2222 88.5258 38.2074 89.1917C38.1948 89.7623 38.4896 90.3699 39.1081 90.446C39.7888 90.5297 40.3692 89.9374 40.6382 89.3743C40.691 89.2637 40.6687 89.1291 40.5567 89.0636C40.4576 89.0056 40.2991 89.0339 40.246 89.1451Z" fill="#3B1954"/>
<path d="M69.5615 79.4943C70.8326 80.6218 72.3742 81.4209 74.0319 81.7977C74.3165 81.8624 74.438 81.4246 74.1526 81.3597C72.5716 81.0003 71.0963 80.2496 69.8827 79.1732C69.6647 78.9798 69.3423 79.2999 69.5615 79.4943Z" fill="#3B1954"/>
<path d="M71.5687 77.7484C71.624 77.7148 71.6813 77.6854 71.7409 77.6601L71.6866 77.683C71.7904 77.6401 71.8985 77.6105 72.0097 77.5947L71.9493 77.6028C72.0306 77.592 72.1122 77.5886 72.1941 77.5929C72.3129 77.5991 72.4265 77.484 72.4212 77.3658C72.4154 77.2374 72.3214 77.1453 72.1941 77.1386C71.897 77.1232 71.5934 77.2019 71.3394 77.3561C71.2379 77.4178 71.1907 77.5626 71.2579 77.6669C71.3237 77.7689 71.46 77.8144 71.5687 77.7484Z" fill="#3B1954"/>
<path d="M72.2509 78.7286C72.261 78.7139 72.2715 78.6996 72.2823 78.6855L72.2468 78.7314C72.2952 78.6697 72.3506 78.6146 72.4124 78.5662L72.3664 78.6018C72.4316 78.5519 72.5021 78.5105 72.5775 78.4779L72.5232 78.5007C72.5989 78.469 72.6775 78.4468 72.7587 78.435L72.6983 78.4431C72.716 78.4407 72.7336 78.4388 72.7513 78.4373C72.8125 78.4321 72.8673 78.4155 72.9119 78.3708C72.9513 78.3314 72.981 78.2668 72.9785 78.2102C72.9733 78.0957 72.8781 77.9723 72.7513 77.9831C72.5716 77.9983 72.4001 78.0474 72.2433 78.1382C72.0882 78.228 71.9601 78.3525 71.8586 78.4993C71.8266 78.5457 71.8213 78.6218 71.8357 78.6744C71.8503 78.727 71.891 78.7841 71.9401 78.8101C72.0558 78.8712 72.1786 78.8332 72.2509 78.7286Z" fill="#3B1954"/>
<path d="M42.2521 73.89C42.5995 74.3305 43.0492 74.6832 43.4743 75.045C43.9206 75.4248 44.3717 75.799 44.8274 76.1675C45.737 76.903 46.6648 77.6162 47.6095 78.306C48.153 78.7028 48.7023 79.0915 49.2568 79.4727C49.4983 79.6387 49.7257 79.2452 49.4861 79.0805C47.579 77.7694 45.7367 76.3654 43.9693 74.8712C43.4871 74.4636 42.9662 74.0671 42.5732 73.5688C42.3923 73.3395 42.0729 73.6629 42.2521 73.89Z" fill="#3B1954"/>
<path d="M61.7661 74.8532C64.1814 74.7918 66.6021 74.6505 68.9639 74.1089C69.6516 73.9511 70.3313 73.7613 71.0025 73.544C71.2794 73.4543 71.161 73.0155 70.8818 73.106C68.601 73.8447 66.2458 74.1917 63.8571 74.3206C63.1606 74.3582 62.4634 74.3812 61.7661 74.3989C61.4744 74.4063 61.4732 74.8606 61.7661 74.8532Z" fill="#3B1954"/>
<path d="M46.7661 76.1109C48.5214 74.2055 50.0142 72.0587 51.1795 69.7444C51.5111 69.0859 51.8147 68.4139 52.0945 67.7318C52.1414 67.6174 52.0436 67.4833 51.9359 67.4524C51.8061 67.4151 51.7028 67.4981 51.6565 67.611C50.6963 69.9514 49.4071 72.1651 47.8416 74.1525C47.3976 74.7163 46.9311 75.262 46.4449 75.7897C46.2471 76.0045 46.5675 76.3265 46.7661 76.1109Z" fill="#3B1954"/>
<path d="M63.948 56.6921C65.1968 60.8951 66.0301 65.22 66.4217 69.5872C66.5318 70.8156 66.607 72.0468 66.6486 73.2794C66.6585 73.5709 67.1127 73.5722 67.1028 73.2794C67.0284 71.0782 66.8451 68.8815 66.5528 66.6986C66.2593 64.5065 65.8589 62.3293 65.349 60.1772C65.0621 58.9664 64.7404 57.7641 64.386 56.5714C64.303 56.2918 63.8645 56.4109 63.948 56.6921Z" fill="#3B1954"/>
<path d="M44.6182 82.0498C44.791 84.0296 45.4694 85.9469 46.5969 87.585C46.7616 87.8243 47.1554 87.5974 46.9891 87.3558C45.9083 85.7855 45.2383 83.9502 45.0725 82.0498C45.0472 81.7608 44.5928 81.7581 44.6182 82.0498Z" fill="#3B1954"/>
<path d="M46.6712 83.0689C46.6946 83.0634 46.7223 83.0622 46.7449 83.0543C46.7344 83.058 46.6975 83.0591 46.7291 83.0567C46.7415 83.0557 46.7539 83.0544 46.7664 83.0536C46.8112 83.0507 46.8562 83.0511 46.901 83.0545C46.9045 83.0548 46.9365 83.0607 46.9383 83.0581C46.9352 83.0626 46.8809 83.0491 46.9299 83.0573C46.9521 83.0611 46.9742 83.0655 46.9961 83.0707C47.0427 83.0818 47.0869 83.0981 47.1322 83.1131C47.1609 83.1227 47.0922 83.0947 47.1196 83.1075C47.1309 83.1128 47.1424 83.1177 47.1537 83.1232C47.174 83.133 47.1939 83.1435 47.2135 83.1546C47.2331 83.1657 47.2523 83.1774 47.2712 83.1898C47.2816 83.1966 47.2919 83.2037 47.3021 83.211C47.3294 83.2304 47.3124 83.2235 47.298 83.207C47.3267 83.24 47.3669 83.2657 47.3974 83.2979C47.413 83.3144 47.4286 83.341 47.4467 83.3543C47.4377 83.3476 47.4211 83.3192 47.4385 83.344C47.4472 83.3563 47.4558 83.3686 47.4641 83.3811C47.5297 83.4799 47.6676 83.5317 47.7748 83.4626C47.8734 83.3991 47.9266 83.2577 47.8563 83.1519C47.5744 82.7275 47.0478 82.5152 46.5505 82.6309C46.4347 82.6578 46.3551 82.7968 46.3919 82.9102C46.431 83.0312 46.5471 83.0977 46.6712 83.0689Z" fill="#3B1954"/>
<path d="M46.9996 84.7054C47.0289 84.6976 47.0585 84.6917 47.0885 84.6875L47.0281 84.6956C47.0918 84.6876 47.1555 84.688 47.2191 84.6963L47.1587 84.6882C47.2222 84.6974 47.2837 84.7143 47.3431 84.7388L47.2888 84.7159C47.3446 84.74 47.3968 84.7702 47.4451 84.8071L47.3991 84.7716C47.4097 84.7799 47.42 84.7885 47.4302 84.7973C47.4763 84.8372 47.5282 84.8638 47.5908 84.8638C47.6465 84.8638 47.7131 84.8391 47.7514 84.7973C47.8297 84.712 47.8474 84.5591 47.7514 84.4761C47.512 84.269 47.1872 84.1855 46.8788 84.2674C46.764 84.2979 46.6827 84.4308 46.7202 84.5468C46.7584 84.6648 46.8766 84.7381 46.9996 84.7054Z" fill="#3B1954"/>
<path d="M72.1647 50.4366C72.443 49.3392 73.259 48.5021 74.0039 47.6932C74.7795 46.851 75.5692 46.0128 76.4683 45.2998C76.9708 44.9013 77.5123 44.5516 78.0875 44.2676C78.3496 44.1382 78.1197 43.7462 77.8582 43.8754C76.7896 44.403 75.8575 45.1621 75.0079 45.9903C74.5859 46.4017 74.182 46.8311 73.7823 47.264C73.3838 47.6955 72.9806 48.1245 72.6217 48.59C72.2222 49.1083 71.8886 49.6771 71.7267 50.3159C71.6548 50.5993 72.0928 50.7203 72.1647 50.4366Z" fill="#3B1954"/>
<path d="M36.4176 34.9324C38.8127 35.9103 40.9129 37.6092 42.39 39.731C42.8136 40.3395 43.1859 40.9823 43.5046 41.6516C43.6303 41.9154 44.022 41.6852 43.8969 41.4223C42.7411 38.9954 40.8619 36.9282 38.5735 35.5211C37.9247 35.1222 37.2433 34.7823 36.5384 34.4944C36.4239 34.4477 36.29 34.5452 36.259 34.653C36.2218 34.7826 36.3047 34.8863 36.4176 34.9324Z" fill="#3B1954"/>
<path d="M86.9834 26.7731C86.7968 27.2251 86.6103 27.6771 86.4237 28.1291C86.2674 28.508 86.0145 28.947 86.1866 29.3621C86.5809 30.3127 87.7654 29.2846 88.1462 28.844L87.7666 28.623C87.6936 29.0657 87.6078 29.9777 88.1869 30.1362C88.7395 30.2874 89.2005 29.6394 89.4046 29.2218L88.9895 29.0468C88.8252 29.4578 88.7413 30.0541 89.2462 30.2641C89.7728 30.4831 90.1965 30.0369 90.4521 29.6347L90.0289 29.52C89.9839 29.8762 90.2653 30.2064 90.6008 30.2926C90.9849 30.3914 91.3672 30.211 91.6589 29.9718C92.2197 29.512 92.4676 28.7858 92.6853 28.1198C92.7763 27.8413 92.3378 27.722 92.2473 27.9991C92.0887 28.4842 91.9237 29.0003 91.5916 29.399C91.4276 29.596 91.2094 29.7915 90.953 29.8498C90.7238 29.9019 90.4488 29.7922 90.4831 29.52C90.5133 29.281 90.1692 29.2334 90.0599 29.4054C89.9405 29.5933 89.7012 29.9687 89.4222 29.8467C89.1828 29.742 89.3625 29.3301 89.4275 29.1676C89.5226 28.9298 89.125 28.7622 89.0124 28.9926C88.9328 29.1553 88.8392 29.3101 88.7191 29.4464C88.6334 29.5437 88.4841 29.7135 88.3377 29.7012C88.2054 29.6901 88.1983 29.4633 88.1875 29.364C88.1651 29.1581 88.1709 28.948 88.2046 28.7437C88.2376 28.5433 87.989 28.333 87.825 28.5227C87.6196 28.7605 87.3863 28.9675 87.1179 29.1317C87.0154 29.1944 86.8063 29.3538 86.6801 29.2868C86.5642 29.2253 86.5747 29.0436 86.5971 28.9406C86.6712 28.5995 86.8563 28.2631 86.9889 27.9417C87.1331 27.5924 87.2772 27.2431 87.4214 26.8939C87.4685 26.7796 87.3703 26.6454 87.2627 26.6145C87.1328 26.5772 87.0299 26.6603 86.9834 26.7731Z" fill="#3B1954"/>
<path d="M86.0285 26.5033C86.0533 26.5193 86.0769 26.537 86.1015 26.5532C86.1231 26.5675 86.0775 26.5326 86.1099 26.5596C86.1199 26.568 86.1301 26.5762 86.14 26.5847C86.1871 26.6252 86.2315 26.6689 86.2729 26.7151C86.2925 26.737 86.3114 26.7596 86.3298 26.7826C86.3098 26.7575 86.325 26.7765 86.3357 26.7914C86.3434 26.802 86.3509 26.8127 86.3583 26.8236C86.3933 26.8749 86.4252 26.9285 86.4537 26.9838C86.4672 27.0101 86.4791 27.0369 86.4918 27.0636C86.4804 27.0312 86.5065 27.0946 86.4918 27.0636C86.4972 27.079 86.5036 27.0942 86.5091 27.1096C86.529 27.165 86.5457 27.2216 86.5589 27.279C86.5662 27.3109 86.5722 27.343 86.5777 27.3752C86.5818 27.3991 86.5796 27.394 86.5777 27.3731C86.5792 27.3893 86.5812 27.4056 86.5825 27.4219C86.5877 27.4839 86.5882 27.546 86.5853 27.6081C86.5798 27.727 86.6937 27.8406 86.8125 27.8353C86.9402 27.8295 87.0337 27.7355 87.0396 27.6081C87.0672 27.0128 86.7554 26.433 86.2578 26.1111C86.1579 26.0464 86.0026 26.0874 85.9471 26.1925C85.8874 26.3055 85.9219 26.4343 86.0285 26.5033Z" fill="#3B1954"/>
<path d="M85.0835 28.2016C85.5023 28.496 86.0442 28.7664 86.5596 28.553C86.669 28.5078 86.7593 28.4004 86.7183 28.2737C86.6842 28.1684 86.5564 28.0664 86.4389 28.115C86.3171 28.1655 86.2575 28.1743 86.1472 28.1724C86.1169 28.1719 86.0867 28.1698 86.0565 28.1668C86.096 28.1707 86.0343 28.1632 86.0267 28.1617C85.9708 28.1513 85.9157 28.1366 85.8618 28.1186C85.8367 28.1102 85.812 28.101 85.7874 28.0914C85.8227 28.1052 85.7454 28.0724 85.7383 28.069C85.6906 28.0462 85.644 28.0213 85.5982 27.995C85.4998 27.9383 85.4056 27.8747 85.3128 27.8094C85.2153 27.7409 85.056 27.7887 85.002 27.8909C84.9405 28.0074 84.9794 28.1285 85.0835 28.2016Z" fill="#3B1954"/>
<path d="M89.2083 30.2084C89.221 30.2167 89.2337 30.225 89.2462 30.2337C89.2502 30.2366 89.2828 30.2592 89.2599 30.2429C89.2344 30.2247 89.2749 30.2551 89.2796 30.2591C89.2889 30.2669 89.2981 30.2748 89.3071 30.2829C89.35 30.3213 89.39 30.3629 89.4269 30.4071C89.4338 30.4153 89.4593 30.4505 89.431 30.4111C89.4381 30.4209 89.4454 30.4306 89.4524 30.4405C89.4681 30.4628 89.4831 30.4857 89.4974 30.509C89.5276 30.5585 89.5531 30.6099 89.5774 30.6625C89.5694 30.6453 89.5668 30.6353 89.5754 30.6588C89.5806 30.673 89.5861 30.6872 89.5911 30.7016C89.6001 30.7274 89.6083 30.7535 89.6155 30.7799C89.6228 30.8062 89.6292 30.8328 89.6348 30.8595C89.6387 30.8787 89.6489 30.951 89.643 30.8979C89.6494 30.9552 89.6531 31.0125 89.6519 31.0702C89.6513 31.0976 89.649 31.1247 89.6472 31.1519C89.6455 31.179 89.6463 31.164 89.649 31.1458C89.6463 31.1638 89.6432 31.1818 89.6399 31.1997C89.6183 31.3162 89.6719 31.4503 89.7985 31.4791C89.91 31.5045 90.0548 31.4454 90.0779 31.3205C90.1855 30.7395 89.9349 30.1394 89.4375 29.8162C89.3377 29.7513 89.1822 29.7927 89.1268 29.8977C89.067 30.0108 89.1017 30.1392 89.2083 30.2084Z" fill="#3B1954"/>
<path d="M15.072 56.5245C15.8412 56.6594 16.6103 56.7942 17.3795 56.9291C17.5002 56.9502 17.6242 56.8966 17.6589 56.7704C17.689 56.6609 17.6217 56.5123 17.5002 56.4911C16.7311 56.3562 15.9619 56.2214 15.1928 56.0865C15.0721 56.0654 14.9481 56.119 14.9134 56.2452C14.8833 56.3547 14.9506 56.5032 15.072 56.5245Z" fill="#3B1954"/>
<path d="M15.5937 63.6816C16.062 63.2133 16.5303 62.745 16.9986 62.2767C17.0827 62.1926 17.089 62.0385 16.9986 61.9555C16.9079 61.8723 16.7671 61.8657 16.6774 61.9555C16.2091 62.4238 15.7408 62.8921 15.2725 63.3604C15.1884 63.4445 15.1821 63.5986 15.2725 63.6816C15.3632 63.7648 15.5039 63.7714 15.5937 63.6816Z" fill="#3B1954"/>
<path d="M20.4826 66.3323C20.4743 66.2297 20.4714 66.1269 20.4751 66.024C20.4769 65.9727 20.4803 65.9213 20.4851 65.8702C20.4872 65.8482 20.4898 65.8263 20.4923 65.8044C20.4957 65.777 20.4959 65.7753 20.4929 65.7993C20.4945 65.7884 20.4962 65.7775 20.4979 65.7666C20.5298 65.5668 20.5855 65.3719 20.6621 65.1847C20.7072 65.0745 20.6132 64.9304 20.5034 64.9054C20.3714 64.8753 20.2724 64.9459 20.2241 65.064C20.061 65.4625 19.9938 65.9032 20.0284 66.3323C20.0379 66.4504 20.126 66.5652 20.2555 66.5594C20.3704 66.5542 20.4928 66.4591 20.4826 66.3323Z" fill="#3B1954"/>
<path d="M18.2588 52.7916C18.4555 53.0845 18.6917 53.3499 18.9662 53.5719C19.0145 53.611 19.0621 53.6384 19.1267 53.6384C19.1825 53.6384 19.249 53.6137 19.2873 53.5719C19.3634 53.4891 19.386 53.3305 19.2873 53.2507C19.0879 53.0894 18.9079 52.9058 18.7503 52.7034L18.7858 52.7494C18.7388 52.6885 18.6939 52.6262 18.651 52.5624C18.5849 52.4639 18.4478 52.4115 18.3403 52.4809C18.2422 52.5441 18.188 52.6861 18.2588 52.7916Z" fill="#3B1954"/>
<path d="M14.4225 90.9581C24.0613 90.9581 33.7 90.9581 43.3388 90.9581C52.9283 90.9581 62.5179 90.9581 72.1075 90.9581C77.517 90.9581 82.9265 90.9581 88.336 90.9581C88.6283 90.9581 88.6288 90.5039 88.336 90.5039C78.6972 90.5039 69.0585 90.5039 59.4197 90.5039C49.8302 90.5039 40.2406 90.5039 30.651 90.5039H14.4225C14.1302 90.5039 14.1298 90.9581 14.4225 90.9581Z" fill="#3B1954"/>
<path d="M21.0591 90.5477C20.7186 90.5353 20.4141 90.178 20.5035 89.8368C20.5866 89.5192 20.9561 89.3419 21.2592 89.4347C21.4708 89.4994 21.6512 89.2066 21.4802 89.0551C20.8553 88.501 21.1275 87.5427 21.8009 87.1541C22.5157 86.7415 23.4844 86.8886 24.1642 87.2963C24.5768 87.5437 24.9039 87.8985 25.1089 88.3339L25.5011 88.1047C25.0987 87.3185 25.4828 86.3411 26.1422 85.8229C26.9183 85.2131 27.9904 85.3882 28.7109 86.0006C29.1448 86.3694 29.4519 86.8595 29.5731 87.4171L29.9527 87.1961C29.7567 86.9713 29.8185 86.6309 29.9739 86.4018C30.1696 86.1135 30.5133 86.0315 30.8397 86.1201C31.7612 86.3703 31.9101 87.4465 31.7576 88.2472C31.7029 88.5347 32.0968 88.6444 32.1956 88.368C32.3247 88.0067 32.7581 87.9018 33.102 87.9306C33.5593 87.969 33.9233 88.2823 34.2311 88.5969C34.5937 88.9675 34.9123 89.3759 35.3372 89.6803C35.777 89.9953 36.3202 90.179 36.8564 90.0309C37.1378 89.9532 37.0183 89.5149 36.7356 89.5929C36.1631 89.751 35.6124 89.3774 35.2231 88.9923C34.8358 88.6093 34.5072 88.171 34.0644 87.8467C33.6783 87.564 33.2229 87.4234 32.7449 87.4914C32.2961 87.5552 31.9133 87.8118 31.7576 88.2472L32.1956 88.368C32.3114 87.7598 32.3081 87.1154 32.0204 86.5528C31.7757 86.0744 31.2961 85.7143 30.7603 85.6441C30.2634 85.5791 29.7854 85.8003 29.5393 86.2422C29.311 86.6523 29.3165 87.156 29.6314 87.5173C29.7902 87.6993 30.0557 87.5021 30.011 87.2963C29.7617 86.1486 28.7661 85.172 27.5929 85.0085C26.4576 84.8503 25.4365 85.5545 25.0341 86.6031C24.818 87.1663 24.833 87.795 25.1089 88.3339C25.2433 88.5964 25.6243 88.3662 25.5011 88.1047C25.0607 87.1693 24.0913 86.5749 23.0787 86.4744C22.079 86.3752 21.012 86.8297 20.7247 87.8613C20.5705 88.4151 20.7268 88.9931 21.159 89.3762L21.38 88.9966C20.8305 88.8284 20.1746 89.1854 20.0553 89.7593C19.926 90.3814 20.4385 90.9793 21.0591 91.0019C21.3515 91.0125 21.3511 90.5583 21.0591 90.5477Z" fill="#3B1954"/>
<path d="M69.938 89.1076C69.1459 88.4825 68.1939 88.0158 67.1908 87.8585C66.7451 87.7886 66.213 87.8037 65.9141 88.1956C65.6833 88.4982 65.6414 88.9879 65.9645 89.2449L66.2397 88.8882C65.8262 88.6185 65.3568 88.4584 64.8657 88.4121C64.4507 88.373 63.9785 88.4183 63.6261 88.6612C63.2949 88.8894 63.1059 89.2721 63.2458 89.6677C63.3697 90.0179 63.7107 90.2892 64.0925 90.1749C64.3718 90.0913 64.2528 89.6527 63.9717 89.7369C63.7791 89.7946 63.6494 89.55 63.6512 89.3852C63.6539 89.1326 63.9334 88.9796 64.1447 88.917C64.768 88.7323 65.4819 88.9356 66.0105 89.2804C66.2227 89.4188 66.4894 89.0857 66.2857 88.9237C66.088 88.7665 66.2082 88.4671 66.4032 88.3612C66.7342 88.1815 67.1799 88.3048 67.5203 88.3926C68.2806 88.5886 69 88.9421 69.6167 89.4288C69.8438 89.6079 70.1674 89.2886 69.938 89.1076Z" fill="#3B1954"/>
<path d="M66.4979 22.3479C67.1317 23.7928 68.8369 24.4997 70.3101 23.9357C70.5804 23.8323 70.4631 23.393 70.1894 23.4977C69.532 23.7494 68.782 23.7489 68.143 23.4372C67.5773 23.1613 67.1421 22.6932 66.8902 22.1186C66.773 21.8516 66.3815 22.0825 66.4979 22.3479Z" fill="#3B1954"/>
<path d="M73.6349 24.0133C73.9555 24.555 74.6104 24.8423 75.2238 24.6803C75.524 24.601 75.7978 24.4221 75.9887 24.1776C76.2053 23.9003 76.2952 23.5604 76.358 23.2202C76.3803 23.0997 76.3248 22.9753 76.1994 22.9408C76.089 22.9105 75.9424 22.9782 75.92 23.0994C75.8708 23.3659 75.8149 23.6436 75.6558 23.8692C75.5324 24.0442 75.3407 24.1727 75.1367 24.2329C74.7095 24.359 74.2521 24.1643 74.0271 23.7841C73.8783 23.5327 73.4855 23.7609 73.6349 24.0133Z" fill="#3B1954"/>
<path d="M72.9379 20.8573C73.0585 22.8526 73.0157 24.855 72.81 26.8433C72.78 27.1338 73.2344 27.1317 73.2643 26.8433C73.4699 24.855 73.5127 22.8526 73.3921 20.8573C73.3746 20.5668 72.9202 20.5648 72.9379 20.8573Z" fill="#3B1954"/>
<path d="M70.7561 27.8337C70.3789 27.308 69.9888 26.7275 69.446 26.3576C69.2042 26.1928 68.8964 26.1022 68.6105 26.2014C68.3394 26.2955 68.1416 26.5196 68.0059 26.765C67.692 27.3321 67.5617 28.0352 67.5207 28.6753C67.4798 29.3126 67.5137 30.0444 67.9604 30.5453C68.3959 31.0335 69.2213 31.102 69.5957 30.5028C69.751 30.2542 69.3582 30.026 69.2034 30.2736C68.9637 30.6572 68.4515 30.4603 68.2346 30.1658C67.9311 29.7535 67.9439 29.1625 67.9749 28.6753C68.0078 28.159 68.117 27.6236 68.3229 27.1471C68.3977 26.974 68.5 26.7837 68.6619 26.6775C68.8567 26.5498 69.0686 26.6422 69.2394 26.7653C69.6996 27.0971 70.0376 27.6083 70.3639 28.063C70.5328 28.2984 70.9269 28.0718 70.7561 27.8337Z" fill="#3B1954"/>
<path d="M67.9469 27.4004C68.3342 28.2071 68.9336 28.9109 69.6683 29.4217C69.7244 29.4606 69.7861 29.506 69.7968 29.5733C69.8019 29.6056 69.7942 29.6384 69.7855 29.6699C69.7191 29.9099 69.5885 30.1377 69.3898 30.2878C69.1911 30.438 68.92 30.5011 68.6845 30.4201C68.3247 30.2962 68.1462 29.897 68.0465 29.5298C67.9188 29.0595 67.8531 28.5724 67.8516 28.0851C67.8513 28.0057 67.9077 27.893 67.9743 27.9362" fill="#3B1954"/>
<path d="M67.7509 27.5153C68.1285 28.2923 68.6888 28.9668 69.3762 29.4888C69.4151 29.5183 69.4543 29.5473 69.494 29.5758C69.5304 29.6019 69.5694 29.6545 69.5665 29.6097C69.5716 29.689 69.4921 29.8126 69.4531 29.8781C69.3516 30.0486 69.1916 30.1886 68.9906 30.2219C68.6045 30.2859 68.4012 29.903 68.3018 29.5928C68.2205 29.3391 68.1656 29.0731 68.1285 28.8094C68.1105 28.6811 68.0982 28.5518 68.09 28.4225C68.0852 28.3477 68.0819 28.2727 68.0802 28.1978C68.0797 28.1775 68.0871 28.1317 68.0789 28.1135C68.0537 28.0575 68.1389 28.1138 68.0069 28.1459H67.8862L67.914 28.1555C68.1911 28.2504 68.3101 27.8118 68.0347 27.7175C67.9016 27.6719 67.7645 27.7336 67.6923 27.8512C67.6164 27.9749 67.6228 28.1142 67.6276 28.254C67.6384 28.5736 67.676 28.8935 67.7379 29.2072C67.8341 29.6947 67.987 30.3021 68.4566 30.5654C68.9723 30.8546 69.5829 30.5687 69.8573 30.0873C69.9954 29.845 70.1253 29.5154 69.8791 29.2989C69.6741 29.1186 69.4424 28.9738 69.2418 28.7855C68.7849 28.3565 68.4169 27.8493 68.1431 27.286C68.0153 27.0232 67.6235 27.2532 67.7509 27.5153Z" fill="#3B1954"/>
<path d="M67.2679 20.0471C68.535 19.4467 69.9443 19.1978 71.3407 19.308C71.6321 19.331 71.6306 18.8767 71.3407 18.8538C69.8625 18.7371 68.3774 19.0206 67.0387 19.6549C66.7747 19.7799 67.0049 20.1717 67.2679 20.0471Z" fill="#3B1954"/>
<path d="M73.2 20.9623C73.588 20.9427 73.976 20.9232 74.364 20.9037C74.4825 20.8977 74.5968 20.8035 74.5911 20.6766C74.5859 20.5586 74.4911 20.4431 74.364 20.4495C73.976 20.469 73.588 20.4885 73.2 20.508C73.0815 20.514 72.9672 20.6082 72.9729 20.7351C72.9781 20.8531 73.0729 20.9686 73.2 20.9623Z" fill="#3B1954"/>
</svg>
